<?xml version="1.0" encoding="utf-8"?>
<!-- Generator: Adobe Illustrator 24.0.1, SVG Export Plug-In . SVG Version: 6.00 Build 0)  -->
<svg version="1.1" id="Layer_1" xmlns="http://www.w3.org/2000/svg" xmlns:xlink="http://www.w3.org/1999/xlink" x="0px" y="0px"
	 viewBox="0 0 1080 1080" style="enable-background:new 0 0 1080 1080;" xml:space="preserve">
<style type="text/css">
	.st0{fill:#800000;}
	.st1{display:none;fill:#800000;}
	.st2{fill:#F6F2E0;}
	.st3{fill:#FFFFFF;}
	.st4{fill:#6ECAD9;}
	.st5{fill:#FCFCFC;}
	.st6{fill:#EEDC92;}
	.st7{fill:#FFBD11;}
	.st8{fill:#EDDC92;}
	.st9{fill:#FEC210;}
</style>
<g>
	<path class="st0" d="M453.32,533.24c-6.69,10.57-10.99,21.29-13.19,32.86c-0.66,3.47-0.7,6.94-0.51,10.39
		c0.16,2.88-0.93,3.72-3.57,3.4c-1.23-0.15-2.5-0.02-3.75-0.02c-86.55,0-173.1,0-259.66,0.01c-2.38,0-4.74-0.11-7.03-0.78
		c-6.58-1.91-11.54-8.11-11.2-13.92c0.41-7.07,6.19-13.48,13.28-14.55c2.05-0.31,4.16-0.31,6.24-0.31c23.52-0.01,47.03,0,70.55,0.01
		c0.69,0,1.38-0.06,2.07-0.1c0.38-1.44-0.89-1.54-1.54-2.07c-4.18-3.48-5.57-8.03-5.57-13.33c0.05-42.02,0.02-84.05,0.02-126.07
		c0-74.45,0-148.89,0.01-223.34c0-12.89,4.74-17.68,17.56-17.68c189.52,0,379.05,0,568.57,0c11.27,0,16.45,5.26,16.45,16.67
		c0,116.61-0.01,233.22,0.05,349.83c0,6.42-1.65,11.75-7.46,15.18c0.81,1.46,2.05,0.86,3.02,0.86c25.33,0.04,50.65-0.01,75.98,0.06
		c10.76,0.03,17.34,7,16.97,17.68c-0.25,7.27-6.6,13.49-14.76,14.39c-1.38,0.15-2.78,0.11-4.17,0.11c-82.1,0-164.2-0.02-246.3,0.09
		c-3.79,0.01-4.76-0.93-4.78-4.74c-0.08-13-4.97-24.77-10.25-36.37c-0.91-1.99-1.95-3.92-3.18-6.38c1.82-0.09,3.26-0.21,4.69-0.21
		c54.69-0.01,109.37-0.05,164.06,0.1c3.8,0.01,4.47-1.03,4.46-4.58c-0.1-112.16-0.09-224.31,0-336.47c0-3.56-0.55-4.92-4.59-4.91
		c-182.43,0.12-364.86,0.11-547.28,0.11c-5.57,0-5.57,0-5.57,5.47c0,111.18,0.03,222.37-0.1,333.55c-0.01,4.25,1.07,5.18,5.24,5.17
		c59.97-0.16,119.95-0.11,179.92-0.11C449.54,533.24,451.07,533.24,453.32,533.24z"/>
	<path class="st1" d="M377.85,778.78c4.3-7.52,10.66-12.64,18.08-16.59c10.88-5.79,22.82-7.7,34.83-9.28
		c10.75-1.41,21.6-2.06,32.23-4.29c12.15-2.54,23.16-7,29.57-18.71c2.57-4.7,3.84-9.79,4.67-15.02c0.47-2.94-0.65-5.5-2.25-7.82
		c-3.93-5.73-8.14-11.27-11.93-17.08c-6.85-10.5-12.77-21.5-15.41-33.88c-2.51-11.78-1.56-23.19,4.58-33.88
		c3.18-5.54,2.9-11.79,3.14-17.87c0.32-7.92-1.08-15.86-0.26-23.77c2.41-23.04,14.59-39.49,35.44-48.76
		c29.94-13.31,59.6-12.26,87.46,5.78c18.78,12.16,26,30.68,25.56,52.59c-0.17,8.6-1.24,17.24,0.61,25.79
		c0.38,1.74,0.76,3.64,1.71,5.08c9.04,13.79,7.61,28.31,2.73,42.84c-4.19,12.48-11.06,23.51-19.62,33.58
		c-4.05,4.76-9.81,9.24-8.85,16.32c1.36,10.02,5.58,18.91,13.97,25.21c9.3,6.98,20.31,8.59,31.43,9.73
		c12.98,1.33,26.14,1.28,38.81,4.98c12.27,3.58,21.23,11.11,26.89,22.63c1.15,2.34,1.06,3.26-1.8,3.04
		c-1.94-0.15-3.89-0.01-5.84-0.01c-107.14,0-214.28,0-321.42-0.02C380.85,779.36,379.43,779.82,377.85,778.78z"/>
	<path class="st1" d="M542.35,877.54c-76.81,0-153.62-0.03-230.43,0.1c-4.05,0.01-5.12-0.99-4.98-5.02
		c0.36-10.26-0.38-20.55,3-30.56c8.23-24.32,29.49-39.84,55.74-39.86c117.86-0.08,235.71-0.08,353.57,0.03
		c33.3,0.03,58.25,25.01,58.71,58.25c0.06,4.59-0.08,9.19,0.07,13.77c0.08,2.39-0.42,3.72-3.17,3.31c-1.36-0.2-2.78-0.03-4.17-0.03
		C694.58,877.54,618.46,877.54,542.35,877.54z"/>
</g>
<g>
	<path d="M632.35,210c3.8,0,6.9,2.97,6.9,6.61v0.47c12.02,1.61,22.91,6.91,31.17,14.66c9.73,9.14,15.81,21.67,15.81,35.61
		l-0.46,17.21l3.56,24.68c0.14,0.8,0.06,1.62-0.23,2.38s-0.78,1.43-1.43,1.95l0.44,0.5l0.82,0.93l-3.59,4.55l-0.07,0.16l-0.02,0.05
		c-1.1,2.68-2.57,5.12-4.27,6.92c-1.43,1.46-3.03,2.51-4.77,2.92c-0.34,1.03-0.71,2.1-0.98,3.15c-1.94,6.26-3.46,11.19-7.5,16.09
		c-0.88,1.07-1.82,2.1-2.81,3.07c-0.68,0.68-1.38,1.34-2.12,1.97c0.12,1.19,0.1,11.6,0.08,14.58l-1.19,0.27
		c-2.6,8.82-10.4,14.54-19.58,17.24c-5.23,1.53-10.92,2.09-16.34,1.69c-5.46-0.4-10.69-1.79-14.94-4.13
		c-5.97-3.29-10.06-8.44-10.35-15.4v-0.48l-1.3-0.34v-13.37l0.03-1.4c-3.72-3.23-6.76-7.51-8.81-11.86
		c-1.43-3.03-2.56-6.32-3.88-10.03l-0.68-1.93c-1.49-0.19-2.88-0.85-4.13-1.82c-1.57-1.23-2.92-3.03-4.02-5.11
		c-0.74-1.39-2.2-3.48-2.73-7.83c-1.59-0.93-2.54-2.7-2.27-4.58l3.58-24.7l-1-15.12c-0.07-1.1-0.11-2.1-0.11-3
		c0-13.47,6.05-25.56,15.62-34.49c9.08-8.48,21.38-14.1,34.67-15.28v-0.18C625.46,212.97,628.56,210,632.35,210z"/>
	<path d="M637.37,383.49c8.05-1.72,15.36-6.02,18.92-12.63c1.15-2.58,4.03-4.17,7.03-3.67c4.74,0.8,7.63,1.25,10.54,1.69
		c34.63,5.35,67.49,10.42,76.57,52.57l9.8,50.75c0.15,0.52,0.23,1.07,0.23,1.63c0,3.41-2.89,6.17-6.44,6.17H508
		c-0.34-0.02-0.68-0.04-1.03-0.09c-3.5-0.54-5.88-3.7-5.31-7.06l7.31-42.76c10.34-50.37,37.75-55.58,77.47-63.13
		c4.18-0.79,8.48-1.61,11.83-2.28c3.43-0.68,6.81,1.41,7.57,4.7c1.35,5.79,5.23,9.83,10.27,12.21c3.02,1.43,6.45,2.3,10.01,2.62
		C629.83,384.52,633.67,384.28,637.37,383.49z"/>
	<path class="st2" d="M657.92,354.96c-18,13.42-35.8,12.14-53.43,0.12l-0.08,13.37c1.86,20.73,48.23,21.9,53.51,0.61V354.96z
		 M683.47,315.54c-0.45-0.51-0.9-1.02-1.35-1.52l-0.31-0.19c-12.11-8.17-31.44-12.24-50.86-12.24c-18.86,0-37.55,3.84-49.52,11.47
		l1.67,7.1l5.52,5.54l3.42,3.53c9.6,38.49,68.34,40.9,78.61,0l6.04-5.03L683.47,315.54z"/>
	<path class="st0" d="M684.54,310.01l-3.22-22.32c-0.36-0.02-0.72-0.1-1.06-0.24c-17.59-7.35-34.55-10.36-50.97-10.02
		c-16.43,0.35-32.37,4.07-47.89,10.18c-0.24,0.1-0.49,0.16-0.74,0.19l-3.22,22.21C602.91,292.61,658.61,292.51,684.54,310.01z
		 M681.01,281.49l0.35-12.97c0.72-26.27-22.44-47.35-49.87-47.35h-0.78c-27.86,0-52.43,21.46-50.65,48.1l0.82,12.33
		c15.62-5.96,31.69-9.57,48.3-9.92C645.91,271.32,663.17,274.28,681.01,281.49z"/>
	<path class="st3" d="M638.41,244.1h-2.4c-0.14-0.69-0.39-1.29-0.74-1.81s-0.77-0.96-1.28-1.31c-0.5-0.36-1.05-0.63-1.65-0.81
		c-0.61-0.18-1.24-0.27-1.9-0.27c-1.2,0-2.28,0.3-3.26,0.91c-0.97,0.6-1.74,1.49-2.31,2.67s-0.85,2.62-0.85,4.33
		s0.28,3.15,0.85,4.33c0.57,1.18,1.34,2.07,2.31,2.67c0.97,0.6,2.06,0.91,3.26,0.91c0.66,0,1.29-0.09,1.9-0.27
		c0.61-0.18,1.16-0.45,1.65-0.8c0.5-0.36,0.93-0.8,1.28-1.32c0.35-0.53,0.6-1.13,0.74-1.81h2.4c-0.18,1.01-0.51,1.91-0.99,2.71
		s-1.07,1.48-1.78,2.03c-0.71,0.55-1.5,0.97-2.39,1.26c-0.88,0.29-1.81,0.43-2.81,0.43c-1.69,0-3.19-0.41-4.51-1.23
		s-2.35-1.99-3.1-3.51c-0.75-1.52-1.13-3.32-1.13-5.4c0-2.08,0.38-3.88,1.13-5.4c0.75-1.52,1.79-2.69,3.1-3.51
		c1.31-0.82,2.82-1.23,4.51-1.23c1,0,1.94,0.14,2.81,0.43c0.88,0.29,1.68,0.71,2.39,1.27c0.71,0.55,1.3,1.23,1.78,2.03
		C637.91,242.18,638.23,243.09,638.41,244.1z"/>
	<path class="st4" d="M662.19,373.28c-4.54,8.82-14.01,14.39-24.26,16.39v28.64h-13.88l-0.01-28.14
		c-11.57-1.46-21.77-7.77-24.48-19.46c-43.63,8.82-73.81,9.48-84.29,60.57l-2.5,14.55h53.2v-25.89c0-1.58,1.34-2.87,3-2.87
		s3,1.29,3,2.87v53.9H689.7v-53.9c0-1.58,1.34-2.87,3-2.87s2.99,1.29,2.99,2.87v25.89h52.9l-4.4-22.81
		C735.22,380.57,698.32,379.34,662.19,373.28z M510.4,459.63l-2.43,14.21h58v-14.21H510.4z M695.69,473.84h58.3l-2.74-14.21h-55.56
		V473.84z"/>
	<path d="M601.09,444.4h-2.33c-0.14-0.65-0.38-1.21-0.72-1.7c-0.34-0.49-0.75-0.9-1.24-1.23c-0.48-0.34-1.02-0.59-1.61-0.76
		c-0.59-0.17-1.2-0.25-1.84-0.25c-1.17,0-2.22,0.28-3.17,0.85c-0.94,0.57-1.69,1.4-2.25,2.5c-0.55,1.1-0.83,2.46-0.83,4.06
		s0.28,2.96,0.83,4.06c0.56,1.1,1.31,1.94,2.25,2.5c0.95,0.57,2,0.85,3.17,0.85c0.64,0,1.25-0.08,1.84-0.25s1.13-0.42,1.61-0.75
		c0.49-0.34,0.9-0.75,1.24-1.24c0.35-0.49,0.59-1.06,0.72-1.7h2.33c-0.18,0.95-0.5,1.79-0.96,2.54s-1.04,1.38-1.73,1.91
		c-0.69,0.52-1.46,0.91-2.32,1.19c-0.85,0.27-1.77,0.41-2.74,0.41c-1.64,0-3.1-0.39-4.38-1.16s-2.29-1.87-3.02-3.29
		c-0.73-1.42-1.1-3.11-1.1-5.06s0.37-3.64,1.1-5.06c0.73-1.42,1.74-2.52,3.02-3.29c1.28-0.77,2.74-1.16,4.38-1.16
		c0.97,0,1.88,0.14,2.74,0.41s1.63,0.67,2.32,1.19s1.27,1.15,1.73,1.9C600.6,442.6,600.92,443.45,601.09,444.4z"/>
	<path d="M621.11,447.88c0,1.95-0.37,3.64-1.1,5.06c-0.73,1.42-1.74,2.52-3.02,3.29c-1.28,0.77-2.74,1.16-4.38,1.16
		s-3.1-0.39-4.38-1.16s-2.29-1.87-3.02-3.29c-0.73-1.42-1.1-3.11-1.1-5.06s0.37-3.64,1.1-5.06c0.73-1.42,1.74-2.52,3.02-3.29
		c1.28-0.77,2.74-1.16,4.38-1.16s3.1,0.39,4.38,1.16s2.29,1.87,3.02,3.29C620.75,444.23,621.11,445.92,621.11,447.88z
		 M618.86,447.88c0-1.6-0.28-2.96-0.84-4.06c-0.55-1.1-1.3-1.94-2.25-2.5c-0.94-0.57-1.99-0.85-3.16-0.85s-2.22,0.28-3.17,0.85
		c-0.94,0.57-1.69,1.4-2.25,2.5c-0.55,1.1-0.83,2.46-0.83,4.06s0.28,2.96,0.83,4.06c0.56,1.1,1.31,1.94,2.25,2.5
		c0.95,0.57,2,0.85,3.17,0.85s2.22-0.28,3.16-0.85c0.95-0.57,1.7-1.4,2.25-2.5C618.58,450.83,618.86,449.48,618.86,447.88z"/>
	<path d="M624.92,457.14h-2.45l7.07-18.52h2.41l7.07,18.52h-2.45l-5.76-15.59h-0.15L624.92,457.14z M625.82,449.9h9.86v1.99h-9.86
		V449.9z"/>
	<path d="M656.62,444.4h-2.33c-0.14-0.65-0.38-1.21-0.73-1.7c-0.34-0.49-0.75-0.9-1.24-1.23c-0.48-0.34-1.02-0.59-1.61-0.76
		c-0.59-0.17-1.2-0.25-1.84-0.25c-1.17,0-2.22,0.28-3.17,0.85c-0.94,0.57-1.69,1.4-2.25,2.5c-0.55,1.1-0.83,2.46-0.83,4.06
		s0.27,2.96,0.83,4.06s1.31,1.94,2.25,2.5c0.95,0.57,2,0.85,3.17,0.85c0.64,0,1.25-0.08,1.84-0.25s1.13-0.42,1.61-0.75
		c0.49-0.34,0.9-0.75,1.24-1.24c0.35-0.49,0.59-1.06,0.73-1.7h2.33c-0.18,0.95-0.5,1.79-0.96,2.54s-1.04,1.38-1.73,1.91
		c-0.69,0.52-1.46,0.91-2.32,1.19c-0.85,0.27-1.76,0.41-2.74,0.41c-1.64,0-3.1-0.39-4.38-1.16s-2.29-1.87-3.02-3.29
		c-0.73-1.42-1.1-3.11-1.1-5.06s0.37-3.64,1.1-5.06c0.73-1.42,1.74-2.52,3.02-3.29c1.28-0.77,2.74-1.16,4.38-1.16
		c0.97,0,1.88,0.14,2.74,0.41s1.63,0.67,2.32,1.19s1.27,1.15,1.73,1.9C656.13,442.6,656.45,443.45,656.62,444.4z"/>
	<path d="M660.39,457.14v-18.52h2.33v8.25H673v-8.25h2.33v18.52H673v-8.29h-10.27v8.29H660.39z"/>
</g>
<g>
	<path d="M523.96,282.52c0,1.22,0,2.43,0,3.65c-1.11,2.47-3.04,4.26-4.9,6.13c-9.15,9.13-18.29,18.28-27.43,27.42
		c-3.77,3.77-3.76,3.77-1.42,8.48c2.36,4.74,1.93,7.55-1.78,11.26c-10.92,10.91-21.82,21.84-32.79,32.7
		c-1.28,1.27-1.85,2.51-1.85,4.35c0.06,31.94-0.01,63.88,0.1,95.82c0.02,4.75-1.64,7.97-6.14,9.61c-3.96,0-7.91,0-11.87,0
		c-4.68-2.43-5.54-6.46-5.5-11.4c0.17-23.42,0.08-46.84,0.06-70.26c0-0.79,0.24-1.63-0.3-2.58c-4.68,4.68-9.25,9.32-13.91,13.87
		c-1.02,1-1.36,1.99-1.36,3.38c0.04,19.01-0.07,38.02,0.1,57.03c0.04,4.81-1.51,8.15-6.02,9.96c-3.96,0-7.91,0-11.87,0
		c-4.55-2.22-5.71-5.95-5.59-10.81c0.26-10.7,0.08-21.41,0.08-32.12c0-0.72,0-1.45,0-2.5c-0.53,0.4-0.77,0.54-0.96,0.73
		c-4.57,4.56-9.11,9.14-13.72,13.66c-0.82,0.81-0.89,1.66-0.89,2.66c0.02,6.23,0.01,12.45,0.01,18.68c0,5.58-1.37,7.68-6.31,9.7
		c-3.96,0-7.91,0-11.87,0c-2.29-1.71-4.76-3.27-5.21-6.76c-2.99,2.77-5.14,5.88-8.94,6.76c-0.91,0-1.83,0-2.74,0
		c-1.44-1.05-3.09-1.72-4.4-3.03c-7.79-7.81-15.66-15.53-23.49-23.29c-4.34-4.3-4.33-8.46,0.04-12.82
		c12.65-12.62,25.3-25.24,37.97-37.85c0.94-0.93,1.59-1.81,1.58-3.3c-0.06-17.26-0.04-34.52-0.06-51.78c0-0.53,0.35-1.2-0.35-1.61
		c-15.16,17.21-37.08,16.14-50.91,2.93c-13.79-13.18-14.62-33.82-1.96-47.98c6.36-7.12,14.34-11.3,23.84-11.91
		c11.78-0.76,21.33,4.14,29.06,12.91c0.56-0.83,0.32-1.61,0.32-2.34c0.02-9.73,0-19.47,0.02-29.2c0.01-4.98,1.84-7.42,6.63-8.68
		c0.96-0.25,1.2-0.59,1.18-1.49c-0.05-2.2-0.08-4.41,0.02-6.61c0.18-4.41,3.36-7.55,7.79-7.56c23.35-0.03,46.69-0.04,70.04,0
		c4.41,0.01,7.57,3.21,7.73,7.62c0.08,2.2,0.04,4.41,0.02,6.61c-0.01,0.75,0.1,1.14,1,1.4c5.3,1.55,6.8,3.64,6.8,9.22
		c0.01,8.9,0,17.79,0,26.69c0,0.72,0,1.44,0,2.59c3.87-2.99,7.4-2.2,10.91-0.18c0.39,0.23,0.83,0.39,1.2,0.65
		c1.84,1.37,3.12,0.95,4.75-0.72c10.34-10.63,20.81-21.12,31.26-31.65c3.1-3.12,7.31-3.94,10.25-1.29
		C516.58,273.22,521.23,277.05,523.96,282.52z M336.92,468.23c1.44,1.46,2.95,2.85,4.28,4.39c1.14,1.32,1.93,1.4,3.21,0.06
		c3.98-4.18,8.1-8.23,12.18-12.33c40.8-40.99,81.6-81.98,122.4-122.97c4.86-4.88,4.85-4.88,1.47-10.95
		c-0.04-0.06-0.11-0.1-0.17-0.16c-1.15-2.79-3.67-4.4-5.67-6.43c-3.96-4.04-7.64-8.42-13.2-10.6c-1.91-0.75-2.84-0.58-4.22,0.8
		c-39.49,39.45-79.02,78.85-118.55,118.26c-6.62,6.6-13.24,13.21-19.86,19.82c-0.62,0.62-1.42,1.02-0.31,2.1
		C324.68,456.18,330.79,462.22,336.92,468.23z M376.01,380.08c4.99-4.99,9.55-9.62,14.2-14.17c1-0.98,1.4-1.95,1.4-3.36
		c-0.05-16.19-0.03-32.37-0.03-48.56c0-12.08-0.05-24.17,0.05-36.25c0.01-1.87-0.57-2.25-2.28-2.19c-3.72,0.12-7.45,0.15-11.17-0.01
		c-1.83-0.08-2.21,0.5-2.21,2.25c0.06,19.83,0.04,39.67,0.04,59.5C376.01,351.35,376.01,365.41,376.01,380.08z M360.42,394.98
		c0.2,0.11,0.39,0.23,0.59,0.34c0.47-0.57,0.85-1.27,1.44-1.68c4.82-3.44,5.97-8,5.92-13.88c-0.29-34.37-0.14-68.74-0.14-103.12
		c0-5.03,0-4.9-5.13-5.08c-2.24-0.08-2.73,0.57-2.72,2.75c0.07,39.47,0.05,78.94,0.05,118.4
		C360.42,393.47,360.42,394.23,360.42,394.98z M414.9,341.33c5.25-5.26,10.1-10.14,14.98-15c0.56-0.56,0.58-1.18,0.58-1.87
		c0-15.8-0.02-31.6,0.02-47.41c0-1.24-0.4-1.51-1.55-1.49c-4.1,0.06-8.21,0.09-12.31-0.01c-1.41-0.03-1.76,0.35-1.76,1.76
		C414.92,298.44,414.9,319.56,414.9,341.33z M446.03,382.56c-0.2-0.11-0.39-0.23-0.59-0.34c-1.88,1.94-3.7,3.95-5.68,5.8
		c-1.15,1.08-1.56,2.2-1.56,3.77c0.05,25.68,0.03,51.36,0.03,77.04c0,5.34,0,5.24,5.24,5.39c2.07,0.06,2.61-0.49,2.61-2.58
		c-0.07-28.95-0.05-57.89-0.05-86.84C446.03,384.05,446.03,383.3,446.03,382.56z M399.35,356.15c0.16,0.11,0.33,0.23,0.49,0.34
		c1.94-2,3.81-4.07,5.84-5.98c1.09-1.03,1.48-2.09,1.47-3.57c-0.04-23.12-0.03-46.24-0.03-69.36c0-6.19,0-6.14-6.21-5.99
		c-1.39,0.03-1.59,0.54-1.58,1.74C399.36,300.94,399.35,328.54,399.35,356.15z M515.75,283.86c-0.25-0.3-0.57-0.73-0.93-1.1
		c-1.85-1.91-3.78-3.75-5.56-5.71c-1.1-1.22-1.86-1.06-2.94,0.04c-10.05,10.24-20.14,20.45-30.25,30.64
		c-0.86,0.87-1.09,1.44-0.08,2.38c2,1.86,3.92,3.81,5.8,5.79c0.92,0.96,1.59,1.1,2.6,0.07c10.17-10.23,20.38-20.43,30.58-30.64
		C515.34,284.97,515.8,284.64,515.75,283.86z M407.12,420.64c-2.45,2.48-4.42,4.58-6.51,6.54c-0.98,0.92-1.29,1.88-1.28,3.19
		c0.04,12.68,0.01,25.37,0.05,38.06c0.01,1.86-0.88,4.41,0.4,5.41c1.19,0.93,3.63,0.19,5.51,0.35c1.53,0.13,1.88-0.42,1.87-1.89
		c-0.07-6.91-0.03-13.82-0.03-20.74C407.12,441.47,407.12,431.38,407.12,420.64z M383.97,256.07c-4.56,0-9.12,0-13.68,0
		c-0.53,0-1.12-0.12-1.58,0.07c-0.83,0.35-0.52,1.22-0.45,1.82c0.25,1.96-1.12,4.75,0.62,5.7c2.11,1.16,4.43,1.8,5.96,3.86
		c0.41,0.55,1.14,0.27,1.73,0.28c4.18,0.02,8.36-0.04,12.54,0.03c2.02,0.04,3.88,0.07,5.17-1.93c0.41-0.64,1.33-1.27,2.06-1.32
		c3.22-0.21,3.27-2.3,3.04-4.68c-0.06-0.6-0.08-1.23,0.01-1.82c0.22-1.54-0.28-2.1-1.95-2.05
		C392.94,256.15,388.45,256.07,383.97,256.07z M422.75,256.07c-4.64,0-9.27-0.02-13.91,0.02c-0.64,0.01-1.68-0.47-1.7,0.83
		c-0.03,2.05-0.01,4.1,0,6.16c0,0.29-0.03,0.67,0.37,0.72c2.75,0.3,4.72,1.85,6.5,3.83c0.29,0.33,1.16,0.18,1.76,0.18
		c3.95,0.01,7.91-0.05,11.86,0.03c2.23,0.04,4.35,0.13,5.76-2.11c0.33-0.52,1.09-1,1.7-1.06c3.36-0.32,3.45-2.55,3.16-5.08
		c-0.04-0.38-0.06-0.77,0-1.14c0.3-1.82-0.28-2.5-2.28-2.42C431.57,256.19,427.16,256.07,422.75,256.07z M438.24,317.35
		c0.2,0.11,0.39,0.21,0.59,0.32c1.94-2.03,3.82-4.11,5.84-6.05c1.02-0.98,1.41-1.98,1.4-3.38c-0.06-10.33-0.03-20.66-0.03-30.98
		c0-5.67,0-5.57-5.64-5.68c-1.93-0.04-2.2,0.66-2.19,2.34c0.06,13.29,0.03,26.58,0.03,39.87
		C438.24,314.97,438.24,316.16,438.24,317.35z M303.5,342.39c0.92-0.84,1.43-1.28,1.91-1.75c11.3-11.29,22.59-22.59,33.89-33.88
		c2.34-2.34,2.35-2.36-0.62-4.09c-1.2-0.7-2.26-1.63-3.77-0.1c-11.02,11.14-22.12,22.2-33.22,33.25c-0.92,0.91-1.12,1.7-0.4,2.77
		c0.6,0.88,1.16,1.78,1.71,2.69C303.19,341.6,303.31,341.96,303.5,342.39z M349.92,314.86c-0.39-0.72-0.79-1.54-1.26-2.31
		c-1.57-2.62-1.58-2.61-3.73-0.46c-11.22,11.22-22.45,22.45-33.67,33.67c-2.12,2.12-2.14,2.16,0.45,3.7
		c1.2,0.71,2.28,1.99,3.93,0.33c11.12-11.22,22.31-22.36,33.48-33.54C349.48,315.89,350.01,315.61,349.92,314.86z M298.13,327.36
		c9.43-9.43,18.99-18.99,28.36-28.35C311.38,297.54,296.95,311.97,298.13,327.36z M324.17,353.28
		c15.08,1.43,29.78-12.89,28.27-28.27C343.11,334.34,333.61,343.84,324.17,353.28z M368.23,459.6c-2.7,2.7-4.94,4.96-7.2,7.18
		c-0.47,0.47-0.59,1-0.64,1.63c-0.45,5.76-0.46,5.76,5.26,5.76c0.38,0,0.76-0.04,1.14,0.01c1.06,0.12,1.48-0.28,1.46-1.4
		C368.2,468.63,368.23,464.47,368.23,459.6z"/>
	<path class="st5" d="M343.69,481.94c3.8-0.87,5.95-3.99,8.94-6.76c0.45,3.49,2.92,5.05,5.21,6.76
		C353.12,481.94,348.41,481.94,343.69,481.94z"/>
	<path class="st6" d="M336.92,468.23c-6.13-6.01-12.24-12.05-18.43-18c-1.12-1.07-0.31-1.48,0.31-2.1
		c6.62-6.61,13.24-13.22,19.86-19.82c39.52-39.41,79.06-78.81,118.55-118.26c1.38-1.38,2.31-1.55,4.22-0.8
		c5.56,2.18,9.24,6.56,13.2,10.6c2,2.04,4.52,3.64,5.67,6.43c-0.95,0.39-1.54,1.23-2.23,1.92
		c-46.07,46.06-92.13,92.12-138.21,138.17C339.03,467.19,338.41,468.42,336.92,468.23z"/>
	<path class="st6" d="M336.92,468.23c1.49,0.19,2.11-1.04,2.94-1.86c46.08-46.05,92.14-92.11,138.21-138.17
		c0.69-0.69,1.27-1.53,2.23-1.92c0.06,0.05,0.13,0.09,0.17,0.16c3.39,6.07,3.39,6.07-1.47,10.95
		c-40.8,40.99-81.6,81.98-122.4,122.97c-4.07,4.09-8.19,8.14-12.18,12.33c-1.28,1.35-2.07,1.26-3.21-0.06
		C339.87,471.08,338.36,469.69,336.92,468.23z"/>
	<path class="st7" d="M360.42,394.98c0-0.76,0-1.51,0-2.27c0-39.47,0.02-78.94-0.05-118.4c0-2.18,0.48-2.83,2.72-2.75
		c5.13,0.18,5.13,0.05,5.13,5.08c0,34.37-0.15,68.75,0.14,103.12c0.05,5.88-1.1,10.44-5.92,13.88c-0.58,0.42-0.96,1.12-1.44,1.68
		C360.82,395.21,360.62,395.1,360.42,394.98z"/>
	<path class="st7" d="M446.03,382.56c0,0.75,0,1.49,0,2.24c0,28.95-0.02,57.89,0.05,86.84c0.01,2.09-0.54,2.64-2.61,2.58
		c-5.23-0.15-5.24-0.05-5.24-5.39c0-25.68,0.01-51.36-0.03-77.04c0-1.57,0.41-2.7,1.56-3.77c1.97-1.85,3.79-3.86,5.68-5.8
		C445.64,382.33,445.84,382.44,446.03,382.56z"/>
	<path class="st7" d="M399.35,356.15c0-27.61,0.01-55.21-0.02-82.82c0-1.2,0.2-1.71,1.58-1.74c6.21-0.14,6.21-0.19,6.21,5.99
		c0,23.12-0.01,46.24,0.03,69.36c0,1.48-0.39,2.55-1.47,3.57c-2.03,1.91-3.9,3.97-5.84,5.98
		C399.68,356.38,399.52,356.26,399.35,356.15z"/>
	<path class="st6" d="M515.75,283.86c0.05,0.78-0.41,1.11-0.77,1.47c-10.2,10.21-20.41,20.4-30.58,30.64
		c-1.02,1.02-1.69,0.89-2.6-0.07c-1.88-1.98-3.81-3.93-5.8-5.79c-1-0.94-0.78-1.51,0.08-2.38c10.11-10.19,20.19-20.4,30.25-30.64
		c1.09-1.11,1.84-1.26,2.94-0.04c1.78,1.97,3.71,3.81,5.56,5.71C515.18,283.13,515.5,283.56,515.75,283.86z"/>
	<path class="st7" d="M407.12,420.64c0,10.74,0,20.83,0,30.93c0,6.91-0.04,13.82,0.03,20.74c0.02,1.47-0.34,2.02-1.87,1.89
		c-1.88-0.16-4.32,0.58-5.51-0.35c-1.28-1-0.4-3.55-0.4-5.41c-0.04-12.68-0.01-25.37-0.05-38.06c0-1.31,0.31-2.27,1.28-3.19
		C402.7,425.22,404.67,423.12,407.12,420.64z"/>
	<path class="st7" d="M383.97,256.07c4.48,0,8.97,0.08,13.45-0.04c1.66-0.05,2.17,0.51,1.95,2.05c-0.08,0.6-0.06,1.22-0.01,1.82
		c0.23,2.37,0.18,4.46-3.04,4.68c-0.73,0.05-1.65,0.68-2.06,1.32c-1.29,2-3.15,1.97-5.17,1.93c-4.18-0.08-8.36-0.01-12.54-0.03
		c-0.58,0-1.32,0.27-1.73-0.28c-1.53-2.07-3.85-2.71-5.96-3.86c-1.74-0.95-0.37-3.74-0.62-5.7c-0.08-0.6-0.39-1.47,0.45-1.82
		c0.46-0.19,1.05-0.07,1.58-0.07C374.84,256.07,379.4,256.07,383.97,256.07z"/>
	<path class="st7" d="M422.75,256.07c4.41,0,8.82,0.12,13.22-0.05c2-0.08,2.58,0.6,2.28,2.42c-0.06,0.37-0.05,0.76,0,1.14
		c0.29,2.53,0.19,4.76-3.16,5.08c-0.61,0.06-1.37,0.54-1.7,1.06c-1.41,2.24-3.53,2.15-5.76,2.11c-3.95-0.07-7.91-0.01-11.86-0.03
		c-0.6,0-1.46,0.15-1.76-0.18c-1.78-1.98-3.75-3.53-6.5-3.83c-0.4-0.04-0.37-0.43-0.37-0.72c-0.01-2.05-0.03-4.1,0-6.16
		c0.02-1.3,1.06-0.83,1.7-0.83C413.47,256.05,418.11,256.07,422.75,256.07z"/>
	<path class="st7" d="M438.24,317.35c0-1.19,0-2.38,0-3.57c0-13.29,0.03-26.58-0.03-39.87c-0.01-1.68,0.26-2.38,2.19-2.34
		c5.63,0.11,5.64,0.01,5.64,5.68c0,10.33-0.03,20.66,0.03,30.98c0.01,1.41-0.38,2.41-1.4,3.38c-2.02,1.94-3.9,4.02-5.84,6.05
		C438.63,317.56,438.43,317.46,438.24,317.35z"/>
	<path class="st0" d="M303.5,342.39c-0.19-0.42-0.31-0.79-0.51-1.11c-0.55-0.91-1.11-1.82-1.71-2.69c-0.73-1.06-0.52-1.85,0.4-2.77
		c11.11-11.05,22.2-22.11,33.22-33.25c1.51-1.53,2.57-0.59,3.77,0.1c2.98,1.72,2.97,1.74,0.62,4.09
		c-11.29,11.29-22.59,22.59-33.89,33.88C304.93,341.11,304.41,341.55,303.5,342.39z"/>
	<path class="st0" d="M349.92,314.86c0.08,0.75-0.45,1.02-0.8,1.38c-11.16,11.18-22.36,22.32-33.48,33.54
		c-1.65,1.67-2.73,0.39-3.93-0.33c-2.59-1.54-2.57-1.58-0.45-3.7c11.22-11.22,22.45-22.45,33.67-33.67
		c2.15-2.15,2.16-2.15,3.73,0.46C349.13,313.33,349.53,314.14,349.92,314.86z"/>
	<path class="st0" d="M298.13,327.36c-1.18-15.39,13.25-29.81,28.36-28.35C317.12,308.37,307.56,317.93,298.13,327.36z"/>
	<path class="st0" d="M324.17,353.28c9.44-9.43,18.94-18.94,28.27-28.27C353.95,340.39,339.25,354.71,324.17,353.28z"/>
	<path class="st7" d="M368.23,459.6c0,4.87-0.03,9.03,0.02,13.18c0.01,1.12-0.4,1.51-1.46,1.4c-0.38-0.04-0.76-0.01-1.14-0.01
		c-5.72,0.01-5.71,0.01-5.26-5.76c0.05-0.63,0.17-1.16,0.64-1.63C363.29,464.56,365.53,462.31,368.23,459.6z"/>
</g>
<g>
	<path class="st8" d="M558.57,698.01v32.39c23.21-1.34,43.49-13.86,55.59-32.39H558.57z"/>
	<path class="st8" d="M550.4,698.01h-55.59c12.1,18.54,32.38,31.05,55.59,32.39V698.01L550.4,698.01z"/>
	<path class="st0" d="M483.9,717.85c16.87,20.45,42.23,33.45,70.6,33.45c50.79,0,91.95-41.67,91.95-93.09h5.62
		c0-69.87-31.51-126.73-97.58-126.73c-57.35,0-88.64,42.84-95.92,99.82L483.9,717.85z M464.39,647.34h180.19
		c0,7.43-40.34,13.45-90.09,13.45C504.73,660.78,464.39,654.76,464.39,647.34z M554.49,738.9c-43.94,0-79.7-36.19-79.7-80.68h8.17
		c0,11.32,2.65,21.98,7.24,31.53h128.58c4.59-9.54,7.24-20.22,7.24-31.53h8.17C634.19,702.7,598.44,738.9,554.49,738.9z"/>
	<path d="M504.18,813.48l-69.57,20.85l-89.56-270.48c0,0,0.92-19.86,29.9-28.53c28.99-8.69,39.67,7.68,39.67,7.68L504.18,813.48z"/>
	<path d="M447.89,844.33l50.55-15.16l-5.71,16.96l9.04,30.91h-33.63l-6.33-21.64L447.89,844.33z"/>
	<path class="st9" d="M503.01,846.34l4.56-13.53l37.07-45.21l-19.07-21.4l57.89-0.01l-19.07,21.4l39.85,48.61l8.85-70.01h20.39
		c0.57,0,1.12,0.04,1.68,0.08c0.14,0.01,0.28,0.02,0.41,0.03c11.54,0.29,33.88,4.09,56.74,25.84
		c20.07,19.09,35.62,47.45,46.64,84.91h-69.09c-1.57-4.04-3.17-7.76-4.79-11.16v11.16H511.99L503.01,846.34z"/>
	<path class="st9" d="M443.98,877.04v-11.13c-1.63,3.39-3.25,7.09-4.84,11.13h-69.01c10.36-35.15,24.73-62.31,42.99-81.22
		l14.89,50.89l5.1-1.53l20.18,16.07l4.62,15.79H443.98L443.98,877.04z"/>
</g>
</svg>
