<?xml version="1.0" encoding="utf-8"?>
<!-- Generator: Adobe Illustrator 24.0.1, SVG Export Plug-In . SVG Version: 6.00 Build 0)  -->
<svg version="1.1" id="Layer_1" xmlns="http://www.w3.org/2000/svg" xmlns:xlink="http://www.w3.org/1999/xlink" x="0px" y="0px"
	 viewBox="0 0 1080 1080" style="enable-background:new 0 0 1080 1080;" xml:space="preserve">
<style type="text/css">
	.st0{fill:#040302;}
	.st1{fill:#BB7927;}
	.st2{fill:#FFBD11;}
	.st3{fill:#EEDC92;}
	.st4{fill:#FFFFFF;stroke:#000000;stroke-width:6;stroke-miterlimit:10;}
	.st5{fill:#800000;}
</style>
<g>
	<path class="st0" d="M776.06,695.9c0,8.38,0,16.77,0,25.15c-4.28,6.81-10.68,7.96-18.26,7.95c-174.55-0.14-349.1-0.11-523.65-0.11
		c-1.82,0-3.65,0.06-5.46-0.04c-7.56-0.43-12.15-4.84-12.46-12.45c-0.25-6-0.35-12.05,0.09-18.03c0.61-8.39,4.96-15.45,13.12-16.81
		c7.86-1.31,7.91-5.37,7.43-11.02c-0.08-0.9-0.02-1.82,0-2.73c0.26-11.88,7.98-19.85,19.78-20.22c6.37-0.2,12.76-0.2,19.13,0
		c3.01,0.09,4.27-0.65,4.08-3.9c-0.26-4.36-0.14-8.74-0.04-13.11c0.15-6.22,2.14-12.48,8.14-14.26c7.37-2.18,7.41-6.7,6.95-12.42
		c-0.19-2.35,0.11-4.74-0.06-7.1c-0.43-5.98,2.13-9.74,7.98-11.2c7.23,2.28,8.45,3.97,8.48,11.79c0.02,4.37,0.14,8.75-0.05,13.11
		c-0.11,2.64,0.81,3.48,3.41,3.38c4.73-0.18,9.47-0.05,14.2-0.05c8.67,0,8.67,0,8.67-8.4c0-49.17,0-98.33,0-147.5
		c0-2.73-0.12-5.47,0.03-8.19c0.14-2.38-0.75-3.17-3.13-3.11c-5.46,0.15-10.95,0.39-16.38-0.06c-5.24-0.44-6.99,0.8-6.93,6.6
		c0.34,33.14,0.18,66.28,0.16,99.42c0,7.4-1.65,9.54-8.39,11.2c-6.57-1.96-8.02-3.88-8.03-11c-0.02-33.88-0.03-67.76,0.03-101.64
		c0-2.72-0.16-4.35-3.49-5.28c-7.58-2.12-11.34-7.65-11.6-15.91c-0.15-4.55-0.16-9.11,0.02-13.66c0.11-2.69-0.92-3.42-3.49-3.37
		c-6.55,0.13-13.12,0.19-19.67-0.06c-8.33-0.32-14.29-6.07-15.15-14.34c-0.24-2.35-0.12-4.73-0.13-7.1
		c-0.01-10.26,0-10.26-10.1-10.73c-9.54-0.45-14.19-5.14-14.48-14.72c-0.1-3.46,0.11-6.93-0.04-10.38
		c-0.32-7.02,2.91-11.63,9.07-14.76c11.82-6.01,23.52-12.24,35.26-18.4c75.91-39.82,151.86-79.58,227.69-119.55
		c8.07-4.26,15.22-4.37,23.09,0.24c10.66,6.23,21.62,11.96,32.56,17.68c5.25,2.75,7.67,6.48,5.92,12.4
		c-5.08,5.16-7.39,5.56-13.84,2.1c-11.02-5.92-22-11.92-33.01-17.87c-1.71-0.92-3.19-2.05-5.48-0.8
		c-13.03,7.1-26.16,14.03-39.26,21.02c-1.32,0.58-2.68,1.08-3.96,1.75c-72.3,37.93-144.55,75.93-216.95,113.66
		c-4.45,2.32-5.33,5.22-4.38,9.09c0.95,3.88,4.59,1.94,6.9,1.94c148.1,0.13,296.2,0.14,444.29,0.15c2,0,3.99-0.17,5.99-0.26
		c21.67,0.1,43.35,0.2,65.02,0.29c1.49,0.01,3.24,0,3.09-2.08c-0.19-2.55,1.41-5.56-1.55-7.5c-1.21-0.8-2.54-1.42-3.82-2.11
		c-58.91-31.84-117.82-63.68-176.73-95.53c-7.84-4.24-8.89-6.26-7.22-13.62c3.65-4.06,7.81-4.83,12.68-2.2
		c61.78,33.44,123.58,66.86,185.38,100.27c4.27,2.31,7.08,5.59,7.77,10.49c-0.51,5.45-0.42,10.91-0.05,16.36
		c-1.36,8.06-5.26,11.7-13.43,12.32c-2.54,0.19-5.11,0.2-7.65,0c-2.6-0.21-3.51,0.65-3.4,3.33c0.2,4.55,0.23,9.12-0.02,13.66
		c-0.49,8.86-6.58,14.91-15.41,15.25c-6.19,0.23-12.4,0.25-18.58,0.02c-3.25-0.12-4.62,0.64-4.38,4.17c0.3,4.35,0.2,8.75,0.04,13.11
		c-0.31,8.17-4.13,13.62-11.82,15.78c-3.12,0.88-3.27,2.31-3.27,4.88c0.06,53.03,0.05,106.06,0.02,159.09
		c0,2.28,0.03,3.67,3.02,4.51c7.99,2.25,11.78,7.74,12.06,16.16c0.12,3.64,0.41,7.34-0.06,10.92c-0.7,5.31,1.58,6.43,6.34,6.08
		c5.26-0.39,10.57-0.17,15.85-0.07c12.88,0.25,20.66,8.06,20.83,20.86c0.04,2.92,0.07,5.83-0.02,8.75
		c-0.05,1.67,0.27,2.87,2.22,3.01C767.55,680.91,772.96,687.05,776.06,695.9z M683.11,380.97c-2.36-0.09-4.72-0.25-7.08-0.25
		c-136.49-0.01-272.98-0.01-409.47-0.01c-8.73,0-8.42,0.01-8.84,8.99c-0.25,5.25,0.84,6.97,6.65,6.97
		c137.58-0.2,275.17-0.15,412.75-0.16c2,0,3.99-0.16,5.99-0.24c16.01,0.08,32.01,0.16,48.02,0.24c1.7,0.01,3.33,0.04,3.28-2.43
		c-0.07-3.64-0.07-7.28,0-10.92c0.05-2.46-1.56-2.45-3.28-2.44C715.12,380.8,699.12,380.89,683.11,380.97z M688.59,679.6
		c13.41,0.11,26.82,0.25,40.23,0.32c11.08,0.05,11,0.02,10.15-11.33c-0.24-3.17-1.58-4.61-4.71-4.59
		c-15.23,0.1-30.46,0.17-45.69,0.26c-1.81-0.09-3.63-0.25-5.44-0.25C542.5,664,401.87,664,261.25,664c-1.27,0-2.55,0-3.82,0.03
		c-2.63,0.06-4.05,1.38-4.09,4.05c-0.03,1.82,0.22,3.68-0.07,5.46c-0.86,5.23,1.07,6.55,6.39,6.55
		c140.99-0.17,281.98-0.13,422.98-0.15C684.61,679.92,686.6,679.71,688.59,679.6z M709.36,712.3c13.29,0.09,26.57,0.21,39.86,0.26
		c11.65,0.04,11.57,0.02,10.56-11.59c-0.28-3.2-1.84-4.76-4.79-4.72c-15.28,0.17-30.56-0.67-45.83,0.43
		c-4.18-0.06-8.36-0.17-12.55-0.17c-152.13-0.01-304.26-0.01-456.39,0c-7.64,0-7.05,0.09-7.83,9.91c-0.55,6.94,3.18,6.06,7.47,6.06
		c154.32-0.04,308.63-0.03,462.95-0.04C704.99,712.46,707.17,712.36,709.36,712.3z M353.99,530.29c0,26.4,0.05,52.8-0.07,79.2
		c-0.01,2.94,0.58,4.28,3.66,5.19c7.33,2.16,11.14,7.57,11.46,15.45c0.18,4.54,0.17,9.11,0,13.65c-0.1,2.71,0.56,3.93,3.59,3.82
		c6-0.22,12.02-0.26,18.02,0.01c3.38,0.15,3.91-1.29,3.78-4.16c-0.19-4.36-0.11-8.74-0.03-13.11c0.15-8.05,3.91-13.48,11.66-15.79
		c2.94-0.88,3.4-2.17,3.4-4.87c-0.08-52.98-0.08-105.96,0.01-158.94c0-2.79-0.64-3.94-3.49-4.8c-7.69-2.32-11.44-7.75-11.58-15.85
		c-0.08-4.55-0.13-9.11,0.03-13.65c0.09-2.51-0.56-3.59-3.31-3.51c-6.19,0.18-12.39,0.22-18.57-0.01c-3.15-0.12-3.58,1.31-3.5,3.91
		c0.14,4.55,0.18,9.11-0.01,13.65c-0.33,7.9-4.13,13.29-11.53,15.39c-3.23,0.92-3.57,2.43-3.56,5.23
		C354.02,477.49,353.99,503.89,353.99,530.29z M638.24,530.81c0-26.4-0.07-52.8,0.09-79.2c0.02-3.35-0.55-5.04-4.13-5.95
		c-5.5-1.4-8.83-5.38-10.35-10.91c-0.99-3.6-0.66-7.23-0.68-10.86c-0.05-10.92-0.02-10.99-11.14-10.88
		c-4.51,0.04-10.43-1.95-13.17,0.75c-3,2.96-0.66,8.96-0.99,13.61c-0.06,0.91,0.01,1.82-0.01,2.73c-0.18,8.08-3.9,13.53-11.61,15.83
		c-2.89,0.86-3.46,2.06-3.46,4.82c0.08,52.98,0.08,105.96,0,158.94c0,2.74,0.53,3.98,3.43,4.85c7.73,2.33,11.49,7.75,11.63,15.81
		c0.08,4.19,0.3,8.4-0.07,12.55c-0.36,4.05,1.26,4.9,4.93,4.69c5.26-0.3,10.58-0.35,15.83,0.01c4.05,0.28,4.93-1.33,4.68-4.96
		c-0.28-4.17-0.2-8.38-0.02-12.56c0.33-7.87,4.14-13.29,11.48-15.44c3.12-0.91,3.65-2.3,3.63-5.21
		C638.19,583.25,638.24,557.03,638.24,530.81z M523.66,530.78c0-26.6-0.05-53.2,0.08-79.79c0.01-3-0.7-4.3-3.72-5.21
		c-7-2.12-10.78-7.17-11.06-14.54c-0.19-4.91-0.17-9.84-0.07-14.75c0.05-2.49-0.63-3.63-3.36-3.56c-6.19,0.16-12.39,0.19-18.58-0.01
		c-3.04-0.1-3.71,1.16-3.62,3.87c0.15,4.55,0.16,9.11,0,13.66c-0.28,8-3.87,13.16-11.39,15.45c-2.89,0.88-3.44,2.1-3.43,4.84
		c0.08,53.01,0.08,106.03,0,159.04c0,2.78,0.63,3.97,3.46,4.84c7.33,2.26,10.99,7.3,11.32,14.93c0.2,4.73,0.19,9.47,0.04,14.21
		c-0.09,2.73,0.63,3.94,3.64,3.84c6.01-0.21,12.03-0.23,18.03,0.01c3.28,0.13,4-1.19,3.91-4.14c-0.16-4.91-0.14-9.84,0.11-14.75
		c0.35-6.9,4-11.72,10.5-13.79c3.34-1.07,4.27-2.48,4.24-5.98C523.57,582.89,523.66,556.83,523.66,530.78z M452.12,530.23
		c0-26.24-0.07-52.48,0.08-78.72c0.02-3.73-0.82-5.17-4.79-4.93c-5.63,0.34-11.31,0.35-16.94,0c-4.05-0.26-4.89,1.34-4.7,4.98
		c0.28,5.45,0.07,10.93,0.07,16.4c0,46.83,0.05,93.67-0.09,140.5c-0.01,4.12,0.81,5.83,5.3,5.48c5.43-0.43,10.94-0.36,16.39-0.01
		c4.02,0.26,4.77-1.28,4.75-4.96C452.05,582.71,452.12,556.47,452.12,530.23z M540.1,530.24c0,26.24,0.07,52.48-0.08,78.72
		c-0.02,3.69,0.74,5.2,4.75,4.96c5.81-0.35,11.67-0.31,17.49-0.01c3.54,0.18,4.39-1.15,4.17-4.37c-0.24-3.63-0.06-7.29-0.06-10.93
		c0-48.84-0.04-97.68,0.08-146.51c0.01-4.04-0.68-5.91-5.26-5.53c-5.43,0.44-10.94,0.36-16.39,0.02c-3.97-0.25-4.8,1.21-4.78,4.94
		C540.18,477.75,540.1,504,540.1,530.24z M654.68,530.02c0,26.4,0.05,52.81-0.06,79.21c-0.01,3.32,0.49,4.91,4.36,4.68
		c5.99-0.35,12.02-0.25,18.02-0.03c3.07,0.12,4-0.77,3.99-3.92c-0.09-53.17-0.1-106.34,0-159.51c0.01-3.27-1.13-3.94-4.08-3.84
		c-5.82,0.2-11.67,0.3-17.48-0.03c-3.82-0.22-4.87,0.9-4.85,4.78C654.76,477.58,654.68,503.8,654.68,530.02z M324.79,630.25
		c-5.28,0-10.56,0-15.84,0c-13.18,0-13.04,0-12.82,13.18c0.06,3.52,1.33,4.21,4.49,4.18c13.11-0.14,26.21-0.06,39.32-0.06
		c13.15,0,12.99,0,12.82-13.27c-0.05-3.61-1.38-4.17-4.49-4.1C340.44,630.37,332.61,630.25,324.79,630.25z M667.58,647.55
		c5.28,0,10.56,0,15.84,0c12.84,0,12.7,0,12.68-12.86c-0.01-3.63-1.08-4.58-4.63-4.53c-13.1,0.2-26.21,0.08-39.32,0.08
		c-13.12,0-13.02,0-12.66,13.32c0.08,3.08,0.96,4.11,4.06,4.04C651.56,647.43,659.57,647.55,667.58,647.55z M324.34,430.24
		c5.28,0,10.55,0,15.83,0c12.8,0,12.8,0,12.49-12.86c-0.01-0.55-0.04-1.09,0-1.64c0.15-2.16-0.99-2.81-2.99-2.81
		c-16.74,0.03-33.47,0.04-50.21-0.01c-2.28-0.01-3.67,0.82-3.18,3.15c0.98,4.67-2.46,9.98,1.94,14.05c0.59,0.55,2.11,0.1,3.21,0.1
		C309.06,430.24,316.7,430.24,324.34,430.24z M667.75,430.24c5.28,0,10.55,0,15.83,0c12.62,0,12.4,0,12.55-12.37
		c0.05-4.37-1.57-5.06-5.4-4.99c-12.91,0.21-25.83,0.08-38.75,0.08c-12.72,0-12.6,0-12.49,13.02c0.03,3.29,0.81,4.44,4.25,4.34
		C651.73,430.08,659.74,430.24,667.75,430.24z M438.45,430.24c5.28,0,10.56,0,15.84,0c12.9,0,12.76,0,12.7-12.71
		c-0.02-3.57-0.98-4.7-4.6-4.64c-12.92,0.2-25.85,0.08-38.78,0.08c-13.36,0-13.27,0-12.88,13.65c0.08,2.85,0.81,3.75,3.69,3.68
		C422.42,430.12,430.44,430.23,438.45,430.24z M553.02,430.24c5.28,0,10.56,0,15.84,0c12.78,0,12.59,0,12.68-12.7
		c0.03-4.1-1.48-4.71-5.06-4.66c-12.74,0.19-25.49,0.08-38.23,0.08c-13.58,0-13.48,0-12.99,13.64c0.1,2.84,0.88,3.76,3.73,3.7
		C537,430.12,545.01,430.23,553.02,430.24z M439.24,630.25c-5.28,0-10.56,0-15.85,0c-13.01,0-12.85,0-12.7,13.22
		c0.04,3.56,1.29,4.18,4.46,4.14c12.93-0.15,25.86-0.06,38.79-0.06c13.27,0,13.16,0,13.03-13.06c-0.03-3.28-0.8-4.43-4.25-4.31
		C454.91,630.43,447.08,630.25,439.24,630.25z M553.97,630.25c-5.28,0-10.56,0-15.85,0c-13.24,0-13.12,0-12.88,13.08
		c0.06,3.38,1.1,4.32,4.4,4.28c12.93-0.16,25.86-0.07,38.79-0.07c13.87,0,13.78,0,13.07-14.02c-0.14-2.67-0.96-3.36-3.49-3.32
		C570,630.34,561.98,630.25,553.97,630.25z"/>
	<path class="st1" d="M776.06,368.95c-0.35-0.09-0.62-0.29-0.82-0.6c-0.37-5.47-0.46-10.92,0.05-16.37
		c0.18-0.28,0.44-0.45,0.77-0.52C776.06,357.28,776.06,363.11,776.06,368.95z"/>
	<path class="st2" d="M690.69,363.97c-2,0.09-3.99,0.26-5.99,0.26c-148.1-0.01-296.2-0.02-444.29-0.15c-2.31,0-5.95,1.95-6.9-1.94
		c-0.94-3.87-0.07-6.77,4.38-9.09c72.4-37.74,144.65-75.74,216.95-113.66c1.27-0.67,2.63-1.17,3.96-1.75
		c16.27,8.86,32.53,17.75,48.82,26.57c31.15,16.88,62.29,33.76,93.48,50.57c25.27,13.63,50.67,27.01,75.82,40.85
		C681.58,358.2,687,359.72,690.69,363.97z"/>
	<path class="st2" d="M690.69,363.97c-3.69-4.25-9.11-5.76-13.77-8.33c-25.15-13.84-50.55-27.23-75.82-40.85
		c-31.18-16.81-62.33-33.69-93.48-50.57c-16.29-8.83-32.55-17.71-48.82-26.57c13.1-6.99,26.23-13.92,39.26-21.02
		c2.29-1.25,3.78-0.12,5.48,0.8c11.01,5.95,21.98,11.95,33.01,17.87c6.45,3.47,8.77,3.07,13.84-2.1c6.36,3.4,12.72,6.81,19.08,10.21
		c-1.66,7.36-0.62,9.38,7.22,13.62c58.91,31.85,117.82,63.69,176.73,95.53c1.28,0.69,2.61,1.32,3.82,2.11
		c2.96,1.95,1.36,4.96,1.55,7.5c0.16,2.08-1.59,2.08-3.09,2.08C734.03,364.16,712.36,364.06,690.69,363.97z"/>
	<path class="st2" d="M709.36,712.3c-2.18,0.05-4.37,0.15-6.55,0.15c-154.32,0.01-308.63,0-462.95,0.04c-4.29,0-8.02,0.88-7.47-6.06
		c0.78-9.82,0.2-9.91,7.83-9.91c152.13-0.01,304.26-0.01,456.39,0c4.18,0,8.36,0.11,12.55,0.17
		C709.22,701.89,709.29,707.1,709.36,712.3z"/>
	<path class="st3" d="M688.59,679.6c-1.99,0.11-3.98,0.32-5.98,0.33c-140.99,0.02-281.98-0.02-422.98,0.15
		c-5.32,0.01-7.25-1.32-6.39-6.55c0.29-1.77,0.04-3.64,0.07-5.46c0.05-2.67,1.46-3.99,4.09-4.05c1.27-0.03,2.55-0.03,3.82-0.03
		c140.63,0,281.26,0,421.88,0.01c1.81,0,3.63,0.16,5.44,0.25C688.58,669.37,688.59,674.48,688.59,679.6z"/>
	<path class="st3" d="M683.11,396.26c-2,0.08-3.99,0.24-5.99,0.24c-137.58,0.01-275.17-0.03-412.75,0.16
		c-5.81,0.01-6.9-1.71-6.65-6.97c0.43-8.98,0.12-8.99,8.84-8.99c136.49,0,272.98,0,409.47,0.01c2.36,0,4.72,0.16,7.08,0.25
		C683.11,386.07,683.11,391.16,683.11,396.26z"/>
	<path class="st3" d="M302.83,585.59c0.03-7.27,0.05-14.53,0.08-21.8c6.74-1.67,8.39-3.81,8.39-11.2
		c0.02-33.14,0.18-66.28-0.16-99.42c-0.06-5.8,1.69-7.04,6.93-6.6c5.43,0.45,10.92,0.2,16.38,0.06c2.38-0.06,3.27,0.73,3.13,3.11
		c-0.16,2.72-0.03,5.46-0.03,8.19c0,49.17,0,98.33,0,147.5c0,8.4,0,8.4-8.67,8.4c-4.73,0-9.47-0.13-14.2,0.05
		c-2.61,0.1-3.53-0.73-3.41-3.38c0.18-4.36,0.06-8.74,0.05-13.11C311.28,589.56,310.06,587.88,302.83,585.59z"/>
	<path class="st3" d="M452.12,530.23c0,26.24-0.07,52.48,0.08,78.72c0.02,3.68-0.73,5.22-4.75,4.96
		c-5.44-0.35-10.95-0.41-16.39,0.01c-4.5,0.35-5.32-1.36-5.3-5.48c0.14-46.83,0.09-93.67,0.09-140.5c0-5.47,0.21-10.94-0.07-16.4
		c-0.19-3.64,0.65-5.24,4.7-4.98c5.63,0.36,11.31,0.34,16.94,0c3.96-0.24,4.81,1.2,4.79,4.93
		C452.05,477.75,452.12,503.99,452.12,530.23z"/>
	<path class="st3" d="M540.1,530.24c0-26.24,0.07-52.48-0.08-78.72c-0.02-3.72,0.81-5.19,4.78-4.94c5.45,0.34,10.96,0.42,16.39-0.02
		c4.59-0.37,5.27,1.49,5.26,5.53c-0.12,48.84-0.08,97.68-0.08,146.51c0,3.64-0.19,7.3,0.06,10.93c0.22,3.22-0.64,4.56-4.17,4.37
		c-5.82-0.3-11.67-0.34-17.49,0.01c-4.01,0.24-4.77-1.27-4.75-4.96C540.17,582.72,540.1,556.48,540.1,530.24z"/>
	<path class="st3" d="M654.68,530.02c0-26.22,0.08-52.44-0.09-78.66c-0.03-3.87,1.03-4.99,4.85-4.78
		c5.81,0.33,11.65,0.23,17.48,0.03c2.96-0.1,4.09,0.57,4.08,3.84c-0.1,53.17-0.1,106.34,0,159.51c0.01,3.15-0.92,4.04-3.99,3.92
		c-6-0.23-12.03-0.33-18.02,0.03c-3.87,0.23-4.37-1.36-4.36-4.68C654.73,582.83,654.68,556.43,654.68,530.02z"/>
	<path class="st2" d="M324.79,630.25c7.83,0,15.66,0.12,23.48-0.06c3.11-0.07,4.44,0.49,4.49,4.1c0.17,13.27,0.32,13.27-12.82,13.27
		c-13.11,0-26.21-0.08-39.32,0.06c-3.16,0.03-4.43-0.66-4.49-4.18c-0.22-13.19-0.36-13.18,12.82-13.18
		C314.23,630.25,319.51,630.25,324.79,630.25z"/>
	<path class="st2" d="M667.58,647.55c-8.01,0-16.02-0.12-24.03,0.06c-3.1,0.07-3.98-0.96-4.06-4.04
		c-0.36-13.33-0.47-13.32,12.66-13.32c13.11,0,26.22,0.12,39.32-0.08c3.55-0.06,4.62,0.89,4.63,4.53
		c0.02,12.86,0.16,12.86-12.68,12.86C678.14,647.55,672.86,647.55,667.58,647.55z"/>
	<path class="st2" d="M324.34,430.24c-7.64,0-15.28,0-22.92,0c-1.09,0-2.61,0.44-3.21-0.1c-4.4-4.08-0.96-9.38-1.94-14.05
		c-0.49-2.33,0.9-3.16,3.18-3.15c16.74,0.05,33.47,0.04,50.21,0.01c1.99,0,3.13,0.64,2.99,2.81c-0.04,0.54-0.01,1.09,0,1.64
		c0.31,12.86,0.31,12.86-12.49,12.86C334.89,430.24,329.62,430.24,324.34,430.24z"/>
	<path class="st2" d="M667.75,430.24c-8,0-16.01-0.16-24.01,0.08c-3.43,0.1-4.22-1.05-4.25-4.34c-0.11-13.03-0.23-13.02,12.49-13.02
		c12.92,0,25.83,0.13,38.75-0.08c3.83-0.06,5.45,0.63,5.4,4.99c-0.15,12.37,0.07,12.37-12.55,12.37
		C678.3,430.24,673.02,430.24,667.75,430.24z"/>
	<path class="st2" d="M438.45,430.23c-8.01,0-16.02-0.12-24.03,0.06c-2.88,0.07-3.61-0.84-3.69-3.68
		c-0.39-13.66-0.48-13.65,12.88-13.65c12.93,0,25.85,0.12,38.78-0.08c3.62-0.06,4.59,1.07,4.6,4.64c0.06,12.71,0.2,12.71-12.7,12.71
		C449.01,430.24,443.73,430.24,438.45,430.23z"/>
	<path class="st2" d="M553.02,430.23c-8.01,0-16.02-0.11-24.03,0.06c-2.86,0.06-3.63-0.86-3.73-3.7
		c-0.49-13.64-0.58-13.64,12.99-13.64c12.74,0,25.49,0.12,38.23-0.08c3.58-0.05,5.09,0.56,5.06,4.66
		c-0.09,12.69,0.1,12.7-12.68,12.7C563.58,430.24,558.3,430.24,553.02,430.23z"/>
	<path class="st2" d="M439.24,630.25c7.83,0,15.67,0.18,23.49-0.08c3.44-0.11,4.21,1.03,4.25,4.31
		c0.12,13.07,0.24,13.06-13.03,13.06c-12.93,0-25.86-0.09-38.79,0.06c-3.16,0.04-4.41-0.58-4.46-4.14
		c-0.16-13.22-0.31-13.22,12.7-13.22C428.68,630.25,433.96,630.25,439.24,630.25z"/>
	<path class="st2" d="M553.97,630.25c8.01,0,16.03,0.08,24.04-0.05c2.53-0.04,3.36,0.65,3.49,3.32c0.71,14.03,0.8,14.02-13.07,14.02
		c-12.93,0-25.86-0.1-38.79,0.07c-3.29,0.04-4.34-0.9-4.4-4.28c-0.24-13.08-0.36-13.08,12.88-13.08
		C543.41,630.25,548.69,630.25,553.97,630.25z"/>
	<path class="st2" d="M709.36,712.3c-0.07-5.21-0.13-10.41-0.2-15.62c15.27-1.1,30.55-0.26,45.83-0.43
		c2.95-0.03,4.52,1.53,4.79,4.72c1.01,11.6,1.09,11.63-10.56,11.59C735.93,712.51,722.64,712.39,709.36,712.3z"/>
	<path class="st3" d="M683.11,396.26c0-5.1,0-10.19,0-15.29c16.01-0.08,32.01-0.17,48.02-0.25c1.71-0.01,3.32-0.02,3.28,2.44
		c-0.07,3.64-0.07,7.28,0,10.92c0.05,2.47-1.57,2.44-3.28,2.43C715.12,396.42,699.12,396.34,683.11,396.26z"/>
	<path class="st3" d="M688.59,679.6c-0.01-5.12-0.01-10.23-0.02-15.35c15.23-0.08,30.46-0.16,45.69-0.26
		c3.13-0.02,4.47,1.43,4.71,4.59c0.86,11.35,0.93,11.38-10.15,11.33C715.41,679.85,702,679.71,688.59,679.6z"/>
	<circle class="st4" cx="739.5" cy="679.5" r="194.5"/>
	<g>
		<path class="st5" d="M786.68,707.39c0.52-0.86,1.05-1.73,1.57-2.59c1.24-1.38,2.19-2.92,2.76-4.69l0.19-0.08v-0.21
			c0.55-0.38,0.89-0.88,0.93-1.56c0.29-0.5,0.59-1.01,0.88-1.51c0.63-0.32,0.84-0.88,0.89-1.54c0.15-0.25,0.31-0.5,0.46-0.75
			c1.61-1.99,2.92-4.17,3.89-6.54c0.29-0.49,0.58-0.98,0.87-1.48c0.66-0.63,1.24-1.42,2.32-1.34c0.34,0.45,0.77,0.71,1.34,0.69
			c0.47,0.45,1,0.78,1.68,0.74c0.85,0.37,1.71,0.75,2.56,1.12c0.88,0.63,1.78,1.21,2.92,1.26c0.54,0.23,1.08,0.45,1.62,0.68
			c1.73,1.09,3.49,2.13,5.47,2.71c0.26,0.68,0.77,0.88,1.45,0.75c0.3,0.17,0.59,0.34,0.89,0.51c0.73,0.83,1.68,1.24,2.74,1.43
			c0.33,0.12,0.65,0.24,0.98,0.36c0.84,0.94,1.9,1.49,3.1,1.81c0.6,0.99,1.59,1.32,2.62,1.61c0.5,0.3,1,0.6,1.5,0.9
			c0.32,0.63,0.88,0.88,1.54,0.96l0.09,0.22l0.24,0.02c0.33,0.59,0.83,0.91,1.49,0.97l0.12,0.22l0.25-0.01
			c0.95,0.96,1.95,1.83,3.29,2.2c0.45,0.67,1.08,1.1,1.85,1.34c0.57,0.9,1.34,1.52,2.41,1.73c1.11,0.9,2.22,1.8,3.33,2.7
			c0.7,1.01,1.58,1.79,2.76,2.2c2.68,2.56,5.35,5.12,8.03,7.68c0.34,0.7,0.74,1.34,1.55,1.58c2.7,3.43,5.4,6.86,8.1,10.29
			c-0.04,0.51,0.14,0.89,0.66,1.05c1.01,1.68,2.02,3.37,3.04,5.05c0.45,1.5,1.1,2.89,2.21,4.04c0.14,0.27,0.27,0.55,0.41,0.82
			c0.41,2.17,1.34,4.14,2.43,6.03c0.24,0.63,0.49,1.25,0.73,1.88c-0.19,1.17,0.29,2.13,0.93,3.04c0.08,0.41,0.17,0.81,0.25,1.22
			c0.48,2.05,0.67,4.17,1.64,6.09c-0.17,0.85-0.11,1.67,0.32,2.43c-0.01,2.86-0.03,5.72-0.04,8.58c-0.14,0.6-0.28,1.2-0.43,1.81
			c-0.83,1.62-1.66,3.24-2.49,4.85c-1.81,1.65-3.63,3.29-5.44,4.94c-0.75,0-1.21,0.45-1.6,1.01h-0.16l-0.07,0.15
			c-0.72,0.07-1.25,0.44-1.64,1.03c-0.99,0.36-1.89,0.87-2.6,1.66c-0.84-0.07-1.4,0.35-1.83,1.01c-0.53-0.04-0.97,0.1-1.21,0.62
			c-1.14,0.18-2.11,0.71-2.9,1.55c-2.29,1.14-4.57,2.28-6.86,3.41c-0.69,0-1.24,0.3-1.72,0.76c-0.24,0.12-0.48,0.25-0.72,0.37
			c-1.32,0.16-2.52,0.61-3.54,1.48c-0.33-0.13-0.58-0.05-0.73,0.29c-3.33,1-6.62,2.1-9.74,3.67c-0.7-0.07-1.35,0-1.83,0.59
			c-1.29,0.2-2.63,0.24-3.64,1.25c-2.7,0.61-5.43,1.12-7.94,2.38c-1.36-0.46-2.51,0.04-3.61,0.79c-0.4,0.07-0.8,0.15-1.2,0.22
			c-4.11,0.74-8.24,1.4-12.2,2.8c-0.6,0.09-1.2,0.18-1.81,0.27c-1.73-0.2-3.32,0.34-4.91,0.89c-0.6,0.07-1.2,0.15-1.8,0.22
			c-3.69,0.39-7.41,0.64-11,1.68c-0.82-0.17-1.62-0.1-2.39,0.22c-2.9-0.16-5.73,0.38-8.56,0.92c-1.01,0.06-2.01,0.13-3.02,0.19
			c-0.5-0.05-1-0.17-1.49-0.13c-12.23,1.07-24.49,1.25-36.76,0.95c-7.59-0.19-15.17-0.56-22.75-0.84c-0.8-0.06-1.6-0.12-2.41-0.18
			c-3.04-0.5-6.07-1.07-9.18-0.91c-0.6-0.06-1.21-0.11-1.81-0.17c-2.16-0.78-4.38-1.11-6.67-0.9c-0.57-0.08-1.14-0.15-1.71-0.23
			c-3.21-1.11-6.55-1.46-9.9-1.74c-0.4-0.06-0.8-0.11-1.2-0.17c-1.31-0.77-2.71-1.15-4.24-0.91c-0.37-0.07-0.74-0.14-1.11-0.2
			c-2.38-1.02-4.88-1.59-7.46-1.79c-0.4-0.07-0.79-0.14-1.19-0.21c-3.13-1.37-6.42-2.19-9.77-2.81c-0.4-0.1-0.79-0.19-1.19-0.29
			c-1.24-1.06-2.8-1.2-4.31-1.47c-0.39-0.12-0.78-0.23-1.17-0.35c-0.74-0.52-1.47-1.1-2.48-0.88c-1.23-0.55-2.4-1.27-3.8-1.37
			c-2.25-1.31-4.6-2.37-7.17-2.88c-0.46-0.23-0.93-0.47-1.39-0.7c-0.42-0.53-1-0.69-1.64-0.68c-0.57-0.67-1.39-0.83-2.18-1.02
			c-0.27-0.71-0.83-0.79-1.48-0.7c-0.37-0.18-0.75-0.36-1.12-0.54c-0.17-0.52-0.6-0.57-1.05-0.58c-0.65-0.94-1.63-1.29-2.68-1.54
			c-2.46-1.38-4.92-2.75-7.37-4.13c-0.37-0.55-0.88-0.89-1.53-1.03c-0.29-0.59-0.78-0.89-1.43-0.94c-0.07-0.22-0.23-0.31-0.45-0.25
			c-0.29-0.56-0.7-0.97-1.38-0.98c-2.26-1.72-3.98-3.93-5.55-6.26c-0.57-1.63-1.14-3.26-1.71-4.89c0-2.03,0-4.06,0-6.08
			c0.52-1.59,1.01-3.19,0.9-4.9c0.08-0.61,0.16-1.22,0.24-1.83c0.67-0.91,1.03-1.9,0.87-3.04c0.11-0.41,0.22-0.82,0.33-1.23
			c1.19-2.3,1.69-4.84,2.46-7.29c0.63-0.93,1.18-1.89,1.23-3.06c0.55-0.72,1.11-1.45,1.08-2.43c0.85-0.89,1.34-1.98,1.71-3.13
			c0.54-0.46,0.85-1.03,0.89-1.74c2.08-3.14,4.15-6.28,6.23-9.42c0.62-0.33,1.07-0.78,1.17-1.51c1.42-1.58,2.84-3.14,4.25-4.73
			c5.59-6.34,12.21-11.53,18.82-16.73c1.04-0.24,1.83-0.85,2.45-1.71c0.4-0.24,0.8-0.48,1.2-0.72c0.68-0.07,1.18-0.42,1.54-0.98
			c1.11-0.7,2.22-1.4,3.33-2.1c0.67-0.05,1.19-0.38,1.59-0.92c3.13-1.71,6.25-3.42,9.38-5.12c0.73,0.05,1.23-0.37,1.7-0.84
			c0.25-0.12,0.49-0.24,0.74-0.36c0.54,0.11,0.9-0.18,1.22-0.57c0.78,0.07,1.33-0.34,1.83-0.86c1.14-0.01,2.01-0.65,2.91-1.23
			c1.87-0.78,3.74-1.56,5.61-2.34c1.74,0.08,3.03-1.87,4.92-1.08c0.26,0.42,0.53,0.85,0.79,1.27c-0.06,0.71,0.31,1.16,0.91,1.46
			l-0.03,0.24l0.2,0.14c0.8,2.15,1.97,4.08,3.43,5.84c0.28,0.49,0.56,0.98,0.83,1.47c0.3,1.05,0.68,2.05,1.64,2.69
			c0.36,1.27,0.97,2.38,1.94,3.28c0.09,1.05,0.75,1.78,1.37,2.54c-0.01,0.63,0.31,1.04,0.84,1.31c1.41,2.97,3,5.84,5.02,8.45
			c-0.06,0.79,0.41,1.31,0.94,1.8c-0.02,0.67,0.26,1.13,0.89,1.38c0.06,0.7,0.29,1.29,0.98,1.61c1.17,2.87,2.87,5.43,4.59,7.98
			c0.19,0.98,0.65,1.81,1.44,2.43c0.06,0.62,0.21,1.18,0.86,1.44c0.24,1.1,0.9,1.96,1.58,2.81c-0.04,0.68,0.32,1.11,0.89,1.4
			c-0.07,0.21,0,0.36,0.21,0.44c0.8,2.07,1.87,3.99,3.35,5.66l0.12-0.12l-0.14,0.09c0.56,1.6,1.27,3.11,2.55,4.29
			c-0.07,0.21-0.01,0.35,0.2,0.43c0.35,1.36,1.08,2.5,2.04,3.51c0.16,0.25,0.32,0.5,0.48,0.75c0.05,0.65,0.22,1.23,0.88,1.52
			c0.29,0.51,0.58,1.02,0.88,1.53c0.97,2.37,2.28,4.54,3.83,6.57c0.14,0.25,0.29,0.49,0.43,0.74c0.05,0.66,0.18,1.47,0.97,1.36
			c0.6-0.09,0.64-0.81,0.33-1.39c0.05-1.02,0.1-2.04,0.15-3.06c1.15-6.64,1.43-13.36,1.68-20.07c0.1-1.42,0.19-2.83,0.29-4.25
			c0.69-4.45,1.24-8.9,0.94-13.42c0.34-0.59,0.36-1.2,0.16-1.84c0.65-1.57,0.81-3.19,0.48-4.86c0.35-1.39,0.66-2.78,0.02-4.17
			c0.11-0.72-0.26-1.22-0.73-1.69l-0.11-0.19c-1.05-2.63-2.11-5.26-3.16-7.89c-0.54-2.29-1.37-4.46-2.71-6.41
			c-0.12-0.3-0.24-0.6-0.36-0.89c0.17-0.57-0.07-0.96-0.56-1.24c-0.24-0.59-0.49-1.19-0.73-1.78c-0.21-0.77-0.33-1.58-0.65-2.29
			c-0.65-1.45-0.03-1.78,1.3-1.77c12.23,0.02,24.46,0.02,36.68,0c1.79,0,2.09,0.68,1.4,2.24c-0.88,2.01-2.07,3.9-2.45,6.11
			c-0.11,0.32-0.22,0.64-0.33,0.97c-1.12,0.81-1.24,2.09-1.57,3.27c-0.1,0.31-0.2,0.62-0.3,0.93c-1.03,0.88-1.32,2.08-1.51,3.34
			c-0.36,0.89-0.73,1.77-1.09,2.66l-0.07,0.08c-0.63,0.81-1.16,1.66-1.19,2.74c-0.64,1.11-1.46,2.17-0.98,3.59
			c-0.27,3.5,0.26,6.93,0.84,10.36c0.03,0.61,0.06,1.23,0.09,1.84c-0.12,4.9,0.58,9.74,1.14,14.59c0.03,0.41,0.06,0.81,0.09,1.22
			c-0.26,2.26-0.01,4.48,0.61,6.66c-0.27,1.66-0.04,3.28,0.3,4.9c-0.23,3.99,0.53,7.87,0.79,12.14c1.28-0.85,1.57-1.57,1.7-2.38
			c1.65-2.45,3.29-4.9,4.46-7.63c0.61-0.32,0.97-0.79,0.93-1.52c0.47-0.41,0.87-0.85,0.9-1.51c0.54-0.37,0.94-0.83,0.94-1.53
			c1.71-2.45,3.29-4.96,4.5-7.7c0.9-0.66,1.36-1.6,1.62-2.65c0.21-0.07,0.27-0.21,0.19-0.42c0.93-0.63,1.33-1.6,1.63-2.63
			c0.29-0.5,0.58-1,0.87-1.5c0.61-0.34,0.84-0.89,0.9-1.55c1.12-1.41,2.13-2.9,2.72-4.63c0.95-0.64,1.32-1.64,1.66-2.67
			c0.28-0.48,0.56-0.97,0.84-1.45c0.59-0.37,0.86-0.93,0.93-1.6c0.57-0.35,0.77-0.9,0.86-1.52c2.13-2.72,3.86-5.68,5.25-8.84
			c0.15-0.24,0.31-0.48,0.46-0.73C786.03,709.1,786.61,708.4,786.68,707.39z M824.79,775.99l0.1-0.11c0.71-2.29,0.52-4.6,0.13-6.91
			c-0.27-1.3,1.4-3.51-1.65-3.5c-4.7-0.45-9.41-0.39-14.11,0c-0.36,0.03-0.72,0.05-1.08,0.08c-4.88-0.35-9.76-0.3-14.65-0.04
			c-1.86-0.44-3.71-0.43-5.57-0.02c-0.78-0.2-1.56-0.25-2.34,0.04c-0.19-0.01-0.53-0.06-0.54-0.01c-0.98,3.53-0.89,7.07-0.03,10.61
			c0.01,0.04,0.36,0,0.55,0c4.26,0.02,8.51,0.04,12.77,0.06c2.43,0.41,4.85,0.38,7.28,0c4.27,0,8.55-0.01,12.82-0.01
			C820.58,776.44,822.7,776.84,824.79,775.99z"/>
		<path class="st5" d="M806.58,575c0.09,0.5,0.19,0.99,0.28,1.49c-0.3,1.16,0.04,2.14,0.8,3.02c0.11,0.79,0.23,1.57,0.34,2.36
			c-0.35,2.14,0.4,4.13,0.83,6.17c0.08,1.6,0.15,3.2,0.23,4.81c-0.39,1.48-0.38,2.96-0.01,4.44c-0.09,1.8-0.17,3.6-0.26,5.4
			c-0.66,2.01-1.16,4.04-0.9,6.19c-0.1,0.58-0.2,1.16-0.31,1.73c-0.74,0.89-1.04,1.89-0.75,3.04c-0.05,0.32-0.11,0.63-0.16,0.95
			c-1.01,1.16-1.17,2.57-1.19,4.01c-0.57,0.68-0.79,1.49-0.85,2.36c-1.31,2.11-2.2,4.39-2.89,6.77c-0.8,1.6-1.6,3.19-2.4,4.79
			c-0.73,0.32-0.88,1.01-1.08,1.67c-0.67,0.25-0.89,0.77-0.86,1.43c-1.93,2.59-3.86,5.18-5.79,7.77c-0.66,0.19-1.06,0.6-1.13,1.31
			c-2.03,2.05-4.07,4.09-6.1,6.14c-0.63,0.14-1.15,0.42-1.33,1.11c-0.57,0.45-1.14,0.9-1.71,1.35c-0.69,0.06-1.14,0.42-1.34,1.09
			c-0.36,0.27-0.73,0.55-1.09,0.82c-0.67,0.04-1.19,0.29-1.41,0.96c-0.2-0.01-0.33,0.07-0.42,0.25c-0.7-0.03-1.2,0.27-1.46,0.94
			c-0.52,0.33-1.04,0.66-1.57,0.98c-0.63,0.03-1.2,0.16-1.41,0.87c-0.33,0.17-0.66,0.33-0.99,0.5c-1-0.14-1.61,0.52-2.27,1.09
			c-0.27,0.17-0.54,0.34-0.81,0.51c-3.86,1.42-7.73,2.85-11.59,4.27c-0.39,0.08-0.77,0.16-1.16,0.24c-1.55-0.19-2.93,0.43-4.34,0.9
			c-0.39,0.05-0.78,0.1-1.16,0.15c-5.13,0.23-10.22,0.93-15.39,0.45c-4.92-0.46-9.68-1.7-14.52-2.52c-0.33-0.07-0.66-0.13-0.98-0.2
			c-2.72-1.8-5.91-2.54-8.84-3.84c-0.71-0.34-1.42-0.68-2.13-1.03c-0.35-0.56-0.82-0.89-1.51-0.84c-1.15-0.71-2.29-1.43-3.44-2.14
			c-0.28-0.61-0.75-0.93-1.43-0.93c-0.62-0.4-1.25-0.81-1.87-1.21c-0.27-0.22-0.55-0.44-0.82-0.66c-0.65-0.94-1.55-1.56-2.56-2.04
			c-0.69-0.98-1.47-1.85-2.6-2.35c-2.46-2.64-4.93-5.28-7.39-7.93c-0.07-0.67-0.46-1.11-1.05-1.4c-0.41-1.14-1.16-2.04-2.02-2.86
			c-0.02-0.7-0.42-1.14-1-1.45c-0.32-0.53-0.63-1.05-0.95-1.58c0.05-0.7-0.29-1.14-0.9-1.42c-0.01-0.48-0.1-0.91-0.65-1.06
			c-0.05-0.72-0.38-1.3-0.91-1.78c-0.06-0.63-0.25-1.2-0.77-1.61c-0.46-1.36-0.91-2.71-1.83-3.86c-1.32-4.06-2.65-8.13-3.97-12.19
			c-0.07-0.41-0.13-0.81-0.2-1.22c-0.59-4.45-1.18-8.9-1.77-13.35c0-1.88,0.01-3.75,0.01-5.63c0.71-6.12,1.66-12.21,2.86-18.25
			c0.1-0.4,0.2-0.8,0.31-1.21c1.4-2.26,2.01-4.81,2.72-7.32c0.6-0.82,1.19-1.66,1.2-2.74c0.6-0.33,0.91-0.81,0.79-1.51
			c0.73-1.37,1.46-2.74,2.18-4.11c0.97-0.58,1.27-1.58,1.59-2.56c0.23-0.05,0.32-0.18,0.26-0.41c0.56-0.31,0.88-0.78,0.97-1.41
			c0.23-0.05,0.31-0.19,0.25-0.42c0.6-0.28,1-0.71,1.02-1.4c1.47-1.81,2.93-3.62,4.4-5.44c0.68-0.16,1.02-0.62,1.12-1.29
			c1.24-1.22,2.47-2.44,3.71-3.67c0.91-0.29,1.51-0.9,1.89-1.76c2.83-2.1,5.67-4.21,8.5-6.31c0.45-0.27,0.9-0.54,1.35-0.81
			c0.88,0,1.45-0.55,2.03-1.11c0.27-0.17,0.55-0.33,0.82-0.5c4.48-1.8,8.96-3.6,13.44-5.39c0.38-0.07,0.77-0.15,1.15-0.22
			c2.64-0.62,5.43-0.55,7.97-1.67c0.79-0.08,1.58-0.15,2.38-0.23c3.92-0.01,7.84-0.03,11.76-0.04c1,0.09,1.99,0.17,2.99,0.26
			c8.73,1.66,17.07,4.47,24.99,8.53c1.12,0.72,2.24,1.44,3.37,2.16c0.43,0.73,1.08,1.12,1.91,1.22c0.45,0.81,1.07,1.4,2.02,1.57
			c2.67,2.34,5.35,4.69,8.02,7.03c0.33,0.71,0.74,1.35,1.53,1.63c0.27,0.38,0.55,0.76,0.82,1.14c0.24,0.93,0.81,1.59,1.7,1.95
			c0.27,0.36,0.55,0.72,0.82,1.08c-0.02,0.71,0.38,1.12,1,1.37c0.68,0.97,1.36,1.93,2.04,2.9c-0.01,0.7,0.34,1.15,0.97,1.42
			c-0.02,0.19,0.05,0.33,0.21,0.42c0.23,1.07,0.6,2.04,1.59,2.66c0.5,0.94,1,1.88,1.5,2.81c0.29,1.19,0.46,2.44,1.58,3.22
			c0.12,0.34,0.24,0.68,0.36,1.01c-0.15,0.72,0.2,1.18,0.8,1.5c-0.06,0.19,0.01,0.32,0.19,0.4c0.09,0.38,0.19,0.77,0.28,1.15
			C804.64,570.38,805.36,572.77,806.58,575z"/>
	</g>
</g>
</svg>
