<?xml version="1.0" encoding="utf-8"?>
<!-- Generator: Adobe Illustrator 24.0.1, SVG Export Plug-In . SVG Version: 6.00 Build 0)  -->
<svg version="1.1" id="Layer_1" xmlns="http://www.w3.org/2000/svg" xmlns:xlink="http://www.w3.org/1999/xlink" x="0px" y="0px"
	 viewBox="0 0 1080 1080" style="enable-background:new 0 0 1080 1080;" xml:space="preserve">
<style type="text/css">
	.st0{fill:#F6F2E0;}
	.st1{fill:#800000;}
	.st2{fill:#FFFFFF;}
	.st3{fill:#6ECAD9;}
	.st4{fill:#040302;}
	.st5{fill:#BB7927;}
	.st6{fill:#FFBD11;}
	.st7{fill:#EEDC92;}
</style>
<g>
	<path d="M374,70.87c6.6,0,11.99,5.16,11.99,11.49v0.82c20.89,2.8,39.81,12.01,54.16,25.47c16.91,15.88,27.47,37.66,27.47,61.88
		l-0.8,29.91l6.19,42.89c0.24,1.39,0.1,2.82-0.4,4.14c-0.5,1.32-1.36,2.48-2.48,3.39l0.76,0.87l1.42,1.62l-6.24,7.91l-0.12,0.28
		l-0.03,0.09c-1.91,4.66-4.47,8.9-7.42,12.02c-2.48,2.54-5.27,4.36-8.29,5.07c-0.59,1.79-1.23,3.65-1.7,5.47
		c-3.37,10.88-6.01,19.44-13.03,27.96c-1.53,1.86-3.16,3.65-4.88,5.33c-1.18,1.18-2.4,2.33-3.68,3.42
		c0.21,2.07,0.17,20.16,0.14,25.34l-2.07,0.47c-4.52,15.33-18.07,25.27-34.02,29.96c-9.09,2.66-18.98,3.63-28.39,2.94
		c-9.49-0.7-18.58-3.11-25.96-7.18c-10.37-5.72-17.48-14.67-17.99-26.76v-0.83l-2.26-0.59v-23.23l0.05-2.43
		c-6.46-5.61-11.75-13.05-15.31-20.61c-2.48-5.27-4.45-10.98-6.74-17.43l-1.18-3.35c-2.59-0.33-5-1.48-7.18-3.16
		c-2.73-2.14-5.07-5.27-6.99-8.88c-1.29-2.42-3.82-6.05-4.74-13.61c-2.76-1.62-4.41-4.69-3.94-7.96l6.22-42.92l-1.74-26.27
		c-0.12-1.91-0.19-3.65-0.19-5.21c0-23.41,10.51-44.42,27.14-59.93c15.78-14.74,37.15-24.5,60.25-26.55v-0.31
		C362.03,76.03,367.42,70.87,374,70.87z"/>
	<path d="M382.72,372.34c13.99-2.99,26.69-10.46,32.88-21.95c2-4.48,7-7.25,12.22-6.38c8.24,1.39,13.26,2.17,18.32,2.94
		c60.18,9.3,117.28,18.11,133.05,91.35l17.03,88.19c0.26,0.9,0.4,1.86,0.4,2.83c0,5.93-5.02,10.72-11.19,10.72H157.92
		c-0.59-0.03-1.18-0.07-1.79-0.16c-6.08-0.94-10.22-6.43-9.23-12.27l12.7-74.3c17.97-87.53,65.6-96.58,134.62-109.7
		c7.26-1.37,14.74-2.8,20.56-3.96c5.96-1.18,11.83,2.45,13.15,8.17c2.35,10.06,9.09,17.08,17.85,21.22c5.25,2.48,11.21,4,17.39,4.55
		C369.62,374.13,376.3,373.71,382.72,372.34z"/>
	<path class="st0" d="M418.43,322.76c-31.28,23.32-62.21,21.1-92.84,0.21l-0.14,23.23c3.23,36.02,83.81,38.06,92.98,1.06V322.76z
		 M462.83,254.26c-0.78-0.89-1.56-1.77-2.35-2.64l-0.54-0.33c-21.04-14.2-54.63-21.27-88.38-21.27c-32.77,0-65.25,6.67-86.05,19.93
		l2.9,12.34l9.59,9.63l5.94,6.13c16.68,66.88,118.75,71.07,136.6,0l10.5-8.74L462.83,254.26z"/>
	<path class="st1" d="M464.69,244.66l-5.6-38.79c-0.63-0.03-1.25-0.17-1.84-0.42c-30.57-12.77-60.04-18-88.57-17.41
		c-28.55,0.61-56.25,7.07-83.22,17.69c-0.42,0.17-0.85,0.28-1.29,0.33l-5.6,38.59C322.84,214.42,419.63,214.25,464.69,244.66z
		 M458.56,195.1l0.61-22.54c1.25-45.65-38.99-82.28-86.66-82.28h-1.36c-48.41,0-91.11,37.29-88.01,83.58l1.42,21.43
		c27.14-10.36,55.07-16.63,83.93-17.24C397.56,177.42,427.56,182.57,458.56,195.1z"/>
	<path class="st2" d="M384.53,130.12h-4.17c-0.24-1.2-0.68-2.24-1.29-3.15c-0.61-0.9-1.34-1.67-2.22-2.28
		c-0.87-0.63-1.82-1.09-2.87-1.41c-1.06-0.31-2.15-0.47-3.3-0.47c-2.09,0-3.96,0.52-5.66,1.58c-1.69,1.04-3.02,2.59-4.01,4.64
		c-0.99,2.05-1.48,4.55-1.48,7.52c0,2.97,0.49,5.47,1.48,7.52c0.99,2.05,2.33,3.6,4.01,4.64c1.69,1.04,3.58,1.58,5.66,1.58
		c1.15,0,2.24-0.16,3.3-0.47c1.06-0.31,2.02-0.78,2.87-1.39c0.87-0.63,1.62-1.39,2.22-2.29c0.61-0.92,1.04-1.96,1.29-3.15h4.17
		c-0.31,1.76-0.89,3.32-1.72,4.71c-0.83,1.39-1.86,2.57-3.09,3.53c-1.23,0.96-2.61,1.69-4.15,2.19c-1.53,0.5-3.15,0.75-4.88,0.75
		c-2.94,0-5.54-0.71-7.84-2.14c-2.29-1.42-4.08-3.46-5.39-6.1c-1.3-2.64-1.96-5.77-1.96-9.38c0-3.61,0.66-6.74,1.96-9.38
		c1.3-2.64,3.11-4.67,5.39-6.1c2.28-1.42,4.9-2.14,7.84-2.14c1.74,0,3.37,0.24,4.88,0.75c1.53,0.5,2.92,1.23,4.15,2.21
		c1.23,0.96,2.26,2.14,3.09,3.53C383.66,126.79,384.22,128.37,384.53,130.12z"/>
	<path class="st3" d="M425.85,354.6c-7.89,15.33-24.35,25.01-42.16,28.48v49.77h-24.12l-0.02-48.9
		c-20.11-2.54-37.83-13.5-42.54-33.82c-75.82,15.33-128.26,16.47-146.47,105.25l-4.34,25.28h92.45v-44.99
		c0-2.75,2.33-4.99,5.21-4.99s5.21,2.24,5.21,4.99v93.66h204.58v-93.66c0-2.75,2.33-4.99,5.21-4.99s5.2,2.24,5.2,4.99v44.99h91.92
		l-7.65-39.64C552.76,367.27,488.64,365.13,425.85,354.6z M162.09,504.65l-4.22,24.69h100.79v-24.69H162.09z M484.07,529.34h101.31
		l-4.76-24.69h-96.55V529.34z"/>
	<path d="M319.68,478.18h-4.05c-0.24-1.13-0.66-2.1-1.25-2.95c-0.59-0.85-1.3-1.56-2.15-2.14c-0.83-0.59-1.77-1.03-2.8-1.32
		c-1.03-0.3-2.09-0.43-3.2-0.43c-2.03,0-3.86,0.49-5.51,1.48c-1.63,0.99-2.94,2.43-3.91,4.34c-0.96,1.91-1.44,4.27-1.44,7.06
		c0,2.78,0.49,5.14,1.44,7.06c0.97,1.91,2.28,3.37,3.91,4.34c1.65,0.99,3.48,1.48,5.51,1.48c1.11,0,2.17-0.14,3.2-0.43
		c1.03-0.3,1.96-0.73,2.8-1.3c0.85-0.59,1.56-1.3,2.15-2.15c0.61-0.85,1.03-1.84,1.25-2.95h4.05c-0.31,1.65-0.87,3.11-1.67,4.41
		c-0.8,1.3-1.81,2.4-3.01,3.32c-1.2,0.9-2.54,1.58-4.03,2.07c-1.48,0.47-3.08,0.71-4.76,0.71c-2.85,0-5.39-0.68-7.61-2.02
		c-2.22-1.34-3.98-3.25-5.25-5.72c-1.27-2.47-1.91-5.4-1.91-8.79s0.64-6.33,1.91-8.79c1.27-2.47,3.02-4.38,5.25-5.72
		c2.22-1.34,4.76-2.02,7.61-2.02c1.69,0,3.27,0.24,4.76,0.71c1.49,0.47,2.83,1.16,4.03,2.07c1.2,0.9,2.21,2,3.01,3.3
		C318.83,475.06,319.39,476.53,319.68,478.18z"/>
	<path d="M354.47,484.23c0,3.39-0.64,6.33-1.91,8.79c-1.27,2.47-3.02,4.38-5.25,5.72c-2.22,1.34-4.76,2.02-7.61,2.02
		c-2.85,0-5.39-0.68-7.61-2.02c-2.22-1.34-3.98-3.25-5.25-5.72c-1.27-2.47-1.91-5.4-1.91-8.79s0.64-6.33,1.91-8.79
		c1.27-2.47,3.02-4.38,5.25-5.72c2.22-1.34,4.76-2.02,7.61-2.02c2.85,0,5.39,0.68,7.61,2.02c2.22,1.34,3.98,3.25,5.25,5.72
		C353.84,477.89,354.47,480.83,354.47,484.23z M350.56,484.23c0-2.78-0.49-5.14-1.46-7.05c-0.96-1.91-2.26-3.37-3.91-4.34
		c-1.63-0.99-3.46-1.48-5.49-1.48c-2.03,0-3.86,0.49-5.51,1.48c-1.63,0.99-2.94,2.43-3.91,4.34c-0.96,1.91-1.44,4.27-1.44,7.05
		c0,2.78,0.49,5.14,1.44,7.06c0.97,1.91,2.28,3.37,3.91,4.34c1.65,0.99,3.48,1.48,5.51,1.48c2.03,0,3.86-0.49,5.49-1.48
		c1.65-0.99,2.95-2.43,3.91-4.34C350.07,489.36,350.56,487.01,350.56,484.23z"/>
	<path d="M361.09,500.32h-4.26l12.29-32.18h4.19l12.29,32.18h-4.26l-10.01-27.09h-0.26L361.09,500.32z M362.65,487.74h17.13v3.46
		h-17.13V487.74z"/>
	<path d="M416.18,478.18h-4.05c-0.24-1.13-0.66-2.1-1.27-2.95c-0.59-0.85-1.3-1.56-2.15-2.14c-0.83-0.59-1.77-1.03-2.8-1.32
		c-1.03-0.3-2.09-0.43-3.2-0.43c-2.03,0-3.86,0.49-5.51,1.48c-1.63,0.99-2.94,2.43-3.91,4.34c-0.96,1.91-1.44,4.27-1.44,7.06
		c0,2.78,0.47,5.14,1.44,7.06c0.97,1.91,2.28,3.37,3.91,4.34c1.65,0.99,3.48,1.48,5.51,1.48c1.11,0,2.17-0.14,3.2-0.43
		c1.03-0.3,1.96-0.73,2.8-1.3c0.85-0.59,1.56-1.3,2.15-2.15c0.61-0.85,1.03-1.84,1.27-2.95h4.05c-0.31,1.65-0.87,3.11-1.67,4.41
		c-0.8,1.3-1.81,2.4-3.01,3.32c-1.2,0.9-2.54,1.58-4.03,2.07c-1.48,0.47-3.06,0.71-4.76,0.71c-2.85,0-5.39-0.68-7.61-2.02
		c-2.22-1.34-3.98-3.25-5.25-5.72c-1.27-2.47-1.91-5.4-1.91-8.79s0.64-6.33,1.91-8.79c1.27-2.47,3.02-4.38,5.25-5.72
		c2.22-1.34,4.76-2.02,7.61-2.02c1.69,0,3.27,0.24,4.76,0.71c1.49,0.47,2.83,1.16,4.03,2.07c1.2,0.9,2.21,2,3.01,3.3
		C415.32,475.06,415.88,476.53,416.18,478.18z"/>
	<path d="M422.73,500.32v-32.18h4.05v14.34h17.86v-14.34h4.05v32.18h-4.05v-14.41h-17.85v14.41H422.73z"/>
</g>
<g>
	<path class="st4" d="M935,926.23c0,8.84,0,17.68,0,26.52c-4.52,7.19-11.26,8.39-19.25,8.39c-184.05-0.15-368.1-0.11-552.15-0.12
		c-1.92,0-3.85,0.06-5.76-0.05c-7.97-0.45-12.81-5.11-13.14-13.13c-0.26-6.33-0.37-12.7,0.09-19.01
		c0.65-8.84,5.23-16.29,13.84-17.72c8.29-1.38,8.34-5.66,7.83-11.62c-0.08-0.95-0.02-1.92,0-2.88c0.28-12.52,8.41-20.93,20.86-21.32
		c6.72-0.21,13.45-0.21,20.17,0c3.17,0.1,4.51-0.69,4.3-4.11c-0.27-4.59-0.15-9.22-0.04-13.83c0.16-6.56,2.25-13.16,8.59-15.04
		c7.77-2.3,7.81-7.07,7.32-13.1c-0.2-2.48,0.12-5-0.06-7.49c-0.45-6.31,2.25-10.27,8.41-11.81c7.63,2.41,8.91,4.18,8.94,12.43
		c0.02,4.61,0.15,9.22-0.05,13.82c-0.12,2.79,0.85,3.66,3.6,3.56c4.99-0.19,9.98-0.05,14.98-0.05c9.15,0,9.15,0,9.15-8.85
		c0-51.84,0-103.68,0-155.52c0-2.88-0.13-5.77,0.04-8.64c0.14-2.51-0.79-3.35-3.3-3.28c-5.76,0.15-11.55,0.42-17.27-0.06
		c-5.52-0.46-7.37,0.84-7.31,6.96c0.36,34.94,0.19,69.89,0.17,104.83c0,7.8-1.74,10.05-8.85,11.81c-6.92-2.06-8.46-4.09-8.46-11.6
		c-0.02-35.72-0.03-71.45,0.03-107.17c0.01-2.86-0.17-4.59-3.68-5.57c-8-2.23-11.95-8.07-12.23-16.78c-0.15-4.8-0.17-9.61,0.02-14.4
		c0.11-2.84-0.97-3.61-3.68-3.56c-6.91,0.14-13.83,0.2-20.74-0.07c-8.78-0.34-15.07-6.4-15.97-15.12c-0.26-2.47-0.13-4.99-0.13-7.48
		c-0.01-10.82,0-10.82-10.65-11.32c-10.05-0.47-14.96-5.42-15.26-15.52c-0.11-3.65,0.12-7.3-0.05-10.95
		c-0.34-7.41,3.07-12.26,9.57-15.56c12.46-6.33,24.8-12.9,37.18-19.4c80.05-41.98,160.12-83.91,240.08-126.06
		c8.51-4.49,16.04-4.6,24.34,0.25c11.24,6.57,22.79,12.61,34.33,18.64c5.53,2.9,8.09,6.84,6.24,13.07c-5.35,5.44-7.8,5.86-14.6,2.21
		c-11.62-6.24-23.2-12.57-34.8-18.85c-1.8-0.97-3.37-2.16-5.78-0.84c-13.74,7.49-27.59,14.8-41.4,22.16
		c-1.39,0.61-2.83,1.14-4.17,1.84c-76.23,39.99-152.42,80.06-228.76,119.85c-4.69,2.45-5.62,5.51-4.62,9.58
		c1,4.1,4.84,2.04,7.27,2.04c156.16,0.13,312.32,0.15,468.48,0.16c2.1,0,4.21-0.18,6.31-0.28c22.85,0.1,45.71,0.21,68.56,0.31
		c1.58,0.01,3.42,0,3.26-2.19c-0.2-2.68,1.49-5.86-1.64-7.91c-1.28-0.84-2.68-1.5-4.03-2.23
		c-62.12-33.58-124.24-67.14-186.35-100.73c-8.27-4.47-9.37-6.61-7.62-14.36c3.85-4.28,8.24-5.09,13.37-2.32
		c65.15,35.26,130.3,70.5,195.47,105.73c4.5,2.43,7.46,5.89,8.19,11.06c-0.54,5.75-0.44,11.5-0.05,17.26
		c-1.43,8.5-5.54,12.34-14.17,12.99c-2.68,0.2-5.39,0.21-8.06,0c-2.74-0.22-3.71,0.68-3.58,3.51c0.21,4.79,0.24,9.62-0.02,14.41
		c-0.51,9.35-6.94,15.73-16.25,16.08c-6.52,0.24-13.07,0.26-19.6,0.02c-3.43-0.13-4.88,0.68-4.62,4.4
		c0.32,4.59,0.21,9.22,0.04,13.83c-0.33,8.62-4.36,14.36-12.46,16.63c-3.29,0.92-3.45,2.44-3.45,5.15
		c0.06,55.92,0.05,111.83,0.02,167.75c0,2.4,0.03,3.87,3.18,4.76c8.42,2.38,12.42,8.16,12.72,17.04c0.13,3.84,0.43,7.74-0.07,11.52
		c-0.74,5.6,1.67,6.78,6.68,6.41c5.54-0.41,11.14-0.18,16.71-0.07c13.59,0.26,21.78,8.5,21.97,22c0.04,3.07,0.07,6.15-0.02,9.22
		c-0.05,1.76,0.29,3.02,2.34,3.18C926.02,910.43,931.73,916.9,935,926.23z M836.99,594.16c-2.49-0.09-4.98-0.26-7.47-0.26
		c-143.92-0.01-287.84-0.01-431.76-0.01c-9.2,0-8.88,0.02-9.32,9.48c-0.26,5.54,0.89,7.35,7.01,7.34
		c145.07-0.21,290.15-0.16,435.22-0.17c2.11,0,4.21-0.17,6.32-0.25c16.88,0.09,33.76,0.17,50.63,0.26c1.8,0.01,3.51,0.04,3.46-2.56
		c-0.08-3.84-0.08-7.68,0-11.51c0.05-2.59-1.65-2.59-3.45-2.58C870.74,593.98,853.87,594.07,836.99,594.16z M842.77,909.04
		c14.14,0.12,28.28,0.27,42.42,0.33c11.68,0.06,11.6,0.02,10.7-11.95c-0.25-3.34-1.66-4.87-4.97-4.84
		c-16.06,0.11-32.12,0.18-48.17,0.27c-1.91-0.09-3.83-0.26-5.74-0.26c-148.28-0.01-296.56-0.01-444.85-0.01
		c-1.34,0-2.69,0-4.03,0.03c-2.78,0.06-4.27,1.46-4.32,4.27c-0.03,1.92,0.23,3.88-0.08,5.75c-0.91,5.51,1.12,6.91,6.73,6.9
		c148.67-0.17,297.33-0.14,446-0.15C838.57,909.38,840.67,909.16,842.77,909.04z M864.66,943.53c14.01,0.09,28.02,0.22,42.03,0.27
		c12.28,0.05,12.2,0.02,11.14-12.22c-0.29-3.37-1.94-5.01-5.05-4.98c-16.11,0.18-32.23-0.7-48.32,0.46
		c-4.41-0.06-8.82-0.18-13.23-0.18c-160.41-0.01-320.82-0.01-481.23,0c-8.05,0-7.44,0.1-8.26,10.45c-0.58,7.32,3.35,6.39,7.88,6.39
		c162.72-0.04,325.43-0.03,488.15-0.04C860.06,943.69,862.36,943.58,864.66,943.53z M489.95,751.6c0,27.84,0.05,55.67-0.07,83.51
		c-0.01,3.1,0.61,4.51,3.86,5.47c7.73,2.27,11.75,7.98,12.08,16.3c0.19,4.79,0.17,9.6,0,14.39c-0.11,2.86,0.59,4.14,3.78,4.02
		c6.33-0.23,12.68-0.27,19,0.01c3.56,0.16,4.12-1.36,3.99-4.39c-0.2-4.6-0.12-9.21-0.04-13.82c0.16-8.49,4.12-14.21,12.29-16.65
		c3.11-0.93,3.59-2.29,3.58-5.14c-0.08-55.87-0.09-111.73,0.01-167.6c0-2.94-0.67-4.16-3.68-5.06c-8.11-2.44-12.06-8.18-12.21-16.72
		c-0.08-4.8-0.14-9.6,0.03-14.4c0.09-2.65-0.59-3.79-3.49-3.7c-6.52,0.19-13.06,0.23-19.58-0.01c-3.33-0.12-3.77,1.38-3.69,4.12
		c0.15,4.79,0.19,9.6-0.01,14.4c-0.35,8.33-4.36,14.02-12.16,16.22c-3.41,0.96-3.76,2.57-3.75,5.52
		C489.99,695.93,489.95,723.77,489.95,751.6z M789.67,752.15c0-27.84-0.07-55.67,0.09-83.51c0.02-3.53-0.58-5.31-4.36-6.27
		c-5.8-1.48-9.31-5.68-10.91-11.51c-1.04-3.79-0.7-7.63-0.72-11.45c-0.05-11.51-0.02-11.59-11.75-11.48
		c-4.76,0.05-11-2.06-13.89,0.79c-3.16,3.12-0.69,9.44-1.04,14.35c-0.07,0.96,0.01,1.92-0.02,2.88c-0.19,8.52-4.12,14.27-12.24,16.7
		c-3.05,0.91-3.65,2.18-3.65,5.08c0.09,55.87,0.09,111.73,0,167.6c0,2.89,0.56,4.2,3.61,5.12c8.15,2.46,12.11,8.17,12.27,16.67
		c0.08,4.41,0.32,8.86-0.07,13.24c-0.38,4.27,1.32,5.16,5.2,4.94c5.55-0.32,11.15-0.37,16.69,0.01c4.27,0.3,5.2-1.4,4.93-5.23
		c-0.3-4.39-0.21-8.83-0.02-13.24c0.35-8.3,4.37-14.02,12.11-16.28c3.29-0.96,3.85-2.43,3.83-5.49
		C789.62,807.44,789.67,779.8,789.67,752.15z M668.85,752.13c0-28.05-0.06-56.09,0.08-84.14c0.02-3.16-0.73-4.53-3.92-5.49
		c-7.38-2.23-11.37-7.56-11.66-15.33c-0.2-5.18-0.18-10.37-0.07-15.55c0.06-2.62-0.66-3.83-3.54-3.75
		c-6.53,0.17-13.07,0.2-19.59-0.01c-3.2-0.11-3.91,1.23-3.82,4.08c0.16,4.8,0.17,9.61,0,14.4c-0.29,8.44-4.08,13.87-12.01,16.29
		c-3.04,0.93-3.63,2.22-3.62,5.11c0.09,55.9,0.09,111.8,0,167.7c0,2.93,0.66,4.19,3.65,5.11c7.73,2.38,11.59,7.7,11.94,15.74
		c0.21,4.99,0.2,9.99,0.04,14.98c-0.09,2.88,0.66,4.16,3.84,4.05c6.33-0.22,12.68-0.25,19.01,0.01c3.46,0.14,4.22-1.25,4.12-4.36
		c-0.17-5.18-0.15-10.38,0.11-15.55c0.37-7.28,4.22-12.36,11.08-14.55c3.53-1.12,4.5-2.61,4.47-6.3
		C668.76,807.06,668.85,779.59,668.85,752.13z M593.43,751.54c0-27.67-0.08-55.34,0.09-83.01c0.02-3.93-0.87-5.45-5.05-5.2
		c-5.94,0.36-11.93,0.37-17.86,0c-4.27-0.27-5.15,1.41-4.96,5.25c0.29,5.75,0.08,11.53,0.08,17.29c0,49.38,0.05,98.77-0.09,148.15
		c-0.01,4.34,0.85,6.15,5.59,5.78c5.73-0.45,11.54-0.38,17.28-0.01c4.24,0.27,5.03-1.35,5.01-5.23
		C593.35,806.88,593.43,779.21,593.43,751.54z M686.2,751.55c0,27.67,0.07,55.34-0.08,83.01c-0.02,3.89,0.78,5.48,5.01,5.23
		c6.13-0.37,12.3-0.33,18.44-0.01c3.73,0.19,4.63-1.21,4.4-4.61c-0.26-3.83-0.06-7.68-0.06-11.53c0-51.5-0.05-102.99,0.08-154.49
		c0.01-4.26-0.71-6.23-5.55-5.83c-5.73,0.47-11.54,0.38-17.28,0.02c-4.19-0.26-5.07,1.28-5.04,5.2
		C686.27,696.21,686.2,723.88,686.2,751.55z M807,751.32c0,27.84,0.05,55.68-0.07,83.52c-0.02,3.5,0.52,5.17,4.6,4.93
		c6.31-0.37,12.67-0.27,19-0.03c3.24,0.12,4.22-0.82,4.21-4.14c-0.1-56.07-0.1-112.13,0-168.2c0.01-3.44-1.19-4.16-4.31-4.05
		c-6.14,0.21-12.3,0.32-18.43-0.03c-4.03-0.23-5.14,0.95-5.11,5.04C807.09,696.03,807,723.67,807,751.32z M459.16,857
		c-5.57,0-11.13,0-16.7,0c-13.9,0-13.75,0-13.52,13.9c0.06,3.71,1.4,4.44,4.73,4.41c13.82-0.15,27.64-0.06,41.46-0.06
		c13.86,0,13.7,0,13.52-13.99c-0.05-3.81-1.46-4.39-4.74-4.32C475.67,857.13,467.41,857,459.16,857z M820.61,875.25
		c5.57,0,11.13,0,16.7,0c13.54,0,13.39,0,13.37-13.56c-0.01-3.83-1.14-4.83-4.88-4.77c-13.82,0.22-27.64,0.09-41.46,0.09
		c-13.84,0-13.73,0-13.34,14.05c0.09,3.25,1.01,4.33,4.28,4.26C803.72,875.13,812.16,875.25,820.61,875.25z M458.69,646.11
		c5.56,0,11.13,0,16.69,0c13.5,0,13.49,0,13.17-13.56c-0.01-0.58-0.04-1.15,0-1.73c0.15-2.28-1.05-2.96-3.15-2.96
		c-17.65,0.03-35.3,0.04-52.94-0.01c-2.41-0.01-3.87,0.86-3.36,3.32c1.03,4.93-2.59,10.52,2.05,14.82c0.62,0.58,2.23,0.11,3.38,0.11
		C442.58,646.11,450.63,646.11,458.69,646.11z M820.79,646.11c5.56,0,11.13,0,16.69,0c13.3,0,13.08,0,13.23-13.05
		c0.05-4.61-1.65-5.33-5.69-5.27c-13.62,0.22-27.24,0.08-40.86,0.08c-13.41,0-13.28,0-13.17,13.73c0.03,3.47,0.86,4.69,4.48,4.58
		C803.9,645.93,812.35,646.11,820.79,646.11z M579.01,646.1c5.57,0,11.13,0,16.7,0c13.6,0,13.45,0,13.39-13.41
		c-0.02-3.76-1.03-4.95-4.85-4.89c-13.63,0.21-27.26,0.08-40.89,0.08c-14.09,0-13.99,0-13.58,14.4c0.09,3,0.85,3.95,3.89,3.89
		C562.11,645.98,570.56,646.1,579.01,646.1z M699.81,646.1c5.57,0,11.13,0,16.7,0c13.47,0,13.27,0,13.37-13.39
		c0.03-4.32-1.56-4.97-5.33-4.91c-13.43,0.2-26.87,0.08-40.31,0.08c-14.32,0-14.22,0-13.7,14.38c0.11,2.99,0.92,3.96,3.94,3.9
		C682.92,645.99,691.37,646.1,699.81,646.1z M579.85,857.01c-5.57,0-11.14,0-16.71,0c-13.71,0-13.55,0-13.39,13.94
		c0.04,3.76,1.36,4.4,4.7,4.36c13.63-0.16,27.27-0.07,40.9-0.07c14,0,13.87,0,13.74-13.78c-0.03-3.46-0.85-4.67-4.48-4.55
		C596.37,857.19,588.1,857.01,579.85,857.01z M700.82,857.01c-5.57,0-11.14,0-16.71,0c-13.96,0-13.83,0-13.58,13.79
		c0.06,3.56,1.16,4.56,4.64,4.51c13.63-0.17,27.27-0.07,40.9-0.07c14.62,0,14.53,0,13.78-14.78c-0.14-2.82-1.02-3.55-3.68-3.5
		C717.72,857.1,709.27,857.01,700.82,857.01z"/>
	<path class="st5" d="M935,581.48c-0.37-0.1-0.66-0.3-0.87-0.63c-0.39-5.76-0.49-11.52,0.06-17.26c0.19-0.29,0.46-0.48,0.81-0.55
		C935,569.18,935,575.33,935,581.48z"/>
	<path class="st6" d="M844.97,576.23c-2.1,0.1-4.21,0.28-6.31,0.28c-156.16-0.01-312.32-0.02-468.48-0.16
		c-2.43,0-6.27,2.05-7.27-2.04c-1-4.08-0.07-7.14,4.62-9.58c76.34-39.79,152.53-79.86,228.76-119.85c1.34-0.7,2.78-1.23,4.17-1.84
		c17.16,9.34,34.3,18.71,51.48,28.02c32.84,17.8,65.68,35.6,98.57,53.33c26.65,14.37,53.43,28.48,79.95,43.07
		C835.37,570.15,841.09,571.75,844.97,576.23z"/>
	<path class="st6" d="M844.97,576.23c-3.89-4.48-9.6-6.07-14.52-8.78c-26.52-14.6-53.31-28.71-79.95-43.07
		c-32.88-17.73-65.72-35.53-98.57-53.33c-17.18-9.31-34.32-18.68-51.48-28.02c13.81-7.37,27.66-14.67,41.4-22.16
		c2.42-1.32,3.98-0.13,5.78,0.84c11.61,6.27,23.18,12.6,34.8,18.85c6.8,3.65,9.24,3.23,14.6-2.21c6.71,3.59,13.41,7.18,20.12,10.77
		c-1.75,7.76-0.65,9.89,7.62,14.36c62.11,33.58,124.23,67.15,186.35,100.73c1.35,0.73,2.75,1.39,4.03,2.23
		c3.12,2.05,1.43,5.23,1.64,7.91c0.17,2.19-1.68,2.2-3.26,2.19C890.68,576.44,867.83,576.33,844.97,576.23z"/>
	<path class="st6" d="M864.66,943.53c-2.3,0.06-4.61,0.16-6.91,0.16c-162.72,0.01-325.43,0-488.15,0.04c-4.53,0-8.46,0.92-7.88-6.39
		c0.82-10.36,0.21-10.45,8.26-10.45c160.41-0.01,320.82-0.01,481.23,0c4.41,0,8.82,0.11,13.23,0.18
		C864.52,932.55,864.59,938.04,864.66,943.53z"/>
	<path class="st7" d="M842.77,909.04c-2.1,0.12-4.2,0.34-6.3,0.34c-148.67,0.02-297.33-0.02-446,0.15c-5.61,0.01-7.65-1.39-6.73-6.9
		c0.31-1.87,0.04-3.83,0.08-5.75c0.05-2.81,1.54-4.21,4.32-4.27c1.34-0.03,2.69-0.03,4.03-0.03c148.28,0,296.56,0,444.85,0.01
		c1.91,0,3.83,0.17,5.74,0.26C842.75,898.25,842.76,903.65,842.77,909.04z"/>
	<path class="st7" d="M836.99,610.28c-2.11,0.09-4.21,0.25-6.32,0.25c-145.07,0.01-290.15-0.04-435.22,0.17
		c-6.12,0.01-7.28-1.81-7.01-7.34c0.45-9.47,0.12-9.48,9.32-9.48c143.92,0,287.84,0,431.76,0.01c2.49,0,4.98,0.17,7.47,0.26
		C836.99,599.53,836.99,604.9,836.99,610.28z"/>
	<path class="st7" d="M436,809.92c0.03-7.66,0.06-15.32,0.09-22.98c7.11-1.76,8.85-4.01,8.85-11.81
		c0.02-34.95,0.19-69.89-0.17-104.83c-0.06-6.12,1.78-7.42,7.31-6.96c5.72,0.48,11.52,0.21,17.27,0.06c2.51-0.07,3.44,0.76,3.3,3.28
		c-0.16,2.87-0.04,5.76-0.04,8.64c0,51.84,0,103.68,0,155.52c0,8.85,0,8.85-9.15,8.85c-4.99,0-9.99-0.14-14.98,0.05
		c-2.75,0.1-3.72-0.77-3.6-3.56c0.19-4.6,0.07-9.21,0.05-13.82C444.91,814.1,443.63,812.32,436,809.92z"/>
	<path class="st7" d="M593.43,751.54c0,27.67-0.07,55.34,0.08,83.01c0.02,3.88-0.77,5.5-5.01,5.23c-5.74-0.37-11.55-0.43-17.28,0.01
		c-4.74,0.37-5.61-1.43-5.59-5.78c0.14-49.38,0.09-98.77,0.09-148.15c0-5.76,0.22-11.54-0.08-17.29c-0.2-3.84,0.69-5.52,4.96-5.25
		c5.93,0.37,11.92,0.36,17.86,0c4.18-0.25,5.07,1.27,5.05,5.2C593.35,696.2,593.43,723.87,593.43,751.54z"/>
	<path class="st7" d="M686.2,751.55c0-27.67,0.08-55.34-0.09-83.01c-0.02-3.93,0.85-5.47,5.04-5.2c5.74,0.36,11.55,0.45,17.28-0.02
		c4.84-0.39,5.56,1.58,5.55,5.83c-0.13,51.5-0.08,102.99-0.08,154.49c0,3.84-0.2,7.7,0.06,11.53c0.23,3.4-0.67,4.8-4.4,4.61
		c-6.13-0.32-12.31-0.36-18.44,0.01c-4.23,0.25-5.03-1.33-5.01-5.23C686.27,806.89,686.2,779.22,686.2,751.55z"/>
	<path class="st7" d="M807,751.32c0-27.65,0.09-55.3-0.1-82.95c-0.03-4.08,1.08-5.27,5.11-5.04c6.12,0.35,12.29,0.24,18.43,0.03
		c3.12-0.11,4.31,0.6,4.31,4.05c-0.11,56.07-0.1,112.13,0,168.2c0.01,3.32-0.97,4.26-4.21,4.14c-6.33-0.24-12.69-0.34-19,0.03
		c-4.08,0.24-4.61-1.43-4.6-4.93C807.06,807,807,779.16,807,751.32z"/>
	<path class="st6" d="M459.16,857c8.25,0,16.51,0.13,24.76-0.06c3.27-0.07,4.69,0.51,4.74,4.32c0.18,13.99,0.34,13.99-13.52,13.99
		c-13.82,0-27.64-0.09-41.46,0.06c-3.33,0.04-4.67-0.69-4.73-4.41c-0.24-13.9-0.38-13.9,13.52-13.9
		C448.02,857,453.59,857,459.16,857z"/>
	<path class="st6" d="M820.61,875.25c-8.45,0-16.89-0.13-25.34,0.06c-3.27,0.07-4.19-1.01-4.28-4.26
		C790.61,857,790.5,857,804.34,857c13.82,0,27.64,0.13,41.46-0.09c3.74-0.06,4.87,0.94,4.88,4.77c0.02,13.56,0.17,13.56-13.37,13.56
		C831.74,875.25,826.18,875.25,820.61,875.25z"/>
	<path class="st6" d="M458.69,646.11c-8.06,0-16.11,0-24.17,0c-1.15,0-2.76,0.47-3.38-0.11c-4.64-4.3-1.01-9.89-2.05-14.82
		c-0.52-2.46,0.95-3.33,3.36-3.32c17.65,0.05,35.3,0.04,52.94,0.01c2.1,0,3.3,0.68,3.15,2.96c-0.04,0.57-0.01,1.15,0,1.73
		c0.33,13.56,0.33,13.56-13.17,13.56C469.82,646.11,464.25,646.11,458.69,646.11z"/>
	<path class="st6" d="M820.79,646.11c-8.44,0-16.89-0.17-25.32,0.08c-3.62,0.11-4.45-1.1-4.48-4.58
		c-0.11-13.73-0.24-13.73,13.17-13.73c13.62,0,27.24,0.14,40.86-0.08c4.04-0.07,5.74,0.66,5.69,5.27
		c-0.15,13.05,0.07,13.05-13.23,13.05C831.91,646.11,826.35,646.11,820.79,646.11z"/>
	<path class="st6" d="M579.01,646.1c-8.45,0-16.9-0.13-25.34,0.07c-3.04,0.07-3.81-0.88-3.89-3.89c-0.41-14.4-0.51-14.4,13.58-14.4
		c13.63,0,27.26,0.13,40.89-0.08c3.82-0.06,4.84,1.13,4.85,4.89c0.06,13.41,0.21,13.41-13.39,13.41
		C590.14,646.1,584.57,646.1,579.01,646.1z"/>
	<path class="st6" d="M699.81,646.1c-8.45,0-16.9-0.12-25.34,0.06c-3.01,0.06-3.83-0.91-3.94-3.9c-0.52-14.38-0.62-14.38,13.7-14.38
		c13.44,0,26.88,0.12,40.31-0.08c3.77-0.06,5.36,0.59,5.33,4.91c-0.1,13.39,0.11,13.39-13.37,13.39
		C710.95,646.1,705.38,646.1,699.81,646.1z"/>
	<path class="st6" d="M579.85,857.01c8.26,0,16.52,0.19,24.77-0.09c3.63-0.12,4.44,1.09,4.48,4.55
		c0.13,13.78,0.26,13.78-13.74,13.78c-13.64,0-27.27-0.09-40.9,0.07c-3.34,0.04-4.65-0.61-4.7-4.36
		c-0.17-13.94-0.33-13.94,13.39-13.94C568.71,857.01,574.28,857.01,579.85,857.01z"/>
	<path class="st6" d="M700.82,857.01c8.45,0,16.9,0.09,25.35-0.05c2.67-0.04,3.54,0.68,3.68,3.5c0.75,14.79,0.84,14.78-13.78,14.78
		c-13.64,0-27.27-0.1-40.9,0.07c-3.47,0.04-4.57-0.95-4.64-4.51c-0.25-13.8-0.38-13.79,13.58-13.79
		C689.68,857.01,695.25,857.01,700.82,857.01z"/>
	<path class="st6" d="M864.66,943.53c-0.07-5.49-0.14-10.98-0.21-16.47c16.1-1.16,32.22-0.27,48.32-0.46
		c3.11-0.04,4.76,1.61,5.05,4.98c1.06,12.24,1.15,12.27-11.14,12.22C892.68,943.75,878.67,943.62,864.66,943.53z"/>
	<path class="st7" d="M836.99,610.28c0-5.37,0-10.75,0-16.12c16.88-0.09,33.75-0.18,50.63-0.27c1.8-0.01,3.51-0.02,3.45,2.58
		c-0.08,3.84-0.08,7.68,0,11.51c0.05,2.61-1.66,2.57-3.46,2.56C870.74,610.45,853.86,610.36,836.99,610.28z"/>
	<path class="st7" d="M842.77,909.04c-0.01-5.39-0.01-10.79-0.02-16.18c16.06-0.09,32.12-0.17,48.17-0.27
		c3.3-0.02,4.72,1.51,4.97,4.84c0.9,11.96,0.98,12-10.7,11.95C871.05,909.31,856.91,909.16,842.77,909.04z"/>
</g>
</svg>
