<?xml version="1.0" encoding="utf-8"?>
<!-- Generator: Adobe Illustrator 24.0.1, SVG Export Plug-In . SVG Version: 6.00 Build 0)  -->
<svg version="1.1" id="Layer_1" xmlns="http://www.w3.org/2000/svg" xmlns:xlink="http://www.w3.org/1999/xlink" x="0px" y="0px"
	 viewBox="0 0 1080 1080" style="enable-background:new 0 0 1080 1080;" xml:space="preserve">
<style type="text/css">
	.st0{fill:#FFBD11;stroke:#000000;stroke-width:5;stroke-miterlimit:10;}
	.st1{fill:#EEDC92;stroke:#000000;stroke-width:5;stroke-miterlimit:10;}
	.st2{fill:#FBFCFC;stroke:#000000;stroke-width:5;stroke-miterlimit:10;}
	.st3{fill:#800000;}
	.st4{fill:#FEFEFE;}
</style>
<g>
	<path class="st0" d="M811.87,535.31c-1.73,6.79-3.29,13.62-5.2,20.35c-16.33,57.44-68.01,96-127.62,94.57
		c-13.31-0.32-26.55-3.16-39.86-4.3c-55.77-4.77-108.85,3.58-155.38,36.57c-22.52,15.96-42.87,34.98-64.18,52.65
		c-33.85,28.08-67.68,56.17-101.5,84.28c-4.19,3.48-8.64,6.26-14.3,6.42c0-37.84,0.01-75.67,0.01-113.51
		c20.44-19.97,40.42-40.38,60.39-60.83c56.65-58.01,115.01-114.34,171.27-172.75c16.12-16.73,32.87-32.86,49.18-49.41
		c9.76-9.91,20.27-18.83,32.43-25.62c24.83-13.87,51.25-19.65,79.75-16.31c10.95,1.28,21.21,4.82,31.82,7.17
		c35.16,14.66,60.42,39.13,74.21,74.94c3.76,9.77,6.62,19.77,7.67,30.23c0.09,0.93,0.29,1.72,1.31,2.02
		C811.87,512.96,811.87,524.14,811.87,535.31z M679.53,586.25c-3.57,0-7.14-0.03-10.72,0.01c-6.18,0.06-11.93,5.01-12.41,10.64
		c-0.54,6.21,2.83,10.98,9.79,12.15c33.32,5.57,62.01-4.56,84.76-28.72c21.4-22.72,28.84-50.71,23.36-81.6
		c-9.52-53.64-62.29-86.28-114.32-74.4c-16.46,3.76-30.59,11.92-43.31,22.73c-6.37,5.42-7.14,12.89-2.18,18.78
		c4.43,5.25,10.92,4.91,17.57-0.69c6.64-5.6,13.47-11.06,21.71-14.12c30.4-11.28,57.38-5.97,79.97,17.66
		c19.35,20.24,23.51,49,13.61,73.14C735.11,571.72,711.92,586.38,679.53,586.25z M611.13,582.28c-4.86,0-8.68-0.3-12.45,0.06
		c-7.46,0.71-12.39,6.09-12.02,12.64c0.36,6.45,5.95,11.16,13.27,11.4c6.48,0.21,12.75-2.03,19.28-1.38
		c5.46,0.55,8.62-2.38,10.68-7.25c2.08-4.92,0.25-8.44-2.85-12.12C622.18,579.85,615.73,583.26,611.13,582.28z M565.2,504.21
		c-0.75,5.96,3.1,8.97,7.58,11.33c4.43,2.34,8.21,0.53,11.47-2.64c4.31-4.2,8.67-8.37,12.73-12.81c4.16-4.55,4.28-9.65,0.66-14.62
		c-3.56-4.89-9.35-6.25-14.72-3.21c-6.69,3.79-11.5,9.74-16.32,15.56C565.14,499.57,565,501.93,565.2,504.21z"/>
	<path class="st1" d="M728.67,394.61c-10.61-2.35-20.87-5.89-31.82-7.17c-28.5-3.33-54.92,2.44-79.75,16.31
		c-12.16,6.79-22.67,15.72-32.43,25.62c-16.31,16.55-33.06,32.68-49.18,49.41c-56.26,58.41-114.62,114.74-171.27,172.75
		c-19.97,20.45-39.95,40.86-60.39,60.83c-2.55-0.28-4.53-1.68-6.56-3.1c-23.7-16.59-47.44-33.12-71.14-49.71
		c-21.15-14.8-42.06-29.95-63.46-44.38c-12.32-8.31-23.72-18-37.02-24.85c0.29-2.53,2.51-3.57,4.04-5.07
		c75.96-74.04,151.95-148.04,227.97-222.03c19.52-19,39.02-38.03,58.71-56.86c45.73-43.76,114.15-48.91,166.15-12.83
		c6.51,4.52,12.42,10.1,20.21,12.59c7.1,7.87,16.55,12.6,25.15,18.4c6.38,4.3,11.85,10.12,19.53,12.38
		c6.5,6.71,14.78,10.94,22.37,16.13c8.68,6.08,17.17,12.46,26.1,18.13c6.45,4.1,11.92,9.97,19.8,11.66
		c0.97,4.17,5.33,4.63,7.81,7.15C725.13,391.62,727.94,391.95,728.67,394.61z M421.5,373.14c-2.96-0.76-5.45,0.86-7.83,3.18
		c-11.5,11.22-23.15,22.28-34.6,33.54c-9.89,9.72-8.85,16.8,2.92,23.81c23.94,14.25,47.81,28.61,71.68,42.97
		c7.97,4.79,12.19,4.42,18.95-2.27c11.43-11.31,22.82-22.66,34.12-34.1c7.14-7.23,6.06-15.37-2.54-20.51
		c-24.87-14.86-49.75-29.71-74.61-44.58C427.24,373.77,424.82,372.75,421.5,373.14z"/>
	<path class="st1" d="M125.66,590.31c13.29,6.85,24.69,16.55,37.02,24.85c21.4,14.43,42.31,29.57,63.46,44.38
		c23.7,16.59,47.44,33.12,71.14,49.71c2.03,1.42,4.02,2.83,6.56,3.1c0,37.84-0.01,75.67-0.01,113.51c-6.08,1.17-11.5-0.7-16.47-3.91
		c-50.27-32.58-100.52-65.21-150.74-97.86c-6.75-4.38-11.07-10.54-11.08-18.73C125.46,667.02,125.6,628.67,125.66,590.31z
		 M161.63,688c-0.16,5.16,1.63,8.59,5.69,11.07c11.18,6.85,22.24,13.9,33.38,20.83c16.23,10.09,32.47,20.18,48.75,30.18
		c2.42,1.49,4.93,2.92,8.15,2.02c5.17-1.44,8.83-4.38,9.83-9.74c1.01-5.48-1.65-9.57-6.11-12.39
		c-11.26-7.14-22.62-14.13-33.95-21.18c-15.85-9.87-31.67-19.78-47.56-29.58c-4.32-2.67-8.92-2.69-13.31-0.12
		C162.98,681.15,160.9,684.17,161.63,688z"/>
	<path class="st0" d="M647.42,336.89c-7.68-2.26-13.15-8.08-19.53-12.38c-8.6-5.8-18.05-10.52-25.15-18.4
		c10.19-29.11,36.36-48.17,66.35-48.32c30.36-0.16,57.5,18.64,67.57,46.8c10.08,28.19,1.7,59.44-20.98,78.22
		c-7.88-1.69-13.35-7.56-19.8-11.66c-8.94-5.67-17.42-12.06-26.1-18.13c1.96-0.43,3.93-0.81,5.88-1.3
		c12.63-3.19,20.18-15.66,17.14-28.29c-3.07-12.76-15.21-20.38-28-17.58C650.96,308.89,644.43,320.55,647.42,336.89z"/>
	<path class="st1" d="M679.53,586.25c32.39,0.13,55.58-14.53,67.84-44.42c9.9-24.14,5.74-52.9-13.61-73.14
		c-22.59-23.63-49.57-28.93-79.97-17.66c-8.24,3.06-15.07,8.52-21.71,14.12c-6.65,5.6-13.15,5.94-17.57,0.69
		c-4.96-5.89-4.2-13.36,2.18-18.78c12.72-10.81,26.85-18.97,43.31-22.73c52.03-11.88,104.79,20.76,114.32,74.4
		c5.48,30.89-1.96,58.87-23.36,81.6c-22.75,24.15-51.44,34.29-84.76,28.72c-6.96-1.16-10.33-5.93-9.79-12.15
		c0.49-5.63,6.23-10.58,12.41-10.64C672.38,586.22,675.96,586.25,679.53,586.25z"/>
	<path class="st1" d="M611.13,582.28c4.6,0.98,11.05-2.43,15.91,3.35c3.1,3.68,4.93,7.2,2.85,12.12c-2.06,4.88-5.23,7.8-10.68,7.25
		c-6.52-0.65-12.8,1.59-19.28,1.38c-7.32-0.24-12.9-4.95-13.27-11.4c-0.37-6.55,4.56-11.92,12.02-12.64
		C602.44,581.99,606.27,582.28,611.13,582.28z"/>
	<path class="st1" d="M565.2,504.21c-0.21-2.28-0.06-4.64,1.39-6.39c4.82-5.82,9.62-11.76,16.32-15.56
		c5.37-3.04,11.16-1.68,14.72,3.21c3.62,4.97,3.5,10.07-0.66,14.62c-4.06,4.44-8.42,8.6-12.73,12.81
		c-3.25,3.17-7.03,4.98-11.47,2.64C568.31,513.18,564.45,510.17,565.2,504.21z"/>
	<path class="st0" d="M421.5,373.14c3.32-0.39,5.74,0.63,8.1,2.04c24.86,14.87,49.74,29.72,74.61,44.58
		c8.6,5.14,9.68,13.28,2.54,20.51c-11.3,11.44-22.7,22.78-34.12,34.1c-6.75,6.69-10.98,7.06-18.95,2.27
		c-23.87-14.36-47.74-28.72-71.68-42.97c-11.78-7.01-12.81-14.09-2.92-23.81c11.45-11.26,23.1-22.32,34.6-33.54
		C416.05,373.99,418.54,372.37,421.5,373.14z"/>
	<path class="st2" d="M647.42,336.89c-2.99-16.34,3.54-28,17.39-31.04c12.78-2.8,24.93,4.82,28,17.58
		c3.04,12.63-4.51,25.09-17.14,28.29c-1.95,0.49-3.92,0.87-5.88,1.3C662.2,347.84,653.92,343.6,647.42,336.89z"/>
	<path class="st0" d="M161.63,688c-0.73-3.83,1.35-6.84,4.87-8.91c4.39-2.57,8.99-2.55,13.31,0.12
		c15.89,9.81,31.71,19.72,47.56,29.58c11.32,7.05,22.68,14.03,33.95,21.18c4.45,2.82,7.12,6.91,6.11,12.39
		c-0.99,5.36-4.65,8.3-9.83,9.74c-3.22,0.9-5.73-0.53-8.15-2.02c-16.29-10-32.52-20.09-48.75-30.18
		c-11.14-6.93-22.19-13.98-33.38-20.83C163.26,696.58,161.47,693.16,161.63,688z"/>
</g>
<g>
	<path class="st3" d="M787.24,805.34c-7.56,0-15.12,0-22.69,0c-0.24-0.81-0.93-0.56-1.48-0.61c-6.43-0.61-12.81-1.56-19.12-2.98
		c-62.47-14.08-110.1-65.27-119.31-128.15c-0.48-3.26-0.24-6.65-1.6-9.76c0-7.96,0-15.92,0-23.88c0.95-0.33,0.54-1.16,0.62-1.77
		c0.45-3.45,0.73-6.92,1.32-10.35c5.46-32,19.11-60.1,42.55-82.51c46.31-44.29,100.76-57.5,161.3-36.03
		c73.71,26.14,113.93,103.61,95.33,179.55c-14.69,60-65.23,106.06-125.97,114.88C794.55,804.26,790.81,804.21,787.24,805.34z
		 M794.41,703.07c0-10.25,0.07-20.5-0.06-30.74c-0.03-2.14,0.58-2.58,2.63-2.56c10.45,0.11,20.89,0.05,31.34,0.05
		c9.45,0,18.9,0.1,28.35-0.03c12.25-0.17,20.76-11.07,17.68-22.45c-2.21-8.17-9.17-13.32-18.26-13.33
		c-19.7-0.04-39.4-0.04-59.1,0.04c-2.02,0.01-2.67-0.38-2.64-2.55c0.13-9.25,0.06-18.5,0.06-27.76c0-10.65,0.1-21.29-0.03-31.94
		c-0.16-13.07-11.99-21.47-24.08-17.22c-7.14,2.51-11.69,9.27-11.71,17.66c-0.04,19.7-0.06,39.4,0.05,59.1
		c0.01,2.29-0.61,2.75-2.78,2.71c-8.26-0.14-16.51-0.05-24.77-0.05c-11.94,0-23.88-0.09-35.82,0.03c-12.4,0.12-21,11.13-17.8,22.6
		c2.27,8.13,9.23,13.18,18.38,13.19c19.9,0.03,39.8,0.05,59.69-0.05c2.4-0.01,3.12,0.44,3.1,3.01c-0.13,19.9-0.05,39.8-0.08,59.69
		c-0.01,7.1,2.6,12.86,8.78,16.53c12.04,7.16,26.73-1.24,27-15.48C794.56,723.36,794.4,713.21,794.41,703.07z"/>
	<path class="st4" d="M794.41,703.07c0,10.15,0.15,20.3-0.04,30.44c-0.27,14.24-14.96,22.64-27,15.48
		c-6.18-3.68-8.79-9.44-8.78-16.53c0.02-19.9-0.05-39.8,0.08-59.69c0.02-2.56-0.7-3.02-3.1-3.01c-19.9,0.1-39.8,0.08-59.69,0.05
		c-9.15-0.01-16.11-5.06-18.38-13.19c-3.2-11.46,5.39-22.48,17.8-22.6c11.94-0.11,23.88-0.03,35.82-0.03
		c8.26,0,16.52-0.08,24.77,0.05c2.17,0.04,2.8-0.42,2.78-2.71c-0.11-19.7-0.09-39.4-0.05-59.1c0.02-8.38,4.57-15.15,11.71-17.66
		c12.08-4.25,23.92,4.15,24.08,17.22c0.13,10.64,0.03,21.29,0.03,31.94c0,9.25,0.08,18.51-0.06,27.76
		c-0.03,2.16,0.62,2.55,2.64,2.55c19.7-0.08,39.4-0.08,59.1-0.04c9.1,0.02,16.06,5.16,18.26,13.33
		c3.08,11.38-5.43,22.28-17.68,22.45c-9.45,0.13-18.9,0.03-28.35,0.03c-10.45,0-20.89,0.06-31.34-0.05
		c-2.04-0.02-2.66,0.42-2.63,2.56C794.48,682.57,794.41,692.82,794.41,703.07z"/>
</g>
</svg>
