<svg width="35" height="35" viewBox="0 0 35 35" fill="none" xmlns="http://www.w3.org/2000/svg">
<path d="M26.3109 17.3481C26.2549 17.5681 26.2043 17.7894 26.1424 18.0076C25.6132 19.869 23.9384 21.1187 22.0066 21.0723C21.5752 21.0619 21.1462 20.9699 20.7148 20.933C18.9075 20.7784 17.1873 21.049 15.6794 22.1181C14.9496 22.6353 14.2901 23.2517 13.5995 23.8244C12.5025 24.7344 11.4061 25.6447 10.3101 26.5557C10.1743 26.6684 10.0301 26.7585 9.84668 26.7637C9.84668 25.5374 9.847 24.3114 9.847 23.0851C10.5094 22.438 11.1569 21.7765 11.8041 21.1138C13.64 19.2338 15.5313 17.4083 17.3545 15.5154C17.8769 14.9732 18.4197 14.4505 18.9483 13.9142C19.2646 13.593 19.6052 13.3039 19.9993 13.0839C20.8039 12.6344 21.6602 12.4471 22.5838 12.5553C22.9386 12.5968 23.2711 12.7115 23.615 12.7877C24.7544 13.2628 25.573 14.0558 26.0199 15.2163C26.1418 15.5329 26.2345 15.857 26.2685 16.196C26.2714 16.2261 26.2779 16.2517 26.3109 16.2614C26.3109 16.6238 26.3109 16.9861 26.3109 17.3481ZM22.0221 18.9989C21.9064 18.9989 21.7908 18.9979 21.6747 18.9992C21.4745 19.0012 21.2881 19.1616 21.2726 19.344C21.2551 19.5453 21.3643 19.6999 21.5898 19.7378C22.6696 19.9183 23.5994 19.59 24.3367 18.807C25.0302 18.0707 25.2713 17.1637 25.0937 16.1626C24.7852 14.4243 23.0751 13.3665 21.3889 13.7515C20.8555 13.8733 20.3976 14.1378 19.9853 14.4881C19.7789 14.6638 19.7539 14.9058 19.9147 15.0967C20.0583 15.2669 20.2686 15.2558 20.4841 15.0744C20.6993 14.8929 20.9206 14.7159 21.1877 14.6168C22.1728 14.2512 23.0472 14.4233 23.7793 15.1891C24.4064 15.845 24.5412 16.777 24.2203 17.5594C23.8233 18.528 23.0718 19.0031 22.0221 18.9989ZM19.8055 18.8702C19.648 18.8702 19.5242 18.8605 19.402 18.8722C19.1602 18.8952 19.0005 19.0695 19.0125 19.2818C19.0241 19.4908 19.2053 19.6435 19.4425 19.6513C19.6525 19.6581 19.8557 19.5855 20.0673 19.6065C20.2443 19.6244 20.3467 19.5294 20.4134 19.3716C20.4808 19.2121 20.4215 19.0981 20.3211 18.9788C20.1636 18.7915 19.9546 18.902 19.8055 18.8702ZM18.317 16.3402C18.2927 16.5333 18.4175 16.6309 18.5627 16.7074C18.7062 16.7832 18.8287 16.7245 18.9344 16.6218C19.074 16.4857 19.2153 16.3506 19.3469 16.2067C19.4817 16.0592 19.4856 15.8939 19.3683 15.7329C19.2529 15.5744 19.0653 15.5303 18.8913 15.6288C18.6745 15.7517 18.5186 15.9445 18.3624 16.1331C18.3151 16.1898 18.3105 16.2663 18.317 16.3402Z" fill="#FFBD11" stroke="black" stroke-width="0.162037" stroke-miterlimit="10"/>
<path d="M23.6149 12.7887C23.2711 12.7125 22.9386 12.5978 22.5837 12.5563C21.6601 12.4484 20.8039 12.6354 19.9993 13.0849C19.6052 13.3049 19.2646 13.5943 18.9483 13.9152C18.4197 14.4515 17.8769 14.9742 17.3545 15.5164C15.5312 17.4093 13.6399 19.2349 11.8041 21.1148C11.1569 21.7775 10.5094 22.439 9.84698 23.0861C9.76434 23.0771 9.70018 23.0317 9.63439 22.9857C8.86634 22.448 8.09698 21.9124 7.32893 21.3747C6.64351 20.8951 5.96587 20.4041 5.27235 19.9365C4.87309 19.6672 4.50365 19.3531 4.07263 19.1311C4.08203 19.0492 4.15397 19.0155 4.20356 18.9668C6.66522 16.5674 9.12786 14.1692 11.5915 11.7714C12.2241 11.1557 12.856 10.539 13.4941 9.92874C14.9761 8.51059 17.1934 8.34369 18.8786 9.51295C19.0896 9.65943 19.2811 9.84027 19.5336 9.92096C19.7636 10.176 20.0699 10.3293 20.3486 10.5173C20.5554 10.6566 20.7326 10.8452 20.9815 10.9185C21.1922 11.1359 21.4605 11.273 21.7065 11.4412C21.9878 11.6382 22.2629 11.845 22.5523 12.0287C22.7613 12.1616 22.9386 12.3518 23.194 12.4066C23.2254 12.5417 23.3667 12.5567 23.4471 12.6383C23.5002 12.6918 23.5913 12.7025 23.6149 12.7887ZM13.6604 12.0929C13.5644 12.0683 13.4837 12.1208 13.4066 12.196C13.0339 12.5596 12.6564 12.918 12.2853 13.2829C11.9648 13.5979 11.9985 13.8274 12.3799 14.0545C13.1558 14.5163 13.9293 14.9817 14.7029 15.4471C14.9612 15.6023 15.098 15.5903 15.317 15.3735C15.6874 15.007 16.0566 14.6392 16.4228 14.2684C16.6542 14.0341 16.6192 13.7703 16.3405 13.6037C15.5345 13.1222 14.7282 12.6409 13.9225 12.159C13.8464 12.1133 13.768 12.0803 13.6604 12.0929Z" fill="#EEDC92" stroke="black" stroke-width="0.162037" stroke-miterlimit="10"/>
<path d="M4.07278 19.1309C4.50348 19.3529 4.87292 19.6672 5.27251 19.9362C5.96602 20.4038 6.64366 20.8945 7.32908 21.3744C8.09714 21.9121 8.86649 22.4478 9.63454 22.9854C9.70033 23.0314 9.76482 23.0771 9.84714 23.0859C9.84714 24.3122 9.84681 25.5381 9.84681 26.7644C9.64977 26.8023 9.47413 26.7417 9.31306 26.6377C7.68394 25.5819 6.05547 24.5244 4.42797 23.4663C4.20922 23.3244 4.06922 23.1247 4.0689 22.8593C4.0663 21.6168 4.07084 20.374 4.07278 19.1309ZM5.23848 22.2967C5.23329 22.464 5.2913 22.5751 5.42288 22.6555C5.78519 22.8775 6.14362 23.106 6.50464 23.3305C7.03061 23.6575 7.5569 23.9845 8.0845 24.3086C8.16292 24.3569 8.24427 24.4032 8.34862 24.3741C8.51616 24.3274 8.63477 24.2321 8.66718 24.0584C8.69991 23.8808 8.61371 23.7483 8.46917 23.6569C8.10427 23.4255 7.73612 23.199 7.36894 22.9705C6.85528 22.6506 6.3426 22.3295 5.82765 22.0119C5.68765 21.9254 5.53857 21.9247 5.3963 22.008C5.28223 22.0747 5.21482 22.1726 5.23848 22.2967Z" fill="#EEDC92" stroke="black" stroke-width="0.162037" stroke-miterlimit="10"/>
<path d="M20.9814 10.918C20.7325 10.8447 20.5553 10.6561 20.3485 10.5167C20.0698 10.3288 19.7635 10.1758 19.5334 9.92045C19.8637 8.97707 20.7118 8.35939 21.6837 8.35453C22.6676 8.34934 23.5471 8.9586 23.8734 9.87119C24.2001 10.7848 23.9285 11.7975 23.1935 12.4061C22.9382 12.3513 22.7609 12.1611 22.5519 12.0282C22.2622 11.8445 21.9873 11.6374 21.706 11.4407C21.7696 11.4267 21.8334 11.4144 21.8966 11.3986C22.3059 11.2952 22.5506 10.8911 22.4521 10.4817C22.3526 10.0682 21.9591 9.82128 21.5447 9.91202C21.0961 10.0105 20.8845 10.3884 20.9814 10.918Z" fill="#FFBD11" stroke="black" stroke-width="0.162037" stroke-miterlimit="10"/>
<path d="M22.0222 18.9992C23.0719 19.0034 23.8234 18.5283 24.2208 17.5597C24.5416 16.7774 24.4068 15.8453 23.7797 15.1894C23.0476 14.4236 22.1733 14.2519 21.1881 14.6171C20.921 14.7163 20.6997 14.8932 20.4845 15.0747C20.269 15.2562 20.0583 15.2672 19.9151 15.097C19.7544 14.9062 19.779 14.6641 19.9858 14.4884C20.398 14.1381 20.8559 13.8737 21.3893 13.7518C23.0755 13.3668 24.7853 14.4246 25.0941 16.1629C25.2717 17.164 25.0306 18.0708 24.3371 18.8074C23.5998 19.59 22.6701 19.9186 21.5902 19.7381C21.3647 19.7005 21.2555 19.5459 21.273 19.3444C21.2889 19.1619 21.4749 19.0015 21.6752 18.9995C21.7905 18.9983 21.9065 18.9992 22.0222 18.9992Z" fill="#EEDC92" stroke="black" stroke-width="0.162037" stroke-miterlimit="10"/>
<path d="M19.8054 18.8703C19.9544 18.902 20.1635 18.7915 20.321 18.9788C20.4214 19.0981 20.4807 19.2122 20.4133 19.3716C20.3466 19.5298 20.2438 19.6244 20.0672 19.6066C19.8559 19.5855 19.6524 19.6581 19.4424 19.6513C19.2052 19.6435 19.0243 19.4909 19.0124 19.2818C19.0004 19.0696 19.1601 18.8955 19.4019 18.8722C19.5237 18.8609 19.6479 18.8703 19.8054 18.8703Z" fill="#EEDC92" stroke="black" stroke-width="0.162037" stroke-miterlimit="10"/>
<path d="M18.317 16.3398C18.3102 16.2659 18.3151 16.1894 18.3621 16.1327C18.5183 15.9441 18.6738 15.7516 18.8909 15.6284C19.065 15.5299 19.2526 15.574 19.368 15.7325C19.4853 15.8935 19.4814 16.0588 19.3466 16.2063C19.215 16.3502 19.0737 16.485 18.934 16.6214C18.8287 16.7241 18.7062 16.7828 18.5623 16.707C18.4178 16.6305 18.2927 16.5329 18.317 16.3398Z" fill="#EEDC92" stroke="black" stroke-width="0.162037" stroke-miterlimit="10"/>
<path d="M13.6602 12.0932C13.7678 12.0806 13.8462 12.1136 13.9227 12.1593C14.7284 12.6412 15.5347 13.1225 16.3406 13.604C16.6193 13.7706 16.6543 14.0344 16.4229 14.2687C16.0567 14.6394 15.6873 15.0069 15.3172 15.3738C15.0984 15.5906 14.9614 15.6026 14.7031 15.4474C13.9295 14.982 13.1559 14.5166 12.3801 14.0548C11.9984 13.8276 11.965 13.5982 12.2855 13.2832C12.6565 12.9183 13.0341 12.5599 13.4068 12.1962C13.4836 12.1207 13.5643 12.0682 13.6602 12.0932Z" fill="#FFBD11" stroke="black" stroke-width="0.162037" stroke-miterlimit="10"/>
<path d="M20.9816 10.9182C20.8847 10.3887 21.0963 10.0108 21.5452 9.91228C21.9593 9.82154 22.3531 10.0685 22.4526 10.482C22.5511 10.8913 22.3064 11.2951 21.8971 11.3988C21.8339 11.4147 21.7701 11.427 21.7066 11.4409C21.4606 11.2731 21.1923 11.1357 20.9816 10.9182Z" fill="#FBFCFC" stroke="black" stroke-width="0.162037" stroke-miterlimit="10"/>
<path d="M5.23835 22.2968C5.2147 22.1727 5.2821 22.0751 5.39618 22.008C5.53845 21.9247 5.68752 21.9254 5.82752 22.0119C6.34247 22.3298 6.85516 22.651 7.36882 22.9705C7.73567 23.199 8.10382 23.4252 8.46905 23.6569C8.61326 23.7483 8.69979 23.8809 8.66706 24.0585C8.63497 24.2322 8.51636 24.3274 8.34849 24.3741C8.24414 24.4033 8.1628 24.3569 8.08437 24.3086C7.55646 23.9846 7.03048 23.6576 6.50451 23.3306C6.14349 23.106 5.78539 22.8775 5.42275 22.6555C5.29118 22.5748 5.23317 22.464 5.23835 22.2968Z" fill="#FFBD11" stroke="black" stroke-width="0.162037" stroke-miterlimit="10"/>
<path d="M25.5125 26.0992C25.2675 26.0992 25.0225 26.0992 24.7771 26.0992C24.7694 26.073 24.747 26.0811 24.7292 26.0794C24.5208 26.0597 24.314 26.0289 24.1095 25.9829C22.0851 25.5266 20.5415 23.8676 20.243 21.8299C20.2275 21.7242 20.2352 21.6144 20.1912 21.5136C20.1912 21.2556 20.1912 20.9976 20.1912 20.7397C20.2219 20.729 20.2087 20.7021 20.2113 20.6823C20.2258 20.5705 20.2349 20.4581 20.254 20.3469C20.431 19.3099 20.8733 18.3992 21.633 17.673C23.1338 16.2376 24.8983 15.8095 26.8603 16.5053C29.249 17.3525 30.5525 19.8631 29.9497 22.3241C29.4736 24.2685 27.8357 25.7612 25.8673 26.047C25.7494 26.0642 25.6282 26.0626 25.5125 26.0992ZM25.7448 22.7849C25.7448 22.4527 25.7471 22.1206 25.7429 21.7887C25.7419 21.7194 25.7617 21.7051 25.8281 21.7057C26.1668 21.7093 26.5051 21.7074 26.8438 21.7074C27.15 21.7074 27.4563 21.7106 27.7625 21.7064C28.1595 21.7009 28.4353 21.3476 28.3355 20.9788C28.2638 20.7141 28.0383 20.5472 27.7437 20.5469C27.1053 20.5456 26.4669 20.5456 25.8284 20.5481C25.763 20.5485 25.7419 20.5358 25.7429 20.4655C25.7471 20.1657 25.7448 19.866 25.7448 19.5659C25.7448 19.2207 25.7481 18.8759 25.7438 18.5308C25.7387 18.1072 25.3553 17.835 24.9635 17.9727C24.7321 18.0541 24.5846 18.2731 24.584 18.545C24.5827 19.1835 24.582 19.8219 24.5856 20.4603C24.5859 20.5345 24.5658 20.5494 24.4955 20.5481C24.2278 20.5436 23.9605 20.5465 23.6928 20.5465C23.3058 20.5465 22.9189 20.5436 22.532 20.5475C22.1301 20.5514 21.8514 20.9082 21.9551 21.2799C22.0287 21.5434 22.2542 21.707 22.5507 21.7074C23.1957 21.7083 23.8406 21.709 24.4851 21.7057C24.5629 21.7054 24.5863 21.72 24.5856 21.8033C24.5814 22.4482 24.584 23.0931 24.583 23.7377C24.5827 23.9678 24.6673 24.1544 24.8676 24.2734C25.2577 24.5054 25.7338 24.2332 25.7426 23.7717C25.7497 23.4425 25.7445 23.1135 25.7448 22.7849Z" fill="#800000"/>
<path d="M25.7446 22.7851C25.7446 23.114 25.7495 23.4429 25.7433 23.7715C25.7346 24.233 25.2585 24.5052 24.8683 24.2732C24.6681 24.154 24.5835 23.9673 24.5838 23.7375C24.5845 23.0926 24.5822 22.4477 24.5864 21.8031C24.587 21.7202 24.5637 21.7052 24.4859 21.7056C23.841 21.7088 23.1961 21.7082 22.5515 21.7072C22.255 21.7069 22.0295 21.5432 21.9559 21.2797C21.8522 20.9084 22.1306 20.5512 22.5327 20.5473C22.9197 20.5438 23.3066 20.5464 23.6936 20.5464C23.9613 20.5464 24.2289 20.5438 24.4963 20.548C24.5666 20.5493 24.587 20.5344 24.5864 20.4602C24.5828 19.8217 24.5835 19.1833 24.5848 18.5449C24.5854 18.2733 24.7329 18.0539 24.9643 17.9726C25.3557 17.8348 25.7395 18.1071 25.7446 18.5306C25.7488 18.8754 25.7456 19.2206 25.7456 19.5657C25.7456 19.8655 25.7482 20.1656 25.7437 20.4653C25.7427 20.5353 25.7638 20.548 25.8292 20.548C26.4676 20.5454 27.1061 20.5454 27.7445 20.5467C28.0394 20.5473 28.265 20.7139 28.3363 20.9787C28.4361 21.3475 28.1603 21.7007 27.7633 21.7062C27.457 21.7104 27.1508 21.7072 26.8445 21.7072C26.5059 21.7072 26.1676 21.7091 25.8289 21.7056C25.7628 21.7049 25.7427 21.7192 25.7437 21.7885C25.7469 22.1207 25.7446 22.4529 25.7446 22.7851Z" fill="#FEFEFE"/>
</svg>
