<?xml version="1.0" encoding="utf-8"?>
<!-- Generator: Adobe Illustrator 24.0.1, SVG Export Plug-In . SVG Version: 6.00 Build 0)  -->
<svg version="1.1" id="Layer_1" xmlns="http://www.w3.org/2000/svg" xmlns:xlink="http://www.w3.org/1999/xlink" x="0px" y="0px"
	 viewBox="0 0 1080 1080" style="enable-background:new 0 0 1080 1080;" xml:space="preserve">
<style type="text/css">
	.st0{fill:#FEBE00;}
	.st1{fill:#800000;}
	.st2{fill:#242424;}
	.st3{fill:#24C09B;}
</style>
<path class="st0" d="M537.19,165c-54.91,0-107.57,21.82-146.39,60.64c-38.82,38.82-60.64,91.48-60.64,146.39
	s21.82,107.57,60.64,146.39c38.82,38.82,91.48,60.64,146.39,60.64c54.91,0,107.57-21.82,146.39-60.64
	c38.82-38.82,60.65-91.48,60.65-146.39c-0.06-54.89-21.9-107.51-60.71-146.33C644.71,186.9,592.08,165.06,537.19,165L537.19,165z
	 M598.92,316.61h23.11c8.35,0,15.12,6.77,15.12,15.12c0,8.35-6.77,15.12-15.12,15.12h-23.09c-3.27,20.5-13.77,39.15-29.61,52.55
	c-15.85,13.41-35.97,20.69-56.73,20.51h-19.83l82.64,72.18c6.31,5.61,6.96,15.24,1.48,21.67c-2.64,3.02-6.36,4.88-10.36,5.15
	c-4,0.26-7.95-1.07-10.96-3.72l-113.12-98.45c-4.74-4.23-6.43-10.92-4.25-16.89c2.19-5.97,7.79-10,14.14-10.16h60.26
	c12.69,0.05,25.02-4.15,35.06-11.9c10.04-7.76,17.2-18.64,20.36-30.92H452.35c-8.34,0-15.12-6.77-15.12-15.12
	c0-8.35,6.77-15.12,15.12-15.12h115.64c-3.73-11.74-11.11-21.99-21.07-29.24c-9.96-7.25-21.98-11.13-34.31-11.07h-60.26
	c-8.34,0-15.12-6.77-15.12-15.12c0-8.35,6.77-15.12,15.12-15.12h169.7c8.34,0,15.12,6.77,15.12,15.12c0,8.35-6.78,15.12-15.12,15.12
	h-43.3C588.98,286.38,596.12,301.5,598.92,316.61z"/>
<path class="st1" d="M947.41,644.12c-7.78-12.22-19.62-20.76-33.35-24.08c-14.07-3.35-28.52-0.74-40.75,6.66l-5.19,3.35
	c-1.11-8.9-4.08-17.79-9.63-25.21c-9.27-12.6-22.98-20.75-38.17-22.23c-15.2-1.85-30.39,3.35-41.87,13.33l-17.43,15.58
	c-1.85-4.84-4.82-9.27-8.52-13.35c-16.3-17.79-43.72-19.64-62.27-4.08l-98.2,82.64c-1.09,1.11-1.85,2.23-2.59,3.34
	c-2.23-0.76-4.08-1.49-5.93-2.23l-44.83-25.57c-57.45-39.66-117.11-11.12-118.96-10.01l-77.45,32.24v-17.04
	c0-8.16-6.66-14.82-14.83-14.82l-188.62-0.01c-8.14,0-14.82,6.66-14.82,14.83v242.71c0,8.16,6.68,14.82,14.82,14.82h188.62
	c8.16,0,14.83-6.66,14.83-14.82v-30.01l50.76-31.88c8.16-4.82,18.53-5.17,26.68-0.36l59.66,33.73
	c23.34,13.33,50.03,20.38,77.09,20.38c8.52,0,17.04-0.74,25.19-2.23l88.19-14.45c38.17-6.31,74.48-21.87,105.62-44.47l157.86-115.62
	C955.94,698.6,961.87,668.21,947.41,644.12z M252.96,780.48c-27.05,0-48.56-21.85-48.56-48.53c0-27.06,21.51-48.91,48.56-48.91
	c26.68,0,48.53,21.85,48.53,48.91C301.49,758.63,279.64,780.48,252.96,780.48z M754.34,657.09l43.74-38.9
	c5.17-4.82,12.22-7.04,18.89-6.31c7.04,0.74,13.35,4.46,17.43,10.01c3.7,5.55,5.55,12.22,4.06,18.9
	c-1.09,6.66-4.82,12.22-10.37,15.92l-93.74,64.12c-3.35-11.48-10.39-21.49-20.02-27.78l34.82-30.4
	C751.01,660.79,752.87,658.94,754.34,657.09z M709.51,616.69c6.29-5.17,15.56-4.44,21.11,1.49c2.97,3.32,4.46,7.04,4.08,11.48
	c0,2.59-1.11,5.19-2.23,7.41l-52.24,46.32h-50.03L709.51,616.69z M915.93,691.17l-158.24,116c-27.06,20.02-59.3,33.35-92.65,38.92
	l-88.19,14.45c-28.54,4.82-57.81-0.38-83-14.83l-59.3-33.73c-17.79-9.99-39.66-9.63-57.07,1.11l-32.62,20.38V705.64l87.1-36.69
	c1.85-0.74,47.06-21.87,90.78,8.52l46.32,25.95c10.74,6.31,22.97,9.63,35.58,9.63h81.15c11.12,0,20.02,8.16,21.49,18.91
	c1.11,11.1-6.66,21.11-17.41,23.34l-26.3,5.55c-1.11,0.38-91.54,38.92-166.4,0.38c-7.41-3.7-16.3-1.11-20,6.31
	c-3.72,7.41-1.11,16.3,6.29,20c87.84,45.21,187.89,2.23,189,1.11l23.34-4.44c14.09-2.6,25.57-11.86,32.98-23.72l116.37-79.3
	c1.85-1.11,2.97-3.34,4.82-5.19c0.74,0,1.11-0.38,1.47-0.38l37.81-23.72c5.17-3.32,11.86-4.44,17.79-2.97
	c6.29,1.49,11.48,5.19,14.82,10.75C928.52,670.44,925.91,683.77,915.93,691.17z"/>
<path class="st2" d="M271.86,731.97c0,10.44-8.46,18.9-18.9,18.9c-10.44,0-18.91-8.46-18.91-18.9c0-10.44,8.47-18.9,18.91-18.9
	C263.39,713.07,271.86,721.53,271.86,731.97z"/>
<path class="st3" d="M667.93,488.56l181.35-139.15c5.64-4.32,12.28-5.96,19.92-4.91c7.65,1.05,13.6,4.42,17.86,10.1
	c4.26,5.68,5.86,12.39,4.8,20.12c-1.06,7.73-4.41,13.76-10.05,18.08L678.95,548.47c-6.15,4.72-12.82,6.58-20.02,5.59
	c-7.2-0.99-13.12-4.58-17.77-10.78l-60.41-80.6c-4.26-5.68-5.86-12.39-4.8-20.12c1.06-7.73,4.41-13.76,10.05-18.08
	c5.64-4.32,12.28-5.96,19.92-4.91c7.65,1.05,13.6,4.42,17.86,10.1L667.93,488.56z"/>
</svg>
