<svg width="48" height="48" viewBox="0 0 48 48" fill="none" xmlns="http://www.w3.org/2000/svg">
<path d="M24 4.5C20.1433 4.5 16.3731 5.64366 13.1664 7.78634C9.95962 9.92903 7.46026 12.9745 5.98435 16.5377C4.50844 20.1008 4.12228 24.0216 4.87469 27.8043C5.6271 31.5869 7.4843 35.0615 10.2114 37.7886C12.9385 40.5157 16.4131 42.3729 20.1957 43.1253C23.9784 43.8777 27.8992 43.4916 31.4623 42.0157C35.0255 40.5397 38.071 38.0404 40.2137 34.8336C42.3563 31.6269 43.5 27.8567 43.5 24C43.4901 18.8313 41.4325 13.8772 37.7776 10.2224C34.1228 6.56755 29.1687 4.50991 24 4.5V4.5ZM32.8875 24.5813C32.8057 24.763 32.6913 24.9282 32.55 25.0688L26.1938 31.425C26.0576 31.565 25.8942 31.6755 25.7135 31.7497C25.5329 31.8239 25.339 31.8601 25.1438 31.8563C24.9457 31.8605 24.7488 31.8245 24.5651 31.7503C24.3814 31.6762 24.2146 31.5655 24.075 31.425C23.7945 31.1438 23.6369 30.7628 23.6369 30.3656C23.6369 29.9684 23.7945 29.5875 24.075 29.3063L27.8813 25.5H16.5C16.1022 25.5 15.7206 25.342 15.4393 25.0607C15.158 24.7794 15 24.3978 15 24C15 23.6022 15.158 23.2206 15.4393 22.9393C15.7206 22.658 16.1022 22.5 16.5 22.5H27.8813L24.075 18.6938C23.8165 18.4084 23.6776 18.0346 23.687 17.6497C23.6965 17.2647 23.8536 16.8982 24.1259 16.6259C24.3982 16.3536 24.7647 16.1965 25.1497 16.187C25.5346 16.1776 25.9084 16.3165 26.1938 16.575L32.55 22.9313C32.6913 23.0718 32.8057 23.237 32.8875 23.4188C33.0377 23.7917 33.0377 24.2083 32.8875 24.5813V24.5813Z" fill="#CCCCCC"/>
</svg>
