<svg width="48" height="48" viewBox="0 0 48 48" fill="none" xmlns="http://www.w3.org/2000/svg">
<g id="ph:arrow-circle-right-fill">
<path id="Vector" d="M24 4.5C27.8567 4.5 31.6269 5.64366 34.8336 7.78634C38.0404 9.92903 40.5397 12.9745 42.0156 16.5377C43.4916 20.1008 43.8777 24.0216 43.1253 27.8043C42.3729 31.5869 40.5157 35.0615 37.7886 37.7886C35.0615 40.5157 31.5869 42.3729 27.8043 43.1253C24.0216 43.8777 20.1008 43.4916 16.5377 42.0157C12.9745 40.5397 9.92903 38.0404 7.78634 34.8336C5.64365 31.6269 4.5 27.8567 4.5 24C4.50991 18.8313 6.56755 13.8772 10.2224 10.2224C13.8772 6.56755 18.8313 4.50991 24 4.5V4.5ZM15.1125 24.5813C15.1943 24.763 15.3087 24.9282 15.45 25.0688L21.8062 31.425C21.9424 31.565 22.1058 31.6755 22.2865 31.7497C22.4671 31.8239 22.661 31.8601 22.8562 31.8563C23.0543 31.8605 23.2512 31.8245 23.4349 31.7503C23.6186 31.6762 23.7854 31.5655 23.925 31.425C24.2055 31.1438 24.3631 30.7628 24.3631 30.3656C24.3631 29.9684 24.2055 29.5875 23.925 29.3063L20.1187 25.5H31.5C31.8978 25.5 32.2794 25.342 32.5607 25.0607C32.842 24.7794 33 24.3978 33 24C33 23.6022 32.842 23.2206 32.5607 22.9393C32.2794 22.658 31.8978 22.5 31.5 22.5H20.1187L23.925 18.6938C24.1835 18.4084 24.3224 18.0346 24.313 17.6497C24.3035 17.2647 24.1464 16.8982 23.8741 16.6259C23.6018 16.3536 23.2353 16.1965 22.8503 16.187C22.4654 16.1776 22.0916 16.3165 21.8062 16.575L15.45 22.9313C15.3087 23.0718 15.1943 23.237 15.1125 23.4188C14.9623 23.7917 14.9623 24.2083 15.1125 24.5813V24.5813Z" fill="#CCCCCC"/>
</g>
</svg>
