<?xml version="1.0" encoding="utf-8"?>
<!-- Generator: Adobe Illustrator 24.0.1, SVG Export Plug-In . SVG Version: 6.00 Build 0)  -->
<svg version="1.1" id="Layer_1" xmlns="http://www.w3.org/2000/svg" xmlns:xlink="http://www.w3.org/1999/xlink" x="0px" y="0px"
	 viewBox="0 0 1080 1080" style="enable-background:new 0 0 1080 1080;" xml:space="preserve">
<style type="text/css">
	.st0{fill:#FFBD11;}
	.st1{fill:#800000;}
	.st2{fill:#24C09B;}
</style>
<g>
	<path class="st0" d="M506.23,137.15c10.74,5.17,20.22,11.55,24.35,23.63c6.17,18.08-2.51,37-20.5,44.26
		c-17.22,6.95-36.91-0.97-44.71-18c-7.78-16.97-1.06-36.92,15.42-45.73c2.7-1.44,5.45-2.78,8.18-4.16
		C494.72,137.15,500.47,137.15,506.23,137.15z"/>
	<path class="st0" d="M496.75,649.21c-19.74-0.56-39.17-2.33-57.82-9.2c-4.71-1.73-9.12-3.95-13.19-6.81
		c-7.37-5.17-11.36-11.95-10.48-21.33c2-21.26,6.83-41.25,23.44-56.44c11.82-10.82,25.94-16.23,41.6-18.33
		c17.33-2.32,34.52-1.9,51.06,4.09c29.61,10.72,43.81,33.46,47,63.6c2.2,20.75-2.16,27.14-21.71,34.81
		C537.39,647.17,517.09,648.65,496.75,649.21z"/>
	<path class="st0" d="M497.53,829.26c18.41-0.14,35.9,3.25,51.29,14.05c18.43,12.94,27.03,31.63,29.44,53.19
		c2.45,22.01-2.47,29.64-23.87,36.17c-38.2,11.66-76.63,11.61-114.86-0.35c-4.2-1.32-8.39-3.15-12.09-5.5
		c-8.18-5.19-13.35-11.93-12.23-22.67c2.75-26.29,10.46-49.68,34.85-64.04C464.7,831.47,480.93,829.3,497.53,829.26z"/>
	<path class="st0" d="M495.57,244c29.3,1.11,54.31,7.91,70.7,32.88c9.51,14.48,12.54,30.92,13.13,47.74
		c0.29,8.27-5.51,13.75-12.45,17.75c-13.91,8.03-29.36,11.19-44.94,12.54c-26.34,2.28-52.71,2.13-78.4-5.74
		c-5.26-1.61-10.31-3.66-15.12-6.37c-9.89-5.56-14.83-13.5-13.11-25.2c1.52-10.35,3.14-20.63,7.2-30.37
		c10.52-25.24,30.72-37.32,56.59-41.57C485.08,244.7,491.1,244.44,495.57,244z"/>
	<path d="M774.03,627.04c-33.23,0-66.47-0.03-99.7,0.04c-3.71,0.01-7.41-0.11-10.74-1.71c-5.38-2.58-8.19-6.9-8.29-13.09
		c-0.09-5.92,3.55-9.11,8.01-11.5c3.23-1.73,6.97-1.84,10.7-1.84c67.25,0.06,134.51,0.06,201.76,0.01c3.45,0,6.83,0.21,9.97,1.63
		c5.16,2.35,8.24,6.34,8.39,12.16c0.15,5.92-2.86,9.93-8.16,12.18c-3.88,1.65-7.97,2.18-12.24,2.16
		C840.5,627,807.26,627.04,774.03,627.04z"/>
	<path d="M773.91,333.43c-34.01,0-68.02-0.1-102.04,0.08c-7.74,0.04-13.53-3-16.11-9.97c-3.24-8.74,3.67-16.76,13.97-16.79
		c31.66-0.09,63.31-0.04,94.97-0.04c37.67,0,75.35-0.01,113.02,0.01c9.51,0,16.44,5.44,16.43,12.81
		c-0.01,8.12-6.59,13.84-16.64,13.87C842.98,333.49,808.44,333.43,773.91,333.43z"/>
	<path d="M774.83,891.02c33.47,0,66.95,0,100.42,0c2.09,0,4.21-0.17,6.27,0.07c6.94,0.8,12.54,6.99,12.64,13.78
		c0.09,6.85-4.57,11.76-12.3,12.75c-2.06,0.26-4.18,0.1-6.27,0.1c-67.21,0-134.41,0-201.62,0c-0.52,0-1.05,0-1.57,0
		c-10.31-0.06-16.94-5.2-17.02-13.18c-0.08-8.12,6.47-13.48,16.69-13.51c13.34-0.04,26.67-0.01,40.01-0.01
		C732.99,891.02,753.91,891.02,774.83,891.02z"/>
	<path d="M745.77,839.19c24.56,0,49.14,0.46,73.69-0.19c12.91-0.34,17.65,7.55,17.96,14.18c0.34,7.31-7.33,12.7-17.49,12.7
		c-49.65,0.01-99.3-0.02-148.95,0.03c-6.6,0.01-12.71-1.06-15.98-7.5c-4.85-9.56,2.03-19.11,13.95-19.18
		C694.55,839.09,720.16,839.19,745.77,839.19z"/>
	<path d="M745.74,254.86c25.12,0,50.24-0.01,75.36,0c8.71,0.01,16.01,5.48,16.4,12.21c0.45,7.7-6.88,14.41-16.4,14.46
		c-23.55,0.13-47.1,0.05-70.65,0.05c-26.95,0-53.9,0.03-80.85-0.02c-7.64-0.02-14.44-4.69-15.69-10.49
		c-1.94-9.05,4.07-16.13,14.11-16.17C693.93,254.8,719.84,254.86,745.74,254.86z"/>
	<path d="M745.01,573.87c-25.12,0-50.24,0.02-75.36-0.01c-10.55-0.01-15.78-4.35-15.87-13.01c-0.08-7.95,6.31-13.67,15.77-13.68
		c50.5-0.06,101-0.04,151.5-0.01c7.54,0.01,12.94,3.31,15.67,10.63c2.3,6.18-1.58,9.77-5.26,13.58c-2.72,2.82-6.15,2.48-9.53,2.48
		C796.3,573.87,770.65,573.87,745.01,573.87z"/>
	<path class="st0" d="M497.75,792.08c-19.88,0.08-35.43-15.21-35.5-34.9c-0.07-19.44,15.77-35.52,35.09-35.6
		c18.67-0.08,35.05,16.02,35.4,34.79C533.1,775.56,516.99,792,497.75,792.08z"/>
	<path class="st0" d="M497.21,498.63c-19.75-0.02-34.88-14.99-34.96-34.58c-0.07-20.01,15.11-35.09,35.28-35.03
		c19.5,0.06,35.04,15.32,35.2,34.55C532.89,483.09,517.11,498.65,497.21,498.63z"/>
</g>
<g>
	<path class="st1" d="M341.6,245.5c0,45.01-36.02,81.5-80.47,81.5s-80.47-36.49-80.47-81.5s36.02-81.5,80.47-81.5
		S341.6,200.49,341.6,245.5z"/>
	<path class="st2" d="M260.19,252.07l81.39-63.25c2.53-1.97,5.51-2.71,8.95-2.23c3.43,0.47,6.1,2.01,8.01,4.59
		c1.91,2.58,2.63,5.63,2.15,9.15c-0.47,3.52-1.98,6.26-4.51,8.22l-91.05,70.76c-2.76,2.14-5.75,2.99-8.98,2.54
		c-3.23-0.45-5.89-2.08-7.98-4.9l-27.12-36.64c-1.91-2.58-2.63-5.63-2.15-9.15c0.47-3.52,1.98-6.26,4.51-8.22
		c2.53-1.97,5.51-2.71,8.94-2.23c3.43,0.47,6.1,2.01,8.01,4.59L260.19,252.07z"/>
</g>
<g>
	<path class="st1" d="M344.68,540c0,45.01-36.02,81.5-80.47,81.5s-80.47-36.49-80.47-81.5s36.02-81.5,80.47-81.5
		S344.68,494.99,344.68,540z"/>
	<path class="st2" d="M263.27,546.58l81.39-63.25c2.53-1.97,5.51-2.71,8.95-2.23c3.43,0.47,6.1,2.01,8.01,4.59
		c1.91,2.58,2.63,5.63,2.15,9.15c-0.47,3.52-1.98,6.26-4.51,8.22l-91.05,70.76c-2.76,2.14-5.75,2.99-8.98,2.54s-5.89-2.08-7.98-4.9
		l-27.12-36.64c-1.91-2.58-2.63-5.63-2.15-9.15c0.47-3.52,1.98-6.26,4.51-8.22c2.53-1.97,5.51-2.71,8.94-2.23
		c3.43,0.47,6.1,2.01,8.01,4.59L263.27,546.58z"/>
</g>
<g>
	<path class="st1" d="M344.68,830c0,45.01-36.02,81.5-80.47,81.5s-80.47-36.49-80.47-81.5s36.02-81.5,80.47-81.5
		S344.68,784.99,344.68,830z"/>
	<path class="st2" d="M263.27,836.58l81.39-63.25c2.53-1.97,5.51-2.71,8.95-2.23c3.43,0.47,6.1,2.01,8.01,4.59
		c1.91,2.58,2.63,5.63,2.15,9.15c-0.47,3.52-1.98,6.26-4.51,8.22l-91.05,70.76c-2.76,2.14-5.75,2.99-8.98,2.54s-5.89-2.08-7.98-4.9
		l-27.12-36.64c-1.91-2.58-2.63-5.63-2.15-9.15c0.47-3.52,1.98-6.26,4.51-8.22c2.53-1.97,5.51-2.71,8.94-2.23
		c3.43,0.47,6.1,2.01,8.01,4.59L263.27,836.58z"/>
</g>
</svg>
