<?xml version="1.0" encoding="utf-8"?>
<!-- Generator: Adobe Illustrator 24.0.1, SVG Export Plug-In . SVG Version: 6.00 Build 0)  -->
<svg version="1.1" id="Layer_1" xmlns="http://www.w3.org/2000/svg" xmlns:xlink="http://www.w3.org/1999/xlink" x="0px" y="0px"
	 viewBox="0 0 1080 1080" style="enable-background:new 0 0 1080 1080;" xml:space="preserve">
<style type="text/css">
	.st0{fill:#800000;stroke:#000000;stroke-width:10;stroke-miterlimit:10;}
	.st1{fill:#EEDC92;stroke:#000000;stroke-width:10;stroke-miterlimit:10;}
	.st2{fill:#010101;stroke:#000000;stroke-width:10;stroke-miterlimit:10;}
	.st3{fill:#FFBD11;stroke:#000000;stroke-width:10;stroke-miterlimit:10;}
	.st4{fill:#FBFBFB;stroke:#000000;stroke-width:10;stroke-miterlimit:10;}
</style>
<g>
	<path class="st0" d="M113.39,260.58c14.54-41.86,43.82-60.69,87.99-56.63c15.29,1.41,36.19-6.73,44.45,3.14
		c7.74,9.25,2.57,29.41,2.85,44.77c0.21,11.79-0.31,23.6,0.12,35.38c1.85,49.89,39.8,85.77,89.49,84.85
		c48.9-0.9,84.68-37.11,85.29-86.62c0.28-22.97,0.49-45.95-0.15-68.91c-0.27-9.59,2.36-12.93,12.35-12.79
		c36.01,0.53,72.03,0.46,108.04,0.03c9.08-0.11,11.61,2.91,11.48,11.77c-0.39,26.06-1.03,52.2,0.54,78.19
		c2.52,41.83,33.37,72.41,76.42,77.91c38.73,4.95,78.77-18.71,92.43-54.4c6.41-16.74,4.5-34.2,5.3-51.48
		c0.93-20.25-8.86-47.37,3.88-58.74c11.2-10,37.84-3.06,57.66-3c48.58,0.13,76.58,28.17,76.84,77.8
		c0.39,72.63,0.21,145.27-0.14,217.91c-0.02,4.88,4.4,15.62-4.86,13.98c-8.89-1.57-24.41,1.5-24.29-16.06
		c0.16-23.59-0.8-47.22,0.35-70.76c0.7-14.24-2.88-18.88-18.06-18.67c-65.81,0.92-131.63,0.39-197.45,0.39
		c-153.99,0-307.98,0.27-461.97-0.41c-15.82-0.07-19.01,4.16-18.93,19.35c0.67,127.27,0.37,254.54,0.38,381.81
		c0,46.76,20.92,67.5,68.36,67.53c99.35,0.06,198.71,0.95,298.04-0.66c23.71-0.39,36.67,6.69,42.78,30.55c-6.37,0-12.33,0-18.29,0
		c-111.15,0-222.29,0.01-333.44,0c-51.05-0.01-68.79-11.72-87.43-57.63C113.39,652.98,113.39,456.78,113.39,260.58z"/>
	<path class="st0" d="M754.26,953.49c-8.41-7.3-19.39-5.63-29.14-8.21c-87.33-23.09-143.09-101.93-139.07-196.94
		c3.56-84.11,69.97-157.47,155.67-171.95c101.99-17.23,202.59,52.06,217.54,149.85c17.24,112.73-52.96,209.38-162.33,223.56
		c-3.32,0.43-7.71-1.52-9.14,3.69C776.62,953.49,765.44,953.49,754.26,953.49z M773.15,908.69c81,0.17,146.33-64.43,147.38-145.75
		c1.03-79.3-65.97-147.16-145.85-147.74c-79.99-0.58-146.89,66-146.98,146.27C627.61,842.87,692.47,908.52,773.15,908.69z"/>
	<path class="st1" d="M495.21,599.98c-15.48,0-30.96-0.2-46.44,0.06c-10.8,0.18-15.93-4.4-15.83-15.47
		c0.24-26,0.24-52.01-0.01-78.01c-0.1-10.8,4.25-15.87,15.41-15.77c31.58,0.27,63.16,0.29,94.74,0
		c12.21-0.11,16.56,6.28,16.58,17.26c0.04,24.76,0,49.53,0.02,74.29c0.01,12.06-5.18,18.22-18.03,17.76
		C526.19,599.57,510.69,599.99,495.21,599.98z"/>
	<path class="st1" d="M292.19,779.63c-16.13,0-32.25-0.01-48.38,0.01c-10.64,0.01-15.65-4.62-15.44-15.89
		c0.47-25.42,0.44-50.85,0.02-76.27c-0.21-13,5.88-17.49,18.17-17.35c30.39,0.34,60.79,0.29,91.18,0.03
		c12.59-0.11,17.98,5.7,17.88,18.01c-0.2,24.8-0.22,49.61,0.01,74.42c0.11,11.75-5.58,17.04-16.93,17.04
		C323.2,779.63,307.69,779.63,292.19,779.63z"/>
	<path class="st2" d="M370.55,226.89c0,19.82,0.25,39.65-0.07,59.47c-0.32,19.85-14.16,32.45-34.88,32.42
		c-19.67-0.03-32.44-12.35-32.53-32.11c-0.18-40.88-0.2-81.77,0.01-122.66c0.1-20.2,11.75-30.68,33.22-30.72
		c21.23-0.04,33.69,10.66,34.14,30.41C370.92,184.76,370.55,205.83,370.55,226.89z"/>
	<path class="st2" d="M608.78,224.32c0-19.87-0.15-39.74,0.04-59.6c0.2-20.49,11.43-31.1,32.77-31.4
		c21.45-0.3,34.32,10.28,34.51,29.84c0.4,41.59,0.36,83.2,0.02,124.79c-0.15,18.11-13.72,30.04-32.85,30.15
		c-20.73,0.13-34.09-11.39-34.41-30.46C608.5,266.55,608.78,245.43,608.78,224.32z"/>
	<path class="st1" d="M527.46,670.29c-11.55,33.5-17.31,66.19-15.51,99.89c0.38,7.06-1.42,9.87-9.02,9.66
		c-17.97-0.49-35.96-0.23-53.95-0.16c-10.43,0.04-16.19-4.05-16.06-15.41c0.29-26.04,0.18-52.08,0.05-78.12
		c-0.05-9.52,3.41-15.76,13.72-15.81C473.15,670.2,499.61,670.29,527.46,670.29z"/>
	<path class="st3" d="M364.1,520.07c-3.88,4.84-6.24,8.47-9.25,11.44c-24.27,23.89-48.82,47.5-72.93,71.55
		c-6.27,6.25-10.9,8.39-18,0.87c-14.45-15.3-29.43-30.13-44.68-44.63c-6.54-6.22-6.55-11.02,0.14-16.64
		c2.83-2.38,5.15-5.35,7.77-7.98c18.31-18.34,14.29-21.34,35.07-0.61c7.97,7.95,12.88,10.45,21.38,0.39
		c11.56-13.68,25.51-25.31,37.34-38.79c7.87-8.96,13.38-8.21,20.52,0.25C348.49,504.27,356.37,511.89,364.1,520.07z"/>
	<path class="st1" d="M638.72,537.4c-2.76-56.88-2.01-45.53,39.66-46.46c20.99-0.47,42.01-0.24,63.01,0.01
		c6.51,0.08,13.77-2.05,21.54,7.31C718.68,503.6,677.28,512.73,638.72,537.4z"/>
	<path class="st4" d="M773.15,908.69c-80.68-0.17-145.54-65.82-145.45-147.22c0.09-80.27,66.99-146.84,146.98-146.27
		c79.88,0.58,146.87,68.44,145.85,147.74C919.48,844.26,854.15,908.86,773.15,908.69z M739.91,734.47c0,18.61,0.48,37.23-0.21,55.82
		c-0.34,9.11,2.67,11.61,11.53,11.5c34.11-0.44,68.25-0.8,102.35,0.11c14.88,0.4,13.98-8.19,13.52-17.83
		c-0.45-9.4,3.13-20.91-13.45-20.37c-19.83,0.65-39.74-0.59-59.54,0.42c-12.61,0.64-17.45-2.54-16.74-16.09
		c1.17-22.27-0.2-44.66,0.5-66.96c0.43-13.7-7.12-15.01-17.71-14.54c-9.94,0.44-20.75-1.82-20.35,13.99
		C740.27,698.49,739.92,716.48,739.91,734.47z"/>
	<path class="st3" d="M739.91,734.47c0-17.99,0.35-35.98-0.1-53.96c-0.4-15.8,10.42-13.55,20.35-13.99
		c10.6-0.47,18.15,0.84,17.71,14.54c-0.7,22.31,0.66,44.7-0.5,66.96c-0.71,13.55,4.14,16.73,16.74,16.09
		c19.8-1,39.71,0.23,59.54-0.42c16.58-0.54,13,10.97,13.45,20.37c0.46,9.64,1.36,18.23-13.52,17.83
		c-34.1-0.91-68.23-0.55-102.35-0.11c-8.85,0.11-11.86-2.39-11.53-11.5C740.39,771.7,739.91,753.08,739.91,734.47z"/>
</g>
</svg>
