<svg width="40" height="40" viewBox="0 0 40 40" fill="none" xmlns="http://www.w3.org/2000/svg">
<g id="ant-design:audio-filled">
<path id="Vector" d="M19.8214 23.3341C22.6161 23.3341 24.881 21.096 24.881 18.3341V11.6674C24.881 8.90551 22.6161 6.66742 19.8214 6.66742C17.0268 6.66742 14.7619 8.90551 14.7619 11.6674V18.3341C14.7619 21.096 17.0268 23.3341 19.8214 23.3341ZM29.6429 18.2746C29.6429 18.1436 29.5357 18.0365 29.4048 18.0365H27.619C27.4881 18.0365 27.381 18.1436 27.381 18.2746C27.381 22.4502 23.997 25.8341 19.8214 25.8341C15.6458 25.8341 12.2619 22.4502 12.2619 18.2746C12.2619 18.1436 12.1548 18.0365 12.0238 18.0365H10.2381C10.1071 18.0365 10 18.1436 10 18.2746C10 23.2954 13.7679 27.4383 18.631 28.0246V31.0722H14.3065C13.8988 31.0722 13.5714 31.4978 13.5714 32.0246V33.096C13.5714 33.2269 13.6548 33.3341 13.756 33.3341H25.8869C25.9881 33.3341 26.0714 33.2269 26.0714 33.096V32.0246C26.0714 31.4978 25.744 31.0722 25.3363 31.0722H20.8929V28.0394C25.8125 27.5037 29.6429 23.3371 29.6429 18.2746Z" fill="#800000"/>
</g>
</svg>
