<?xml version="1.0" encoding="utf-8"?>
<!-- Generator: Adobe Illustrator 24.0.1, SVG Export Plug-In . SVG Version: 6.00 Build 0)  -->
<svg version="1.1" id="Layer_1" xmlns="http://www.w3.org/2000/svg" xmlns:xlink="http://www.w3.org/1999/xlink" x="0px" y="0px"
	 viewBox="0 0 1080 1080" style="enable-background:new 0 0 1080 1080;" xml:space="preserve">
<style type="text/css">
	.st0{fill:#EEDC92;}
	.st1{fill:#010101;}
	.st2{fill:#800000;}
	.st3{fill:#FFBD11;}
	.st4{fill:#020303;}
	.st5{fill:#050505;}
</style>
<g>
	<path d="M593.82,730.07c-0.06,61.86-0.12,123.71-0.19,185.57c-0.03,29.51-16.31,45.87-45.69,45.87
		c-50.79,0.01-101.58-0.07-152.37,0.09c-6.43,0.02-12.45-0.73-17.84-4.27c-29.7-19.48-62.01-25.07-97.45-23.62
		c-51.84,2.13-103.83,0.43-155.75,0.7c-6.24,0.03-8.96-1.29-7.78-7.78c0.3-1.65,0.05-3.4,0.05-5.1c0-14.16,0-14.16,13.53-14.77
		c47.92,0.08,95.83,0.1,143.75,0.33c4.71,0.02,6.32-1.17,6.3-6.12c-0.17-50.48-0.17-100.96,0-151.43c0.02-4.95-1.59-6.14-6.3-6.12
		c-47.92,0.23-95.83,0.25-143.75,0.33c-13.53-0.61-13.53-0.61-13.53-14.78c0-12.72,0-12.72,12.85-12.72
		c24.69,0,49.39-0.32,74.07,0.2c7.26,0.15,8.61-1.91,8.61-8.82c-0.21-189.89-0.17-379.79-0.17-569.68c0-17.96,3.26-21.2,21.31-21.2
		c167.74,0,335.48,0.06,503.22-0.15c8.96-0.01,15.33,2.72,21.62,9.12c33.03,33.59,66.42,66.84,99.94,99.96
		c5.46,5.39,7.99,10.96,7.97,18.68c-0.18,93.67-0.12,187.34-0.12,281.01c0,13.49,0,13.49-13.45,13.95
		c-13.8-0.48-13.8-0.48-13.8-14.09c0-87.97-0.08-175.93,0.15-263.9c0.02-6.73-1.8-8.57-8.5-8.48c-27.52,0.37-55.04,0.17-82.57,0.15
		c-13.84-0.01-18.07-4.33-18.07-18.44c-0.02-27.81-0.14-55.62,0.11-83.42c0.05-5.47-1.4-7.41-7.1-7.25
		c-15.31,0.45-30.63,0.32-45.94,0.42c-2.83-0.1-5.66-0.29-8.49-0.29c-139.85-0.01-279.7,0.06-419.54-0.2
		c-7.78-0.01-9.68,1.98-9.66,9.7c0.24,155.75,0.18,311.49,0.19,467.24c0,2.83,0.18,5.66,0.27,8.49c-0.09,26.89-0.04,53.78-0.4,80.66
		c-0.07,5.59,2.22,6.44,7.02,6.41c25.76-0.18,51.52-0.17,77.28,0c4.06,0.03,6.87-1.36,9.63-4.16c12.71-12.91,25.54-25.7,38.41-38.45
		c2.51-2.49,4.19-4.95,4.09-8.8c-0.31-11.88-0.25-23.77-0.33-35.65c0.09-11.58,0.03-23.16,0.32-34.74
		c0.22-9.06,5.28-13.84,14.21-14.55c26.36-2.12,47.85,5.81,61.87,29.49c4.99,11.39,5.92,23.35,5.7,35.66
		c-0.37,20.94,0.18,41.89-0.26,62.83c-0.14,6.76,1.86,8.5,8.5,8.44c37.07-0.31,74.15-0.18,111.23-0.13
		C587.74,716.3,591.36,719.36,593.82,730.07z M473.22,934.27c24.12,0,48.23,0,72.35,0c17.28,0,20.89-3.89,20.98-20.88
		c0.03-5.39-1.54-6.54-6.67-6.49c-27.52,0.26-55.04,0.12-82.56,0.12c-20.16,0-19.85,0-20.1-20.21c-0.08-6.36,2.16-7.23,7.73-7.17
		c27.23,0.28,54.47,0.13,81.71,0.13c20.02,0,19.79,0,19.88-20.4c0.02-5.61-1.53-7.03-7.05-6.97c-27.23,0.28-54.47,0.13-81.71,0.13
		c-20.73,0-20.45,0-20.55-20.6c-0.03-5.96,2.08-6.8,7.26-6.76c27.23,0.22,54.47,0.1,81.71,0.1c20.59,0,20.38,0,20.33-20.79
		c-0.01-5.23-1.29-6.64-6.58-6.59c-27.23,0.28-54.47,0.13-81.71,0.13c-21.33,0-21.08,0-21.01-20.99c0.02-5.57,1.86-6.41,6.79-6.37
		c27.8,0.22,55.61,0.11,83.41,0.11c19.06,0,18.77-0.01,19.12-19.47c0.11-6.29-1.37-8.01-7.84-7.94
		c-36.88,0.35-73.76,0.19-110.64,0.16c-13.4-0.01-17.89-4.47-17.91-17.8c-0.03-30.08,0.07-60.15-0.05-90.23
		c-0.06-13.68-8.57-24.39-20.96-27.57c-4.79-1.23-6.44-0.31-6.36,4.99c0.28,18.72-0.2,37.46,0.25,56.17
		c0.2,8.3-2.18,14.59-8.26,20.32c-11.56,10.89-23.38,21.68-33.6,33.78c-12.78,15.14-27.15,24.32-47.67,20.36
		c-4.83-0.93-6.1,1.27-6.09,6.03c0.16,50.5,0.17,101.01-0.01,151.51c-0.02,4.94,1.54,6.62,6.22,5.94
		c18.03-2.61,33.9,3.28,49.15,12.18c7.32,4.27,15.19,7.6,22.66,11.63c4.61,2.49,9.28,3.56,14.56,3.51
		C424.42,934.15,448.82,934.27,473.22,934.27z M757.15,165.86c0,18.51,0.05,37.38-0.04,56.25c-0.02,3.97,2.56,3.66,5.14,3.66
		c9.64,0,19.29,0,28.93,0c8.84,0,17.67,0,25.85,0C796.88,205.61,777.13,185.85,757.15,165.86z"/>
	<path class="st0" d="M676.94,144.33c15.32-0.1,30.64,0.03,45.94-0.42c5.69-0.17,7.14,1.77,7.1,7.25
		c-0.24,27.81-0.12,55.62-0.11,83.42c0.01,14.11,4.23,18.43,18.07,18.44c27.52,0.02,55.05,0.22,82.57-0.15
		c6.7-0.09,8.51,1.75,8.5,8.48c-0.23,87.97-0.15,175.93-0.15,263.9c0,13.61,0,13.61,13.8,14.09c-0.18,13.06-0.37,26.12-0.55,39.17
		c-18.94-20.12-41.46-30.12-69.4-23.95c-44.08,9.73-63.78,59.97-47.59,94.34c12.02,25.51,19.85,52.28,20.46,80.78
		c-48.25,0.07-96.49,0.14-144.74,0.22c-5.67,0.01-11.35,0.11-17.02,0.17c-2.46-10.71-6.08-13.77-16.86-13.78
		c-37.08-0.05-74.15-0.18-111.23,0.13c-6.64,0.06-8.65-1.67-8.5-8.44c0.44-20.94-0.1-41.89,0.26-62.83
		c0.22-12.31-0.71-24.26-5.7-35.66c13.07-4.54,25.88-9.72,38.29-15.87c35.81,31.13,76.67,45.41,124.52,39.46
		c67.96-8.45,125.84-70.21,128.74-138.69c2.18-51.58-16.82-93.84-56.22-127.04c1.95-0.87,2.93-2.4,3.45-4.45
		c4.61-18.15,8.24-36.48,10.25-55.11c3.89-8.93,0.83-18.31,1.78-27.43c0-9.11,0-18.23,0-27.34c0.01-7.06,0.05-14.13,0-21.19
		c-0.02-2.7,0.78-5.95-3.5-6.32c-1.7-8.91-3.4-17.82-5.1-26.73c7.84,1.19,8.93-2.92,8.77-9.69c-0.42-17.34-0.12-17.35-17.26-18.01
		C684.59,161.54,678.97,153.51,676.94,144.33z"/>
	<path class="st1" d="M755.58,729.68c-0.6-28.5-8.44-55.27-20.46-80.78c-16.19-34.37,3.51-84.61,47.59-94.34
		c27.94-6.16,50.45,3.83,69.4,23.95c10.05,15.32,14.91,31.93,14.25,50.46c-0.28,7.77-3.12,14.16-5.97,20.89
		c-2.86,6.73-5.4,13.6-8.08,20.41c-7,19.19-11.97,38.79-11.91,59.4c-2.99,12.54-0.84,25.29-1.54,37.93
		c-0.2,3.64,2.29,3.17,4.53,3.17c7.38,0,14.75-0.08,22.13,0.02c23.74,0.32,41.09,17.73,41.47,41.52c0,0.28,0,0.57,0.01,0.85
		c0.12,12.02,0.12,12.02,11.73,12.11c25.37,0.19,42.56,17.39,42.75,42.81c0.06,7.38,0.06,14.75,0,22.13
		c-0.1,11.77-4.85,16.63-16.33,16.82c-10.91,0.18-10.91,0.18-10.91,11.23c0,9.36,0.14,18.73-0.04,28.08
		c-0.19,9.95-5.32,15.14-15.38,15.15c-80.56,0.07-161.12,0.07-241.68,0c-10.06-0.01-15.19-5.2-15.35-15.16
		c-0.17-10.21-0.5-20.45,0.12-30.63c0.42-6.85-1.2-10.16-8.54-8.69c-0.82,0.16-1.7,0.03-2.55,0.02
		c-11.19-0.18-16.16-4.99-16.3-15.97c-0.11-8.23-0.13-16.45,0.01-24.68c0.37-23.22,17.82-40.66,41.02-41.1
		c13.26-0.25,13.26-0.25,13.45-12.96c0.35-23.77,17.72-41.2,41.46-41.53c6.81-0.09,13.63-0.26,20.42,0.07
		c4.45,0.21,6.76-0.53,6.33-5.8C756.24,753.29,758.61,741.36,755.58,729.68z M798.4,770.77c13.22,0,13.46-0.01,13.18-13.42
		c-0.87-41.12,6.22-80.66,23.72-117.99c4.81-10.26,4.61-20.36,1.62-30.53c-6.55-22.36-31.07-34.18-53.04-26.26
		c-22.09,7.96-33,34.87-23.72,55.11c17.3,37.72,25.07,77.35,24.25,118.78C784.13,770.77,784.37,770.77,798.4,770.77z M797.97,879.77
		c22.69,0,45.37,0,68.06,0c20.42,0,40.84,0.07,61.25-0.09c2.38-0.02,5.67,1.77,6.93-2.58c4.1-14.06-3.44-24.56-17.95-24.57
		c-78.55-0.02-157.1-0.01-235.65-0.01c-14.85,0-18.6,4.26-19.01,19.4c-0.17,6.33,1.48,8.04,7.91,8
		C712.33,879.62,755.15,879.77,797.97,879.77z M797.91,934.26c30.08,0,60.17,0,90.25,0c18.95,0,18.6-0.01,19-19.07
		c0.15-6.98-2.17-8.33-8.62-8.3c-63.29,0.22-126.58,0.14-189.87,0.14c-19.98,0-19.71,0-19.82,19.92c-0.03,6.16,1.96,7.48,7.74,7.44
		C730.36,934.13,764.14,934.26,797.91,934.26z M797.96,825.27c24.93,0,49.85,0.05,74.78-0.08c2.44-0.01,5.67,1.55,6.95-2.68
		c4.22-13.9-3.4-24.47-17.94-24.48c-41.92-0.02-83.84-0.01-125.77-0.01c-16.02,0-19.69,4.12-19.9,20.16
		c-0.09,6.46,2.49,7.24,7.95,7.19C748.67,825.13,773.32,825.27,797.96,825.27z"/>
	<path class="st2" d="M130.34,743.77c47.92-0.08,95.84-0.1,143.75-0.33c4.71-0.02,6.32,1.17,6.3,6.12
		c-0.17,50.48-0.17,100.96,0,151.43c0.02,4.95-1.6,6.14-6.3,6.12c-47.92-0.23-95.83-0.25-143.75-0.33
		C130.34,852.44,130.34,798.1,130.34,743.77z"/>
	<path class="st0" d="M840.39,729.67c-0.05-20.61,4.92-40.21,11.91-59.4c0.06,15.99,0.14,31.97,0.18,47.96
		C852.51,730.18,852.49,730.18,840.39,729.67z"/>
	<path class="st0" d="M700.83,307.79c-2.01,18.63-5.64,36.96-10.25,55.11c-0.52,2.05-1.5,3.58-3.45,4.45
		c-33.56-25.49-71.04-36.62-113.15-31.17c-88.42,11.44-147.6,98.47-125.77,184.75c7.15,28.28,22.01,51.87,41.89,72.69
		c-12.4,6.15-25.21,11.32-38.29,15.87c-14.02-23.68-35.52-31.61-61.87-29.49c-8.93,0.72-13.99,5.49-14.21,14.55
		c-0.28,11.57-0.23,23.16-0.32,34.74c-22.66,2.98-45.35,5.27-68.27,5.31c-22.64,0.04-45.03-2.56-67.42-5.33
		c-0.1-2.83-0.27-5.66-0.27-8.49c-0.01-155.75,0.05-311.49-0.19-467.24c-0.01-7.72,1.88-9.71,9.66-9.7
		c139.85,0.25,279.7,0.18,419.54,0.2c2.83,0,5.66,0.19,8.49,0.29c2.03,9.18,7.65,17.21,8.57,26.74c-3.4,0.07-6.8,0.2-10.2,0.2
		c-130.17,0.01-260.34,0.01-390.51,0.01c-18.16,0-17.7,0.02-18.35,17.86c-0.3,8.05,2.33,9.56,9.83,9.55
		c135.84-0.22,271.68-0.16,407.53-0.15c3.4,0,6.8,0.16,10.19,0.24c1.7,8.91,3.4,17.82,5.1,26.73c-3.4,0.09-6.8,0.25-10.19,0.25
		c-135,0.01-270,0.01-405,0.01c-17.25,0-16.64,0.03-17.5,17.05c-0.46,9.02,2.58,10.39,10.77,10.38
		c141.81-0.26,283.61-0.19,425.42-0.19c0,9.11,0,18.23,0,27.34c-139.26-0.03-278.51-0.06-417.77-0.08
		c-18.19,0-17.73,0.02-18.38,17.84c-0.29,8,2.26,9.59,9.8,9.57c138.12-0.23,276.24-0.17,414.37-0.16
		C694.03,307.53,697.43,307.7,700.83,307.79z"/>
	<path class="st3" d="M473.22,934.27c-24.4,0-48.8-0.11-73.2,0.09c-5.28,0.04-9.95-1.02-14.56-3.51
		c-7.47-4.04-15.34-7.36-22.66-11.63c-15.25-8.9-31.11-14.8-49.15-12.18c-4.68,0.68-6.24-0.99-6.22-5.94
		c0.18-50.5,0.17-101.01,0.01-151.51c-0.02-4.76,1.26-6.97,6.09-6.03c20.52,3.97,34.89-5.22,47.67-20.36
		c10.21-12.1,22.03-22.89,33.6-33.78c6.08-5.73,8.46-12.02,8.26-20.32c-0.46-18.72,0.03-37.45-0.25-56.17
		c-0.08-5.3,1.56-6.22,6.36-4.99c12.38,3.17,20.9,13.89,20.96,27.57c0.12,30.08,0.02,60.15,0.05,90.23
		c0.01,13.32,4.5,17.79,17.91,17.8c36.88,0.03,73.77,0.19,110.64-0.16c6.47-0.06,7.95,1.66,7.84,7.94
		c-0.34,19.47-0.06,19.47-19.12,19.47c-27.8,0-55.61,0.11-83.41-0.11c-4.93-0.04-6.78,0.81-6.79,6.37
		c-0.07,20.99-0.31,20.99,21.01,20.99c27.24,0,54.47,0.15,81.71-0.13c5.29-0.05,6.57,1.36,6.58,6.59
		c0.05,20.79,0.25,20.79-20.33,20.79c-27.24,0-54.47,0.12-81.71-0.1c-5.18-0.04-7.29,0.8-7.26,6.76c0.1,20.6-0.17,20.6,20.55,20.6
		c27.24,0,54.47,0.15,81.71-0.13c5.51-0.06,7.07,1.37,7.05,6.97c-0.08,20.4,0.14,20.4-19.88,20.4c-27.24,0-54.47,0.15-81.71-0.13
		c-5.58-0.06-7.81,0.81-7.73,7.17c0.24,20.2-0.06,20.21,20.1,20.21c27.52,0,55.04,0.14,82.56-0.12c5.13-0.05,6.69,1.1,6.67,6.49
		c-0.09,16.98-3.7,20.87-20.98,20.88C521.45,934.27,497.33,934.27,473.22,934.27z"/>
	<path class="st0" d="M239.71,629.27c22.4,2.77,44.78,5.37,67.42,5.33c22.91-0.04,45.61-2.33,68.27-5.31
		c0.08,11.89,0.02,23.78,0.33,35.65c0.1,3.84-1.58,6.31-4.09,8.8c-12.87,12.75-25.7,25.54-38.41,38.45
		c-2.76,2.8-5.57,4.18-9.63,4.16c-25.76-0.17-51.52-0.18-77.28,0c-4.8,0.03-7.09-0.82-7.02-6.41
		C239.66,683.05,239.61,656.16,239.71,629.27z"/>
	<path class="st0" d="M757.15,165.86c19.98,19.99,39.73,39.75,59.88,59.91c-8.18,0-17.01,0-25.85,0c-9.64,0-19.29,0-28.93,0
		c-2.58,0-5.16,0.31-5.14-3.66C757.19,203.24,757.15,184.37,757.15,165.86z"/>
	<path class="st4" d="M490.09,593.62c-19.88-20.82-34.74-44.42-41.89-72.69c-21.82-86.27,37.35-173.31,125.77-184.75
		c42.12-5.45,79.6,5.67,113.15,31.17c39.4,33.2,58.4,75.46,56.22,127.04c-2.9,68.49-60.78,130.24-128.74,138.69
		C566.76,639.04,525.9,624.76,490.09,593.62z M594.3,362.03c-67.75-0.24-123.11,54.61-123.27,122.15
		c-0.16,67.36,54.46,122.69,121.5,123.08c67.8,0.39,123.37-54.29,123.71-121.74C716.58,417.74,661.8,362.27,594.3,362.03z"/>
	<path d="M694.01,198.78c-3.4-0.08-6.8-0.24-10.19-0.24c-135.84-0.01-271.68-0.07-407.53,0.15c-7.5,0.01-10.13-1.5-9.83-9.55
		c0.66-17.85,0.19-17.86,18.35-17.86c130.17,0,260.34,0,390.51-0.01c3.4,0,6.8-0.13,10.2-0.2c17.14,0.66,16.84,0.67,17.26,18.01
		C702.94,195.85,701.84,199.96,694.01,198.78z"/>
	<path d="M702.6,253.02c-141.81,0-283.61-0.07-425.42,0.19c-8.18,0.01-11.22-1.36-10.77-10.38c0.86-17.02,0.24-17.05,17.5-17.05
		c135,0,270,0,405-0.01c3.4,0,6.8-0.17,10.19-0.25c4.28,0.38,3.48,3.63,3.5,6.32C702.65,238.89,702.61,245.96,702.6,253.02z"/>
	<path d="M700.83,307.79c-3.4-0.09-6.8-0.26-10.19-0.26c-138.12-0.01-276.25-0.07-414.37,0.16c-7.54,0.01-10.09-1.58-9.8-9.57
		c0.64-17.82,0.18-17.84,18.38-17.84c139.26,0.03,278.51,0.06,417.77,0.08C701.65,289.48,704.72,298.86,700.83,307.79z"/>
	<path d="M798.4,770.77c-14.03,0-14.27,0-13.98-14.32c0.82-41.43-6.95-81.05-24.25-118.78c-9.28-20.23,1.63-47.15,23.72-55.11
		c21.97-7.92,46.48,3.9,53.04,26.26c2.98,10.17,3.19,20.27-1.62,30.53c-17.5,37.34-24.59,76.87-23.72,117.99
		C811.86,770.77,811.62,770.77,798.4,770.77z"/>
	<path class="st2" d="M797.97,879.77c-42.82,0-85.64-0.15-128.46,0.16c-6.44,0.05-8.09-1.67-7.91-8c0.41-15.15,4.17-19.4,19.01-19.4
		c78.55-0.01,157.1-0.02,235.65,0.01c14.51,0,22.05,10.5,17.95,24.57c-1.27,4.35-4.55,2.56-6.93,2.58
		c-20.42,0.16-40.83,0.09-61.25,0.09C843.34,879.77,820.66,879.77,797.97,879.77z"/>
	<path class="st2" d="M797.91,934.26c-33.77,0-67.55-0.13-101.32,0.12c-5.78,0.04-7.77-1.28-7.74-7.44
		c0.11-19.92-0.16-19.92,19.82-19.92c63.29,0,126.58,0.09,189.87-0.14c6.45-0.02,8.76,1.32,8.62,8.3c-0.4,19.06-0.05,19.07-19,19.07
		C858.08,934.26,828,934.26,797.91,934.26z"/>
	<path class="st2" d="M797.96,825.27c-24.64,0-49.29-0.14-73.93,0.11c-5.46,0.05-8.04-0.73-7.95-7.19
		c0.22-16.04,3.88-20.16,19.9-20.16c41.92-0.01,83.84-0.02,125.77,0.01c14.54,0.01,22.15,10.57,17.94,24.48
		c-1.28,4.23-4.51,2.67-6.95,2.68C847.82,825.31,822.89,825.27,797.96,825.27z"/>
	<path class="st3" d="M594.3,362.03c67.5,0.24,122.28,55.71,121.94,123.49c-0.34,67.45-55.91,122.13-123.71,121.74
		c-67.04-0.39-121.66-55.71-121.5-123.08C471.19,416.64,526.55,361.79,594.3,362.03z M588.37,529.09
		c-8.91-9.25-16.66-17.48-24.62-25.51c-15.32-15.47-15.23-15.29-30.23,0.07c-3.5,3.59-3.13,5.38,0.2,8.64
		c15.4,15.07,30.56,30.41,45.79,45.65c13.05,13.06,22.32,11.28,29.06-5.62c15.09-37.79,30.14-75.6,45.22-113.4
		c7.03-17.62,6.92-17.29-10.27-24.49c-6.32-2.65-8.65-2.13-11.3,4.71C618.26,455.24,603.63,491.05,588.37,529.09z"/>
	<path class="st5" d="M588.37,529.09c15.26-38.03,29.89-73.85,43.86-109.92c2.65-6.84,4.98-7.36,11.3-4.71
		c17.19,7.2,17.31,6.87,10.27,24.49c-15.08,37.79-30.13,75.6-45.22,113.4c-6.75,16.9-16.02,18.67-29.06,5.62
		c-15.23-15.25-30.39-30.58-45.79-45.65c-3.33-3.26-3.7-5.05-0.2-8.64c15-15.36,14.9-15.55,30.23-0.07
		C571.71,511.61,579.46,519.84,588.37,529.09z"/>
</g>
</svg>
