<?xml version="1.0" encoding="utf-8"?>
<!-- Generator: Adobe Illustrator 24.0.1, SVG Export Plug-In . SVG Version: 6.00 Build 0)  -->
<svg version="1.1" id="Layer_1" xmlns="http://www.w3.org/2000/svg" xmlns:xlink="http://www.w3.org/1999/xlink" x="0px" y="0px"
	 viewBox="0 0 1080 1080" style="enable-background:new 0 0 1080 1080;" xml:space="preserve">
<style type="text/css">
	.st0{display:none;}
	.st1{display:inline;fill:#3578B7;}
	.st2{display:inline;fill:#3377B6;}
	.st3{display:inline;fill:#454E58;}
	.st4{display:inline;fill:#404A54;}
	.st5{fill:#FEFEFE;}
	.st6{fill:#FFBD11;}
	.st7{fill:#800000;}
</style>
<g class="st0">
	<path class="st1" d="M912.18,482.36c-0.32,0.33-0.64,0.65-0.96,0.98c-10.67,6.38-12.74,10.7-10.67,22.4
		c0.47,2.66,1.15,5.28,1.62,7.94c1.53,8.6,2.21,17.28-5.71,23.27c-7.88,5.96-15.95,3.73-23.71-0.99c-4-2.44-8.24-4.5-12.18-7.02
		c-2.82-1.81-5.18-1.72-7.97,0.06c-5.02,3.19-10.21,6.12-15.35,9.1c-6.96,4.04-13.82,3.73-20.34-0.9
		c-6.25-4.43-8.23-10.75-7.06-18.09c0.99-6.22,2.18-12.42,3.47-18.58c0.86-4.11-0.16-7.31-3.28-10.2
		c-4.35-4.05-8.49-8.33-12.58-12.66c-5.32-5.63-7.99-12.41-5.09-19.79c3.01-7.67,9.5-11.66,17.77-12.09
		c5.26-0.27,10.33-1.54,15.5-2.24c3.21-0.43,5.15-2.18,6.43-5.07c2.48-5.61,5.18-11.12,7.66-16.73c3.21-7.26,8.59-11.47,16.62-11.76
		c7.02-0.25,13.65,4.57,16.65,11.67c1.48,3.49,3.49,6.79,4.59,10.38c2.57,8.45,7.85,12.85,16.83,12.79
		c2.68-0.02,5.36,0.59,8.04,0.88c8.33,0.91,15.06,4.53,18.01,12.63c2.83,7.76,0.01,14.49-5.82,20.01
		C913.42,479.5,912.27,480.58,912.18,482.36z M834.84,507.35c-0.17,1.54-0.16,2.67,0.77,3.43c1.24,1.02,2.41,0.17,3.49-0.42
		c3.47-1.91,7.09-3.63,10.31-5.9c4.62-3.26,8.82-4.07,13.7-0.36c2.97,2.26,6.64,3.61,9.94,5.46c1.31,0.74,2.65,1.63,3.96,0.56
		c1.27-1.05,0.82-2.7,0.44-4.07c-1.27-4.54-1.35-9.28-2.27-13.83c-0.89-4.43,0.54-7.23,3.43-10.03c3.5-3.39,6.9-6.88,10.28-10.39
		c2.1-2.19,1.89-3.85-1.36-4.4c-4.79-0.81-9.57-1.79-14.4-2.21c-3.87-0.34-6.4-1.9-7.91-5.46c-1.76-4.15-3.73-8.21-5.56-12.33
		c-0.65-1.46-0.89-3.36-2.91-3.49c-2.36-0.15-2.75,2.03-3.49,3.58c-1.87,3.9-3.75,7.81-5.37,11.81c-1.61,3.98-4.13,6.06-8.63,5.83
		c-4.54-0.23-8.89,1.3-13.33,2c-4.19,0.67-3.71,2.82-1.71,5.11c2.96,3.39,6.04,6.75,9.45,9.67c3.93,3.37,4.79,7.24,3.79,12.09
		C836.51,498.58,836.21,503.29,834.84,507.35z"/>
	<path class="st1" d="M288.45,465.87c-3.54,10.3-11.8,16.89-19.19,24.11c-3.32,3.24-4.55,6.6-3.49,11.15
		c1.34,5.78,2.31,11.66,3.31,17.51c1.29,7.6-1.07,14.05-7.23,18.61c-5.9,4.36-12.49,4.35-18.91,0.99
		c-5.75-3.01-11.37-6.27-16.96-9.56c-2.67-1.57-4.91-1.34-7.54,0.22c-5.58,3.32-11.25,6.51-17.06,9.41
		c-12.46,6.22-25.24-1.69-25.5-15.48c-0.13-6.96,1.84-13.54,3.06-20.26c0.93-5.08,0.59-9.37-3.88-13.08
		c-4.41-3.66-8.34-7.97-12.13-12.31c-4.76-5.46-7.15-11.85-4.45-19.01c3.11-8.24,10.14-11.35,18.22-12.45
		c24.16-3.29,17.23,0.5,27.59-20.28c2.35-4.71,4.24-9.64,9.1-12.42c9.25-5.29,19.76-2.32,24.88,7.27
		c3.22,6.03,5.98,12.31,8.85,18.53c1.32,2.87,3.21,4.46,6.54,4.8c5.18,0.53,10.26,1.76,15.49,2.2c10.98,0.93,16.94,6.83,19.23,18.41
		c-0.06,0.33,0.01,0.63,0.22,0.9C288.38,465.36,288.34,465.6,288.45,465.87z M200.79,507.57c-0.9,3.05,0.98,3.45,3.22,3.07
		c1.18-0.2,2.31-0.93,3.39-1.54c15.75-8.82,15.74-8.82,31.48,0.73c1.35,0.82,2.7,2.23,4.39,1.08c1.6-1.1,1.25-2.93,0.87-4.48
		c-1.17-4.74-1.56-9.61-2.47-14.37c-0.75-3.94,0.34-6.62,2.97-9.2c3.61-3.55,7.11-7.2,10.69-10.77c3.03-3.02,1.84-4.66-1.78-5.31
		c-4.96-0.89-9.93-1.98-14.94-2.29c-3.88-0.24-5.89-2.04-7.29-5.31c-1.85-4.31-3.82-8.57-5.75-12.85c-0.6-1.32-1.13-2.73-2.98-2.67
		c-1.71,0.06-2.52,1.2-3.15,2.58c-2.03,4.43-4.15,8.82-6.06,13.3c-1.32,3.1-3.12,4.74-6.83,4.99c-5.18,0.35-10.31,1.61-15.44,2.55
		c-3.02,0.55-3.65,2.04-1.5,4.41c1.94,2.14,3.62,4.59,5.86,6.34c6.93,5.44,9.91,12,7.21,20.75
		C201.77,501.49,201.4,504.57,200.79,507.57z"/>
	<path class="st2" d="M367.26,683.29c-7.01,0.96-12.35-4.16-18.6-6.7c-0.33-0.13-0.62-0.36-0.92-0.57
		c-9.63-6.68-18.62-7.52-28.9-0.02c-5.58,4.07-12.12,8.19-20.32,7.66c-11.52-0.75-19.23-8.7-17.88-20.27
		c0.87-7.5,1.92-15.04,3.82-22.32c1.33-5.09-0.57-8.36-3.72-11.49c-5.24-5.2-10.63-10.24-15.93-15.38
		c-5.64-5.46-6.98-12.16-4.58-19.34c2.27-6.82,7.17-10.97,14.58-11.9c7.67-0.97,15.19-3,22.98-3.29c3.67-0.14,6.22-1.96,8-5.43
		c4.19-8.15,7.2-17.08,13.11-24.16c9.32-11.18,19.39-10.51,28.58,0.34c5.11,6.04,7.77,13.76,11.08,20.92
		c2.67,5.78,6.5,8.65,12.81,8.62c7.44-0.04,14.65,1.94,21.82,3.48c14.11,3.03,18.66,19.48,8.58,30.03
		c-5.23,5.48-10.55,10.92-16.24,15.91c-4.1,3.59-4.9,7.64-3.9,12.57c1.28,6.35,2.44,12.72,3.71,19.07
		C387.71,672.89,379.12,684.61,367.26,683.29z M304.18,620.19c0.29,2.58,1.77,3.97,4.31,4.32c0.96,1.67,1.14,3.48,0.91,5.35
		c-3.93,7.91-4.26,16.57-5.12,25.1c-0.15,1.54,1.28,2.24,2.62,1.95c3.56-0.78,7.73-0.6,9.3-5.08c3.46-0.36,6.52-1.52,9.38-3.67
		c3.53-2.65,7.6-4.85,11.87-1.64c4.78,3.59,11.02,4.21,15.6,8.33c1.79,1.61,5.05,2.38,7.55,1.21c3.23-1.51,1.36-4.43,0.87-6.7
		c-1.79-8.25-3.03-16.56-3.56-24.98c0.23-0.23,0.4-0.5,0.5-0.81c2.88-0.04,4.37-1.46,4.32-4.39c0.37-0.35,0.73-0.71,1.1-1.06
		c6.03-1.17,8.34-6.95,12.66-10.24c3.75-2.86,1.46-5.02-1.24-6.45c-1.81-0.96-4.12-1.3-6.05,0.33c-0.99-0.08-1.98-0.17-2.97-0.25
		c-1.23-2.16-2.78-2.3-4.59-0.72c-1.75-0.09-3.51-0.18-5.26-0.27c-0.32-1.53-1.57-1.87-2.83-2.09c-5.25-0.92-7.76-4.64-9.73-9.12
		c-2.16-4.92-4.47-9.79-7.01-14.53c-0.77-1.44-1.27-3.79-3.43-3.77c-2.07,0.02-2.74,2.08-3.57,3.65
		c-2.92,5.56-6.26,10.96-8.62,16.75c-2.61,6.41-7.34,7.99-13.57,8.52c-5.5,0.47-11.16,0.19-16.48,2.08
		c-2.43,0.86-4.53,2.47-2.31,5.17c1.99,2.43,3.86,5.35,7.54,5.69c1.09,2.58,1.93,5.44,5.64,5.19
		C302.71,618.74,303.45,619.47,304.18,620.19z"/>
	<path class="st3" d="M396.87,737.31c-13.73,0-27.47,0.16-41.2-0.04c-17.83-0.26-31.28-13.9-31.25-31.37
		c0.01-6.2,6.44-10.42,12.06-7.67c5.3,2.59,11.52,3.99,12.52,11.77c0.48,3.76,4.89,3.96,8.09,3.99c14.61,0.13,29.23,0.09,43.84,0.03
		c6.5-0.03,12.99-0.24,19.49-0.41c2.53-0.07,4.55,0.92,6.28,2.67c4.96,5.01,9.94,9.99,14.88,15.02c1.25,1.28,2.94,2.72,2.32,4.61
		c-0.75,2.29-3.08,1.27-4.74,1.27c-14.09,0.06-28.19,0.03-42.28,0.03C396.87,737.24,396.87,737.27,396.87,737.31z"/>
	<path class="st3" d="M465.73,474.91c0.1,0.27,0.3,0.39,0.59,0.35c4.46,5.11,4.46,5.12-2.53,7.19
		c-19.67,5.85-37.77,14.72-53.66,27.85c-2.03,1.68-4.74,2.68-5.53,5.58c-1.05,1.05-2.1,2.11-3.15,3.16
		c-6.48,3.93-10.52,10.18-14.98,15.98c-2.74,3.56-5.06,7.46-7.4,11.31c-1.66,2.73-3.12,2.82-4.61,0.02
		c-2.81-5.26-5.88-10.32-9.83-14.86c-2.35-2.7-0.37-5.08,1.19-7.29c11.17-15.76,24.75-29.11,40.5-40.27
		c12.31-8.72,25.72-15.22,39.97-20.13c3-1.03,5.01-0.54,7.26,1.61C457.28,468.97,460.44,473.34,465.73,474.91z"/>
	<path class="st1" d="M779.97,684.25c-2.93-0.18-6.58-1.04-10.01-2.79c-7.07-3.6-14.22-7.04-21.17-10.87
		c-2.25-1.24-3.95-1.16-6.02-0.06c-6.38,3.38-12.85,6.58-19.18,10.04c-7.7,4.2-15.57,5.26-22.98,0.09
		c-6.81-4.75-8.98-11.78-7.52-20.02c1.35-7.6,2.23-15.3,3.75-22.86c0.6-2.96-0.28-4.92-2.17-6.74c-5.19-5-10.28-10.11-15.69-14.85
		c-7.14-6.26-9.84-13.89-6.66-22.29c3.01-7.98,9.58-11.06,17.75-11.87c7.16-0.71,14.25-2.04,21.38-3.05
		c3.68-0.52,5.56-3.12,7.06-6.08c3.6-7.06,7.03-14.22,10.68-21.25c3.5-6.75,9.39-9.86,16.81-9.76c7.02,0.09,12.43,3.38,15.77,9.63
		c3.89,7.31,7.65,14.7,11.39,22.08c1.79,3.53,4.38,5.14,8.5,5.53c7.15,0.68,14.26,2,21.33,3.35c6.49,1.25,11.78,4.49,14.86,10.61
		c3.63,7.2,2.6,14.57-3.03,20.39c-6.03,6.23-12.18,12.33-18.4,18.37c-2.28,2.21-3.11,4.32-2.32,7.65c1.78,7.52,3.04,15.17,4.4,22.79
		C800.49,673.49,791.94,684.09,779.97,684.25z M720.5,655.74c1.1-0.51,2.42-1.08,3.7-1.72c5.81-2.9,11.66-5.7,17.38-8.76
		c3.01-1.61,5.67-1.66,8.68-0.03c6.17,3.35,12.47,6.45,18.68,9.72c1.34,0.71,2.67,1.42,4.01,0.41c1.15-0.88,0.78-2.28,0.58-3.54
		c-1.14-6.92-2.02-13.9-3.53-20.74c-0.83-3.74,0.31-6.22,2.83-8.65c4.94-4.76,9.81-9.6,14.66-14.45c3.03-3.04,2.61-4.88-1.62-5.67
		c-4.24-0.8-8.57-1.17-12.88-1.44c-8.01-0.5-14.71-2.44-17.6-11.3c-1.61-4.92-4.56-9.4-6.87-14.1c-1.89-3.86-3.65-3.47-5.41,0.09
		c-2.81,5.66-5.95,11.18-8.37,17c-1.97,4.75-5.06,6.89-10.09,7.51c-6.6,0.81-13.31,0.96-19.76,2.87c-3.38,1-4.24,2.36-1.27,5.04
		c4.68,4.23,9,8.89,13.89,12.85c4.47,3.62,5.02,7.88,3.94,13c-1.27,5.98-2.25,12.03-3.47,18.02
		C717.53,653.94,717.74,655.41,720.5,655.74z"/>
	<path class="st4" d="M539.71,272.9c55.04-1.04,101.5,45.9,100.91,101.89c-0.58,55-46.44,100.81-101.99,100.12
		c-56.38-0.7-100.67-46.48-100.31-102.26C438.68,317.93,484.91,271.58,539.71,272.9z M545.03,451.5c0.67-0.05,1.35-0.09,2.02-0.14
		c6.97,2.48,13.28-0.91,19.22-3.16c35.63-13.48,57.38-49.03,51.41-87.13c-6.21-39.63-44.86-71.4-86.91-66.15
		c-32.19,4.02-58.98,26.54-67.7,57.39c-0.34,1.2-1.05,2.39,0.35,3.39c-0.13,0.66-0.26,1.32-0.39,1.98c-1.24,0.41-1.41,1.45-1.6,2.56
		c-3.02,17.06-0.7,33.38,7.23,48.77c3.1,6.02,6.05,12.3,11.87,16.42c3.24,4.46,6.63,8.75,11.96,10.93c0.52,0.71,0.9,1.62,1.58,2.11
		c9.74,7,20.67,11.26,32.38,13.5c2.06,0.4,4.64,1.26,6.53-0.92c0.72,0.06,1.43,0.13,2.15,0.19
		C538.34,454.52,541.67,453.9,545.03,451.5z"/>
	<path class="st3" d="M628.91,464.18c3.36,1.32,6.9,2.64,10.39,4.09c29.82,12.33,53.64,32.15,72.65,58.04
		c2.2,2.99,2.37,5.27-0.16,8.09c-3.53,3.93-5.64,8.8-7.98,13.48c-1.81,3.62-3.34,3.75-5.5,0.16
		c-14.55-24.15-34.68-42.27-59.89-54.74c-8.73-4.32-17.62-8.31-27.18-10.5c-1.39-0.32-3.04-0.4-3.37-2.17
		c-0.3-1.58,1.14-2.07,2.17-2.74c5.15-3.36,10.04-7.05,14.33-11.5C625.53,465.17,627,464.53,628.91,464.18z"/>
	<path class="st3" d="M681.78,737.22c-14.27,0-28.53,0.02-42.8-0.03c-1.51,0-3.53,0.67-4.19-1.43c-0.56-1.79,0.82-3.02,1.97-4.18
		c5.08-5.14,10.18-10.25,15.25-15.39c1.74-1.77,3.81-2.62,6.31-2.6c19.29,0.12,38.58,0.23,57.88,0.3c3.06,0.01,6.12-0.16,9.17-0.37
		c2.39-0.16,4.74-1.6,4.89-3.65c0.58-7.99,7.42-8.66,12.48-11.52c2.31-1.31,4.24-0.95,6.61,0.09c4.09,1.79,5.43,4.52,5.24,8.92
		c-0.71,16.8-14.23,29.8-31.63,29.92c-13.73,0.09-27.45,0.02-41.18,0.02C681.78,737.27,681.78,737.24,681.78,737.22z"/>
	<path class="st2" d="M617.55,716.73c-0.35,0.35-0.7,0.7-1.05,1.05c-8.73,3.97-12.04,10.31-10.46,18.97
		c2.51,13.78,5.23,27.55,6.9,41.45c1.04,8.66-2.29,16.54-9.86,21.53c-7.15,4.71-14.91,3.81-22.17,0
		c-11.31-5.93-22.7-11.78-33.54-18.5c-7.53-4.67-13.37-1.59-19.46,2.04c-11.15,6.63-22.47,12.94-34.35,18.15
		c-8.75,3.84-19.87-0.29-24.13-8.84c-2.84-5.7-4.17-11.54-2.92-18.23c2.65-14.3,4.21-28.79,7.47-42.99
		c0.51-2.22-0.21-3.81-1.73-5.33c-8.95-8.98-17.88-17.98-26.77-27.02c-7.78-7.9-14.12-16.35-11.25-28.53
		c1.19-5.04,5.76-7.71,7.77-12.12c0.39-0.35,0.77-0.7,1.16-1.05c10.95-2.01,21.92-3.94,32.84-6.08c5.5-1.08,11.1-0.5,16.62-1.73
		c4.47-1,7.31-2.96,9.2-7.21c5.2-11.67,10.8-23.16,16.19-34.74c2.93-6.3,7.03-11.51,12.97-15.27c3.54-2.24,14.25-1.73,18.09,0.73
		c8.93,5.7,12.1,15.2,16.32,24.02c4.35,9.08,8.57,18.23,12.94,27.3c3.03,6.28,9.45,5.67,14.63,5.96
		c12.12,0.69,23.87,3.26,35.62,5.77c17.35,3.71,21.98,22.98,10.52,36.53c-5.53,6.55-11.66,12.56-17.99,18.36
		C619.49,712.42,617.72,714.16,617.55,716.73z M488.41,775.28c-0.71,1.22-0.78,2.54,0.46,3.35c1.69,1.09,3.11-0.07,4.5-0.83
		c13.44-7.37,26.93-14.64,40.25-22.23c4.06-2.32,7.4-2.48,11.53-0.12c13.15,7.51,26.49,14.69,39.77,21.98
		c1.52,0.84,2.98,2.36,4.87,0.79c1.12-0.93,0.97-2.04,0.75-3.42c-2.7-16.33-5.11-32.71-8.03-48.99c-0.74-4.12,0.3-6.82,3.06-9.61
		c11.17-11.3,22.23-22.72,33.29-34.13c1.06-1.09,2.92-1.99,2.17-3.96c-0.64-1.69-2.27-2.08-3.97-2.33
		c-14.61-2.15-29.18-4.52-43.82-6.46c-5.27-0.7-8.91-2.43-11.25-7.65c-6.26-13.99-13.01-27.77-19.6-41.61
		c-0.76-1.59-1.36-3.62-3.58-3.61c-2.13,0.01-2.12,2.08-2.79,3.5c-6.78,14.35-13.68,28.64-20.34,43.04c-1.72,3.71-4.32,5.53-8.2,6.1
		c-14.97,2.18-29.93,4.44-44.9,6.63c-1.96,0.29-4.23,0.11-5.06,2.35c-0.87,2.35,1.25,3.55,2.6,4.91
		c10.81,10.91,21.56,21.88,32.55,32.61c3.22,3.14,4.05,6.27,3.32,10.64C493.27,742.53,490.91,758.91,488.41,775.28z"/>
</g>
<g>
	<path class="st5" d="M216.49,774.37c-0.35-5.54,1.75-9.91,5.93-13.55c3.46-3.02,6.52-6.51,9.91-9.61
		c4.29-3.93,7.11-8.48,5.05-14.35c-2.05-5.86-7.13-8.18-12.89-8.09c-16.22,0.26-27.4-6.28-31.99-22.44c-0.22-0.77-0.65-1.48-1-2.22
		c-2.34-4.94-5.53-8.58-11.64-8.51c-6.14,0.07-8.93,4.01-11.45,8.81c-3.74,7.13-6.1,15.1-12.16,20.88
		c-7.23,1.17-14.45,2.42-21.7,3.49c-5.45,0.8-10.04,2.78-11.94,8.4c-1.81,5.35,0.51,9.49,4.3,13.1c2.56,2.44,4.84,5.24,7.64,7.35
		c8.23,6.17,10.62,13.83,7.5,23.66c-1.3,4.09-1.8,8.53-2.03,12.85c-0.53,9.54,7.54,15.22,16.26,11.42
		c5.21-2.28,10.26-5.01,15.18-7.88c5.72-3.33,11.19-3.44,16.95-0.16c4.95,2.82,9.96,5.61,15.15,7.94
		c8.82,3.96,17.05-1.42,16.38-11.04C219.48,787.68,217.69,781.05,216.49,774.37z M380.44,847.55c-0.28-6.41,2.16-11.55,6.93-15.8
		c4.06-3.61,7.8-7.57,11.86-11.17c5.22-4.62,8.68-9.9,6.63-17.14c-2.11-7.47-8.22-10.35-15.03-10.13
		c-21.58,0.71-34.09-9.96-40.44-29.84c-1.99-6.24-6.41-10.62-13.88-10.52c-7.42,0.1-10.81,4.8-13.89,10.68
		c-4.49,8.58-7.18,18.25-14.56,25.17c-9.34,1.62-18.65,3.44-28.02,4.79c-5.92,0.85-10.5,3.38-12.38,9.06
		c-2.06,6.22-0.27,11.68,4.74,16.14c4.05,3.61,7.58,7.83,11.8,11.22c7.44,5.97,9.6,13.31,7.5,22.42c-1.33,5.81-2.2,11.73-3.13,17.62
		c-0.91,5.75,0.3,10.85,5.32,14.42c5.25,3.74,10.58,3.15,16.09,0.34c32.18-16.36,20.96-16.66,53.54,0.1
		c5.2,2.67,10.33,3.23,15.41-0.11c5.47-3.59,6.81-8.94,5.78-14.98C383.46,862.38,381.89,854.98,380.44,847.55z M787.4,847.93
		c-0.49-7.04,2.1-12.63,7.57-17.13c3.56-2.93,6.69-6.39,10.14-9.46c5.58-4.96,9.79-10.46,7.22-18.47
		c-2.39-7.45-8.85-9.91-15.48-9.68c-21.48,0.75-33.53-10.16-39.76-29.67c-2.03-6.34-6.47-10.59-13.89-10.54
		c-7.43,0.05-10.85,4.76-13.93,10.66c-4.49,8.6-7.18,18.28-14.6,25.19c-9.62,1.65-19.22,3.42-28.86,4.91
		c-5.64,0.87-9.79,3.67-11.54,9c-1.82,5.53-0.7,10.74,3.7,14.96c5.1,4.89,10.07,9.93,15.27,14.71c4.81,4.43,6.77,9.6,5.55,16.09
		c-1.31,6.93-2.4,13.91-3.52,20.88c-0.97,6.02,0.02,11.43,5.4,15.18c5.31,3.7,10.67,3.11,16.11,0.16
		c5.97-3.23,12.11-6.15,17.99-9.53c5.73-3.29,11.15-3.39,16.92-0.07c6.12,3.51,12.47,6.61,18.71,9.9
		c5.21,2.75,10.38,3.07,15.41-0.35c5.1-3.46,6.53-8.53,5.6-14.3C790.2,862.86,788.74,855.41,787.4,847.93z"/>
	<path class="st6" d="M486.11,958.84c-11.23-7.47-13.59-17.62-10.16-30.3c2.17-8.06,2.86-16.52,4.1-24.82
		c0.99-6.62-1-12.25-5.85-16.94c-7.41-7.16-14.64-14.49-22.1-21.6c-6.04-5.76-8.55-12.43-5.87-20.54
		c2.71-8.19,9.06-11.65,17.12-12.95c13.05-2.1,26.44-2.38,39.04-7c0.01,4.35,0,8.7,0.02,13.05c0.14,33.11,28.43,64.11,61.24,69.2
		c12.54,1.95,24.13-0.89,36.13-1.87c1.5,8.55,2.93,17.11,4.52,25.64c2.89,15.51,0.91,20.21-12.07,28.11c-3.27,0-6.53,0-9.8,0
		c-10.79-5.7-21.59-11.35-32.35-17.1c-6.78-3.63-13.42-3.64-20.21,0c-10.75,5.77-21.56,11.41-32.35,17.1
		C493.73,958.84,489.92,958.84,486.11,958.84z"/>
	<path class="st6" d="M876.33,725.2c5.91-5.92,8.33-13.85,12.06-21.01c2.53-4.85,5.51-8.63,11.64-8.59
		c6.14,0.04,9.2,3.84,11.47,8.79c0.45,0.99,1.11,1.9,1.4,2.93c4.29,15.35,15.05,21.46,30.25,21.29c6.49-0.07,11.37,2.8,14.86,8.17
		c0,2.72,0,5.44,0,8.16c-5.06,5.15-9.94,10.5-15.25,15.38c-4.24,3.9-6.88,8.18-6.28,14.08c-6.75-0.59-13.16,2.69-20.12,1.13
		C889.79,769.58,876.59,753.2,876.33,725.2z"/>
	<path class="st5" d="M497.54,958.84c10.79-5.69,21.6-11.33,32.35-17.1c6.79-3.64,13.43-3.63,20.21,0
		c10.75,5.76,21.56,11.41,32.35,17.1C554.14,958.84,525.84,958.84,497.54,958.84z"/>
	<path class="st6" d="M599.79,905.09c-12.01,0.98-23.59,3.82-36.13,1.87c-32.81-5.1-61.1-36.1-61.24-69.2
		c-0.02-4.35-0.01-8.7-0.02-13.05c9.07-9.77,13.01-22.45,18.88-33.99c4.18-8.21,9.5-14.26,19.03-14.12
		c9.12,0.14,14.66,5.82,18.26,13.99c3.5,7.95,7.94,15.48,11.41,23.44c3.78,8.68,10.28,12.9,19.38,14.01
		c8.62,1.05,17.2,2.46,25.82,3.5c8.73,1.05,15.79,4.42,18.66,13.36c2.73,8.52-0.44,15.3-6.73,21.16
		c-6.16,5.75-11.83,12.04-18.16,17.59C602.31,889.44,598.74,896.19,599.79,905.09z"/>
	<path class="st6" d="M714.67,788.83c7.41-6.91,10.11-16.6,14.6-25.19c3.08-5.91,6.5-10.62,13.93-10.66
		c7.42-0.05,11.86,4.2,13.89,10.54c6.24,19.51,18.29,30.42,39.76,29.67c6.63-0.23,13.09,2.23,15.48,9.68
		c2.57,8.01-1.64,13.51-7.22,18.47c-3.45,3.07-6.58,6.53-10.14,9.46c-5.47,4.5-8.06,10.09-7.57,17.14
		c-9.66,0.44-19.27,3.24-28.98,0.49C729.3,840.18,715.21,820.99,714.67,788.83z"/>
	<path class="st6" d="M308.08,788.81c7.38-6.92,10.07-16.58,14.56-25.17c3.08-5.88,6.47-10.58,13.89-10.68
		c7.47-0.1,11.89,4.28,13.88,10.52c6.34,19.88,18.85,30.55,40.44,29.84c6.81-0.22,12.92,2.66,15.03,10.13
		c2.04,7.24-1.41,12.52-6.63,17.14c-4.07,3.6-7.81,7.56-11.86,11.17c-4.77,4.25-7.22,9.39-6.93,15.8
		c-9.59,1.47-19.12,3.2-28.88,0.81C323.6,841.53,307.82,818.99,308.08,788.81z"/>
	<path class="st6" d="M308.08,788.81c-0.25,30.19,15.53,52.72,43.48,59.56c9.76,2.38,19.29,0.65,28.88-0.81
		c1.45,7.42,3.02,14.83,4.29,22.28c1.03,6.04-0.31,11.39-5.78,14.98c-5.08,3.34-10.21,2.78-15.41,0.11
		c-32.58-16.76-21.36-16.46-53.54-0.1c-5.52,2.8-10.84,3.39-16.09-0.34c-5.02-3.57-6.22-8.68-5.32-14.42
		c0.93-5.89,1.79-11.81,3.13-17.62c2.09-9.11-0.06-16.45-7.5-22.42c-4.22-3.38-7.75-7.61-11.8-11.22c-5.01-4.46-6.8-9.92-4.74-16.14
		c1.88-5.68,6.46-8.21,12.38-9.06C289.43,792.25,298.74,790.43,308.08,788.81z"/>
	<path class="st6" d="M714.67,788.83c0.54,32.16,14.63,51.36,43.74,59.6c9.71,2.75,19.33-0.05,28.98-0.49
		c1.35,7.47,2.8,14.93,4,22.43c0.93,5.78-0.5,10.84-5.6,14.3c-5.03,3.41-10.2,3.09-15.41,0.35c-6.24-3.29-12.6-6.39-18.71-9.9
		c-5.77-3.31-11.18-3.21-16.92,0.07c-5.88,3.37-12.03,6.29-17.99,9.53c-5.44,2.95-10.8,3.54-16.11-0.16
		c-5.39-3.75-6.37-9.16-5.4-15.18c1.12-6.97,2.21-13.94,3.52-20.88c1.23-6.49-0.73-11.67-5.55-16.09
		c-5.2-4.78-10.17-9.82-15.27-14.71c-4.4-4.22-5.52-9.43-3.7-14.96c1.75-5.32,5.9-8.12,11.54-9
		C695.45,792.25,705.05,790.48,714.67,788.83z"/>
	<path class="st6" d="M156.25,725.29c6.07-5.78,8.42-13.75,12.16-20.88c2.52-4.8,5.32-8.74,11.45-8.81
		c6.11-0.07,9.3,3.58,11.64,8.51c0.35,0.73,0.78,1.45,1,2.22c4.58,16.16,15.77,22.7,31.99,22.44c5.76-0.09,10.83,2.22,12.89,8.09
		c2.06,5.88-0.76,10.43-5.05,14.35c-3.39,3.11-6.45,6.59-9.91,9.61c-4.18,3.65-6.28,8.02-5.93,13.55
		c-6.99-0.58-13.62,2.73-20.9,0.96C169.31,768.91,156.64,753.1,156.25,725.29z"/>
	<path class="st6" d="M156.25,725.29c0.39,27.81,13.06,43.62,39.33,50.04c7.28,1.78,13.91-1.54,20.9-0.96
		c1.2,6.67,2.99,13.31,3.46,20.03c0.67,9.62-7.56,15-16.38,11.04c-5.19-2.33-10.2-5.12-15.15-7.94c-5.76-3.28-11.23-3.17-16.95,0.16
		c-4.92,2.87-9.96,5.61-15.18,7.88c-8.72,3.81-16.79-1.87-16.26-11.42c0.24-4.32,0.74-8.76,2.03-12.85
		c3.12-9.83,0.73-17.49-7.5-23.66c-2.81-2.1-5.08-4.91-7.64-7.35c-3.79-3.61-6.12-7.75-4.3-13.1c1.9-5.63,6.49-7.6,11.94-8.4
		C141.8,727.71,149.02,726.46,156.25,725.29z"/>
	<path class="st6" d="M876.33,725.2c0.26,28,13.45,44.38,40.02,50.32c6.97,1.56,13.37-1.72,20.12-1.13
		c1.15,6.12,2.65,12.2,3.37,18.37c1.26,10.82-8.21,18.2-16.94,12.15c-15.9-11.04-30.12-10.84-45.99-0.02
		c-8.64,5.89-17.63-0.75-16.9-11.3c0.35-5.11,1.03-10.31,2.43-15.22c2.22-7.82,0.02-13.7-6.02-18.75c-3.32-2.78-6.14-6.14-9.37-9.03
		c-4.21-3.77-6.39-8.24-4.47-13.75c1.93-5.56,6.71-7.33,12.13-8.1C861.94,727.7,869.13,726.39,876.33,725.2z"/>
</g>
<path class="st7" d="M624.96,519.15c0.94-1.56,1.9-3.14,2.85-4.69c2.25-2.5,3.97-5.29,5-8.5l0.34-0.15v-0.38
	c1-0.69,1.61-1.59,1.69-2.83c0.53-0.91,1.07-1.83,1.59-2.74c1.14-0.58,1.52-1.59,1.61-2.79c0.27-0.45,0.56-0.91,0.83-1.36
	c2.92-3.61,5.29-7.56,7.05-11.85c0.53-0.89,1.05-1.78,1.58-2.68c1.2-1.14,2.25-2.57,4.2-2.43c0.62,0.82,1.4,1.29,2.43,1.25
	c0.85,0.82,1.81,1.41,3.04,1.34c1.54,0.67,3.1,1.36,4.64,2.03c1.59,1.14,3.23,2.19,5.29,2.28c0.98,0.42,1.96,0.82,2.94,1.23
	c3.14,1.98,6.32,3.86,9.91,4.91c0.47,1.23,1.4,1.59,2.63,1.36c0.54,0.31,1.07,0.62,1.61,0.92c1.32,1.5,3.04,2.25,4.97,2.59
	c0.6,0.22,1.18,0.43,1.78,0.65c1.52,1.7,3.44,2.7,5.62,3.28c1.09,1.79,2.88,2.39,4.75,2.92c0.91,0.54,1.81,1.09,2.72,1.63
	c0.58,1.14,1.59,1.59,2.79,1.74l0.16,0.4l0.43,0.04c0.6,1.07,1.5,1.65,2.7,1.76l0.22,0.4l0.45-0.02c1.72,1.74,3.53,3.32,5.96,3.99
	c0.82,1.21,1.96,1.99,3.35,2.43c1.03,1.63,2.43,2.75,4.37,3.14c2.01,1.63,4.02,3.26,6.03,4.89c1.27,1.83,2.86,3.24,5,3.99
	c4.86,4.64,9.7,9.28,14.55,13.92c0.62,1.27,1.34,2.43,2.81,2.86c4.89,6.22,9.79,12.43,14.68,18.65c-0.07,0.92,0.25,1.61,1.2,1.9
	c1.83,3.04,3.66,6.11,5.51,9.15c0.82,2.72,1.99,5.24,4.01,7.32c0.25,0.49,0.49,1,0.74,1.49c0.74,3.93,2.43,7.5,4.4,10.93
	c0.43,1.14,0.89,2.27,1.32,3.41c-0.34,2.12,0.53,3.86,1.69,5.51c0.15,0.74,0.31,1.47,0.45,2.21c0.87,3.72,1.21,7.56,2.97,11.04
	c-0.31,1.54-0.2,3.03,0.58,4.4c-0.02,5.18-0.05,10.37-0.07,15.55c-0.25,1.09-0.51,2.17-0.78,3.28c-1.5,2.94-3.01,5.87-4.51,8.79
	c-3.28,2.99-6.58,5.96-9.86,8.95c-1.36,0-2.19,0.82-2.9,1.83H772l-0.13,0.27c-1.3,0.13-2.27,0.8-2.97,1.87
	c-1.79,0.65-3.43,1.58-4.71,3.01c-1.52-0.13-2.54,0.63-3.32,1.83c-0.96-0.07-1.76,0.18-2.19,1.12c-2.07,0.33-3.82,1.29-5.26,2.81
	c-4.15,2.07-8.28,4.13-12.43,6.18c-1.25,0-2.25,0.54-3.12,1.38c-0.43,0.22-0.87,0.45-1.3,0.67c-2.39,0.29-4.57,1.11-6.42,2.68
	c-0.6-0.24-1.05-0.09-1.32,0.53c-6.03,1.81-12,3.81-17.65,6.65c-1.27-0.13-2.45,0-3.32,1.07c-2.34,0.36-4.77,0.43-6.6,2.27
	c-4.89,1.11-9.84,2.03-14.39,4.31c-2.46-0.83-4.55,0.07-6.54,1.43c-0.72,0.13-1.45,0.27-2.17,0.4c-7.45,1.34-14.93,2.54-22.11,5.07
	c-1.09,0.16-2.17,0.33-3.28,0.49c-3.14-0.36-6.02,0.62-8.9,1.61c-1.09,0.13-2.17,0.27-3.26,0.4c-6.69,0.71-13.43,1.16-19.93,3.04
	c-1.49-0.31-2.94-0.18-4.33,0.4c-5.26-0.29-10.38,0.69-15.51,1.67c-1.83,0.11-3.64,0.24-5.47,0.34c-0.91-0.09-1.81-0.31-2.7-0.24
	c-22.16,1.94-44.38,2.27-66.62,1.72c-13.75-0.34-27.49-1.01-41.23-1.52c-1.45-0.11-2.9-0.22-4.37-0.33
	c-5.51-0.91-11-1.94-16.64-1.65c-1.09-0.11-2.19-0.2-3.28-0.31c-3.91-1.41-7.94-2.01-12.09-1.63c-1.03-0.15-2.07-0.27-3.1-0.42
	c-5.82-2.01-11.87-2.65-17.94-3.15c-0.72-0.11-1.45-0.2-2.17-0.31c-2.37-1.4-4.91-2.08-7.68-1.65c-0.67-0.13-1.34-0.25-2.01-0.36
	c-4.31-1.85-8.84-2.88-13.52-3.24c-0.72-0.13-1.43-0.25-2.16-0.38c-5.67-2.48-11.63-3.97-17.71-5.09c-0.72-0.18-1.43-0.34-2.16-0.53
	c-2.25-1.92-5.07-2.17-7.81-2.66c-0.71-0.22-1.41-0.42-2.12-0.63c-1.34-0.94-2.66-1.99-4.49-1.59c-2.23-1-4.35-2.3-6.89-2.48
	c-4.08-2.37-8.34-4.29-12.99-5.22c-0.83-0.42-1.69-0.85-2.52-1.27c-0.76-0.96-1.81-1.25-2.97-1.23c-1.03-1.21-2.52-1.5-3.95-1.85
	c-0.49-1.29-1.5-1.43-2.68-1.27c-0.67-0.33-1.36-0.65-2.03-0.98c-0.31-0.94-1.09-1.03-1.9-1.05c-1.18-1.7-2.95-2.34-4.86-2.79
	c-4.46-2.5-8.92-4.98-13.36-7.48c-0.67-1-1.59-1.61-2.77-1.87c-0.53-1.07-1.41-1.61-2.59-1.7c-0.13-0.4-0.42-0.56-0.82-0.45
	c-0.53-1.01-1.27-1.76-2.5-1.78c-4.1-3.12-7.21-7.12-10.06-11.34c-1.03-2.95-2.07-5.91-3.1-8.86c0-3.68,0-7.36,0-11.02
	c0.94-2.88,1.83-5.78,1.63-8.88c0.14-1.11,0.29-2.21,0.43-3.32c1.21-1.65,1.87-3.44,1.58-5.51c0.2-0.74,0.4-1.49,0.6-2.23
	c2.16-4.17,3.06-8.77,4.46-13.21c1.14-1.69,2.14-3.43,2.23-5.55c1-1.3,2.01-2.63,1.96-4.4c1.54-1.61,2.43-3.59,3.1-5.67
	c0.98-0.83,1.54-1.87,1.61-3.15c3.77-5.69,7.52-11.38,11.29-17.07c1.12-0.6,1.94-1.41,2.12-2.74c2.57-2.86,5.15-5.69,7.7-8.57
	c10.13-11.49,22.13-20.89,34.11-30.32c1.88-0.43,3.32-1.54,4.44-3.1c0.72-0.43,1.45-0.87,2.17-1.3c1.23-0.13,2.14-0.76,2.79-1.78
	c2.01-1.27,4.02-2.54,6.03-3.81c1.21-0.09,2.16-0.69,2.88-1.67c5.67-3.1,11.33-6.2,17-9.28c1.32,0.09,2.23-0.67,3.08-1.52
	c0.45-0.22,0.89-0.43,1.34-0.65c0.98,0.2,1.63-0.33,2.21-1.03c1.41,0.13,2.41-0.62,3.32-1.56c2.07-0.02,3.64-1.18,5.27-2.23
	c3.39-1.41,6.78-2.83,10.17-4.24c3.15,0.15,5.49-3.39,8.92-1.96c0.47,0.76,0.96,1.54,1.43,2.3c-0.11,1.29,0.56,2.1,1.65,2.65
	l-0.05,0.43l0.36,0.25c1.45,3.9,3.57,7.39,6.22,10.58c0.51,0.89,1.01,1.78,1.5,2.66c0.54,1.9,1.23,3.71,2.97,4.87
	c0.65,2.3,1.76,4.31,3.52,5.94c0.16,1.9,1.36,3.23,2.48,4.6c-0.02,1.14,0.56,1.88,1.52,2.37c2.56,5.38,5.44,10.58,9.1,15.31
	c-0.11,1.43,0.74,2.37,1.7,3.26c-0.04,1.21,0.47,2.05,1.61,2.5c0.11,1.27,0.53,2.34,1.78,2.92c2.12,5.2,5.2,9.84,8.32,14.46
	c0.34,1.78,1.18,3.28,2.61,4.4c0.11,1.12,0.38,2.14,1.56,2.61c0.43,1.99,1.63,3.55,2.86,5.09c-0.07,1.23,0.58,2.01,1.61,2.54
	c-0.13,0.38,0,0.65,0.38,0.8c1.45,3.75,3.39,7.23,6.07,10.26l0.22-0.22L491.2,580c1.01,2.9,2.3,5.64,4.62,7.77
	c-0.13,0.38-0.02,0.63,0.36,0.78c0.63,2.46,1.96,4.53,3.7,6.36c0.29,0.45,0.58,0.91,0.87,1.36c0.09,1.18,0.4,2.23,1.59,2.75
	c0.53,0.92,1.05,1.85,1.59,2.77c1.76,4.29,4.13,8.23,6.94,11.91c0.25,0.45,0.53,0.89,0.78,1.34c0.09,1.2,0.33,2.66,1.76,2.46
	c1.09-0.16,1.16-1.47,0.6-2.52c0.09-1.85,0.18-3.7,0.27-5.55c2.08-12.03,2.59-24.21,3.04-36.37c0.18-2.57,0.34-5.13,0.53-7.7
	c1.25-8.06,2.25-16.13,1.7-24.32c0.62-1.07,0.65-2.17,0.29-3.33c1.18-2.85,1.47-5.78,0.87-8.81c0.63-2.52,1.2-5.04,0.04-7.56
	c0.2-1.3-0.47-2.21-1.32-3.06l-0.2-0.34c-1.9-4.77-3.82-9.53-5.73-14.3c-0.98-4.15-2.48-8.08-4.91-11.62
	c-0.22-0.54-0.43-1.09-0.65-1.61c0.31-1.03-0.13-1.74-1.01-2.25c-0.43-1.07-0.89-2.16-1.32-3.23c-0.38-1.4-0.6-2.86-1.18-4.15
	c-1.18-2.63-0.05-3.23,2.36-3.21c22.16,0.04,44.33,0.04,66.47,0c3.24,0,3.79,1.23,2.54,4.06c-1.59,3.64-3.75,7.07-4.44,11.07
	c-0.2,0.58-0.4,1.16-0.6,1.76c-2.03,1.47-2.25,3.79-2.85,5.93c-0.18,0.56-0.36,1.12-0.54,1.69c-1.87,1.59-2.39,3.77-2.74,6.05
	c-0.65,1.61-1.32,3.21-1.98,4.82l-0.13,0.14c-1.14,1.47-2.1,3.01-2.16,4.97c-1.16,2.01-2.65,3.93-1.78,6.51
	c-0.49,6.34,0.47,12.56,1.52,18.77c0.05,1.11,0.11,2.23,0.16,3.33c-0.22,8.88,1.05,17.65,2.07,26.44c0.05,0.74,0.11,1.47,0.16,2.21
	c-0.47,4.1-0.02,8.12,1.11,12.07c-0.49,3.01-0.07,5.94,0.54,8.88c-0.42,7.23,0.96,14.26,1.43,22c2.32-1.54,2.85-2.85,3.08-4.31
	c2.99-4.44,5.96-8.88,8.08-13.83c1.11-0.58,1.76-1.43,1.69-2.75c0.85-0.74,1.58-1.54,1.63-2.74c0.98-0.67,1.7-1.5,1.7-2.77
	c3.1-4.44,5.96-8.99,8.15-13.95c1.63-1.2,2.46-2.9,2.94-4.8c0.38-0.13,0.49-0.38,0.34-0.76c1.69-1.14,2.41-2.9,2.95-4.77
	c0.53-0.91,1.05-1.81,1.58-2.72c1.11-0.62,1.52-1.61,1.63-2.81c2.03-2.56,3.86-5.26,4.93-8.39c1.72-1.16,2.39-2.97,3.01-4.84
	c0.51-0.87,1.01-1.76,1.52-2.63c1.07-0.67,1.56-1.69,1.69-2.9c1.03-0.63,1.4-1.63,1.56-2.75c3.86-4.93,7-10.29,9.51-16.02
	c0.27-0.43,0.56-0.87,0.83-1.32C623.78,522.25,624.83,520.98,624.96,519.15z M694.02,643.47l0.18-0.2
	c1.29-4.15,0.94-8.34,0.24-12.52c-0.49-2.36,2.54-6.36-2.99-6.34c-8.52-0.82-17.05-0.71-25.57,0c-0.65,0.05-1.3,0.09-1.96,0.15
	c-8.84-0.63-17.69-0.54-26.55-0.07c-3.37-0.8-6.72-0.78-10.09-0.04c-1.41-0.36-2.83-0.45-4.24,0.07c-0.34-0.02-0.96-0.11-0.98-0.02
	c-1.78,6.4-1.61,12.81-0.05,19.23c0.02,0.07,0.65,0,1,0c7.72,0.04,15.42,0.07,23.14,0.11c4.4,0.74,8.79,0.69,13.19,0
	c7.74,0,15.49-0.02,23.23-0.02C686.39,644.28,690.23,645.01,694.02,643.47z"/>
<path class="st7" d="M660.77,279.23c0.16,0.91,0.34,1.79,0.51,2.7c-0.54,2.1,0.07,3.88,1.45,5.47c0.2,1.43,0.42,2.85,0.62,4.28
	c-0.63,3.88,0.72,7.48,1.5,11.18c0.15,2.9,0.27,5.8,0.42,8.72c-0.71,2.68-0.69,5.36-0.02,8.05c-0.16,3.26-0.31,6.52-0.47,9.79
	c-1.2,3.64-2.1,7.32-1.63,11.22c-0.18,1.05-0.36,2.1-0.56,3.14c-1.34,1.61-1.88,3.43-1.36,5.51c-0.09,0.58-0.2,1.14-0.29,1.72
	c-1.83,2.1-2.12,4.66-2.16,7.27c-1.03,1.23-1.43,2.7-1.54,4.28c-2.37,3.82-3.99,7.96-5.24,12.27c-1.45,2.9-2.9,5.78-4.35,8.68
	c-1.32,0.58-1.59,1.83-1.96,3.03c-1.21,0.45-1.61,1.4-1.56,2.59c-3.5,4.69-7,9.39-10.49,14.08c-1.2,0.34-1.92,1.09-2.05,2.37
	c-3.68,3.71-7.38,7.41-11.05,11.13c-1.14,0.25-2.08,0.76-2.41,2.01c-1.03,0.82-2.07,1.63-3.1,2.45c-1.25,0.11-2.07,0.76-2.43,1.98
	c-0.65,0.49-1.32,1-1.98,1.49c-1.21,0.07-2.16,0.53-2.56,1.74c-0.36-0.02-0.6,0.13-0.76,0.45c-1.27-0.05-2.17,0.49-2.65,1.7
	c-0.94,0.6-1.88,1.2-2.85,1.78c-1.14,0.05-2.17,0.29-2.56,1.58c-0.6,0.31-1.2,0.6-1.79,0.91c-1.81-0.25-2.92,0.94-4.11,1.98
	c-0.49,0.31-0.98,0.62-1.47,0.92c-7,2.57-14.01,5.16-21,7.74c-0.71,0.15-1.4,0.29-2.1,0.43c-2.81-0.34-5.31,0.78-7.86,1.63
	c-0.71,0.09-1.41,0.18-2.1,0.27c-9.3,0.42-18.52,1.69-27.89,0.82c-8.92-0.83-17.54-3.08-26.31-4.57c-0.6-0.13-1.2-0.24-1.78-0.36
	c-4.93-3.26-10.71-4.6-16.02-6.96c-1.29-0.62-2.57-1.23-3.86-1.87c-0.63-1.01-1.49-1.61-2.74-1.52c-2.08-1.29-4.15-2.59-6.23-3.88
	c-0.51-1.11-1.36-1.69-2.59-1.69c-1.12-0.72-2.27-1.47-3.39-2.19c-0.49-0.4-1-0.8-1.49-1.2c-1.18-1.7-2.81-2.83-4.64-3.7
	c-1.25-1.78-2.66-3.35-4.71-4.26c-4.46-4.78-8.93-9.57-13.39-14.37c-0.13-1.21-0.83-2.01-1.9-2.54c-0.74-2.07-2.1-3.7-3.66-5.18
	c-0.04-1.27-0.76-2.07-1.81-2.63c-0.58-0.96-1.14-1.9-1.72-2.86c0.09-1.27-0.53-2.07-1.63-2.57c-0.02-0.87-0.18-1.65-1.18-1.92
	c-0.09-1.3-0.69-2.36-1.65-3.23c-0.11-1.14-0.45-2.17-1.4-2.92c-0.83-2.46-1.65-4.91-3.32-7c-2.39-7.36-4.8-14.73-7.19-22.09
	c-0.13-0.74-0.24-1.47-0.36-2.21c-1.07-8.06-2.14-16.13-3.21-24.19c0-3.41,0.02-6.8,0.02-10.2c1.29-11.09,3.01-22.13,5.18-33.07
	c0.18-0.72,0.36-1.45,0.56-2.19c2.54-4.1,3.64-8.72,4.93-13.27c1.09-1.49,2.16-3.01,2.17-4.97c1.09-0.6,1.65-1.47,1.43-2.74
	c1.32-2.48,2.65-4.97,3.95-7.45c1.76-1.05,2.3-2.86,2.88-4.64c0.42-0.09,0.58-0.33,0.47-0.74c1.01-0.56,1.59-1.41,1.76-2.56
	c0.42-0.09,0.56-0.34,0.45-0.76c1.09-0.51,1.81-1.29,1.85-2.54c2.66-3.28,5.31-6.56,7.97-9.86c1.23-0.29,1.85-1.12,2.03-2.34
	c2.25-2.21,4.48-4.42,6.72-6.65c1.65-0.53,2.74-1.63,3.43-3.19c5.13-3.81,10.28-7.63,15.4-11.43c0.82-0.49,1.63-0.98,2.45-1.47
	c1.59,0,2.63-1,3.68-2.01c0.49-0.31,1-0.6,1.49-0.91c8.12-3.26,16.24-6.52,24.36-9.77c0.69-0.13,1.4-0.27,2.08-0.4
	c4.78-1.12,9.84-1,14.44-3.03c1.43-0.15,2.86-0.27,4.31-0.42c7.1-0.02,14.21-0.05,21.31-0.07c1.81,0.16,3.61,0.31,5.42,0.47
	c15.82,3.01,30.93,8.1,45.29,15.46c2.03,1.3,4.06,2.61,6.11,3.91c0.78,1.32,1.96,2.03,3.46,2.21c0.82,1.47,1.94,2.54,3.66,2.85
	c4.84,4.24,9.7,8.5,14.53,12.74c0.6,1.29,1.34,2.45,2.77,2.95c0.49,0.69,1,1.38,1.49,2.07c0.43,1.69,1.47,2.88,3.08,3.53
	c0.49,0.65,1,1.3,1.49,1.96c-0.04,1.29,0.69,2.03,1.81,2.48c1.23,1.76,2.46,3.5,3.7,5.26c-0.02,1.27,0.62,2.08,1.76,2.57
	c-0.04,0.34,0.09,0.6,0.38,0.76c0.42,1.94,1.09,3.7,2.88,4.82c0.91,1.7,1.81,3.41,2.72,5.09c0.53,2.16,0.83,4.42,2.86,5.84
	c0.22,0.62,0.43,1.23,0.65,1.83c-0.27,1.3,0.36,2.14,1.45,2.72c-0.11,0.34,0.02,0.58,0.34,0.72c0.16,0.69,0.34,1.4,0.51,2.08
	C657.25,270.86,658.55,275.19,660.77,279.23z"/>
</svg>
