<svg width="760" height="669" viewBox="0 0 760 669" fill="none" xmlns="http://www.w3.org/2000/svg">
<g opacity="0.04">
<path d="M197.615 0L633.289 273.757L754.71 360.568L703.133 668.902H728.856L760 360.568L636.982 273.757L206.672 0H197.615Z" fill="#0E2245"/>
<path d="M169.844 0L622.137 273.757L738.611 360.568L623.721 668.902H648.203L743.644 360.568L625.652 273.757L178.461 0H169.844Z" fill="#0E2245"/>
<path d="M141.002 0L609.917 273.757L721.442 360.568L543.239 668.902H566.478L726.219 360.568L613.254 273.757L149.184 0H141.002Z" fill="#0E2245"/>
<path d="M113.228 0L598.764 273.757L705.337 360.568L463.824 668.902H485.821L709.862 360.568L601.92 273.757L120.972 0H113.228Z" fill="#0E2245"/>
<path d="M85.4551 0L587.61 273.757L689.236 360.568L384.412 668.902H405.167L693.504 360.568L590.591 273.757L92.7638 0H85.4551Z" fill="#0E2245"/>
<path d="M57.6826 0L576.458 273.757L673.132 360.568L304.997 668.902H324.511L677.144 360.568L579.258 273.757L64.5514 0H57.6826Z" fill="#0E2245"/>
<path d="M28.8418 0L564.237 273.757L653.786 360.568L211.121 668.902H242.787L659.721 360.568L566.858 273.757L35.2757 0H28.8418Z" fill="#0E2245"/>
<path d="M0 0L551.115 273.757L633.922 360.61L107.466 668.902H145.956L640.91 360.61L555.548 273.757L7.08379 0H0Z" fill="#0E2245"/>
</g>
</svg>
