<svg width="688" height="1073" viewBox="0 0 688 1073" fill="none" xmlns="http://www.w3.org/2000/svg">
<g opacity="0.04" clip-path="url(#clip0_2_1857)">
<path d="M1021.53 0.652344L231.216 439.153L10.958 578.205L104.519 1072.09H57.8574L1.3623 578.205L224.516 439.153L1005.1 0.652344H1021.53Z" fill="#0E2245"/>
<path d="M1071.91 0.652344L251.446 439.153L40.1638 578.205L248.574 1072.09H204.163L31.0337 578.205L245.071 439.153L1056.27 0.652344H1071.91Z" fill="#0E2245"/>
<path d="M1124.22 0.652344L273.614 439.153L71.3083 578.205L394.568 1072.09H352.412L62.6436 578.205L267.561 439.153L1109.38 0.652344H1124.22Z" fill="#0E2245"/>
<path d="M1174.61 0.652344L293.844 439.153L100.521 578.205L538.626 1072.09H498.722L92.3137 578.205L288.119 439.153L1160.56 0.652344H1174.61Z" fill="#0E2245"/>
<path d="M1224.98 0.652344L314.077 439.153L129.727 578.205L682.677 1072.09H645.028L121.985 578.205L308.67 439.153L1211.73 0.652344H1224.98Z" fill="#0E2245"/>
<path d="M1275.36 0.652344L334.308 439.153L158.941 578.205L826.736 1072.09H791.338L151.664 578.205L329.228 439.153L1262.9 0.652344H1275.36Z" fill="#0E2245"/>
<path d="M1327.68 0.652344L356.476 439.153L194.036 578.205L997.028 1072.09H939.587L183.27 578.205L351.722 439.153L1316.01 0.652344H1327.68Z" fill="#0E2245"/>
<path d="M1380 0.652344L380.28 439.153L230.068 578.272L1185.06 1072.09H1115.24L217.391 578.272L372.238 439.153L1367.15 0.652344H1380Z" fill="#0E2245"/>
</g>
<defs>
<clipPath id="clip0_2_1857">
<rect width="690" height="1073" fill="white" transform="matrix(-1 0 0 1 690 0)"/>
</clipPath>
</defs>
</svg>
