<svg width="808" height="652" viewBox="0 0 808 652" fill="none" xmlns="http://www.w3.org/2000/svg">
<rect x="49.8242" y="89.9178" width="236.059" height="400" rx="80" transform="rotate(7.15541 49.8242 89.9178)" fill="#EDDC92"/>
<mask id="mask0_844_4976" style="mask-type:alpha" maskUnits="userSpaceOnUse" x="9" y="99" width="266" height="408">
<rect x="49.8242" y="89.9178" width="236.059" height="400" rx="80" transform="rotate(7.15541 49.8242 89.9178)" fill="#E2D188"/>
</mask>
<g mask="url(#mask0_844_4976)">
<path d="M215.236 542.915L149.31 542.529C149.002 542.528 148.762 542.285 148.764 541.977C148.766 541.67 149.009 541.43 149.316 541.431L214.792 541.814L284.372 473.042L401.587 473.727L449.072 521.771L563.367 522.439L690.301 396.979C690.522 396.761 690.862 396.763 691.081 396.984C691.299 397.205 691.297 397.545 691.076 397.763L563.81 523.55L448.616 522.877L401.13 474.833L284.827 474.154L215.247 542.926L215.236 542.915Z" fill="black"/>
<path d="M415.941 497.782C411.648 497.757 408.187 494.245 408.212 489.962C408.237 485.68 411.75 482.209 416.032 482.234C420.314 482.259 423.786 485.771 423.761 490.053C423.736 494.336 420.223 497.807 415.941 497.782ZM416.026 483.321C412.347 483.299 409.332 486.279 409.311 489.958C409.289 493.636 412.269 496.651 415.948 496.673C419.626 496.694 422.641 493.714 422.663 490.036C422.684 486.357 419.704 483.342 416.026 483.321Z" fill="black"/>
<path d="M415.957 495.07C418.753 495.086 421.032 492.833 421.048 490.037C421.065 487.242 418.812 484.962 416.016 484.946C413.22 484.93 410.941 487.183 410.925 489.978C410.908 492.774 413.161 495.053 415.957 495.07Z" fill="black"/>
<path d="M260.63 503.375C264.014 503.395 266.773 500.667 266.793 497.284C266.813 493.9 264.086 491.141 260.702 491.121C257.318 491.101 254.559 493.828 254.539 497.212C254.519 500.596 257.246 503.355 260.63 503.375Z" fill="black"/>
<path d="M516.737 528.963C520.121 528.983 522.88 526.256 522.9 522.872C522.92 519.488 520.193 516.729 516.809 516.709C513.425 516.689 510.666 519.416 510.646 522.8C510.626 526.184 513.354 528.943 516.737 528.963Z" fill="black"/>
<path d="M240.308 519.826C241.624 519.834 242.697 518.773 242.704 517.457C242.712 516.141 241.652 515.068 240.336 515.06C239.02 515.053 237.947 516.113 237.939 517.429C237.931 518.745 238.992 519.818 240.308 519.826Z" fill="black"/>
<path d="M217.623 495.402L151.697 495.017C151.39 495.015 151.15 494.772 151.152 494.465C151.153 494.157 151.396 493.917 151.704 493.919L217.179 494.301L286.76 425.53L403.975 426.215L451.46 474.258L565.754 474.926L692.689 349.467C692.91 349.248 693.25 349.25 693.468 349.471C693.686 349.692 693.685 350.033 693.464 350.251L566.198 476.038L451.003 475.365L403.518 427.321L287.214 426.641L217.634 495.413L217.623 495.402Z" fill="black"/>
<path d="M418.329 450.269C414.035 450.244 410.575 446.732 410.6 442.45C410.625 438.168 414.137 434.696 418.42 434.721C422.702 434.746 426.173 438.258 426.148 442.541C426.123 446.823 422.611 450.294 418.329 450.269ZM418.413 435.808C414.735 435.787 411.72 438.767 411.698 442.445C411.677 446.124 414.657 449.139 418.335 449.16C422.014 449.182 425.029 446.202 425.05 442.523C425.072 438.845 422.092 435.83 418.413 435.808Z" fill="black"/>
<path d="M418.345 447.557C421.14 447.574 423.42 445.321 423.436 442.525C423.452 439.729 421.199 437.45 418.404 437.433C415.608 437.417 413.329 439.67 413.312 442.466C413.296 445.261 415.549 447.541 418.345 447.557Z" fill="black"/>
<path d="M263.018 455.862C266.402 455.882 269.161 453.155 269.181 449.771C269.201 446.387 266.473 443.628 263.09 443.608C259.706 443.589 256.947 446.316 256.927 449.7C256.907 453.083 259.634 455.843 263.018 455.862Z" fill="black"/>
<path d="M519.125 481.451C522.509 481.47 525.268 478.743 525.288 475.359C525.308 471.976 522.58 469.216 519.197 469.197C515.813 469.177 513.054 471.904 513.034 475.288C513.014 478.672 515.741 481.431 519.125 481.451Z" fill="black"/>
<path d="M242.695 472.314C244.011 472.321 245.084 471.261 245.092 469.945C245.1 468.629 244.039 467.556 242.723 467.548C241.407 467.54 240.334 468.601 240.327 469.917C240.319 471.233 241.379 472.306 242.695 472.314Z" fill="black"/>
<path d="M221.652 455.636L155.726 455.251C155.418 455.249 155.178 455.006 155.18 454.699C155.182 454.391 155.425 454.151 155.732 454.153L221.208 454.535L290.788 385.764L408.003 386.449L455.489 434.492L569.783 435.16L696.717 309.701C696.938 309.482 697.278 309.484 697.497 309.705C697.715 309.926 697.713 310.266 697.492 310.485L570.226 436.272L455.032 435.598L407.547 387.555L291.243 386.875L221.663 455.647L221.652 455.636Z" fill="black"/>
<path d="M422.357 410.503C418.064 410.478 414.603 406.966 414.629 402.684C414.654 398.401 418.166 394.93 422.448 394.955C426.73 394.98 430.202 398.492 430.177 402.775C430.152 407.057 426.64 410.528 422.357 410.503ZM422.442 396.042C418.763 396.021 415.748 399.001 415.727 402.679C415.705 406.358 418.685 409.373 422.364 409.394C426.042 409.416 429.057 406.436 429.079 402.757C429.1 399.079 426.12 396.064 422.442 396.042Z" fill="black"/>
<path d="M422.373 407.791C425.169 407.807 427.448 405.554 427.465 402.759C427.481 399.963 425.228 397.684 422.432 397.667C419.637 397.651 417.357 399.904 417.341 402.7C417.324 405.495 419.577 407.775 422.373 407.791Z" fill="black"/>
<path d="M267.046 416.096C270.43 416.116 273.189 413.389 273.209 410.005C273.229 406.621 270.502 403.862 267.118 403.842C263.734 403.822 260.975 406.55 260.955 409.933C260.935 413.317 263.663 416.076 267.046 416.096Z" fill="black"/>
<path d="M523.154 441.685C526.537 441.704 529.296 438.977 529.316 435.593C529.336 432.209 526.609 429.45 523.225 429.431C519.841 429.411 517.082 432.138 517.062 435.522C517.042 438.906 519.77 441.665 523.154 441.685Z" fill="black"/>
<path d="M246.724 432.547C248.04 432.555 249.113 431.495 249.12 430.179C249.128 428.863 248.068 427.79 246.752 427.782C245.436 427.774 244.363 428.835 244.355 430.151C244.347 431.467 245.408 432.54 246.724 432.547Z" fill="black"/>
<path d="M207.734 413.445L141.808 413.06C141.5 413.058 141.26 412.815 141.262 412.508C141.264 412.201 141.507 411.96 141.814 411.962L207.29 412.345L276.87 343.573L394.085 344.258L441.571 392.301L555.865 392.969L682.799 267.51C683.02 267.292 683.36 267.294 683.579 267.515C683.797 267.735 683.795 268.076 683.574 268.294L556.308 394.081L441.114 393.408L393.629 345.364L277.325 344.685L207.745 413.456L207.734 413.445Z" fill="black"/>
<path d="M408.439 368.313C404.146 368.288 400.685 364.776 400.711 360.493C400.736 356.211 404.248 352.74 408.53 352.765C412.812 352.79 416.284 356.302 416.259 360.584C416.234 364.866 412.721 368.338 408.439 368.313ZM408.524 353.852C404.845 353.83 401.83 356.81 401.809 360.489C401.787 364.167 404.767 367.182 408.446 367.204C412.124 367.225 415.139 364.245 415.161 360.567C415.182 356.888 412.202 353.873 408.524 353.852Z" fill="black"/>
<path d="M408.455 365.601C411.251 365.617 413.53 363.364 413.546 360.568C413.563 357.773 411.31 355.493 408.514 355.477C405.718 355.46 403.439 357.713 403.423 360.509C403.406 363.305 405.659 365.584 408.455 365.601Z" fill="black"/>
<path d="M253.128 373.906C256.512 373.925 259.271 371.198 259.291 367.814C259.311 364.431 256.584 361.671 253.2 361.652C249.816 361.632 247.057 364.359 247.037 367.743C247.017 371.127 249.744 373.886 253.128 373.906Z" fill="black"/>
<path d="M509.235 399.494C512.619 399.514 515.378 396.787 515.398 393.403C515.418 390.019 512.691 387.26 509.307 387.24C505.923 387.22 503.164 389.947 503.144 393.331C503.124 396.715 505.852 399.474 509.235 399.494Z" fill="black"/>
<path d="M232.806 390.357C234.122 390.364 235.195 389.304 235.202 387.988C235.21 386.672 234.15 385.599 232.834 385.591C231.518 385.584 230.445 386.644 230.437 387.96C230.429 389.276 231.49 390.349 232.806 390.357Z" fill="black"/>
<path d="M214.467 580.434L148.541 580.048C148.234 580.047 147.993 579.804 147.995 579.496C147.997 579.189 148.24 578.949 148.547 578.95L214.023 579.333L283.603 510.561L400.818 511.246L448.304 559.29L562.598 559.958L689.532 434.498C689.753 434.28 690.093 434.282 690.312 434.503C690.53 434.724 690.528 435.064 690.307 435.282L563.042 561.069L447.847 560.396L400.362 512.353L284.058 511.673L214.478 580.445L214.467 580.434Z" fill="black"/>
<path d="M415.172 535.301C410.879 535.276 407.419 531.764 407.444 527.481C407.469 523.199 410.981 519.728 415.263 519.753C419.546 519.778 423.017 523.29 422.992 527.572C422.967 531.855 419.455 535.326 415.172 535.301ZM415.257 520.84C411.578 520.818 408.563 523.798 408.542 527.477C408.52 531.155 411.5 534.17 415.179 534.192C418.857 534.213 421.872 531.233 421.894 527.555C421.915 523.877 418.935 520.861 415.257 520.84Z" fill="black"/>
<path d="M415.188 532.589C417.984 532.605 420.263 530.352 420.28 527.556C420.296 524.761 418.043 522.481 415.247 522.465C412.452 522.449 410.172 524.702 410.156 527.497C410.139 530.293 412.393 532.573 415.188 532.589Z" fill="black"/>
<path d="M259.862 540.894C263.245 540.914 266.005 538.187 266.024 534.803C266.044 531.419 263.317 528.66 259.933 528.64C256.549 528.62 253.79 531.347 253.77 534.731C253.751 538.115 256.478 540.874 259.862 540.894Z" fill="black"/>
<path d="M515.969 566.482C519.352 566.502 522.112 563.775 522.131 560.391C522.151 557.007 519.424 554.248 516.04 554.228C512.656 554.208 509.897 556.936 509.877 560.319C509.858 563.703 512.585 566.462 515.969 566.482Z" fill="black"/>
<path d="M239.539 557.345C240.855 557.353 241.928 556.292 241.936 554.976C241.943 553.66 240.883 552.587 239.567 552.58C238.251 552.572 237.178 553.632 237.17 554.948C237.162 556.264 238.223 557.337 239.539 557.345Z" fill="black"/>
<path d="M219.294 363.679L153.368 363.293C153.061 363.292 152.821 363.049 152.822 362.741C152.824 362.434 153.067 362.194 153.375 362.195L218.85 362.578L288.431 293.806L405.646 294.491L453.131 342.535L567.425 343.203L694.359 217.743C694.58 217.525 694.921 217.527 695.139 217.748C695.357 217.969 695.355 218.309 695.134 218.527L567.869 344.314L452.674 343.641L405.189 295.598L288.885 294.918L219.305 363.69L219.294 363.679Z" fill="black"/>
<path d="M420 318.546C415.706 318.521 412.246 315.009 412.271 310.726C412.296 306.444 415.808 302.973 420.09 302.998C424.373 303.023 427.844 306.535 427.819 310.817C427.794 315.1 424.282 318.571 420 318.546ZM420.084 304.085C416.406 304.063 413.391 307.043 413.369 310.722C413.348 314.4 416.328 317.415 420.006 317.437C423.684 317.458 426.7 314.478 426.721 310.8C426.743 307.121 423.762 304.106 420.084 304.085Z" fill="black"/>
<path d="M420.015 315.834C422.811 315.85 425.091 313.597 425.107 310.801C425.123 308.006 422.87 305.726 420.075 305.71C417.279 305.694 414.999 307.947 414.983 310.742C414.967 313.538 417.22 315.817 420.015 315.834Z" fill="black"/>
<path d="M264.689 324.139C268.073 324.159 270.832 321.431 270.852 318.048C270.871 314.664 268.144 311.905 264.76 311.885C261.377 311.865 258.617 314.592 258.598 317.976C258.578 321.36 261.305 324.119 264.689 324.139Z" fill="black"/>
<path d="M520.796 349.727C524.18 349.747 526.939 347.02 526.959 343.636C526.978 340.252 524.251 337.493 520.867 337.473C517.484 337.453 514.724 340.18 514.705 343.564C514.685 346.948 517.412 349.707 520.796 349.727Z" fill="black"/>
<path d="M244.366 340.59C245.682 340.598 246.755 339.537 246.763 338.221C246.771 336.905 245.71 335.832 244.394 335.825C243.078 335.817 242.005 336.877 241.997 338.193C241.99 339.509 243.05 340.582 244.366 340.59Z" fill="black"/>
<path d="M213.536 324.74L147.61 324.355C147.303 324.353 147.063 324.11 147.065 323.803C147.066 323.495 147.309 323.255 147.617 323.257L213.092 323.64L282.673 254.868L399.888 255.553L447.373 303.596L561.667 304.264L688.602 178.805C688.823 178.587 689.163 178.589 689.381 178.809C689.6 179.03 689.598 179.371 689.377 179.589L562.111 305.376L446.916 304.703L399.431 256.659L283.127 255.98L213.547 324.751L213.536 324.74Z" fill="black"/>
<path d="M414.242 279.608C409.948 279.582 406.488 276.07 406.513 271.788C406.538 267.506 410.05 264.034 414.333 264.059C418.615 264.084 422.086 267.597 422.061 271.879C422.036 276.161 418.524 279.633 414.242 279.608ZM414.326 265.146C410.648 265.125 407.633 268.105 407.611 271.784C407.59 275.462 410.57 278.477 414.248 278.499C417.927 278.52 420.942 275.54 420.963 271.862C420.985 268.183 418.005 265.168 414.326 265.146Z" fill="black"/>
<path d="M414.258 276.895C417.053 276.912 419.333 274.659 419.349 271.863C419.365 269.067 417.112 266.788 414.317 266.772C411.521 266.755 409.242 269.008 409.225 271.804C409.209 274.6 411.462 276.879 414.258 276.895Z" fill="black"/>
<path d="M258.931 285.201C262.315 285.22 265.074 282.493 265.094 279.109C265.114 275.725 262.386 272.966 259.003 272.946C255.619 272.927 252.859 275.654 252.84 279.038C252.82 282.422 255.547 285.181 258.931 285.201Z" fill="black"/>
<path d="M515.038 310.789C518.422 310.809 521.181 308.081 521.201 304.698C521.221 301.314 518.493 298.555 515.11 298.535C511.726 298.515 508.967 301.242 508.947 304.626C508.927 308.01 511.654 310.769 515.038 310.789Z" fill="black"/>
<path d="M238.608 301.652C239.924 301.659 240.997 300.599 241.005 299.283C241.013 297.967 239.952 296.894 238.636 296.886C237.32 296.879 236.247 297.939 236.24 299.255C236.232 300.571 237.292 301.644 238.608 301.652Z" fill="black"/>
<path d="M-1.03883 442.723L-66.9647 442.338C-67.2722 442.336 -67.5123 442.093 -67.5105 441.786C-67.5087 441.478 -67.2658 441.238 -66.9583 441.24L-1.48261 441.622L68.0977 372.851L185.313 373.536L232.798 421.579L347.092 422.247L474.027 296.788C474.247 296.569 474.588 296.571 474.806 296.792C475.024 297.013 475.022 297.353 474.802 297.572L347.536 423.359L232.341 422.685L184.856 374.642L68.5524 373.962L-1.02793 442.734L-1.03883 442.723Z" fill="black"/>
<path d="M199.667 397.59C195.373 397.565 191.913 394.053 191.938 389.771C191.963 385.489 195.475 382.017 199.757 382.042C204.04 382.067 207.511 385.579 207.486 389.862C207.461 394.144 203.949 397.615 199.667 397.59ZM199.751 383.129C196.073 383.108 193.058 386.088 193.036 389.766C193.015 393.445 195.995 396.46 199.673 396.481C203.351 396.503 206.367 393.523 206.388 389.844C206.41 386.166 203.43 383.151 199.751 383.129Z" fill="black"/>
<path d="M199.682 394.878C202.478 394.894 204.758 392.641 204.774 389.846C204.79 387.05 202.537 384.771 199.742 384.754C196.946 384.738 194.666 386.991 194.65 389.787C194.634 392.582 196.887 394.862 199.682 394.878Z" fill="black"/>
<path d="M44.3558 403.183C47.7397 403.203 50.4989 400.476 50.5187 397.092C50.5384 393.708 47.8113 390.949 44.4274 390.929C41.0436 390.909 38.2844 393.637 38.2646 397.02C38.2448 400.404 40.972 403.163 44.3558 403.183Z" fill="black"/>
<path d="M300.463 428.772C303.847 428.791 306.606 426.064 306.626 422.68C306.646 419.297 303.918 416.537 300.535 416.518C297.151 416.498 294.391 419.225 294.372 422.609C294.352 425.993 297.079 428.752 300.463 428.772Z" fill="black"/>
<path d="M24.0333 419.634C25.3492 419.642 26.4222 418.582 26.4299 417.266C26.4376 415.95 25.3771 414.877 24.0611 414.869C22.7452 414.861 21.6721 415.922 21.6644 417.238C21.6567 418.554 22.7173 419.627 24.0333 419.634Z" fill="black"/>
<path d="M1.34874 395.211L-64.5771 394.825C-64.8846 394.824 -65.1247 394.581 -65.123 394.273C-65.1212 393.966 -64.8782 393.726 -64.5707 393.727L0.904964 394.11L70.4853 325.338L187.7 326.023L235.186 374.067L349.48 374.735L476.414 249.275C476.635 249.057 476.975 249.059 477.194 249.28C477.412 249.501 477.41 249.841 477.189 250.059L349.923 375.846L234.729 375.173L187.244 327.13L70.94 326.45L1.35964 395.222L1.34874 395.211Z" fill="black"/>
<path d="M202.054 350.078C197.761 350.053 194.301 346.541 194.326 342.258C194.351 337.976 197.863 334.505 202.145 334.53C206.427 334.555 209.899 338.067 209.874 342.349C209.849 346.632 206.336 350.103 202.054 350.078ZM202.139 335.617C198.46 335.595 195.445 338.575 195.424 342.254C195.402 345.932 198.382 348.947 202.061 348.969C205.739 348.99 208.754 346.01 208.776 342.332C208.797 338.653 205.817 335.638 202.139 335.617Z" fill="black"/>
<path d="M202.07 347.366C204.866 347.382 207.145 345.129 207.162 342.333C207.178 339.538 204.925 337.258 202.129 337.242C199.334 337.226 197.054 339.479 197.038 342.274C197.021 345.07 199.274 347.349 202.07 347.366Z" fill="black"/>
<path d="M46.7434 355.671C50.1273 355.691 52.8865 352.964 52.9063 349.58C52.926 346.196 50.1989 343.437 46.815 343.417C43.4312 343.397 40.672 346.124 40.6522 349.508C40.6324 352.892 43.3596 355.651 46.7434 355.671Z" fill="black"/>
<path d="M302.85 381.259C306.234 381.279 308.994 378.552 309.013 375.168C309.033 371.784 306.306 369.025 302.922 369.005C299.538 368.985 296.779 371.712 296.759 375.096C296.739 378.48 299.467 381.239 302.85 381.259Z" fill="black"/>
<path d="M26.4208 372.122C27.7368 372.13 28.8098 371.069 28.8175 369.753C28.8252 368.437 27.7646 367.364 26.4487 367.357C25.1327 367.349 24.0597 368.409 24.052 369.725C24.0443 371.041 25.1049 372.114 26.4208 372.122Z" fill="black"/>
<path d="M5.37722 355.444L-60.5487 355.059C-60.8561 355.057 -61.0963 354.814 -61.0945 354.507C-61.0927 354.2 -60.8497 353.959 -60.5423 353.961L4.93344 354.344L74.5137 285.572L191.729 286.257L239.214 334.301L353.508 334.968L480.443 209.509C480.663 209.291 481.004 209.293 481.222 209.514C481.44 209.734 481.438 210.075 481.218 210.293L353.952 336.08L238.757 335.407L191.272 287.363L74.9684 286.684L5.38811 355.456L5.37722 355.444Z" fill="black"/>
<path d="M206.083 310.312C201.789 310.287 198.329 306.775 198.354 302.492C198.379 298.21 201.891 294.739 206.174 294.764C210.456 294.789 213.927 298.301 213.902 302.583C213.877 306.865 210.365 310.337 206.083 310.312ZM206.167 295.851C202.489 295.829 199.474 298.809 199.452 302.488C199.431 306.166 202.411 309.181 206.089 309.203C209.768 309.224 212.783 306.244 212.804 302.566C212.826 298.887 209.846 295.872 206.167 295.851Z" fill="black"/>
<path d="M206.099 307.6C208.894 307.616 211.174 305.363 211.19 302.567C211.206 299.772 208.953 297.492 206.158 297.476C203.362 297.459 201.082 299.712 201.066 302.508C201.05 305.304 203.303 307.583 206.099 307.6Z" fill="black"/>
<path d="M50.7719 315.905C54.1558 315.925 56.9149 313.197 56.9347 309.814C56.9545 306.43 54.2274 303.67 50.8435 303.651C47.4596 303.631 44.7004 306.358 44.6807 309.742C44.6609 313.126 47.388 315.885 50.7719 315.905Z" fill="black"/>
<path d="M306.879 341.493C310.263 341.513 313.022 338.786 313.042 335.402C313.062 332.018 310.334 329.259 306.951 329.239C303.567 329.219 300.808 331.946 300.788 335.33C300.768 338.714 303.495 341.473 306.879 341.493Z" fill="black"/>
<path d="M30.4493 332.356C31.7653 332.364 32.8383 331.303 32.846 329.987C32.8537 328.671 31.7931 327.598 30.4772 327.59C29.1612 327.583 28.0882 328.643 28.0805 329.959C28.0728 331.275 29.1334 332.348 30.4493 332.356Z" fill="black"/>
<path d="M-8.54082 313.254L-74.4667 312.869C-74.7742 312.867 -75.0143 312.624 -75.0125 312.316C-75.0107 312.009 -74.7677 311.769 -74.4603 311.771L-8.9846 312.153L60.5957 243.381L177.811 244.066L225.296 292.11L339.59 292.778L466.525 167.318C466.745 167.1 467.086 167.102 467.304 167.323C467.522 167.544 467.52 167.884 467.3 168.103L340.034 293.89L224.839 293.216L177.354 245.173L61.0504 244.493L-8.52991 313.265L-8.54082 313.254Z" fill="black"/>
<path d="M192.165 268.121C187.871 268.096 184.411 264.584 184.436 260.302C184.461 256.019 187.973 252.548 192.255 252.573C196.538 252.598 200.009 256.11 199.984 260.393C199.959 264.675 196.447 268.146 192.165 268.121ZM192.249 253.66C188.571 253.639 185.556 256.619 185.534 260.297C185.513 263.976 188.493 266.991 192.171 267.012C195.85 267.034 198.865 264.054 198.886 260.375C198.908 256.697 195.928 253.682 192.249 253.66Z" fill="black"/>
<path d="M192.18 265.409C194.976 265.425 197.256 263.172 197.272 260.377C197.288 257.581 195.035 255.302 192.24 255.285C189.444 255.269 187.164 257.522 187.148 260.317C187.132 263.113 189.385 265.393 192.18 265.409Z" fill="black"/>
<path d="M36.8539 273.714C40.2377 273.734 42.9969 271.007 43.0167 267.623C43.0365 264.239 40.3093 261.48 36.9255 261.46C33.5416 261.44 30.7824 264.167 30.7626 267.551C30.7429 270.935 33.47 273.694 36.8539 273.714Z" fill="black"/>
<path d="M292.961 299.302C296.345 299.322 299.104 296.595 299.124 293.211C299.144 289.827 296.416 287.068 293.033 287.048C289.649 287.029 286.889 289.756 286.87 293.14C286.85 296.523 289.577 299.283 292.961 299.302Z" fill="black"/>
<path d="M16.5313 290.165C17.8472 290.173 18.9202 289.112 18.9279 287.796C18.9356 286.481 17.8751 285.407 16.5591 285.4C15.2432 285.392 14.1701 286.453 14.1625 287.769C14.1548 289.085 15.2153 290.158 16.5313 290.165Z" fill="black"/>
<path d="M-1.80764 480.242L-67.7335 479.857C-68.041 479.855 -68.2811 479.612 -68.2793 479.305C-68.2776 478.997 -68.0346 478.757 -67.7271 478.759L-2.25142 479.142L67.3289 410.37L184.544 411.055L232.029 459.098L346.323 459.766L473.258 334.307C473.479 334.088 473.819 334.09 474.037 334.311C474.256 334.532 474.254 334.873 474.033 335.091L346.767 460.878L231.572 460.205L184.087 412.161L67.7836 411.481L-1.79674 480.253L-1.80764 480.242Z" fill="black"/>
<path d="M198.898 435.109C194.605 435.084 191.144 431.572 191.169 427.29C191.194 423.008 194.706 419.536 198.989 419.561C203.271 419.586 206.742 423.099 206.717 427.381C206.692 431.663 203.18 435.134 198.898 435.109ZM198.982 420.648C195.304 420.627 192.289 423.607 192.267 427.285C192.246 430.964 195.226 433.979 198.904 434C202.583 434.022 205.598 431.042 205.619 427.363C205.641 423.685 202.661 420.67 198.982 420.648Z" fill="black"/>
<path d="M198.914 432.397C201.709 432.414 203.989 430.161 204.005 427.365C204.021 424.569 201.768 422.29 198.973 422.273C196.177 422.257 193.898 424.51 193.881 427.306C193.865 430.101 196.118 432.381 198.914 432.397Z" fill="black"/>
<path d="M43.587 440.702C46.9709 440.722 49.7301 437.995 49.7498 434.611C49.7696 431.227 47.0425 428.468 43.6586 428.448C40.2748 428.429 37.5156 431.156 37.4958 434.54C37.476 437.923 40.2032 440.683 43.587 440.702Z" fill="black"/>
<path d="M299.694 466.291C303.078 466.311 305.837 463.583 305.857 460.2C305.877 456.816 303.15 454.056 299.766 454.037C296.382 454.017 293.623 456.744 293.603 460.128C293.583 463.512 296.31 466.271 299.694 466.291Z" fill="black"/>
<path d="M23.2644 457.154C24.5804 457.161 25.6534 456.101 25.6611 454.785C25.6688 453.469 24.6082 452.396 23.2923 452.388C21.9763 452.38 20.9033 453.441 20.8956 454.757C20.8879 456.073 21.9485 457.146 23.2644 457.154Z" fill="black"/>
<path d="M3.01958 263.487L-62.9063 263.102C-63.2137 263.1 -63.4539 262.857 -63.4521 262.55C-63.4503 262.242 -63.2073 262.002 -62.8999 262.004L2.57581 262.386L72.1561 193.615L189.371 194.3L236.856 242.343L351.151 243.011L478.085 117.552C478.306 117.333 478.646 117.335 478.865 117.556C479.083 117.777 479.081 118.117 478.86 118.336L351.594 244.123L236.4 243.45L188.914 195.406L72.6108 194.726L3.03049 263.498L3.01958 263.487Z" fill="black"/>
<path d="M203.725 218.354C199.432 218.329 195.971 214.817 195.996 210.535C196.021 206.253 199.534 202.781 203.816 202.806C208.098 202.831 211.57 206.343 211.545 210.626C211.52 214.908 208.007 218.379 203.725 218.354ZM203.81 203.893C200.131 203.872 197.116 206.852 197.094 210.53C197.073 214.209 200.053 217.224 203.732 217.245C207.41 217.267 210.425 214.287 210.447 210.608C210.468 206.93 207.488 203.915 203.81 203.893Z" fill="black"/>
<path d="M203.741 215.642C206.537 215.659 208.816 213.405 208.832 210.61C208.849 207.814 206.596 205.535 203.8 205.518C201.004 205.502 198.725 207.755 198.709 210.551C198.692 213.346 200.945 215.626 203.741 215.642Z" fill="black"/>
<path d="M48.4143 223.947C51.7981 223.967 54.5573 221.24 54.5771 217.856C54.5969 214.472 51.8697 211.713 48.4859 211.693C45.102 211.674 42.3428 214.401 42.323 217.785C42.3033 221.168 45.0304 223.928 48.4143 223.947Z" fill="black"/>
<path d="M304.521 249.536C307.905 249.555 310.664 246.828 310.684 243.444C310.704 240.061 307.977 237.301 304.593 237.282C301.209 237.262 298.45 239.989 298.43 243.373C298.41 246.757 301.137 249.516 304.521 249.536Z" fill="black"/>
<path d="M28.0917 240.398C29.4076 240.406 30.4806 239.346 30.4883 238.03C30.496 236.714 29.4355 235.641 28.1195 235.633C26.8036 235.625 25.7306 236.686 25.7229 238.002C25.7152 239.318 26.7757 240.391 28.0917 240.398Z" fill="black"/>
<path d="M-2.73826 224.549L-68.6641 224.164C-68.9716 224.162 -69.2117 223.919 -69.21 223.611C-69.2082 223.304 -68.9652 223.064 -68.6577 223.065L-3.18203 223.448L66.3983 154.676L183.613 155.361L231.099 203.405L345.393 204.073L472.327 78.6133C472.548 78.395 472.888 78.397 473.107 78.6179C473.325 78.8388 473.323 79.1792 473.102 79.3975L345.836 205.184L230.642 204.511L183.157 156.468L66.853 155.788L-2.72736 224.56L-2.73826 224.549Z" fill="black"/>
<path d="M197.967 179.416C193.674 179.391 190.214 175.879 190.239 171.597C190.264 167.314 193.776 163.843 198.058 163.868C202.34 163.893 205.812 167.405 205.787 171.687C205.762 175.97 202.25 179.441 197.967 179.416ZM198.052 164.955C194.373 164.933 191.358 167.914 191.337 171.592C191.315 175.27 194.295 178.286 197.974 178.307C201.652 178.329 204.667 175.348 204.689 171.67C204.71 167.992 201.73 164.976 198.052 164.955Z" fill="black"/>
<path d="M197.983 176.704C200.779 176.72 203.058 174.467 203.075 171.672C203.091 168.876 200.838 166.596 198.042 166.58C195.247 166.564 192.967 168.817 192.951 171.612C192.934 174.408 195.187 176.688 197.983 176.704Z" fill="black"/>
<path d="M42.6564 185.009C46.0403 185.029 48.7995 182.302 48.8192 178.918C48.839 175.534 46.1119 172.775 42.728 172.755C39.3442 172.735 36.585 175.462 36.5652 178.846C36.5454 182.23 39.2726 184.989 42.6564 185.009Z" fill="black"/>
<path d="M298.764 210.597C302.147 210.617 304.907 207.89 304.926 204.506C304.946 201.122 302.219 198.363 298.835 198.343C295.451 198.323 292.692 201.051 292.672 204.434C292.652 207.818 295.38 210.578 298.764 210.597Z" fill="black"/>
<path d="M22.3338 201.46C23.6498 201.468 24.7228 200.407 24.7305 199.091C24.7382 197.775 23.6776 196.702 22.3617 196.695C21.0457 196.687 19.9727 197.748 19.965 199.063C19.9573 200.379 21.0179 201.452 22.3338 201.46Z" fill="black"/>
</g>
<rect x="526.824" y="152.918" width="236.059" height="400" rx="80" transform="rotate(7.15541 526.824 152.918)" fill="#800000"/>
<path d="M343.852 483.429L288.514 480.545C288.256 480.531 288.045 480.338 288.035 480.106C288.024 479.873 288.218 479.701 288.477 479.715L343.436 482.579L399.12 433.314L497.508 438.442L539.245 476.638L635.182 481.638L736.765 391.765C736.942 391.609 737.228 391.624 737.42 391.799C737.611 391.975 737.623 392.232 737.446 392.389L635.598 482.496L538.906 477.457L497.168 439.261L399.545 434.173L343.861 483.438L343.852 483.429Z" fill="white"/>
<path d="M510.499 457.196C506.896 457.008 503.854 454.216 503.706 450.979C503.559 447.742 506.37 445.255 509.964 445.443C513.559 445.63 516.61 448.422 516.757 451.659C516.905 454.897 514.094 457.383 510.499 457.196ZM510.002 446.265C506.914 446.104 504.501 448.238 504.628 451.019C504.754 453.8 507.374 456.197 510.461 456.358C513.549 456.519 515.962 454.384 515.835 451.603C515.709 448.823 513.089 446.425 510.002 446.265Z" fill="white"/>
<path d="M510.406 455.146C512.753 455.268 514.577 453.654 514.481 451.541C514.384 449.428 512.404 447.615 510.057 447.493C507.711 447.371 505.887 448.985 505.983 451.098C506.079 453.211 508.059 455.023 510.406 455.146Z" fill="white"/>
<path d="M380.39 455.316C383.23 455.464 385.438 453.511 385.322 450.953C385.205 448.395 382.808 446.201 379.968 446.053C377.127 445.905 374.919 447.859 375.036 450.417C375.152 452.975 377.549 455.168 380.39 455.316Z" fill="white"/>
<path d="M596.31 484.738C599.15 484.886 601.358 482.932 601.242 480.374C601.125 477.817 598.728 475.623 595.888 475.475C593.047 475.327 590.839 477.28 590.956 479.838C591.072 482.396 593.469 484.59 596.31 484.738Z" fill="white"/>
<path d="M363.983 466.957C365.087 467.014 365.946 466.254 365.901 465.26C365.855 464.265 364.923 463.412 363.819 463.354C362.714 463.297 361.855 464.056 361.901 465.051C361.946 466.046 362.878 466.899 363.983 466.957Z" fill="white"/>
<path d="M343.986 447.596L288.649 444.712C288.391 444.699 288.18 444.506 288.169 444.273C288.159 444.041 288.353 443.869 288.611 443.882L343.571 446.747L399.254 397.482L497.643 402.61L539.38 440.806L635.317 445.806L736.9 355.933C737.077 355.776 737.362 355.791 737.554 355.967C737.746 356.143 737.758 356.4 737.581 356.556L635.733 446.664L539.04 441.624L497.303 403.429L399.68 398.34L343.996 447.605L343.986 447.596Z" fill="white"/>
<path d="M510.634 421.363C507.031 421.176 503.989 418.384 503.841 415.147C503.694 411.91 506.504 409.423 510.099 409.61C513.693 409.798 516.745 412.59 516.892 415.827C517.039 419.064 514.229 421.551 510.634 421.363ZM510.136 410.432C507.049 410.271 504.636 412.406 504.762 415.187C504.889 417.967 507.508 420.364 510.596 420.525C513.684 420.686 516.097 418.551 515.97 415.771C515.843 412.99 513.224 410.593 510.136 410.432Z" fill="white"/>
<path d="M510.541 419.313C512.887 419.436 514.712 417.822 514.615 415.708C514.519 413.595 512.539 411.783 510.192 411.661C507.846 411.538 506.021 413.152 506.118 415.265C506.214 417.379 508.194 419.191 510.541 419.313Z" fill="white"/>
<path d="M380.524 419.484C383.365 419.632 385.573 417.678 385.456 415.121C385.34 412.563 382.943 410.369 380.103 410.221C377.262 410.073 375.054 412.027 375.171 414.584C375.287 417.142 377.684 419.336 380.524 419.484Z" fill="white"/>
<path d="M596.444 448.905C599.285 449.054 601.493 447.1 601.376 444.542C601.26 441.984 598.863 439.791 596.022 439.642C593.182 439.494 590.974 441.448 591.09 444.006C591.207 446.564 593.604 448.757 596.444 448.905Z" fill="white"/>
<path d="M364.118 431.124C365.222 431.182 366.081 430.422 366.036 429.427C365.99 428.433 365.058 427.579 363.954 427.522C362.849 427.464 361.99 428.224 362.036 429.219C362.081 430.214 363.013 431.067 364.118 431.124Z" fill="white"/>
<path d="M345.803 417.686L290.466 414.802C290.208 414.788 289.996 414.595 289.986 414.363C289.975 414.13 290.17 413.958 290.428 413.972L345.387 416.836L401.071 367.571L499.459 372.699L541.197 410.895L637.133 415.895L738.716 326.022C738.893 325.866 739.179 325.881 739.371 326.056C739.563 326.232 739.574 326.489 739.398 326.646L637.549 416.753L540.857 411.714L499.12 373.518L401.496 368.43L345.812 417.695L345.803 417.686Z" fill="white"/>
<path d="M512.451 391.453C508.847 391.265 505.805 388.473 505.658 385.236C505.51 381.999 508.321 379.512 511.915 379.7C515.51 379.887 518.561 382.679 518.709 385.917C518.856 389.154 516.045 391.64 512.451 391.453ZM511.953 380.522C508.865 380.361 506.452 382.495 506.579 385.276C506.706 388.057 509.325 390.454 512.413 390.615C515.5 390.776 517.913 388.641 517.786 385.86C517.66 383.08 515.04 380.682 511.953 380.522Z" fill="white"/>
<path d="M512.357 389.403C514.704 389.525 516.528 387.911 516.432 385.798C516.336 383.685 514.355 381.872 512.009 381.75C509.662 381.628 507.838 383.242 507.934 385.355C508.03 387.468 510.011 389.28 512.357 389.403Z" fill="white"/>
<path d="M382.341 389.573C385.181 389.721 387.389 387.768 387.273 385.21C387.156 382.652 384.759 380.458 381.919 380.31C379.079 380.162 376.87 382.116 376.987 384.674C377.103 387.232 379.5 389.425 382.341 389.573Z" fill="white"/>
<path d="M598.261 418.995C601.101 419.143 603.309 417.189 603.193 414.631C603.076 412.074 600.679 409.88 597.839 409.732C594.999 409.584 592.79 411.537 592.907 414.095C593.023 416.653 595.42 418.847 598.261 418.995Z" fill="white"/>
<path d="M365.934 401.214C367.039 401.271 367.897 400.511 367.852 399.517C367.807 398.522 366.875 397.669 365.77 397.611C364.665 397.554 363.807 398.313 363.852 399.308C363.897 400.303 364.83 401.156 365.934 401.214Z" fill="white"/>
<path d="M332.464 385.236L277.127 382.352C276.869 382.339 276.658 382.145 276.647 381.913C276.637 381.681 276.831 381.508 277.089 381.522L332.048 384.386L387.732 335.122L486.121 340.25L527.858 378.445L623.795 383.446L725.378 293.573C725.554 293.416 725.84 293.431 726.032 293.607C726.224 293.782 726.236 294.04 726.059 294.196L624.211 384.304L527.518 379.264L485.781 341.068L388.157 335.98L332.474 385.245L332.464 385.236Z" fill="white"/>
<path d="M499.112 359.003C495.508 358.815 492.466 356.024 492.319 352.787C492.171 349.55 494.982 347.063 498.577 347.25C502.171 347.438 505.222 350.23 505.37 353.467C505.517 356.704 502.706 359.191 499.112 359.003ZM498.614 348.072C495.526 347.911 493.113 350.046 493.24 352.826C493.367 355.607 495.986 358.004 499.074 358.165C502.161 358.326 504.574 356.191 504.448 353.41C504.321 350.63 501.702 348.233 498.614 348.072Z" fill="white"/>
<path d="M499.019 356.953C501.365 357.075 503.189 355.461 503.093 353.348C502.997 351.235 501.017 349.423 498.67 349.3C496.323 349.178 494.499 350.792 494.595 352.905C494.692 355.019 496.672 356.831 499.019 356.953Z" fill="white"/>
<path d="M369.002 357.124C371.842 357.272 374.051 355.318 373.934 352.76C373.818 350.202 371.421 348.009 368.58 347.861C365.74 347.713 363.532 349.666 363.648 352.224C363.765 354.782 366.162 356.976 369.002 357.124Z" fill="white"/>
<path d="M584.922 386.545C587.762 386.693 589.97 384.74 589.854 382.182C589.737 379.624 587.341 377.43 584.5 377.282C581.66 377.134 579.452 379.088 579.568 381.646C579.685 384.204 582.082 386.397 584.922 386.545Z" fill="white"/>
<path d="M352.595 368.764C353.7 368.822 354.559 368.062 354.513 367.067C354.468 366.072 353.536 365.219 352.431 365.162C351.327 365.104 350.468 365.864 350.513 366.859C350.559 367.853 351.491 368.706 352.595 368.764Z" fill="white"/>
<path d="M344.682 511.769L289.345 508.884C289.087 508.871 288.876 508.678 288.865 508.445C288.855 508.213 289.049 508.041 289.307 508.054L344.266 510.919L399.95 461.654L498.339 466.782L540.076 504.978L636.013 509.978L737.596 420.105C737.772 419.949 738.058 419.963 738.25 420.139C738.442 420.315 738.454 420.572 738.277 420.728L636.429 510.836L539.736 505.796L497.999 467.601L400.375 462.512L344.692 511.777L344.682 511.769Z" fill="white"/>
<path d="M511.33 485.536C507.726 485.348 504.684 482.556 504.537 479.319C504.389 476.082 507.2 473.595 510.795 473.783C514.389 473.97 517.44 476.762 517.588 479.999C517.735 483.236 514.924 485.723 511.33 485.536ZM510.832 474.604C507.744 474.443 505.331 476.578 505.458 479.359C505.585 482.139 508.204 484.536 511.292 484.697C514.379 484.858 516.792 482.723 516.666 479.943C516.539 477.162 513.92 474.765 510.832 474.604Z" fill="white"/>
<path d="M511.237 483.485C513.583 483.608 515.407 481.994 515.311 479.881C515.215 477.767 513.235 475.955 510.888 475.833C508.541 475.71 506.717 477.324 506.813 479.438C506.91 481.551 508.89 483.363 511.237 483.485Z" fill="white"/>
<path d="M381.22 483.656C384.06 483.804 386.269 481.851 386.152 479.293C386.036 476.735 383.639 474.541 380.798 474.393C377.958 474.245 375.75 476.199 375.866 478.757C375.983 481.314 378.38 483.508 381.22 483.656Z" fill="white"/>
<path d="M597.14 513.078C599.98 513.226 602.188 511.272 602.072 508.714C601.956 506.156 599.559 503.963 596.718 503.815C593.878 503.667 591.67 505.62 591.786 508.178C591.903 510.736 594.3 512.93 597.14 513.078Z" fill="white"/>
<path d="M364.813 495.296C365.918 495.354 366.777 494.594 366.731 493.599C366.686 492.605 365.754 491.752 364.649 491.694C363.545 491.636 362.686 492.396 362.731 493.391C362.777 494.386 363.709 495.239 364.813 495.296Z" fill="white"/>
<path d="M340.208 348.06L284.87 345.176C284.612 345.162 284.401 344.969 284.391 344.737C284.38 344.504 284.575 344.332 284.833 344.346L339.792 347.21L395.476 297.945L493.864 303.074L535.601 341.269L631.538 346.269L733.121 256.396C733.298 256.24 733.584 256.255 733.776 256.43C733.968 256.606 733.979 256.863 733.803 257.02L631.954 347.127L535.262 342.088L493.524 303.892L395.901 298.804L340.217 348.069L340.208 348.06Z" fill="white"/>
<path d="M506.855 321.827C503.252 321.639 500.21 318.847 500.062 315.61C499.915 312.373 502.726 309.887 506.32 310.074C509.915 310.261 512.966 313.053 513.113 316.291C513.261 319.528 510.45 322.014 506.855 321.827ZM506.358 310.896C503.27 310.735 500.857 312.87 500.984 315.65C501.11 318.431 503.73 320.828 506.817 320.989C509.905 321.15 512.318 319.015 512.191 316.234C512.065 313.454 509.445 311.057 506.358 310.896Z" fill="white"/>
<path d="M506.762 319.777C509.109 319.899 510.933 318.285 510.837 316.172C510.741 314.059 508.76 312.246 506.414 312.124C504.067 312.002 502.243 313.616 502.339 315.729C502.435 317.842 504.416 319.655 506.762 319.777Z" fill="white"/>
<path d="M376.746 319.948C379.586 320.096 381.794 318.142 381.678 315.584C381.561 313.026 379.164 310.833 376.324 310.685C373.483 310.536 371.275 312.49 371.392 315.048C371.508 317.606 373.905 319.8 376.746 319.948Z" fill="white"/>
<path d="M592.666 349.369C595.506 349.517 597.714 347.563 597.598 345.006C597.481 342.448 595.084 340.254 592.244 340.106C589.403 339.958 587.195 341.912 587.312 344.469C587.428 347.027 589.825 349.221 592.666 349.369Z" fill="white"/>
<path d="M360.339 331.588C361.443 331.645 362.302 330.886 362.257 329.891C362.212 328.896 361.279 328.043 360.175 327.985C359.07 327.928 358.212 328.688 358.257 329.682C358.302 330.677 359.234 331.53 360.339 331.588Z" fill="white"/>
<path d="M333.844 318.39L278.507 315.506C278.249 315.493 278.038 315.3 278.027 315.067C278.017 314.835 278.211 314.663 278.469 314.676L333.429 317.541L389.112 268.276L487.501 273.404L529.238 311.6L625.175 316.6L726.758 226.727C726.935 226.57 727.221 226.585 727.412 226.761C727.604 226.937 727.616 227.194 727.439 227.35L625.591 317.458L528.898 312.418L487.161 274.223L389.538 269.134L333.854 318.399L333.844 318.39Z" fill="white"/>
<path d="M500.492 292.157C496.889 291.97 493.847 289.178 493.699 285.941C493.552 282.704 496.362 280.217 499.957 280.404C503.551 280.592 506.603 283.384 506.75 286.621C506.897 289.858 504.087 292.345 500.492 292.157ZM499.994 281.226C496.907 281.065 494.494 283.2 494.62 285.981C494.747 288.761 497.366 291.158 500.454 291.319C503.542 291.48 505.955 289.345 505.828 286.565C505.701 283.784 503.082 281.387 499.994 281.226Z" fill="white"/>
<path d="M500.399 290.107C502.745 290.23 504.57 288.616 504.474 286.502C504.377 284.389 502.397 282.577 500.05 282.455C497.704 282.332 495.879 283.946 495.976 286.059C496.072 288.173 498.052 289.985 500.399 290.107Z" fill="white"/>
<path d="M370.382 290.278C373.223 290.426 375.431 288.472 375.314 285.915C375.198 283.357 372.801 281.163 369.961 281.015C367.12 280.867 364.912 282.821 365.029 285.378C365.145 287.936 367.542 290.13 370.382 290.278Z" fill="white"/>
<path d="M586.302 319.7C589.143 319.848 591.351 317.894 591.234 315.336C591.118 312.778 588.721 310.585 585.881 310.436C583.04 310.288 580.832 312.242 580.949 314.8C581.065 317.358 583.462 319.551 586.302 319.7Z" fill="white"/>
<path d="M353.976 301.918C355.08 301.976 355.939 301.216 355.894 300.221C355.848 299.227 354.916 298.373 353.812 298.316C352.707 298.258 351.848 299.018 351.894 300.013C351.939 301.008 352.871 301.861 353.976 301.918Z" fill="white"/>
<path d="M158.423 399.163L103.086 396.279C102.828 396.265 102.617 396.072 102.606 395.84C102.596 395.607 102.79 395.435 103.048 395.449L158.007 398.313L213.691 349.049L312.08 354.177L353.817 392.372L449.754 397.373L551.337 307.5C551.513 307.343 551.799 307.358 551.991 307.534C552.183 307.709 552.195 307.967 552.018 308.123L450.17 398.231L353.477 393.191L311.74 354.995L214.116 349.907L158.433 399.172L158.423 399.163Z" fill="white"/>
<path d="M325.071 372.93C321.467 372.742 318.425 369.951 318.278 366.714C318.13 363.476 320.941 360.99 324.536 361.177C328.13 361.364 331.181 364.157 331.329 367.394C331.476 370.631 328.665 373.118 325.071 372.93ZM324.573 361.999C321.485 361.838 319.072 363.973 319.199 366.753C319.326 369.534 321.945 371.931 325.033 372.092C328.12 372.253 330.533 370.118 330.407 367.337C330.28 364.557 327.661 362.16 324.573 361.999Z" fill="white"/>
<path d="M324.978 370.88C327.324 371.002 329.148 369.388 329.052 367.275C328.956 365.162 326.976 363.35 324.629 363.227C322.282 363.105 320.458 364.719 320.554 366.832C320.651 368.945 322.631 370.758 324.978 370.88Z" fill="white"/>
<path d="M194.961 371.051C197.801 371.199 200.01 369.245 199.893 366.687C199.777 364.129 197.38 361.936 194.539 361.788C191.699 361.64 189.491 363.593 189.607 366.151C189.724 368.709 192.121 370.903 194.961 371.051Z" fill="white"/>
<path d="M410.881 400.472C413.721 400.62 415.929 398.667 415.813 396.109C415.696 393.551 413.299 391.357 410.459 391.209C407.619 391.061 405.411 393.015 405.527 395.573C405.644 398.131 408.041 400.324 410.881 400.472Z" fill="white"/>
<path d="M178.554 382.691C179.659 382.748 180.518 381.989 180.472 380.994C180.427 379.999 179.495 379.146 178.39 379.089C177.286 379.031 176.427 379.791 176.472 380.785C176.518 381.78 177.45 382.633 178.554 382.691Z" fill="white"/>
<path d="M158.558 363.331L103.221 360.446C102.963 360.433 102.752 360.24 102.741 360.007C102.73 359.775 102.925 359.603 103.183 359.616L158.142 362.481L213.826 313.216L312.214 318.344L353.952 356.54L449.888 361.54L551.472 271.667C551.648 271.511 551.934 271.526 552.126 271.701C552.318 271.877 552.33 272.134 552.153 272.291L450.304 362.398L353.612 357.358L311.875 319.163L214.251 314.075L158.567 363.339L158.558 363.331Z" fill="white"/>
<path d="M325.206 337.098C321.602 336.91 318.56 334.118 318.413 330.881C318.265 327.644 321.076 325.157 324.67 325.345C328.265 325.532 331.316 328.324 331.464 331.561C331.611 334.798 328.8 337.285 325.206 337.098ZM324.708 326.166C321.62 326.005 319.207 328.14 319.334 330.921C319.461 333.701 322.08 336.098 325.168 336.259C328.255 336.42 330.668 334.286 330.541 331.505C330.415 328.724 327.795 326.327 324.708 326.166Z" fill="white"/>
<path d="M325.112 335.048C327.459 335.17 329.283 333.556 329.187 331.443C329.091 329.329 327.11 327.517 324.764 327.395C322.417 327.272 320.593 328.886 320.689 331C320.785 333.113 322.766 334.925 325.112 335.048Z" fill="white"/>
<path d="M195.096 335.218C197.936 335.366 200.144 333.413 200.028 330.855C199.911 328.297 197.514 326.103 194.674 325.955C191.834 325.807 189.626 327.761 189.742 330.319C189.859 332.877 192.256 335.07 195.096 335.218Z" fill="white"/>
<path d="M411.016 364.64C413.856 364.788 416.064 362.834 415.948 360.276C415.831 357.718 413.434 355.525 410.594 355.377C407.754 355.229 405.545 357.182 405.662 359.74C405.778 362.298 408.175 364.492 411.016 364.64Z" fill="white"/>
<path d="M178.689 346.858C179.794 346.916 180.652 346.156 180.607 345.162C180.562 344.167 179.63 343.314 178.525 343.256C177.42 343.199 176.562 343.958 176.607 344.953C176.652 345.948 177.585 346.801 178.689 346.858Z" fill="white"/>
<path d="M160.374 333.42L105.037 330.536C104.779 330.522 104.568 330.329 104.557 330.097C104.547 329.864 104.741 329.692 104.999 329.706L159.959 332.57L215.642 283.306L314.031 288.434L355.768 326.629L451.705 331.63L553.288 241.757C553.465 241.6 553.75 241.615 553.942 241.791C554.134 241.966 554.146 242.224 553.969 242.38L452.121 332.488L355.428 327.448L313.691 289.252L216.068 284.164L160.384 333.429L160.374 333.42Z" fill="white"/>
<path d="M327.022 307.187C323.418 306.999 320.377 304.208 320.229 300.971C320.082 297.733 322.892 295.247 326.487 295.434C330.081 295.621 333.133 298.414 333.28 301.651C333.427 304.888 330.617 307.375 327.022 307.187ZM326.524 296.256C323.437 296.095 321.024 298.23 321.15 301.01C321.277 303.791 323.896 306.188 326.984 306.349C330.072 306.51 332.485 304.375 332.358 301.594C332.231 298.814 329.612 296.417 326.524 296.256Z" fill="white"/>
<path d="M326.929 305.137C329.275 305.259 331.1 303.645 331.003 301.532C330.907 299.419 328.927 297.607 326.58 297.484C324.234 297.362 322.409 298.976 322.506 301.089C322.602 303.202 324.582 305.015 326.929 305.137Z" fill="white"/>
<path d="M196.912 305.308C199.753 305.456 201.961 303.502 201.844 300.944C201.728 298.386 199.331 296.193 196.49 296.045C193.65 295.897 191.442 297.85 191.558 300.408C191.675 302.966 194.072 305.16 196.912 305.308Z" fill="white"/>
<path d="M412.832 334.729C415.673 334.877 417.881 332.924 417.764 330.366C417.648 327.808 415.251 325.614 412.41 325.466C409.57 325.318 407.362 327.272 407.478 329.83C407.595 332.388 409.992 334.581 412.832 334.729Z" fill="white"/>
<path d="M180.506 316.948C181.61 317.005 182.469 316.246 182.424 315.251C182.378 314.256 181.446 313.403 180.342 313.346C179.237 313.288 178.378 314.048 178.424 315.042C178.469 316.037 179.401 316.89 180.506 316.948Z" fill="white"/>
<path d="M147.036 300.97L91.6983 298.086C91.4403 298.073 91.2292 297.88 91.2186 297.647C91.208 297.415 91.4025 297.243 91.6606 297.256L146.62 300.121L202.304 250.856L300.692 255.984L342.429 294.18L438.366 299.18L539.949 209.307C540.126 209.15 540.412 209.165 540.604 209.341C540.795 209.517 540.807 209.774 540.63 209.93L438.782 300.038L342.09 294.998L300.352 256.803L202.729 251.714L147.045 300.979L147.036 300.97Z" fill="white"/>
<path d="M313.683 274.738C310.08 274.55 307.038 271.758 306.89 268.521C306.743 265.284 309.554 262.797 313.148 262.984C316.743 263.172 319.794 265.964 319.941 269.201C320.089 272.438 317.278 274.925 313.683 274.738ZM313.186 263.806C310.098 263.645 307.685 265.78 307.812 268.561C307.938 271.341 310.558 273.738 313.645 273.899C316.733 274.06 319.146 271.925 319.019 269.145C318.893 266.364 316.273 263.967 313.186 263.806Z" fill="white"/>
<path d="M313.59 272.687C315.937 272.81 317.761 271.196 317.665 269.082C317.568 266.969 315.588 265.157 313.241 265.035C310.895 264.912 309.071 266.526 309.167 268.64C309.263 270.753 311.243 272.565 313.59 272.687Z" fill="white"/>
<path d="M183.574 272.858C186.414 273.006 188.622 271.053 188.506 268.495C188.389 265.937 185.992 263.743 183.152 263.595C180.311 263.447 178.103 265.401 178.22 267.959C178.336 270.516 180.733 272.71 183.574 272.858Z" fill="white"/>
<path d="M399.494 302.28C402.334 302.428 404.542 300.474 404.426 297.916C404.309 295.358 401.912 293.165 399.072 293.017C396.231 292.868 394.023 294.822 394.14 297.38C394.256 299.938 396.653 302.131 399.494 302.28Z" fill="white"/>
<path d="M167.167 284.498C168.271 284.556 169.13 283.796 169.085 282.801C169.04 281.807 168.107 280.953 167.003 280.896C165.898 280.838 165.039 281.598 165.085 282.593C165.13 283.588 166.062 284.441 167.167 284.498Z" fill="white"/>
<path d="M159.254 427.503L103.916 424.619C103.658 424.605 103.447 424.412 103.437 424.18C103.426 423.947 103.621 423.775 103.879 423.789L158.838 426.653L214.522 377.388L312.91 382.516L354.647 420.712L450.584 425.712L552.167 335.839C552.344 335.683 552.63 335.698 552.822 335.873C553.013 336.049 553.025 336.306 552.848 336.463L451 426.57L354.308 421.531L312.57 383.335L214.947 378.247L159.263 427.512L159.254 427.503Z" fill="white"/>
<path d="M325.901 401.27C322.298 401.082 319.256 398.29 319.108 395.053C318.961 391.816 321.772 389.329 325.366 389.517C328.961 389.704 332.012 392.496 332.159 395.733C332.307 398.971 329.496 401.457 325.901 401.27ZM325.404 390.338C322.316 390.178 319.903 392.312 320.03 395.093C320.156 397.874 322.776 400.271 325.863 400.432C328.951 400.592 331.364 398.458 331.237 395.677C331.111 392.897 328.491 390.499 325.404 390.338Z" fill="white"/>
<path d="M325.808 399.22C328.155 399.342 329.979 397.728 329.883 395.615C329.786 393.502 327.806 391.689 325.46 391.567C323.113 391.445 321.289 393.059 321.385 395.172C321.481 397.285 323.461 399.097 325.808 399.22Z" fill="white"/>
<path d="M195.792 399.39C198.632 399.538 200.84 397.585 200.724 395.027C200.607 392.469 198.21 390.275 195.37 390.127C192.529 389.979 190.321 391.933 190.438 394.491C190.554 397.049 192.951 399.242 195.792 399.39Z" fill="white"/>
<path d="M411.712 428.812C414.552 428.96 416.76 427.006 416.644 424.448C416.527 421.891 414.13 419.697 411.29 419.549C408.449 419.401 406.241 421.354 406.358 423.912C406.474 426.47 408.871 428.664 411.712 428.812Z" fill="white"/>
<path d="M179.385 411.031C180.489 411.088 181.348 410.328 181.303 409.334C181.258 408.339 180.325 407.486 179.221 407.428C178.116 407.371 177.257 408.13 177.303 409.125C177.348 410.12 178.28 410.973 179.385 411.031Z" fill="white"/>
<path d="M154.779 263.794L99.4419 260.91C99.1839 260.897 98.9728 260.703 98.9622 260.471C98.9516 260.239 99.1461 260.066 99.4041 260.08L154.363 262.944L210.047 213.68L308.436 218.808L350.173 257.003L446.11 262.004L547.693 172.131C547.87 171.974 548.155 171.989 548.347 172.165C548.539 172.34 548.551 172.598 548.374 172.754L446.526 262.862L349.833 257.822L308.096 219.626L210.473 214.538L154.789 263.803L154.779 263.794Z" fill="white"/>
<path d="M321.427 237.561C317.823 237.373 314.781 234.582 314.634 231.345C314.486 228.108 317.297 225.621 320.892 225.808C324.486 225.996 327.537 228.788 327.685 232.025C327.832 235.262 325.022 237.749 321.427 237.561ZM320.929 226.63C317.842 226.469 315.429 228.604 315.555 231.384C315.682 234.165 318.301 236.562 321.389 236.723C324.476 236.884 326.889 234.749 326.763 231.968C326.636 229.188 324.017 226.791 320.929 226.63Z" fill="white"/>
<path d="M321.334 235.511C323.68 235.633 325.505 234.019 325.408 231.906C325.312 229.793 323.332 227.981 320.985 227.858C318.638 227.736 316.814 229.35 316.91 231.463C317.007 233.577 318.987 235.389 321.334 235.511Z" fill="white"/>
<path d="M191.317 235.682C194.158 235.83 196.366 233.876 196.249 231.318C196.133 228.76 193.736 226.567 190.895 226.419C188.055 226.271 185.847 228.224 185.963 230.782C186.08 233.34 188.477 235.534 191.317 235.682Z" fill="white"/>
<path d="M407.237 265.103C410.077 265.251 412.286 263.298 412.169 260.74C412.053 258.182 409.656 255.988 406.815 255.84C403.975 255.692 401.767 257.646 401.883 260.204C402 262.762 404.397 264.955 407.237 265.103Z" fill="white"/>
<path d="M174.91 247.322C176.015 247.38 176.874 246.62 176.828 245.625C176.783 244.63 175.851 243.777 174.746 243.72C173.642 243.662 172.783 244.422 172.828 245.417C172.874 246.411 173.806 247.264 174.91 247.322Z" fill="white"/>
<path d="M148.416 234.125L93.0787 231.24C92.8206 231.227 92.6096 231.034 92.599 230.801C92.5884 230.569 92.7828 230.397 93.0409 230.41L148 233.275L203.684 184.01L302.072 189.138L343.81 227.334L439.746 232.334L541.33 142.461C541.506 142.305 541.792 142.32 541.984 142.495C542.176 142.671 542.188 142.928 542.011 143.084L440.163 233.192L343.47 228.152L301.733 189.957L204.109 184.869L148.425 234.133L148.416 234.125Z" fill="white"/>
<path d="M315.064 207.892C311.46 207.704 308.418 204.912 308.271 201.675C308.123 198.438 310.934 195.951 314.528 196.139C318.123 196.326 321.174 199.118 321.322 202.355C321.469 205.592 318.658 208.079 315.064 207.892ZM314.566 196.96C311.478 196.799 309.065 198.934 309.192 201.715C309.319 204.495 311.938 206.892 315.026 207.053C318.113 207.214 320.526 205.08 320.4 202.299C320.273 199.518 317.654 197.121 314.566 196.96Z" fill="white"/>
<path d="M314.97 205.842C317.317 205.964 319.141 204.35 319.045 202.237C318.949 200.123 316.968 198.311 314.622 198.189C312.275 198.066 310.451 199.68 310.547 201.794C310.643 203.907 312.624 205.719 314.97 205.842Z" fill="white"/>
<path d="M184.954 206.012C187.794 206.16 190.002 204.207 189.886 201.649C189.769 199.091 187.372 196.897 184.532 196.749C181.692 196.601 179.484 198.555 179.6 201.113C179.717 203.671 182.114 205.864 184.954 206.012Z" fill="white"/>
<path d="M400.874 235.434C403.714 235.582 405.922 233.628 405.806 231.07C405.689 228.512 403.292 226.319 400.452 226.171C397.612 226.023 395.404 227.976 395.52 230.534C395.637 233.092 398.034 235.286 400.874 235.434Z" fill="white"/>
<path d="M168.547 217.652C169.652 217.71 170.51 216.95 170.465 215.956C170.42 214.961 169.488 214.108 168.383 214.05C167.279 213.993 166.42 214.752 166.465 215.747C166.51 216.742 167.443 217.595 168.547 217.652Z" fill="white"/>
</svg>
