<?xml version="1.0" encoding="utf-8"?>
<!-- Generator: Adobe Illustrator 24.0.1, SVG Export Plug-In . SVG Version: 6.00 Build 0)  -->
<svg version="1.1" id="Layer_1" xmlns="http://www.w3.org/2000/svg" xmlns:xlink="http://www.w3.org/1999/xlink" x="0px" y="0px"
	 viewBox="0 0 1080 1080" style="enable-background:new 0 0 1080 1080;" xml:space="preserve">
<style type="text/css">
	.st0{fill:#EEDC92;}
	.st1{fill:#FFBD11;}
	.st2{fill:#040404;}
	.st3{fill:#FEFEFE;}
	.st4{fill:#080808;}
	.st5{fill:#800000;}
	.st6{fill:#FFFFFF;}
	.st7{fill:#0B7EEB;}
</style>
<g>
	<rect x="533" y="220" class="st0" width="421" height="453"/>
	<rect x="548" y="673" class="st1" width="392" height="110"/>
	<path class="st2" d="M177.59,957.87c-1.5-2.86-4.58-2.39-6.99-3.2c-28.01-9.38-46.66-34.26-46.7-63.83
		c-0.16-116.73-0.2-233.46,0.01-350.19c0.07-37.3,29.32-66.7,66.67-66.81c98.8-0.29,197.61-0.27,296.41-0.01
		c38.41,0.1,66.88,29.04,67.07,67.93c0.3,60.53,0.63,121.08-0.18,181.6c-0.35,25.96,16.62,46.6,46.45,46.36
		c95-0.79,190.01-0.28,285.01-0.3c29.79-0.01,45.46-15.82,45.52-45.78c0.02-9.23-0.37-18.48,0.14-27.68
		c0.32-5.74-1.44-7.15-7.11-7.12c-46.69,0.24-93.37,0.13-140.06,0.13c-64.87,0-129.75-0.09-194.62,0.14
		c-6.17,0.02-8.24-1.24-8.1-7.85c0.42-19.46,0.09-19.47,19.26-19.47c116.18,0,232.35,0,348.53-0.02c2.97,0,5.94-0.25,8.91-0.38
		c0,27.15,0,54.3,0,81.45c-1.28,0.22-1.51,1.22-1.88,2.26c-12.81,36.17-34.33,51.44-72.45,51.45
		c-71.29,0.01-142.58,0.09-213.87-0.15c-6.39-0.02-8.06,1.6-7.99,7.99c0.32,29.54,0.48,59.1-0.09,88.64
		c-0.53,27.57-18.12,51.13-43.75,60.84c-4.42,1.67-9.42,1.13-13.43,4C462.1,957.87,319.85,957.87,177.59,957.87z M539.81,929.62
		c-10.17-14.3-12.47-30.47-12.44-47.61c0.25-112.36,0.15-224.73,0.11-337.1c-0.01-27.8-16.75-44.47-44.6-44.57
		c-17.91-0.06-35.83,0.32-53.73-0.18c-7.13-0.2-9.51,1.34-9.44,9.09c0.4,49.94,0.41,99.88,0.15,149.82
		c-0.31,58.76-54.84,98.21-108.34,78.67c-33.36-12.18-53.03-41.9-53.08-80.49c-0.06-49.94-0.11-99.88,0.11-149.82
		c0.02-5.67-1.49-7.34-7.21-7.24c-18.99,0.36-37.99,0.05-56.99,0.16c-26.83,0.15-43.51,16.8-43.53,43.84
		c-0.08,114.27-0.04,228.53-0.02,342.8c0,5.15,0.17,10.28,1.74,15.29c5.75,18.35,20.75,28.57,42.4,28.57
		c112.08,0.03,224.17,0.02,336.25-0.03C533.79,930.82,536.53,931.58,539.81,929.62z M392.75,586.54c0-26.34-0.15-52.67,0.12-79
		c0.05-5.41-0.95-7.42-6.95-7.36c-31.22,0.32-62.44,0.3-93.66,0.02c-5.66-0.05-7.24,1.33-7.21,7.12
		c0.24,50.77,0.07,101.54,0.17,152.31c0.06,32.11,23.39,56.07,54.13,55.91c30.5-0.16,53.23-23.8,53.37-55.69
		C392.84,635.4,392.75,610.97,392.75,586.54z M554.15,782.93c0,36.76-0.02,72.04,0.02,107.31c0.01,4.63,0.86,9.15,2.41,13.54
		c6.69,18.91,24.76,29.52,45.07,26.46c18.51-2.79,33.04-19.53,33.34-39.47c0.38-24.69,0.11-49.4,0.11-74.1
		c0-20.53,0-20.3-20.72-20.3c-5.62,0-6.6,1.88-6.56,6.94c0.22,27.41,0.11,54.83,0.11,82.24c0,18.61-0.01,18.28-18.97,18.73
		c-6.63,0.16-7.85-1.96-7.79-8.07c0.3-31.48,0.18-62.97,0.06-94.46c-0.01-2.57,1.81-6.21-2.72-7.32
		C570.09,792.36,562.6,788.14,554.15,782.93z"/>
	<path class="st3" d="M604.36,957.87c4-2.87,9.01-2.33,13.43-4c25.63-9.71,43.22-33.27,43.75-60.84c0.56-29.54,0.41-59.1,0.09-88.64
		c-0.07-6.39,1.6-8.01,7.99-7.99c71.29,0.24,142.58,0.16,213.87,0.15c38.12,0,59.64-15.28,72.45-51.45c0.37-1.05,0.6-2.05,1.88-2.26
		c0,69.78-0.06,139.55,0.14,209.33c0.01,4.86-0.98,5.84-5.84,5.84C836.2,957.83,720.28,957.87,604.36,957.87z"/>
	<path class="st2" d="M957.82,635.32c-7.05-0.06-14.12-0.44-21.15-0.09c-4.81,0.24-6.33-1.58-5.82-6.05c0.21-1.88,0.03-3.8,0.03-5.7
		c0-127.83-0.07-255.65,0.18-383.48c0.01-7.16-1.7-8.81-8.83-8.8c-119.95,0.25-239.89,0.24-359.84,0.02
		c-6.75-0.01-8.44,1.64-8.41,8.42c0.27,70.83,0.09,141.67,0.3,212.5c0.02,6.19-1.29,8.28-7.89,8.15c-18.89-0.4-18.9-0.08-18.9-18.98
		c0-81.69,0.86-163.39-0.35-245.06c-0.63-42.36,32.06-73.26,72.99-72.79c94.42,1.08,188.87,0.34,283.31,0.34
		c39.69,0,61.53,16.32,73.13,54.59c0.11,0.36,0.82,0.54,1.25,0.8C957.82,331.24,957.82,483.28,957.82,635.32z M742.27,204.55
		c2.17,0,4.34,0,6.51,0c58.08,0,116.17-0.11,174.25,0.16c6.6,0.03,8.05-1.95,8.01-8.21c-0.23-29.78-15.91-45.7-45.75-45.7
		c-95.27-0.01-190.54-0.01-285.81,0c-29.22,0-45.02,16.16-45.57,45.27c-0.15,7.8,2.59,8.64,9.22,8.62
		C622.84,204.46,682.56,204.55,742.27,204.55z"/>
	<path class="st2" d="M741.8,607.93c-89.25-0.47-160.85-72.8-160.47-162.1c0.38-89.33,73.22-161.15,162.91-160.63
		c88.47,0.51,160.46,73.98,159.79,163.08C903.36,536.75,830.55,608.4,741.8,607.93z M876.99,446.17
		c-0.31-74.35-60.72-134.31-134.9-133.89c-74.31,0.43-134.48,60.94-134.11,134.88c0.37,74,61.21,134.4,135.11,134.12
		C817.13,581,877.29,520.29,876.99,446.17z"/>
	<path class="st4" d="M743.63,715.56c15.47,0,30.95,0.16,46.42-0.1c4.7-0.08,6.56,0.79,6.61,6.14c0.2,21.14,0.42,21.14-20.72,21.14
		c-26.6,0-53.21-0.14-79.81,0.12c-5.34,0.05-7.99-0.73-7.36-6.88c0.66-6.44-2.04-15.07,1.23-18.91c3.87-4.53,12.74-1.28,19.43-1.45
		C720.82,715.35,732.23,715.56,743.63,715.56z"/>
	<path class="st5" d="M539.81,929.62c-3.27,1.96-6.02,1.2-8.61,1.2c-112.08,0.04-224.17,0.05-336.25,0.03
		c-21.65,0-36.65-10.22-42.4-28.57c-1.57-5.01-1.74-10.14-1.74-15.29c-0.02-114.27-0.06-228.53,0.02-342.8
		c0.02-27.04,16.7-43.69,43.53-43.84c19-0.1,38,0.2,56.99-0.16c5.73-0.11,7.24,1.57,7.21,7.24c-0.21,49.94-0.17,99.88-0.11,149.82
		c0.05,38.59,19.71,68.31,53.08,80.49c53.5,19.54,108.03-19.91,108.34-78.67c0.27-49.94,0.25-99.88-0.15-149.82
		c-0.06-7.75,2.31-9.28,9.44-9.09c17.9,0.5,35.82,0.11,53.73,0.18c27.85,0.1,44.59,16.77,44.6,44.57
		c0.04,112.37,0.14,224.73-0.11,337.1C527.33,899.15,529.63,915.32,539.81,929.62z"/>
	<path class="st5" d="M392.75,586.54c0,24.43,0.09,48.87-0.02,73.3c-0.15,31.89-22.88,55.53-53.37,55.69
		c-30.74,0.16-54.07-23.8-54.13-55.91c-0.1-50.77,0.07-101.54-0.17-152.31c-0.03-5.78,1.56-7.17,7.21-7.12
		c31.22,0.28,62.44,0.31,93.66-0.02c6-0.06,7,1.95,6.95,7.36C392.61,533.86,392.75,560.2,392.75,586.54z M339.28,688.89
		c22.04-0.14,40.3-18.62,40.17-40.67c-0.12-22.05-18.64-40.37-40.63-40.22c-22.04,0.16-40.41,18.74-40.21,40.67
		C298.83,670.77,317.29,689.03,339.28,688.89z"/>
	<path class="st5" d="M554.15,782.93c8.44,5.21,15.94,9.43,24.37,11.5c4.53,1.11,2.72,4.75,2.72,7.32
		c0.12,31.49,0.24,62.97-0.06,94.46c-0.06,6.11,1.16,8.23,7.79,8.07c18.96-0.45,18.97-0.12,18.97-18.73
		c0-27.41,0.12-54.83-0.11-82.24c-0.04-5.06,0.94-6.94,6.56-6.94c20.73,0.01,20.73-0.23,20.72,20.3c-0.01,24.7,0.26,49.4-0.11,74.1
		c-0.31,19.95-14.83,36.68-33.34,39.47c-20.31,3.07-38.38-7.55-45.07-26.46c-1.55-4.39-2.41-8.91-2.41-13.54
		C554.13,854.97,554.15,819.69,554.15,782.93z"/>
	<path class="st1" d="M742.27,204.55c-59.71,0-119.43-0.1-179.14,0.13c-6.63,0.03-9.37-0.81-9.22-8.62
		c0.55-29.11,16.35-45.27,45.57-45.27c95.27-0.02,190.54-0.01,285.81,0c29.84,0,45.52,15.93,45.75,45.7
		c0.05,6.26-1.41,8.24-8.01,8.21c-58.08-0.27-116.17-0.16-174.25-0.16C746.61,204.55,744.44,204.55,742.27,204.55z"/>
	<path class="st6" d="M876.99,446.17c0.3,74.12-59.86,134.83-133.9,135.11c-73.9,0.28-134.74-60.12-135.11-134.12
		c-0.37-73.94,59.8-134.45,134.11-134.88C816.27,311.85,876.69,371.82,876.99,446.17z"/>
	<path class="st2" d="M339.28,688.89c-21.99,0.14-40.46-18.12-40.66-40.21c-0.2-21.94,18.16-40.51,40.21-40.67
		c21.99-0.16,40.5,18.17,40.63,40.22C379.58,670.27,361.33,688.75,339.28,688.89z M339.06,661.69c7.57-0.01,13.24-5.7,13.22-13.28
		c-0.02-7.56-5.73-13.25-13.29-13.23c-7.54,0.02-13.26,5.76-13.24,13.29C325.76,655.99,331.51,661.7,339.06,661.69z"/>
	<path class="st1" d="M339.06,661.69c-7.55,0.01-13.3-5.7-13.31-13.22c-0.01-7.53,5.7-13.27,13.24-13.29
		c7.55-0.02,13.27,5.67,13.29,13.23C352.3,655.99,346.63,661.68,339.06,661.69z"/>
	<g>
		<path class="st0" d="M303.86,153.66c1.87-2.3,3.94-4.4,6.26-6.24c2.93,1.71,5.31,1.03,7.62-1.37c4.75-4.94,9.67-9.71,14.5-14.57
			c1.53-1.54,3.18-2.89,5.28-3.56c5.43-1.75,9.68,0.19,13.53,4.05c25.06,25.14,50.17,50.22,75.26,75.32c1.44,1.44,2.8,2.97,4.2,4.46
			c-1.22,6.73-5.74,11.22-10.36,15.78c-13.89,13.7-27.63,27.56-41.41,41.36c-0.86,0.86-1.61,1.83-2.41,2.74
			c-1.02,0.08-2.03,0.22-3.05,0.22c-31.08,0-62.16,0-93.25-0.03c-0.86,0-1.81,0.32-2.64-0.45c0.28-1.2,1.32-1.77,2.07-2.52
			c9.6-9.63,19.22-19.24,28.83-28.87c0.79-0.79,1.65-1.57,2.24-2.5c1.26-1.99,0.94-3.96-0.68-5.59c-1.52-1.53-3.43-1.87-5.33-0.78
			c-0.95,0.54-1.75,1.4-2.54,2.19c-12.08,12.07-24.18,24.12-36.19,36.25c-1.62,1.64-3.23,2.48-5.59,2.37
			c-3.88-0.19-7.77-0.16-11.65,0.02c-12,0.55-20.54,9.42-20.64,21.46c-0.11,13.19-0.1,26.37-0.15,39.56
			c-2.85-2.71-5.71-5.41-8.57-8.12c2.03-3.51,1.88-4.82-1.08-7.78c-8.59-8.61-17.2-17.21-25.8-25.81
			c-6.78-6.79-6.76-13.03,0.05-19.84c36.57-36.57,73.15-73.15,109.72-109.72C305.42,158.35,305.6,157.47,303.86,153.66z
			 M321.05,202.27c6.97,0.09,11.21-1.32,14.59-4.55c5.32-5.08,10.6-10.2,15.59-15.6c6.57-7.11,6.28-18.04-0.31-25.05
			c-6.6-7.02-17.56-8.1-24.95-1.89c-6.24,5.25-12.09,11.04-17.28,17.34c-4.76,5.78-5.26,12.57-2.02,19.28
			C309.96,198.64,315.71,202.07,321.05,202.27z M289.16,212.84c-0.21-1.74-0.99-3.2-2.75-4c-2.19-1-3.96-0.26-5.53,1.31
			c-22.93,22.93-45.86,45.85-68.77,68.79c-2.34,2.35-2.41,5.09-0.37,7.03c1.98,1.87,4.52,1.78,6.8-0.5
			c22.94-22.91,45.86-45.85,68.79-68.77C288.38,215.65,289.09,214.47,289.16,212.84z"/>
		<path d="M227.77,332.95c0.04-13.19,0.04-26.37,0.15-39.56c0.1-12.04,8.63-20.91,20.64-21.46c3.88-0.18,7.78-0.2,11.65-0.02
			c2.37,0.11,3.97-0.73,5.59-2.37c12.02-12.13,24.11-24.19,36.19-36.25c0.79-0.79,1.59-1.65,2.54-2.19
			c1.91-1.08,3.81-0.75,5.33,0.78c1.62,1.63,1.94,3.6,0.68,5.59c-0.59,0.93-1.45,1.71-2.24,2.5c-9.61,9.63-19.23,19.23-28.83,28.87
			c-0.75,0.75-1.78,1.32-2.07,2.52c0.82,0.77,1.78,0.45,2.64,0.45c31.08,0.03,62.16,0.04,93.25,0.03c1.02,0,2.03-0.14,3.05-0.22
			c4.47,0.61,8.97,0.03,13.44,0.31c2.11,0.13,3.6-0.56,5.1-2.07c12.23-12.34,24.54-24.6,36.82-36.89c7.43-7.44,7.04-14.6-1.17-21.23
			c-1.4-1.49-2.76-3.01-4.2-4.46c-25.09-25.11-50.2-50.19-75.26-75.32c-3.85-3.86-8.1-5.8-13.53-4.05c-2.1,0.67-3.75,2.02-5.28,3.56
			c-4.83,4.86-9.75,9.63-14.5,14.57c-2.31,2.4-4.69,3.08-7.62,1.37c-2.05-3.56-1.9-4.94,0.96-7.81c4.83-4.86,9.99-9.43,14.47-14.6
			c7.52-8.68,23.67-8.24,31.59-0.16c27.14,27.69,54.75,54.91,82.12,82.36c9.32,9.35,9.22,21.92-0.14,31.33
			c-10.17,10.23-20.39,20.41-30.6,30.6c-0.7,0.7-1.47,1.32-2.21,1.97c0.1,0.25,0.19,0.49,0.29,0.74c1.06,0,2.12,0,3.18,0
			c13.09,0,26.19-0.06,39.28,0.02c10.97,0.07,18.95,6.12,21.51,16.05c0.54,2.1,0.62,4.25,0.62,6.39c0.01,26.6,0.01,53.2,0,79.79
			c0,4.38-0.69,5.3-4.56,6.43c-3.85-1.14-4.55-2.02-4.56-6.07c-0.03-8.36-0.03-16.72,0.01-25.08c0.01-1.73-0.08-3.01-2.38-2.83
			c-2.63,0.21-5.28,0.19-7.92,0.27c-0.81-0.06-1.62-0.17-2.43-0.17c-69.73-0.01-139.46,0.01-209.2-0.07c-2.69,0-3.1,0.9-3.09,3.31
			c0.1,19.74,0.05,39.47,0.05,59.21c0,9.5,4.55,14.01,14.13,14.01c64.21,0,128.42,0,192.63,0c1.02,0,2.04-0.05,3.06-0.08
			c10.31,0.52,15.12-4.03,15.12-14.33c0-4.37,0.11-8.75-0.03-13.12c-0.11-3.39,1.23-5.44,4.6-6.07c3.26,0.59,4.63,2.59,4.58,5.84
			c-0.09,5.62,0.16,11.26-0.15,16.86c-0.65,11.72-9.55,20.05-21.29,20.09c-17.68,0.06-35.37,0.02-53.05,0.02
			c-48.56,0-97.11,0-145.67,0c-14.41,0-23.14-8.68-23.14-23.03c-0.01-24.23,0-48.46-0.01-72.69
			C227.9,335.4,227.81,334.18,227.77,332.95z M451.89,337.22c2.45,0.01,4.91-0.07,7.35,0.05c1.81,0.08,2.62-0.49,2.52-2.42
			c-0.12-2.45,0.08-4.91-0.06-7.35c-0.17-3.01,1.4-7.03-0.71-8.77c-2.15-1.77-6.07-0.5-9.22-0.44c-0.82-0.03-1.63-0.08-2.45-0.08
			c-69.63,0-139.26,0-208.89,0c-0.31,0-0.62,0.04-0.92-0.01c-1.86-0.26-2.51,0.51-2.45,2.4c0.12,4.19,0.04,8.38,0.04,12.58
			c0,4.16,0,4.16,4.07,4.16c69.12,0,138.24,0,207.36,0C449.64,337.33,450.76,337.26,451.89,337.22z M451.84,308.89
			c2.75,0.04,5.5,0.02,8.25,0.13c1.44,0.06,2-0.43,1.97-1.91c-0.09-4.89,0.17-9.8-0.17-14.67c-0.54-7.79-6.49-12.26-14.37-11.14
			c-1.42-0.07-2.85-0.21-4.27-0.21c-63.6-0.01-127.2-0.01-190.8-0.01c-1.02,0-2.05-0.02-3.07,0.01
			c-7.42,0.24-12.17,5.06-12.26,12.47c-0.05,3.89,0.2,7.79-0.08,11.65c-0.22,3.02,0.58,3.87,3.76,3.86
			c69.32-0.11,138.65-0.08,207.97-0.09C449.8,308.99,450.82,308.92,451.84,308.89z"/>
		<path d="M303.86,153.66c1.74,3.81,1.56,4.7-1.77,8.02c-36.57,36.58-73.14,73.15-109.72,109.72c-6.8,6.8-6.83,13.05-0.05,19.84
			c8.6,8.61,17.21,17.2,25.8,25.81c2.95,2.96,3.11,4.27,1.08,7.78c-2.89,1.94-5.24,1.21-7.58-1.17
			c-8.9-9.02-17.94-17.91-26.85-26.93c-8.93-9.03-9.08-21.68-0.15-30.64c37.17-37.28,74.41-74.47,111.65-111.69
			C298.95,151.75,300.39,151.66,303.86,153.66z"/>
		<path class="st1" d="M466.63,389.53c-3.37,0.63-4.71,2.68-4.6,6.07c0.14,4.37,0.04,8.74,0.03,13.12
			c-0.01,10.3-4.81,14.85-15.12,14.33c3.01-3.15,4.87-6.91,4.89-11.23c0.07-21.66-0.01-43.32-0.04-64.98
			c2.64-0.08,5.29-0.06,7.92-0.27c2.3-0.19,2.39,1.1,2.38,2.83c-0.05,8.36-0.04,16.72-0.01,25.08c0.01,4.05,0.71,4.93,4.56,6.07
			C466.63,383.54,466.63,386.53,466.63,389.53z"/>
		<path d="M321.05,202.27c-5.34-0.2-11.09-3.63-14.38-10.46c-3.23-6.71-2.74-13.5,2.02-19.28c5.19-6.3,11.03-12.09,17.28-17.34
			c7.39-6.21,18.35-5.14,24.95,1.89c6.59,7.01,6.87,17.94,0.31,25.05c-4.98,5.4-10.27,10.53-15.59,15.6
			C332.25,200.95,328.02,202.36,321.05,202.27z M324.49,193.09c1.23,0.04,3.4-0.63,5.07-2.26c5.05-4.93,10.14-9.83,14.93-15
			c3.4-3.66,2.92-9.32-0.61-12.76c-3.45-3.36-8.96-3.76-12.52-0.43c-5.22,4.89-10.29,9.96-15.17,15.2
			c-2.67,2.86-2.91,6.49-1.18,10.02C316.67,191.28,319.52,193.03,324.49,193.09z"/>
		<path d="M289.16,212.84c-0.06,1.63-0.78,2.81-1.83,3.86c-22.93,22.92-45.85,45.86-68.79,68.77c-2.28,2.27-4.83,2.37-6.8,0.5
			c-2.04-1.94-1.98-4.68,0.37-7.03c22.91-22.94,45.84-45.86,68.77-68.79c1.58-1.58,3.34-2.31,5.53-1.31
			C288.17,209.64,288.94,211.1,289.16,212.84z"/>
		<path class="st0" d="M430.52,211.74c8.21,6.63,8.6,13.79,1.17,21.23c-12.28,12.29-24.59,24.55-36.82,36.89
			c-1.49,1.51-2.98,2.2-5.1,2.07c-4.47-0.28-8.97,0.31-13.44-0.31c0.8-0.92,1.55-1.88,2.41-2.74
			c13.78-13.81,27.52-27.66,41.41-41.36C424.78,222.96,429.29,218.47,430.52,211.74z"/>
		<path class="st1" d="M451.79,346.84c0.03,21.66,0.11,43.32,0.04,64.98c-0.01,4.32-1.88,8.09-4.89,11.23
			c-1.02,0.03-2.04,0.08-3.06,0.08c-64.21,0-128.42,0-192.63,0c-9.58,0-14.13-4.51-14.13-14.01c0-19.74,0.04-39.47-0.05-59.21
			c-0.01-2.41,0.4-3.31,3.09-3.31c69.73,0.08,139.46,0.06,209.2,0.07C450.16,346.67,450.97,346.78,451.79,346.84z M356.82,412.11
			c9.61,0,19.23,0.04,28.84-0.01c4.98-0.03,7.78-2.83,7.83-7.81c0.06-5.32,0.06-10.64,0-15.96c-0.05-5.01-2.75-7.71-7.78-7.9
			c-1.74-0.06-3.48-0.02-5.22-0.02c-17.08,0-34.16-0.01-51.24,0.01c-6.43,0.01-8.84,2.47-8.85,8.93c-0.01,4.71-0.01,9.41,0,14.12
			c0.02,6.12,2.47,8.63,8.49,8.64C338.21,412.12,347.52,412.11,356.82,412.11z M425.5,412.11c4.29,0,8.58,0,12.86,0
			c0.2,0,0.41,0,0.61,0c4.64-0.15,7.37-2.84,7.43-7.51c0.07-5.51,0.06-11.03,0-16.54c-0.05-4.6-2.53-7.47-7.05-7.55
			c-9.29-0.18-18.58-0.18-27.87,0.01c-4.39,0.09-6.91,2.94-6.97,7.31c-0.07,5.61-0.08,11.23,0,16.85c0.06,4.62,2.84,7.36,7.5,7.43
			C416.52,412.16,421.01,412.11,425.5,412.11z M285.99,412.11c4.59,0,9.18,0.02,13.78-0.01c3.58-0.02,5.69-1.71,5.74-4.52
			c0.06-2.92-2.13-4.67-5.89-4.68c-8.88-0.01-17.76-0.01-26.63,0c-3.92,0-5.94,1.55-5.99,4.53c-0.05,3.08,2.02,4.67,6.14,4.68
			C277.42,412.12,281.71,412.11,285.99,412.11z"/>
		<path class="st1" d="M451.84,308.89c-1.02,0.04-2.04,0.1-3.06,0.11c-69.32,0.01-138.65-0.02-207.97,0.09
			c-3.18,0-3.97-0.84-3.76-3.86c0.28-3.87,0.03-7.77,0.08-11.65c0.09-7.41,4.84-12.23,12.26-12.47c1.02-0.03,2.04-0.01,3.07-0.01
			c63.6,0,127.2,0,190.8,0.01c1.42,0,2.85,0.14,4.27,0.21c1.98,3.29,4.25,6.5,4.31,10.54C451.92,297.52,451.85,303.2,451.84,308.89z
			"/>
		<path class="st5" d="M451.89,337.22c-1.12,0.04-2.24,0.11-3.37,0.11c-69.12,0.01-138.24,0-207.36,0c-4.06,0-4.06,0-4.07-4.16
			c0-4.19,0.08-8.39-0.04-12.58c-0.05-1.9,0.59-2.66,2.45-2.4c0.3,0.04,0.61,0.01,0.92,0.01c69.63,0,139.26,0,208.89,0
			c0.82,0,1.63,0.05,2.45,0.08C451.81,324.6,451.85,330.91,451.89,337.22z"/>
		<path class="st1" d="M451.84,308.89c0.01-5.68,0.08-11.37-0.01-17.05c-0.06-4.04-2.33-7.25-4.31-10.54
			c7.88-1.12,13.83,3.35,14.37,11.14c0.33,4.87,0.08,9.78,0.17,14.67c0.03,1.48-0.53,1.97-1.97,1.91
			C457.34,308.91,454.59,308.92,451.84,308.89z"/>
		<path class="st5" d="M451.89,337.22c-0.04-6.31-0.08-12.63-0.11-18.94c3.15-0.05,7.07-1.32,9.22,0.44
			c2.11,1.74,0.55,5.76,0.71,8.77c0.14,2.44-0.07,4.91,0.06,7.35c0.1,1.93-0.71,2.5-2.52,2.42
			C456.79,337.16,454.34,337.23,451.89,337.22z"/>
		<path class="st5" d="M324.49,193.09c-4.97-0.06-7.81-1.82-9.48-5.23c-1.72-3.53-1.49-7.16,1.18-10.02
			c4.88-5.23,9.94-10.31,15.17-15.2c3.56-3.33,9.07-2.93,12.52,0.43c3.53,3.44,4.01,9.1,0.61,12.76c-4.8,5.17-9.89,10.07-14.93,15
			C327.89,192.46,325.72,193.13,324.49,193.09z"/>
		<path d="M356.82,412.11c-9.31,0-18.61,0.01-27.92,0c-6.02-0.01-8.47-2.51-8.49-8.64c-0.01-4.71-0.01-9.41,0-14.12
			c0.01-6.47,2.42-8.93,8.85-8.93c17.08-0.02,34.16-0.01,51.24-0.01c1.74,0,3.48-0.05,5.22,0.02c5.04,0.19,7.73,2.89,7.78,7.9
			c0.06,5.32,0.06,10.64,0,15.96c-0.06,4.98-2.85,7.78-7.83,7.81C376.05,412.14,366.44,412.11,356.82,412.11z M356.81,402.9
			c8.38,0,16.77-0.06,25.15,0.04c1.87,0.02,2.51-0.43,2.38-2.36c-0.18-2.85-0.16-5.73,0-8.58c0.11-1.91-0.51-2.45-2.4-2.41
			c-5.31,0.12-10.63,0.04-15.95,0.04c-11.25,0-22.5,0.06-33.74-0.05c-2.19-0.02-2.82,0.63-2.68,2.75c0.18,2.75,0.18,5.53,0,8.28
			c-0.13,1.96,0.56,2.36,2.4,2.34C340.25,402.84,348.53,402.9,356.81,402.9z"/>
		<path d="M425.5,412.11c-4.49,0-8.98,0.05-13.48-0.02c-4.66-0.07-7.44-2.8-7.5-7.43c-0.07-5.61-0.07-11.23,0-16.85
			c0.06-4.38,2.58-7.23,6.97-7.31c9.29-0.18,18.58-0.18,27.87-0.01c4.52,0.09,7,2.95,7.05,7.55c0.06,5.51,0.07,11.03,0,16.54
			c-0.06,4.67-2.79,7.36-7.43,7.51c-0.2,0.01-0.41,0-0.61,0C434.08,412.11,429.79,412.11,425.5,412.11z M425.16,402.9
			c3.37,0,6.74-0.05,10.11,0.02c1.35,0.03,2.04-0.19,1.98-1.79c-0.12-3.16-0.12-6.34,0-9.5c0.06-1.68-0.6-2.05-2.14-2.03
			c-6.43,0.07-12.87,0.07-19.3,0c-1.54-0.02-2.2,0.36-2.13,2.03c0.12,3.06,0.15,6.13-0.01,9.19c-0.1,1.88,0.7,2.16,2.3,2.11
			C419.03,402.82,422.1,402.9,425.16,402.9z"/>
		<path d="M285.99,412.11c-4.29,0-8.57,0.01-12.86,0c-4.11-0.01-6.18-1.6-6.14-4.68c0.05-2.98,2.06-4.52,5.99-4.53
			c8.88-0.01,17.76-0.01,26.63,0c3.77,0.01,5.95,1.76,5.89,4.68c-0.05,2.81-2.16,4.5-5.74,4.52
			C295.18,412.13,290.59,412.11,285.99,412.11z"/>
		<path class="st5" d="M356.81,402.9c-8.28,0-16.56-0.06-24.85,0.04c-1.84,0.02-2.53-0.37-2.4-2.34c0.18-2.75,0.18-5.53,0-8.28
			c-0.13-2.12,0.5-2.77,2.68-2.75c11.25,0.11,22.49,0.05,33.74,0.05c5.32,0,10.64,0.08,15.95-0.04c1.89-0.04,2.51,0.5,2.4,2.41
			c-0.16,2.85-0.17,5.73,0,8.58c0.12,1.94-0.52,2.39-2.38,2.36C373.58,402.84,365.2,402.9,356.81,402.9z"/>
		<path class="st5" d="M425.16,402.9c-3.06,0-6.13-0.07-9.19,0.03c-1.6,0.06-2.4-0.23-2.3-2.11c0.16-3.06,0.13-6.13,0.01-9.19
			c-0.07-1.68,0.59-2.05,2.13-2.03c6.43,0.07,12.87,0.07,19.3,0c1.54-0.02,2.2,0.35,2.14,2.03c-0.12,3.16-0.12,6.34,0,9.5
			c0.06,1.6-0.64,1.82-1.98,1.79C431.9,402.85,428.53,402.9,425.16,402.9z"/>
	</g>
	<path class="st7" d="M742.68,309.5c-36.68,0-71.87,14.58-97.8,40.51c-25.93,25.93-40.51,61.12-40.51,97.8s14.58,71.87,40.51,97.8
		s61.12,40.51,97.8,40.51s71.87-14.58,97.8-40.51S881,484.49,881,447.81c-0.04-36.67-14.63-71.83-40.56-97.76
		C814.51,324.13,779.35,309.54,742.68,309.5L742.68,309.5z M783.92,410.79h15.44c5.58,0,10.1,4.52,10.1,10.1s-4.52,10.1-10.1,10.1
		h-15.43c-2.18,13.7-9.2,26.16-19.78,35.11c-10.59,8.96-24.03,13.82-37.9,13.7H713l55.21,48.22c4.22,3.75,4.65,10.18,0.99,14.48
		c-1.76,2.02-4.25,3.26-6.92,3.44c-2.67,0.17-5.31-0.71-7.32-2.49l-75.57-65.77c-3.17-2.83-4.3-7.3-2.84-11.28
		c1.46-3.99,5.2-6.68,9.45-6.79h40.26c8.48,0.03,16.72-2.77,23.42-7.95c6.71-5.18,11.49-12.45,13.6-20.66H686
		c-5.57,0-10.1-4.52-10.1-10.1s4.52-10.1,10.1-10.1h77.26c-2.49-7.84-7.42-14.69-14.08-19.53s-14.68-7.44-22.92-7.4H686
		c-5.57,0-10.1-4.52-10.1-10.1s4.52-10.1,10.1-10.1h113.37c5.57,0,10.1,4.52,10.1,10.1c0,5.58-4.53,10.1-10.1,10.1h-28.93
		C777.28,390.59,782.05,400.69,783.92,410.79z"/>
</g>
</svg>
