<?xml version="1.0" encoding="utf-8"?>
<!-- Generator: Adobe Illustrator 24.0.1, SVG Export Plug-In . SVG Version: 6.00 Build 0)  -->
<svg version="1.1" id="Layer_1" xmlns="http://www.w3.org/2000/svg" xmlns:xlink="http://www.w3.org/1999/xlink" x="0px" y="0px"
	 viewBox="0 0 1080 1080" style="enable-background:new 0 0 1080 1080;" xml:space="preserve">
<style type="text/css">
	.st0{fill-rule:evenodd;clip-rule:evenodd;}
	.st1{fill:#F6F2E0;}
	.st2{fill:#800000;}
	.st3{fill:#FFFFFF;}
	.st4{fill:#6ECAD9;}
	.st5{fill:#FFFFFF;stroke:#000000;stroke-width:5;stroke-miterlimit:10;}
	.st6{fill:#FFBD11;stroke:#000000;stroke-width:5;stroke-miterlimit:10;}
</style>
<g>
	<path class="st0" d="M736.53,713.2c-53.28,44.51-121.54,71.82-196.34,73.12c-173.95,3.04-317.63-135.71-320.66-309.67
		c-3.04-173.96,135.7-317.63,309.65-320.66c173.95-3.04,317.64,135.7,320.68,309.65c1.31,74.79-23.6,143.97-66.22,198.77
		l208.46,201.3c13.47,13,13.85,34.47,0.84,47.94c-13,13.47-34.47,13.85-47.94,0.84L736.53,713.2z M529.83,193.07
		c153.49-2.68,280.26,119.75,282.94,273.23c2.68,153.49-119.74,280.26-273.23,282.94C386.07,751.92,259.29,629.5,256.6,476.01
		C253.92,322.53,376.35,195.75,529.83,193.07z"/>
	<path d="M536.6,351.64c4.28,0,7.78,3.5,7.78,7.78v0.55c13.57,1.9,25.86,8.14,35.18,17.27c10.98,10.76,17.85,25.53,17.85,41.95
		l-0.52,20.27l4.02,29.07c0.16,0.94,0.07,1.91-0.26,2.8c-0.33,0.9-0.89,1.69-1.62,2.3l0.5,0.58l0.92,1.1l-4.05,5.37l-0.07,0.19
		l-0.02,0.06c-1.24,3.16-2.9,6.03-4.82,8.15c-1.61,1.72-3.42,2.96-5.38,3.44c-0.38,1.22-0.8,2.47-1.11,3.71
		c-2.19,7.38-3.91,13.19-8.46,18.96c-0.99,1.26-2.05,2.47-3.18,3.62c-0.76,0.81-1.56,1.58-2.39,2.32c0.13,1.4,0.12,13.67,0.09,17.17
		l-1.34,0.32c-2.94,10.39-11.74,17.13-22.1,20.31c-5.9,1.81-12.32,2.47-18.45,2c-6.17-0.47-12.07-2.11-16.87-4.86
		c-6.74-3.87-11.35-9.94-11.68-18.15v-0.57l-1.46-0.4v-15.75l0.03-1.65c-4.2-3.8-7.64-8.84-9.95-13.97
		c-1.61-3.57-2.89-7.44-4.38-11.82l-0.77-2.28c-1.68-0.22-3.25-0.99-4.66-2.15c-1.77-1.45-3.29-3.57-4.53-6.02
		c-0.83-1.64-2.48-4.1-3.08-9.22c-1.79-1.09-2.87-3.18-2.56-5.4l4.04-29.1l-1.13-17.81c-0.08-1.29-0.12-2.47-0.12-3.53
		c0-15.87,6.83-30.12,17.63-40.63c10.25-9.99,24.13-16.61,39.13-18.01v-0.22C528.81,355.14,532.31,351.64,536.6,351.64z"/>
	<path d="M542.3,556.03c9.08-2.03,17.33-7.09,21.36-14.88c1.29-3.04,4.54-4.91,7.94-4.32c5.35,0.94,8.61,1.47,11.9,1.99
		c39.09,6.3,76.18,12.28,86.42,61.93l11.06,59.79c0.17,0.62,0.26,1.26,0.26,1.92c0,4.02-3.26,7.27-7.27,7.27h-277.7
		c-0.38-0.02-0.77-0.05-1.16-0.11c-3.95-0.64-6.63-4.36-5.99-8.32l8.26-50.38c11.67-59.34,42.61-65.48,87.44-74.38
		c4.72-0.93,9.57-1.9,13.35-2.69c3.87-0.8,7.68,1.66,8.54,5.53c1.52,6.83,5.91,11.58,11.59,14.39c3.41,1.69,7.28,2.7,11.3,3.08
		C533.79,557.24,538.12,556.96,542.3,556.03z"/>
	<path class="st1" d="M565.48,522.38c-20.32,15.81-40.41,14.31-60.31,0.14l-0.09,15.75c2.1,24.42,54.43,25.8,60.4,0.72V522.38z
		 M594.33,475.95c-0.51-0.6-1.01-1.2-1.53-1.79l-0.35-0.22c-13.67-9.62-35.49-14.42-57.41-14.42c-21.29,0-42.38,4.52-55.89,13.51
		l1.89,8.37l6.23,6.53l3.85,4.15c10.84,45.34,77.13,48.19,88.73,0l6.82-5.93L594.33,475.95z"/>
	<path class="st2" d="M595.59,469.47l-3.63-26.3c-0.4-0.02-0.81-0.11-1.2-0.28c-19.86-8.66-39-12.21-57.53-11.81
		c-18.54,0.41-36.54,4.79-54.06,11.99c-0.27,0.11-0.55,0.19-0.83,0.22l-3.63,26.17C503.44,448.96,566.31,448.85,595.59,469.47z
		 M591.6,435.86l0.4-15.28c0.81-30.95-25.33-55.79-56.29-55.79h-0.88c-31.45,0-59.18,25.29-57.17,56.67l0.93,14.52
		c17.63-7.03,35.77-11.28,54.52-11.69C551.99,423.89,571.46,427.38,591.6,435.86z"/>
	<path class="st3" d="M546.18,393.72h-3.39c-0.2-0.96-0.55-1.81-1.05-2.53c-0.49-0.73-1.09-1.34-1.81-1.83
		c-0.7-0.5-1.48-0.88-2.34-1.13c-0.86-0.25-1.75-0.38-2.68-0.38c-1.7,0-3.23,0.42-4.61,1.27c-1.37,0.84-2.46,2.09-3.27,3.73
		c-0.8,1.64-1.2,3.66-1.2,6.05c0,2.39,0.4,4.41,1.2,6.05c0.81,1.65,1.9,2.89,3.27,3.73c1.38,0.85,2.91,1.27,4.61,1.27
		c0.93,0,1.82-0.13,2.68-0.38c0.86-0.25,1.64-0.62,2.34-1.12c0.71-0.5,1.31-1.12,1.81-1.85c0.5-0.74,0.85-1.58,1.05-2.54h3.39
		c-0.25,1.41-0.72,2.67-1.39,3.79c-0.67,1.11-1.51,2.06-2.52,2.84c-1,0.77-2.13,1.36-3.38,1.77c-1.24,0.4-2.57,0.61-3.98,0.61
		c-2.39,0-4.51-0.58-6.37-1.73c-1.86-1.15-3.32-2.79-4.39-4.91c-1.07-2.12-1.6-4.64-1.6-7.55c0-2.91,0.53-5.43,1.6-7.55
		c1.07-2.12,2.53-3.76,4.39-4.91c1.86-1.15,3.99-1.73,6.37-1.73c1.41,0,2.74,0.2,3.98,0.61c1.25,0.4,2.38,1,3.38,1.78
		c1,0.77,1.84,1.72,2.52,2.83C545.46,391.03,545.92,392.3,546.18,393.72z"/>
	<path class="st4" d="M570.43,543.97c-5.12,10.39-15.81,16.95-27.39,19.31v33.73h-15.67l-0.01-33.15
		c-13.06-1.72-24.57-9.16-27.64-22.92c-49.24,10.39-83.31,11.17-95.14,71.36l-2.82,17.14h60.05v-30.5c0-1.87,1.52-3.38,3.38-3.38
		s3.38,1.52,3.38,3.38v63.5h132.9v-63.5c0-1.87,1.52-3.38,3.38-3.38c1.87,0,3.38,1.52,3.38,3.38v30.5h59.71l-4.97-26.88
		C652.87,552.56,611.22,551.12,570.43,543.97z M399.11,645.71l-2.75,16.74h65.46v-16.74H399.11z M608.25,662.45h65.81l-3.1-16.74
		h-62.71V662.45z"/>
	<path d="M510.58,628.62h-3.14c-0.09-0.52-0.25-0.97-0.49-1.37c-0.24-0.4-0.54-0.74-0.9-1.02c-0.36-0.28-0.77-0.49-1.23-0.63
		c-0.45-0.15-0.94-0.22-1.47-0.22c-0.93,0-1.76,0.24-2.48,0.71c-0.72,0.46-1.29,1.15-1.7,2.05c-0.41,0.9-0.61,1.99-0.61,3.28
		c0,1.31,0.2,2.42,0.61,3.32c0.41,0.9,0.98,1.57,1.7,2.03c0.72,0.45,1.55,0.68,2.48,0.68c0.52,0,1-0.07,1.44-0.2
		c0.45-0.14,0.86-0.34,1.22-0.61c0.36-0.27,0.67-0.6,0.92-0.99c0.25-0.39,0.43-0.84,0.52-1.34l3.14,0.02
		c-0.12,0.82-0.37,1.58-0.76,2.3c-0.39,0.72-0.89,1.35-1.52,1.9c-0.63,0.54-1.36,0.97-2.2,1.28c-0.84,0.3-1.77,0.45-2.8,0.45
		c-1.51,0-2.86-0.35-4.05-1.05c-1.19-0.7-2.12-1.71-2.8-3.03c-0.68-1.32-1.02-2.9-1.02-4.75c0-1.85,0.34-3.44,1.03-4.75
		c0.69-1.32,1.63-2.33,2.81-3.03c1.19-0.7,2.53-1.05,4.03-1.05c0.96,0,1.85,0.13,2.67,0.4c0.82,0.27,1.56,0.66,2.2,1.18
		c0.64,0.52,1.17,1.15,1.59,1.9C510.18,626.81,510.45,627.66,510.58,628.62z"/>
	<path d="M528.8,631.42c0,1.85-0.35,3.44-1.04,4.76c-0.69,1.32-1.63,2.32-2.82,3.02c-1.19,0.7-2.53,1.05-4.04,1.05
		c-1.51,0-2.85-0.35-4.05-1.05c-1.19-0.71-2.13-1.72-2.82-3.03c-0.69-1.32-1.03-2.9-1.03-4.75c0-1.85,0.34-3.44,1.03-4.75
		c0.69-1.32,1.63-2.33,2.82-3.03c1.19-0.7,2.54-1.05,4.05-1.05c1.51,0,2.85,0.35,4.04,1.05c1.19,0.7,2.13,1.71,2.82,3.03
		C528.45,627.98,528.8,629.56,528.8,631.42z M525.67,631.42c0-1.3-0.2-2.4-0.61-3.3c-0.4-0.9-0.96-1.58-1.68-2.04
		c-0.72-0.46-1.54-0.7-2.48-0.7c-0.93,0-1.76,0.23-2.48,0.7c-0.72,0.46-1.28,1.14-1.69,2.04c-0.4,0.9-0.6,2-0.6,3.3
		c0,1.3,0.2,2.41,0.6,3.31c0.41,0.9,0.97,1.58,1.69,2.04c0.72,0.46,1.54,0.69,2.48,0.69c0.93,0,1.76-0.23,2.48-0.69
		c0.72-0.46,1.28-1.14,1.68-2.04C525.46,633.82,525.67,632.72,525.67,631.42z"/>
	<path d="M533.03,640.01h-3.32l6.05-17.19h3.84l6.06,17.19h-3.32l-4.59-13.67h-0.13L533.03,640.01z M533.13,633.27h9.07v2.5h-9.07
		V633.27z"/>
	<path d="M561.83,628.62h-3.14c-0.09-0.52-0.25-0.97-0.5-1.37c-0.24-0.4-0.54-0.74-0.9-1.02c-0.36-0.28-0.77-0.49-1.23-0.63
		c-0.45-0.15-0.94-0.22-1.47-0.22c-0.93,0-1.76,0.24-2.48,0.71c-0.72,0.46-1.29,1.15-1.7,2.05c-0.41,0.9-0.61,1.99-0.61,3.28
		c0,1.31,0.2,2.42,0.61,3.32c0.41,0.9,0.98,1.57,1.7,2.03c0.72,0.45,1.55,0.68,2.48,0.68c0.52,0,1-0.07,1.44-0.2
		c0.45-0.14,0.86-0.34,1.22-0.61c0.36-0.27,0.67-0.6,0.91-0.99c0.25-0.39,0.43-0.84,0.52-1.34l3.14,0.02
		c-0.12,0.82-0.37,1.58-0.76,2.3c-0.39,0.72-0.89,1.35-1.52,1.9c-0.63,0.54-1.36,0.97-2.2,1.28c-0.84,0.3-1.77,0.45-2.8,0.45
		c-1.51,0-2.86-0.35-4.05-1.05c-1.19-0.7-2.12-1.71-2.8-3.03c-0.68-1.32-1.02-2.9-1.02-4.75c0-1.85,0.34-3.44,1.03-4.75
		c0.69-1.32,1.63-2.33,2.81-3.03c1.19-0.7,2.53-1.05,4.03-1.05c0.96,0,1.85,0.13,2.67,0.4c0.82,0.27,1.56,0.66,2.2,1.18
		c0.64,0.52,1.17,1.15,1.59,1.9C561.43,626.81,561.7,627.66,561.83,628.62z"/>
	<path d="M564.68,640.01v-17.19h3.11v7.28h7.97v-7.28h3.12v17.19h-3.12v-7.3h-7.97v7.3H564.68z"/>
	<g>
		<path class="st5" d="M668,299.38c-3.09,3.08-6.15,6.19-9.29,9.22c-0.91,0.88-1.23,1.65-0.95,2.97c0.73,3.42,1.23,6.89,1.79,10.35
			c0.26,1.59,0.33,3.17-1.21,4.28c-1.62,1.16-3.13,0.59-4.66-0.23c-2.93-1.57-5.93-3.01-8.79-4.68c-1.4-0.81-2.45-0.74-3.81,0.05
			c-2.95,1.71-6,3.23-9.03,4.8c-1.37,0.71-2.79,1.09-4.23,0.13c-1.57-1.05-1.63-2.6-1.36-4.22c0.58-3.45,1.13-6.91,1.85-10.34
			c0.29-1.38-0.02-2.28-1.04-3.21c-2.58-2.38-5.06-4.86-7.57-7.3c-1.17-1.15-2.11-2.38-1.42-4.17c0.66-1.7,2.03-2.22,3.71-2.43
			c3.39-0.44,6.75-1.08,10.14-1.46c1.39-0.15,2.17-0.64,2.76-1.92c1.46-3.17,3.12-6.26,4.62-9.41c0.7-1.48,1.7-2.43,3.39-2.47
			c1.8-0.04,2.87,0.92,3.62,2.51c1.45,3.08,3.09,6.08,4.52,9.17c0.61,1.33,1.34,1.99,2.89,2.14c3.13,0.3,6.22,1.03,9.36,1.32
			c1.94,0.18,3.48,0.84,4.73,2.28C668,297.62,668,298.5,668,299.38z"/>
		<path class="st6" d="M406.66,322.59c0.57-3.41,1.13-7.23,1.89-11c0.26-1.3,0.02-2.1-0.93-2.98c-2.63-2.45-5.17-5-7.76-7.5
			c-1.14-1.1-1.95-2.32-1.4-3.96c0.57-1.69,1.92-2.33,3.63-2.56c3.3-0.43,6.57-1.16,9.88-1.4c1.91-0.14,2.74-1.02,3.45-2.57
			c1.4-3.01,2.97-5.94,4.4-8.94c0.71-1.5,1.77-2.37,3.45-2.37c1.68,0,2.72,0.92,3.44,2.4c1.56,3.23,3.21,6.42,4.75,9.65
			c0.5,1.05,1.1,1.58,2.33,1.72c3.57,0.41,7.11,1.05,10.67,1.51c1.71,0.22,3.03,0.86,3.61,2.57c0.57,1.67-0.3,2.87-1.41,3.95
			c-2.51,2.45-4.98,4.95-7.57,7.31c-1.12,1.02-1.35,1.99-1.04,3.45c0.7,3.25,1.19,6.55,1.74,9.83c0.28,1.69,0.41,3.37-1.26,4.51
			c-1.63,1.11-3.15,0.5-4.68-0.31c-3.01-1.61-6.06-3.13-9.05-4.78c-1.12-0.62-2-0.61-3.12,0.01c-3.29,1.82-6.6,3.61-9.99,5.23
			C408.87,327.72,406.56,326.09,406.66,322.59z"/>
		<path class="st6" d="M478.12,279.34c1.66-0.01,2.75,0.78,3.48,2.29c1.54,3.23,3.2,6.42,4.74,9.65c0.54,1.13,1.22,1.69,2.55,1.84
			c3.57,0.39,7.11,1.03,10.67,1.51c1.61,0.22,2.88,0.86,3.43,2.44c0.55,1.6-0.13,2.88-1.29,3.99c-2.59,2.49-5.12,5.06-7.74,7.52
			c-0.92,0.86-1.27,1.63-1,2.96c0.73,3.6,1.34,7.24,1.8,10.88c0.47,3.72-2.03,5.45-5.41,3.79c-3.14-1.54-6.25-3.15-9.28-4.9
			c-1.4-0.81-2.45-0.74-3.82,0.05c-2.95,1.71-6.02,3.21-9.03,4.81c-1.49,0.79-2.97,1.09-4.43-0.04c-1.36-1.06-1.44-2.51-1.17-4.05
			c0.6-3.36,1.11-6.74,1.83-10.08c0.34-1.56-0.02-2.61-1.19-3.68c-2.4-2.18-4.68-4.49-7-6.76c-1.2-1.17-2.44-2.33-1.85-4.29
			c0.61-2.04,2.2-2.46,4.06-2.7c3.39-0.42,6.75-1.06,10.14-1.46c1.2-0.14,1.86-0.59,2.36-1.67c1.53-3.24,3.18-6.43,4.73-9.66
			C475.41,280.32,476.38,279.32,478.12,279.34z"/>
		<path class="st6" d="M533.23,279.33c1.56,0.05,2.58,0.82,3.26,2.23c1.55,3.23,3.22,6.4,4.74,9.65c0.59,1.25,1.35,1.77,2.76,1.92
			c3.48,0.37,6.93,1.02,10.4,1.48c1.59,0.21,2.93,0.75,3.47,2.36c0.57,1.69-0.11,3.02-1.37,4.21c-2.49,2.34-4.84,4.83-7.37,7.13
			c-1.19,1.08-1.48,2.19-1.19,3.69c0.66,3.44,1.19,6.9,1.84,10.34c0.29,1.52-0.02,2.8-1.22,3.77c-1.23,1-2.61,0.91-3.95,0.22
			c-3.19-1.63-6.41-3.22-9.52-4.99c-1.37-0.78-2.41-0.86-3.81-0.05c-2.95,1.71-6.02,3.21-9.03,4.81c-1.48,0.78-2.97,1.17-4.43,0.06
			c-1.43-1.09-1.54-2.55-1.19-4.25c0.68-3.34,1.13-6.73,1.77-10.09c0.28-1.43-0.06-2.45-1.15-3.46c-2.58-2.38-5.02-4.9-7.55-7.32
			c-1.18-1.13-1.77-2.41-1.28-4c0.5-1.64,1.82-2.21,3.41-2.43c3.56-0.49,7.1-1.12,10.66-1.51c1.34-0.15,1.98-0.73,2.52-1.86
			c1.54-3.24,3.2-6.41,4.74-9.64C530.46,280.1,531.56,279.3,533.23,279.33z"/>
		<path class="st6" d="M571.46,322.63c0.58-3.51,1.13-7.33,1.89-11.11c0.27-1.33-0.09-2.1-1-2.96c-2.62-2.46-5.15-5.02-7.74-7.52
			c-1.16-1.12-1.84-2.4-1.28-4c0.55-1.57,1.82-2.22,3.43-2.43c3.47-0.47,6.92-1.13,10.41-1.48c1.55-0.15,2.29-0.82,2.9-2.14
			c1.43-3.09,3.04-6.11,4.5-9.19c0.75-1.58,1.84-2.54,3.64-2.5c1.7,0.04,2.69,1.03,3.38,2.49c1.12,2.37,2.58,4.62,3.4,7.09
			c1.11,3.32,3.28,4.52,6.57,4.67c2.61,0.13,5.2,0.72,7.81,1.05c1.59,0.2,2.85,0.78,3.46,2.39c0.63,1.66-0.1,2.89-1.22,3.99
			c-2.51,2.46-4.98,4.95-7.57,7.31c-1.17,1.07-1.52,2.12-1.19,3.68c0.71,3.34,1.23,6.72,1.83,10.08c0.27,1.54,0.2,2.99-1.17,4.05
			c-1.47,1.13-2.97,0.78-4.44,0.02c-3.03-1.57-6.11-3.05-9.03-4.8c-1.52-0.91-2.62-0.72-4.05,0.09c-3.04,1.73-6.15,3.34-9.29,4.87
			C573.69,327.75,571.31,326.16,571.46,322.63z"/>
	</g>
</g>
</svg>
