<svg width="21" height="20" viewBox="0 0 21 20" fill="none" xmlns="http://www.w3.org/2000/svg">
<g clip-path="url(#clip0_1061_5472)">
<path opacity="0.8" d="M10.5 12C10.1852 12 9.92148 11.904 9.70889 11.712C9.49556 11.5207 9.38889 11.2833 9.38889 11C9.38889 10.7167 9.49556 10.479 9.70889 10.287C9.92148 10.0957 10.1852 10 10.5 10C10.8148 10 11.0789 10.0957 11.2922 10.287C11.5048 10.479 11.6111 10.7167 11.6111 11C11.6111 11.2833 11.5048 11.5207 11.2922 11.712C11.0789 11.904 10.8148 12 10.5 12ZM6.05556 12C5.74074 12 5.47667 11.904 5.26333 11.712C5.05074 11.5207 4.94444 11.2833 4.94444 11C4.94444 10.7167 5.05074 10.479 5.26333 10.287C5.47667 10.0957 5.74074 10 6.05556 10C6.37037 10 6.63445 10.0957 6.84778 10.287C7.06037 10.479 7.16667 10.7167 7.16667 11C7.16667 11.2833 7.06037 11.5207 6.84778 11.712C6.63445 11.904 6.37037 12 6.05556 12ZM14.9444 12C14.6296 12 14.3659 11.904 14.1533 11.712C13.94 11.5207 13.8333 11.2833 13.8333 11C13.8333 10.7167 13.94 10.479 14.1533 10.287C14.3659 10.0957 14.6296 10 14.9444 10C15.2593 10 15.523 10.0957 15.7356 10.287C15.9489 10.479 16.0556 10.7167 16.0556 11C16.0556 11.2833 15.9489 11.5207 15.7356 11.712C15.523 11.904 15.2593 12 14.9444 12ZM10.5 16C10.1852 16 9.92148 15.904 9.70889 15.712C9.49556 15.5207 9.38889 15.2833 9.38889 15C9.38889 14.7167 9.49556 14.4793 9.70889 14.288C9.92148 14.096 10.1852 14 10.5 14C10.8148 14 11.0789 14.096 11.2922 14.288C11.5048 14.4793 11.6111 14.7167 11.6111 15C11.6111 15.2833 11.5048 15.5207 11.2922 15.712C11.0789 15.904 10.8148 16 10.5 16ZM6.05556 16C5.74074 16 5.47667 15.904 5.26333 15.712C5.05074 15.5207 4.94444 15.2833 4.94444 15C4.94444 14.7167 5.05074 14.4793 5.26333 14.288C5.47667 14.096 5.74074 14 6.05556 14C6.37037 14 6.63445 14.096 6.84778 14.288C7.06037 14.4793 7.16667 14.7167 7.16667 15C7.16667 15.2833 7.06037 15.5207 6.84778 15.712C6.63445 15.904 6.37037 16 6.05556 16ZM14.9444 16C14.6296 16 14.3659 15.904 14.1533 15.712C13.94 15.5207 13.8333 15.2833 13.8333 15C13.8333 14.7167 13.94 14.4793 14.1533 14.288C14.3659 14.096 14.6296 14 14.9444 14C15.2593 14 15.523 14.096 15.7356 14.288C15.9489 14.4793 16.0556 14.7167 16.0556 15C16.0556 15.2833 15.9489 15.5207 15.7356 15.712C15.523 15.904 15.2593 16 14.9444 16ZM2.72222 20C2.11111 20 1.58778 19.8043 1.15222 19.413C0.717407 19.021 0.5 18.55 0.5 18V4C0.5 3.45 0.717407 2.97933 1.15222 2.588C1.58778 2.196 2.11111 2 2.72222 2H3.83333V1C3.83333 0.716667 3.93963 0.479 4.15222 0.287C4.36556 0.0956666 4.62963 0 4.94444 0C5.25926 0 5.52333 0.0956666 5.73667 0.287C5.94926 0.479 6.05556 0.716667 6.05556 1V2H14.9444V1C14.9444 0.716667 15.0511 0.479 15.2644 0.287C15.477 0.0956666 15.7407 0 16.0556 0C16.3704 0 16.6341 0.0956666 16.8467 0.287C17.06 0.479 17.1667 0.716667 17.1667 1V2H18.2778C18.8889 2 19.4122 2.196 19.8478 2.588C20.2826 2.97933 20.5 3.45 20.5 4V18C20.5 18.55 20.2826 19.021 19.8478 19.413C19.4122 19.8043 18.8889 20 18.2778 20H2.72222ZM2.72222 18H18.2778V8H2.72222V18Z" fill="#800000"/>
</g>
<defs>
<clipPath id="clip0_1061_5472">
<rect width="20" height="20" fill="white" transform="translate(0.5)"/>
</clipPath>
</defs>
</svg>
