<?xml version="1.0" encoding="utf-8"?>
<!-- Generator: Adobe Illustrator 24.0.1, SVG Export Plug-In . SVG Version: 6.00 Build 0)  -->
<svg version="1.1" id="Layer_1" xmlns="http://www.w3.org/2000/svg" xmlns:xlink="http://www.w3.org/1999/xlink" x="0px" y="0px"
	 viewBox="0 0 1080 1080" style="enable-background:new 0 0 1080 1080;" xml:space="preserve">
<style type="text/css">
	.st0{fill:#060606;stroke:#FFFFFF;stroke-width:13;stroke-miterlimit:10;}
	.st1{fill:#EEDC92;stroke:#EEDC92;stroke-width:14;stroke-miterlimit:10;}
	.st2{fill:#FFBD11;stroke:#FFBD11;stroke-width:15;stroke-miterlimit:10;}
	.st3{fill:#030303;}
	.st4{fill:#040404;}
	.st5{fill:#060606;}
	.st6{fill:#050505;}
	.st7{fill:#800000;}
</style>
<g>
	<path class="st0" d="M550.41,129.15c8.9,3.08,18.17,4.85,26.72,9.24c19.9,10.21,34.12,25.33,41.5,46.46
		c1.42,4.07,3.18,5.27,7.28,5.21c15.21-0.22,30.44,0.24,45.64-0.24c6.59-0.21,9.89,0.87,8.75,8.4c-0.71,4.7,0.26,9.63-0.23,14.38
		c-0.59,5.65,1.4,7.01,6.97,6.96c35.77-0.27,71.54-0.14,107.3-0.14c20.55,0,41.11,0.28,61.66-0.15c6.99-0.15,9.51,1.27,9.4,8.99
		c-0.48,33.63-0.21,67.26-0.21,100.9c0,203.67-0.03,407.33,0.14,611c0.01,6.89-1.16,9.3-8.86,9.29
		c-210.87-0.25-421.75-0.24-632.62-0.01c-7.2,0.01-8.51-1.88-8.52-8.7c-0.55-237.57-1.3-475.13-2.25-712.7
		c-0.03-7.07,1.63-8.84,8.74-8.8c56.05,0.32,112.11,0.07,168.16,0.33c6.31,0.03,9.09-0.93,8.41-8.01
		c-0.65-6.83-2.57-16.12,0.9-20.08c4.04-4.6,13.49-1.29,20.59-1.45c10.94-0.26,21.89-0.09,32.83-0.05c3,0.01,5.26,0.08,6.63-3.84
		c10.55-30.3,32.59-47.72,63.15-55.27c1.07-0.27,2.04-0.47,2.29-1.74C533.33,129.15,541.87,129.15,550.41,129.15z M839.12,584.86
		c0-110.5-0.06-221.01,0.15-331.51c0.01-6.45-1.25-8.52-8.15-8.46c-43.77,0.35-87.55,0.15-131.32,0.2
		c-6.35,0.01-14.75-2.03-18.5,1.18c-3.99,3.42-1.48,12.11-1.07,18.41c0.44,6.74-1.78,8.29-8.38,8.27
		c-85.41-0.24-170.83-0.16-256.24-0.16c-17.55,0-17.55,0-17.56-17.95c0-0.8-0.12-1.62,0.02-2.4c1.06-6-1.36-7.56-7.38-7.53
		c-48.04,0.26-96.09,0.3-144.13-0.02c-6.98-0.05-8.18,2.24-8.15,8.62c0.91,220.74,1.67,441.48,2.21,662.22
		c0.02,6.85,1.91,8.09,8.36,8.08c194.05-0.19,388.1-0.19,582.15,0.02c6.73,0.01,8.18-1.67,8.17-8.25
		C839.06,805.33,839.12,695.09,839.12,584.86z M539.26,215.57c-36,0-72.01,0.19-108-0.17c-6.47-0.06-8.19,1.85-7.64,7.92
		c0.51,5.55,0.48,11.22,0,16.78c-0.48,5.6,1.39,7.1,7.01,7.09c72.27-0.19,144.54-0.18,216.81-0.01c5.33,0.01,7.75-0.91,7.22-6.85
		c-0.54-6.09-0.5-12.29-0.01-18.38c0.44-5.37-1.48-6.52-6.59-6.49C611.8,215.67,575.53,215.57,539.26,215.57z M592.54,189.63
		c-9.05-21.47-31.63-35.4-55.41-34.88c-21.94,0.48-43.91,15.3-51.34,34.88C521.22,189.63,556.52,189.63,592.54,189.63z"/>
	<path class="st1" d="M839.12,584.86c0,110.24-0.06,220.48,0.16,330.71c0.01,6.59-1.43,8.26-8.17,8.25
		c-194.05-0.21-388.1-0.2-582.15-0.02c-6.45,0.01-8.34-1.23-8.36-8.08c-0.54-220.74-1.3-441.48-2.21-662.22
		c-0.03-6.37,1.17-8.66,8.15-8.62c48.04,0.32,96.09,0.28,144.13,0.02c6.02-0.03,8.44,1.53,7.38,7.53c-0.14,0.78-0.02,1.6-0.02,2.4
		c0,17.95,0,17.95,17.56,17.95c85.41,0,170.83-0.08,256.24,0.16c6.6,0.02,8.82-1.53,8.38-8.27c-0.41-6.3-2.92-14.99,1.07-18.41
		c3.75-3.22,12.14-1.18,18.5-1.18c43.77-0.05,87.55,0.15,131.32-0.2c6.9-0.05,8.16,2.02,8.15,8.46
		C839.06,363.85,839.12,474.35,839.12,584.86z M539.25,864.55c82.19,0,164.38-0.08,246.57,0.15c6.7,0.02,8.83-1.12,8.81-8.47
		c-0.29-115.81-0.27-231.63-0.03-347.44c0.01-6.69-1.59-8.2-8.22-8.19c-164.92,0.21-329.83,0.21-494.75-0.02
		c-6.98-0.01-8.09,2.08-8.07,8.44c0.2,115.81,0.21,231.63-0.02,347.44c-0.01,6.73,1.79,8.25,8.34,8.23
		C374.34,864.47,456.8,864.55,539.25,864.55z M636.93,422.43c13.32,6.23,25.73,12.3,38.37,17.85c7.16,3.14,13.79,1.08,16.69-4.74
		c2.94-5.9,2-11.44-3.19-15.74c-2.01-1.67-4.5-2.82-6.88-3.97c-9.38-4.55-18.8-9.02-29.45-14.11c5.73-3.02,10.14-5.36,14.55-7.67
		c31.22-16.35,26.62-8.68,27-46.06c0-0.27,0.01-0.53,0-0.8c-0.59-10.48-4.97-14.86-15.53-14.94c-17.07-0.13-34.15-0.1-51.22-0.02
		c-12.12,0.06-16.4,4.23-16.46,16.22c-0.1,22.41-0.05,44.82-0.02,67.23c0.01,5.06-0.17,10.17,0.39,15.18
		c0.75,6.73,4.99,10.53,11.7,10.82c6.71,0.29,11.11-3.1,12.62-9.74C636.16,429.11,636.39,426.19,636.93,422.43z M538.15,332.12
		c-30.47-0.1-55.15,24.15-55.39,54.43c-0.24,30.2,24.17,54.8,54.7,55.1c30.62,0.31,56.15-24.66,56.06-54.84
		C593.43,356.86,568.49,332.22,538.15,332.12z M711.19,386.87c0,13.33-0.22,26.67,0.07,40c0.23,10.53,4.84,14.93,15.38,15.02
		c17.6,0.15,35.2,0.07,52.8,0.01c3.17-0.01,6.36-0.1,9.16-2.12c4.91-3.54,6.71-8.35,5.14-13.99c-1.91-6.89-7.38-9.49-14.02-9.58
		c-12.27-0.17-24.53-0.01-36.8-0.1c-2-0.01-5.26,1.02-5.68-1.36c-0.78-4.38-1.22-9.22-0.11-13.42c0.86-3.24,5.17-1.21,7.91-1.54
		c2.9-0.35,5.91,0.04,8.74-0.54c6.95-1.42,10.88-6.13,10.5-13.03c-0.38-6.84-4.67-11.16-11.77-11.93c-2.64-0.29-5.4-0.51-7.98-0.07
		c-7.25,1.23-7.91-2.41-8.06-8.51c-0.17-6.73,1.82-8.67,8.47-8.35c11.17,0.55,22.39,0.2,33.6,0.13c4.88-0.03,9.56-0.72,12.92-4.92
		c3.15-3.93,3.67-8.42,1.83-12.78c-2.29-5.42-6.96-7.78-12.82-7.78c-17.6,0-35.2-0.1-52.8,0.01c-11.9,0.07-16.31,4.47-16.45,16.43
		C711.06,361.26,711.18,374.06,711.19,386.87z M329.89,416.17c-11.18,0-20.97-0.17-30.75,0.05c-9.56,0.21-15.12,5.11-15.15,12.86
		c-0.03,7.77,5.53,12.57,15.09,12.63c17.32,0.1,34.65-0.08,51.97,0.09c6.02,0.06,11.24-1.1,14.2-6.8c2.91-5.61,1.2-10.67-2.21-15.63
		c-12.08-17.53-24.04-35.14-35.95-52.79c-1.86-2.75-4.51-5.13-5.26-9.7c11.46,0,22.56,0.33,33.63-0.12
		c6.73-0.27,10.68-4.65,11.08-11.37c0.42-7.05-3.12-11.59-10.14-13.05c-2.07-0.43-4.22-0.64-6.33-0.65
		c-16.52-0.05-33.05-0.02-49.57-0.03c-6.07,0-11.83,0.67-15.05,6.86c-3.33,6.41-0.63,11.66,3.02,16.95
		C302.03,375.17,315.44,394.97,329.89,416.17z M439.64,331.19c-21.76,0.68-37.38,10.87-48.69,28.37
		c-11.98,18.54-9.99,43.09,4.93,60.92c16,19.12,37.6,25.33,58.44,16.79c9.08-3.72,12.48-9.69,9.74-17.13
		c-2.66-7.24-9-9.44-18.62-6.45c-12.87,3.99-23.89-0.35-32.21-12.68c-6.81-10.09-5.6-22.51,2.68-32.47
		c9.09-10.92,20.32-13.21,33.73-10.21c7.92,1.77,13.23-2.19,14.96-9.42c1.52-6.38-1.95-12.17-9.03-14.73
		C450.26,332.27,444.72,331.49,439.64,331.19z"/>
	<path class="st2" d="M539.26,215.57c36.27,0,72.54,0.1,108.81-0.12c5.11-0.03,7.03,1.12,6.59,6.49c-0.5,6.09-0.54,12.3,0.01,18.38
		c0.53,5.93-1.89,6.86-7.22,6.85c-72.27-0.17-144.54-0.18-216.81,0.01c-5.62,0.01-7.49-1.49-7.01-7.09c0.48-5.56,0.51-11.23,0-16.78
		c-0.56-6.07,1.16-7.98,7.64-7.92C467.26,215.75,503.26,215.57,539.26,215.57z"/>
	<path class="st1" d="M539.25,864.55c-82.46,0-164.92-0.08-247.37,0.15c-6.56,0.02-8.35-1.5-8.34-8.23
		c0.22-115.81,0.21-231.63,0.02-347.44c-0.01-6.37,1.09-8.45,8.07-8.44c164.92,0.23,329.83,0.22,494.75,0.02
		c6.63-0.01,8.24,1.5,8.22,8.19c-0.23,115.81-0.25,231.63,0.03,347.44c0.02,7.35-2.11,8.49-8.81,8.47
		C703.64,864.46,621.45,864.55,539.25,864.55z M495.12,726.95c31.75,0,63.49-0.2,95.24,0.16c6.49,0.07,7.9-1.88,7.81-8.02
		c-0.34-24.81-0.28-49.62-0.03-74.43c0.05-4.86-1.13-6.31-6.15-6.29c-63.76,0.17-127.52,0.18-191.28-0.02
		c-5.19-0.02-6.03,1.63-5.99,6.31c0.22,25.07,0.37,50.16-0.08,75.23c-0.11,6.4,2.04,7.23,7.64,7.18
		C433.23,726.82,464.18,726.95,495.12,726.95z M496.57,526.42c-31.76,0-63.51,0.12-95.27-0.12c-5.17-0.04-6.66,1.24-6.6,6.53
		c0.29,24.55,0.29,49.1,0,73.65c-0.06,5.26,1.39,6.55,6.58,6.54c63.24-0.18,126.49-0.19,189.73,0c5.42,0.02,7.25-1.14,7.16-6.92
		c-0.34-24.28-0.34-48.57,0-72.85c0.08-5.74-1.67-7-7.14-6.95C559.55,526.55,528.06,526.42,496.57,526.42z M496.8,752.55
		c-31.73,0-63.46,0.08-95.18-0.09c-4.8-0.03-7.02,0.63-6.94,6.34c0.34,24.79,0.33,49.59,0,74.38c-0.07,5.37,1.95,5.89,6.44,5.88
		c63.45-0.13,126.91-0.15,190.36,0.03c5.28,0.02,6.73-1.39,6.67-6.65c-0.27-24.26-0.37-48.53,0.05-72.78
		c0.11-6.46-2.24-7.28-7.82-7.23C559.19,752.68,528,752.55,496.8,752.55z M369.27,683.29c0-12.81-0.16-25.63,0.09-38.44
		c0.09-4.45-0.4-6.65-5.86-6.52c-16.27,0.4-32.56,0.25-48.84,0.07c-3.97-0.04-5.62,0.78-5.58,5.22c0.2,25.89,0.21,51.78-0.01,77.67
		c-0.04,4.72,1.58,5.81,5.98,5.75c16.01-0.22,32.03-0.26,48.04,0.02c4.8,0.09,6.47-1.05,6.31-6.15
		C369,708.39,369.27,695.84,369.27,683.29z M369.27,569.6c0-12.51-0.18-25.03,0.1-37.54c0.1-4.43-1.07-5.91-5.69-5.83
		c-16.24,0.27-32.48,0.25-48.72,0.01c-4.43-0.07-5.94,1.05-5.9,5.71c0.22,25.02,0.2,50.05,0.02,75.07
		c-0.03,4.43,1.13,5.96,5.77,5.88c16.24-0.27,32.48-0.26,48.72,0c4.52,0.07,5.92-1.18,5.81-5.77
		C369.07,594.63,369.27,582.11,369.27,569.6z M369.27,795.47c0-12.53-0.16-25.07,0.09-37.6c0.08-4.22-1.24-5.47-5.44-5.42
		c-16.26,0.22-32.53,0.22-48.8,0c-4.36-0.06-6.09,0.99-6.05,5.71c0.2,25.06,0.21,50.13-0.01,75.2c-0.04,4.73,1.58,5.79,5.97,5.73
		c16.26-0.22,32.53-0.27,48.8,0.02c4.87,0.09,5.61-1.85,5.53-6.05C369.13,820.53,369.27,808,369.27,795.47z M623.57,682.51
		c0,12.81,0.13,25.62-0.08,38.42c-0.07,4.08,0.36,6.24,5.42,6.14c16.54-0.33,33.08-0.24,49.62-0.04c3.88,0.05,4.92-1.12,4.9-4.93
		c-0.15-26.15-0.18-52.29,0.02-78.44c0.03-4.3-1.28-5.31-5.37-5.25c-16.27,0.22-32.55,0.24-48.82-0.01c-4.45-0.07-5.91,1.07-5.8,5.7
		C623.78,656.89,623.57,669.71,623.57,682.51z M768.65,682.88c0-13.07-0.17-26.14,0.1-39.2c0.09-4.26-1.26-5.33-5.38-5.28
		c-16.53,0.22-33.07,0.21-49.6,0.01c-3.84-0.05-4.93,1.05-4.9,4.9c0.16,26.13,0.18,52.27-0.01,78.4c-0.03,4.2,1.12,5.4,5.33,5.33
		c16.26-0.24,32.54-0.25,48.8,0c4.52,0.07,5.87-1.24,5.77-5.77C768.46,708.49,768.65,695.68,768.65,682.88z M683.35,569.83
		c0-12.8-0.1-25.61,0.06-38.41c0.04-3.48-0.4-5.23-4.63-5.17c-16.8,0.25-33.61,0.22-50.41,0.01c-3.93-0.05-4.91,1.15-4.89,4.97
		c0.16,25.34,0.2,50.68-0.03,76.02c-0.04,4.74,1.62,5.69,5.94,5.63c16.27-0.22,32.54-0.25,48.81,0.02c4.4,0.07,5.3-1.43,5.22-5.46
		C683.2,594.9,683.35,582.36,683.35,569.83z M768.93,570.46c0-13.05-0.13-26.1,0.08-39.14c0.06-3.76-0.89-5.04-4.87-4.99
		c-16.77,0.22-33.55,0.21-50.33,0.01c-3.93-0.05-4.86,1.25-4.84,4.99c0.15,25.56,0.15,51.13,0,76.69c-0.02,3.77,0.96,5.01,4.86,4.96
		c16.77-0.2,33.55-0.21,50.33,0.01c3.97,0.05,4.92-1.21,4.86-4.98C768.8,595.49,768.93,582.97,768.93,570.46z M623.56,796.32
		c0,12.52,0.09,25.04-0.06,37.56c-0.04,3.5,0.44,5.26,4.68,5.2c16.78-0.25,33.57-0.22,50.35-0.02c3.86,0.05,4.92-1.09,4.9-4.92
		c-0.16-25.58-0.15-51.15-0.01-76.73c0.02-3.84-1.15-4.99-4.98-4.95c-16.52,0.19-33.04,0.21-49.55-0.01
		c-4.27-0.06-5.47,1.38-5.41,5.49C623.69,770.74,623.56,783.53,623.56,796.32z M768.65,796.42c0-12.52-0.18-25.04,0.1-37.55
		c0.1-4.65-0.85-6.56-6.07-6.45c-15.97,0.35-31.96,0.28-47.93,0.03c-4.39-0.07-5.96,0.96-5.92,5.67c0.23,25.03,0.2,50.06,0.02,75.1
		c-0.03,4.3,0.85,5.96,5.58,5.87c16.24-0.3,32.49-0.3,48.73,0c4.77,0.09,5.68-1.62,5.58-5.93
		C768.49,820.92,768.65,808.67,768.65,796.42z"/>
	<path class="st3" d="M636.93,422.43c-0.54,3.76-0.77,6.67-1.41,9.5c-1.52,6.64-5.92,10.03-12.62,9.74
		c-6.72-0.29-10.96-4.09-11.7-10.82c-0.56-5.01-0.38-10.12-0.39-15.18c-0.03-22.41-0.09-44.82,0.02-67.23
		c0.05-11.99,4.34-16.16,16.46-16.22c17.07-0.08,34.15-0.11,51.22,0.02c10.56,0.08,14.94,4.46,15.53,14.94
		c0.01,0.27,0.01,0.53,0,0.8c-0.38,37.38,4.21,29.71-27,46.06c-4.42,2.31-8.82,4.65-14.55,7.67c10.65,5.1,20.07,9.56,29.45,14.11
		c2.38,1.16,4.86,2.31,6.88,3.97c5.2,4.3,6.13,9.85,3.19,15.74c-2.9,5.82-9.54,7.88-16.69,4.74
		C662.66,434.73,650.25,428.66,636.93,422.43z M637.33,380.21c9.44-4.81,18.65-9.55,27.9-14.2c2.4-1.2,3.7-2.78,3.37-5.61
		c-0.2-1.78-0.67-3.24-2.68-3.22c-9.56,0.08-20.04-2.02-28.3,1.32c-4.33,1.75-1.04,13.26-1.21,20.36
		C636.41,379.06,636.68,379.27,637.33,380.21z"/>
	<path class="st4" d="M538.15,332.12c30.34,0.1,55.28,24.74,55.37,54.7c0.09,30.17-25.44,55.14-56.06,54.84
		c-30.53-0.31-54.94-24.9-54.7-55.1C483,356.27,507.68,332.02,538.15,332.12z M537.55,415.98c16.38,0.19,29.97-12.6,30.39-28.6
		c0.42-16.22-13.28-30.04-29.84-30.1c-16.26-0.06-29.69,13.08-29.83,29.18C508.13,402.72,521.09,415.78,537.55,415.98z"/>
	<path class="st5" d="M711.18,386.87c0-12.8-0.12-25.6,0.03-38.4c0.14-11.96,4.55-16.36,16.45-16.43c17.6-0.11,35.2-0.01,52.8-0.01
		c5.86,0,10.54,2.35,12.82,7.78c1.84,4.36,1.32,8.85-1.83,12.78c-3.36,4.21-8.05,4.89-12.92,4.92c-11.2,0.07-22.42,0.42-33.6-0.13
		c-6.65-0.33-8.64,1.61-8.47,8.35c0.15,6.1,0.81,9.74,8.06,8.51c2.58-0.44,5.34-0.21,7.98,0.07c7.1,0.77,11.39,5.09,11.77,11.93
		c0.38,6.89-3.54,11.61-10.5,13.03c-2.83,0.58-5.85,0.18-8.74,0.54c-2.75,0.34-7.06-1.69-7.91,1.54c-1.11,4.2-0.67,9.03,0.11,13.42
		c0.42,2.38,3.68,1.35,5.68,1.36c12.27,0.08,24.54-0.07,36.8,0.1c6.64,0.09,12.11,2.69,14.02,9.58c1.57,5.64-0.23,10.45-5.14,13.99
		c-2.81,2.02-5.99,2.11-9.16,2.12c-17.6,0.06-35.2,0.14-52.8-0.01c-10.54-0.09-15.15-4.49-15.38-15.02
		C710.97,413.54,711.19,400.2,711.18,386.87z"/>
	<path class="st6" d="M329.89,416.17c-14.44-21.19-27.86-41-41.42-60.7c-3.65-5.3-6.35-10.55-3.02-16.95
		c3.21-6.19,8.98-6.86,15.05-6.86c16.52,0.01,33.05-0.02,49.57,0.03c2.11,0.01,4.26,0.21,6.33,0.65c7.03,1.46,10.57,6,10.14,13.05
		c-0.4,6.71-4.36,11.09-11.08,11.37c-11.07,0.45-22.17,0.12-33.63,0.12c0.75,4.57,3.4,6.95,5.26,9.7
		c11.91,17.65,23.86,35.26,35.95,52.79c3.42,4.96,5.13,10.02,2.21,15.63c-2.96,5.7-8.18,6.86-14.2,6.8
		c-17.32-0.17-34.65,0.01-51.97-0.09c-9.56-0.06-15.13-4.86-15.09-12.63c0.03-7.74,5.59-12.65,15.15-12.86
		C308.92,416,318.71,416.17,329.89,416.17z"/>
	<path class="st6" d="M439.64,331.19c5.08,0.31,10.62,1.08,15.93,3c7.08,2.55,10.55,8.35,9.03,14.73
		c-1.73,7.23-7.04,11.19-14.96,9.42c-13.41-3-24.64-0.71-33.73,10.21c-8.29,9.96-9.49,22.39-2.68,32.47
		c8.32,12.33,19.35,16.67,32.21,12.68c9.62-2.98,15.95-0.79,18.62,6.45c2.74,7.44-0.66,13.41-9.74,17.13
		c-20.84,8.54-42.44,2.34-58.44-16.79c-14.92-17.84-16.91-42.38-4.93-60.92C402.26,342.05,417.88,331.87,439.64,331.19z"/>
	<path class="st7" d="M495.12,726.95c-30.95,0-61.89-0.14-92.84,0.13c-5.6,0.05-7.75-0.78-7.64-7.18
		c0.44-25.07,0.3-50.15,0.08-75.23c-0.04-4.68,0.8-6.32,5.99-6.31c63.76,0.2,127.52,0.19,191.28,0.02c5.02-0.01,6.2,1.43,6.15,6.29
		c-0.25,24.81-0.32,49.62,0.03,74.43c0.08,6.14-1.32,8.09-7.81,8.02C558.62,726.75,526.87,726.95,495.12,726.95z"/>
	<path class="st7" d="M496.57,526.42c31.49,0,62.98,0.13,94.46-0.13c5.47-0.05,7.22,1.22,7.14,6.95c-0.33,24.28-0.34,48.57,0,72.85
		c0.08,5.78-1.74,6.93-7.16,6.92c-63.24-0.19-126.49-0.18-189.73,0c-5.19,0.02-6.64-1.27-6.58-6.54c0.29-24.55,0.29-49.1,0-73.65
		c-0.06-5.29,1.43-6.57,6.6-6.53C433.06,526.54,464.81,526.42,496.57,526.42z"/>
	<path class="st7" d="M496.8,752.55c31.19,0,62.39,0.13,93.58-0.12c5.58-0.04,7.93,0.78,7.82,7.23
		c-0.42,24.25-0.32,48.52-0.05,72.78c0.06,5.27-1.39,6.67-6.67,6.65c-63.45-0.19-126.91-0.16-190.36-0.03
		c-4.49,0.01-6.51-0.51-6.44-5.88c0.33-24.79,0.34-49.59,0-74.38c-0.08-5.71,2.14-6.37,6.94-6.34
		C433.35,752.64,465.07,752.55,496.8,752.55z"/>
	<path class="st7" d="M369.27,683.29c0,12.55-0.26,25.1,0.13,37.63c0.16,5.1-1.51,6.23-6.31,6.15c-16.01-0.28-32.03-0.24-48.04-0.02
		c-4.4,0.06-6.02-1.03-5.98-5.75c0.22-25.89,0.2-51.78,0.01-77.67c-0.03-4.44,1.62-5.27,5.58-5.22c16.28,0.18,32.57,0.34,48.84-0.07
		c5.46-0.14,5.94,2.07,5.86,6.52C369.11,657.67,369.27,670.48,369.27,683.29z"/>
	<path class="st7" d="M369.27,569.6c0,12.51-0.2,25.03,0.11,37.54c0.11,4.59-1.29,5.84-5.81,5.77c-16.24-0.26-32.48-0.27-48.72,0
		c-4.64,0.08-5.8-1.45-5.77-5.88c0.18-25.02,0.2-50.05-0.02-75.07c-0.04-4.66,1.47-5.78,5.9-5.71c16.24,0.24,32.48,0.26,48.72-0.01
		c4.61-0.08,5.79,1.4,5.69,5.83C369.09,544.57,369.27,557.09,369.27,569.6z"/>
	<path class="st7" d="M369.27,795.47c0,12.53-0.14,25.07,0.08,37.6c0.08,4.19-0.66,6.13-5.53,6.05c-16.26-0.3-32.53-0.25-48.8-0.02
		c-4.39,0.06-6.01-1-5.97-5.73c0.23-25.06,0.21-50.13,0.01-75.2c-0.04-4.72,1.69-5.77,6.05-5.71c16.26,0.22,32.53,0.22,48.8,0
		c4.2-0.06,5.52,1.2,5.44,5.42C369.11,770.4,369.27,782.93,369.27,795.47z"/>
	<path class="st7" d="M623.57,682.51c0-12.81,0.21-25.62-0.11-38.42c-0.12-4.63,1.34-5.77,5.8-5.7c16.27,0.25,32.55,0.23,48.82,0.01
		c4.09-0.05,5.41,0.96,5.37,5.25c-0.2,26.15-0.18,52.29-0.02,78.44c0.02,3.82-1.02,4.98-4.9,4.93c-16.54-0.2-33.09-0.29-49.62,0.04
		c-5.06,0.1-5.48-2.05-5.42-6.14C623.7,708.13,623.57,695.32,623.57,682.51z"/>
	<path class="st7" d="M768.65,682.88c0,12.8-0.19,25.6,0.1,38.4c0.1,4.53-1.25,5.84-5.77,5.77c-16.26-0.26-32.53-0.24-48.8,0
		c-4.21,0.06-5.36-1.13-5.33-5.33c0.19-26.13,0.17-52.27,0.01-78.4c-0.02-3.85,1.06-4.95,4.9-4.9c16.53,0.2,33.07,0.22,49.6-0.01
		c4.12-0.06,5.47,1.02,5.38,5.28C768.48,656.75,768.65,669.82,768.65,682.88z"/>
	<path class="st7" d="M683.35,569.83c0,12.54-0.15,25.08,0.09,37.61c0.08,4.03-0.82,5.53-5.22,5.46
		c-16.27-0.27-32.54-0.24-48.81-0.02c-4.32,0.06-5.99-0.89-5.94-5.63c0.23-25.34,0.19-50.68,0.03-76.02
		c-0.02-3.82,0.96-5.02,4.89-4.97c16.8,0.21,33.61,0.24,50.41-0.01c4.23-0.06,4.67,1.69,4.63,5.17
		C683.25,544.22,683.35,557.02,683.35,569.83z"/>
	<path class="st7" d="M768.93,570.46c0,12.52-0.13,25.03,0.08,37.55c0.07,3.77-0.89,5.03-4.86,4.98
		c-16.77-0.22-33.55-0.21-50.33-0.01c-3.9,0.05-4.88-1.19-4.86-4.96c0.15-25.56,0.15-51.13,0-76.69c-0.02-3.74,0.91-5.04,4.84-4.99
		c16.77,0.2,33.55,0.21,50.33-0.01c3.97-0.05,4.92,1.22,4.87,4.99C768.8,544.36,768.93,557.41,768.93,570.46z"/>
	<path class="st7" d="M623.56,796.32c0-12.79,0.13-25.58-0.08-38.36c-0.07-4.11,1.14-5.54,5.41-5.49
		c16.52,0.22,33.04,0.2,49.55,0.01c3.83-0.04,5,1.1,4.98,4.95c-0.15,25.58-0.15,51.15,0.01,76.73c0.02,3.82-1.04,4.96-4.9,4.92
		c-16.78-0.2-33.57-0.23-50.35,0.02c-4.25,0.06-4.73-1.7-4.68-5.2C623.66,821.36,623.56,808.84,623.56,796.32z"/>
	<path class="st7" d="M768.65,796.42c0,12.25-0.17,24.5,0.09,36.75c0.09,4.3-0.82,6.01-5.58,5.93c-16.24-0.3-32.49-0.3-48.73,0
		c-4.73,0.09-5.61-1.57-5.58-5.87c0.18-25.03,0.21-50.07-0.02-75.1c-0.04-4.71,1.53-5.73,5.92-5.67
		c15.97,0.24,31.96,0.32,47.93-0.03c5.22-0.12,6.17,1.79,6.07,6.45C768.47,771.38,768.65,783.9,768.65,796.42z"/>
	<path class="st1" d="M637.33,380.21c-0.65-0.94-0.92-1.14-0.91-1.35c0.17-7.1-3.12-18.61,1.21-20.36
		c8.26-3.34,18.74-1.24,28.3-1.32c2.01-0.02,2.47,1.44,2.68,3.22c0.32,2.83-0.98,4.4-3.37,5.61
		C655.98,370.66,646.77,375.4,637.33,380.21z"/>
	<path class="st1" d="M537.55,415.98c-16.46-0.19-29.42-13.26-29.28-29.52c0.14-16.1,13.57-29.24,29.83-29.18
		c16.56,0.06,30.26,13.88,29.84,30.1C567.52,403.38,553.93,416.17,537.55,415.98z"/>
</g>
</svg>
