<?xml version="1.0" encoding="utf-8"?>
<!-- Generator: Adobe Illustrator 24.0.1, SVG Export Plug-In . SVG Version: 6.00 Build 0)  -->
<svg version="1.1" id="Layer_1" xmlns="http://www.w3.org/2000/svg" xmlns:xlink="http://www.w3.org/1999/xlink" x="0px" y="0px"
	 viewBox="0 0 1080 1080" style="enable-background:new 0 0 1080 1080;" xml:space="preserve">
<style type="text/css">
	.st0{fill:#F6F2E0;}
	.st1{fill:#800000;}
	.st2{fill:#FFFFFF;}
	.st3{fill:#6ECAD9;}
</style>
<g>
	<path d="M542.33,182c5.49,0,9.97,4.29,9.97,9.55v0.68c17.36,2.33,33.09,9.98,45.02,21.18c14.05,13.2,22.84,31.3,22.84,51.44
		l-0.66,24.86l5.14,35.65c0.2,1.16,0.09,2.34-0.33,3.44c-0.42,1.1-1.13,2.07-2.07,2.82l0.64,0.72l1.18,1.34l-5.19,6.57l-0.1,0.23
		l-0.03,0.07c-1.59,3.87-3.71,7.4-6.17,10c-2.07,2.11-4.38,3.63-6.89,4.22c-0.49,1.49-1.03,3.03-1.42,4.55
		c-2.8,9.04-5,16.16-10.83,23.24c-1.27,1.55-2.63,3.03-4.06,4.43c-0.98,0.98-1.99,1.94-3.06,2.85c0.17,1.72,0.14,16.76,0.12,21.06
		l-1.72,0.39c-3.76,12.74-15.02,21-28.28,24.9c-7.55,2.21-15.77,3.02-23.6,2.44c-7.89-0.58-15.44-2.59-21.58-5.97
		c-8.62-4.75-14.53-12.19-14.95-22.24v-0.69l-1.88-0.49v-19.31l0.04-2.02c-5.37-4.67-9.76-10.85-12.73-17.13
		c-2.07-4.38-3.7-9.13-5.6-14.49l-0.98-2.79c-2.15-0.27-4.16-1.23-5.97-2.63c-2.27-1.78-4.22-4.38-5.81-7.38
		c-1.07-2.01-3.18-5.03-3.94-11.31c-2.3-1.34-3.67-3.9-3.28-6.62l5.17-35.68l-1.44-21.84c-0.1-1.59-0.16-3.03-0.16-4.33
		c0-19.46,8.74-36.92,22.56-49.82c13.12-12.25,30.88-20.37,50.08-22.07v-0.26C532.38,186.29,536.86,182,542.33,182z"/>
	<path d="M549.59,432.6c11.63-2.48,22.19-8.7,27.33-18.24c1.66-3.73,5.82-6.02,10.15-5.3c6.85,1.16,11.02,1.81,15.22,2.44
		c50.02,7.73,97.49,15.05,110.6,75.93l14.16,73.31c0.22,0.75,0.33,1.55,0.33,2.35c0,4.93-4.17,8.91-9.3,8.91H362.72
		c-0.49-0.03-0.98-0.06-1.49-0.13c-5.06-0.78-8.49-5.34-7.67-10.2l10.56-61.76c14.94-72.76,54.53-80.28,111.9-91.19
		c6.04-1.14,12.25-2.33,17.09-3.29c4.95-0.98,9.84,2.04,10.93,6.79c1.95,8.36,7.55,14.2,14.83,17.64c4.36,2.07,9.32,3.32,14.46,3.78
		C538.69,434.08,544.24,433.74,549.59,432.6z"/>
	<path class="st0" d="M579.27,391.39c-26,19.38-51.71,17.54-77.18,0.17l-0.12,19.31c2.69,29.94,69.67,31.63,77.29,0.88V391.39z
		 M616.17,334.45c-0.65-0.74-1.3-1.47-1.95-2.2l-0.45-0.27c-17.49-11.8-45.41-17.68-73.46-17.68c-27.24,0-54.24,5.55-71.53,16.57
		l2.41,10.26l7.97,8l4.94,5.1c13.87,55.6,98.71,59.08,113.55,0l8.72-7.27L616.17,334.45z"/>
	<path class="st1" d="M617.72,326.46l-4.65-32.24c-0.52-0.03-1.04-0.14-1.53-0.35c-25.41-10.62-49.91-14.96-73.62-14.47
		c-23.73,0.51-46.76,5.88-69.17,14.7c-0.35,0.14-0.71,0.23-1.07,0.27l-4.65,32.08C499.81,301.33,580.27,301.18,617.72,326.46z
		 M612.62,285.26l0.51-18.73c1.04-37.95-32.41-68.39-72.03-68.39h-1.13c-40.24,0-75.73,31-73.16,69.48l1.18,17.81
		c22.56-8.61,45.77-13.82,69.77-14.33C561.92,270.57,586.85,274.85,612.62,285.26z"/>
	<path class="st2" d="M551.09,231.26h-3.47c-0.2-1-0.56-1.86-1.07-2.61c-0.51-0.75-1.11-1.39-1.85-1.89
		c-0.72-0.52-1.52-0.91-2.38-1.17c-0.88-0.26-1.79-0.39-2.74-0.39c-1.73,0-3.29,0.43-4.71,1.31c-1.4,0.87-2.51,2.15-3.34,3.86
		c-0.82,1.7-1.23,3.78-1.23,6.25c0,2.47,0.4,4.55,1.23,6.25c0.82,1.7,1.94,2.99,3.34,3.86c1.4,0.87,2.98,1.31,4.71,1.31
		c0.95,0,1.86-0.13,2.74-0.39c0.88-0.26,1.68-0.65,2.38-1.16c0.72-0.52,1.34-1.16,1.85-1.91c0.51-0.77,0.87-1.63,1.07-2.61h3.47
		c-0.26,1.46-0.74,2.76-1.43,3.91c-0.69,1.16-1.55,2.14-2.57,2.93c-1.03,0.79-2.17,1.4-3.45,1.82c-1.27,0.42-2.61,0.62-4.06,0.62
		c-2.44,0-4.61-0.59-6.51-1.78c-1.91-1.18-3.39-2.87-4.48-5.07c-1.08-2.2-1.63-4.8-1.63-7.8c0-3,0.55-5.6,1.63-7.8
		c1.08-2.2,2.59-3.89,4.48-5.07c1.89-1.18,4.07-1.78,6.51-1.78c1.44,0,2.8,0.2,4.06,0.62c1.27,0.42,2.43,1.03,3.45,1.83
		c1.03,0.79,1.88,1.78,2.57,2.93C550.37,228.48,550.83,229.8,551.09,231.26z"/>
	<path class="st3" d="M585.44,417.85c-6.56,12.74-20.24,20.79-35.04,23.67v41.37h-20.05l-0.01-40.65
		c-16.71-2.11-31.45-11.22-35.36-28.11c-63.02,12.74-106.61,13.69-121.75,87.49l-3.61,21.02h76.84v-37.4c0-2.28,1.94-4.15,4.33-4.15
		s4.33,1.86,4.33,4.15v77.86h170.05v-77.86c0-2.28,1.94-4.15,4.33-4.15c2.4,0,4.32,1.86,4.32,4.15v37.4h76.41l-6.36-32.95
		C690.92,428.38,637.62,426.6,585.44,417.85z M366.18,542.58l-3.51,20.53h83.78v-20.53H366.18z M633.83,563.1h84.21l-3.96-20.53
		h-80.25V563.1z"/>
	<path d="M497.18,520.58h-3.37c-0.2-0.94-0.55-1.75-1.04-2.46c-0.49-0.71-1.08-1.3-1.79-1.78c-0.69-0.49-1.47-0.85-2.33-1.1
		c-0.85-0.25-1.73-0.36-2.66-0.36c-1.69,0-3.21,0.4-4.58,1.23c-1.36,0.82-2.44,2.02-3.25,3.61c-0.79,1.59-1.2,3.55-1.2,5.86
		c0,2.31,0.4,4.28,1.2,5.86c0.81,1.59,1.89,2.8,3.25,3.61c1.37,0.82,2.89,1.23,4.58,1.23c0.92,0,1.81-0.12,2.66-0.36
		c0.85-0.25,1.63-0.61,2.33-1.08c0.71-0.49,1.3-1.08,1.79-1.79c0.51-0.71,0.85-1.53,1.04-2.46h3.37c-0.26,1.37-0.72,2.59-1.39,3.67
		c-0.66,1.08-1.5,1.99-2.5,2.76c-1,0.75-2.11,1.31-3.35,1.72c-1.23,0.39-2.56,0.59-3.96,0.59c-2.37,0-4.48-0.56-6.33-1.68
		c-1.85-1.11-3.31-2.7-4.36-4.75c-1.05-2.05-1.59-4.49-1.59-7.31c0-2.82,0.53-5.26,1.59-7.31c1.05-2.05,2.51-3.64,4.36-4.75
		c1.85-1.11,3.96-1.68,6.33-1.68c1.4,0,2.72,0.2,3.96,0.59c1.24,0.39,2.35,0.97,3.35,1.72s1.83,1.66,2.5,2.74
		C496.47,517.98,496.94,519.21,497.18,520.58z"/>
	<path d="M526.1,525.6c0,2.82-0.53,5.26-1.59,7.31c-1.05,2.05-2.51,3.64-4.36,4.75c-1.85,1.11-3.96,1.68-6.33,1.68
		c-2.37,0-4.48-0.56-6.33-1.68c-1.85-1.11-3.31-2.7-4.36-4.75c-1.05-2.05-1.59-4.49-1.59-7.31c0-2.82,0.53-5.26,1.59-7.31
		c1.05-2.05,2.51-3.64,4.36-4.75c1.85-1.11,3.96-1.68,6.33-1.68c2.37,0,4.48,0.56,6.33,1.68s3.31,2.7,4.36,4.75
		C525.58,520.33,526.1,522.77,526.1,525.6z M522.85,525.6c0-2.31-0.4-4.28-1.21-5.86c-0.79-1.59-1.88-2.8-3.25-3.61
		c-1.36-0.82-2.87-1.23-4.56-1.23c-1.69,0-3.21,0.4-4.58,1.23c-1.36,0.82-2.44,2.02-3.25,3.61c-0.79,1.59-1.2,3.55-1.2,5.86
		c0,2.31,0.4,4.28,1.2,5.86c0.81,1.59,1.89,2.8,3.25,3.61c1.37,0.82,2.89,1.23,4.58,1.23c1.69,0,3.21-0.4,4.56-1.23
		c1.37-0.82,2.46-2.02,3.25-3.61C522.44,529.87,522.85,527.92,522.85,525.6z"/>
	<path d="M531.6,538.98h-3.54l10.21-26.75h3.48l10.21,26.75h-3.54l-8.32-22.52h-0.22L531.6,538.98z M532.9,528.52h14.24v2.87H532.9
		V528.52z"/>
	<path d="M577.39,520.58h-3.37c-0.2-0.94-0.55-1.75-1.05-2.46c-0.49-0.71-1.08-1.3-1.79-1.78c-0.69-0.49-1.47-0.85-2.33-1.1
		c-0.85-0.25-1.73-0.36-2.66-0.36c-1.69,0-3.21,0.4-4.58,1.23c-1.36,0.82-2.44,2.02-3.25,3.61c-0.79,1.59-1.2,3.55-1.2,5.86
		c0,2.31,0.39,4.28,1.2,5.86c0.81,1.59,1.89,2.8,3.25,3.61c1.37,0.82,2.89,1.23,4.58,1.23c0.92,0,1.81-0.12,2.66-0.36
		c0.85-0.25,1.63-0.61,2.33-1.08c0.71-0.49,1.3-1.08,1.79-1.79c0.51-0.71,0.85-1.53,1.05-2.46h3.37c-0.26,1.37-0.72,2.59-1.39,3.67
		c-0.66,1.08-1.5,1.99-2.5,2.76c-1,0.75-2.11,1.31-3.35,1.72c-1.23,0.39-2.54,0.59-3.96,0.59c-2.37,0-4.48-0.56-6.33-1.68
		s-3.31-2.7-4.36-4.75c-1.05-2.05-1.59-4.49-1.59-7.31c0-2.82,0.53-5.26,1.59-7.31c1.05-2.05,2.51-3.64,4.36-4.75
		c1.85-1.11,3.96-1.68,6.33-1.68c1.4,0,2.72,0.2,3.96,0.59c1.24,0.39,2.35,0.97,3.35,1.72s1.83,1.66,2.5,2.74
		C576.68,517.98,577.15,519.21,577.39,520.58z"/>
	<path d="M582.84,538.98v-26.75h3.37v11.92h14.85v-11.92h3.37v26.75h-3.37v-11.97h-14.83v11.97H582.84z"/>
</g>
<g>
	<path d="M327.52,322c5.55,0,10.07,4.33,10.07,9.65v0.69c17.54,2.35,33.43,10.08,45.49,21.39c14.2,13.34,23.07,31.62,23.07,51.96
		l-0.67,25.11l5.19,36.01c0.2,1.17,0.09,2.36-0.34,3.47s-1.14,2.09-2.09,2.85l0.64,0.73l1.2,1.36l-5.24,6.64l-0.1,0.23l-0.03,0.07
		c-1.61,3.91-3.75,7.47-6.23,10.1c-2.09,2.13-4.42,3.66-6.96,4.26c-0.5,1.5-1.04,3.06-1.43,4.6c-2.83,9.13-5.05,16.33-10.94,23.48
		c-1.28,1.56-2.66,3.06-4.1,4.48c-0.99,0.99-2.01,1.96-3.09,2.87c0.18,1.74,0.15,16.93,0.12,21.28l-1.74,0.39
		c-3.79,12.87-15.18,21.22-28.57,25.16c-7.63,2.23-15.94,3.05-23.84,2.47c-7.97-0.58-15.6-2.61-21.8-6.03
		c-8.71-4.8-14.68-12.32-15.1-22.47v-0.7l-1.9-0.5v-19.51l0.04-2.04c-5.43-4.71-9.86-10.96-12.86-17.31
		c-2.09-4.42-3.74-9.22-5.66-14.64l-0.99-2.82c-2.17-0.28-4.2-1.24-6.03-2.66c-2.29-1.79-4.26-4.42-5.87-7.46
		c-1.08-2.03-3.21-5.08-3.98-11.43c-2.32-1.36-3.71-3.94-3.31-6.68l5.22-36.04l-1.46-22.06c-0.1-1.61-0.16-3.06-0.16-4.38
		c0-19.66,8.83-37.3,22.79-50.33c13.25-12.37,31.2-20.58,50.59-22.3v-0.26C317.47,326.33,321.99,322,327.52,322z"/>
	<path d="M334.85,575.17c11.75-2.51,22.41-8.78,27.61-18.43c1.68-3.76,5.88-6.09,10.26-5.36c6.92,1.17,11.13,1.82,15.38,2.47
		c50.53,7.81,98.49,15.21,111.74,76.71l14.3,74.06c0.22,0.76,0.34,1.56,0.34,2.38c0,4.98-4.22,9-9.4,9H146.06
		c-0.5-0.03-0.99-0.06-1.5-0.13c-5.11-0.79-8.58-5.4-7.75-10.3l10.67-62.4c15.09-73.5,55.09-81.11,113.05-92.12
		c6.1-1.15,12.37-2.35,17.26-3.33c5.01-0.99,9.94,2.06,11.05,6.86c1.97,8.45,7.63,14.34,14.99,17.82c4.41,2.09,9.41,3.36,14.61,3.82
		C323.84,576.67,329.45,576.32,334.85,575.17z"/>
	<path class="st0" d="M364.83,533.53c-26.27,19.58-52.24,17.72-77.97,0.18l-0.12,19.51c2.71,30.25,70.38,31.96,78.08,0.89V533.53z
		 M402.12,476.01c-0.66-0.74-1.31-1.49-1.97-2.22l-0.45-0.28c-17.67-11.92-45.88-17.86-74.22-17.86c-27.52,0-54.8,5.6-72.26,16.74
		l2.44,10.36l8.06,8.08l4.99,5.15c14.01,56.17,99.73,59.68,114.71,0l8.81-7.34L402.12,476.01z"/>
	<path class="st1" d="M403.68,467.94l-4.7-32.57c-0.53-0.03-1.05-0.15-1.55-0.35c-25.67-10.73-50.42-15.12-74.38-14.62
		c-23.98,0.51-47.24,5.94-69.88,14.86c-0.35,0.15-0.72,0.23-1.08,0.28l-4.7,32.41C284.56,442.55,365.84,442.4,403.68,467.94z
		 M398.53,426.32l0.51-18.93c1.05-38.33-32.75-69.1-72.77-69.1h-1.14c-40.65,0-76.51,31.32-73.91,70.19l1.2,17.99
		c22.79-8.7,46.24-13.97,70.48-14.48C347.31,411.48,372.49,415.8,398.53,426.32z"/>
	<path class="st2" d="M336.36,371.76h-3.5c-0.2-1.01-0.57-1.88-1.08-2.64c-0.51-0.76-1.12-1.4-1.87-1.91
		c-0.73-0.53-1.53-0.92-2.41-1.18c-0.89-0.26-1.81-0.39-2.77-0.39c-1.75,0-3.33,0.44-4.76,1.33c-1.42,0.88-2.54,2.17-3.37,3.9
		s-1.24,3.82-1.24,6.32c0,2.5,0.41,4.6,1.24,6.32c0.83,1.72,1.96,3.02,3.37,3.9c1.42,0.88,3.01,1.33,4.76,1.33
		c0.96,0,1.88-0.13,2.77-0.39c0.89-0.26,1.69-0.66,2.41-1.17c0.73-0.53,1.36-1.17,1.87-1.93c0.51-0.77,0.88-1.65,1.08-2.64h3.5
		c-0.26,1.47-0.74,2.79-1.44,3.95s-1.56,2.16-2.6,2.96s-2.19,1.42-3.49,1.84c-1.28,0.42-2.64,0.63-4.1,0.63
		c-2.47,0-4.66-0.6-6.58-1.79c-1.93-1.2-3.43-2.9-4.52-5.12c-1.09-2.22-1.65-4.84-1.65-7.88c0-3.04,0.55-5.66,1.65-7.88
		c1.09-2.22,2.61-3.93,4.52-5.12c1.91-1.2,4.12-1.79,6.58-1.79c1.46,0,2.83,0.2,4.1,0.63c1.28,0.42,2.45,1.04,3.49,1.85
		c1.04,0.8,1.9,1.79,2.6,2.96C335.63,368.96,336.1,370.29,336.36,371.76z"/>
	<path class="st3" d="M371.06,560.27c-6.63,12.87-20.44,21-35.4,23.92v41.79h-20.25l-0.01-41.06c-16.88-2.13-31.77-11.34-35.72-28.4
		c-63.67,12.87-107.71,13.83-123,88.39l-3.65,21.23h77.63v-37.78c0-2.31,1.96-4.19,4.38-4.19c2.42,0,4.38,1.88,4.38,4.19v78.65
		h171.8v-78.65c0-2.31,1.96-4.19,4.38-4.19s4.36,1.88,4.36,4.19v37.78h77.19l-6.42-33.29C477.63,570.91,423.79,569.11,371.06,560.27
		z M149.56,686.27l-3.55,20.74h84.64v-20.74H149.56z M419.95,707.01h85.07l-4-20.74h-81.08V707.01z"/>
	<path d="M281.9,664.05h-3.4c-0.2-0.95-0.55-1.77-1.05-2.48c-0.5-0.72-1.09-1.31-1.81-1.79c-0.7-0.5-1.49-0.86-2.35-1.11
		c-0.86-0.25-1.75-0.36-2.69-0.36c-1.71,0-3.24,0.41-4.63,1.24c-1.37,0.83-2.47,2.04-3.28,3.65c-0.8,1.61-1.21,3.59-1.21,5.92
		s0.41,4.32,1.21,5.92c0.82,1.61,1.91,2.83,3.28,3.65c1.39,0.83,2.92,1.24,4.63,1.24c0.93,0,1.82-0.12,2.69-0.36
		c0.86-0.25,1.65-0.61,2.35-1.09c0.72-0.5,1.31-1.09,1.81-1.81c0.51-0.72,0.86-1.55,1.05-2.48h3.4c-0.26,1.39-0.73,2.61-1.4,3.71
		c-0.67,1.09-1.52,2.01-2.52,2.79c-1.01,0.76-2.13,1.33-3.39,1.74c-1.24,0.39-2.58,0.6-4,0.6c-2.39,0-4.52-0.57-6.39-1.69
		c-1.87-1.12-3.34-2.73-4.41-4.8c-1.07-2.07-1.61-4.54-1.61-7.38s0.54-5.31,1.61-7.38c1.07-2.07,2.54-3.68,4.41-4.8
		c1.87-1.12,4-1.69,6.39-1.69c1.42,0,2.74,0.2,4,0.6s2.38,0.98,3.39,1.74c1.01,0.76,1.85,1.68,2.52,2.77
		C281.19,661.42,281.66,662.66,281.9,664.05z"/>
	<path d="M311.12,669.13c0,2.85-0.54,5.31-1.61,7.38c-1.07,2.07-2.54,3.68-4.41,4.8c-1.87,1.12-4,1.69-6.39,1.69
		c-2.39,0-4.52-0.57-6.39-1.69c-1.87-1.12-3.34-2.73-4.41-4.8c-1.07-2.07-1.61-4.54-1.61-7.38s0.54-5.31,1.61-7.38
		c1.07-2.07,2.54-3.68,4.41-4.8c1.87-1.12,4-1.69,6.39-1.69c2.39,0,4.52,0.57,6.39,1.69s3.34,2.73,4.41,4.8
		C310.59,663.8,311.12,666.27,311.12,669.13z M307.84,669.13c0-2.33-0.41-4.32-1.23-5.92c-0.8-1.61-1.9-2.83-3.28-3.65
		c-1.37-0.83-2.9-1.24-4.61-1.24s-3.24,0.41-4.63,1.24c-1.37,0.83-2.47,2.04-3.28,3.65c-0.8,1.61-1.21,3.59-1.21,5.92
		s0.41,4.32,1.21,5.92c0.82,1.61,1.91,2.83,3.28,3.65c1.39,0.83,2.92,1.24,4.63,1.24s3.24-0.41,4.61-1.24
		c1.39-0.83,2.48-2.04,3.28-3.65C307.43,673.43,307.84,671.46,307.84,669.13z"/>
	<path d="M316.68,682.64h-3.58l10.32-27.03h3.52l10.32,27.03h-3.58l-8.41-22.75h-0.22L316.68,682.64z M317.99,672.08h14.39v2.9
		h-14.39V672.08z"/>
	<path d="M362.94,664.05h-3.4c-0.2-0.95-0.55-1.77-1.07-2.48c-0.5-0.72-1.09-1.31-1.81-1.79c-0.7-0.5-1.49-0.86-2.35-1.11
		c-0.86-0.25-1.75-0.36-2.69-0.36c-1.71,0-3.24,0.41-4.63,1.24c-1.37,0.83-2.47,2.04-3.28,3.65c-0.8,1.61-1.21,3.59-1.21,5.92
		s0.39,4.32,1.21,5.92c0.82,1.61,1.91,2.83,3.28,3.65c1.39,0.83,2.92,1.24,4.63,1.24c0.93,0,1.82-0.12,2.69-0.36
		s1.65-0.61,2.35-1.09c0.71-0.5,1.31-1.09,1.81-1.81c0.51-0.72,0.86-1.55,1.07-2.48h3.4c-0.26,1.39-0.73,2.61-1.4,3.71
		c-0.67,1.09-1.52,2.01-2.52,2.79c-1.01,0.76-2.13,1.33-3.39,1.74c-1.24,0.39-2.57,0.6-4,0.6c-2.39,0-4.52-0.57-6.39-1.69
		c-1.87-1.12-3.34-2.73-4.41-4.8c-1.07-2.07-1.61-4.54-1.61-7.38s0.54-5.31,1.61-7.38c1.07-2.07,2.54-3.68,4.41-4.8
		c1.87-1.12,4-1.69,6.39-1.69c1.42,0,2.74,0.2,4,0.6c1.25,0.39,2.38,0.98,3.39,1.74s1.85,1.68,2.52,2.77
		C362.22,661.42,362.69,662.66,362.94,664.05z"/>
	<path d="M368.44,682.64v-27.03h3.4v12.04h15v-12.04h3.4v27.03h-3.4v-12.1h-14.99v12.1H368.44z"/>
</g>
<g>
	<path d="M747.19,322c5.55,0,10.07,4.33,10.07,9.65v0.69c17.54,2.35,33.43,10.08,45.49,21.39c14.2,13.34,23.07,31.62,23.07,51.96
		l-0.67,25.11l5.19,36.01c0.2,1.17,0.09,2.36-0.34,3.47s-1.14,2.09-2.09,2.85l0.64,0.73l1.2,1.36l-5.24,6.64l-0.1,0.23l-0.03,0.07
		c-1.61,3.91-3.75,7.47-6.23,10.1c-2.09,2.13-4.42,3.66-6.96,4.26c-0.5,1.5-1.04,3.06-1.43,4.6c-2.83,9.13-5.05,16.33-10.94,23.48
		c-1.28,1.56-2.66,3.06-4.1,4.48c-0.99,0.99-2.01,1.96-3.09,2.87c0.18,1.74,0.15,16.93,0.12,21.28l-1.74,0.39
		c-3.79,12.87-15.18,21.22-28.57,25.16c-7.63,2.23-15.94,3.05-23.84,2.47c-7.97-0.58-15.6-2.61-21.8-6.03
		c-8.71-4.8-14.68-12.32-15.1-22.47v-0.7l-1.9-0.5v-19.51l0.04-2.04c-5.43-4.71-9.86-10.96-12.86-17.31
		c-2.09-4.42-3.74-9.22-5.66-14.64l-0.99-2.82c-2.17-0.28-4.2-1.24-6.03-2.66c-2.29-1.79-4.26-4.42-5.87-7.46
		c-1.08-2.03-3.21-5.08-3.98-11.43c-2.32-1.36-3.71-3.94-3.31-6.68l5.22-36.04l-1.46-22.06c-0.1-1.61-0.16-3.06-0.16-4.38
		c0-19.66,8.83-37.3,22.79-50.33c13.25-12.37,31.2-20.58,50.59-22.3v-0.26C737.13,326.33,741.66,322,747.19,322z"/>
	<path d="M754.51,575.17c11.75-2.51,22.41-8.78,27.61-18.43c1.68-3.76,5.88-6.09,10.26-5.36c6.92,1.17,11.13,1.82,15.38,2.47
		c50.53,7.81,98.49,15.21,111.74,76.71l14.3,74.06c0.22,0.76,0.34,1.56,0.34,2.38c0,4.98-4.22,9-9.4,9H565.73
		c-0.5-0.03-0.99-0.06-1.5-0.13c-5.11-0.79-8.58-5.4-7.75-10.3l10.67-62.4c15.09-73.5,55.09-81.11,113.05-92.12
		c6.1-1.15,12.37-2.35,17.26-3.33c5.01-0.99,9.94,2.06,11.05,6.86c1.97,8.45,7.63,14.34,14.99,17.82c4.41,2.09,9.41,3.36,14.61,3.82
		C743.51,576.67,749.11,576.32,754.51,575.17z"/>
	<path class="st0" d="M784.5,533.53c-26.27,19.58-52.24,17.72-77.97,0.18l-0.12,19.51c2.71,30.25,70.38,31.96,78.08,0.89V533.53z
		 M821.79,476.01c-0.66-0.74-1.31-1.49-1.97-2.22l-0.45-0.28c-17.67-11.92-45.88-17.86-74.22-17.86c-27.52,0-54.8,5.6-72.26,16.74
		l2.44,10.36l8.06,8.08l4.99,5.15c14.01,56.17,99.73,59.68,114.71,0l8.81-7.34L821.79,476.01z"/>
	<path class="st1" d="M823.35,467.94l-4.7-32.57c-0.53-0.03-1.05-0.15-1.55-0.35c-25.67-10.73-50.42-15.12-74.38-14.62
		c-23.98,0.51-47.24,5.94-69.88,14.86c-0.35,0.15-0.72,0.23-1.08,0.28l-4.7,32.41C704.23,442.55,785.51,442.4,823.35,467.94z
		 M818.2,426.32l0.51-18.93c1.05-38.33-32.75-69.1-72.77-69.1h-1.14c-40.65,0-76.51,31.32-73.91,70.19l1.2,17.99
		c22.79-8.7,46.24-13.97,70.48-14.48C766.98,411.48,792.16,415.8,818.2,426.32z"/>
	<path class="st2" d="M756.03,371.76h-3.5c-0.2-1.01-0.57-1.88-1.08-2.64c-0.51-0.76-1.12-1.4-1.87-1.91
		c-0.73-0.53-1.53-0.92-2.41-1.18c-0.89-0.26-1.81-0.39-2.77-0.39c-1.75,0-3.33,0.44-4.76,1.33c-1.42,0.88-2.54,2.17-3.37,3.9
		s-1.24,3.82-1.24,6.32c0,2.5,0.41,4.6,1.24,6.32c0.83,1.72,1.96,3.02,3.37,3.9c1.42,0.88,3.01,1.33,4.76,1.33
		c0.96,0,1.88-0.13,2.77-0.39c0.89-0.26,1.69-0.66,2.41-1.17c0.73-0.53,1.36-1.17,1.87-1.93c0.51-0.77,0.88-1.65,1.08-2.64h3.5
		c-0.26,1.47-0.74,2.79-1.44,3.95c-0.7,1.17-1.56,2.16-2.6,2.96c-1.04,0.8-2.19,1.42-3.49,1.84c-1.28,0.42-2.64,0.63-4.1,0.63
		c-2.47,0-4.66-0.6-6.58-1.79c-1.93-1.2-3.43-2.9-4.52-5.12c-1.09-2.22-1.65-4.84-1.65-7.88c0-3.04,0.55-5.66,1.65-7.88
		c1.09-2.22,2.61-3.93,4.52-5.12c1.91-1.2,4.12-1.79,6.58-1.79c1.46,0,2.83,0.2,4.1,0.63c1.28,0.42,2.45,1.04,3.49,1.85
		c1.04,0.8,1.9,1.79,2.6,2.96C755.3,368.96,755.77,370.29,756.03,371.76z"/>
	<path class="st3" d="M790.73,560.27c-6.63,12.87-20.44,21-35.4,23.92v41.79h-20.25l-0.01-41.06c-16.88-2.13-31.77-11.34-35.72-28.4
		c-63.67,12.87-107.71,13.83-123,88.39l-3.65,21.23h77.63v-37.78c0-2.31,1.96-4.19,4.38-4.19c2.42,0,4.38,1.88,4.38,4.19v78.65
		h171.8v-78.65c0-2.31,1.96-4.19,4.38-4.19c2.42,0,4.36,1.88,4.36,4.19v37.78h77.19l-6.42-33.29
		C897.3,570.91,843.46,569.11,790.73,560.27z M569.23,686.27l-3.55,20.74h84.64v-20.74H569.23z M839.62,707.01h85.07l-4-20.74
		h-81.08V707.01z"/>
	<path d="M701.57,664.05h-3.4c-0.2-0.95-0.55-1.77-1.05-2.48c-0.5-0.72-1.09-1.31-1.81-1.79c-0.7-0.5-1.49-0.86-2.35-1.11
		s-1.75-0.36-2.69-0.36c-1.71,0-3.24,0.41-4.63,1.24c-1.37,0.83-2.47,2.04-3.28,3.65c-0.8,1.61-1.21,3.59-1.21,5.92
		s0.41,4.32,1.21,5.92c0.82,1.61,1.91,2.83,3.28,3.65c1.39,0.83,2.92,1.24,4.63,1.24c0.93,0,1.82-0.12,2.69-0.36
		c0.86-0.25,1.65-0.61,2.35-1.09c0.72-0.5,1.31-1.09,1.81-1.81c0.51-0.72,0.86-1.55,1.05-2.48h3.4c-0.26,1.39-0.73,2.61-1.4,3.71
		c-0.67,1.09-1.52,2.01-2.52,2.79c-1.01,0.76-2.13,1.33-3.39,1.74c-1.24,0.39-2.58,0.6-4,0.6c-2.39,0-4.52-0.57-6.39-1.69
		c-1.87-1.12-3.34-2.73-4.41-4.8c-1.07-2.07-1.61-4.54-1.61-7.38s0.54-5.31,1.61-7.38s2.54-3.68,4.41-4.8
		c1.87-1.12,4-1.69,6.39-1.69c1.42,0,2.74,0.2,4,0.6s2.38,0.98,3.39,1.74s1.85,1.68,2.52,2.77
		C700.86,661.42,701.32,662.66,701.57,664.05z"/>
	<path d="M730.79,669.13c0,2.85-0.54,5.31-1.61,7.38s-2.54,3.68-4.41,4.8c-1.87,1.12-4,1.69-6.39,1.69c-2.39,0-4.52-0.57-6.39-1.69
		c-1.87-1.12-3.34-2.73-4.41-4.8c-1.07-2.07-1.61-4.54-1.61-7.38s0.54-5.31,1.61-7.38s2.54-3.68,4.41-4.8
		c1.87-1.12,4-1.69,6.39-1.69c2.39,0,4.52,0.57,6.39,1.69s3.34,2.73,4.41,4.8C730.26,663.8,730.79,666.27,730.79,669.13z
		 M727.5,669.13c0-2.33-0.41-4.32-1.23-5.92c-0.8-1.61-1.9-2.83-3.28-3.65c-1.37-0.83-2.9-1.24-4.61-1.24
		c-1.71,0-3.24,0.41-4.63,1.24c-1.37,0.83-2.47,2.04-3.28,3.65c-0.8,1.61-1.21,3.59-1.21,5.92s0.41,4.32,1.21,5.92
		c0.82,1.61,1.91,2.83,3.28,3.65c1.39,0.83,2.92,1.24,4.63,1.24c1.71,0,3.24-0.41,4.61-1.24c1.39-0.83,2.48-2.04,3.28-3.65
		C727.09,673.43,727.5,671.46,727.5,669.13z"/>
	<path d="M736.35,682.64h-3.58l10.32-27.03h3.52l10.32,27.03h-3.58l-8.41-22.75h-0.22L736.35,682.64z M737.66,672.08h14.39v2.9
		h-14.39V672.08z"/>
	<path d="M782.6,664.05h-3.4c-0.2-0.95-0.55-1.77-1.07-2.48c-0.5-0.72-1.09-1.31-1.81-1.79c-0.7-0.5-1.49-0.86-2.35-1.11
		s-1.75-0.36-2.69-0.36c-1.71,0-3.24,0.41-4.63,1.24c-1.37,0.83-2.47,2.04-3.28,3.65c-0.8,1.61-1.21,3.59-1.21,5.92
		s0.39,4.32,1.21,5.92c0.82,1.61,1.91,2.83,3.28,3.65c1.39,0.83,2.92,1.24,4.63,1.24c0.93,0,1.82-0.12,2.69-0.36
		c0.86-0.25,1.65-0.61,2.35-1.09c0.72-0.5,1.31-1.09,1.81-1.81c0.51-0.72,0.86-1.55,1.07-2.48h3.4c-0.26,1.39-0.73,2.61-1.4,3.71
		c-0.67,1.09-1.52,2.01-2.52,2.79c-1.01,0.76-2.13,1.33-3.39,1.74c-1.24,0.39-2.57,0.6-4,0.6c-2.39,0-4.52-0.57-6.39-1.69
		c-1.87-1.12-3.34-2.73-4.41-4.8c-1.07-2.07-1.61-4.54-1.61-7.38s0.54-5.31,1.61-7.38c1.07-2.07,2.54-3.68,4.41-4.8
		c1.87-1.12,4-1.69,6.39-1.69c1.42,0,2.74,0.2,4,0.6s2.38,0.98,3.39,1.74s1.85,1.68,2.52,2.77
		C781.89,661.42,782.36,662.66,782.6,664.05z"/>
	<path d="M788.11,682.64v-27.03h3.4v12.04h15v-12.04h3.4v27.03h-3.4v-12.1h-14.99v12.1H788.11z"/>
</g>
<g>
	<path d="M542.51,412.86c6.42,0,11.66,5.02,11.66,11.17v0.79c20.31,2.72,38.72,11.68,52.67,24.77
		c16.44,15.45,26.72,36.62,26.72,60.18l-0.78,29.08l6.02,41.71c0.24,1.35,0.1,2.74-0.39,4.02c-0.49,1.28-1.32,2.42-2.42,3.3
		l0.74,0.84l1.39,1.57l-6.07,7.69l-0.12,0.27l-0.03,0.08c-1.86,4.53-4.34,8.65-7.22,11.69c-2.42,2.47-5.12,4.24-8.06,4.93
		c-0.57,1.74-1.2,3.55-1.66,5.32c-3.28,10.58-5.85,18.91-12.67,27.19c-1.49,1.81-3.08,3.55-4.75,5.19
		c-1.15,1.15-2.33,2.26-3.58,3.33c0.2,2.01,0.17,19.6,0.14,24.64l-2.01,0.46c-4.39,14.9-17.58,24.57-33.09,29.13
		c-8.84,2.59-18.45,3.53-27.61,2.86c-9.23-0.68-18.07-3.02-25.25-6.98c-10.09-5.56-17-14.26-17.49-26.02v-0.81l-2.2-0.57v-22.59
		l0.05-2.37c-6.29-5.46-11.42-12.69-14.89-20.04c-2.42-5.12-4.33-10.68-6.56-16.95l-1.15-3.26c-2.52-0.32-4.87-1.44-6.98-3.08
		c-2.65-2.08-4.93-5.12-6.79-8.64c-1.25-2.35-3.72-5.88-4.61-13.23c-2.69-1.57-4.29-4.56-3.84-7.74l6.05-41.74l-1.69-25.55
		c-0.12-1.86-0.19-3.55-0.19-5.07c0-22.76,10.22-43.19,26.4-58.28c15.34-14.33,36.13-23.83,58.59-25.82v-0.3
		C530.86,417.88,536.1,412.86,542.51,412.86z"/>
	<path d="M550.99,706.04c13.6-2.91,25.96-10.17,31.97-21.34c1.94-4.36,6.81-7.05,11.88-6.2c8.01,1.35,12.89,2.11,17.81,2.86
		c58.52,9.04,114.05,17.61,129.4,88.84l16.56,85.76c0.25,0.88,0.39,1.81,0.39,2.75c0,5.76-4.88,10.43-10.88,10.43H332.37
		c-0.57-0.03-1.15-0.07-1.74-0.15c-5.91-0.91-9.94-6.25-8.97-11.93l12.35-72.26c17.47-85.12,63.79-93.93,130.92-106.68
		c7.06-1.34,14.33-2.72,19.99-3.85c5.8-1.15,11.51,2.38,12.79,7.94c2.28,9.78,8.84,16.61,17.36,20.63c5.1,2.42,10.9,3.89,16.92,4.43
		C538.25,707.79,544.74,707.38,550.99,706.04z"/>
	<path class="st0" d="M585.72,657.83c-30.42,22.68-60.5,20.52-90.29,0.2l-0.14,22.59c3.14,35.03,81.5,37.01,90.43,1.03V657.83z
		 M628.89,591.22c-0.76-0.86-1.52-1.72-2.28-2.57l-0.52-0.32c-20.46-13.81-53.13-20.68-85.95-20.68c-31.87,0-63.46,6.49-83.68,19.38
		l2.82,12l9.33,9.36l5.78,5.97c16.22,65.04,115.49,69.12,132.84,0l10.21-8.5L628.89,591.22z"/>
	<path class="st1" d="M630.7,581.87l-5.44-37.72c-0.61-0.03-1.22-0.17-1.79-0.41c-29.73-12.42-58.39-17.51-86.13-16.93
		c-27.77,0.59-54.7,6.88-80.93,17.2c-0.41,0.17-0.83,0.27-1.25,0.32l-5.44,37.53C492.76,552.47,586.88,552.3,630.7,581.87z
		 M624.74,533.67l0.59-21.92c1.22-44.39-37.92-80.02-84.28-80.02h-1.32c-47.08,0-88.6,36.27-85.59,81.28l1.39,20.84
		c26.4-10.07,53.55-16.17,81.62-16.76C565.42,516.49,594.59,521.49,624.74,533.67z"/>
	<path class="st2" d="M552.75,470.49h-4.06c-0.24-1.17-0.66-2.18-1.25-3.06s-1.3-1.62-2.16-2.21c-0.84-0.61-1.77-1.06-2.79-1.37
		c-1.03-0.3-2.1-0.46-3.21-0.46c-2.03,0-3.85,0.51-5.51,1.54c-1.64,1.01-2.94,2.52-3.9,4.51s-1.44,4.43-1.44,7.32
		c0,2.89,0.47,5.32,1.44,7.32c0.96,1.99,2.26,3.5,3.9,4.51c1.64,1.01,3.48,1.54,5.51,1.54c1.12,0,2.18-0.15,3.21-0.46
		c1.03-0.3,1.96-0.76,2.79-1.35c0.84-0.61,1.57-1.35,2.16-2.23c0.59-0.9,1.01-1.91,1.25-3.06h4.06c-0.3,1.71-0.86,3.23-1.67,4.58
		c-0.81,1.35-1.81,2.5-3.01,3.43s-2.53,1.64-4.04,2.13c-1.49,0.49-3.06,0.73-4.75,0.73c-2.86,0-5.39-0.69-7.62-2.08
		c-2.23-1.39-3.97-3.36-5.24-5.93c-1.27-2.57-1.91-5.61-1.91-9.13c0-3.52,0.64-6.56,1.91-9.13c1.27-2.57,3.02-4.55,5.24-5.93
		c2.21-1.39,4.77-2.08,7.62-2.08c1.69,0,3.28,0.24,4.75,0.73c1.49,0.49,2.84,1.2,4.04,2.15c1.2,0.93,2.2,2.08,3.01,3.43
		C551.9,467.24,552.44,468.78,552.75,470.49z"/>
	<path class="st3" d="M592.93,688.79c-7.67,14.91-23.68,24.32-41,27.7v48.4h-23.46l-0.02-47.55c-19.55-2.47-36.79-13.13-41.37-32.89
		c-73.73,14.91-124.73,16.02-142.44,102.36l-4.22,24.59h89.9v-43.75c0-2.67,2.26-4.85,5.07-4.85s5.07,2.18,5.07,4.85v91.09h198.95
		v-91.09c0-2.67,2.26-4.85,5.07-4.85c2.81,0,5.05,2.18,5.05,4.85v43.75h89.4l-7.44-38.55C716.35,701.11,653.99,699.03,592.93,688.79
		z M336.42,834.71l-4.11,24.01h98.01v-24.01H336.42z M649.54,858.73h98.52l-4.63-24.01h-93.89V858.73z"/>
	<path d="M489.68,808.98h-3.94c-0.24-1.1-0.64-2.04-1.22-2.87c-0.57-0.83-1.27-1.52-2.1-2.08c-0.81-0.57-1.72-1-2.72-1.28
		c-1-0.29-2.03-0.42-3.11-0.42c-1.98,0-3.75,0.47-5.36,1.44c-1.59,0.96-2.86,2.37-3.8,4.22c-0.93,1.86-1.4,4.16-1.4,6.86
		s0.47,5,1.4,6.86c0.95,1.86,2.21,3.28,3.8,4.22c1.61,0.96,3.38,1.44,5.36,1.44c1.08,0,2.11-0.14,3.11-0.42
		c1-0.29,1.91-0.71,2.72-1.27c0.83-0.57,1.52-1.27,2.1-2.1c0.59-0.83,1-1.79,1.22-2.87h3.94c-0.3,1.61-0.84,3.02-1.62,4.29
		c-0.78,1.27-1.76,2.33-2.92,3.23c-1.17,0.88-2.47,1.54-3.92,2.01c-1.44,0.46-2.99,0.69-4.63,0.69c-2.77,0-5.24-0.66-7.4-1.96
		c-2.16-1.3-3.87-3.16-5.1-5.56c-1.23-2.4-1.86-5.26-1.86-8.55c0-3.3,0.63-6.15,1.86-8.55c1.23-2.4,2.94-4.26,5.1-5.56
		c2.16-1.3,4.63-1.96,7.4-1.96c1.64,0,3.18,0.24,4.63,0.69c1.45,0.46,2.75,1.13,3.92,2.01c1.17,0.88,2.15,1.94,2.92,3.21
		C488.85,805.94,489.39,807.37,489.68,808.98z"/>
	<path d="M523.51,814.86c0,3.3-0.63,6.15-1.86,8.55c-1.23,2.4-2.94,4.26-5.1,5.56c-2.16,1.3-4.63,1.96-7.4,1.96
		c-2.77,0-5.24-0.66-7.4-1.96c-2.16-1.3-3.87-3.16-5.1-5.56c-1.23-2.4-1.86-5.26-1.86-8.55s0.63-6.15,1.86-8.55
		c1.23-2.4,2.94-4.26,5.1-5.56c2.16-1.3,4.63-1.96,7.4-1.96c2.77,0,5.24,0.66,7.4,1.96s3.87,3.16,5.1,5.56
		C522.9,808.69,523.51,811.55,523.51,814.86z M519.71,814.86c0-2.7-0.47-5-1.42-6.86c-0.93-1.86-2.2-3.28-3.8-4.22
		c-1.59-0.96-3.36-1.44-5.34-1.44c-1.98,0-3.75,0.47-5.36,1.44c-1.59,0.96-2.86,2.37-3.8,4.22c-0.93,1.86-1.4,4.16-1.4,6.86
		s0.47,5,1.4,6.86c0.95,1.86,2.21,3.28,3.8,4.22c1.61,0.96,3.38,1.44,5.36,1.44c1.98,0,3.75-0.47,5.34-1.44
		c1.61-0.96,2.87-2.37,3.8-4.22C519.24,819.84,519.71,817.56,519.71,814.86z"/>
	<path d="M529.95,830.51h-4.14l11.95-31.3h4.07l11.95,31.3h-4.14l-9.73-26.35h-0.25L529.95,830.51z M531.47,818.27h16.66v3.36
		h-16.66V818.27z"/>
	<path d="M583.52,808.98h-3.94c-0.24-1.1-0.64-2.04-1.23-2.87c-0.57-0.83-1.27-1.52-2.1-2.08c-0.81-0.57-1.72-1-2.72-1.28
		c-1-0.29-2.03-0.42-3.11-0.42c-1.98,0-3.75,0.47-5.36,1.44c-1.59,0.96-2.86,2.37-3.8,4.22c-0.93,1.86-1.4,4.16-1.4,6.86
		s0.46,5,1.4,6.86c0.95,1.86,2.21,3.28,3.8,4.22c1.61,0.96,3.38,1.44,5.36,1.44c1.08,0,2.11-0.14,3.11-0.42
		c1-0.29,1.91-0.71,2.72-1.27c0.83-0.57,1.52-1.27,2.1-2.1c0.59-0.83,1-1.79,1.23-2.87h3.94c-0.3,1.61-0.84,3.02-1.62,4.29
		c-0.78,1.27-1.76,2.33-2.92,3.23c-1.17,0.88-2.47,1.54-3.92,2.01c-1.44,0.46-2.97,0.69-4.63,0.69c-2.77,0-5.24-0.66-7.4-1.96
		s-3.87-3.16-5.1-5.56c-1.23-2.4-1.86-5.26-1.86-8.55c0-3.3,0.63-6.15,1.86-8.55c1.23-2.4,2.94-4.26,5.1-5.56
		c2.16-1.3,4.63-1.96,7.4-1.96c1.64,0,3.18,0.24,4.63,0.69c1.45,0.46,2.75,1.13,3.92,2.01c1.17,0.88,2.15,1.94,2.92,3.21
		C582.69,805.94,583.23,807.37,583.52,808.98z"/>
	<path d="M589.89,830.51v-31.3h3.94v13.94h17.37v-13.94h3.94v31.3h-3.94V816.5h-17.36v14.01H589.89z"/>
</g>
</svg>
