<?xml version="1.0" encoding="utf-8"?>
<!-- Generator: Adobe Illustrator 24.0.1, SVG Export Plug-In . SVG Version: 6.00 Build 0)  -->
<svg version="1.1" id="Layer_1" xmlns="http://www.w3.org/2000/svg" xmlns:xlink="http://www.w3.org/1999/xlink" x="0px" y="0px"
	 viewBox="0 0 1080 1080" style="enable-background:new 0 0 1080 1080;" xml:space="preserve">
<style type="text/css">
	.st0{fill:#EEDC92;}
	.st1{fill:#800000;}
	.st2{fill:#FFBD11;}
	.st3{fill:#FFFFFF;}
	.st4{fill:#020202;}
	.st5{fill:#F6F2E0;}
	.st6{fill:#6ECAD9;}
</style>
<g>
	<path class="st0" d="M179.26,738.07c-1.07-4.53,1.13-8.77,1.12-13.24c-0.06-117.04-0.07-234.07-0.09-351.11
		c148.79-0.03,297.58-0.06,446.38-0.07c48.11,0,96.21,0.05,144.32,0.07c-0.01,99.21-0.02,198.42-0.03,297.63
		c-25.31,0.02-50.63,0-75.94,0.08c-12.84,0.04-21.21,8.39-21.24,21.18c-0.05,25.31,0.01,50.63,0.02,75.94
		c-2.12,2.18-4.83,1.22-7.27,1.23c-27.04,0.07-54.08,0.04-81.11,0.04c-120.29,0-240.57,0.03-360.86-0.03
		c-20.7-0.01-37.69-10.41-43.01-29.98C181.21,738.57,180.41,738.16,179.26,738.07z M553.63,704.46c14.72,0.7,17.74-2.13,17.74-16.64
		c0-12.51-0.01-25.01,0-37.52c0.01-5.61-1.99-10.23-7.65-11.77c-3.15-0.86-6.72-0.19-10.11-0.21c-14.44-0.05-28.89-0.18-43.33-0.12
		c-8.03,0.03-11.65,3.69-11.7,11.73c-0.09,14.24-0.09,28.47,0,42.71c0.05,7.9,3.82,11.78,11.7,11.85
		C524.74,704.6,539.19,704.48,553.63,704.46z M552.38,591.98c1.27,0.07,2.53,0.19,3.8,0.2c11.84,0.11,15.17-3.14,15.18-14.82
		c0.01-13.14,0-26.29,0-39.43c0-4.76-1.45-8.74-5.9-11.11c-3.8-2.03-7.87-0.9-11.84-0.93c-14.67-0.05-29.33-0.23-44-0.11
		c-7.2,0.06-10.96,3.94-11.02,11.16c-0.12,14.67-0.13,29.34,0,44.01c0.06,7.19,3.88,11.08,11.05,11.14
		C523.9,592.2,538.14,592.04,552.38,591.98z M553.63,413.42c-14.45-0.03-28.9-0.16-43.35-0.05c-7.46,0.06-11.56,3.74-11.64,10.6
		c-0.18,15.09-0.17,30.18,0,45.27c0.07,6.5,3.88,10.36,10.37,10.42c14.87,0.14,29.75-0.03,44.62-0.07
		c14.9,0.76,17.75-1.87,17.75-16.44c0-12.51-0.02-25.02,0.01-37.53c0.01-5.07-1.71-9.13-6.49-11.41
		C561.27,412.48,557.41,413.35,553.63,413.42z M315.89,479.57c2.33,0.08,4.67,0.24,7,0.21c8.18-0.11,11.99-3.86,12.04-12.13
		c0.09-14.03,0.1-28.06,0-42.09c-0.06-8.35-4.19-12.26-12.69-12.31c-1.7-0.01-3.39,0.11-5.09,0.18
		c-14.44-0.03-28.87-0.17-43.31-0.05c-7.63,0.07-11.6,3.94-11.66,11.27c-0.12,14.65-0.12,29.31,0.01,43.96
		c0.06,7.22,3.84,11.05,11.03,11.09C287.45,479.79,301.67,479.63,315.89,479.57z M317.16,704.46c2.12,0.06,4.25,0.23,6.36,0.17
		c6.9-0.21,11.28-4.18,11.37-11.03c0.2-14.87,0.19-29.75,0-44.62c-0.08-6.78-4.09-10.58-10.73-10.81c-2.75-0.1-5.51,0.11-8.27,0.18
		c-14.01-0.06-28.02-0.2-42.02-0.14c-7.98,0.03-11.65,3.74-11.7,11.73c-0.09,14.23-0.09,28.45,0,42.68
		c0.05,7.86,3.85,11.81,11.69,11.87C288.29,704.6,302.72,704.48,317.16,704.46z M317.15,525.9c-14.65-0.05-29.3-0.23-43.95-0.11
		c-7.13,0.06-10.95,4.01-11.01,11.18c-0.12,14.65-0.13,29.31,0,43.97c0.06,7.16,3.91,11.1,11.04,11.16
		c14.23,0.11,28.45-0.06,42.68-0.11c2.33,0.07,4.67,0.22,7,0.2c7.77-0.07,11.93-3.9,12.01-11.58c0.14-14.45,0.15-28.91,0-43.36
		c-0.08-7.7-4.21-11.46-12.03-11.52C320.97,525.71,319.06,525.84,317.15,525.9z M433.52,525.92c-14.02-0.07-28.04-0.25-42.06-0.15
		c-7.04,0.05-11.1,4-11.21,11.15c-0.22,14.66-0.22,29.33,0,43.99c0.11,7.19,4.13,11.13,11.17,11.19
		c14.87,0.12,29.74-0.04,44.61-0.09c14.27,0.62,16.77-1.75,16.78-15.9c0-12.71,0.06-25.41-0.02-38.12
		c-0.06-8.91-3.47-12.23-12.29-12.26C438.17,525.72,435.85,525.85,433.52,525.92z M672.51,592.01c14.22,0.62,16.67-1.75,16.67-16.12
		c0-12.56,0.04-25.12-0.01-37.68c-0.04-9.25-3.37-12.47-12.79-12.48c-2.12,0-4.25,0.12-6.37,0.19c-14.04-0.07-28.07-0.25-42.11-0.15
		c-7.08,0.05-11.15,4-11.26,11.13c-0.22,14.68-0.21,29.36,0,44.03c0.1,7.15,4.16,11.11,11.21,11.17
		C642.73,592.22,657.62,592.06,672.51,592.01z M434.76,413.44c-14.23-0.04-28.46-0.17-42.69-0.07c-7.32,0.05-11.59,3.65-11.74,10.62
		c-0.32,15.08-0.31,30.17-0.03,45.25c0.13,6.76,4.3,10.44,11.13,10.47c14.87,0.07,29.73-0.06,44.6-0.12
		c2.33,0.05,4.66,0.25,6.98,0.12c5.81-0.33,9.58-3.77,9.65-9.61c0.2-15.68,0.19-31.36,0-47.03c-0.07-6.03-3.88-9.16-9.65-9.74
		C440.29,413.05,437.51,413.38,434.76,413.44z M433.51,638.36c-13.8-0.07-27.61-0.2-41.41-0.17c-7.88,0.02-11.77,3.76-11.87,11.72
		c-0.18,14.23-0.19,28.47,0.01,42.71c0.11,7.99,4,11.81,11.84,11.87c14.65,0.11,29.31-0.01,43.96-0.03
		c2.33,0.06,4.68,0.37,6.97,0.11c5.74-0.65,9.58-3.72,9.65-9.76c0.18-15.67,0.2-31.34,0-47c-0.07-5.84-3.83-9.32-9.63-9.6
		C439.86,638.05,436.68,638.29,433.51,638.36z M690.54,427.83c-0.09-5.71-2.24-8.95-6.36-10.63c-4.43-1.8-8.46-0.71-11.55,2.86
		c-7.94,9.18-15.88,18.36-23.54,27.76c-2.61,3.21-4.3,3.16-6.89,0.18c-2.64-3.05-5.62-5.82-8.59-8.56
		c-5.19-4.8-11.1-5.04-15.32-0.76c-4.38,4.44-4.15,10.04,0.91,15.23c6.09,6.25,12.31,12.38,18.56,18.47
		c6.49,6.33,11.89,6.19,17.87-0.75c10.57-12.25,20.95-24.66,31.41-37C689,432.33,690.68,429.89,690.54,427.83z"/>
	<path class="st1" d="M669.67,230.24c20.19,0.05,40.38,0.02,60.58,0.18c23.17,0.18,40.57,16.68,40.99,39.89
		c0.52,28.48,0.15,56.97,0.14,85.45c0,0.83-0.27,1.67-0.42,2.5c-2.77-0.03-5.53-0.09-8.3-0.09c-181.77,0-363.53-0.01-545.3,0
		c-12.34,0-24.69,0.06-37.03,0.09c-0.15-10.42-0.39-20.84-0.43-31.25c-0.07-18.1-0.15-36.2,0.02-54.3
		c0.24-25.49,17.19-42.24,42.68-42.3c19.59-0.05,39.18,0.06,58.77,0.1c0.1,0.36,0.19,0.73,0.27,1.1
		c-0.08,11.23-0.24,22.45-0.19,33.68c0.01,2.86-1,5.96,1.17,8.56c1.89,8.58,7.9,13.4,15.39,16.88c3.41,9.52,12.79,14.5,22.08,11.75
		c10.11-3,16.18-12.74,13.87-22.26c-3.5-14.4-16.76-19.23-30.82-11.23c-0.11-12.78-0.22-25.57-0.33-38.35
		c8.55-0.14,17.11-0.28,25.66-0.42c6.83,0,13.66,0,20.49,0.01c31.02,0.08,62.05,0.17,93.07,0.25c0.08,11.65,0.59,23.32,0.12,34.95
		c-0.52,12.85,5.43,20.81,16.84,25.47c0.1,0.84-0.04,1.81,0.33,2.5c4.24,7.87,13.95,11.56,22.34,8.57
		c8.66-3.08,14.44-12.38,13.06-21c-1.5-9.37-9.21-15.8-18.51-16.12c-4.99-0.17-8.9,2.25-13.16,4c-0.03-12.81-0.06-25.62-0.09-38.42
		c8.52-0.07,17.04-0.14,25.56-0.21c6.85-0.01,13.69-0.01,20.54-0.02c31.01,0.09,62.03,0.17,93.04,0.26c0.11,0.4,0.21,0.81,0.3,1.22
		c-0.07,10.83-0.24,21.66-0.14,32.49c0.03,3.29-1.13,6.81,1.14,9.87c1.64,8.79,8.16,13.09,15.4,16.73
		c3.9,10.62,13.12,14.88,23.99,11.12c9.23-3.2,14.15-13.79,11.18-24.07c-3.58-12.38-17.07-16.3-30.14-8.75
		c-2.16-12.81-0.65-25.7-0.77-38.55c8.68-0.1,17.36-0.2,26.04-0.31C655.96,230.23,662.82,230.23,669.67,230.24z"/>
	<path class="st2" d="M179.26,738.07c1.14,0.09,1.94,0.5,2.29,1.76c5.32,19.57,22.31,29.97,43.01,29.98
		c120.29,0.06,240.57,0.03,360.86,0.03c27.04,0,54.08,0.03,81.11-0.04c2.44-0.01,5.16,0.95,7.27-1.23
		c4.49,0.55,7.59-1.78,10.56-4.77c16.18-16.28,32.48-32.45,48.66-48.73c12.72-12.79,25.34-25.69,38-38.54
		c1.67,1.81,1.03,4.04,1.03,6.1c0.04,23.21,0.2,46.41-0.04,69.62c-0.14,14.16-2.97,27.4-14.73,37.17
		c-7.13,5.93-15.16,9.76-24.32,9.77c-171.6,0.12-343.19,0.11-514.79,0.05c-18.37-0.01-36.03-16.94-37.98-35.08
		C179.28,755.44,179.25,746.77,179.26,738.07z"/>
	<path class="st2" d="M180.33,358.27c12.34-0.03,24.69-0.09,37.03-0.09c181.77-0.01,363.53,0,545.3,0c2.77,0,5.53,0.06,8.3,0.09
		c3.04,5.14-0.27,10.3,0.03,15.45c-48.11-0.03-96.21-0.08-144.32-0.07c-148.79,0.01-297.58,0.05-446.38,0.07
		C180.6,368.57,177.29,363.41,180.33,358.27z"/>
	<path class="st0" d="M771.03,676.52c-12.66,12.85-25.28,25.75-38,38.54c-16.18,16.28-32.48,32.45-48.66,48.73
		c-2.97,2.99-6.07,5.33-10.56,4.77c-0.01-25.31-0.07-50.63-0.02-75.94c0.03-12.79,8.4-21.14,21.24-21.18
		c25.31-0.08,50.63-0.06,75.94-0.08C770.99,673.08,771.01,674.8,771.03,676.52z"/>
	<path d="M509.07,230.21c-6.85,0.01-13.69,0.01-20.54,0.02c0.01-6.6,0.02-13.21,0.02-19.81c0-9-2.24-11.31-11.43-11.89
		c-3.69-0.23-7.21,0.43-10.6,1.82c-2.59,1.06-3.96,2.72-3.85,5.82c0.27,8.08,0.22,16.18,0.3,24.27c0.03,12.81,0.06,25.62,0.09,38.42
		c2.78,4.26,7.34,4.53,11.68,4.97c7.3,0.74,11.77,5.11,11,11.13c-0.73,5.71-6.87,10.15-13.22,9.12c-4.56-0.74-9.03-2.1-13.54-3.19
		c-11.41-4.66-17.37-12.62-16.84-25.47c0.47-11.63-0.04-23.3-0.12-34.95c0.07-7.23,0.18-14.46,0.19-21.68
		c0.03-17.37,7.04-26.05,24.13-29.76c10.12-2.19,19.89-1.14,29.07,3.73c8.99,4.77,14.05,11.93,13.7,22.56
		C508.85,213.61,509.07,221.91,509.07,230.21z"/>
	<path d="M298,290.74c-7.49-3.48-13.5-8.3-15.39-16.88c0.01-7.82,0.22-15.65-0.05-23.46c-0.21-6.26,1.19-12.62-0.94-18.78
		c-0.08-0.37-0.17-0.73-0.27-1.1c0.1-7.01,0.27-14.03,0.28-21.04c0.04-17.94,7.28-26.85,24.97-30.57c9.48-1.99,18.71-1,27.35,3.25
		c9.75,4.79,15.37,12.39,15.02,23.81c-0.25,8.08-0.04,16.17-0.03,24.26c-6.83,0-13.66,0-20.49-0.01c0-7.66-0.01-15.31,0.01-22.97
		c0.01-2.36,0.06-4.5-2.39-6.09c-5.26-3.42-16.19-3.54-21.41-0.03c-1.54,1.03-2.55,2.2-2.48,4.11c0.32,8.46-0.75,16.96,0.61,25.4
		c0.11,12.78,0.22,25.57,0.33,38.35c2.47,4.31,6.83,4.5,11,4.87c7.81,0.7,11.7,4.87,10.75,11.72c-0.84,6.07-6.39,9.65-13.36,8.34
		C306.98,293.07,302.51,291.81,298,290.74z"/>
	<path d="M618.81,290.78c-7.24-3.64-13.76-7.94-15.4-16.73c0.01-8.7,0.2-17.39-0.04-26.08c-0.15-5.42,1.2-10.97-0.96-16.28
		c-0.09-0.41-0.19-0.82-0.3-1.22c0.09-7.01,0.23-14.03,0.24-21.04c0.04-17.91,7.29-26.82,24.97-30.53
		c9.47-1.99,18.69-0.99,27.34,3.26c9.77,4.8,15.29,12.47,15,23.83c-0.21,8.08-0.01,16.17,0,24.25c-6.86-0.01-13.71-0.01-20.57-0.02
		c0-7.85-0.13-15.69,0.06-23.54c0.08-3.26-1.18-5.19-4.08-6.36c-6.2-2.51-12.35-2.52-18.51,0.16c-2.61,1.14-3.85,2.87-3.76,5.89
		c0.22,8.05,0.19,16.11,0.25,24.16c0.12,12.85-1.39,25.74,0.77,38.55c2.68,4.48,7.27,4.41,11.62,4.81c7.07,0.64,10.78,4.58,10.25,11
		c-0.5,6.07-5.52,10.14-12.11,9.21C628.62,293.38,623.74,291.91,618.81,290.78z"/>
	<rect x="603.85" y="401.06" class="st0" width="108" height="91.59"/>
	<path class="st2" d="M436.04,704.45c-14.65,0.02-29.31,0.15-43.96,0.03c-7.84-0.06-11.73-3.88-11.84-11.87
		c-0.2-14.23-0.19-28.47-0.01-42.71c0.1-7.96,4-11.7,11.87-11.72c13.8-0.03,27.61,0.1,41.41,0.17c4.79,2.96,6.61,7.13,6.44,12.84
		c-0.34,11.26-0.24,22.54-0.05,33.81C440.02,691.82,440.17,698.53,436.04,704.45z"/>
	<path class="st2" d="M436.03,479.59c-14.87,0.05-29.73,0.19-44.6,0.12c-6.82-0.03-11-3.71-11.13-10.47
		c-0.28-15.08-0.3-30.17,0.03-45.25c0.15-6.97,4.42-10.57,11.74-10.62c14.23-0.1,28.46,0.03,42.69,0.07
		c4.96,4.83,5.4,10.88,5.18,17.38c-0.33,9.55-0.16,19.13-0.06,28.7C439.94,466.48,440.39,473.49,436.03,479.59z"/>
	<path class="st2" d="M672.51,592.01c-14.89,0.05-29.77,0.2-44.66,0.09c-7.06-0.06-11.11-4.02-11.21-11.17
		c-0.21-14.68-0.22-29.36,0-44.03c0.11-7.13,4.18-11.07,11.26-11.13c14.03-0.1,28.07,0.08,42.11,0.15
		c4.85,2.93,6.59,7.15,6.42,12.83c-0.33,11.26-0.25,22.54-0.04,33.81C676.5,579.38,676.6,586.08,672.51,592.01z"/>
	<path class="st2" d="M436.03,592.01c-14.87,0.04-29.74,0.2-44.61,0.09c-7.04-0.06-11.06-4-11.17-11.19
		c-0.22-14.66-0.22-29.33,0-43.99c0.11-7.15,4.16-11.1,11.21-11.15c14.02-0.11,28.04,0.08,42.06,0.15
		c4.85,2.92,6.59,7.15,6.42,12.83c-0.32,11.26-0.24,22.54-0.04,33.81C440.03,579.38,440.14,586.09,436.03,592.01z"/>
	<path class="st2" d="M315.91,591.98c-14.23,0.05-28.45,0.22-42.68,0.11c-7.13-0.06-10.98-3.99-11.04-11.16
		c-0.13-14.65-0.12-29.31,0-43.97c0.06-7.17,3.88-11.12,11.01-11.18c14.65-0.12,29.3,0.06,43.95,0.11
		c4.96,6.41,5.44,13.81,5.17,21.56c-0.31,8.91-0.37,17.85,0.02,26.76C322.65,581.19,321.18,587.19,315.91,591.98z"/>
	<path class="st2" d="M317.16,704.46c-14.43,0.02-28.87,0.14-43.3,0.02c-7.84-0.06-11.64-4.01-11.69-11.87
		c-0.08-14.23-0.09-28.45,0-42.68c0.05-8,3.72-11.7,11.7-11.73c14.01-0.06,28.02,0.08,42.02,0.14c5.61,4.91,6.89,11.15,6.46,18.35
		c-0.48,8.06-0.18,16.17-0.09,24.25C322.36,689.19,323.05,697.53,317.16,704.46z"/>
	<path class="st2" d="M670.18,479.57c-14.22,0.06-28.45,0.22-42.67,0.12c-7.19-0.05-10.97-3.87-11.03-11.09
		c-0.13-14.65-0.13-29.31-0.01-43.96c0.06-7.33,4.03-11.2,11.66-11.27c14.43-0.12,28.87,0.02,43.31,0.05
		c4.98,6.42,5.44,13.83,5.16,21.58c-0.31,8.71-0.37,17.44,0.02,26.14C676.96,468.31,675.65,474.58,670.18,479.57z"/>
	<path class="st2" d="M553.62,479.59c-14.87,0.04-29.75,0.21-44.62,0.07c-6.49-0.06-10.3-3.93-10.37-10.42
		c-0.16-15.09-0.17-30.18,0-45.27c0.08-6.86,4.18-10.54,11.64-10.6c14.45-0.12,28.9,0.02,43.35,0.05c3.83,4.94,4.06,10.64,3.9,16.6
		c-0.26,10.14-0.18,20.29-0.03,30.43C557.59,467.15,558.07,473.85,553.62,479.59z"/>
	<path class="st2" d="M552.38,591.98c-14.24,0.05-28.48,0.22-42.72,0.11c-7.17-0.06-10.99-3.95-11.05-11.14
		c-0.13-14.67-0.12-29.34,0-44.01c0.06-7.22,3.82-11.1,11.02-11.16c14.66-0.12,29.33,0.06,44,0.11c4.14,5.16,3.99,11.2,3.89,17.37
		c-0.2,11.5-0.33,23.01,0.06,34.5C557.77,583.44,556.82,588.23,552.38,591.98z"/>
	<path class="st2" d="M553.63,704.46c-14.44,0.02-28.89,0.14-43.33,0.03c-7.89-0.06-11.65-3.95-11.7-11.85
		c-0.09-14.24-0.09-28.47,0-42.71c0.05-8.04,3.67-11.7,11.7-11.73c14.44-0.06,28.89,0.07,43.33,0.12c3.85,5.17,4.06,11.07,3.9,17.23
		c-0.25,10.13-0.16,20.28-0.04,30.42C557.57,692.45,558.04,698.94,553.63,704.46z"/>
	<rect x="253.42" y="406.23" class="st0" width="92.66" height="79.9"/>
	<path class="st1" d="M335.67,427.83c0.13,2.07-1.55,4.5-3.5,6.81c-10.46,12.34-20.84,24.75-31.41,37
		c-5.98,6.93-11.38,7.08-17.87,0.75c-6.25-6.09-12.47-12.22-18.56-18.47c-5.06-5.19-5.29-10.79-0.91-15.23
		c4.23-4.28,10.13-4.04,15.32,0.76c2.97,2.75,5.95,5.51,8.59,8.56c2.59,2.99,4.28,3.04,6.89-0.18c7.66-9.41,15.6-18.59,23.54-27.76
		c3.09-3.57,7.12-4.67,11.55-2.86C333.43,418.87,335.58,422.12,335.67,427.83z"/>
	<path class="st2" d="M552.38,591.98c4.44-3.76,5.39-8.54,5.19-14.21c-0.39-11.49-0.26-23-0.06-34.5
		c0.11-6.17,0.26-12.21-3.89-17.37c3.97,0.03,8.04-1.1,11.84,0.93c4.45,2.38,5.91,6.35,5.9,11.11c-0.01,13.14,0.01,26.29,0,39.43
		c-0.01,11.68-3.34,14.93-15.18,14.82C554.92,592.17,553.65,592.05,552.38,591.98z"/>
	<path class="st2" d="M553.62,479.59c4.45-5.74,3.97-12.44,3.87-19.14c-0.15-10.14-0.23-20.3,0.03-30.43
		c0.15-5.96-0.07-11.66-3.9-16.6c3.78-0.07,7.64-0.95,11.27,0.79c4.77,2.28,6.5,6.34,6.49,11.41c-0.03,12.51-0.01,25.02-0.01,37.53
		C571.37,477.72,568.53,480.36,553.62,479.59z"/>
	<path class="st2" d="M553.63,704.46c4.4-5.52,3.94-12.01,3.86-18.49c-0.12-10.14-0.22-20.29,0.04-30.42
		c0.15-6.15-0.05-12.06-3.9-17.23c3.38,0.02,6.95-0.65,10.11,0.21c5.66,1.54,7.65,6.16,7.65,11.77c-0.01,12.51,0,25.01,0,37.52
		C571.37,702.33,568.36,705.16,553.63,704.46z"/>
	<path class="st2" d="M315.91,591.98c5.27-4.8,6.74-10.79,6.43-17.77c-0.4-8.9-0.34-17.85-0.02-26.76
		c0.27-7.75-0.2-15.15-5.17-21.56c1.91-0.06,3.82-0.19,5.73-0.17c7.83,0.05,11.96,3.82,12.03,11.52c0.15,14.45,0.15,28.91,0,43.36
		c-0.08,7.68-4.23,11.51-12.01,11.58C320.58,592.2,318.24,592.05,315.91,591.98z"/>
	<path class="st2" d="M670.18,479.57c5.46-4.99,6.78-11.26,6.45-18.43c-0.4-8.7-0.33-17.44-0.02-26.14
		c0.27-7.75-0.18-15.16-5.16-21.58c1.7-0.06,3.39-0.19,5.09-0.18c8.49,0.05,12.63,3.96,12.69,12.31c0.1,14.03,0.09,28.06,0,42.09
		c-0.05,8.27-3.86,12.02-12.04,12.13C674.85,479.81,672.52,479.65,670.18,479.57z"/>
	<path class="st2" d="M317.16,704.46c5.89-6.93,5.2-15.27,5.11-23.51c-0.09-8.08-0.39-16.19,0.09-24.25
		c0.43-7.21-0.85-13.45-6.46-18.35c2.76-0.07,5.52-0.28,8.27-0.18c6.64,0.23,10.64,4.03,10.73,10.81c0.18,14.87,0.19,29.75,0,44.62
		c-0.09,6.85-4.47,10.82-11.37,11.03C321.4,704.69,319.28,704.52,317.16,704.46z"/>
	<path class="st2" d="M436.04,704.45c4.13-5.92,3.98-12.64,3.86-19.45c-0.19-11.27-0.29-22.55,0.05-33.81
		c0.17-5.71-1.65-9.88-6.44-12.84c3.17-0.06,6.35-0.3,9.51-0.15c5.81,0.28,9.56,3.76,9.63,9.6c0.2,15.66,0.19,31.33,0,47
		c-0.07,6.04-3.91,9.1-9.65,9.76C440.72,704.83,438.36,704.51,436.04,704.45z"/>
	<path class="st2" d="M436.03,479.59c4.36-6.11,3.92-13.11,3.85-20.09c-0.09-9.57-0.27-19.14,0.06-28.7
		c0.23-6.5-0.21-12.54-5.18-17.38c2.75-0.05,5.53-0.38,8.25-0.11c5.77,0.59,9.58,3.72,9.65,9.74c0.19,15.68,0.2,31.36,0,47.03
		c-0.07,5.84-3.84,9.28-9.65,9.61C440.69,479.85,438.35,479.64,436.03,479.59z"/>
	<path class="st2" d="M436.03,592.01c4.11-5.93,3.99-12.63,3.87-19.45c-0.2-11.27-0.28-22.55,0.04-33.81
		c0.16-5.68-1.57-9.91-6.42-12.83c2.33-0.07,4.65-0.2,6.98-0.19c8.82,0.03,12.23,3.35,12.29,12.26c0.09,12.7,0.03,25.41,0.02,38.12
		C452.81,590.27,450.31,592.64,436.03,592.01z"/>
	<path class="st2" d="M672.51,592.01c4.09-5.93,4-12.63,3.87-19.45c-0.2-11.27-0.29-22.55,0.04-33.81
		c0.16-5.69-1.58-9.91-6.42-12.83c2.12-0.07,4.25-0.19,6.37-0.19c9.42,0.01,12.75,3.22,12.79,12.48
		c0.05,12.56,0.01,25.12,0.01,37.68C689.17,590.27,686.73,592.63,672.51,592.01z"/>
	<path class="st3" d="M298,290.74c4.5,1.08,8.98,2.33,13.52,3.19c6.97,1.31,12.52-2.27,13.36-8.34c0.95-6.85-2.94-11.02-10.75-11.72
		c-4.18-0.38-8.53-0.56-11-4.87c14.06-8,27.32-3.17,30.82,11.23c2.31,9.52-3.76,19.26-13.87,22.26
		C310.79,305.24,301.42,300.25,298,290.74z"/>
	<path class="st3" d="M618.81,290.78c4.93,1.13,9.81,2.6,14.79,3.31c6.59,0.94,11.61-3.14,12.11-9.21c0.53-6.43-3.18-10.37-10.25-11
		c-4.35-0.39-8.94-0.32-11.62-4.81c13.07-7.55,26.57-3.63,30.14,8.75c2.97,10.28-1.95,20.87-11.18,24.07
		C631.93,305.66,622.71,301.39,618.81,290.78z"/>
	<path class="st3" d="M458.99,290.9c4.51,1.08,8.97,2.44,13.54,3.19c6.35,1.03,12.49-3.41,13.22-9.12c0.77-6.02-3.7-10.39-11-11.13
		c-4.34-0.44-8.91-0.71-11.68-4.97c4.25-1.75,8.16-4.17,13.16-4c9.3,0.31,17,6.75,18.51,16.12c1.38,8.62-4.4,17.92-13.06,21
		c-8.4,2.98-18.1-0.71-22.34-8.57C458.94,292.71,459.08,291.74,458.99,290.9z"/>
	<path class="st4" d="M602.41,231.68c2.16,5.31,0.81,10.85,0.96,16.28c0.24,8.69,0.05,17.39,0.04,26.08
		c-2.27-3.06-1.11-6.58-1.14-9.87C602.17,253.35,602.35,242.51,602.41,231.68z"/>
	<path class="st4" d="M281.63,231.61c2.13,6.16,0.72,12.52,0.94,18.78c0.27,7.81,0.05,15.64,0.05,23.46
		c-2.17-2.6-1.16-5.7-1.17-8.56C281.39,254.07,281.55,242.84,281.63,231.61z"/>
</g>
<g>
	<path d="M732.22,519c5.63,0,10.22,4.4,10.22,9.79v0.7c17.81,2.39,33.94,10.24,46.18,21.72c14.41,13.54,23.42,32.1,23.42,52.76
		l-0.68,25.5l5.27,36.56c0.21,1.19,0.09,2.4-0.34,3.53c-0.43,1.13-1.16,2.12-2.12,2.89l0.65,0.74l1.21,1.38l-5.32,6.74l-0.1,0.24
		l-0.03,0.07c-1.63,3.97-3.81,7.59-6.33,10.25c-2.12,2.16-4.49,3.72-7.07,4.33c-0.5,1.53-1.05,3.11-1.45,4.67
		c-2.87,9.27-5.13,16.58-11.11,23.84c-1.3,1.59-2.7,3.11-4.16,4.55c-1.01,1.01-2.04,1.99-3.14,2.92c0.18,1.76,0.15,17.19,0.12,21.6
		l-1.76,0.4c-3.85,13.07-15.41,21.54-29.01,25.54c-7.75,2.27-16.18,3.1-24.21,2.5c-8.09-0.59-15.84-2.65-22.13-6.12
		c-8.84-4.87-14.9-12.5-15.33-22.81v-0.71l-1.93-0.5v-19.81l0.04-2.07c-5.51-4.79-10.01-11.13-13.05-17.57
		c-2.12-4.49-3.79-9.36-5.75-14.86l-1.01-2.86c-2.21-0.28-4.27-1.26-6.12-2.7c-2.33-1.82-4.33-4.49-5.96-7.57
		c-1.1-2.06-3.26-5.16-4.04-11.6c-2.36-1.38-3.76-4-3.36-6.79l5.3-36.59l-1.48-22.4c-0.1-1.63-0.16-3.11-0.16-4.44
		c0-19.96,8.96-37.87,23.14-51.1c13.45-12.56,31.67-20.89,51.36-22.64v-0.27C722.01,523.4,726.6,519,732.22,519z"/>
	<path d="M739.65,776.02c11.93-2.55,22.76-8.92,28.03-18.71c1.7-3.82,5.97-6.18,10.41-5.44c7.02,1.19,11.3,1.85,15.61,2.5
		c51.3,7.93,99.99,15.44,113.44,77.88l14.52,75.19c0.22,0.77,0.34,1.59,0.34,2.41c0,5.05-4.28,9.14-9.54,9.14H547.99
		c-0.5-0.03-1.01-0.06-1.53-0.13c-5.19-0.8-8.71-5.48-7.87-10.46l10.83-63.35c15.32-74.62,55.93-82.34,114.77-93.53
		c6.19-1.17,12.56-2.39,17.53-3.38c5.08-1.01,10.09,2.09,11.21,6.96c2,8.58,7.75,14.56,15.21,18.09c4.47,2.12,9.56,3.41,14.83,3.88
		C728.48,777.55,734.17,777.19,739.65,776.02z"/>
	<path class="st5" d="M770.1,733.76c-26.67,19.88-53.04,17.99-79.16,0.18l-0.12,19.81c2.76,30.71,71.45,32.44,79.27,0.9v-20.89
		H770.1z M807.95,675.36c-0.67-0.76-1.33-1.51-2-2.25l-0.46-0.28c-17.94-12.1-46.58-18.13-75.35-18.13
		c-27.94,0-55.63,5.69-73.36,16.99l2.47,10.52l8.18,8.21l5.07,5.23c14.22,57.02,101.24,60.59,116.46,0l8.95-7.45L807.95,675.36z"/>
	<path class="st1" d="M809.53,667.16l-4.77-33.07c-0.53-0.03-1.07-0.15-1.57-0.36c-26.06-10.89-51.19-15.35-75.51-14.84
		c-24.34,0.52-47.96,6.03-70.95,15.08c-0.36,0.15-0.73,0.24-1.1,0.28l-4.77,32.9C688.6,641.39,771.12,641.24,809.53,667.16z
		 M804.31,624.91l0.52-19.21c1.07-38.92-33.24-70.15-73.88-70.15h-1.16c-41.27,0-77.67,31.79-75.04,71.26l1.21,18.27
		c23.14-8.83,46.95-14.18,71.56-14.7C752.31,609.84,777.88,614.23,804.31,624.91z"/>
	<path class="st3" d="M741.19,569.52h-3.56c-0.21-1.02-0.58-1.91-1.1-2.68s-1.14-1.42-1.9-1.94c-0.74-0.53-1.56-0.93-2.44-1.2
		c-0.9-0.27-1.84-0.4-2.81-0.4c-1.78,0-3.38,0.44-4.83,1.35c-1.44,0.89-2.58,2.21-3.42,3.96c-0.84,1.75-1.26,3.88-1.26,6.41
		s0.41,4.67,1.26,6.41c0.84,1.75,1.99,3.07,3.42,3.96c1.44,0.89,3.05,1.35,4.83,1.35c0.98,0,1.91-0.13,2.81-0.4s1.72-0.67,2.44-1.19
		c0.74-0.53,1.38-1.19,1.9-1.96c0.52-0.79,0.89-1.67,1.1-2.68h3.56c-0.27,1.5-0.76,2.83-1.47,4.01c-0.71,1.19-1.59,2.19-2.64,3.01
		s-2.22,1.44-3.54,1.87c-1.3,0.43-2.68,0.64-4.16,0.64c-2.5,0-4.73-0.61-6.68-1.82c-1.96-1.21-3.48-2.95-4.59-5.2
		c-1.11-2.25-1.67-4.92-1.67-8s0.56-5.75,1.67-8s2.65-3.99,4.59-5.2s4.18-1.82,6.68-1.82c1.48,0,2.87,0.21,4.16,0.64
		c1.3,0.43,2.49,1.05,3.54,1.88c1.05,0.81,1.93,1.82,2.64,3.01C740.45,566.67,740.93,568.02,741.19,569.52z"/>
	<path class="st6" d="M776.42,760.9c-6.73,13.07-20.76,21.32-35.94,24.28v42.43h-20.56l-0.01-41.69
		c-17.14-2.16-32.25-11.51-36.27-28.83c-64.64,13.07-109.35,14.04-124.87,89.73l-3.7,21.56h78.81v-38.36c0-2.34,1.99-4.25,4.44-4.25
		s4.44,1.91,4.44,4.25v79.85h174.41v-79.85c0-2.34,1.99-4.25,4.44-4.25c2.46,0,4.43,1.91,4.43,4.25v38.36h78.37l-6.52-33.79
		C884.62,771.7,829.95,769.87,776.42,760.9z M551.55,888.82l-3.6,21.05h85.93v-21.05H551.55z M826.05,909.87h86.37l-4.06-21.05
		h-82.31V909.87z"/>
	<path d="M685.91,866.26h-3.45c-0.21-0.96-0.56-1.79-1.07-2.52c-0.5-0.73-1.11-1.33-1.84-1.82c-0.71-0.5-1.51-0.87-2.39-1.13
		c-0.87-0.25-1.78-0.37-2.73-0.37c-1.73,0-3.29,0.41-4.7,1.26c-1.39,0.84-2.5,2.07-3.33,3.7c-0.81,1.63-1.23,3.64-1.23,6.01
		s0.41,4.39,1.23,6.01c0.83,1.63,1.94,2.87,3.33,3.7c1.41,0.84,2.96,1.26,4.7,1.26c0.95,0,1.85-0.12,2.73-0.37
		c0.87-0.25,1.67-0.62,2.39-1.11c0.73-0.5,1.33-1.11,1.84-1.84c0.52-0.73,0.87-1.57,1.07-2.52h3.45c-0.27,1.41-0.74,2.65-1.42,3.76
		s-1.54,2.04-2.56,2.83c-1.02,0.77-2.16,1.35-3.44,1.76c-1.26,0.4-2.62,0.61-4.06,0.61c-2.43,0-4.59-0.58-6.49-1.72
		s-3.39-2.77-4.47-4.87c-1.08-2.1-1.63-4.61-1.63-7.5s0.55-5.39,1.63-7.5c1.08-2.1,2.58-3.73,4.47-4.87
		c1.9-1.14,4.06-1.72,6.49-1.72c1.44,0,2.79,0.21,4.06,0.61s2.41,0.99,3.44,1.76c1.02,0.77,1.88,1.7,2.56,2.81
		C685.18,863.59,685.65,864.85,685.91,866.26z"/>
	<path d="M715.56,871.41c0,2.89-0.55,5.39-1.63,7.5c-1.08,2.1-2.58,3.73-4.47,4.87c-1.9,1.14-4.06,1.72-6.49,1.72
		s-4.59-0.58-6.49-1.72c-1.9-1.14-3.39-2.77-4.47-4.87c-1.08-2.1-1.63-4.61-1.63-7.5s0.55-5.39,1.63-7.5
		c1.08-2.1,2.58-3.73,4.47-4.87c1.9-1.14,4.06-1.72,6.49-1.72s4.59,0.58,6.49,1.72c1.9,1.14,3.39,2.77,4.47,4.87
		C715.03,866.01,715.56,868.51,715.56,871.41z M712.23,871.41c0-2.37-0.41-4.39-1.24-6.01c-0.81-1.63-1.93-2.87-3.33-3.7
		c-1.39-0.84-2.95-1.26-4.68-1.26s-3.29,0.41-4.7,1.26c-1.39,0.84-2.5,2.07-3.33,3.7c-0.81,1.63-1.23,3.64-1.23,6.01
		s0.41,4.39,1.23,6.01c0.83,1.63,1.94,2.87,3.33,3.7c1.41,0.84,2.96,1.26,4.7,1.26c1.73,0,3.29-0.41,4.68-1.26
		c1.41-0.84,2.52-2.07,3.33-3.7C711.82,875.79,712.23,873.79,712.23,871.41z"/>
	<path d="M721.21,885.13h-3.63l10.47-27.44h3.57l10.47,27.44h-3.63l-8.53-23.1h-0.22L721.21,885.13z M722.54,874.41h14.61v2.95
		h-14.61V874.41z"/>
	<path d="M768.17,866.26h-3.45c-0.21-0.96-0.56-1.79-1.08-2.52c-0.5-0.73-1.11-1.33-1.84-1.82c-0.71-0.5-1.51-0.87-2.39-1.13
		c-0.87-0.25-1.78-0.37-2.73-0.37c-1.73,0-3.29,0.41-4.7,1.26c-1.39,0.84-2.5,2.07-3.33,3.7c-0.81,1.63-1.23,3.64-1.23,6.01
		s0.4,4.39,1.23,6.01c0.83,1.63,1.94,2.87,3.33,3.7c1.41,0.84,2.96,1.26,4.7,1.26c0.95,0,1.85-0.12,2.73-0.37
		c0.87-0.25,1.67-0.62,2.39-1.11c0.73-0.5,1.33-1.11,1.84-1.84c0.52-0.73,0.87-1.57,1.08-2.52h3.45c-0.27,1.41-0.74,2.65-1.42,3.76
		s-1.54,2.04-2.56,2.83c-1.02,0.77-2.16,1.35-3.44,1.76c-1.26,0.4-2.61,0.61-4.06,0.61c-2.43,0-4.59-0.58-6.49-1.72
		c-1.9-1.14-3.39-2.77-4.47-4.87c-1.08-2.1-1.63-4.61-1.63-7.5s0.55-5.39,1.63-7.5c1.08-2.1,2.58-3.73,4.47-4.87
		c1.9-1.14,4.06-1.72,6.49-1.72c1.44,0,2.79,0.21,4.06,0.61s2.41,0.99,3.44,1.76c1.02,0.77,1.88,1.7,2.56,2.81
		C767.45,863.59,767.92,864.85,768.17,866.26z"/>
	<path d="M773.76,885.13V857.7h3.45v12.22h15.23V857.7h3.45v27.44h-3.45v-12.28h-15.21v12.28h-3.47V885.13z"/>
</g>
</svg>
