<?xml version="1.0" encoding="utf-8"?>
<!-- Generator: Adobe Illustrator 24.0.1, SVG Export Plug-In . SVG Version: 6.00 Build 0)  -->
<svg version="1.1" id="Layer_1" xmlns="http://www.w3.org/2000/svg" xmlns:xlink="http://www.w3.org/1999/xlink" x="0px" y="0px"
	 viewBox="0 0 1080 1080" style="enable-background:new 0 0 1080 1080;" xml:space="preserve">
<style type="text/css">
	.st0{fill:#EDDC92;}
	.st1{fill:#FFFFFF;}
	.st2{fill:#040302;}
	.st3{fill:#BB7927;}
	.st4{fill:#FFBD11;}
	.st5{fill:#EEDC92;}
</style>
<g>
	<path d="M508.16,672.61v-31.72H215.82v31.72c0,17.93,14.85,32.39,32.71,32.39h226.91C493.32,704.99,508.16,690.53,508.16,672.61z
		 M365.23,698c-6.54,0-12.8-2.6-17.42-7.24c-4.63-4.64-7.22-10.93-7.22-17.49s2.6-12.85,7.22-17.49s10.89-7.24,17.44-7.24
		c6.54,0,12.8,2.6,17.42,7.24c4.62,4.64,7.22,10.93,7.22,17.49c-0.01,6.56-2.6,12.85-7.22,17.48
		C378.03,695.38,371.77,697.98,365.23,698z"/>
	<path class="st0" d="M215.26,277.06h293.47v353.86H215.26V277.06z"/>
	<path d="M508.16,235.39c0-17.93-14.85-32.39-32.71-32.39H248.53c-17.87,0-32.71,14.47-32.71,32.39v32.8h292.33L508.16,235.39z
		 M383.4,242.12h-42.79c-3.59,0-6.49-2.91-6.49-6.52c0-3.61,2.91-6.52,6.49-6.52h42.79c3.59,0,6.49,2.91,6.49,6.52
		C389.89,239.19,386.98,242.12,383.4,242.12z"/>
</g>
<rect x="435" y="504" class="st1" width="123" height="215"/>
<g>
	<path class="st2" d="M891,844.91c0,8.29,0,16.59,0,24.88c-4.24,6.74-10.57,7.87-18.06,7.87c-172.66-0.14-345.33-0.11-517.99-0.11
		c-1.8,0-3.61,0.06-5.41-0.04c-7.48-0.42-12.02-4.79-12.33-12.32c-0.25-5.94-0.35-11.92,0.09-17.83
		c0.61-8.29,4.91-15.28,12.98-16.63c7.78-1.3,7.83-5.31,7.35-10.9c-0.08-0.89-0.02-1.8,0-2.7c0.26-11.75,7.89-19.64,19.57-20
		c6.3-0.19,12.62-0.19,18.92,0c2.97,0.09,4.23-0.65,4.04-3.86c-0.26-4.31-0.14-8.65-0.04-12.97c0.15-6.15,2.11-12.35,8.06-14.11
		c7.29-2.15,7.33-6.63,6.87-12.29c-0.19-2.33,0.11-4.69-0.06-7.02c-0.42-5.92,2.11-9.63,7.89-11.08c7.16,2.26,8.36,3.92,8.39,11.67
		c0.02,4.32,0.14,8.65-0.05,12.97c-0.11,2.61,0.8,3.44,3.38,3.34c4.68-0.18,9.37-0.05,14.05-0.05c8.58,0,8.58,0,8.58-8.31
		c0-48.63,0-97.27,0-145.9c0-2.7-0.12-5.41,0.03-8.1c0.13-2.36-0.74-3.14-3.1-3.08c-5.4,0.14-10.84,0.39-16.2-0.06
		c-5.18-0.43-6.92,0.79-6.86,6.53c0.34,32.78,0.17,65.56,0.16,98.35c0,7.32-1.63,9.43-8.3,11.08c-6.5-1.94-7.93-3.83-7.94-10.88
		c-0.02-33.51-0.03-67.03,0.03-100.54c0-2.69-0.16-4.3-3.45-5.22c-7.5-2.09-11.21-7.57-11.48-15.74c-0.15-4.5-0.16-9.01,0.02-13.51
		c0.1-2.66-0.91-3.39-3.45-3.34c-6.48,0.13-12.98,0.19-19.46-0.06c-8.24-0.32-14.14-6-14.98-14.19c-0.24-2.32-0.12-4.68-0.12-7.02
		c-0.01-10.15,0-10.15-9.99-10.62c-9.43-0.44-14.04-5.09-14.32-14.56c-0.1-3.42,0.11-6.85-0.04-10.27
		c-0.32-6.95,2.88-11.5,8.98-14.6c11.69-5.94,23.27-12.11,34.88-18.2c75.09-39.39,150.22-78.72,225.23-118.26
		c7.99-4.21,15.05-4.32,22.84,0.23c10.54,6.16,21.38,11.83,32.21,17.49c5.19,2.72,7.59,6.41,5.86,12.26
		c-5.02,5.11-7.31,5.5-13.69,2.07c-10.9-5.86-21.76-11.79-32.65-17.68c-1.69-0.91-3.16-2.03-5.42-0.79
		c-12.89,7.03-25.88,13.88-38.84,20.79c-1.31,0.57-2.65,1.07-3.91,1.73c-71.52,37.52-142.99,75.11-214.61,112.44
		c-4.4,2.29-5.27,5.17-4.33,8.99c0.94,3.84,4.54,1.92,6.82,1.92c146.5,0.13,293,0.14,439.5,0.15c1.97,0,3.95-0.17,5.92-0.26
		c21.44,0.1,42.88,0.2,64.32,0.29c1.48,0.01,3.21,0,3.05-2.05c-0.19-2.52,1.39-5.5-1.54-7.42c-1.2-0.79-2.51-1.41-3.78-2.09
		c-58.27-31.5-116.55-62.99-174.82-94.5c-7.76-4.19-8.79-6.2-7.15-13.48c3.61-4.02,7.73-4.78,12.54-2.17
		c61.12,33.08,122.24,66.14,183.38,99.19c4.22,2.28,7,5.53,7.68,10.37c-0.51,5.39-0.41,10.79-0.05,16.19
		c-1.34,7.97-5.2,11.57-13.29,12.19c-2.51,0.19-5.06,0.2-7.57,0c-2.57-0.2-3.48,0.64-3.36,3.29c0.19,4.5,0.22,9.02-0.02,13.51
		c-0.48,8.77-6.51,14.75-15.25,15.08c-6.12,0.23-12.26,0.25-18.38,0.02c-3.21-0.12-4.57,0.64-4.33,4.13
		c0.3,4.31,0.2,8.65,0.04,12.97c-0.31,8.08-4.09,13.47-11.69,15.6c-3.09,0.87-3.24,2.29-3.23,4.83
		c0.06,52.46,0.05,104.91,0.02,157.37c0,2.25,0.03,3.63,2.99,4.47c7.9,2.23,11.65,7.66,11.93,15.98c0.12,3.6,0.4,7.26-0.06,10.8
		c-0.69,5.25,1.57,6.36,6.27,6.01c5.2-0.38,10.45-0.17,15.68-0.07c12.75,0.25,20.43,7.98,20.61,20.63c0.04,2.88,0.07,5.77-0.02,8.65
		c-0.05,1.65,0.27,2.84,2.19,2.98C882.58,830.09,887.93,836.16,891,844.91z M799.05,533.39c-2.34-0.09-4.67-0.25-7.01-0.25
		c-135.02-0.01-270.03-0.01-405.05-0.01c-8.63,0-8.33,0.01-8.75,8.89c-0.25,5.19,0.83,6.9,6.58,6.89
		c136.1-0.2,272.2-0.15,408.3-0.16c1.98,0,3.95-0.15,5.93-0.24c15.83,0.08,31.67,0.16,47.5,0.24c1.69,0.01,3.29,0.04,3.24-2.4
		c-0.07-3.6-0.07-7.2,0-10.8c0.05-2.43-1.55-2.43-3.24-2.42C830.72,533.22,814.88,533.3,799.05,533.39z M804.47,828.79
		c13.27,0.11,26.53,0.25,39.8,0.31c10.96,0.05,10.88,0.02,10.04-11.21c-0.24-3.13-1.56-4.57-4.66-4.54
		c-15.06,0.1-30.13,0.17-45.19,0.26c-1.79-0.09-3.59-0.25-5.38-0.25c-139.11-0.01-278.22-0.01-417.33-0.01c-1.26,0-2.52,0-3.78,0.03
		c-2.6,0.06-4,1.37-4.05,4c-0.03,1.8,0.22,3.64-0.07,5.4c-0.85,5.17,1.05,6.48,6.32,6.48c139.47-0.16,278.94-0.13,418.41-0.14
		C800.53,829.11,802.5,828.9,804.47,828.79z M825.01,861.14c13.14,0.09,26.29,0.21,39.43,0.26c11.52,0.04,11.44,0.02,10.45-11.46
		c-0.27-3.16-1.82-4.7-4.74-4.67c-15.11,0.17-30.23-0.66-45.33,0.43c-4.14-0.06-8.27-0.17-12.41-0.17
		c-150.49-0.01-300.97-0.01-451.46,0c-7.55,0-6.98,0.09-7.75,9.81c-0.55,6.86,3.14,6,7.39,6c152.65-0.04,305.3-0.03,457.95-0.04
		C820.69,861.29,822.85,861.2,825.01,861.14z M473.48,681.09c0,26.11,0.05,52.23-0.07,78.34c-0.01,2.9,0.57,4.23,3.62,5.13
		c7.25,2.13,11.02,7.49,11.33,15.29c0.18,4.5,0.16,9.01,0,13.5c-0.1,2.68,0.55,3.89,3.55,3.77c5.94-0.22,11.89-0.26,17.83,0.01
		c3.34,0.15,3.87-1.28,3.74-4.11c-0.19-4.31-0.11-8.64-0.03-12.96c0.15-7.96,3.87-13.33,11.53-15.62c2.91-0.87,3.36-2.15,3.36-4.82
		c-0.08-52.41-0.08-104.82,0.01-157.23c0-2.76-0.63-3.9-3.45-4.75c-7.61-2.29-11.32-7.67-11.45-15.68
		c-0.08-4.5-0.13-9.01,0.03-13.51c0.09-2.49-0.56-3.55-3.28-3.47c-6.12,0.18-12.25,0.22-18.37-0.01c-3.12-0.12-3.54,1.3-3.46,3.87
		c0.14,4.5,0.18,9.01-0.01,13.5c-0.33,7.81-4.09,13.15-11.41,15.22c-3.2,0.91-3.53,2.41-3.52,5.18
		C473.52,628.87,473.48,654.98,473.48,681.09z M754.66,681.61c0-26.11-0.07-52.23,0.09-78.34c0.02-3.32-0.54-4.98-4.09-5.89
		c-5.44-1.39-8.74-5.32-10.24-10.79c-0.98-3.56-0.65-7.16-0.67-10.74c-0.05-10.8-0.02-10.87-11.02-10.77
		c-4.46,0.04-10.32-1.93-13.03,0.75c-2.96,2.93-0.65,8.86-0.98,13.47c-0.06,0.9,0.01,1.8-0.01,2.7c-0.18,8-3.86,13.39-11.49,15.66
		c-2.86,0.85-3.43,2.04-3.42,4.77c0.08,52.41,0.08,104.82,0,157.23c0,2.71,0.53,3.94,3.39,4.8c7.65,2.3,11.36,7.67,11.51,15.64
		c0.08,4.14,0.3,8.31-0.06,12.42c-0.36,4,1.24,4.84,4.88,4.64c5.21-0.3,10.46-0.35,15.66,0.01c4.01,0.28,4.87-1.31,4.63-4.91
		c-0.28-4.12-0.2-8.29-0.02-12.42c0.33-7.79,4.1-13.15,11.36-15.27c3.09-0.9,3.61-2.28,3.6-5.15
		C754.62,733.48,754.66,707.54,754.66,681.61z M641.32,681.58c0-26.31-0.05-52.62,0.07-78.93c0.01-2.97-0.69-4.25-3.68-5.15
		c-6.92-2.09-10.66-7.09-10.94-14.38c-0.18-4.86-0.17-9.73-0.07-14.59c0.05-2.46-0.62-3.59-3.33-3.52
		c-6.12,0.16-12.26,0.19-18.38-0.01c-3.01-0.1-3.67,1.15-3.58,3.82c0.15,4.5,0.16,9.01,0,13.51c-0.27,7.92-3.83,13.01-11.27,15.28
		c-2.86,0.87-3.4,2.08-3.4,4.79c0.08,52.44,0.08,104.88,0,157.32c0,2.75,0.62,3.93,3.42,4.79c7.25,2.24,10.87,7.22,11.2,14.76
		c0.2,4.68,0.19,9.37,0.04,14.05c-0.09,2.7,0.62,3.9,3.6,3.8c5.94-0.21,11.9-0.23,17.84,0.01c3.25,0.13,3.96-1.18,3.86-4.09
		c-0.16-4.86-0.14-9.74,0.11-14.59c0.35-6.83,3.96-11.59,10.39-13.65c3.31-1.05,4.22-2.45,4.2-5.91
		C641.23,733.12,641.32,707.35,641.32,681.58z M570.56,681.04c0-25.96-0.07-51.92,0.08-77.87c0.02-3.69-0.81-5.12-4.74-4.88
		c-5.57,0.34-11.19,0.35-16.75,0c-4-0.25-4.83,1.33-4.65,4.93c0.27,5.39,0.07,10.81,0.07,16.22c0,46.33,0.05,92.66-0.09,138.98
		c-0.01,4.07,0.8,5.77,5.25,5.42c5.38-0.42,10.83-0.36,16.21-0.01c3.97,0.26,4.72-1.26,4.7-4.91
		C570.49,732.95,570.56,707,570.56,681.04z M657.59,681.04c0,25.96,0.07,51.92-0.08,77.87c-0.02,3.65,0.74,5.14,4.7,4.9
		c5.75-0.34,11.54-0.3,17.3-0.01c3.5,0.18,4.34-1.14,4.13-4.33c-0.24-3.59-0.05-7.21-0.05-10.81c0-48.31-0.04-96.62,0.08-144.93
		c0.01-3.99-0.67-5.84-5.21-5.47c-5.37,0.44-10.82,0.36-16.21,0.02c-3.93-0.25-4.75,1.2-4.73,4.88
		C657.66,629.13,657.59,655.08,657.59,681.04z M770.92,680.83c0,26.12,0.05,52.24-0.06,78.35c-0.01,3.29,0.49,4.85,4.31,4.63
		c5.92-0.35,11.89-0.25,17.83-0.03c3.04,0.12,3.96-0.77,3.95-3.88c-0.09-52.6-0.1-105.19,0-157.79c0.01-3.23-1.12-3.9-4.04-3.8
		c-5.76,0.2-11.54,0.3-17.29-0.03c-3.78-0.22-4.82,0.89-4.79,4.72C771.01,628.95,770.92,654.89,770.92,680.83z M444.6,779.97
		c-5.22,0-10.44,0-15.67,0c-13.04,0-12.9,0-12.68,13.04c0.06,3.48,1.31,4.17,4.44,4.14c12.96-0.14,25.93-0.06,38.89-0.06
		c13,0,12.85,0,12.68-13.13c-0.05-3.57-1.37-4.12-4.44-4.05C460.08,780.09,452.34,779.97,444.6,779.97z M783.69,797.09
		c5.22,0,10.44,0,15.67,0c12.7,0,12.56,0,12.54-12.72c-0.01-3.59-1.07-4.53-4.58-4.48c-12.96,0.2-25.93,0.08-38.89,0.08
		c-12.98,0-12.88,0-12.52,13.18c0.08,3.05,0.95,4.07,4.02,4C767.84,796.97,775.76,797.09,783.69,797.09z M444.16,582.13
		c5.22,0,10.44,0,15.66,0c12.66,0,12.66,0,12.35-12.72c-0.01-0.54-0.04-1.08,0-1.62c0.14-2.14-0.98-2.78-2.96-2.78
		c-16.56,0.03-33.11,0.04-49.67-0.01c-2.26-0.01-3.63,0.81-3.15,3.12c0.97,4.62-2.43,9.87,1.92,13.9c0.59,0.54,2.09,0.1,3.17,0.1
		C429.04,582.13,436.6,582.13,444.16,582.13z M783.85,582.13c5.22,0,10.44,0,15.66,0c12.48,0,12.27,0,12.41-12.24
		c0.05-4.32-1.55-5-5.34-4.94c-12.77,0.21-25.55,0.08-38.33,0.08c-12.58,0-12.46,0-12.35,12.88c0.03,3.26,0.8,4.4,4.2,4.29
		C768.01,581.96,775.93,582.12,783.85,582.13z M557.03,582.12c5.22,0,10.45,0,15.67,0c12.76,0,12.62,0,12.56-12.58
		c-0.02-3.53-0.97-4.65-4.55-4.59c-12.78,0.2-25.57,0.08-38.36,0.08c-13.22,0-13.12,0-12.74,13.51c0.08,2.82,0.8,3.71,3.65,3.64
		C541.18,582,549.11,582.12,557.03,582.12z M670.36,582.12c5.22,0,10.45,0,15.67,0c12.64,0,12.45,0,12.54-12.56
		c0.03-4.06-1.46-4.66-5-4.61c-12.6,0.19-25.21,0.07-37.82,0.07c-13.43,0-13.34,0-12.85,13.49c0.1,2.81,0.87,3.72,3.69,3.66
		C654.51,582.01,662.44,582.12,670.36,582.12z M557.82,779.98c-5.22,0-10.45,0-15.67,0c-12.87,0-12.72,0-12.56,13.08
		c0.04,3.52,1.28,4.13,4.41,4.09c12.79-0.15,25.58-0.06,38.37-0.06c13.13,0,13.01,0,12.89-12.92c-0.03-3.25-0.79-4.38-4.2-4.27
		C573.32,780.15,565.56,779.98,557.82,779.98z M671.3,779.98c-5.22,0-10.45,0-15.67,0c-13.1,0-12.97,0-12.74,12.94
		c0.06,3.34,1.09,4.28,4.35,4.23c12.79-0.16,25.58-0.07,38.37-0.07c13.72,0,13.63,0,12.93-13.87c-0.13-2.65-0.95-3.33-3.45-3.29
		C687.16,780.06,679.23,779.98,671.3,779.98z"/>
	<path class="st3" d="M891,521.49c-0.35-0.09-0.62-0.28-0.81-0.59c-0.36-5.41-0.46-10.8,0.05-16.2c0.18-0.28,0.43-0.45,0.76-0.52
		C891,509.95,891,515.72,891,521.49z"/>
	<path class="st4" d="M806.54,516.57c-1.97,0.09-3.95,0.26-5.92,0.26c-146.5-0.01-293-0.02-439.5-0.15c-2.28,0-5.89,1.92-6.82-1.92
		c-0.93-3.82-0.07-6.7,4.33-8.99c71.61-37.33,143.09-74.92,214.61-112.44c1.26-0.66,2.61-1.16,3.91-1.73
		c16.1,8.76,32.18,17.55,48.29,26.29c30.81,16.7,61.62,33.4,92.47,50.03c25,13.48,50.13,26.72,75.01,40.41
		C797.53,510.87,802.9,512.37,806.54,516.57z"/>
	<path class="st4" d="M806.54,516.57c-3.65-4.2-9.01-5.7-13.62-8.24c-24.88-13.69-50.01-26.93-75.01-40.41
		c-30.85-16.63-61.66-33.33-92.47-50.03c-16.11-8.73-32.2-17.52-48.29-26.29c12.96-6.91,25.94-13.76,38.84-20.79
		c2.27-1.24,3.74-0.12,5.42,0.79c10.89,5.89,21.75,11.82,32.65,17.68c6.38,3.43,8.67,3.03,13.69-2.07
		c6.29,3.37,12.58,6.74,18.88,10.1c-1.64,7.28-0.61,9.28,7.14,13.48c58.27,31.51,116.55,63,174.82,94.5
		c1.27,0.68,2.58,1.3,3.78,2.09c2.93,1.92,1.35,4.9,1.54,7.42c0.16,2.05-1.58,2.06-3.05,2.05
		C849.42,516.76,827.98,516.66,806.54,516.57z"/>
	<path class="st4" d="M825.01,861.14c-2.16,0.05-4.32,0.15-6.48,0.15c-152.65,0.01-305.3,0-457.95,0.04c-4.25,0-7.94,0.87-7.39-6
		c0.77-9.72,0.2-9.81,7.75-9.81c150.49-0.01,300.97-0.01,451.46,0c4.14,0,8.27,0.11,12.41,0.17
		C824.88,850.84,824.95,855.99,825.01,861.14z"/>
	<path class="st5" d="M804.47,828.79c-1.97,0.11-3.94,0.32-5.91,0.32c-139.47,0.02-278.94-0.02-418.41,0.14
		c-5.26,0.01-7.17-1.3-6.32-6.48c0.29-1.76,0.04-3.6,0.07-5.4c0.05-2.64,1.45-3.95,4.05-4c1.26-0.03,2.52-0.03,3.78-0.03
		c139.11,0,278.22,0,417.33,0.01c1.79,0,3.59,0.16,5.38,0.25C804.46,818.67,804.47,823.73,804.47,828.79z"/>
	<path class="st5" d="M799.05,548.51c-1.98,0.08-3.95,0.24-5.93,0.24c-136.1,0.01-272.2-0.03-408.3,0.16
		c-5.75,0.01-6.83-1.7-6.58-6.89c0.42-8.88,0.11-8.89,8.75-8.89c135.02,0,270.03,0,405.05,0.01c2.34,0,4.67,0.16,7.01,0.25
		C799.05,538.43,799.05,543.47,799.05,548.51z"/>
	<path class="st5" d="M422.87,735.8c0.03-7.19,0.05-14.37,0.08-21.56c6.67-1.65,8.3-3.76,8.3-11.08
		c0.02-32.78,0.18-65.57-0.16-98.35c-0.06-5.74,1.67-6.96,6.86-6.53c5.37,0.45,10.8,0.2,16.2,0.06c2.36-0.06,3.23,0.72,3.1,3.08
		c-0.15,2.69-0.03,5.4-0.03,8.1c0,48.63,0,97.27,0,145.9c0,8.31,0,8.31-8.58,8.31c-4.68,0-9.37-0.13-14.05,0.05
		c-2.58,0.1-3.49-0.73-3.38-3.34c0.18-4.32,0.06-8.64,0.05-12.97C431.23,739.72,430.03,738.06,422.87,735.8z"/>
	<path class="st5" d="M570.56,681.04c0,25.96-0.07,51.92,0.08,77.87c0.02,3.64-0.72,5.16-4.7,4.91c-5.39-0.35-10.84-0.41-16.21,0.01
		c-4.45,0.35-5.26-1.35-5.25-5.42c0.13-46.33,0.09-92.66,0.09-138.98c0-5.41,0.2-10.83-0.07-16.22c-0.18-3.6,0.65-5.18,4.65-4.93
		c5.57,0.35,11.19,0.34,16.75,0c3.92-0.24,4.76,1.19,4.74,4.88C570.49,629.12,570.56,655.08,570.56,681.04z"/>
	<path class="st5" d="M657.59,681.04c0-25.96,0.07-51.92-0.08-77.87c-0.02-3.68,0.8-5.13,4.73-4.88c5.39,0.34,10.84,0.42,16.21-0.02
		c4.54-0.37,5.22,1.48,5.21,5.47c-0.12,48.31-0.08,96.62-0.08,144.93c0,3.61-0.19,7.22,0.05,10.81c0.21,3.19-0.63,4.51-4.13,4.33
		c-5.75-0.3-11.55-0.34-17.3,0.01c-3.96,0.24-4.72-1.25-4.7-4.9C657.66,732.96,657.59,707,657.59,681.04z"/>
	<path class="st5" d="M770.92,680.83c0-25.94,0.08-51.88-0.09-77.81c-0.03-3.83,1.02-4.94,4.79-4.72
		c5.75,0.33,11.53,0.23,17.29,0.03c2.92-0.1,4.05,0.57,4.04,3.8c-0.1,52.6-0.1,105.19,0,157.79c0.01,3.11-0.91,4-3.95,3.88
		c-5.94-0.22-11.9-0.32-17.83,0.03c-3.82,0.23-4.33-1.34-4.31-4.63C770.97,733.07,770.92,706.95,770.92,680.83z"/>
	<path class="st4" d="M444.6,779.97c7.74,0,15.49,0.12,23.23-0.06c3.07-0.07,4.4,0.48,4.44,4.05c0.17,13.13,0.32,13.13-12.68,13.13
		c-12.97,0-25.93-0.08-38.89,0.06c-3.13,0.03-4.38-0.65-4.44-4.14c-0.22-13.04-0.36-13.04,12.68-13.04
		C434.15,779.97,439.37,779.97,444.6,779.97z"/>
	<path class="st4" d="M783.69,797.09c-7.92,0-15.85-0.12-23.77,0.06c-3.07,0.07-3.93-0.95-4.02-4
		c-0.36-13.18-0.46-13.18,12.52-13.18c12.97,0,25.93,0.12,38.89-0.08c3.51-0.05,4.57,0.88,4.58,4.48
		c0.02,12.72,0.16,12.72-12.54,12.72C794.13,797.09,788.91,797.09,783.69,797.09z"/>
	<path class="st4" d="M444.16,582.13c-7.56,0-15.12,0-22.67,0c-1.08,0-2.58,0.44-3.17-0.1c-4.35-4.03-0.95-9.28-1.92-13.9
		c-0.48-2.31,0.89-3.12,3.15-3.12c16.56,0.05,33.11,0.04,49.67,0.01c1.97,0,3.1,0.64,2.96,2.78c-0.04,0.54-0.01,1.08,0,1.62
		c0.31,12.72,0.31,12.72-12.35,12.72C454.59,582.13,449.38,582.13,444.16,582.13z"/>
	<path class="st4" d="M783.85,582.13c-7.92,0-15.84-0.16-23.75,0.08c-3.4,0.1-4.18-1.04-4.2-4.29c-0.1-12.88-0.22-12.88,12.35-12.88
		c12.78,0,25.56,0.13,38.33-0.08c3.79-0.06,5.39,0.62,5.34,4.94c-0.14,12.24,0.07,12.24-12.41,12.24
		C794.29,582.13,789.07,582.13,783.85,582.13z"/>
	<path class="st4" d="M557.03,582.12c-7.92,0-15.85-0.12-23.77,0.06c-2.85,0.06-3.57-0.83-3.65-3.64
		c-0.38-13.51-0.48-13.51,12.74-13.51c12.79,0,25.57,0.12,38.36-0.08c3.58-0.06,4.54,1.06,4.55,4.59
		c0.06,12.58,0.19,12.58-12.56,12.58C567.47,582.12,562.25,582.12,557.03,582.12z"/>
	<path class="st4" d="M670.36,582.12c-7.92,0-15.85-0.11-23.77,0.06c-2.83,0.06-3.59-0.85-3.69-3.66
		c-0.49-13.49-0.58-13.49,12.85-13.49c12.61,0,25.21,0.12,37.82-0.07c3.54-0.05,5.03,0.55,5,4.61c-0.09,12.56,0.1,12.56-12.54,12.56
		C680.81,582.12,675.59,582.12,670.36,582.12z"/>
	<path class="st4" d="M557.82,779.98c7.75,0,15.5,0.17,23.24-0.08c3.41-0.11,4.17,1.02,4.2,4.27c0.12,12.92,0.24,12.92-12.89,12.92
		c-12.79,0-25.58-0.09-38.37,0.06c-3.13,0.04-4.37-0.57-4.41-4.09c-0.16-13.08-0.31-13.08,12.56-13.08
		C547.37,779.98,552.59,779.98,557.82,779.98z"/>
	<path class="st4" d="M671.3,779.98c7.93,0,15.86,0.08,23.78-0.05c2.5-0.04,3.32,0.64,3.45,3.29c0.7,13.87,0.79,13.87-12.93,13.87
		c-12.79,0-25.58-0.1-38.37,0.07c-3.26,0.04-4.29-0.89-4.35-4.23c-0.23-12.94-0.36-12.94,12.74-12.94
		C660.85,779.98,666.08,779.98,671.3,779.98z"/>
	<path class="st4" d="M825.01,861.14c-0.07-5.15-0.13-10.3-0.2-15.45c15.1-1.09,30.22-0.26,45.33-0.43
		c2.92-0.03,4.47,1.51,4.74,4.67c1,11.48,1.08,11.51-10.45,11.46C851.3,861.35,838.16,861.23,825.01,861.14z"/>
	<path class="st5" d="M799.05,548.51c0-5.04,0-10.08,0-15.13c15.83-0.08,31.67-0.17,47.5-0.25c1.69-0.01,3.29-0.02,3.24,2.42
		c-0.07,3.6-0.07,7.2,0,10.8c0.05,2.44-1.56,2.41-3.24,2.4C830.72,548.67,814.88,548.59,799.05,548.51z"/>
	<path class="st5" d="M804.47,828.79c-0.01-5.06-0.01-10.12-0.02-15.18c15.06-0.08,30.13-0.16,45.19-0.26
		c3.1-0.02,4.42,1.41,4.66,4.54c0.85,11.22,0.92,11.26-10.04,11.21C831,829.04,817.74,828.9,804.47,828.79z"/>
</g>
</svg>
