<?xml version="1.0" encoding="utf-8"?>
<!-- Generator: Adobe Illustrator 24.0.1, SVG Export Plug-In . SVG Version: 6.00 Build 0)  -->
<svg version="1.1" id="Layer_1" xmlns="http://www.w3.org/2000/svg" xmlns:xlink="http://www.w3.org/1999/xlink" x="0px" y="0px"
	 viewBox="0 0 1080 1080" style="enable-background:new 0 0 1080 1080;" xml:space="preserve">
<style type="text/css">
	.st0{fill:#EDDC92;}
	.st1{fill:#800000;}
	.st2{fill:#FEC210;}
	.st3{fill:#FFFFFF;}
</style>
<g>
	<path class="st0" d="M468.66,534.29v55.64c39.86-2.3,74.69-23.81,95.47-55.64H468.66z"/>
	<path class="st0" d="M454.62,534.29h-95.47c20.78,31.84,55.6,53.34,95.47,55.64L454.62,534.29L454.62,534.29z"/>
	<path class="st1" d="M340.42,568.37c28.97,35.12,72.52,57.47,121.23,57.47c87.22,0,157.9-71.58,157.9-159.9h9.66
		c0-120.02-54.11-217.68-167.57-217.68c-98.48,0-152.22,73.58-164.71,171.46L340.42,568.37z M306.93,447.27h309.42
		c0,12.76-69.27,23.1-154.71,23.1C376.2,470.35,306.93,460.01,306.93,447.27z M461.65,604.53c-75.46,0-136.87-62.17-136.87-138.58
		h14.03c0,19.44,4.55,37.76,12.43,54.16h220.79c7.88-16.4,12.43-34.73,12.43-54.16h14.03C598.51,542.36,537.11,604.53,461.65,604.53
		z"/>
	<path d="M375.25,732.64l-119.47,35.82l-153.79-464.6c0,0,1.57-34.11,51.34-49.01c49.78-14.93,68.13,13.19,68.13,13.19
		L375.25,732.64z"/>
	<path d="M278.6,785.63l86.8-26.04l-9.8,29.14l15.52,53.09h-57.75l-10.87-37.17L278.6,785.63z"/>
	<path class="st2" d="M373.25,789.09l7.83-23.24l63.66-77.66l-32.75-36.75l99.41-0.01l-32.75,36.75l68.43,83.5l15.2-120.26h35.01
		c0.98,0,1.93,0.07,2.88,0.13c0.24,0.01,0.47,0.03,0.7,0.04c19.82,0.5,58.18,7.02,97.44,44.38c34.46,32.79,61.17,81.5,80.1,145.85
		H659.77c-2.7-6.94-5.44-13.32-8.23-19.17v19.17H388.66L373.25,789.09z"/>
	<path class="st2" d="M271.88,841.82V822.7c-2.8,5.82-5.58,12.18-8.31,19.13h-118.5c17.79-60.37,42.47-107.02,73.83-139.52
		l25.57,87.42l8.75-2.63l34.65,27.6l7.94,27.12L271.88,841.82L271.88,841.82z"/>
</g>
<path class="st3" d="M782.53,844.84H660.47c-13.91,0-25.18-11.27-25.18-25.18V597.03c0-13.9,11.27-25.18,25.18-25.18h122.07
	c13.91,0,25.18,11.27,25.18,25.18v222.63C807.71,833.57,796.44,844.84,782.53,844.84z"/>
<g>
	<path d="M891.84,814.88V788.5H648.73v26.38c0,14.91,12.35,26.95,27.2,26.95h188.7C879.5,841.82,891.84,829.79,891.84,814.88z
		 M772.98,836c-5.44,0-10.65-2.16-14.49-6.02c-3.85-3.86-6-9.1-6-14.55c0-5.45,2.16-10.69,6-14.55s9.06-6.02,14.5-6.02
		c5.44,0,10.65,2.16,14.49,6.02s6,9.1,6,14.55c-0.01,5.45-2.16,10.69-6.01,14.54C783.62,833.82,778.42,835.99,772.98,836z"/>
	<path class="st0" d="M648.27,485.85h244.05V780.2H648.27V485.85z"/>
	<path d="M891.84,451.18c0-14.91-12.35-26.95-27.2-26.95h-188.7c-14.86,0-27.2,12.04-27.2,26.95v27.29h243.11L891.84,451.18z
		 M788.09,456.78H752.5c-2.98,0-5.4-2.42-5.4-5.42c0-3,2.42-5.42,5.4-5.42h35.58c2.98,0,5.4,2.42,5.4,5.42
		C793.49,454.34,791.07,456.78,788.09,456.78z"/>
</g>
<g>
	<path class="st1" d="M799.69,450.42c0-4.94,0-9.88,0-14.82c0.49-0.13,0.34-0.54,0.37-0.86c2.13-21.07,10.21-39.55,25.22-54.49
		c24.77-24.68,54.62-33.23,88.38-24.22c46.89,12.5,74.86,59.46,64.49,106.5c-8.24,37.39-39.55,65.68-77.6,70.19
		c-1.4,0.17-2.89-0.08-4.21,0.62c-4.47,0-8.94,0-13.4,0c-0.1-0.38-0.42-0.33-0.7-0.35c-3.92-0.31-7.8-0.93-11.65-1.77
		c-36.57-8.03-64.61-38.21-69.94-75.21C800.37,454.14,800.47,452.2,799.69,450.42z M890.06,366.72
		c-42.02-0.11-76.3,34.13-76.35,76.26c-0.05,42,33.95,76.09,76.11,76.33c41.91,0.23,76.27-34.01,76.44-76.17
		C966.42,401.15,932.2,366.83,890.06,366.72z"/>
	<path class="st0" d="M890.06,366.72c42.13,0.11,76.36,34.44,76.2,76.41c-0.17,42.17-34.52,76.4-76.44,76.17
		c-42.16-0.23-76.15-34.33-76.11-76.33C813.76,400.85,848.04,366.61,890.06,366.72z M882.96,422.42c0,6.76,0.02,13.52-0.01,20.28
		c-0.01,2.92,1.05,5.22,3.44,6.94c2.62,1.89,5.18,3.86,7.76,5.8c6.44,4.83,12.85,9.68,19.31,14.47c3.44,2.55,7.58,2.05,10.02-1.09
		c2.46-3.17,1.82-7.45-1.65-10.08c-7.77-5.89-15.56-11.74-23.39-17.54c-1.05-0.78-1.48-1.54-1.47-2.87
		c0.06-11.99,0.03-23.98,0.04-35.97c0-2.77-0.87-5.1-3.28-6.62c-2.26-1.43-4.66-1.53-7.02-0.28c-2.58,1.37-3.74,3.66-3.75,6.52
		C882.94,408.79,882.96,415.6,882.96,422.42z"/>
	<path class="st1" d="M882.96,422.42c0-6.82-0.02-13.64,0.01-20.45c0.01-2.86,1.17-5.15,3.75-6.52c2.36-1.25,4.76-1.15,7.02,0.28
		c2.41,1.53,3.28,3.85,3.28,6.62c-0.01,11.99,0.02,23.98-0.04,35.97c-0.01,1.33,0.42,2.09,1.47,2.87
		c7.83,5.8,15.63,11.65,23.39,17.54c3.46,2.63,4.11,6.91,1.65,10.08c-2.44,3.14-6.59,3.64-10.02,1.09
		c-6.46-4.79-12.88-9.64-19.31-14.47c-2.58-1.94-5.14-3.91-7.76-5.8c-2.39-1.72-3.45-4.02-3.44-6.94
		C882.98,435.94,882.96,429.18,882.96,422.42z"/>
</g>
</svg>
