<?xml version="1.0" encoding="utf-8"?>
<!-- Generator: Adobe Illustrator 24.0.1, SVG Export Plug-In . SVG Version: 6.00 Build 0)  -->
<svg version="1.1" id="Layer_1" xmlns="http://www.w3.org/2000/svg" xmlns:xlink="http://www.w3.org/1999/xlink" x="0px" y="0px"
	 viewBox="0 0 1080 1080" style="enable-background:new 0 0 1080 1080;" xml:space="preserve">
<style type="text/css">
	.st0{fill:#EDDC92;}
	.st1{display:none;fill:#FFFFFF;}
	.st2{fill:#FFFFFF;}
	.st3{fill:#800000;}
	.st4{fill:#FFBD11;}
	.st5{fill:#020202;}
	.st6{fill:#24C09B;}
</style>
<g>
	<path d="M787.72,910.49v-53.75H292.28v53.75c0,30.38,25.17,54.9,55.44,54.9h384.57C762.57,965.38,787.72,940.87,787.72,910.49z
		 M545.5,953.52c-11.08,0-21.7-4.41-29.53-12.27c-7.84-7.86-12.23-18.53-12.23-29.64s4.4-21.78,12.23-29.64
		c7.83-7.86,18.46-12.27,29.55-12.27c11.08,0,21.7,4.41,29.53,12.27c7.83,7.86,12.23,18.53,12.23,29.64
		c-0.02,11.11-4.41,21.77-12.24,29.63C567.19,949.08,556.57,953.5,545.5,953.52z"/>
	<path class="st0" d="M291.32,240.13h497.37v599.71H291.32V240.13z"/>
	<path d="M787.72,169.51c0-30.38-25.17-54.9-55.44-54.9H347.72c-30.28,0-55.44,24.52-55.44,54.9v55.59h495.43L787.72,169.51z
		 M576.27,180.91h-72.52c-6.08,0-11-4.94-11-11.05c0-6.11,4.93-11.05,11-11.05h72.52c6.08,0,11,4.94,11,11.05
		C587.27,175.95,582.34,180.91,576.27,180.91z"/>
</g>
<g>
	<path class="st1" d="M649.08,305.68c-0.87,7.37,2.22,15.05-1.8,22.16c-25.43-15.77-48.45-9.97-63.22,16.05
		c-0.94,1.66-1.55,2.99-3.7,2.47c0-50.22,0-100.45,0-150.67c16.6-0.09,33.21,0.1,49.79-0.43c6.24-0.2,5.24,3.38,5.24,7.01
		c-0.01,29.49,0,58.98,0,88.47C635.39,304.98,635.39,304.98,649.08,305.68z"/>
</g>
<g>
	<path class="st2" d="M352.16,664.52c-0.63-2.69,0.67-5.2,0.66-7.85c-0.04-69.43-0.04-138.86-0.05-208.3
		c88.27-0.02,176.54-0.04,264.82-0.04c28.54,0,57.08,0.03,85.62,0.04c-0.01,58.86-0.01,117.71-0.02,176.57
		c-15.02,0.01-30.04,0-45.05,0.05c-7.62,0.02-12.58,4.98-12.6,12.57c-0.03,15.02,0.01,30.04,0.01,45.05
		c-1.26,1.29-2.87,0.72-4.31,0.73c-16.04,0.04-32.08,0.02-48.12,0.02c-71.36,0-142.72,0.02-214.08-0.02
		c-12.28-0.01-22.36-6.18-25.52-17.79C353.31,664.82,352.84,664.58,352.16,664.52z M574.25,644.58c8.73,0.42,10.52-1.26,10.52-9.87
		c0-7.42-0.01-14.84,0-22.26c0.01-3.33-1.18-6.07-4.54-6.98c-1.87-0.51-3.99-0.11-6-0.12c-8.57-0.03-17.14-0.11-25.71-0.07
		c-4.76,0.02-6.91,2.19-6.94,6.96c-0.05,8.45-0.05,16.89,0,25.34c0.03,4.69,2.27,6.99,6.94,7.03
		C557.11,644.67,565.68,644.6,574.25,644.58z M573.51,577.86c0.75,0.04,1.5,0.11,2.25,0.12c7.02,0.07,9-1.86,9.01-8.79
		c0.01-7.8,0-15.6,0-23.39c0-2.82-0.86-5.18-3.5-6.59c-2.25-1.2-4.67-0.53-7.02-0.55c-8.7-0.03-17.4-0.14-26.1-0.07
		c-4.27,0.04-6.5,2.34-6.54,6.62c-0.07,8.7-0.08,17.41,0,26.11c0.04,4.27,2.3,6.57,6.56,6.61
		C556.61,577.99,565.06,577.89,573.51,577.86z M574.25,471.92c-8.57-0.02-17.14-0.09-25.72-0.03c-4.43,0.04-6.86,2.22-6.91,6.29
		c-0.11,8.95-0.1,17.9,0,26.86c0.04,3.86,2.3,6.15,6.15,6.18c8.82,0.08,17.65-0.02,26.47-0.04c8.84,0.45,10.53-1.11,10.53-9.75
		c0-7.42-0.01-14.84,0.01-22.26c0.01-3.01-1.01-5.42-3.85-6.77C578.78,471.37,576.49,471.88,574.25,471.92z M433.21,511.17
		c1.38,0.05,2.77,0.14,4.15,0.12c4.85-0.07,7.11-2.29,7.14-7.2c0.05-8.32,0.06-16.65,0-24.97c-0.04-4.95-2.49-7.27-7.53-7.3
		c-1.01-0.01-2.01,0.07-3.02,0.11c-8.57-0.02-17.13-0.1-25.69-0.03c-4.53,0.04-6.88,2.34-6.92,6.69
		c-0.07,8.69-0.07,17.39,0.01,26.08c0.04,4.28,2.28,6.56,6.54,6.58C416.34,511.3,424.78,511.2,433.21,511.17z M433.96,644.58
		c1.26,0.04,2.52,0.14,3.77,0.1c4.09-0.12,6.69-2.48,6.75-6.54c0.12-8.82,0.11-17.65,0-26.47c-0.05-4.02-2.43-6.28-6.37-6.41
		c-1.63-0.06-3.27,0.07-4.91,0.11c-8.31-0.04-16.62-0.12-24.93-0.08c-4.73,0.02-6.91,2.22-6.94,6.96c-0.05,8.44-0.05,16.88,0,25.32
		c0.03,4.66,2.28,7.01,6.94,7.04C416.84,644.67,425.4,644.6,433.96,644.58z M433.96,538.65c-8.69-0.03-17.38-0.14-26.07-0.07
		c-4.23,0.04-6.5,2.38-6.53,6.63c-0.07,8.69-0.08,17.39,0,26.09c0.04,4.25,2.32,6.59,6.55,6.62c8.44,0.07,16.88-0.04,25.32-0.07
		c1.38,0.04,2.77,0.13,4.15,0.12c4.61-0.04,7.08-2.31,7.12-6.87c0.08-8.57,0.09-17.15,0-25.72c-0.05-4.57-2.5-6.8-7.14-6.83
		C436.22,538.54,435.09,538.62,433.96,538.65z M503,538.66c-8.32-0.04-16.63-0.15-24.95-0.09c-4.18,0.03-6.59,2.37-6.65,6.61
		c-0.13,8.7-0.13,17.4,0,26.1c0.07,4.27,2.45,6.6,6.63,6.64c8.82,0.07,17.64-0.02,26.46-0.05c8.47,0.37,9.95-1.04,9.95-9.43
		c0-7.54,0.04-15.07-0.01-22.61c-0.04-5.29-2.06-7.26-7.29-7.27C505.75,538.55,504.38,538.62,503,538.66z M644.78,577.87
		c8.44,0.37,9.89-1.04,9.89-9.56c0-7.45,0.02-14.9-0.01-22.35c-0.02-5.49-2-7.4-7.59-7.4c-1.26,0-2.52,0.07-3.78,0.11
		c-8.33-0.04-16.65-0.15-24.98-0.09c-4.2,0.03-6.61,2.37-6.68,6.6c-0.13,8.71-0.12,17.42,0,26.12c0.06,4.24,2.47,6.59,6.65,6.63
		C627.11,578,635.94,577.9,644.78,577.87z M503.73,471.94c-8.44-0.02-16.88-0.1-25.33-0.04c-4.34,0.03-6.88,2.17-6.96,6.3
		c-0.19,8.95-0.18,17.9-0.02,26.84c0.08,4.01,2.55,6.19,6.6,6.21c8.82,0.04,17.64-0.04,26.46-0.07c1.38,0.03,2.76,0.15,4.14,0.07
		c3.45-0.2,5.68-2.24,5.72-5.7c0.12-9.3,0.11-18.6,0-27.9c-0.04-3.58-2.3-5.43-5.72-5.78C507.01,471.7,505.36,471.9,503.73,471.94z
		 M502.99,605.37c-8.19-0.04-16.38-0.12-24.57-0.1c-4.67,0.01-6.98,2.23-7.04,6.95c-0.11,8.44-0.11,16.89,0.01,25.34
		c0.07,4.74,2.37,7.01,7.02,7.04c8.69,0.07,17.39-0.01,26.08-0.02c1.38,0.04,2.78,0.22,4.13,0.07c3.41-0.39,5.68-2.21,5.72-5.79
		c0.11-9.3,0.12-18.59,0-27.88c-0.04-3.46-2.27-5.53-5.71-5.7C506.76,605.19,504.87,605.33,502.99,605.37z M655.47,480.47
		c-0.05-3.39-1.33-5.31-3.77-6.31c-2.63-1.07-5.02-0.42-6.85,1.7c-4.71,5.45-9.42,10.89-13.97,16.47c-1.55,1.9-2.55,1.87-4.09,0.11
		c-1.57-1.81-3.33-3.45-5.1-5.08c-3.08-2.85-6.59-2.99-9.09-0.45c-2.6,2.63-2.46,5.96,0.54,9.04c3.61,3.71,7.3,7.34,11.01,10.96
		c3.85,3.76,7.05,3.67,10.6-0.44c6.27-7.27,12.43-14.63,18.63-21.95C654.56,483.14,655.56,481.7,655.47,480.47z"/>
	<path class="st3" d="M643.09,363.25c11.98,0.03,23.96,0.01,35.94,0.11c13.75,0.11,24.07,9.9,24.32,23.66
		c0.31,16.9,0.09,33.8,0.08,50.69c0,0.49-0.16,0.99-0.25,1.48c-1.64-0.02-3.28-0.05-4.92-0.05c-107.84,0-215.66-0.01-323.5,0
		c-7.32,0-14.65,0.04-21.97,0.05c-0.09-6.18-0.23-12.36-0.26-18.54c-0.04-10.74-0.09-21.48,0.01-32.21
		c0.14-15.12,10.2-25.06,25.32-25.09c11.62-0.03,23.24,0.04,34.87,0.06c0.06,0.21,0.11,0.43,0.16,0.65
		c-0.05,6.66-0.14,13.32-0.11,19.98c0.01,1.7-0.59,3.54,0.69,5.08c1.12,5.09,4.69,7.95,9.13,10.01c2.02,5.65,7.59,8.6,13.1,6.97
		c6-1.78,9.6-7.56,8.23-13.21c-2.08-8.54-9.94-11.41-18.28-6.66c-0.07-7.58-0.13-15.17-0.2-22.75c5.07-0.08,10.15-0.17,15.22-0.25
		c4.05,0,8.1,0,12.16,0.01c18.4,0.05,36.81,0.1,55.21,0.15c0.05,6.91,0.35,13.83,0.07,20.73c-0.31,7.62,3.22,12.35,9.99,15.11
		c0.06,0.5-0.02,1.07,0.2,1.48c2.52,4.67,8.28,6.86,13.25,5.08c5.14-1.83,8.57-7.34,7.75-12.46c-0.89-5.56-5.46-9.37-10.98-9.56
		c-2.96-0.1-5.28,1.33-7.81,2.37c-0.02-7.6-0.04-15.2-0.05-22.79c5.05-0.04,10.11-0.08,15.16-0.12c4.06-0.01,8.12-0.01,12.19-0.01
		c18.4,0.05,36.8,0.1,55.2,0.15c0.07,0.24,0.12,0.48,0.18,0.72c-0.04,6.42-0.14,12.85-0.08,19.27c0.02,1.95-0.67,4.04,0.68,5.86
		c0.97,5.21,4.84,7.77,9.14,9.93c2.31,6.3,7.78,8.83,14.23,6.6c5.48-1.9,8.39-8.18,6.63-14.28c-2.12-7.34-10.13-9.67-17.88-5.19
		c-1.28-7.6-0.39-15.25-0.46-22.87c5.15-0.06,10.3-0.12,15.45-0.18C634.96,363.25,639.03,363.25,643.09,363.25z"/>
	<path class="st2" d="M352.16,664.52c0.68,0.05,1.15,0.3,1.36,1.04c3.16,11.61,13.24,17.78,25.52,17.79
		c71.36,0.04,142.72,0.02,214.08,0.02c16.04,0,32.08,0.02,48.12-0.02c1.45-0.01,3.06,0.56,4.31-0.73c2.66,0.33,4.5-1.06,6.26-2.83
		c9.6-9.66,19.27-19.25,28.87-28.91c7.55-7.59,15.03-15.24,22.54-22.86c0.99,1.07,0.61,2.4,0.61,3.62
		c0.02,13.77,0.12,27.53-0.02,41.3c-0.08,8.4-1.76,16.26-8.74,22.05c-4.23,3.52-8.99,5.79-14.43,5.8
		c-101.8,0.07-203.6,0.07-305.4,0.03c-10.9-0.01-21.37-10.05-22.53-20.81C352.17,674.83,352.15,669.68,352.16,664.52z"/>
	<path class="st4" d="M352.79,439.21c7.32-0.02,14.65-0.05,21.97-0.05c107.84-0.01,215.66,0,323.5,0c1.64,0,3.28,0.04,4.92,0.05
		c1.8,3.05-0.16,6.11,0.02,9.17c-28.54-0.02-57.08-0.05-85.62-0.04c-88.27,0.01-176.54,0.03-264.82,0.04
		C352.95,445.32,350.99,442.26,352.79,439.21z"/>
	<path class="st4" d="M703.22,628.01c-7.51,7.62-15,15.28-22.54,22.86c-9.6,9.66-19.27,19.25-28.87,28.91
		c-1.76,1.77-3.6,3.16-6.26,2.83c-0.01-15.02-0.04-30.04-0.01-45.05c0.02-7.59,4.98-12.54,12.6-12.57
		c15.02-0.05,30.04-0.04,45.05-0.05C703.2,625.97,703.21,626.99,703.22,628.01z"/>
	<path d="M547.82,363.23c-4.06,0.01-8.12,0.01-12.19,0.01c0.01-3.92,0.01-7.84,0.01-11.75c0-5.34-1.33-6.71-6.78-7.05
		c-2.19-0.14-4.28,0.26-6.29,1.08c-1.54,0.63-2.35,1.61-2.28,3.45c0.16,4.79,0.13,9.6,0.18,14.4c0.02,7.6,0.04,15.2,0.05,22.79
		c1.65,2.53,4.35,2.69,6.93,2.95c4.33,0.44,6.98,3.03,6.53,6.6c-0.43,3.39-4.08,6.02-7.84,5.41c-2.71-0.44-5.36-1.25-8.03-1.89
		c-6.77-2.76-10.3-7.49-9.99-15.11c0.28-6.9-0.02-13.82-0.07-20.73c0.04-4.29,0.11-8.58,0.11-12.86
		c0.02-10.3,4.18-15.45,14.32-17.66c6-1.3,11.8-0.68,17.25,2.21c5.33,2.83,8.34,7.08,8.13,13.38
		C547.68,353.39,547.82,358.31,547.82,363.23z"/>
	<path d="M422.6,399.14c-4.44-2.06-8.01-4.92-9.13-10.01c0.01-4.64,0.13-9.28-0.03-13.92c-0.12-3.71,0.71-7.49-0.56-11.14
		c-0.05-0.22-0.1-0.43-0.16-0.65c0.06-4.16,0.16-8.32,0.17-12.48c0.02-10.64,4.32-15.93,14.81-18.14c5.62-1.18,11.1-0.59,16.23,1.93
		c5.78,2.84,9.12,7.35,8.91,14.13c-0.15,4.79-0.02,9.59-0.02,14.39c-4.05,0-8.1,0-12.16-0.01c0-4.54-0.01-9.08,0.01-13.63
		c0.01-1.4,0.04-2.67-1.42-3.61c-3.12-2.03-9.6-2.1-12.7-0.02c-0.91,0.61-1.51,1.31-1.47,2.44c0.19,5.02-0.44,10.06,0.36,15.07
		c0.07,7.58,0.13,15.17,0.2,22.75c1.47,2.56,4.05,2.67,6.53,2.89c4.63,0.42,6.94,2.89,6.38,6.95c-0.5,3.6-3.79,5.72-7.93,4.95
		C427.93,400.53,425.27,399.78,422.6,399.14z"/>
	<path d="M612.92,399.17c-4.3-2.16-8.16-4.71-9.14-9.93c0.01-5.16,0.12-10.32-0.02-15.47c-0.09-3.22,0.71-6.51-0.57-9.66
		c-0.05-0.24-0.11-0.49-0.18-0.72c0.05-4.16,0.14-8.32,0.14-12.48c0.02-10.63,4.32-15.91,14.81-18.11
		c5.62-1.18,11.09-0.59,16.22,1.93c5.8,2.85,9.07,7.4,8.9,14.14c-0.12,4.79-0.01,9.59,0,14.39c-4.07-0.01-8.13-0.01-12.2-0.01
		c0-4.66-0.08-9.31,0.04-13.97c0.05-1.93-0.7-3.08-2.42-3.77c-3.68-1.49-7.33-1.49-10.98,0.09c-1.55,0.68-2.28,1.7-2.23,3.49
		c0.13,4.78,0.11,9.56,0.15,14.33c0.07,7.62-0.82,15.27,0.46,22.87c1.59,2.66,4.31,2.62,6.89,2.85c4.19,0.38,6.4,2.72,6.08,6.53
		c-0.3,3.6-3.27,6.02-7.18,5.46C618.74,400.71,615.84,399.84,612.92,399.17z"/>
	<rect x="604.04" y="464.59" class="st2" width="64.07" height="54.34"/>
	<path class="st4" d="M504.49,644.58c-8.69,0.01-17.39,0.09-26.08,0.02c-4.65-0.04-6.96-2.3-7.02-7.04
		c-0.12-8.44-0.11-16.89-0.01-25.34c0.06-4.72,2.37-6.94,7.04-6.95c8.19-0.02,16.38,0.06,24.57,0.1c2.84,1.76,3.92,4.23,3.82,7.62
		c-0.2,6.68-0.14,13.37-0.03,20.06C506.85,637.09,506.94,641.07,504.49,644.58z"/>
	<path class="st4" d="M504.48,511.18c-8.82,0.03-17.64,0.11-26.46,0.07c-4.05-0.02-6.53-2.2-6.6-6.21
		c-0.17-8.95-0.18-17.9,0.02-26.84c0.09-4.13,2.62-6.27,6.96-6.3c8.44-0.06,16.88,0.02,25.33,0.04c2.94,2.87,3.2,6.45,3.07,10.31
		c-0.2,5.67-0.09,11.35-0.04,17.03C506.8,503.4,507.07,507.56,504.48,511.18z"/>
	<path class="st4" d="M644.78,577.87c-8.83,0.03-17.66,0.12-26.49,0.05c-4.19-0.04-6.59-2.38-6.65-6.63
		c-0.12-8.71-0.13-17.42,0-26.12c0.07-4.23,2.48-6.57,6.68-6.6c8.32-0.06,16.65,0.05,24.98,0.09c2.88,1.74,3.91,4.24,3.81,7.61
		c-0.2,6.68-0.15,13.37-0.02,20.06C647.14,570.38,647.2,574.35,644.78,577.87z"/>
	<path class="st4" d="M504.48,577.87c-8.82,0.02-17.64,0.12-26.46,0.05c-4.18-0.04-6.56-2.37-6.63-6.64c-0.13-8.7-0.13-17.4,0-26.1
		c0.07-4.24,2.47-6.59,6.65-6.61c8.32-0.07,16.63,0.05,24.95,0.09c2.88,1.73,3.91,4.24,3.81,7.61c-0.19,6.68-0.14,13.37-0.02,20.06
		C506.86,570.38,506.92,574.36,504.48,577.87z"/>
	<path class="st4" d="M433.22,577.86c-8.44,0.03-16.88,0.13-25.32,0.07c-4.23-0.04-6.51-2.37-6.55-6.62
		c-0.08-8.69-0.07-17.39,0-26.09c0.04-4.25,2.3-6.6,6.53-6.63c8.69-0.07,17.38,0.04,26.07,0.07c2.94,3.8,3.23,8.19,3.07,12.79
		c-0.18,5.29-0.22,10.59,0.01,15.88C437.22,571.45,436.35,575.01,433.22,577.86z"/>
	<path class="st4" d="M433.96,644.58c-8.56,0.01-17.13,0.08-25.69,0.01c-4.65-0.04-6.91-2.38-6.94-7.04
		c-0.05-8.44-0.05-16.88,0-25.32c0.03-4.75,2.21-6.94,6.94-6.96c8.31-0.04,16.62,0.05,24.93,0.08c3.33,2.91,4.09,6.61,3.83,10.89
		c-0.28,4.78-0.11,9.59-0.05,14.39C437.05,635.52,437.46,640.47,433.96,644.58z"/>
	<path class="st4" d="M643.39,511.17c-8.44,0.04-16.88,0.13-25.31,0.07c-4.27-0.03-6.51-2.3-6.54-6.58
		c-0.08-8.69-0.08-17.39-0.01-26.08c0.04-4.35,2.39-6.64,6.92-6.69c8.56-0.07,17.13,0.01,25.69,0.03c2.95,3.81,3.23,8.2,3.06,12.8
		c-0.18,5.17-0.22,10.35,0.01,15.51C647.42,504.49,646.64,508.21,643.39,511.17z"/>
	<path class="st4" d="M574.24,511.18c-8.82,0.02-17.65,0.12-26.47,0.04c-3.85-0.04-6.11-2.33-6.15-6.18c-0.09-8.95-0.1-17.9,0-26.86
		c0.05-4.07,2.48-6.25,6.91-6.29c8.57-0.07,17.14,0.01,25.72,0.03c2.27,2.93,2.41,6.31,2.31,9.85c-0.15,6.02-0.11,12.04-0.02,18.05
		C576.6,503.8,576.88,507.77,574.24,511.18z"/>
	<path class="st4" d="M573.51,577.86c-8.45,0.03-16.9,0.13-25.34,0.07c-4.25-0.04-6.52-2.34-6.56-6.61c-0.08-8.7-0.07-17.41,0-26.11
		c0.04-4.28,2.27-6.59,6.54-6.62c8.7-0.07,17.4,0.04,26.1,0.07c2.46,3.06,2.37,6.64,2.31,10.3c-0.12,6.82-0.2,13.65,0.04,20.47
		C576.71,572.79,576.14,575.63,573.51,577.86z"/>
	<path class="st4" d="M574.25,644.58c-8.57,0.01-17.14,0.08-25.71,0.02c-4.68-0.04-6.91-2.34-6.94-7.03
		c-0.05-8.45-0.05-16.89,0-25.34c0.03-4.77,2.18-6.94,6.94-6.96c8.57-0.04,17.14,0.04,25.71,0.07c2.28,3.07,2.41,6.57,2.31,10.22
		c-0.15,6.01-0.09,12.03-0.02,18.05C576.59,637.46,576.87,641.31,574.25,644.58z"/>
	<rect x="396.15" y="467.66" class="st2" width="54.97" height="47.4"/>
	<path class="st3" d="M444.95,480.47c0.08,1.23-0.92,2.67-2.08,4.04c-6.21,7.32-12.36,14.68-18.63,21.95
		c-3.55,4.11-6.75,4.2-10.6,0.44c-3.71-3.61-7.4-7.25-11.01-10.96c-3-3.08-3.14-6.4-0.54-9.04c2.51-2.54,6.01-2.4,9.09,0.45
		c1.76,1.63,3.53,3.27,5.1,5.08c1.54,1.77,2.54,1.8,4.09-0.11c4.54-5.58,9.25-11.03,13.97-16.47c1.83-2.12,4.22-2.77,6.85-1.7
		C443.62,475.16,444.89,477.09,444.95,480.47z"/>
	<path class="st4" d="M573.51,577.86c2.63-2.23,3.2-5.07,3.08-8.43c-0.23-6.82-0.15-13.64-0.04-20.47c0.07-3.66,0.15-7.24-2.31-10.3
		c2.36,0.02,4.77-0.65,7.02,0.55c2.64,1.41,3.51,3.77,3.5,6.59c-0.01,7.8,0.01,15.6,0,23.39c-0.01,6.93-1.98,8.86-9.01,8.79
		C575.02,577.97,574.26,577.9,573.51,577.86z"/>
	<path class="st4" d="M574.24,511.18c2.64-3.41,2.36-7.38,2.3-11.35c-0.09-6.02-0.14-12.04,0.02-18.05
		c0.09-3.54-0.04-6.92-2.31-9.85c2.24-0.04,4.53-0.56,6.69,0.47c2.83,1.35,3.86,3.76,3.85,6.77c-0.02,7.42-0.01,14.84-0.01,22.26
		C584.77,510.07,583.09,511.64,574.24,511.18z"/>
	<path class="st4" d="M574.25,644.58c2.61-3.27,2.34-7.12,2.29-10.97c-0.07-6.02-0.13-12.04,0.02-18.05
		c0.09-3.65-0.03-7.15-2.31-10.22c2.01,0.01,4.12-0.39,6,0.12c3.36,0.91,4.54,3.65,4.54,6.98c-0.01,7.42,0,14.84,0,22.26
		C584.77,643.32,582.99,645,574.25,644.58z"/>
	<path class="st4" d="M433.22,577.86c3.13-2.85,4-6.4,3.81-10.54c-0.24-5.28-0.2-10.59-0.01-15.88c0.16-4.6-0.12-8.99-3.07-12.79
		c1.13-0.04,2.27-0.11,3.4-0.1c4.65,0.03,7.1,2.27,7.14,6.83c0.09,8.57,0.09,17.15,0,25.72c-0.05,4.56-2.51,6.83-7.12,6.87
		C435.99,577.99,434.61,577.9,433.22,577.86z"/>
	<path class="st4" d="M643.39,511.17c3.24-2.96,4.02-6.68,3.83-10.93c-0.24-5.16-0.2-10.35-0.01-15.51c0.16-4.6-0.11-8.99-3.06-12.8
		c1.01-0.04,2.01-0.11,3.02-0.11c5.04,0.03,7.49,2.35,7.53,7.3c0.06,8.32,0.05,16.65,0,24.97c-0.03,4.91-2.29,7.13-7.14,7.2
		C646.16,511.31,644.78,511.22,643.39,511.17z"/>
	<path class="st4" d="M433.96,644.58c3.49-4.11,3.08-9.06,3.03-13.95c-0.05-4.79-0.23-9.6,0.05-14.39c0.26-4.28-0.5-7.98-3.83-10.89
		c1.64-0.04,3.27-0.17,4.91-0.11c3.94,0.14,6.31,2.39,6.37,6.41c0.11,8.82,0.11,17.65,0,26.47c-0.05,4.06-2.65,6.42-6.75,6.54
		C436.48,644.72,435.22,644.62,433.96,644.58z"/>
	<path class="st4" d="M504.49,644.58c2.45-3.51,2.36-7.5,2.29-11.54c-0.11-6.69-0.17-13.38,0.03-20.06c0.1-3.39-0.98-5.86-3.82-7.62
		c1.88-0.04,3.77-0.18,5.64-0.09c3.45,0.17,5.67,2.23,5.71,5.7c0.12,9.29,0.11,18.59,0,27.88c-0.04,3.58-2.32,5.4-5.72,5.79
		C507.27,644.8,505.87,644.61,504.49,644.58z"/>
	<path class="st4" d="M504.48,511.18c2.59-3.62,2.33-7.78,2.28-11.92c-0.05-5.68-0.16-11.35,0.04-17.03
		c0.14-3.86-0.12-7.44-3.07-10.31c1.63-0.03,3.28-0.23,4.89-0.07c3.42,0.35,5.68,2.21,5.72,5.78c0.11,9.3,0.12,18.6,0,27.9
		c-0.04,3.46-2.28,5.51-5.72,5.7C507.25,511.33,505.86,511.21,504.48,511.18z"/>
	<path class="st4" d="M504.48,577.87c2.44-3.52,2.37-7.49,2.3-11.54c-0.12-6.69-0.17-13.38,0.02-20.06
		c0.09-3.37-0.93-5.88-3.81-7.61c1.38-0.04,2.76-0.12,4.14-0.11c5.23,0.02,7.26,1.99,7.29,7.27c0.05,7.53,0.02,15.07,0.01,22.61
		C514.44,576.84,512.96,578.25,504.48,577.87z"/>
	<path class="st4" d="M644.78,577.87c2.43-3.52,2.37-7.49,2.3-11.54c-0.12-6.69-0.17-13.38,0.02-20.06
		c0.09-3.38-0.94-5.88-3.81-7.61c1.26-0.04,2.52-0.11,3.78-0.11c5.59,0.01,7.56,1.91,7.59,7.4c0.03,7.45,0.01,14.9,0.01,22.35
		C654.66,576.84,653.21,578.24,644.78,577.87z"/>
	<path class="st2" d="M422.6,399.14c2.67,0.64,5.33,1.38,8.02,1.89c4.13,0.78,7.43-1.35,7.93-4.95c0.56-4.06-1.74-6.54-6.38-6.95
		c-2.48-0.23-5.06-0.33-6.53-2.89c8.34-4.75,16.21-1.88,18.28,6.66c1.37,5.65-2.23,11.43-8.23,13.21
		C430.19,407.75,424.63,404.79,422.6,399.14z"/>
	<path class="st2" d="M612.92,399.17c2.92,0.67,5.82,1.54,8.77,1.96c3.91,0.56,6.89-1.86,7.18-5.46c0.31-3.81-1.89-6.15-6.08-6.53
		c-2.58-0.23-5.3-0.19-6.89-2.85c7.75-4.48,15.76-2.15,17.88,5.19c1.76,6.1-1.16,12.38-6.63,14.28
		C620.7,408,615.23,405.46,612.92,399.17z"/>
	<path class="st2" d="M518.11,399.24c2.68,0.64,5.32,1.45,8.03,1.89c3.77,0.61,7.41-2.02,7.84-5.41c0.46-3.57-2.2-6.16-6.53-6.6
		c-2.57-0.26-5.29-0.42-6.93-2.95c2.52-1.04,4.84-2.47,7.81-2.37c5.52,0.18,10.09,4,10.98,9.56c0.82,5.11-2.61,10.63-7.75,12.46
		c-4.98,1.77-10.74-0.42-13.25-5.08C518.08,400.31,518.16,399.74,518.11,399.24z"/>
	<path class="st5" d="M603.19,364.11c1.28,3.15,0.48,6.44,0.57,9.66c0.14,5.16,0.03,10.32,0.02,15.47c-1.35-1.82-0.66-3.9-0.68-5.86
		C603.05,376.96,603.15,370.53,603.19,364.11z"/>
	<path class="st5" d="M412.89,364.07c1.26,3.65,0.43,7.43,0.56,11.14c0.16,4.63,0.03,9.28,0.03,13.92
		c-1.29-1.54-0.69-3.38-0.69-5.08C412.74,377.39,412.84,370.73,412.89,364.07z"/>
</g>
<path class="st4" d="M759.29,668.43c0,42.65-34.14,77.23-76.26,77.23s-76.26-34.58-76.26-77.23c0-42.66,34.14-77.23,76.26-77.23
	C725.15,591.19,759.29,625.77,759.29,668.43z"/>
<path class="st6" d="M682.13,674.66l77.14-59.94c2.4-1.86,5.22-2.57,8.48-2.12c3.25,0.45,5.78,1.9,7.6,4.35
	c1.81,2.45,2.49,5.34,2.04,8.67c-0.45,3.33-1.88,5.93-4.27,7.79l-86.29,67.06c-2.61,2.03-5.45,2.83-8.51,2.41
	c-3.06-0.43-5.58-1.98-7.56-4.65l-25.7-34.72c-1.81-2.45-2.49-5.34-2.04-8.67c0.45-3.33,1.88-5.93,4.27-7.79s5.22-2.57,8.47-2.12
	s5.78,1.9,7.6,4.35L682.13,674.66z"/>
</svg>
