<svg width="162" height="162" viewBox="0 0 162 162" fill="none" xmlns="http://www.w3.org/2000/svg">
<g id="Download the app, register, and complete your profile details 1">
<g id="Group">
<path id="Vector" d="M118.157 136.573V128.511H43.8408V136.573C43.8408 141.13 47.6163 144.808 52.1568 144.808H109.842C114.386 144.807 118.157 141.13 118.157 136.573ZM81.8238 143.028C80.1618 143.028 78.5688 142.366 77.3943 141.187C76.2183 140.008 75.5598 138.408 75.5598 136.741C75.5598 135.075 76.2198 133.474 77.3943 132.295C78.5688 131.116 80.1633 130.455 81.8268 130.455C83.4888 130.455 85.0818 131.116 86.2563 132.295C87.4308 133.474 88.0908 135.075 88.0908 136.741C88.0878 138.408 87.4293 140.007 86.2548 141.186C85.0773 142.362 83.4858 143.025 81.8238 143.028Z" fill="black"/>
<path id="Vector_2" d="M43.6982 36.0195H118.304V125.976H43.6982V36.0195Z" fill="#EDDC92"/>
<path id="Vector_3" d="M118.157 25.4265C118.157 20.8695 114.381 17.1915 109.841 17.1915H52.1568C47.6148 17.1915 43.8408 20.8695 43.8408 25.4265V33.765H118.155L118.157 25.4265ZM86.4408 27.1365H75.5628C74.6508 27.1365 73.9128 26.3955 73.9128 25.479C73.9128 24.5625 74.6523 23.8215 75.5628 23.8215H86.4408C87.3528 23.8215 88.0908 24.5625 88.0908 25.479C88.0908 26.3925 87.3513 27.1365 86.4408 27.1365Z" fill="black"/>
</g>
<path id="Vector_4" d="M134.431 123.595C134.431 136.266 124.29 146.539 111.778 146.539C99.267 146.539 89.1255 136.267 89.1255 123.595C89.1255 110.923 99.267 100.651 111.778 100.651C124.29 100.651 134.431 110.925 134.431 123.595Z" fill="#800000"/>
<path id="Vector_5" d="M111.512 125.446L134.426 107.64C135.137 107.086 135.977 106.878 136.944 107.011C137.91 107.145 138.662 107.577 139.2 108.303C139.739 109.03 139.94 109.888 139.806 110.878C139.673 111.868 139.248 112.639 138.537 113.193L112.904 133.113C112.127 133.716 111.284 133.954 110.375 133.828C109.466 133.702 108.717 133.242 108.129 132.448L100.496 122.133C99.957 121.405 99.756 120.547 99.8895 119.557C100.023 118.567 100.448 117.796 101.159 117.243C101.87 116.689 102.71 116.481 103.676 116.614C104.642 116.748 105.393 117.18 105.932 117.907L111.512 125.446Z" fill="#24C09B"/>
<g id="Group_2">
<path id="Vector_6" d="M63.9181 83.7809C63.1846 83.7809 62.6206 83.5829 62.2291 83.1854C61.8376 82.7879 61.6411 82.2284 61.6411 81.5054C61.6411 80.7239 61.7776 80.0114 62.0491 79.3724C62.3206 78.7304 62.7031 78.2384 63.1981 77.8889C63.6901 77.5394 64.2511 77.3669 64.8841 77.3669C65.5471 77.3669 66.1456 77.4989 66.6781 77.7659L66.1756 79.0334C65.9791 78.9494 65.7871 78.8729 65.5966 78.8114C65.4061 78.7484 65.1901 78.7169 64.9486 78.7169C64.6396 78.7169 64.3591 78.8354 64.1086 79.0709C63.8581 79.3079 63.6631 79.6304 63.5236 80.0429C63.3841 80.4554 63.3136 80.8964 63.3136 81.3689C63.3136 81.7229 63.3976 81.9884 63.5626 82.1699C63.7291 82.3484 63.9601 82.4369 64.2556 82.4369C64.5316 82.4369 64.7911 82.3934 65.0266 82.3079C65.2636 82.2209 65.5096 82.1129 65.7601 81.9839V83.3459C65.2036 83.6339 64.5901 83.7809 63.9181 83.7809Z" fill="#800000"/>
<path id="Vector_7" d="M71.1736 77.364C71.3881 77.364 71.5651 77.3835 71.6986 77.424L71.3386 79.0305C71.1751 78.972 70.9936 78.942 70.7926 78.942C70.3696 78.942 69.9976 79.11 69.6781 79.449C69.3601 79.7865 69.1321 80.271 68.9986 80.9025L68.4181 83.67H66.7681L68.0656 77.481H69.3271L69.2131 78.627H69.2461C69.7771 77.7855 70.4206 77.364 71.1736 77.364Z" fill="#800000"/>
<path id="Vector_8" d="M73.1328 83.6685H71.4858L72.7833 77.4795H74.4303L73.1328 83.6685ZM73.0428 76.032C73.0428 75.711 73.1298 75.468 73.3038 75.3045C73.4763 75.141 73.7223 75.0585 74.0403 75.0585C74.3058 75.0585 74.5083 75.114 74.6463 75.231C74.7873 75.345 74.8563 75.51 74.8563 75.723C74.8563 76.0185 74.7768 76.257 74.6148 76.44C74.4528 76.6215 74.2053 76.7145 73.8693 76.7145C73.3203 76.7115 73.0428 76.485 73.0428 76.032Z" fill="#800000"/>
<path id="Vector_9" d="M77.3791 83.7809C76.6455 83.7809 76.0816 83.5829 75.6901 83.1854C75.2986 82.7909 75.1021 82.2284 75.1021 81.5054C75.1021 80.7239 75.2386 80.0114 75.5101 79.3724C75.7816 78.7304 76.1641 78.2384 76.6591 77.8889C77.1511 77.5394 77.7121 77.3669 78.3451 77.3669C79.0081 77.3669 79.6066 77.4989 80.1391 77.7659L79.6365 79.0334C79.44 78.9494 79.2481 78.8729 79.0576 78.8114C78.8671 78.7484 78.651 78.7169 78.4095 78.7169C78.1005 78.7169 77.8201 78.8354 77.5696 79.0709C77.3191 79.3079 77.124 79.6304 76.9845 80.0429C76.845 80.4554 76.7746 80.8964 76.7746 81.3689C76.7746 81.7229 76.8586 81.9884 77.0236 82.1699C77.1901 82.3484 77.4211 82.4369 77.7166 82.4369C77.9926 82.4369 78.2521 82.3934 78.4876 82.3079C78.7246 82.2209 78.9706 82.1129 79.2211 81.9839V83.3459C78.6631 83.6339 78.0511 83.7809 77.3791 83.7809Z" fill="#800000"/>
<path id="Vector_10" d="M86.0867 79.8165C86.0867 80.5965 85.9577 81.285 85.6997 81.8865C85.4432 82.4895 85.0712 82.956 84.5852 83.286C84.0992 83.616 83.5247 83.781 82.8557 83.781C82.1447 83.781 81.5777 83.565 81.1502 83.1315C80.7242 82.698 80.5127 82.1205 80.5127 81.402C80.5127 80.616 80.6417 79.914 80.9057 79.3005C81.1667 78.6855 81.5432 78.21 82.0352 77.871C82.5302 77.5335 83.1047 77.3655 83.7662 77.3655C84.4802 77.3655 85.0442 77.583 85.4627 78.018C85.8797 78.4515 86.0867 79.053 86.0867 79.8165ZM84.4292 79.8165C84.4292 79.089 84.1682 78.726 83.6447 78.726C83.3732 78.726 83.1272 78.8385 82.9082 79.0635C82.6907 79.2885 82.5152 79.6185 82.3772 80.055C82.2407 80.4915 82.1717 80.9385 82.1717 81.4005C82.1717 82.083 82.4462 82.4235 82.9922 82.4235C83.2667 82.4235 83.5097 82.311 83.7302 82.0845C83.9507 81.858 84.1187 81.543 84.2417 81.1365C84.3692 80.733 84.4292 80.292 84.4292 79.8165Z" fill="#800000"/>
<path id="Vector_11" d="M91.9306 83.6685H90.2836L91.0321 80.0535C91.0906 79.803 91.1206 79.5825 91.1206 79.395C91.1206 78.939 90.9241 78.7155 90.5311 78.7155C90.1936 78.7155 89.8921 78.9255 89.6161 79.3455C89.3446 79.767 89.1256 80.3535 88.9711 81.105L88.4356 83.6685H86.7886L88.0861 77.4795H89.3476L89.2336 78.6255H89.2666C89.8006 77.7855 90.4471 77.364 91.2106 77.364C91.7131 77.364 92.1046 77.517 92.3806 77.826C92.6551 78.135 92.7931 78.5745 92.7931 79.1475C92.7931 79.4175 92.7526 79.7505 92.6686 80.145L91.9306 83.6685Z" fill="#800000"/>
<path id="Vector_12" d="M96.2642 83.781C95.4977 83.781 94.9022 83.571 94.4807 83.1555C94.0547 82.7385 93.8462 82.149 93.8462 81.39C93.8462 80.628 93.9977 79.9305 94.2992 79.3005C94.5992 78.6705 95.0072 78.1905 95.5217 77.8605C96.0362 77.5305 96.6182 77.3655 97.2662 77.3655C97.9142 77.3655 98.4152 77.517 98.7782 77.817C99.1412 78.117 99.3197 78.5295 99.3197 79.0545C99.3197 79.746 99.0152 80.2785 98.4047 80.652C97.7957 81.027 96.9257 81.213 95.7947 81.213H95.5157L95.5022 81.33V81.4425C95.5022 81.777 95.5967 82.0425 95.7857 82.2375C95.9747 82.4325 96.2432 82.5285 96.5927 82.5285C96.9107 82.5285 97.1987 82.4925 97.4567 82.422C97.7162 82.35 98.0312 82.227 98.4002 82.05V83.307C97.7702 83.622 97.0577 83.781 96.2642 83.781ZM97.1612 78.567C96.8402 78.567 96.5357 78.714 96.2522 79.0095C95.9672 79.305 95.7812 79.6635 95.6927 80.0895H95.9387C96.5042 80.0895 96.9467 80.001 97.2617 79.8225C97.5752 79.644 97.7327 79.3995 97.7327 79.095C97.7357 78.741 97.5437 78.567 97.1612 78.567Z" fill="#800000"/>
<path id="Vector_13" d="M102.411 82.434C102.647 82.434 102.942 82.3695 103.296 82.239V83.4855C102.89 83.682 102.404 83.7795 101.841 83.7795C101.295 83.7795 100.893 83.6625 100.634 83.43C100.377 83.1975 100.247 82.839 100.247 82.35C100.247 82.167 100.268 81.9585 100.311 81.7305L100.941 78.747L101.339 77.469L102.062 76.1625H103.122L102.855 77.4795L102.588 78.747L101.96 81.7305C101.936 81.84 101.927 81.9405 101.927 82.0245C101.927 82.2975 102.089 82.434 102.411 82.434Z" fill="#800000"/>
<path id="Vector_14" d="M100.139 78.2835L100.776 78.2595L100.748 79.0125L100.11 79.0365C99.7667 79.05 99.4922 78.8895 99.5012 78.684C99.5057 78.5805 99.5792 78.486 99.6962 78.4125C99.8087 78.3375 99.9662 78.2895 100.139 78.2835Z" fill="#800000"/>
<path id="Vector_15" d="M101.63 78.2235L101.747 78.219L101.718 78.972L101.601 78.9765L101.63 78.2235Z" fill="#800000"/>
<path id="Vector_16" d="M102.599 78.189L102.707 78.1844L102.678 78.9375L102.57 78.942L102.599 78.189Z" fill="#800000"/>
<path id="Vector_17" d="M104.924 78.4739C104.919 78.5774 104.846 78.6719 104.729 78.7454C104.615 78.8189 104.457 78.8669 104.283 78.8729L103.527 78.9029L103.556 78.1499L104.312 78.1199C104.658 78.1064 104.933 78.2669 104.924 78.4739Z" fill="#800000"/>
<path id="Vector_18" d="M103.566 77.9204L103.518 79.1324C103.512 79.2749 103.316 79.3979 103.082 79.4069C102.849 79.4159 102.66 79.3079 102.665 79.1669L102.713 77.9549C102.714 77.8844 102.767 77.8184 102.845 77.7689C102.924 77.7194 103.031 77.6864 103.148 77.6804C103.385 77.6729 103.572 77.7809 103.566 77.9204Z" fill="#800000"/>
<path id="Vector_19" d="M102.608 77.9579L102.56 79.1699C102.554 79.3124 102.359 79.4354 102.126 79.4444C101.894 79.4534 101.705 79.3454 101.709 79.2044L101.757 77.9924C101.759 77.9204 101.811 77.8559 101.889 77.8064C101.967 77.7569 102.075 77.7224 102.192 77.7179C102.426 77.7089 102.612 77.8169 102.608 77.9579Z" fill="#800000"/>
<path id="Vector_20" d="M101.637 77.9969L101.589 79.2089C101.583 79.3499 101.388 79.4744 101.156 79.4834C100.923 79.4924 100.733 79.3844 100.739 79.2434L100.787 78.0314C100.788 77.9594 100.841 77.8949 100.919 77.8454C100.998 77.7959 101.106 77.7629 101.223 77.7569C101.456 77.7464 101.642 77.8544 101.637 77.9969Z" fill="#800000"/>
<path id="Vector_21" d="M70.6682 94.935C76.8602 94.935 82.0877 90.6615 83.7227 84.8445H82.5482C80.9477 89.994 76.2302 93.738 70.6682 93.738C63.7982 93.738 58.2047 88.0245 58.2047 80.9985C58.2047 73.974 63.7952 68.262 70.6682 68.262C76.0367 68.262 80.6072 71.754 82.3577 76.626H83.5652C81.7712 71.079 76.6727 67.0635 70.6682 67.0635C63.1742 67.0635 57.0767 73.314 57.0767 80.9985C57.0767 88.683 63.1757 94.935 70.6682 94.935Z" fill="#800000"/>
</g>
</g>
</svg>
