<?xml version="1.0" encoding="utf-8"?>
<!-- Generator: Adobe Illustrator 24.0.1, SVG Export Plug-In . SVG Version: 6.00 Build 0)  -->
<svg version="1.1" id="Layer_1" xmlns="http://www.w3.org/2000/svg" xmlns:xlink="http://www.w3.org/1999/xlink" x="0px" y="0px"
	 viewBox="0 0 1080 1080" style="enable-background:new 0 0 1080 1080;" xml:space="preserve">
<style type="text/css">
	.st0{fill:#EDDC92;}
	.st1{fill:#800000;}
	.st2{fill:#24C09B;}
</style>
<g>
	<path d="M787.71,910.49v-53.75H292.27v53.75c0,30.38,25.17,54.9,55.44,54.9h384.57C762.57,965.38,787.71,940.87,787.71,910.49z
		 M545.49,953.52c-11.08,0-21.7-4.41-29.53-12.27c-7.84-7.86-12.23-18.53-12.23-29.64s4.4-21.78,12.23-29.64
		s18.46-12.27,29.55-12.27c11.08,0,21.7,4.41,29.53,12.27c7.83,7.86,12.23,18.53,12.23,29.64c-0.02,11.11-4.41,21.77-12.24,29.63
		C567.18,949.08,556.57,953.5,545.49,953.52z"/>
	<path class="st0" d="M291.32,240.13h497.37v599.71H291.32V240.13z"/>
	<path d="M787.71,169.51c0-30.38-25.17-54.9-55.44-54.9H347.71c-30.28,0-55.44,24.52-55.44,54.9v55.59H787.7L787.71,169.51z
		 M576.27,180.91h-72.52c-6.08,0-11-4.94-11-11.05s4.93-11.05,11-11.05h72.52c6.08,0,11,4.94,11,11.05
		C587.27,175.95,582.34,180.91,576.27,180.91z"/>
</g>
<path class="st1" d="M896.21,823.97c0,84.47-67.61,152.96-151.02,152.96s-151.02-68.48-151.02-152.96s67.61-152.96,151.02-152.96
	S896.21,739.5,896.21,823.97z"/>
<path class="st2" d="M743.41,836.31l152.76-118.71c4.74-3.69,10.34-5.08,16.79-4.19c6.44,0.89,11.45,3.77,15.04,8.61
	c3.59,4.85,4.93,10.57,4.04,17.17c-0.89,6.6-3.72,11.74-8.46,15.43l-170.89,132.8c-5.18,4.02-10.8,5.61-16.86,4.77
	c-6.06-0.84-11.05-3.91-14.97-9.2l-50.89-68.77c-3.59-4.85-4.93-10.57-4.04-17.17c0.89-6.6,3.72-11.74,8.46-15.43
	c4.74-3.69,10.34-5.08,16.78-4.19c6.44,0.89,11.45,3.77,15.04,8.62L743.41,836.31z"/>
<g>
	<path class="st1" d="M426.12,558.54c-4.89,0-8.65-1.32-11.26-3.97s-3.92-6.38-3.92-11.2c0-5.21,0.91-9.96,2.72-14.22
		c1.81-4.28,4.36-7.56,7.66-9.89c3.28-2.33,7.02-3.48,11.24-3.48c4.42,0,8.41,0.88,11.96,2.66l-3.35,8.45
		c-1.31-0.56-2.59-1.07-3.86-1.48c-1.27-0.42-2.71-0.63-4.32-0.63c-2.06,0-3.93,0.79-5.6,2.36c-1.67,1.58-2.97,3.73-3.9,6.48
		s-1.4,5.69-1.4,8.84c0,2.36,0.56,4.13,1.66,5.34c1.11,1.19,2.65,1.78,4.62,1.78c1.84,0,3.57-0.29,5.14-0.86
		c1.58-0.58,3.22-1.3,4.89-2.16v9.08C434.69,557.56,430.6,558.54,426.12,558.54z"/>
	<path class="st1" d="M474.49,515.76c1.43,0,2.61,0.13,3.5,0.4l-2.4,10.71c-1.09-0.39-2.3-0.59-3.64-0.59
		c-2.82,0-5.3,1.12-7.43,3.38c-2.12,2.25-3.64,5.48-4.53,9.69l-3.87,18.45h-11l8.65-41.26h8.41l-0.76,7.64h0.22
		C465.18,518.57,469.47,515.76,474.49,515.76z"/>
	<path class="st1" d="M487.55,557.79h-10.98l8.65-41.26h10.98L487.55,557.79z M486.95,506.88c0-2.14,0.58-3.76,1.74-4.85
		c1.15-1.09,2.79-1.64,4.91-1.64c1.77,0,3.12,0.37,4.04,1.15c0.94,0.76,1.4,1.86,1.4,3.28c0,1.97-0.53,3.56-1.61,4.78
		c-1.08,1.21-2.73,1.83-4.97,1.83C488.8,511.41,486.95,509.9,486.95,506.88z"/>
	<path class="st1" d="M515.86,558.54c-4.89,0-8.65-1.32-11.26-3.97c-2.61-2.63-3.92-6.38-3.92-11.2c0-5.21,0.91-9.96,2.72-14.22
		c1.81-4.28,4.36-7.56,7.66-9.89c3.28-2.33,7.02-3.48,11.24-3.48c4.42,0,8.41,0.88,11.96,2.66l-3.35,8.45
		c-1.31-0.56-2.59-1.07-3.86-1.48c-1.27-0.42-2.71-0.63-4.32-0.63c-2.06,0-3.93,0.79-5.6,2.36c-1.67,1.58-2.97,3.73-3.9,6.48
		s-1.4,5.69-1.4,8.84c0,2.36,0.56,4.13,1.66,5.34c1.11,1.19,2.65,1.78,4.62,1.78c1.84,0,3.57-0.29,5.14-0.86
		c1.58-0.58,3.22-1.3,4.89-2.16v9.08C524.42,557.56,520.34,558.54,515.86,558.54z"/>
	<path class="st1" d="M573.91,532.11c0,5.2-0.86,9.79-2.58,13.8c-1.71,4.02-4.19,7.13-7.43,9.33c-3.24,2.2-7.07,3.3-11.53,3.3
		c-4.74,0-8.52-1.44-11.37-4.33c-2.84-2.89-4.25-6.74-4.25-11.53c0-5.24,0.86-9.92,2.62-14.01c1.74-4.1,4.25-7.27,7.53-9.53
		c3.3-2.25,7.13-3.37,11.54-3.37c4.76,0,8.52,1.45,11.31,4.35C572.53,523.01,573.91,527.02,573.91,532.11z M562.86,532.11
		c0-4.85-1.74-7.27-5.23-7.27c-1.81,0-3.45,0.75-4.91,2.25c-1.45,1.5-2.62,3.7-3.54,6.61c-0.91,2.91-1.37,5.89-1.37,8.97
		c0,4.55,1.83,6.82,5.47,6.82c1.83,0,3.45-0.75,4.92-2.26c1.47-1.51,2.59-3.61,3.41-6.32C562.46,538.22,562.86,535.28,562.86,532.11
		z"/>
	<path class="st1" d="M612.87,557.79h-10.98l4.99-24.1c0.39-1.67,0.59-3.14,0.59-4.39c0-3.04-1.31-4.53-3.93-4.53
		c-2.25,0-4.26,1.4-6.1,4.2c-1.81,2.81-3.27,6.72-4.3,11.73l-3.57,17.09h-10.98l8.65-41.26h8.41l-0.76,7.64h0.22
		c3.56-5.6,7.87-8.41,12.96-8.41c3.35,0,5.96,1.02,7.8,3.08c1.83,2.06,2.75,4.99,2.75,8.81c0,1.8-0.27,4.02-0.83,6.65L612.87,557.79
		z"/>
	<path class="st1" d="M641.76,558.54c-5.11,0-9.08-1.4-11.89-4.17c-2.84-2.78-4.23-6.71-4.23-11.77c0-5.08,1.01-9.73,3.02-13.93
		c2-4.2,4.72-7.4,8.15-9.6c3.43-2.2,7.31-3.3,11.63-3.3c4.32,0,7.66,1.01,10.08,3.01c2.42,2,3.61,4.75,3.61,8.25
		c0,4.61-2.03,8.16-6.1,10.65c-4.06,2.5-9.86,3.74-17.4,3.74h-1.86l-0.09,0.78v0.75c0,2.23,0.63,4,1.89,5.3s3.05,1.94,5.38,1.94
		c2.12,0,4.04-0.24,5.76-0.71c1.73-0.48,3.83-1.3,6.29-2.48v8.38C651.8,557.48,647.05,558.54,641.76,558.54z M647.74,523.78
		c-2.14,0-4.17,0.98-6.06,2.95c-1.9,1.97-3.14,4.36-3.73,7.2h1.64c3.77,0,6.72-0.59,8.82-1.78c2.09-1.19,3.14-2.82,3.14-4.85
		C651.57,524.94,650.29,523.78,647.74,523.78z"/>
	<path class="st1" d="M682.74,549.56c1.57,0,3.54-0.43,5.9-1.3v8.31c-2.71,1.31-5.95,1.96-9.7,1.96c-3.64,0-6.32-0.78-8.05-2.33
		c-1.71-1.55-2.58-3.94-2.58-7.2c0-1.22,0.14-2.61,0.43-4.13l4.2-19.89l2.65-8.52l4.82-8.71h7.07l-1.78,8.78l-1.78,8.45l-4.19,19.89
		c-0.16,0.73-0.22,1.4-0.22,1.96C679.51,548.65,680.59,549.56,682.74,549.56z"/>
	<path class="st1" d="M667.59,521.89l4.25-0.16l-0.19,5.02l-4.25,0.16c-2.29,0.09-4.12-0.98-4.06-2.35c0.03-0.69,0.52-1.32,1.3-1.81
		C665.39,522.25,666.44,521.93,667.59,521.89z"/>
	<path class="st1" d="M677.53,521.49l0.78-0.03l-0.19,5.02l-0.78,0.03L677.53,521.49z"/>
	<path class="st1" d="M683.99,521.26l0.72-0.03l-0.19,5.02l-0.72,0.03L683.99,521.26z"/>
	<path class="st1" d="M699.49,523.16c-0.03,0.69-0.52,1.32-1.3,1.81c-0.76,0.49-1.81,0.81-2.97,0.85l-5.04,0.2l0.19-5.02l5.04-0.2
		C697.72,520.71,699.55,521.78,699.49,523.16z"/>
	<path class="st1" d="M690.44,519.47l-0.32,8.08c-0.04,0.95-1.35,1.77-2.91,1.83c-1.55,0.06-2.81-0.66-2.78-1.6l0.32-8.08
		c0.01-0.47,0.36-0.91,0.88-1.24c0.53-0.33,1.24-0.55,2.02-0.59C689.23,517.82,690.48,518.54,690.44,519.47z"/>
	<path class="st1" d="M684.05,519.72l-0.32,8.08c-0.04,0.95-1.34,1.77-2.89,1.83c-1.55,0.06-2.81-0.66-2.78-1.6l0.32-8.08
		c0.01-0.48,0.36-0.91,0.88-1.24c0.52-0.33,1.24-0.56,2.02-0.59C682.84,518.06,684.08,518.78,684.05,519.72z"/>
	<path class="st1" d="M677.58,519.98l-0.32,8.08c-0.04,0.94-1.34,1.77-2.89,1.83c-1.55,0.06-2.82-0.66-2.78-1.6l0.32-8.08
		c0.01-0.48,0.36-0.91,0.88-1.24c0.53-0.33,1.25-0.55,2.03-0.59C676.37,518.31,677.61,519.03,677.58,519.98z"/>
	<path class="st1" d="M471.12,632.9c41.28,0,76.13-28.49,87.03-67.27h-7.83c-10.67,34.33-42.12,59.29-79.2,59.29
		c-45.8,0-83.09-38.09-83.09-84.93c0-46.83,37.27-84.91,83.09-84.91c35.79,0,66.26,23.28,77.93,55.76h8.05
		c-11.96-36.98-45.95-63.75-85.98-63.75c-49.96,0-90.61,41.67-90.61,92.9C380.51,591.22,421.17,632.9,471.12,632.9z"/>
</g>
</svg>
