<?xml version="1.0" encoding="utf-8"?>
<!-- Generator: Adobe Illustrator 24.0.1, SVG Export Plug-In . SVG Version: 6.00 Build 0)  -->
<svg version="1.1" id="Layer_1" xmlns="http://www.w3.org/2000/svg" xmlns:xlink="http://www.w3.org/1999/xlink" x="0px" y="0px"
	 viewBox="0 0 1080 1080" style="enable-background:new 0 0 1080 1080;" xml:space="preserve">
<style type="text/css">
	.st0{display:none;}
	.st1{fill:#800000;}
	.st2{fill:#EDDC92;}
	.st3{fill:#FEC210;}
	.st4{fill:#FFFFFF;}
</style>
<path class="st0" d="M536.67,857.6c-7.21,0-13.72,4.35-16.48,11.04c-2.76,6.68-1.23,14.37,3.87,19.49
	c5.1,5.11,12.77,6.64,19.44,3.87c6.66-2.76,11.01-9.28,11.01-16.51C554.49,865.62,546.51,857.62,536.67,857.6z"/>
<path d="M755.35,874.49v-48.48h-447.3v48.48c0,27.41,22.72,49.51,50.06,49.51h347.2C732.64,924,755.35,901.89,755.35,874.49z
	 M536.66,913.29c-10,0-19.6-3.99-26.67-11.07c-7.08-7.09-11.05-16.71-11.05-26.74c0-10.02,3.97-19.65,11.05-26.73
	c7.07-7.09,16.67-11.07,26.67-11.07s19.6,3.99,26.67,11.07c7.07,7.09,11.05,16.71,11.05,26.74c-0.01,10.03-3.99,19.64-11.06,26.72
	C556.25,909.3,546.66,913.28,536.66,913.29z"/>
<path class="st1" d="M533.24,406.33c-74.61,0-135.11,60.65-135.11,135.46c0,74.82,60.5,135.46,135.11,135.46
	c74.63,0,135.11-60.64,135.11-135.46C668.35,466.99,607.87,406.33,533.24,406.33z M541.2,628.79c-4.39,4.41-11.52,4.41-15.92,0
	l-48.34-48.46l15.92-15.96l29.12,29.19V451.48h22.52v142.07l29.12-29.19l15.92,15.96L541.2,628.79z"/>
<path class="st2" d="M755.35,276.25h-447.3v529.83h447.3V276.25z M531.69,696.75c-41.38,0-81.07-16.48-110.32-45.82
	c-29.26-29.33-45.7-69.12-45.7-110.6c0-41.49,16.44-81.27,45.7-110.61c29.26-29.33,68.94-45.82,110.32-45.82
	s81.07,16.48,110.32,45.82c29.26,29.33,45.7,69.12,45.7,110.61c-0.05,41.47-16.5,81.23-45.75,110.55
	C612.72,680.2,573.06,696.7,531.69,696.75z"/>
<path d="M755.36,206.18c0-27.41-22.72-49.51-50.06-49.51H358.1c-27.34,0-50.06,22.11-50.06,49.51v50.14h447.3L755.36,206.18z
	 M564.45,216.46h-65.48c-5.49,0-9.94-4.46-9.94-9.97c0-5.5,4.45-9.97,9.94-9.97h65.48c5.49,0,9.94,4.46,9.94,9.97
	S569.94,216.46,564.45,216.46z"/>
<path class="st3" d="M933.28,788.8c0,73.34-59.31,132.8-132.47,132.8s-132.47-59.46-132.47-132.8S727.65,656,800.81,656
	S933.28,715.46,933.28,788.8z"/>
<path class="st4" d="M802.61,723.33c-18.53,0-33.55,15.06-33.55,33.63c0,18.58,15.02,33.63,33.55,33.63
	c18.53,0,33.55-15.06,33.55-33.63S821.14,723.33,802.61,723.33z"/>
<path class="st4" d="M788.21,797.33c-29.12,0-52.72,23.66-52.72,52.85c0,4.25,3.43,7.69,7.67,7.69H862.1c4.19,0,7.58-3.4,7.58-7.6
	c0-29.24-23.64-52.94-52.81-52.94H788.21z"/>
</svg>
