<svg width="77" height="42" viewBox="0 0 77 42" fill="none" xmlns="http://www.w3.org/2000/svg">
<path d="M4.63104 39.1591C3.89524 39.1591 3.26054 38.9967 2.72692 38.6719C2.19661 38.3438 1.78729 37.8864 1.49893 37.2997C1.2139 36.7098 1.07138 36.0237 1.07138 35.2415C1.07138 34.4593 1.2139 33.7699 1.49893 33.1733C1.78729 32.5734 2.18833 32.1061 2.70206 31.7713C3.21911 31.4332 3.82232 31.2642 4.51172 31.2642C4.90945 31.2642 5.3022 31.3305 5.68999 31.4631C6.07777 31.5956 6.43075 31.8111 6.74893 32.1094C7.06712 32.4044 7.32067 32.7955 7.50959 33.2827C7.69851 33.7699 7.79297 34.3698 7.79297 35.0824V35.5795H1.90661V34.5653H6.59979C6.59979 34.1345 6.51361 33.75 6.34126 33.4119C6.17223 33.0739 5.93028 32.8071 5.61541 32.6115C5.30386 32.416 4.93596 32.3182 4.51172 32.3182C4.04439 32.3182 3.64003 32.4342 3.29865 32.6662C2.96058 32.8949 2.7004 33.1932 2.51811 33.5611C2.33582 33.929 2.24467 34.3234 2.24467 34.7443V35.4205C2.24467 35.9972 2.34411 36.486 2.54297 36.8871C2.74515 37.2848 3.02521 37.5881 3.38317 37.7969C3.74112 38.0024 4.15708 38.1051 4.63104 38.1051C4.93928 38.1051 5.21768 38.062 5.46626 37.9759C5.71816 37.8864 5.93525 37.7538 6.11754 37.5781C6.29983 37.3991 6.4407 37.1771 6.54013 36.9119L7.67365 37.2301C7.55433 37.6146 7.35381 37.9527 7.07209 38.2443C6.79036 38.5327 6.44235 38.758 6.02805 38.9205C5.61375 39.0795 5.14808 39.1591 4.63104 39.1591ZM13.9528 34.0881V35.1818H9.49822V34.0881H13.9528ZM16.5939 39H15.3013L19.04 28.8182H20.3127L24.0513 39H22.7587L19.7161 30.429H19.6365L16.5939 39ZM17.0712 35.0227H22.2814V36.1165H17.0712V35.0227ZM28.5804 39.1591C27.8645 39.1591 27.248 38.9901 26.731 38.652C26.214 38.3139 25.8162 37.8482 25.5378 37.255C25.2594 36.6617 25.1202 35.9839 25.1202 35.2216C25.1202 34.446 25.2627 33.7616 25.5478 33.1683C25.8361 32.5717 26.2372 32.1061 26.7509 31.7713C27.2679 31.4332 27.8712 31.2642 28.5605 31.2642C29.0975 31.2642 29.5814 31.3636 30.0123 31.5625C30.4431 31.7614 30.7961 32.0398 31.0712 32.3977C31.3463 32.7557 31.517 33.1733 31.5833 33.6506H30.41C30.3205 33.3026 30.1216 32.9943 29.8134 32.7259C29.5085 32.4541 29.0975 32.3182 28.5804 32.3182C28.123 32.3182 27.722 32.4375 27.3773 32.6761C27.0359 32.9115 26.7691 33.2446 26.5769 33.6754C26.388 34.103 26.2935 34.6051 26.2935 35.1818C26.2935 35.7718 26.3863 36.2855 26.5719 36.723C26.7608 37.1605 27.026 37.5002 27.3674 37.7422C27.7121 37.9841 28.1164 38.1051 28.5804 38.1051C28.8854 38.1051 29.1621 38.0521 29.4107 37.946C29.6593 37.84 29.8697 37.6875 30.0421 37.4886C30.2144 37.2898 30.3371 37.0511 30.41 36.7727H31.5833C31.517 37.2235 31.3529 37.6295 31.0911 37.9908C30.8326 38.3487 30.4895 38.6338 30.062 38.8459C29.6377 39.0547 29.1439 39.1591 28.5804 39.1591ZM35.5456 39.179C35.0617 39.179 34.6226 39.0878 34.2282 38.9055C33.8337 38.7199 33.5205 38.4531 33.2885 38.1051C33.0565 37.7538 32.9405 37.3295 32.9405 36.8324C32.9405 36.3949 33.0267 36.0402 33.199 35.7685C33.3714 35.4934 33.6017 35.2779 33.8901 35.1222C34.1784 34.9664 34.4966 34.8504 34.8446 34.7741C35.196 34.6946 35.5489 34.6316 35.9036 34.5852C36.3676 34.5256 36.7438 34.4808 37.0321 34.451C37.3238 34.4179 37.5359 34.3632 37.6685 34.2869C37.8044 34.2107 37.8723 34.0781 37.8723 33.8892V33.8494C37.8723 33.3589 37.7381 32.9777 37.4696 32.706C37.2045 32.4342 36.8018 32.2983 36.2615 32.2983C35.7014 32.2983 35.2623 32.4209 34.9441 32.6662C34.6259 32.9115 34.4022 33.1733 34.2729 33.4517L33.1593 33.054C33.3581 32.59 33.6233 32.2287 33.9547 31.9702C34.2895 31.7083 34.6541 31.526 35.0485 31.4233C35.4462 31.3172 35.8373 31.2642 36.2218 31.2642C36.467 31.2642 36.7488 31.294 37.0669 31.3537C37.3884 31.41 37.6983 31.5277 37.9966 31.7067C38.2982 31.8857 38.5485 32.1558 38.7473 32.517C38.9462 32.8783 39.0456 33.3622 39.0456 33.9688V39H37.8723V37.9659H37.8127C37.7331 38.1316 37.6006 38.3089 37.415 38.4979C37.2293 38.6868 36.9824 38.8475 36.6742 38.9801C36.3659 39.1127 35.9898 39.179 35.5456 39.179ZM35.7246 38.125C36.1886 38.125 36.5797 38.0339 36.8979 37.8516C37.2194 37.6693 37.4614 37.4339 37.6238 37.1456C37.7895 36.8572 37.8723 36.554 37.8723 36.2358V35.1619C37.8226 35.2216 37.7132 35.2763 37.5442 35.326C37.3785 35.3724 37.1863 35.4138 36.9675 35.4503C36.7521 35.4834 36.5416 35.5133 36.3361 35.5398C36.1339 35.563 35.9699 35.5829 35.8439 35.5994C35.539 35.6392 35.254 35.7038 34.9888 35.7933C34.727 35.8795 34.5149 36.0104 34.3525 36.1861C34.1934 36.3584 34.1138 36.5937 34.1138 36.892C34.1138 37.2997 34.2646 37.608 34.5662 37.8168C34.8712 38.0223 35.2573 38.125 35.7246 38.125ZM44.0707 39.1591C43.4343 39.1591 42.8725 38.9983 42.3853 38.6768C41.8981 38.352 41.5169 37.8946 41.2418 37.3047C40.9667 36.7114 40.8292 36.0104 40.8292 35.2017C40.8292 34.3996 40.9667 33.7036 41.2418 33.1136C41.5169 32.5237 41.8997 32.0679 42.3903 31.7464C42.8808 31.425 43.4476 31.2642 44.0906 31.2642C44.5877 31.2642 44.9805 31.3471 45.2688 31.5128C45.5605 31.6752 45.7826 31.8608 45.935 32.0696C46.0908 32.2751 46.2118 32.4441 46.2979 32.5767H46.3974V28.8182H47.5707V39H46.4371V37.8267H46.2979C46.2118 37.9659 46.0891 38.1416 45.93 38.3537C45.771 38.5625 45.5439 38.7498 45.2489 38.9155C44.954 39.0779 44.5612 39.1591 44.0707 39.1591ZM44.2298 38.1051C44.7004 38.1051 45.0981 37.9825 45.4229 37.7372C45.7478 37.4886 45.9947 37.1456 46.1637 36.7081C46.3327 36.2673 46.4173 35.7585 46.4173 35.1818C46.4173 34.6117 46.3344 34.1129 46.1687 33.6854C46.003 33.2545 45.7577 32.9197 45.4329 32.6811C45.1081 32.4392 44.707 32.3182 44.2298 32.3182C43.7326 32.3182 43.3183 32.4458 42.9869 32.701C42.6587 32.9529 42.4118 33.2959 42.2461 33.7301C42.0837 34.161 42.0025 34.6449 42.0025 35.1818C42.0025 35.7254 42.0853 36.2192 42.2511 36.6634C42.4201 37.1042 42.6687 37.4555 42.9968 37.7173C43.3282 37.9759 43.7392 38.1051 44.2298 38.1051ZM53.0842 39.1591C52.3484 39.1591 51.7137 38.9967 51.18 38.6719C50.6497 38.3438 50.2404 37.8864 49.9521 37.2997C49.667 36.7098 49.5245 36.0237 49.5245 35.2415C49.5245 34.4593 49.667 33.7699 49.9521 33.1733C50.2404 32.5734 50.6415 32.1061 51.1552 31.7713C51.6722 31.4332 52.2754 31.2642 52.9648 31.2642C53.3626 31.2642 53.7553 31.3305 54.1431 31.4631C54.5309 31.5956 54.8839 31.8111 55.2021 32.1094C55.5202 32.4044 55.7738 32.7955 55.9627 33.2827C56.1516 33.7699 56.2461 34.3698 56.2461 35.0824V35.5795H50.3597V34.5653H55.0529C55.0529 34.1345 54.9667 33.75 54.7944 33.4119C54.6254 33.0739 54.3834 32.8071 54.0685 32.6115C53.757 32.416 53.3891 32.3182 52.9648 32.3182C52.4975 32.3182 52.0932 32.4342 51.7518 32.6662C51.4137 32.8949 51.1535 33.1932 50.9712 33.5611C50.7889 33.929 50.6978 34.3234 50.6978 34.7443V35.4205C50.6978 35.9972 50.7972 36.486 50.9961 36.8871C51.1983 37.2848 51.4783 37.5881 51.8363 37.7969C52.1942 38.0024 52.6102 38.1051 53.0842 38.1051C53.3924 38.1051 53.6708 38.062 53.9194 37.9759C54.1713 37.8864 54.3884 37.7538 54.5707 37.5781C54.753 37.3991 54.8938 37.1771 54.9933 36.9119L56.1268 37.2301C56.0075 37.6146 55.8069 37.9527 55.5252 38.2443C55.2435 38.5327 54.8955 38.758 54.4812 38.9205C54.0669 39.0795 53.6012 39.1591 53.0842 39.1591ZM58.0309 39V31.3636H59.1644V32.5568H59.2638C59.4229 32.1491 59.6798 31.8326 60.0344 31.6072C60.3891 31.3786 60.815 31.2642 61.3121 31.2642C61.8159 31.2642 62.2352 31.3786 62.57 31.6072C62.908 31.8326 63.1715 32.1491 63.3604 32.5568H63.44C63.6355 32.1624 63.9289 31.8492 64.32 31.6172C64.7111 31.3819 65.18 31.2642 65.7269 31.2642C66.4097 31.2642 66.9682 31.478 67.4023 31.9055C67.8365 32.3298 68.0536 32.991 68.0536 33.8892V39H66.8803V33.8892C66.8803 33.3258 66.7262 32.9231 66.418 32.6811C66.1097 32.4392 65.7468 32.3182 65.3292 32.3182C64.7923 32.3182 64.3763 32.4806 64.0813 32.8054C63.7863 33.1269 63.6388 33.5346 63.6388 34.0284V39H62.4457V33.7699C62.4457 33.3357 62.3048 32.986 62.0231 32.7209C61.7414 32.4524 61.3784 32.3182 60.9343 32.3182C60.6294 32.3182 60.3443 32.3994 60.0792 32.5618C59.8174 32.7242 59.6052 32.9496 59.4428 33.2379C59.2837 33.523 59.2042 33.8527 59.2042 34.2273V39H58.0309ZM70.6811 41.8636C70.4822 41.8636 70.3049 41.8471 70.1491 41.8139C69.9934 41.7841 69.8857 41.7543 69.826 41.7244L70.1243 40.6903C70.4093 40.7633 70.6612 40.7898 70.88 40.7699C71.0987 40.75 71.2926 40.6522 71.4616 40.4766C71.634 40.3042 71.7914 40.0241 71.9339 39.6364L72.1527 39.0398L69.3288 31.3636H70.6016L72.7095 37.4489H72.7891L74.897 31.3636H76.1697L72.9283 40.1136C72.7824 40.508 72.6018 40.8345 72.3864 41.093C72.1709 41.3549 71.9207 41.5488 71.6357 41.6747C71.3539 41.8007 71.0357 41.8636 70.6811 41.8636Z" fill="#E2D188"/>
<path d="M48.3857 15.8737L47.9919 16.1787L48.2954 16.5736L48.8345 17.2752L48.8344 17.2752L48.8407 17.2831C49.2434 17.786 49.4866 18.4153 49.4986 19.1033V20.3105H49.0611V17.9818L48.0762 17.8597L47.6008 19.7477C47.6007 19.7479 47.6007 19.7482 47.6006 19.7484C47.5189 20.0668 47.2213 20.3105 46.8591 20.3105H46.1875V19.0864C46.1994 18.4007 46.4429 17.7715 46.8397 17.2759L46.8398 17.276L46.8464 17.2673L47.3898 16.5573L47.6889 16.1664L47.3028 15.8612C47.0863 15.69 46.9522 15.4324 46.9522 15.1474C46.9522 14.8283 47.1202 14.5423 47.3902 14.3732L47.625 14.2263V13.9494V9.56618L48.0635 9.27715L48.0683 13.9527L48.0685 14.2318L48.3062 14.3781C48.5737 14.5426 48.7453 14.8301 48.7453 15.153C48.7453 15.4413 48.6091 15.7007 48.3857 15.8737ZM45.1875 11.1698V12.6629C45.1875 12.7027 45.1656 12.8168 45.0587 13.0175C44.9575 13.2077 44.8019 13.4353 44.594 13.6891C44.179 14.196 43.5859 14.7707 42.8956 15.3122C42.2059 15.8532 41.4323 16.3507 40.6608 16.7109C39.8842 17.0735 39.14 17.283 38.5 17.283C37.86 17.283 37.1158 17.0735 36.3392 16.7109C35.5677 16.3507 34.7941 15.8532 34.1044 15.3122C33.4141 14.7707 32.821 14.196 32.406 13.6891C32.1981 13.4353 32.0425 13.2077 31.9413 13.0175C31.8344 12.8168 31.8125 12.7027 31.8125 12.6629V11.1698L38.226 15.3724L38.5 15.552L38.774 15.3724L45.1875 11.1698ZM38.5 12.953L28.0337 6.51676L38.5 1.36778L48.9663 6.51676L38.5 12.953Z" stroke="#E2D188"/>
</svg>
