<svg width="78" height="46" viewBox="0 0 78 46" fill="none" xmlns="http://www.w3.org/2000/svg">
<path d="M50.5 18C50.8977 17.9995 51.2789 17.8414 51.5601 17.5601C51.8414 17.2789 51.9995 16.8977 52 16.5V1.5C51.9995 1.10232 51.8414 0.721056 51.5601 0.439851C51.2789 0.158647 50.8977 0.000463153 50.5 0H27.5C27.1023 0.000463153 26.7211 0.158647 26.4399 0.439851C26.1586 0.721056 26.0005 1.10232 26 1.5V16.5C26.0005 16.8977 26.1586 17.2789 26.4399 17.5601C26.7211 17.8414 27.1023 17.9995 27.5 18H50.5ZM28 2H50V16H28V2Z" fill="#E2D188"/>
<path d="M54 20H24V22H54V20Z" fill="#E2D188"/>
<path d="M35.1543 9.50442C35.8254 9.50442 36.3711 8.95877 36.3711 8.28764C36.3711 7.61652 35.8254 7.07087 35.1543 7.07087C34.4832 7.07087 33.9375 7.61652 33.9375 8.28764C33.9375 8.95877 34.4832 9.50442 35.1543 9.50442ZM43.6717 9.50442C44.3428 9.50442 44.8885 8.95877 44.8885 8.28764C44.8885 7.61652 44.3428 7.07087 43.6717 7.07087C43.0006 7.07087 42.4549 7.61652 42.4549 8.28764C42.4549 8.95877 43.0006 9.50442 43.6717 9.50442ZM44.2801 10.1128H43.0633C42.7287 10.1128 42.4264 10.2478 42.2059 10.4664C42.9721 10.8866 43.5158 11.6452 43.6337 12.5463H44.8885C45.225 12.5463 45.4969 12.2745 45.4969 11.938V11.3296C45.4969 10.6584 44.9512 10.1128 44.2801 10.1128ZM39.413 10.1128C40.5899 10.1128 41.5424 9.1603 41.5424 7.98345C41.5424 6.8066 40.5899 5.8541 39.413 5.8541C38.2362 5.8541 37.2837 6.8066 37.2837 7.98345C37.2837 9.1603 38.2362 10.1128 39.413 10.1128ZM40.8731 10.7212H40.7153C40.3199 10.9113 39.8807 11.0254 39.413 11.0254C38.9453 11.0254 38.508 10.9113 38.1107 10.7212H37.9529C36.7437 10.7212 35.7627 11.7022 35.7627 12.9114V13.4589C35.7627 13.9627 36.1715 14.3715 36.6753 14.3715H42.1507C42.6546 14.3715 43.0633 13.9627 43.0633 13.4589V12.9114C43.0633 11.7022 42.0823 10.7212 40.8731 10.7212ZM36.6201 10.4664C36.3996 10.2478 36.0973 10.1128 35.7627 10.1128H34.5459C33.8748 10.1128 33.3291 10.6584 33.3291 11.3296V11.938C33.3291 12.2745 33.601 12.5463 33.9375 12.5463H35.1904C35.3102 11.6452 35.854 10.8866 36.6201 10.4664Z" fill="#E2D188"/>
<path d="M4.27557 42.1591C3.53977 42.1591 2.90507 41.9967 2.37145 41.6719C1.84115 41.3438 1.43182 40.8864 1.14347 40.2997C0.858428 39.7098 0.715909 39.0237 0.715909 38.2415C0.715909 37.4593 0.858428 36.7699 1.14347 36.1733C1.43182 35.5734 1.83286 35.1061 2.34659 34.7713C2.86364 34.4332 3.46686 34.2642 4.15625 34.2642C4.55398 34.2642 4.94673 34.3305 5.33452 34.4631C5.7223 34.5956 6.07528 34.8111 6.39347 35.1094C6.71165 35.4044 6.9652 35.7955 7.15412 36.2827C7.34304 36.7699 7.4375 37.3698 7.4375 38.0824V38.5795H1.55114V37.5653H6.24432C6.24432 37.1345 6.15814 36.75 5.9858 36.4119C5.81676 36.0739 5.57481 35.8071 5.25994 35.6115C4.94839 35.416 4.58049 35.3182 4.15625 35.3182C3.68892 35.3182 3.28456 35.4342 2.94318 35.6662C2.60511 35.8949 2.34493 36.1932 2.16264 36.5611C1.98035 36.929 1.8892 37.3234 1.8892 37.7443V38.4205C1.8892 38.9972 1.98864 39.486 2.1875 39.8871C2.38968 40.2848 2.66974 40.5881 3.0277 40.7969C3.38565 41.0024 3.80161 41.1051 4.27557 41.1051C4.58381 41.1051 4.86222 41.062 5.1108 40.9759C5.36269 40.8864 5.57978 40.7538 5.76207 40.5781C5.94437 40.3991 6.08523 40.1771 6.18466 39.9119L7.31818 40.2301C7.19886 40.6146 6.99834 40.9527 6.71662 41.2443C6.4349 41.5327 6.08688 41.758 5.67259 41.9205C5.25829 42.0795 4.79261 42.1591 4.27557 42.1591ZM13.5973 37.0881V38.1818H9.14276V37.0881H13.5973ZM24.014 35H22.7811C22.7082 34.6454 22.5806 34.3338 22.3983 34.0653C22.2193 33.7969 22.0005 33.5715 21.742 33.3892C21.4868 33.2036 21.2034 33.0644 20.8919 32.9716C20.5803 32.8788 20.2555 32.8324 19.9174 32.8324C19.301 32.8324 18.7425 32.9882 18.242 33.2997C17.7449 33.6113 17.3488 34.0703 17.0538 34.6768C16.7621 35.2834 16.6163 36.0275 16.6163 36.9091C16.6163 37.7907 16.7621 38.5348 17.0538 39.1413C17.3488 39.7479 17.7449 40.2069 18.242 40.5185C18.7425 40.83 19.301 40.9858 19.9174 40.9858C20.2555 40.9858 20.5803 40.9394 20.8919 40.8466C21.2034 40.7538 21.4868 40.6162 21.742 40.4339C22.0005 40.2483 22.2193 40.0213 22.3983 39.7528C22.5806 39.4811 22.7082 39.1695 22.7811 38.8182H24.014C23.9212 39.3385 23.7522 39.8042 23.5069 40.2152C23.2617 40.6262 22.9567 40.9759 22.5922 41.2642C22.2276 41.5492 21.8182 41.7663 21.3642 41.9155C20.9134 42.0646 20.4312 42.1392 19.9174 42.1392C19.0491 42.1392 18.2768 41.9271 17.6007 41.5028C16.9245 41.0786 16.3926 40.4754 16.0048 39.6932C15.617 38.911 15.4231 37.983 15.4231 36.9091C15.4231 35.8352 15.617 34.9072 16.0048 34.125C16.3926 33.3428 16.9245 32.7396 17.6007 32.3153C18.2768 31.8911 19.0491 31.679 19.9174 31.679C20.4312 31.679 20.9134 31.7536 21.3642 31.9027C21.8182 32.0518 22.2276 32.2706 22.5922 32.5589C22.9567 32.844 23.2617 33.192 23.5069 33.603C23.7522 34.0107 23.9212 34.4763 24.014 35ZM28.9496 42.1591C28.2602 42.1591 27.6553 41.995 27.1349 41.6669C26.6179 41.3388 26.2135 40.8797 25.9219 40.2898C25.6335 39.6998 25.4893 39.0104 25.4893 38.2216C25.4893 37.4261 25.6335 36.7318 25.9219 36.1385C26.2135 35.5452 26.6179 35.0845 27.1349 34.7564C27.6553 34.4283 28.2602 34.2642 28.9496 34.2642C29.639 34.2642 30.2422 34.4283 30.7592 34.7564C31.2796 35.0845 31.6839 35.5452 31.9723 36.1385C32.264 36.7318 32.4098 37.4261 32.4098 38.2216C32.4098 39.0104 32.264 39.6998 31.9723 40.2898C31.6839 40.8797 31.2796 41.3388 30.7592 41.6669C30.2422 41.995 29.639 42.1591 28.9496 42.1591ZM28.9496 41.1051C29.4732 41.1051 29.9041 40.9709 30.2422 40.7024C30.5803 40.4339 30.8305 40.081 30.9929 39.6435C31.1553 39.206 31.2365 38.732 31.2365 38.2216C31.2365 37.7112 31.1553 37.2356 30.9929 36.7947C30.8305 36.3539 30.5803 35.9976 30.2422 35.7259C29.9041 35.4541 29.4732 35.3182 28.9496 35.3182C28.4259 35.3182 27.995 35.4541 27.657 35.7259C27.3189 35.9976 27.0687 36.3539 26.9062 36.7947C26.7438 37.2356 26.6626 37.7112 26.6626 38.2216C26.6626 38.732 26.7438 39.206 26.9062 39.6435C27.0687 40.081 27.3189 40.4339 27.657 40.7024C27.995 40.9709 28.4259 41.1051 28.9496 41.1051ZM36.448 42.179C35.9641 42.179 35.5249 42.0878 35.1305 41.9055C34.7361 41.7199 34.4229 41.4531 34.1909 41.1051C33.9589 40.7538 33.8429 40.3295 33.8429 39.8324C33.8429 39.3949 33.929 39.0402 34.1014 38.7685C34.2737 38.4934 34.5041 38.2779 34.7924 38.1222C35.0808 37.9664 35.399 37.8504 35.747 37.7741C36.0983 37.6946 36.4513 37.6316 36.8059 37.5852C37.2699 37.5256 37.6461 37.4808 37.9345 37.451C38.2261 37.4179 38.4383 37.3632 38.5708 37.2869C38.7067 37.2107 38.7747 37.0781 38.7747 36.8892V36.8494C38.7747 36.3589 38.6404 35.9777 38.372 35.706C38.1068 35.4342 37.7041 35.2983 37.1639 35.2983C36.6038 35.2983 36.1646 35.4209 35.8464 35.6662C35.5282 35.9115 35.3045 36.1733 35.1752 36.4517L34.0616 36.054C34.2605 35.59 34.5256 35.2287 34.8571 34.9702C35.1918 34.7083 35.5564 34.526 35.9508 34.4233C36.3485 34.3172 36.7396 34.2642 37.1241 34.2642C37.3694 34.2642 37.6511 34.294 37.9693 34.3537C38.2908 34.41 38.6007 34.5277 38.899 34.7067C39.2006 34.8857 39.4508 35.1558 39.6497 35.517C39.8485 35.8783 39.948 36.3622 39.948 36.9688V42H38.7747V40.9659H38.715C38.6355 41.1316 38.5029 41.3089 38.3173 41.4979C38.1317 41.6868 37.8848 41.8475 37.5765 41.9801C37.2683 42.1127 36.8921 42.179 36.448 42.179ZM36.627 41.125C37.091 41.125 37.4821 41.0339 37.8002 40.8516C38.1217 40.6693 38.3637 40.4339 38.5261 40.1456C38.6918 39.8572 38.7747 39.554 38.7747 39.2358V38.1619C38.725 38.2216 38.6156 38.2763 38.4466 38.326C38.2808 38.3724 38.0886 38.4138 37.8699 38.4503C37.6544 38.4834 37.444 38.5133 37.2385 38.5398C37.0363 38.563 36.8722 38.5829 36.7463 38.5994C36.4413 38.6392 36.1563 38.7038 35.8912 38.7933C35.6293 38.8795 35.4172 39.0104 35.2548 39.1861C35.0957 39.3584 35.0162 39.5937 35.0162 39.892C35.0162 40.2997 35.167 40.608 35.4686 40.8168C35.7735 41.0223 36.1596 41.125 36.627 41.125ZM45.1918 42.1591C44.4759 42.1591 43.8594 41.9901 43.3423 41.652C42.8253 41.3139 42.4276 40.8482 42.1491 40.255C41.8707 39.6617 41.7315 38.9839 41.7315 38.2216C41.7315 37.446 41.8741 36.7616 42.1591 36.1683C42.4474 35.5717 42.8485 35.1061 43.3622 34.7713C43.8793 34.4332 44.4825 34.2642 45.1719 34.2642C45.7088 34.2642 46.1927 34.3636 46.6236 34.5625C47.0545 34.7614 47.4074 35.0398 47.6825 35.3977C47.9576 35.7557 48.1283 36.1733 48.1946 36.6506H47.0213C46.9318 36.3026 46.733 35.9943 46.4247 35.7259C46.1198 35.4541 45.7088 35.3182 45.1918 35.3182C44.7344 35.3182 44.3333 35.4375 43.9886 35.6761C43.6473 35.9115 43.3804 36.2446 43.1882 36.6754C42.9993 37.103 42.9048 37.6051 42.9048 38.1818C42.9048 38.7718 42.9976 39.2855 43.1832 39.723C43.3722 40.1605 43.6373 40.5002 43.9787 40.7422C44.3234 40.9841 44.7277 41.1051 45.1918 41.1051C45.4967 41.1051 45.7734 41.0521 46.022 40.946C46.2706 40.84 46.4811 40.6875 46.6534 40.4886C46.8258 40.2898 46.9484 40.0511 47.0213 39.7727H48.1946C48.1283 40.2235 47.9643 40.6295 47.7024 40.9908C47.4439 41.3487 47.1009 41.6338 46.6733 41.8459C46.2491 42.0547 45.7552 42.1591 45.1918 42.1591ZM51.0831 37.4062V42H49.9098V31.8182H51.0831V35.5568H51.1825C51.3615 35.1624 51.63 34.8492 51.9879 34.6172C52.3492 34.3819 52.8298 34.2642 53.4297 34.2642C53.95 34.2642 54.4058 34.3686 54.7969 34.5774C55.188 34.7829 55.4912 35.0994 55.7067 35.527C55.9254 35.9512 56.0348 36.4915 56.0348 37.1477V42H54.8615V37.2273C54.8615 36.6207 54.7041 36.1518 54.3892 35.8203C54.0777 35.4856 53.6451 35.3182 53.0916 35.3182C52.7071 35.3182 52.3625 35.3994 52.0575 35.5618C51.7559 35.7242 51.5173 35.9612 51.3416 36.2727C51.1693 36.5843 51.0831 36.9621 51.0831 37.4062ZM58.1813 42V34.3636H59.3546V42H58.1813ZM58.7779 33.0909C58.5492 33.0909 58.352 33.013 58.1863 32.8572C58.0239 32.7015 57.9426 32.5142 57.9426 32.2955C57.9426 32.0767 58.0239 31.8894 58.1863 31.7337C58.352 31.5779 58.5492 31.5 58.7779 31.5C59.0066 31.5 59.2021 31.5779 59.3645 31.7337C59.5302 31.8894 59.6131 32.0767 59.6131 32.2955C59.6131 32.5142 59.5302 32.7015 59.3645 32.8572C59.2021 33.013 59.0066 33.0909 58.7779 33.0909ZM62.6768 37.4062V42H61.5036V34.3636H62.6371V35.5568H62.7365C62.9155 35.169 63.1873 34.8575 63.5518 34.6222C63.9164 34.3835 64.3871 34.2642 64.9638 34.2642C65.4808 34.2642 65.9332 34.3703 66.321 34.5824C66.7088 34.7912 67.0104 35.1094 67.2259 35.5369C67.4413 35.9612 67.549 36.4981 67.549 37.1477V42H66.3757V37.2273C66.3757 36.6274 66.2199 36.16 65.9084 35.8253C65.5968 35.4872 65.1693 35.3182 64.6257 35.3182C64.2512 35.3182 63.9164 35.3994 63.6214 35.5618C63.3298 35.7242 63.0994 35.9612 62.9304 36.2727C62.7614 36.5843 62.6768 36.9621 62.6768 37.4062ZM72.7754 45.0227C72.2086 45.0227 71.7214 44.9498 71.3137 44.804C70.9061 44.6615 70.5663 44.4725 70.2946 44.2372C70.0261 44.0052 69.8123 43.7566 69.6532 43.4915L70.5879 42.8352C70.694 42.9744 70.8282 43.1335 70.9906 43.3125C71.153 43.4948 71.3751 43.6522 71.6568 43.7848C71.9418 43.9207 72.3147 43.9886 72.7754 43.9886C73.3919 43.9886 73.9006 43.8395 74.3017 43.5412C74.7027 43.2429 74.9032 42.7756 74.9032 42.1392V40.5881H74.8038C74.7176 40.7273 74.595 40.8996 74.4359 41.1051C74.2801 41.3073 74.0547 41.4879 73.7598 41.647C73.4681 41.8028 73.0737 41.8807 72.5765 41.8807C71.96 41.8807 71.4065 41.7348 70.916 41.4432C70.4288 41.1515 70.0427 40.7273 69.7576 40.1705C69.4759 39.6136 69.335 38.9375 69.335 38.142C69.335 37.3598 69.4726 36.6787 69.7477 36.0987C70.0228 35.5154 70.4056 35.0646 70.8961 34.7464C71.3867 34.425 71.9534 34.2642 72.5964 34.2642C73.0936 34.2642 73.488 34.3471 73.7797 34.5128C74.0746 34.6752 74.3 34.8608 74.4558 35.0696C74.6149 35.2751 74.7375 35.4441 74.8237 35.5767H74.943V34.3636H76.0765V42.2188C76.0765 42.875 75.9274 43.4086 75.6291 43.8196C75.3341 44.2339 74.9364 44.5372 74.4359 44.7294C73.9387 44.925 73.3852 45.0227 72.7754 45.0227ZM72.7356 40.8267C73.2063 40.8267 73.604 40.719 73.9288 40.5036C74.2536 40.2881 74.5005 39.9782 74.6696 39.5739C74.8386 39.1695 74.9231 38.6856 74.9231 38.1222C74.9231 37.572 74.8403 37.0864 74.6745 36.6655C74.5088 36.2446 74.2636 35.9148 73.9387 35.6761C73.6139 35.4375 73.2129 35.3182 72.7356 35.3182C72.2385 35.3182 71.8242 35.4441 71.4927 35.696C71.1646 35.9479 70.9177 36.286 70.752 36.7102C70.5895 37.1345 70.5083 37.6051 70.5083 38.1222C70.5083 38.6525 70.5912 39.1214 70.7569 39.5291C70.926 39.9335 71.1745 40.2517 71.5027 40.4837C71.8341 40.7124 72.2451 40.8267 72.7356 40.8267Z" fill="#E2D188"/>
</svg>
