<svg width="75" height="45" viewBox="0 0 75 45" fill="none" xmlns="http://www.w3.org/2000/svg">
<path d="M9.07928 41.1591C8.34348 41.1591 7.70878 40.9967 7.17516 40.6719C6.64486 40.3438 6.23553 39.8864 5.94718 39.2997C5.66214 38.7098 5.51962 38.0237 5.51962 37.2415C5.51962 36.4593 5.66214 35.7699 5.94718 35.1733C6.23553 34.5734 6.63657 34.1061 7.1503 33.7713C7.66735 33.4332 8.27057 33.2642 8.95996 33.2642C9.35769 33.2642 9.75044 33.3305 10.1382 33.4631C10.526 33.5956 10.879 33.8111 11.1972 34.1094C11.5154 34.4044 11.7689 34.7955 11.9578 35.2827C12.1468 35.7699 12.2412 36.3698 12.2412 37.0824V37.5795H6.35485V36.5653H11.048C11.048 36.1345 10.9619 35.75 10.7895 35.4119C10.6205 35.0739 10.3785 34.8071 10.0637 34.6115C9.7521 34.416 9.3842 34.3182 8.95996 34.3182C8.49263 34.3182 8.08828 34.4342 7.74689 34.6662C7.40882 34.8949 7.14864 35.1932 6.96635 35.5611C6.78406 35.929 6.69292 36.3234 6.69292 36.7443V37.4205C6.69292 37.9972 6.79235 38.486 6.99121 38.8871C7.19339 39.2848 7.47346 39.5881 7.83141 39.7969C8.18936 40.0024 8.60532 40.1051 9.07928 40.1051C9.38752 40.1051 9.66593 40.062 9.91451 39.9759C10.1664 39.8864 10.3835 39.7538 10.5658 39.5781C10.7481 39.3991 10.8889 39.1771 10.9884 38.9119L12.1219 39.2301C12.0026 39.6146 11.8021 39.9527 11.5203 40.2443C11.2386 40.5327 10.8906 40.758 10.4763 40.9205C10.062 41.0795 9.59632 41.1591 9.07928 41.1591ZM18.401 36.0881V37.1818H13.9465V36.0881H18.401ZM20.6246 41V30.8182H24.0649C24.8637 30.8182 25.5166 30.9624 26.0237 31.2507C26.5341 31.5357 26.912 31.9219 27.1572 32.4091C27.4025 32.8963 27.5251 33.4399 27.5251 34.0398C27.5251 34.6397 27.4025 35.1849 27.1572 35.6754C26.9153 36.166 26.5407 36.5571 26.0336 36.8487C25.5265 37.1371 24.8769 37.2812 24.0848 37.2812H21.6189V36.1875H24.045C24.5919 36.1875 25.031 36.093 25.3625 35.9041C25.6939 35.7152 25.9342 35.46 26.0834 35.1385C26.2358 34.8137 26.3121 34.4474 26.3121 34.0398C26.3121 33.6321 26.2358 33.2675 26.0834 32.946C25.9342 32.6245 25.6923 32.3726 25.3575 32.1903C25.0228 32.0047 24.5786 31.9119 24.0251 31.9119H21.8575V41H20.6246ZM31.5993 41.179C31.1154 41.179 30.6763 41.0878 30.2819 40.9055C29.8875 40.7199 29.5742 40.4531 29.3422 40.1051C29.1102 39.7538 28.9942 39.3295 28.9942 38.8324C28.9942 38.3949 29.0804 38.0402 29.2528 37.7685C29.4251 37.4934 29.6555 37.2779 29.9438 37.1222C30.2322 36.9664 30.5503 36.8504 30.8983 36.7741C31.2497 36.6946 31.6027 36.6316 31.9573 36.5852C32.4213 36.5256 32.7975 36.4808 33.0858 36.451C33.3775 36.4179 33.5896 36.3632 33.7222 36.2869C33.8581 36.2107 33.926 36.0781 33.926 35.8892V35.8494C33.926 35.3589 33.7918 34.9777 33.5233 34.706C33.2582 34.4342 32.8555 34.2983 32.3153 34.2983C31.7551 34.2983 31.316 34.4209 30.9978 34.6662C30.6796 34.9115 30.4559 35.1733 30.3266 35.4517L29.213 35.054C29.4118 34.59 29.677 34.2287 30.0084 33.9702C30.3432 33.7083 30.7078 33.526 31.1022 33.4233C31.4999 33.3172 31.891 33.2642 32.2755 33.2642C32.5207 33.2642 32.8025 33.294 33.1206 33.3537C33.4421 33.41 33.752 33.5277 34.0503 33.7067C34.3519 33.8857 34.6022 34.1558 34.801 34.517C34.9999 34.8783 35.0993 35.3622 35.0993 35.9688V41H33.926V39.9659H33.8664C33.7868 40.1316 33.6543 40.3089 33.4687 40.4979C33.2831 40.6868 33.0361 40.8475 32.7279 40.9801C32.4197 41.1127 32.0435 41.179 31.5993 41.179ZM31.7783 40.125C32.2423 40.125 32.6334 40.0339 32.9516 39.8516C33.2731 39.6693 33.5151 39.4339 33.6775 39.1456C33.8432 38.8572 33.926 38.554 33.926 38.2358V37.1619C33.8763 37.2216 33.767 37.2763 33.5979 37.326C33.4322 37.3724 33.24 37.4138 33.0212 37.4503C32.8058 37.4834 32.5953 37.5133 32.3898 37.5398C32.1876 37.563 32.0236 37.5829 31.8976 37.5994C31.5927 37.6392 31.3077 37.7038 31.0425 37.7933C30.7807 37.8795 30.5686 38.0104 30.4062 38.1861C30.2471 38.3584 30.1675 38.5937 30.1675 38.892C30.1675 39.2997 30.3183 39.608 30.6199 39.8168C30.9249 40.0223 31.311 40.125 31.7783 40.125ZM43.2117 33.3636L40.3879 41H39.1947L36.3708 33.3636H37.6436L39.7515 39.4489H39.8311L41.939 33.3636H43.2117ZM44.7604 41V33.3636H45.9337V41H44.7604ZM45.357 32.0909C45.1283 32.0909 44.9311 32.013 44.7654 31.8572C44.603 31.7015 44.5218 31.5142 44.5218 31.2955C44.5218 31.0767 44.603 30.8894 44.7654 30.7337C44.9311 30.5779 45.1283 30.5 45.357 30.5C45.5857 30.5 45.7812 30.5779 45.9436 30.7337C46.1093 30.8894 46.1922 31.0767 46.1922 31.2955C46.1922 31.5142 46.1093 31.7015 45.9436 31.8572C45.7812 32.013 45.5857 32.0909 45.357 32.0909ZM49.2559 30.8182V41H48.0827V30.8182H49.2559ZM51.4049 41V33.3636H52.5782V41H51.4049ZM52.0015 32.0909C51.7728 32.0909 51.5756 32.013 51.4099 31.8572C51.2475 31.7015 51.1663 31.5142 51.1663 31.2955C51.1663 31.0767 51.2475 30.8894 51.4099 30.7337C51.5756 30.5779 51.7728 30.5 52.0015 30.5C52.2302 30.5 52.4258 30.5779 52.5882 30.7337C52.7539 30.8894 52.8367 31.0767 52.8367 31.2955C52.8367 31.5142 52.7539 31.7015 52.5882 31.8572C52.4258 32.013 52.2302 32.0909 52.0015 32.0909ZM57.8295 41.1591C57.1401 41.1591 56.5352 40.995 56.0148 40.6669C55.4978 40.3388 55.0934 39.8797 54.8018 39.2898C54.5134 38.6998 54.3692 38.0104 54.3692 37.2216C54.3692 36.4261 54.5134 35.7318 54.8018 35.1385C55.0934 34.5452 55.4978 34.0845 56.0148 33.7564C56.5352 33.4283 57.1401 33.2642 57.8295 33.2642C58.5189 33.2642 59.1221 33.4283 59.6391 33.7564C60.1595 34.0845 60.5638 34.5452 60.8522 35.1385C61.1439 35.7318 61.2897 36.4261 61.2897 37.2216C61.2897 38.0104 61.1439 38.6998 60.8522 39.2898C60.5638 39.8797 60.1595 40.3388 59.6391 40.6669C59.1221 40.995 58.5189 41.1591 57.8295 41.1591ZM57.8295 40.1051C58.3531 40.1051 58.784 39.9709 59.1221 39.7024C59.4601 39.4339 59.7104 39.081 59.8728 38.6435C60.0352 38.206 60.1164 37.732 60.1164 37.2216C60.1164 36.7112 60.0352 36.2356 59.8728 35.7947C59.7104 35.3539 59.4601 34.9976 59.1221 34.7259C58.784 34.4541 58.3531 34.3182 57.8295 34.3182C57.3058 34.3182 56.8749 34.4541 56.5368 34.7259C56.1988 34.9976 55.9485 35.3539 55.7861 35.7947C55.6237 36.2356 55.5425 36.7112 55.5425 37.2216C55.5425 37.732 55.6237 38.206 55.7861 38.6435C55.9485 39.081 56.1988 39.4339 56.5368 39.7024C56.8749 39.9709 57.3058 40.1051 57.8295 40.1051ZM64.254 36.4062V41H63.0807V33.3636H64.2142V34.5568H64.3137C64.4926 34.169 64.7644 33.8575 65.129 33.6222C65.4936 33.3835 65.9642 33.2642 66.5409 33.2642C67.058 33.2642 67.5104 33.3703 67.8982 33.5824C68.286 33.7912 68.5876 34.1094 68.803 34.5369C69.0184 34.9612 69.1262 35.4981 69.1262 36.1477V41H67.9529V36.2273C67.9529 35.6274 67.7971 35.16 67.4855 34.8253C67.174 34.4872 66.7464 34.3182 66.2029 34.3182C65.8283 34.3182 65.4936 34.3994 65.1986 34.5618C64.9069 34.7242 64.6766 34.9612 64.5075 35.2727C64.3385 35.5843 64.254 35.9621 64.254 36.4062Z" fill="#E2D188"/>
<path d="M37.5 0L50 9.42857H46.875V22H40.625V15.7143H34.375V22H28.125V9.33429L25 9.42857L37.5 0Z" fill="#E2D188"/>
</svg>
