<svg width="82" height="46" viewBox="0 0 82 46" fill="none" xmlns="http://www.w3.org/2000/svg">
<path d="M4.36248 42.3485C3.62669 42.3485 2.99198 42.1861 2.45836 41.8613C1.92806 41.5332 1.51873 41.0758 1.23038 40.4892C0.945342 39.8992 0.802823 39.2131 0.802823 38.4309C0.802823 37.6487 0.945342 36.9593 1.23038 36.3627C1.51873 35.7628 1.91977 35.2955 2.43351 34.9608C2.95055 34.6227 3.55377 34.4537 4.24316 34.4537C4.64089 34.4537 5.03365 34.5199 5.42143 34.6525C5.80922 34.7851 6.1622 35.0005 6.48038 35.2988C6.79856 35.5938 7.05211 35.9849 7.24103 36.4721C7.42995 36.9593 7.52441 37.5592 7.52441 38.2718V38.769H1.63805V37.7548H6.33123C6.33123 37.3239 6.24506 36.9395 6.07271 36.6014C5.90368 36.2633 5.66172 35.9965 5.34686 35.801C5.0353 35.6054 4.66741 35.5076 4.24316 35.5076C3.77583 35.5076 3.37148 35.6236 3.0301 35.8556C2.69203 36.0843 2.43185 36.3826 2.24956 36.7505C2.06726 37.1184 1.97612 37.5128 1.97612 37.9338V38.6099C1.97612 39.1866 2.07555 39.6755 2.27441 40.0765C2.47659 40.4743 2.75666 40.7775 3.11461 40.9863C3.47257 41.1918 3.88852 41.2946 4.36248 41.2946C4.67072 41.2946 4.94913 41.2515 5.19771 41.1653C5.4496 41.0758 5.6667 40.9432 5.84899 40.7676C6.03128 40.5886 6.17214 40.3665 6.27157 40.1014L7.4051 40.4196C7.28578 40.804 7.08526 41.1421 6.80353 41.4338C6.52181 41.7221 6.1738 41.9475 5.7595 42.1099C5.3452 42.269 4.87953 42.3485 4.36248 42.3485ZM13.6842 37.2775V38.3713H9.22967V37.2775H13.6842ZM21.4759 34.5531C21.4163 34.0493 21.1743 33.6582 20.7501 33.3798C20.3258 33.1014 19.8055 32.9622 19.189 32.9622C18.7383 32.9622 18.3438 33.0351 18.0058 33.1809C17.671 33.3268 17.4092 33.5273 17.2203 33.7825C17.0347 34.0377 16.9419 34.3277 16.9419 34.6525C16.9419 34.9243 17.0065 35.158 17.1357 35.3535C17.2683 35.5458 17.4374 35.7065 17.6428 35.8358C17.8483 35.9617 18.0638 36.0661 18.2892 36.149C18.5145 36.2285 18.7217 36.2931 18.9106 36.3429L19.9447 36.6213C20.2098 36.6909 20.5048 36.787 20.8296 36.9096C21.1578 37.0323 21.471 37.1996 21.7693 37.4118C22.0709 37.6206 22.3195 37.889 22.515 38.2172C22.7106 38.5453 22.8083 38.948 22.8083 39.4252C22.8083 39.9754 22.6642 40.4726 22.3758 40.9167C22.0908 41.3609 21.6731 41.7138 21.123 41.9757C20.5761 42.2375 19.9115 42.3684 19.1294 42.3684C18.4002 42.3684 17.7688 42.2508 17.2352 42.0154C16.7049 41.7801 16.2873 41.452 15.9823 41.0311C15.6807 40.6101 15.51 40.1213 15.4703 39.5645H16.743C16.7761 39.9489 16.9054 40.2671 17.1308 40.519C17.3595 40.7676 17.6478 40.9532 17.9958 41.0758C18.3472 41.1951 18.725 41.2548 19.1294 41.2548C19.6 41.2548 20.0226 41.1786 20.3971 41.0261C20.7716 40.8703 21.0683 40.6549 21.287 40.3798C21.5058 40.1014 21.6151 39.7766 21.6151 39.4054C21.6151 39.0673 21.5207 38.7922 21.3318 38.5801C21.1428 38.368 20.8943 38.1956 20.586 38.063C20.2778 37.9305 19.9447 37.8145 19.5867 37.715L18.3339 37.3571C17.5384 37.1284 16.9087 36.8019 16.4447 36.3777C15.9807 35.9534 15.7487 35.3983 15.7487 34.7122C15.7487 34.1421 15.9028 33.6449 16.211 33.2207C16.5226 32.7931 16.9402 32.4617 17.4639 32.2264C17.9909 31.9877 18.5792 31.8684 19.2288 31.8684C19.885 31.8684 20.4684 31.9861 20.9788 32.2214C21.4892 32.4534 21.8936 32.7716 22.1919 33.176C22.4935 33.5803 22.6526 34.0394 22.6691 34.5531H21.4759ZM27.9974 34.5531V35.5474H24.04V34.5531H27.9974ZM25.1934 32.7235H26.3667V40.002C26.3667 40.3334 26.4148 40.582 26.5109 40.7477C26.6104 40.9101 26.7363 41.0195 26.8888 41.0758C27.0445 41.1288 27.2086 41.1554 27.3809 41.1554C27.5102 41.1554 27.6163 41.1487 27.6991 41.1355C27.782 41.1189 27.8483 41.1056 27.898 41.0957L28.1366 42.1497C28.0571 42.1795 27.9461 42.2093 27.8035 42.2392C27.661 42.2723 27.4804 42.2889 27.2616 42.2889C26.9302 42.2889 26.6054 42.2176 26.2872 42.0751C25.9723 41.9326 25.7105 41.7155 25.5017 41.4238C25.2962 41.1322 25.1934 40.7643 25.1934 40.3201V32.7235ZM29.7623 42.1895V34.5531H30.8959V35.7065H30.9754C31.1146 35.3287 31.3665 35.0221 31.7311 34.7868C32.0957 34.5514 32.5067 34.4338 32.964 34.4338C33.0502 34.4338 33.1579 34.4354 33.2872 34.4387C33.4165 34.4421 33.5142 34.447 33.5805 34.4537V35.6468C33.5407 35.6369 33.4496 35.622 33.3071 35.6021C33.1679 35.5789 33.0204 35.5673 32.8646 35.5673C32.4934 35.5673 32.162 35.6452 31.8703 35.801C31.5819 35.9534 31.3532 36.1655 31.1842 36.4373C31.0185 36.7058 30.9356 37.0124 30.9356 37.3571V42.1895H29.7623ZM37.9406 42.3485C37.2048 42.3485 36.5701 42.1861 36.0365 41.8613C35.5062 41.5332 35.0969 41.0758 34.8085 40.4892C34.5235 39.8992 34.3809 39.2131 34.3809 38.4309C34.3809 37.6487 34.5235 36.9593 34.8085 36.3627C35.0969 35.7628 35.4979 35.2955 36.0116 34.9608C36.5287 34.6227 37.1319 34.4537 37.8213 34.4537C38.219 34.4537 38.6118 34.5199 38.9996 34.6525C39.3873 34.7851 39.7403 35.0005 40.0585 35.2988C40.3767 35.5938 40.6302 35.9849 40.8192 36.4721C41.0081 36.9593 41.1025 37.5592 41.1025 38.2718V38.769H35.2162V37.7548H39.9094C39.9094 37.3239 39.8232 36.9395 39.6508 36.6014C39.4818 36.2633 39.2398 35.9965 38.925 35.801C38.6134 35.6054 38.2455 35.5076 37.8213 35.5076C37.354 35.5076 36.9496 35.6236 36.6082 35.8556C36.2702 36.0843 36.01 36.3826 35.8277 36.7505C35.6454 37.1184 35.5542 37.5128 35.5542 37.9338V38.6099C35.5542 39.1866 35.6537 39.6755 35.8525 40.0765C36.0547 40.4743 36.3348 40.7775 36.6927 40.9863C37.0507 41.1918 37.4666 41.2946 37.9406 41.2946C38.2488 41.2946 38.5273 41.2515 38.7758 41.1653C39.0277 41.0758 39.2448 40.9432 39.4271 40.7676C39.6094 40.5886 39.7503 40.3665 39.8497 40.1014L40.9832 40.4196C40.8639 40.804 40.6634 41.1421 40.3817 41.4338C40.0999 41.7221 39.7519 41.9475 39.3376 42.1099C38.9233 42.269 38.4577 42.3485 37.9406 42.3485ZM45.1345 42.3684C44.6506 42.3684 44.2114 42.2773 43.817 42.095C43.4226 41.9094 43.1094 41.6426 42.8774 41.2946C42.6454 40.9432 42.5294 40.519 42.5294 40.0218C42.5294 39.5843 42.6156 39.2297 42.7879 38.9579C42.9603 38.6828 43.1906 38.4674 43.479 38.3116C43.7673 38.1558 44.0855 38.0398 44.4335 37.9636C44.7848 37.8841 45.1378 37.8211 45.4925 37.7747C45.9565 37.715 46.3327 37.6703 46.621 37.6404C46.9127 37.6073 47.1248 37.5526 47.2574 37.4764C47.3933 37.4002 47.4612 37.2676 47.4612 37.0787V37.0389C47.4612 36.5484 47.327 36.1672 47.0585 35.8954C46.7934 35.6236 46.3907 35.4877 45.8504 35.4877C45.2903 35.4877 44.8511 35.6104 44.5329 35.8556C44.2148 36.1009 43.991 36.3627 43.8618 36.6412L42.7481 36.2434C42.947 35.7794 43.2122 35.4181 43.5436 35.1596C43.8783 34.8978 44.2429 34.7155 44.6373 34.6127C45.0351 34.5067 45.4262 34.4537 45.8106 34.4537C46.0559 34.4537 46.3376 34.4835 46.6558 34.5431C46.9773 34.5995 47.2872 34.7172 47.5855 34.8961C47.8871 35.0751 48.1373 35.3452 48.3362 35.7065C48.5351 36.0678 48.6345 36.5517 48.6345 37.1582V42.1895H47.4612V41.1554H47.4015C47.322 41.3211 47.1894 41.4984 47.0038 41.6873C46.8182 41.8762 46.5713 42.037 46.2631 42.1696C45.9548 42.3021 45.5786 42.3684 45.1345 42.3684ZM45.3135 41.3145C45.7775 41.3145 46.1686 41.2233 46.4868 41.041C46.8083 40.8587 47.0502 40.6234 47.2126 40.335C47.3783 40.0467 47.4612 39.7434 47.4612 39.4252V38.3514C47.4115 38.411 47.3021 38.4657 47.1331 38.5154C46.9674 38.5618 46.7751 38.6033 46.5564 38.6397C46.3409 38.6729 46.1305 38.7027 45.925 38.7292C45.7228 38.7524 45.5587 38.7723 45.4328 38.7889C45.1279 38.8287 44.8428 38.8933 44.5777 38.9828C44.3158 39.069 44.1037 39.1999 43.9413 39.3755C43.7822 39.5479 43.7027 39.7832 43.7027 40.0815C43.7027 40.4892 43.8535 40.7974 44.1551 41.0062C44.46 41.2117 44.8461 41.3145 45.3135 41.3145ZM50.776 42.1895V34.5531H51.9095V35.7463H52.009C52.1681 35.3386 52.4249 35.0221 52.7796 34.7967C53.1342 34.568 53.5601 34.4537 54.0573 34.4537C54.5611 34.4537 54.9803 34.568 55.3151 34.7967C55.6531 35.0221 55.9166 35.3386 56.1056 35.7463H56.1851C56.3807 35.3519 56.674 35.0386 57.0651 34.8066C57.4562 34.5713 57.9252 34.4537 58.472 34.4537C59.1548 34.4537 59.7133 34.6674 60.1475 35.095C60.5816 35.5192 60.7987 36.1805 60.7987 37.0787V42.1895H59.6254V37.0787C59.6254 36.5152 59.4713 36.1125 59.1631 35.8706C58.8548 35.6286 58.4919 35.5076 58.0743 35.5076C57.5374 35.5076 57.1214 35.67 56.8264 35.9949C56.5315 36.3163 56.384 36.724 56.384 37.2179V42.1895H55.1908V36.9593C55.1908 36.5252 55.0499 36.1755 54.7682 35.9103C54.4865 35.6419 54.1236 35.5076 53.6794 35.5076C53.3745 35.5076 53.0895 35.5888 52.8243 35.7512C52.5625 35.9136 52.3503 36.139 52.1879 36.4274C52.0289 36.7124 51.9493 37.0422 51.9493 37.4167V42.1895H50.776ZM62.944 42.1895V34.5531H64.1173V42.1895H62.944ZM63.5406 33.2804C63.3119 33.2804 63.1147 33.2025 62.949 33.0467C62.7865 32.8909 62.7053 32.7037 62.7053 32.4849C62.7053 32.2662 62.7865 32.0789 62.949 31.9231C63.1147 31.7673 63.3119 31.6895 63.5406 31.6895C63.7693 31.6895 63.9648 31.7673 64.1272 31.9231C64.2929 32.0789 64.3758 32.2662 64.3758 32.4849C64.3758 32.7037 64.2929 32.8909 64.1272 33.0467C63.9648 33.2025 63.7693 33.2804 63.5406 33.2804ZM67.4395 37.5957V42.1895H66.2662V34.5531H67.3998V35.7463H67.4992C67.6782 35.3585 67.95 35.0469 68.3145 34.8116C68.6791 34.573 69.1498 34.4537 69.7265 34.4537C70.2435 34.4537 70.6959 34.5597 71.0837 34.7718C71.4715 34.9806 71.7731 35.2988 71.9885 35.7264C72.204 36.1506 72.3117 36.6876 72.3117 37.3372V42.1895H71.1384V37.4167C71.1384 36.8168 70.9826 36.3495 70.6711 36.0147C70.3595 35.6767 69.932 35.5076 69.3884 35.5076C69.0139 35.5076 68.6791 35.5888 68.3841 35.7512C68.0925 35.9136 67.8621 36.1506 67.6931 36.4622C67.5241 36.7737 67.4395 37.1516 67.4395 37.5957ZM77.5381 45.2122C76.9713 45.2122 76.4841 45.1393 76.0764 44.9934C75.6688 44.8509 75.329 44.662 75.0573 44.4267C74.7888 44.1947 74.575 43.9461 74.4159 43.6809L75.3506 43.0247C75.4566 43.1639 75.5909 43.323 75.7533 43.502C75.9157 43.6842 76.1378 43.8417 76.4195 43.9743C76.7045 44.1101 77.0774 44.1781 77.5381 44.1781C78.1546 44.1781 78.6633 44.0289 79.0644 43.7306C79.4654 43.4324 79.6659 42.965 79.6659 42.3287V40.7775H79.5665C79.4803 40.9167 79.3577 41.0891 79.1986 41.2946C79.0428 41.4967 78.8174 41.6774 78.5225 41.8365C78.2308 41.9922 77.8364 42.0701 77.3392 42.0701C76.7227 42.0701 76.1692 41.9243 75.6787 41.6326C75.1915 41.341 74.8054 40.9167 74.5203 40.3599C74.2386 39.8031 74.0977 39.127 74.0977 38.3315C74.0977 37.5493 74.2353 36.8682 74.5104 36.2882C74.7855 35.7048 75.1683 35.2541 75.6588 34.9359C76.1494 34.6144 76.7161 34.4537 77.3591 34.4537C77.8563 34.4537 78.2507 34.5365 78.5423 34.7022C78.8373 34.8646 79.0627 35.0502 79.2185 35.2591C79.3776 35.4645 79.5002 35.6336 79.5864 35.7662H79.7057V34.5531H80.8392V42.4082C80.8392 43.0645 80.6901 43.5981 80.3918 44.0091C80.0968 44.4234 79.6991 44.7266 79.1986 44.9189C78.7014 45.1144 78.1479 45.2122 77.5381 45.2122ZM77.4983 41.0162C77.969 41.0162 78.3667 40.9084 78.6915 40.693C79.0163 40.4776 79.2632 40.1677 79.4323 39.7633C79.6013 39.359 79.6858 38.8751 79.6858 38.3116C79.6858 37.7614 79.603 37.2759 79.4372 36.8549C79.2715 36.434 79.0262 36.1042 78.7014 35.8656C78.3766 35.627 77.9756 35.5076 77.4983 35.5076C77.0012 35.5076 76.5869 35.6336 76.2554 35.8855C75.9273 36.1374 75.6804 36.4754 75.5146 36.8997C75.3522 37.3239 75.271 37.7946 75.271 38.3116C75.271 38.8419 75.3539 39.3109 75.5196 39.7186C75.6887 40.1229 75.9372 40.4411 76.2654 40.6731C76.5968 40.9018 77.0078 41.0162 77.4983 41.0162Z" fill="#E2D188"/>
<path d="M44.7333 21H35.9422C35.4227 21 35 20.5633 35 20.0261V0.973383C34.9998 0.43657 35.4227 0 35.9422 0H44.7333C45.2527 0 45.6752 0.436734 45.6752 0.973383V3.68287H45.0462V0.973383C45.0462 0.798492 44.9058 0.65625 44.7333 0.65625H35.9422C35.7694 0.65625 35.629 0.798492 35.629 0.973383V20.0263C35.629 20.2012 35.7696 20.3439 35.9422 20.3439H44.7333C44.906 20.3439 45.0462 20.2013 45.0462 20.0263V13.9076H45.6752V20.0263C45.6752 20.5633 45.2527 21 44.7333 21Z" fill="#E2D188"/>
<path d="M36.4001 17.4374H44.2751V18.0937H36.4001V17.4374Z" fill="#E2D188"/>
<path d="M36.4001 2.7446H44.2751V3.40085H36.4001V2.7446Z" fill="#E2D188"/>
<path d="M38.6596 1.44244H42.0158V2.09869H38.6596V1.44244Z" fill="#E2D188"/>
<path d="M39.9276 18.6595H40.7474V19.3157H39.9276V18.6595Z" fill="#E2D188"/>
<path d="M39.9145 15.7382V13.1062H39.1717C38.6972 13.1062 38.3113 12.6893 38.3113 12.1766V5.34454C38.3113 4.83168 38.6972 4.41447 39.1717 4.41447H48.1385C48.6135 4.41447 49 4.83168 49 5.34454V12.1766C49 12.6893 48.6135 13.1062 48.1385 13.1062H42.9357L39.9145 15.7382ZM39.1719 5.07072C39.0442 5.07072 38.9404 5.1936 38.9404 5.34454V12.1766C38.9404 12.3272 39.0442 12.4499 39.1719 12.4499H40.5437V14.3353L42.7077 12.4499H48.1388C48.2669 12.4499 48.3713 12.3272 48.3713 12.1766V5.34454C48.3713 5.1936 48.2669 5.07072 48.1388 5.07072H39.1719Z" fill="#E2D188"/>
<path d="M42.2839 11.0365V6.42159L46.1693 8.7288L42.2839 11.0365ZM42.9129 7.55018V9.90792L44.8978 8.7288L42.9129 7.55018Z" fill="#E2D188"/>
</svg>
