<svg width="76" height="76" viewBox="0 0 76 76" fill="none" xmlns="http://www.w3.org/2000/svg">
<path d="M37.3411 44.7188C36.9695 44.7188 36.6339 44.9432 36.4917 45.2888C36.3496 45.6336 36.4284 46.0305 36.6916 46.2943C36.9548 46.5582 37.3502 46.637 37.6937 46.4942C38.0371 46.3513 38.2615 46.015 38.2615 45.642C38.2601 45.1325 37.8485 44.7195 37.3411 44.7188Z" fill="black"/>
<path d="M48.6202 45.5907V43.0884H25.5542V45.5907C25.5542 47.0052 26.7259 48.1466 28.1354 48.1466H46.0397C47.4492 48.1466 48.6202 47.0052 48.6202 45.5907ZM37.3433 47.5942C36.8275 47.5942 36.3328 47.3887 35.9683 47.0228C35.6031 46.6569 35.399 46.16 35.399 45.6428C35.399 45.1256 35.6038 44.6288 35.9683 44.2629C36.3328 43.8969 36.8275 43.6915 37.344 43.6915C37.8599 43.6915 38.3546 43.8969 38.7191 44.2629C39.0836 44.6288 39.2884 45.1256 39.2884 45.6428C39.2877 46.16 39.0829 46.6562 38.7184 47.0221C38.3532 47.3873 37.8585 47.5935 37.3433 47.5942Z" fill="black"/>
<path d="M25.4648 14.3809H48.6209V42.3017H25.4648V14.3809Z" fill="#EDDC92"/>
<path d="M48.6209 11.093C48.6209 9.67852 47.4492 8.53711 46.0397 8.53711H28.1354C26.7259 8.53711 25.5542 9.67852 25.5542 11.093V13.6812H48.6202L48.6209 11.093ZM38.7761 11.6236H35.3997C35.1168 11.6236 34.8874 11.3934 34.8874 11.1091C34.8874 10.8248 35.1168 10.5947 35.3997 10.5947H38.7761C39.059 10.5947 39.2884 10.8248 39.2884 11.1091C39.2884 11.3927 39.059 11.6236 38.7761 11.6236Z" fill="black"/>
<path d="M47.0722 27.3669C47.0722 32.746 42.5376 37.1069 36.9438 37.1069C31.3501 37.1069 26.8154 32.746 26.8154 27.3669C26.8154 21.9878 31.3501 17.627 36.9438 17.627C42.5376 17.6277 47.0722 21.9885 47.0722 27.3669Z" fill="white"/>
<path d="M36.8854 20.2251C37.0796 20.2251 37.2386 20.3771 37.2386 20.5636V20.5875C37.8536 20.6698 38.4117 20.9415 38.8339 21.3377C39.3321 21.8049 39.6432 22.4467 39.6432 23.1602L39.6192 24.0413L39.8015 25.3044C39.8085 25.3452 39.805 25.3875 39.7902 25.4262C39.7755 25.4649 39.7501 25.4994 39.7171 25.5261L39.7396 25.5514L39.7811 25.5993L39.5974 25.8322L39.5939 25.8407L39.5932 25.8435C39.5369 25.9807 39.4616 26.1052 39.3744 26.1974C39.3012 26.272 39.2195 26.3262 39.1302 26.3473C39.1133 26.4001 39.0936 26.455 39.0802 26.5085C38.981 26.8294 38.9029 27.0813 38.6967 27.3318C38.6516 27.3867 38.6038 27.4388 38.5524 27.4887C38.5179 27.5239 38.4814 27.5577 38.4441 27.5894C38.4497 27.6499 38.4497 28.1833 38.4483 28.3353L38.3871 28.3494C38.2541 28.8004 37.8551 29.0939 37.385 29.2318C37.1176 29.3106 36.8262 29.3388 36.5483 29.3184C36.2689 29.298 36.0008 29.2269 35.7834 29.1072C35.4779 28.9391 35.2682 28.6752 35.2535 28.3191V28.2945L35.1873 28.2769V27.5922L35.1887 27.5204C34.9987 27.355 34.8425 27.1362 34.7376 26.9131C34.6645 26.7576 34.6068 26.5901 34.5392 26.3994L34.504 26.3009C34.428 26.291 34.3569 26.2579 34.2929 26.208C34.2127 26.1447 34.1437 26.0525 34.0874 25.9462C34.0494 25.8751 33.9748 25.7682 33.9481 25.5458C33.8672 25.4979 33.8179 25.4079 33.832 25.3115L34.0149 24.0469L33.9636 23.2728C33.9601 23.2165 33.9579 23.1652 33.9579 23.1194C33.9579 22.4298 34.2676 21.8112 34.7574 21.3538C35.2225 20.9197 35.8516 20.6325 36.5321 20.5713V20.5622C36.5321 20.3771 36.6911 20.2251 36.8854 20.2251Z" fill="black"/>
<path d="M37.1421 29.1051C37.5537 29.0171 37.9281 28.7969 38.1104 28.4584C38.1688 28.3261 38.3165 28.2452 38.4707 28.2705C38.7134 28.3113 38.8612 28.3346 39.0104 28.3571C40.783 28.6308 42.4649 28.8905 42.9293 31.048L43.4311 33.6454C43.4388 33.6721 43.443 33.7003 43.443 33.7291C43.443 33.9037 43.2953 34.0451 43.1137 34.0451H30.5202C30.5033 34.0444 30.485 34.043 30.4674 34.0402C30.2887 34.012 30.1663 33.8509 30.1958 33.6785L30.5702 31.49C31.0994 28.9116 32.5025 28.6449 34.5355 28.2586C34.7495 28.2177 34.9697 28.1762 35.1414 28.1417C35.3174 28.1073 35.4898 28.2135 35.5285 28.3824C35.5974 28.6787 35.7966 28.8856 36.0541 29.0073C36.209 29.0805 36.3842 29.1248 36.5664 29.141C36.7557 29.1579 36.9521 29.1452 37.1421 29.1051Z" fill="black"/>
<path d="M38.1937 27.6441C37.2726 28.3309 36.3613 28.2655 35.4591 27.6497L35.4549 28.3337C35.5499 29.3949 37.9235 29.4547 38.1937 28.3654V27.6441ZM39.5019 25.6266C39.4787 25.6005 39.4562 25.5745 39.4322 25.5485L39.4168 25.5386C38.7968 25.1206 37.8074 24.9116 36.8131 24.9116C35.8476 24.9116 34.8912 25.108 34.2783 25.4985L34.3642 25.8623L34.6464 26.1459L34.8209 26.3261C35.3121 28.2957 38.3183 28.4196 38.8447 26.3261L39.1543 26.0685L39.5019 25.6266Z" fill="#F6F2E0"/>
<path d="M39.5566 25.3437L39.3919 24.2009C39.3736 24.2002 39.3553 24.196 39.3377 24.1889C38.437 23.8125 37.5693 23.6584 36.7291 23.6759C35.8882 23.6935 35.0719 23.8842 34.2774 24.1967C34.2647 24.2016 34.252 24.2051 34.2394 24.2065L34.0747 25.3437C35.378 24.4528 38.2287 24.4479 39.5566 25.3437ZM39.3757 23.8835L39.394 23.2199C39.4306 21.8752 38.2456 20.7964 36.8417 20.7964H36.8023C35.3759 20.7964 34.119 21.8949 34.2098 23.2586L34.252 23.8899C35.0514 23.5845 35.8741 23.4001 36.7242 23.3818C37.5792 23.3635 38.4623 23.5148 39.3757 23.8835Z" fill="#800000"/>
<path d="M37.1955 21.9702H37.0731C37.0661 21.935 37.0534 21.904 37.0351 21.8773C37.0175 21.8505 36.9957 21.828 36.9697 21.8104C36.9443 21.7921 36.9162 21.7781 36.8852 21.7689C36.8543 21.7598 36.8219 21.7548 36.7881 21.7548C36.7269 21.7548 36.6713 21.7703 36.6213 21.8013C36.5721 21.8322 36.5327 21.878 36.5031 21.9378C36.4743 21.9983 36.4595 22.0722 36.4595 22.1595C36.4595 22.2467 36.4743 22.3206 36.5031 22.3811C36.5327 22.4417 36.5721 22.4867 36.6213 22.5177C36.6713 22.5486 36.7269 22.5641 36.7881 22.5641C36.8219 22.5641 36.8543 22.5599 36.8852 22.55C36.9162 22.5409 36.9443 22.5268 36.9697 22.5092C36.9957 22.4909 37.0175 22.4684 37.0351 22.4417C37.0534 22.4149 37.0661 22.384 37.0731 22.3488H37.1955C37.1864 22.4001 37.1695 22.4466 37.1449 22.4874C37.1203 22.5282 37.09 22.5627 37.0541 22.5915C37.0175 22.6197 36.9774 22.6415 36.9317 22.6563C36.8866 22.6711 36.8388 22.6788 36.7874 22.6788C36.7008 22.6788 36.6241 22.6577 36.5566 22.6155C36.489 22.5732 36.4363 22.5134 36.3975 22.436C36.3588 22.3586 36.3398 22.2664 36.3398 22.1595C36.3398 22.0532 36.3588 21.961 36.3975 21.8829C36.4363 21.8055 36.489 21.7457 36.5566 21.7035C36.6241 21.6612 36.7008 21.6401 36.7874 21.6401C36.8388 21.6401 36.8866 21.6472 36.9317 21.6627C36.9767 21.6774 37.0175 21.6992 37.0541 21.7281C37.0907 21.7562 37.121 21.7907 37.1449 21.8315C37.1695 21.8717 37.1857 21.9181 37.1955 21.9702Z" fill="white"/>
<path d="M38.4122 28.5823C38.18 29.0334 37.6951 29.3191 37.1702 29.4211V30.8869H36.4594L36.4587 29.4464C35.8669 29.3718 35.3448 29.0488 35.2054 28.4507C32.9726 28.9018 31.428 28.9355 30.891 31.5512L30.763 32.2957H33.4856V30.9706C33.4856 30.8897 33.5545 30.8236 33.639 30.8236C33.7234 30.8236 33.7924 30.8897 33.7924 30.9706V33.7299H39.8189V30.9706C39.8189 30.8897 39.8879 30.8236 39.9723 30.8236C40.0568 30.8236 40.1257 30.8897 40.1257 30.9706V32.2957H42.8336L42.6084 31.1283C42.1503 28.9552 40.2615 28.8926 38.4122 28.5823ZM30.6426 33.0022L30.5181 33.7299H33.4863V33.0022H30.6426ZM40.1264 33.7299H43.1108L42.9701 33.0022H40.1264V33.7299Z" fill="#6ECAD9"/>
<path d="M35.2851 32.2226H35.1655C35.1585 32.1895 35.1458 32.1606 35.1282 32.1353C35.1106 32.11 35.0895 32.0896 35.0649 32.0727C35.0402 32.0551 35.0128 32.0424 34.9825 32.034C34.9523 32.0255 34.9206 32.0213 34.8882 32.0213C34.8284 32.0213 34.7742 32.0361 34.7257 32.0649C34.6778 32.0938 34.6391 32.1367 34.611 32.193C34.5828 32.2493 34.5687 32.319 34.5687 32.4006C34.5687 32.4829 34.5828 32.5519 34.611 32.6082C34.6398 32.6645 34.6778 32.7074 34.7257 32.7363C34.7742 32.7651 34.8284 32.7799 34.8882 32.7799C34.9206 32.7799 34.9523 32.7757 34.9825 32.7672C35.0128 32.7588 35.0402 32.7461 35.0649 32.7285C35.0902 32.7109 35.1113 32.6898 35.1282 32.6652C35.1458 32.6399 35.1585 32.611 35.1655 32.5779H35.2851C35.276 32.6265 35.2598 32.6694 35.2359 32.7081C35.2119 32.7461 35.1824 32.7792 35.1472 32.8059C35.112 32.8327 35.0726 32.8531 35.0283 32.8664C34.9846 32.8805 34.9382 32.8876 34.8882 32.8876C34.8038 32.8876 34.7292 32.8679 34.6637 32.8284C34.5983 32.789 34.5469 32.7327 34.5089 32.6603C34.4716 32.5878 34.4526 32.5012 34.4526 32.4013C34.4526 32.3014 34.4716 32.2148 34.5089 32.1423C34.5462 32.0699 34.5983 32.0136 34.6637 31.9741C34.7292 31.9347 34.8038 31.915 34.8882 31.915C34.9382 31.915 34.9846 31.9221 35.0283 31.9361C35.0726 31.9502 35.112 31.9706 35.1472 31.9974C35.1824 32.0241 35.2119 32.0565 35.2359 32.0945C35.2598 32.1304 35.276 32.174 35.2851 32.2226Z" fill="black"/>
<path d="M36.3097 32.4008C36.3097 32.5007 36.2907 32.5873 36.2534 32.6598C36.2161 32.7323 36.164 32.7886 36.0985 32.828C36.0331 32.8674 35.9585 32.8871 35.8741 32.8871C35.7896 32.8871 35.715 32.8674 35.6496 32.828C35.5841 32.7886 35.5328 32.7323 35.4948 32.6598C35.4575 32.5873 35.4385 32.5007 35.4385 32.4008C35.4385 32.3009 35.4575 32.2143 35.4948 32.1418C35.5321 32.0694 35.5841 32.0131 35.6496 31.9737C35.715 31.9343 35.7896 31.9146 35.8741 31.9146C35.9585 31.9146 36.0331 31.9343 36.0985 31.9737C36.164 32.0131 36.2154 32.0694 36.2534 32.1418C36.2907 32.2143 36.3097 32.3009 36.3097 32.4008ZM36.1943 32.4008C36.1943 32.3185 36.1802 32.2495 36.1513 32.1932C36.1232 32.1369 36.0845 32.094 36.0359 32.0651C35.9881 32.0363 35.9339 32.0215 35.8741 32.0215C35.8143 32.0215 35.7601 32.0363 35.7115 32.0651C35.6637 32.094 35.625 32.1369 35.5968 32.1932C35.5687 32.2495 35.5546 32.3192 35.5546 32.4008C35.5546 32.4831 35.5687 32.5521 35.5968 32.6084C35.6257 32.6647 35.6637 32.7076 35.7115 32.7365C35.7601 32.7653 35.8143 32.7801 35.8741 32.7801C35.9339 32.7801 35.9874 32.7653 36.0359 32.7365C36.0845 32.7076 36.1225 32.6647 36.1513 32.6084C36.1802 32.5521 36.1943 32.4824 36.1943 32.4008Z" fill="black"/>
<path d="M36.5047 32.8742H36.3794L36.7411 31.9263H36.8642L37.226 32.8742H37.1007L36.8058 32.0762H36.7981L36.5047 32.8742ZM36.5511 32.504H37.0557V32.606H36.5511V32.504Z" fill="black"/>
<path d="M38.1274 32.2226H38.0078C38.0007 32.1895 37.9881 32.1606 37.9705 32.1353C37.9529 32.11 37.9318 32.0896 37.9071 32.0727C37.8825 32.0551 37.8551 32.0424 37.8248 32.034C37.7946 32.0255 37.7629 32.0213 37.7305 32.0213C37.6707 32.0213 37.6165 32.0361 37.568 32.0649C37.5201 32.0938 37.4814 32.1367 37.4533 32.193C37.4251 32.2493 37.411 32.319 37.411 32.4006C37.411 32.4829 37.4251 32.5519 37.4533 32.6082C37.4821 32.6645 37.5201 32.7074 37.568 32.7363C37.6165 32.7651 37.6707 32.7799 37.7305 32.7799C37.7636 32.7799 37.7946 32.7757 37.8248 32.7672C37.8551 32.7588 37.8825 32.7461 37.9071 32.7285C37.9325 32.7109 37.9536 32.6898 37.9705 32.6652C37.9881 32.6399 38.0007 32.611 38.0078 32.5779H38.1274C38.1183 32.6265 38.1021 32.6694 38.0781 32.7081C38.0542 32.7461 38.0247 32.7792 37.9895 32.8059C37.9543 32.8327 37.9149 32.8531 37.8706 32.8664C37.8269 32.8805 37.7805 32.8876 37.7305 32.8876C37.6461 32.8876 37.5715 32.8679 37.506 32.8284C37.4406 32.789 37.3892 32.7327 37.3512 32.6603C37.3139 32.5878 37.2949 32.5012 37.2949 32.4013C37.2949 32.3014 37.3139 32.2148 37.3512 32.1423C37.3885 32.0699 37.4406 32.0136 37.506 31.9741C37.5715 31.9347 37.6461 31.915 37.7305 31.915C37.7805 31.915 37.8269 31.9221 37.8706 31.9361C37.9149 31.9502 37.9543 31.9706 37.9895 31.9974C38.0247 32.0241 38.0542 32.0565 38.0781 32.0945C38.1021 32.1304 38.1183 32.174 38.1274 32.2226Z" fill="black"/>
<path d="M38.3203 32.8742V31.9263H38.4399V32.3485H38.9656V31.9263H39.0852V32.8742H38.9656V32.4498H38.4399V32.8742H38.3203Z" fill="black"/>
<path d="M18.0001 25.7353C18.0001 26.3074 17.5399 26.7705 16.972 26.7705C16.4041 26.7705 15.9439 26.3067 15.9439 25.7353V24.7002H14.9158C14.3479 24.7002 13.8877 24.2364 13.8877 23.665C13.8877 23.0929 14.3479 22.6299 14.9158 22.6299H15.9439V21.5947C15.9439 21.0226 16.4041 20.5596 16.972 20.5596C17.5399 20.5596 18.0001 21.0233 18.0001 21.5947V22.6299H19.0283C19.5961 22.6299 20.0564 23.0936 20.0564 23.665C20.0564 24.2371 19.5961 24.7002 19.0283 24.7002H18.0001V25.7353Z" fill="#800000"/>
<path d="M58.7912 18.832C58.7912 19.4041 58.3309 19.8671 57.763 19.8671C57.1952 19.8671 56.7349 19.4034 56.7349 18.832V17.7968H55.7068C55.1389 17.7968 54.6787 17.3331 54.6787 16.7617C54.6787 16.1896 55.1389 15.7265 55.7068 15.7265H56.7349V14.6914C56.7349 14.1193 57.1952 13.6562 57.763 13.6562C58.3309 13.6562 58.7912 14.12 58.7912 14.6914V15.7265H59.8193C60.3872 15.7265 60.8474 16.1903 60.8474 16.7617C60.8474 17.3338 60.3872 17.7968 59.8193 17.7968H58.7912V18.832Z" fill="#800000"/>
<path d="M65.3038 12.6196C65.3038 13.1917 64.8436 13.6548 64.2757 13.6548C63.7078 13.6548 63.2476 13.191 63.2476 12.6196C63.2476 12.0475 63.7078 11.5845 64.2757 11.5845C64.8436 11.5845 65.3038 12.0475 65.3038 12.6196Z" fill="#800000"/>
<path d="M54.6778 25.3896C54.6778 25.9618 54.2176 26.4248 53.6497 26.4248C53.0818 26.4248 52.6216 25.961 52.6216 25.3896C52.6216 24.8175 53.0818 24.3545 53.6497 24.3545C54.2169 24.3545 54.6778 24.8182 54.6778 25.3896Z" fill="#800000"/>
<path d="M24.5128 14.6904C24.5128 15.2625 24.0525 15.7256 23.4847 15.7256C22.9168 15.7256 22.4565 15.2618 22.4565 14.6904C22.4565 14.1183 22.9168 13.6553 23.4847 13.6553C24.0518 13.6546 24.5128 14.1183 24.5128 14.6904Z" fill="#800000"/>
<path d="M22.4561 34.3638C22.4561 34.9359 21.9959 35.3989 21.428 35.3989C20.8601 35.3989 20.3999 34.9352 20.3999 34.3638C20.3999 33.7917 20.8601 33.3286 21.428 33.3286C21.9959 33.3279 22.4561 33.7917 22.4561 34.3638Z" fill="#800000"/>
<path d="M34.623 39.8851C34.6596 39.6993 34.7349 39.4797 35.1403 39.2334C35.2528 39.1976 35.4147 39.1757 35.5829 39.2095C35.7504 39.2433 35.9875 39.3439 36.2373 39.6817C36.2767 39.7352 36.338 39.8745 36.338 40.1729V53.6699H38.7376V48.4203C38.7763 48.2662 38.9487 48.0079 39.309 47.8784C39.6264 47.7644 40.0458 47.7785 40.4764 48.2036C40.5271 48.2542 40.6228 48.4154 40.6228 48.7876V53.6699H43.0224V50.5279C43.1217 50.1655 43.4214 49.8692 43.7747 49.7735C44.0717 49.6933 44.5213 49.7264 44.9689 50.3583C45.0189 50.4287 45.0794 50.5835 45.0794 50.8713V53.6692H47.479V52.1112C47.5606 51.8783 47.7359 51.7059 47.9329 51.6313C48.1187 51.5616 48.4297 51.5391 48.8364 51.8699C48.8681 51.8952 48.9117 51.9459 48.9518 52.0556C48.9934 52.1703 49.0208 52.3287 49.0208 52.5208V61.5824C48.9955 62.1573 48.7731 63.0341 48.2193 63.7266C47.7042 64.3704 46.84 64.9419 45.2933 64.8863L45.2074 67.3007C47.4994 67.383 49.0919 66.4872 50.0883 65.2416C51.0383 64.0531 51.3839 62.6302 51.4197 61.6513L51.4204 61.6288V59.3516V57.0744V52.5201C51.4204 51.7453 51.2079 50.6926 50.3438 49.9896C49.3473 49.1789 48.1785 48.9833 47.1532 49.345C47.0884 49.212 47.0117 49.0811 46.9217 48.953C45.9294 47.5533 44.4756 47.0797 43.1505 47.4386C43.0393 47.4689 42.9303 47.5048 42.8233 47.5456C42.6917 47.1705 42.4827 46.799 42.1569 46.4774C41.1196 45.4521 39.8375 45.2177 38.7369 45.5253V40.1701C38.7369 39.6078 38.632 38.8731 38.1613 38.2363C36.9058 36.539 35.1367 36.6114 34.1621 37.0196L34.0981 37.0463L34.0376 37.0801C32.9616 37.686 32.4437 38.5171 32.2677 39.4129C32.1882 39.8168 32.1854 40.1989 32.1946 40.5015C32.1995 40.6725 32.2058 40.7914 32.2114 40.8928C32.2178 41.0138 32.2234 41.1102 32.2234 41.2404V50.0325C31.0025 49.6827 29.5803 49.9297 28.5754 51.1345C28.0336 51.784 27.9414 52.57 27.9414 53.1098V61.7562C27.9104 62.7667 28.1722 64.2445 29.1144 65.4675C30.1193 66.7722 31.7787 67.63 34.1917 67.4681L34.0319 65.0573C32.3311 65.1713 31.4768 64.5914 31.0109 63.9862C30.4895 63.3093 30.3192 62.4184 30.341 61.8188L30.3417 61.797V53.1147C30.3417 52.9697 30.3558 52.8621 30.3755 52.7875C30.3938 52.7164 30.4135 52.6932 30.4135 52.6932C30.6556 52.4033 30.9673 52.2921 31.3001 52.3111C31.6541 52.3315 31.9884 52.5018 32.1903 52.7354C32.1924 52.7417 32.1967 52.753 32.2016 52.7706C32.2114 52.8114 32.2206 52.8691 32.2248 52.95V58.1567H34.6266V53.0521C34.6266 53.0042 34.6258 52.9529 34.6237 52.8994V41.2453C34.6237 41.0793 34.6125 40.8456 34.6033 40.6599C34.5991 40.5677 34.5949 40.4874 34.5935 40.4333C34.5878 40.1975 34.5956 40.0265 34.623 39.8851Z" fill="#800000"/>
</svg>
