<?xml version="1.0" encoding="utf-8"?>
<!-- Generator: Adobe Illustrator 24.0.1, SVG Export Plug-In . SVG Version: 6.00 Build 0)  -->
<svg version="1.1" id="Layer_1" xmlns="http://www.w3.org/2000/svg" xmlns:xlink="http://www.w3.org/1999/xlink" x="0px" y="0px"
	 viewBox="0 0 1080 1080" style="enable-background:new 0 0 1080 1080;" xml:space="preserve">
<style type="text/css">
	.st0{fill:#EDDC92;}
	.st1{fill:#FFFFFF;}
	.st2{fill:#F6F2E0;}
	.st3{fill:#800000;}
	.st4{fill:#6ECAD9;}
</style>
<path d="M530.64,635.48c-5.28,0-10.05,3.19-12.07,8.1c-2.02,4.9-0.9,10.54,2.84,14.29c3.74,3.75,9.36,4.87,14.24,2.84
	c4.88-2.03,8.07-6.81,8.07-12.11C543.7,641.36,537.85,635.49,530.64,635.48z"/>
<path d="M690.92,647.87v-35.56H363.14v35.56c0,20.1,16.65,36.32,36.68,36.32h254.43C674.28,684.19,690.92,667.97,690.92,647.87z
	 M530.67,676.34c-7.33,0-14.36-2.92-19.54-8.12c-5.19-5.2-8.09-12.26-8.09-19.61c0-7.35,2.91-14.41,8.09-19.61
	c5.18-5.2,12.21-8.12,19.55-8.12c7.33,0,14.36,2.92,19.54,8.12c5.18,5.2,8.09,12.26,8.09,19.61c-0.01,7.35-2.92,14.4-8.1,19.6
	C545.02,673.4,537.99,676.33,530.67,676.34z"/>
<path class="st0" d="M361.87,204.36h329.06v396.77H361.87V204.36z"/>
<path d="M690.93,157.64c0-20.1-16.65-36.32-36.68-36.32H399.82c-20.03,0-36.68,16.22-36.68,36.32v36.78h327.78L690.93,157.64z
	 M551.03,165.18h-47.98c-4.02,0-7.28-3.27-7.28-7.31c0-4.04,3.26-7.31,7.28-7.31h47.98c4.02,0,7.28,3.27,7.28,7.31
	C558.31,161.9,555.05,165.18,551.03,165.18z"/>
<path class="st1" d="M668.92,388.9c0,76.44-64.44,138.41-143.93,138.41c-79.49,0-143.93-61.97-143.93-138.41
	c0-76.44,64.44-138.41,143.93-138.41C604.48,250.5,668.92,312.47,668.92,388.9z"/>
<path d="M524.16,287.41c2.76,0,5.02,2.16,5.02,4.81v0.34c8.74,1.17,16.67,5.03,22.67,10.66c7.08,6.64,11.5,15.76,11.5,25.9
	l-0.34,12.52l2.59,17.95c0.1,0.58,0.05,1.18-0.16,1.73c-0.21,0.55-0.57,1.04-1.04,1.42l0.32,0.36l0.59,0.68l-2.61,3.31l-0.05,0.12
	l-0.01,0.04c-0.8,1.95-1.87,3.72-3.11,5.03c-1.04,1.06-2.2,1.83-3.47,2.13c-0.24,0.75-0.52,1.53-0.71,2.29
	c-1.41,4.56-2.52,8.14-5.45,11.7c-0.64,0.78-1.32,1.52-2.05,2.23c-0.49,0.5-1.01,0.98-1.54,1.43c0.08,0.86,0.08,8.44,0.06,10.6
	l-0.87,0.2c-1.89,6.41-7.56,10.58-14.24,12.54c-3.8,1.12-7.94,1.52-11.89,1.23c-3.97-0.29-7.78-1.3-10.87-3
	c-4.34-2.39-7.32-6.14-7.53-11.2v-0.35l-0.94-0.25v-9.73l0.02-1.02c-2.7-2.35-4.92-5.46-6.41-8.63c-1.04-2.21-1.86-4.59-2.82-7.3
	l-0.5-1.4c-1.08-0.14-2.09-0.61-3-1.32c-1.14-0.9-2.12-2.21-2.92-3.72c-0.54-1.01-1.6-2.53-1.98-5.69
	c-1.15-0.68-1.85-1.96-1.65-3.33l2.6-17.97l-0.73-11c-0.05-0.8-0.08-1.53-0.08-2.18c0-9.8,4.4-18.59,11.36-25.09
	c6.61-6.17,15.55-10.25,25.22-11.12v-0.13C519.14,289.57,521.4,287.41,524.16,287.41z"/>
<path d="M527.81,413.6c5.85-1.25,11.17-4.38,13.76-9.19c0.83-1.88,2.93-3.03,5.12-2.67c3.45,0.58,5.55,0.91,7.67,1.23
	c25.19,3.89,49.09,7.58,55.69,38.24l7.13,36.91c0.11,0.38,0.17,0.78,0.17,1.19c0,2.48-2.1,4.49-4.68,4.49H433.71
	c-0.24-0.01-0.5-0.03-0.75-0.07c-2.54-0.4-4.28-2.69-3.86-5.14l5.32-31.1c7.52-36.64,27.46-40.43,56.35-45.92
	c3.04-0.58,6.17-1.17,8.61-1.66c2.5-0.49,4.95,1.02,5.5,3.42c0.98,4.21,3.81,7.15,7.47,8.88c2.2,1.04,4.69,1.67,7.28,1.9
	C522.32,414.35,525.11,414.17,527.81,413.6z"/>
<path class="st2" d="M542.75,392.84c-13.09,9.76-26.04,8.83-38.86,0.08l-0.06,9.72c1.35,15.08,35.08,15.93,38.92,0.45V392.84z
	 M561.34,364.17c-0.33-0.37-0.65-0.74-0.99-1.11l-0.22-0.14c-8.81-5.94-22.87-8.91-37-8.91c-13.72,0-27.31,2.79-36.02,8.34
	l1.22,5.17l4.01,4.03l2.48,2.56c6.98,27.99,49.7,29.75,57.18,0l4.4-3.66L561.34,364.17z"/>
<path class="st3" d="M562.12,360.15l-2.34-16.24c-0.26-0.01-0.52-0.07-0.77-0.17c-12.8-5.35-25.13-7.54-37.07-7.29
	c-11.95,0.25-23.55,2.96-34.84,7.4c-0.18,0.07-0.36,0.12-0.54,0.14l-2.34,16.16C502.74,347.49,543.25,347.42,562.12,360.15z
	 M559.55,339.4l0.26-9.43c0.52-19.11-16.32-34.44-36.27-34.44h-0.56c-20.27,0-38.13,15.61-36.84,34.99l0.6,8.97
	c11.36-4.34,23.05-6.96,35.13-7.22C534.02,332.01,546.57,334.16,559.55,339.4z"/>
<path class="st1" d="M528.57,312.21h-1.74c-0.1-0.5-0.28-0.94-0.54-1.32c-0.25-0.38-0.56-0.7-0.93-0.95
	c-0.36-0.26-0.76-0.46-1.2-0.59c-0.44-0.13-0.9-0.2-1.38-0.2c-0.87,0-1.66,0.22-2.37,0.66c-0.7,0.44-1.26,1.09-1.68,1.94
	c-0.41,0.86-0.62,1.91-0.62,3.15c0,1.24,0.21,2.29,0.62,3.15c0.42,0.86,0.98,1.5,1.68,1.94c0.71,0.44,1.5,0.66,2.37,0.66
	c0.48,0,0.94-0.06,1.38-0.2c0.44-0.13,0.84-0.33,1.2-0.58c0.37-0.26,0.68-0.58,0.93-0.96c0.26-0.38,0.44-0.82,0.54-1.32h1.74
	c-0.13,0.73-0.37,1.39-0.72,1.97c-0.35,0.58-0.78,1.07-1.29,1.48c-0.52,0.4-1.09,0.71-1.74,0.92c-0.64,0.21-1.32,0.32-2.05,0.32
	c-1.23,0-2.32-0.3-3.28-0.9c-0.96-0.6-1.71-1.45-2.26-2.55c-0.55-1.1-0.82-2.41-0.82-3.93c0-1.51,0.27-2.82,0.82-3.93
	c0.55-1.1,1.3-1.95,2.26-2.55c0.96-0.6,2.05-0.9,3.28-0.9c0.73,0,1.41,0.1,2.05,0.32c0.64,0.21,1.22,0.52,1.74,0.93
	c0.52,0.4,0.95,0.89,1.29,1.47C528.2,310.81,528.43,311.47,528.57,312.21z"/>
<path class="st4" d="M545.86,406.17c-3.3,6.41-10.19,10.47-17.65,11.92v20.83h-10.1l-0.01-20.47c-8.41-1.06-15.83-5.65-17.81-14.15
	c-31.73,6.41-53.68,6.89-61.31,44.06l-1.82,10.58h38.69v-18.83c0-1.15,0.98-2.09,2.18-2.09s2.18,0.94,2.18,2.09v39.21h85.64v-39.21
	c0-1.15,0.98-2.09,2.18-2.09s2.18,0.94,2.18,2.09v18.83h38.48l-3.2-16.59C598.98,411.47,572.14,410.58,545.86,406.17z
	 M435.45,468.98l-1.77,10.34h42.18v-10.34H435.45z M570.22,479.32h42.41l-2-10.34h-40.41V479.32z"/>
<path d="M501.42,457.9h-1.7c-0.1-0.47-0.28-0.88-0.53-1.24c-0.25-0.36-0.55-0.65-0.9-0.89c-0.35-0.25-0.74-0.43-1.17-0.55
	c-0.43-0.12-0.88-0.18-1.34-0.18c-0.85,0-1.62,0.21-2.31,0.62c-0.68,0.41-1.23,1.02-1.63,1.82c-0.4,0.8-0.6,1.79-0.6,2.95
	c0,1.17,0.2,2.15,0.6,2.95c0.41,0.8,0.95,1.41,1.63,1.82c0.69,0.41,1.46,0.62,2.31,0.62c0.46,0,0.91-0.06,1.34-0.18
	c0.43-0.12,0.82-0.3,1.17-0.55c0.36-0.25,0.66-0.55,0.9-0.9c0.25-0.36,0.43-0.77,0.53-1.24h1.7c-0.13,0.69-0.36,1.3-0.7,1.85
	c-0.34,0.54-0.76,1.01-1.26,1.39c-0.5,0.38-1.06,0.67-1.69,0.86c-0.62,0.2-1.28,0.3-1.99,0.3c-1.2,0-2.26-0.28-3.19-0.84
	c-0.93-0.56-1.66-1.36-2.2-2.39c-0.53-1.03-0.8-2.26-0.8-3.68c0-1.42,0.27-2.65,0.8-3.68c0.53-1.03,1.27-1.83,2.2-2.39
	c0.93-0.56,1.99-0.84,3.19-0.84c0.71,0,1.37,0.1,1.99,0.3c0.63,0.2,1.19,0.49,1.69,0.87c0.5,0.38,0.92,0.84,1.26,1.38
	C501.06,456.59,501.29,457.21,501.42,457.9z"/>
<path d="M515.98,460.43c0,1.42-0.27,2.65-0.8,3.68c-0.53,1.03-1.27,1.83-2.2,2.39c-0.93,0.56-1.99,0.84-3.19,0.84
	s-2.26-0.28-3.19-0.84c-0.93-0.56-1.66-1.36-2.2-2.39c-0.53-1.03-0.8-2.26-0.8-3.68c0-1.42,0.27-2.65,0.8-3.68
	c0.53-1.03,1.27-1.83,2.2-2.39c0.93-0.56,1.99-0.84,3.19-0.84s2.26,0.28,3.19,0.84c0.93,0.56,1.66,1.36,2.2,2.39
	C515.71,457.78,515.98,459.01,515.98,460.43z M514.34,460.43c0-1.17-0.2-2.15-0.61-2.95c-0.4-0.8-0.95-1.41-1.64-1.82
	c-0.68-0.41-1.45-0.62-2.3-0.62c-0.85,0-1.62,0.21-2.31,0.62c-0.68,0.41-1.23,1.02-1.63,1.82c-0.4,0.8-0.6,1.79-0.6,2.95
	c0,1.17,0.2,2.15,0.6,2.95c0.41,0.8,0.95,1.41,1.63,1.82c0.69,0.41,1.46,0.62,2.31,0.62c0.85,0,1.61-0.21,2.3-0.62
	c0.69-0.41,1.23-1.02,1.64-1.82C514.14,462.58,514.34,461.59,514.34,460.43z"/>
<path d="M518.75,467.16h-1.78l5.14-13.47h1.75l5.14,13.47h-1.78l-4.19-11.34h-0.11L518.75,467.16z M519.41,461.9h7.17v1.45h-7.17
	V461.9z"/>
<path d="M541.81,457.9h-1.7c-0.1-0.47-0.28-0.88-0.53-1.24c-0.25-0.36-0.55-0.65-0.9-0.89c-0.35-0.25-0.74-0.43-1.17-0.55
	c-0.43-0.12-0.88-0.18-1.34-0.18c-0.85,0-1.62,0.21-2.31,0.62c-0.68,0.41-1.23,1.02-1.63,1.82c-0.4,0.8-0.6,1.79-0.6,2.95
	c0,1.17,0.2,2.15,0.6,2.95c0.41,0.8,0.95,1.41,1.63,1.82c0.69,0.41,1.46,0.62,2.31,0.62c0.47,0,0.91-0.06,1.34-0.18
	c0.43-0.12,0.82-0.3,1.17-0.55c0.36-0.25,0.66-0.55,0.9-0.9c0.25-0.36,0.43-0.77,0.53-1.24h1.7c-0.13,0.69-0.36,1.3-0.7,1.85
	c-0.34,0.54-0.76,1.01-1.26,1.39c-0.5,0.38-1.06,0.67-1.69,0.86c-0.62,0.2-1.28,0.3-1.99,0.3c-1.2,0-2.26-0.28-3.19-0.84
	c-0.93-0.56-1.66-1.36-2.2-2.39c-0.53-1.03-0.8-2.26-0.8-3.68c0-1.42,0.27-2.65,0.8-3.68c0.53-1.03,1.27-1.83,2.2-2.39
	c0.93-0.56,1.99-0.84,3.19-0.84c0.71,0,1.37,0.1,1.99,0.3c0.63,0.2,1.19,0.49,1.69,0.87c0.5,0.38,0.92,0.84,1.26,1.38
	C541.45,456.59,541.68,457.21,541.81,457.9z"/>
<path d="M544.55,467.16v-13.47h1.7v6h7.47v-6h1.7v13.47h-1.7v-6.03h-7.47v6.03H544.55z"/>
<path class="st3" d="M255.79,365.71c0,8.13-6.54,14.71-14.61,14.71s-14.61-6.59-14.61-14.71v-14.71h-14.61
	c-8.07,0-14.61-6.59-14.61-14.71c0-8.13,6.54-14.71,14.61-14.71h14.61v-14.71c0-8.13,6.54-14.71,14.61-14.71s14.61,6.59,14.61,14.71
	v14.71h14.61c8.07,0,14.61,6.59,14.61,14.71c0,8.13-6.54,14.71-14.61,14.71h-14.61V365.71z"/>
<path class="st3" d="M835.45,267.61c0,8.13-6.54,14.71-14.61,14.71c-8.07,0-14.61-6.59-14.61-14.71V252.9h-14.61
	c-8.07,0-14.61-6.59-14.61-14.71c0-8.13,6.54-14.71,14.61-14.71h14.61v-14.71c0-8.13,6.54-14.71,14.61-14.71
	c8.07,0,14.61,6.59,14.61,14.71v14.71h14.61c8.07,0,14.61,6.59,14.61,14.71c0,8.13-6.54,14.71-14.61,14.71h-14.61V267.61z"/>
<path class="st3" d="M928,179.33c0,8.13-6.54,14.71-14.61,14.71c-8.07,0-14.61-6.59-14.61-14.71c0-8.13,6.54-14.71,14.61-14.71
	C921.46,164.62,928,171.2,928,179.33z"/>
<path class="st3" d="M777,360.8c0,8.13-6.54,14.71-14.61,14.71c-8.07,0-14.61-6.59-14.61-14.71c0-8.13,6.54-14.71,14.61-14.71
	C770.45,346.09,777,352.68,777,360.8z"/>
<path class="st3" d="M348.34,208.76c0,8.13-6.54,14.71-14.61,14.71c-8.07,0-14.61-6.59-14.61-14.71c0-8.13,6.54-14.71,14.61-14.71
	C341.79,194.04,348.34,200.63,348.34,208.76z"/>
<path class="st3" d="M319.11,488.33c0,8.13-6.54,14.71-14.61,14.71c-8.07,0-14.61-6.59-14.61-14.71c0-8.13,6.54-14.71,14.61-14.71
	C312.57,473.61,319.11,480.2,319.11,488.33z"/>
<path class="st3" d="M492.01,566.79c0.52-2.64,1.59-5.76,7.35-9.26c1.6-0.51,3.9-0.82,6.29-0.34c2.38,0.48,5.75,1.91,9.3,6.71
	c0.56,0.76,1.43,2.74,1.43,6.98v191.8h34.1v-74.6c0.55-2.19,3-5.86,8.12-7.7c4.51-1.62,10.47-1.42,16.59,4.62
	c0.72,0.72,2.08,3.01,2.08,8.3v69.38h34.1v-44.65c1.41-5.15,5.67-9.36,10.69-10.72c4.22-1.14,10.61-0.67,16.97,8.31
	c0.71,1,1.57,3.2,1.57,7.29v39.76h34.1v-22.14c1.16-3.31,3.65-5.76,6.45-6.82c2.64-0.99,7.06-1.31,12.84,3.39
	c0.45,0.36,1.07,1.08,1.64,2.64c0.59,1.63,0.98,3.88,0.98,6.61v128.77c-0.36,8.17-3.52,20.63-11.39,30.47
	c-7.32,9.15-19.6,17.27-41.58,16.48l-1.22,34.31c32.57,1.17,55.2-11.56,69.36-29.26c13.5-16.89,18.41-37.11,18.92-51.02l0.01-0.32
	v-32.36v-32.36v-64.72c0-11.01-3.02-25.97-15.3-35.96c-14.16-11.52-30.77-14.3-45.34-9.16c-0.92-1.89-2.01-3.75-3.29-5.57
	c-14.1-19.89-34.76-26.62-53.59-21.52c-1.58,0.43-3.13,0.94-4.65,1.52c-1.87-5.33-4.84-10.61-9.47-15.18
	c-14.74-14.57-32.96-17.9-48.6-13.53v-76.1c0-7.99-1.49-18.43-8.18-27.48c-17.84-24.12-42.98-23.09-56.83-17.29l-0.91,0.38
	l-0.86,0.48c-15.29,8.61-22.65,20.42-25.15,33.15c-1.13,5.74-1.17,11.17-1.04,15.47c0.07,2.43,0.16,4.12,0.24,5.56
	c0.09,1.72,0.17,3.09,0.17,4.94v124.94c-17.35-4.97-37.56-1.46-51.84,15.66c-7.7,9.23-9.01,20.4-9.01,28.07v122.87
	c-0.44,14.36,3.28,35.36,16.67,52.74c14.28,18.54,37.86,30.73,72.15,28.43l-2.27-34.26c-24.17,1.62-36.31-6.62-42.93-15.22
	c-7.41-9.62-9.83-22.28-9.52-30.8l0.01-0.31V754.79c0-2.06,0.2-3.59,0.48-4.65c0.26-1.01,0.54-1.34,0.54-1.34
	c3.44-4.12,7.87-5.7,12.6-5.43c5.03,0.29,9.78,2.71,12.65,6.03c0.03,0.09,0.09,0.25,0.16,0.5c0.14,0.58,0.27,1.4,0.33,2.55v73.99
	h34.13v-72.54c0-0.68-0.01-1.41-0.04-2.17V586.12c0-2.36-0.16-5.68-0.29-8.32c-0.06-1.31-0.12-2.45-0.14-3.22
	C491.51,571.23,491.62,568.8,492.01,566.79z"/>
</svg>
