<?xml version="1.0" encoding="utf-8"?>
<!-- Generator: Adobe Illustrator 24.0.1, SVG Export Plug-In . SVG Version: 6.00 Build 0)  -->
<svg version="1.1" id="Layer_1" xmlns="http://www.w3.org/2000/svg" xmlns:xlink="http://www.w3.org/1999/xlink" x="0px" y="0px"
	 viewBox="0 0 1080 1080" style="enable-background:new 0 0 1080 1080;" xml:space="preserve">
<style type="text/css">
	.st0{fill:#EEDC92;}
	.st1{fill:#800000;}
	.st2{fill:#43C2FE;}
	.st3{fill:#FFBD11;}
	.st4{fill:#FFFFFF;}
</style>
<g>
	<path class="st0" d="M498.01,613.94c9.33,4.71,19.84,6.81,28.6,12.84c1.32,0.91,3.09,1.6,4.66,1.64
		c6.99,0.17,13.99,0.25,20.97-0.01c4.59-0.17,6.94-3.11,6.93-7.62c-0.01-4.23-2.28-7.13-6.54-7.12c-8.62,0.03-17.2-0.49-25.89,0.69
		c-9.25,1.25-16.8-4.59-24.48-8.92c-9.82-5.54-13.08-14.72-14.08-25.29c-1.43-15.13-2.42-30.3-0.04-45.36
		c2.49-15.75,10.87-27.85,25.41-34.72c18.51-8.74,37.68-9.37,56.75-1.82c17.39,6.88,27.93,19.93,29.77,38.5
		c3,30.41,0.34,60.16-14.17,87.85c-1.45,2.76-2.9,5.67-4.99,7.92c-4.21,4.53-3.83,7,2.09,9.69c12.27,5.58,24.31,11.69,36.28,17.91
		c26.97,14.02,44.85,35.11,50.35,65.66c2.36,13.14-0.88,18.27-13.95,21.11c-22.14,4.81-44.57,7.86-67.11,9.81
		c-52.18,4.51-103.92,0.98-155.16-9.69c-14.09-2.93-17.15-6.8-14.91-20.85c4.9-30.66,22.92-51.81,49.88-65.88
		c12.81-6.69,25.84-12.94,38.87-19.2c3.48-1.67,4.01-2.93,1.58-6.29c-4.62-6.38-9.6-12.7-10.79-20.9L498.01,613.94z"/>
	<path class="st0" d="M670.5,264.36c0,0.24-0.04,0.49,0.01,0.72c3,16.29-3.82,25.86-19.57,30.61c-8.22,2.48-9.95,7.45-4.53,14.31
		c11.11,14.05,8.7,26.36-2.33,38.63c-1.28,1.43-2.47,2.98-3.47,4.62c-6.46,10.52-15.18,14.25-27,9.33
		c-1.97-0.82-4.18-1.16-6.31-1.51c-5.37-0.9-8.91,0.89-9.56,6.76c-0.29,2.63-1.2,5.3-0.94,7.87c1.29,13.09-5.96,19.35-17.34,22.85
		c-6.44,1.98-12.76,4.28-19.4,5.64c-6.33,1.3-11.3-0.44-15.28-5.53c-2.52-3.22-5.32-6.23-8.03-9.3c-5.25-5.95-7.82-5.9-13.25,0.27
		c-3.02,3.44-5.95,6.97-9.01,10.37c-3.68,4.1-8.11,5.56-13.65,4.28c-8.94-2.07-17.6-4.88-26.08-8.41
		c-6.45-2.69-10.22-6.83-10.4-14.07c-0.11-4.32-0.73-8.63-1.15-12.94c-0.61-6.27-4.12-8.9-10.23-7.66c-1.18,0.24-2.41,0.39-3.5,0.86
		c-14.91,6.47-24.87,0.21-32.38-12.49c-0.61-1.03-1.27-2.06-2.06-2.96c-9.81-11.17-11.41-22.15-1.87-34.97
		c7-9.4,5.23-12.56-5.47-17.15c-3.1-1.33-6.18-2.69-9.28-4.03c-5.72-2.49-8.45-6.97-8.5-13.08c-0.07-8.92,0.03-17.84-0.04-26.76
		c-0.05-6.81,3.02-11.44,9.27-14.08c4.21-1.78,8.43-3.57,12.55-5.55c5.32-2.55,6.61-6.56,3.79-11.8c-0.57-1.06-1.05-2.22-1.82-3.12
		c-10.8-12.61-8.39-24.5,1.85-36.03c1.28-1.44,2.51-2.96,3.48-4.61c6.83-11.69,16.05-14.89,29.27-10.58
		c12.49,4.07,14.93,1.94,15.03-11.54c0.1-13.08,5.11-21.41,18.27-24.63c6.51-1.59,12.75-4.22,19.38-5.65
		c5.65-1.21,9.95,0.42,13.61,4.43c3.41,3.74,6.65,7.63,9.96,11.46c3.73,4.32,7.44,4.97,11.3,0.1c1.49-1.89,3.56-3.4,4.76-5.43
		c6.99-11.85,16.99-12.8,28.64-8.22c0.89,0.35,1.82,0.66,2.75,0.87c16.36,3.57,26.6,11.68,25.8,30.44
		c-0.4,9.41,3.38,11.92,12.26,8.62c15.49-5.76,26.01-0.98,33.61,12.82c1.27,2.31,2.94,4.42,4.58,6.49
		c7.36,9.27,8.37,18.56,0.58,28.19c-1.64,2.03-2.82,4.51-3.88,6.92c-2.12,4.87-1.45,8.92,3.95,11.23c0.22,0.09,0.41,0.27,0.64,0.33
		C666.71,235.83,674.91,246.09,670.5,264.36z M617,336.35c5.82,0.2,9.76-6.65,7.04-12.15c-2.96-5.98-9.73-11.47-8.16-18.02
		c3.22-13.44,3.59-29.63,21.95-33.65c4.25-0.93,6.88-3.22,6.81-8.56c-0.07-4.95-1.81-7.25-6.2-9.08
		c-6.49-2.71-14.02-4.14-16.84-12.27c-4.72-13.61-9.41-27.05,2.48-39.61c2.38-2.51,1.3-5.06-0.28-7.85
		c-2.79-4.95-6.71-4.4-11.21-3.43c-6.45,1.38-13.15,5-19.51,0.5c-11.27-7.98-24.44-14.82-21.64-32.44c0.39-2.47-0.08-5.86-3.52-7.27
		c-4.01-1.64-7.26-2.37-10.79,1.78c-4.27,5.02-7.3,12.7-14.55,13.35c-14.16,1.26-29.35,4.16-38.32-12.14
		c-1.67-3.04-4.1-5.74-8.84-4.14c-4.65,1.58-6.1,4.16-6.4,8.93c-0.4,6.35,1.11,14.1-4.2,18.51c-10.6,8.79-20.57,20.78-37.33,12.94
		c-3.19-1.49-6.81-2.35-9.97,2.16c-3.13,4.49-2.26,7.54,0.18,11.57c3.19,5.26,8.36,10.35,6.76,17
		c-3.25,13.52-4.61,28.67-22.26,32.68c-3.73,0.85-6.91,2.46-6.7,7.8c0.18,4.72,1.39,7.27,5.9,9.24c5.99,2.62,13.65,3.41,16.54,10.55
		c2.61,6.45,4.59,13.17,6.41,19.9c1.02,3.78,0.35,7.65-1.76,11.14c-1.99,3.3-3.74,6.76-5.85,9.97c-1.92,2.91-2.31,5.27,0.01,8.39
		c2.41,3.24,4.71,5.24,8.95,3.98c2.99-0.89,6.09-1.42,9.14-2.12c9.03-2.08,30.07,10.11,32.7,18.99c0.34,1.14,0.37,2.37,0.49,3.57
		c0.45,4.31,1.07,8.61,1.26,12.93c0.12,2.77,1.14,4.35,3.69,5.49c4.52,2.03,7.99,1.95,11.06-2.7c6.04-9.18,13.85-13.67,25.84-13.52
		c11.6,0.14,20.06,3.09,26.17,12.78c0.63,1,1.54,1.86,2.41,2.69c3.93,3.77,11.17,1.95,12.39-3.36c0.85-3.72,1.02-7.63,1.15-11.47
		c0.22-6.5,3.24-10.78,8.27-15.08c10.62-9.07,21.49-14.27,35.33-8.16C616,336.32,616.53,336.28,617,336.35z"/>
	<path class="st0" d="M377.74,815.2c3.29,18.5-3.09,28.87-19.83,33.41c-7.21,1.95-9.18,7.48-4.38,13.36
		c12.59,15.42,8.11,28.61-3.49,41.63c-2.4,2.7-4.45,5.71-6.85,8.4c-3.95,4.43-8.63,6.71-14.8,4.96c-4.63-1.31-9.34-2.42-14.08-3.2
		c-5.03-0.83-8.45,1.09-9.03,6.63c-0.33,3.11-1.27,6.25-1.05,9.31c0.82,11.28-4.71,17.63-15.08,20.64
		c-2.31,0.67-4.53,1.62-6.82,2.38c-22.26,7.44-22.93,7.25-38.01-10.58c-4.95-5.86-7.72-5.96-12.75-0.43
		c-1.3,1.42-2.65,2.85-3.67,4.47c-6.84,10.93-16.3,13.35-28,8.84c-1.57-0.61-3.21-1.02-4.81-1.56c-22.5-7.46-22.5-7.46-24.33-31.12
		c-0.56-7.3-3.79-9.71-10.98-8.17c-23.45,5.01-23.46,5.01-37.2-14.82c-0.82-1.19-1.55-2.45-2.47-3.56
		c-7.77-9.39-8.78-18.87-0.72-28.72c1.66-2.02,2.84-4.48,3.99-6.86c2.27-4.68,0.96-8.45-3.6-10.76c-4.5-2.29-9.18-4.25-13.82-6.24
		c-5.78-2.47-8.46-6.92-8.5-13.05c-0.06-8.92,0.02-17.84-0.03-26.76c-0.04-6.79,2.97-11.45,9.25-14.08
		c4.22-1.77,8.43-3.57,12.55-5.57c5.26-2.55,6.68-6.52,3.79-11.78c-0.81-1.48-1.48-3.1-2.56-4.35c-10.19-11.8-7.3-22.84,1.78-33.59
		c0.93-1.1,1.77-2.3,2.48-3.55c7.63-13.32,17.99-18.01,33.19-12.47c9.39,3.43,12.45,0.39,12.96-9.78c0.06-1.2,0.2-2.41,0.16-3.61
		c-0.43-11.99,5-19.47,16.71-22.7c6.95-1.92,13.66-4.61,20.77-6.08c5.6-1.16,9.95,0.33,13.6,4.44c3.36,3.78,6.67,7.61,9.97,11.45
		c3.75,4.37,7.47,4.96,11.29,0.08c0.89-1.14,2.12-2.05,2.83-3.28c8.28-14.34,19.81-14.02,34.09-9.61
		c15.84,4.9,25.71,12.24,25.02,30.49c-0.36,9.53,3.08,11.9,12.18,8.62c15.9-5.73,26.41-0.54,34.08,13.41
		c1.5,2.73,3.44,5.23,5.33,7.73c6.31,8.34,6.81,16.61,0.22,25.12c-1.9,2.45-3.5,5.25-4.72,8.1c-2.05,4.77-1.5,8.95,3.91,11.29
		c0.22,0.1,0.42,0.26,0.65,0.32C374.01,788.56,382.47,798.65,377.74,815.2z M324.72,889.14c5.4,0.07,9.43-6.65,7.11-11.7
		c-2.79-6.08-8.25-11.03-8.69-18.06c-0.8-12.91,9.54-28.82,21.76-33.86c4.21-1.74,7.35-3.16,7.35-8.97c0-5.69-2.72-7.8-7.16-9.11
		c-10.41-3.08-17.12-9.3-18.25-20.59c-0.14-1.4-0.67-2.86-1.36-4.09c-3.94-7-2.37-13.4,1.83-19.64c1.61-2.39,2.78-5.09,4.45-7.44
		c2.05-2.91,1.28-5.29-0.59-7.87c-1.93-2.66-3.8-4.93-7.66-3.9c-3.95,1.05-7.98,1.8-11.97,2.68c-3.38,0.74-6.91,1.11-9.81-0.95
		c-6.27-4.45-12.43-9.08-18.38-13.95c-2.96-2.41-3.5-6.18-3.74-9.87c-0.26-3.84-0.63-7.67-0.96-11.51
		c-0.23-2.61-1.34-4.25-4.01-5.33c-4.08-1.65-6.86-1.37-10.05,2.22c-4.53,5.08-7.55,12.79-15.34,13.47
		c-14.4,1.26-29.34,3.05-38-13.09c-1.86-3.47-4.72-4.65-9.11-3.14c-4.34,1.49-5.11,3.98-5.46,7.99c-0.56,6.37,1.09,14.26-3.98,18.59
		c-10.41,8.89-20.13,21.25-37.07,13.65c-3.36-1.51-7.22-2.77-10.63,2.11c-3.21,4.59-2.07,7.61,0.32,11.56
		c3.32,5.49,8.48,10.81,6.67,17.76c-3.52,13.48-5.22,28.61-23.08,32c-4.43,0.84-5.91,3.84-5.8,8.45c0.1,4.18,1.32,6.31,5.28,8.12
		c6.17,2.82,14.15,3.51,17.14,10.94c2.6,6.45,4.55,13.18,6.36,19.91c0.94,3.51,0.5,7.17-1.5,10.47c-2.13,3.5-3.87,7.26-6.24,10.57
		c-2.45,3.42-1.44,5.9,0.64,9.02c2.27,3.41,4.87,4.21,8.56,3.21c3.25-0.88,6.54-1.64,9.84-2.33c8.72-1.82,29.47,10.81,31.92,19.42
		c0.26,0.92,0.3,1.9,0.4,2.85c0.46,4.31,1.18,8.61,1.27,12.93c0.07,3.42,1.41,5.09,4.56,6.36c4.17,1.68,6.9,1.16,9.93-2.49
		c4.63-5.58,8.15-12.94,16.88-13.49c14.43-0.92,28.74-1.64,37,13.97c1.88,3.56,4.87,3.47,8.65,2.25c6.59-2.13,4.95-7.61,5.45-11.97
		c0.69-5.98-0.03-12.48,5.29-16.65c11.13-8.72,22.1-18.71,38.05-10.8C323.19,889.15,324,889.05,324.72,889.14z"/>
	<path class="st0" d="M748.98,715.31c4.77,1.06,10.41,2.29,16.04,3.56c5.96,1.35,9.19-0.97,9.75-7.08c0.22-2.39,1.14-4.82,0.91-7.14
		c-1.35-13.82,6.49-20.17,18.47-23.44c5.8-1.58,11.56-3.31,17.3-5.11c6.95-2.19,12.19,0.3,16.59,5.6c2.77,3.34,5.74,6.51,8.44,9.9
		c4.11,5.17,7.89,4.42,11.79-0.23c3.25-3.88,6.58-7.69,9.98-11.44c3.5-3.86,7.71-5.22,13.01-4.16c7.84,1.57,15.22,4.47,22.8,6.84
		c9.79,3.06,14.06,9.32,14.89,19.56c1.48,18.29,2.05,18.77,19.91,14.36c9.72-2.4,16.26,0.27,21.84,7.93
		c4.54,6.24,9.14,12.4,13.15,19.01c3.53,5.81,3.37,11.31-0.12,16.98c-2.4,3.9-4.75,7.83-6.9,11.87c-2.6,4.9-1.37,8.84,3.65,11.27
		c4.33,2.1,8.78,3.96,13.2,5.88c5.96,2.59,8.89,7.12,8.88,13.59c0,8.92,0,17.84,0,26.76c0,6.45-2.81,11.02-8.86,13.57
		c-4.44,1.87-8.87,3.77-13.2,5.88c-5,2.43-6.3,6.35-3.68,11.27c2.15,4.04,4.44,8.02,6.9,11.87c3.63,5.68,3.66,11.19,0.15,16.96
		c-5.02,8.26-10.44,16.2-17.02,23.31c-3.94,4.25-8.55,5.94-14.34,4.29c-4.39-1.25-8.88-2.19-13.37-3.07
		c-5.68-1.12-9.16,1.58-9.84,7.42c-0.03,0.24-0.02,0.48-0.05,0.72c-1.16,8.14,1.73,18.28-6.32,23.44c-10.94,7-23.4,11.3-36.75,11.56
		c-5.57,0.11-8.46-4.25-11.45-7.94c-13.7-16.89-13.32-14.17-25.38,0.56c-6.05,7.38-12.62,8.73-21.05,6.38
		c-7.67-2.14-15.17-4.71-22.51-7.81c-6.2-2.62-9.39-7.14-9.74-13.88c-0.24-4.56-0.9-9.1-1.31-13.66c-0.53-5.94-4.1-7.81-9.46-6.86
		c-4.5,0.8-8.99,1.76-13.37,3.05c-6.46,1.91-11.32-0.46-15.38-5.19c-5.81-6.78-10.92-14.07-15.61-21.68
		c-3.65-5.93-3.98-11.64-0.19-17.61c2.32-3.66,4.47-7.44,6.46-11.28c2.93-5.67,1.6-9.94-4.09-12.31
		c-24.4-10.18-20.87-9.08-21.16-33.68c-0.01-0.48,0.07-0.98-0.01-1.44c-2.52-14.99,3.42-23.98,18.16-28.64
		c10.28-3.25,11.74-7.57,5.3-16.01c-10.33-13.54-7.7-25.13,2.47-36.82c3.32-3.81,6.2-8,9.43-11.89
		C740.07,717,743.68,715.24,748.98,715.31z M755.57,743.81c-6.27-0.21-10.67,7.19-6.66,12.54c8.01,10.72,9.69,21.55,3.43,33.5
		c-0.55,1.04-0.77,2.28-0.97,3.46c-0.97,5.52-4.32,8.96-9.37,11.01c-3.12,1.27-6.14,2.8-9.29,3.98c-3.35,1.25-4.59,3.29-4.82,7.01
		c-0.33,5.45,1.61,8.18,6.73,10.13c6.37,2.42,13.5,4.22,16.24,11.97c4.82,13.58,9.34,27.02-2.38,39.62
		c-2.28,2.46-1.41,4.9,0.23,7.81c2.82,4.97,6.56,4.66,11.08,3.56c6.69-1.62,13.52-4.79,20.21-0.26
		c11.63,7.88,23.68,15.59,21.18,32.68c-0.1,0.67,0.36,1.41,0.36,2.12c0.02,2.88,1.75,4.04,4.21,5.11c3.84,1.66,6.49,1.26,9.43-2.08
		c4.38-4.97,7.35-12.71,14.53-13.4c14.43-1.38,29.85-3.99,38.92,12.41c1.88,3.41,4.34,5.05,8.91,3.5c4.61-1.57,5.46-4.19,5.87-8.46
		c0.61-6.34-1.08-14.08,4.14-18.55c10.5-9,20.59-20.58,37.27-13.28c3.43,1.5,6.95,2.03,10.18-2.13c3.48-4.48,2-7.6-0.29-11.58
		c-3.06-5.33-8.44-10.31-6.7-17.02c3.48-13.4,4.52-28.81,22.42-32.51c4.42-0.91,6.6-3.41,6.56-8.64c-0.04-5.28-2.69-6.86-6.71-8.69
		c-5.58-2.53-13.07-3.28-15.44-9.76c-4.87-13.32-12.05-27,0.24-40.41c3.24-3.53,2.46-6.79-0.22-10.84c-2.83-4.28-5.9-3.06-9.33-2.35
		c-2.59,0.53-5.15,1.24-7.73,1.83c-9.13,2.08-29.98-9.88-32.81-18.85c-0.29-0.91-0.37-1.88-0.48-2.84
		c-0.47-4.31-1.18-8.61-1.28-12.92c-0.09-3.62-1.38-5.38-4.87-6.87c-5.04-2.16-7.48,0.24-10.32,3.58
		c-4.43,5.23-7.86,12.09-15.82,12.7c-14.39,1.1-28.81,1.84-37.08-13.75c-0.22-0.41-0.66-0.71-0.93-1.1
		c-1.84-2.59-4.04-2.38-6.97-1.73c-7.04,1.56-6.27,7.1-6.53,11.93c-0.37,6.82-0.54,13.3-6.75,18.16
		c-10.8,8.48-21.36,16.9-36.27,9.72C757.09,743.84,756.29,743.91,755.57,743.81z"/>
	<path class="st1" d="M891.31,599.86c0.3,8.41-0.19,15.32-7.08,19.77c-5.35,3.45-10.91,3.76-16.41,0.58
		c-5.45-3.16-7.86-8-7.92-14.41c-0.42-42.38-8.54-83.24-25.05-122.32c-23.46-55.52-59.78-100.85-108.59-136.17
		c-6.04-4.37-9.37-9.81-7.92-17.26c1.35-6.92,6.24-10.66,12.87-12.14c5.04-1.12,9.41,0.57,13.52,3.54
		c44.35,32.01,79.46,72.11,105.12,120.38c24.68,46.42,38.62,95.84,40.74,148.47c0.08,1.91,0.56,3.81,0.7,5.72
		C891.41,597.7,891.31,599.39,891.31,599.86z"/>
	<path class="st1" d="M190.08,600.64c2.47-81.71,28.89-154.53,80.94-217.84c14.59-17.74,30.84-33.82,48.72-48.22
		c9.48-7.63,21.54-5.19,26.09,5.02c3.03,6.79,1.51,12.84-5.39,18.45c-21.81,17.73-41.16,37.78-57.67,60.54
		c-32.17,44.36-51.8,93.68-58.59,148.09c-1.58,12.67-2.61,25.37-2.69,38.15c-0.06,10.29-6.09,17.25-15.16,17.58
		c-9.23,0.34-15.93-6.84-16.25-17.42C190.05,603.53,190.09,602.09,190.08,600.64z"/>
	<path class="st1" d="M544.21,956.95c-40.04,0.06-75.56-5.71-110.36-16.31c-6.64-2.02-12-5.38-13.72-12.45
		c-1.37-5.64-0.59-11.08,3.91-15.36c4.82-4.59,10.4-5.63,16.71-3.56c36.78,12.05,74.54,17.22,113.2,15.77
		c28.55-1.07,56.48-5.95,83.76-14.44c4.95-1.54,9.88-2.7,14.79-0.38c5.99,2.83,9.25,7.77,9.06,14.42
		c-0.2,7.23-3.85,12.31-10.83,14.63c-17.17,5.71-34.68,10.16-52.55,13.02C579.11,955.33,559.94,957.28,544.21,956.95z"/>
	<path class="st1" d="M611.11,562.41c0-9.4,0.02-18.81-0.01-28.21c-0.08-24.03-10.7-40.1-33.12-49.19
		c-23.49-9.53-47.06-8.93-70.27,1.02c-21.89,9.38-31.03,27.02-31.18,50.02c-0.12,20.01-0.19,40.03,0.09,60.03
		c0.07,5.17-1.57,6.69-6.57,6.35c-11.08-0.75-20.46-9.58-21.07-21.03c-0.43-8.17-0.38-16.4,0-24.58c0.37-8.03,4.53-14.13,11.5-18.09
		c2.46-1.4,4.16-2.6,4.11-5.91c-0.62-35.64,24.26-57.11,54.7-63.91c24.83-5.55,48.87-3.7,71.61,8.31
		c21.61,11.42,31.8,30.06,32.8,54.02c0.16,3.79,1.03,6,4.56,7.92c6.01,3.27,9.54,8.73,10.44,15.64c1.31,10.08,1.61,20.21-0.3,30.2
		c-1.98,10.39-11.41,17.38-21.93,17.45c-4.04,0.03-5.52-1.14-5.43-5.32C611.27,585.56,611.11,573.98,611.11,562.41z"/>
	<path class="st2" d="M498.03,613.91c-0.2-0.06-0.44-0.08-0.6-0.21c-0.09-0.07-0.04-0.32-0.05-0.48c0.21,0.24,0.41,0.48,0.62,0.72
		C498.01,613.94,498.03,613.91,498.03,613.91z"/>
	<path class="st3" d="M530.13,327.57c-36.14-0.01-64-28-63.96-64.28c0.03-35.29,28.68-63.96,63.95-63.99
		c35.4-0.03,65.05,29.21,64.63,64.35C594.28,302.3,562.22,329.1,530.13,327.57z M530.18,301.7c21.05,0.03,38.35-16.98,38.55-37.91
		c0.19-20.67-17.25-38.04-38.29-38.13c-21.09-0.08-38.28,16.92-38.31,37.89C492.1,284.66,509.07,301.66,530.18,301.7z"/>
	<path class="st3" d="M237.42,880.39c-35.93-0.06-63.73-28.23-63.7-64.56c0.03-35.09,28.71-64.31,64.12-63.79
		c38.72,0.57,64.22,30.88,64.27,64.56C302.18,852.1,273.36,880.45,237.42,880.39z M237.4,854.33c21.24,0.06,38.4-16.48,38.87-37.48
		c0.46-20.56-17.05-38.23-38.03-38.38c-21.54-0.15-38.69,16.84-38.6,38.25C199.73,837.4,216.66,854.27,237.4,854.33z"/>
	<path class="st3" d="M842.02,880.39c-35.78-0.04-64.37-28.62-64.11-64.38c0.24-33.06,25.38-63.87,64.12-63.83
		c42.27,0.04,64.99,34.83,64.41,64.97C905.75,852.51,877.88,880.43,842.02,880.39z M842.02,854.33
		c21.25,0.06,38.26-16.69,38.35-37.74c0.09-21.06-16.87-38.08-38-38.12c-21.12-0.04-38.32,16.78-38.63,37.79
		C803.44,836.81,821,854.27,842.02,854.33z"/>
	<path class="st4" d="M530.18,301.7c-21.11-0.03-38.07-17.04-38.04-38.14c0.03-20.97,17.22-37.98,38.31-37.89
		c21.03,0.08,38.48,17.46,38.29,38.13C568.53,284.71,551.22,301.73,530.18,301.7z"/>
	<path class="st4" d="M237.4,854.33c-20.74-0.06-37.67-16.92-37.76-37.61c-0.09-21.42,17.05-38.4,38.6-38.25
		c20.98,0.15,38.49,17.82,38.03,38.38C275.8,837.85,258.64,854.39,237.4,854.33z"/>
	<path class="st4" d="M842.02,854.33c-21.02-0.06-38.58-17.52-38.28-38.06c0.31-21.01,17.51-37.83,38.63-37.79
		c21.13,0.04,38.08,17.05,38,38.12C880.29,837.64,863.27,854.38,842.02,854.33z"/>
</g>
</svg>
