<svg width="12" height="9" viewBox="0 0 12 9" fill="none" xmlns="http://www.w3.org/2000/svg">
<path d="M11.9196 4.18004C11.5358 3.46669 9.42464 -0.112937 5.83806 0.00274164C2.52138 0.0927142 0.602145 3.21605 0.0803529 4.18004C0.0277128 4.27774 0 4.38856 0 4.50137C0 4.61418 0.0277128 4.725 0.0803529 4.8227C0.458203 5.5232 2.4794 9 6.012 9H6.16194C9.47862 8.91003 11.4039 5.78669 11.9196 4.8227C11.9723 4.725 12 4.61418 12 4.50137C12 4.38856 11.9723 4.27774 11.9196 4.18004ZM6.13195 7.71468C3.54698 7.77894 1.86164 5.40752 1.33385 4.50137C1.93362 3.46669 3.49899 1.35233 5.89804 1.28806C8.47102 1.21737 10.1623 3.59522 10.6961 4.50137C10.0784 5.53606 8.53099 7.65041 6.13195 7.71468Z" fill="#0E2245"/>
<path d="M6.00003 2.25212C5.58485 2.25212 5.179 2.38404 4.83379 2.63119C4.48859 2.87835 4.21953 3.22965 4.06065 3.64066C3.90177 4.05166 3.8602 4.50393 3.9412 4.94025C4.02219 5.37658 4.22212 5.77736 4.51569 6.09194C4.80927 6.40651 5.1833 6.62074 5.5905 6.70753C5.9977 6.79432 6.41977 6.74977 6.80334 6.57953C7.18692 6.40928 7.51476 6.12098 7.74542 5.75108C7.97608 5.38119 8.09919 4.9463 8.09919 4.50143C8.09919 3.90488 7.87803 3.33275 7.48436 2.91093C7.09069 2.4891 6.55676 2.25212 6.00003 2.25212ZM6.00003 5.46542C5.8221 5.46542 5.64816 5.40889 5.50021 5.30296C5.35227 5.19704 5.23696 5.04648 5.16887 4.87034C5.10077 4.69419 5.08296 4.50036 5.11767 4.31337C5.15238 4.12637 5.23807 3.9546 5.36388 3.81979C5.4897 3.68497 5.65 3.59316 5.82452 3.55596C5.99903 3.51877 6.17992 3.53786 6.34431 3.61082C6.50869 3.68378 6.6492 3.80734 6.74805 3.96587C6.84691 4.12439 6.89967 4.31077 6.89967 4.50143C6.89967 4.7571 6.80489 5.00229 6.63617 5.18308C6.46746 5.36386 6.23863 5.46542 6.00003 5.46542Z" fill="#0E2245"/>
</svg>
