<svg width="44" height="44" viewBox="0 0 44 44" fill="none" xmlns="http://www.w3.org/2000/svg">
<g clip-path="url(#clip0_241_7599)">
<path d="M22.0013 0.878906C10.3369 0.878906 0.881348 10.3345 0.881348 21.9989C0.881348 33.6633 10.3369 43.1189 22.0013 43.1189C33.6657 43.1189 43.1213 33.6633 43.1213 21.9989C43.1213 10.3345 33.6657 0.878906 22.0013 0.878906ZM27.0041 15.4737H23.8295C23.4533 15.4737 23.0353 15.9687 23.0353 16.6265V18.9189H27.0063L26.4057 22.1881H23.0353V32.0023H19.2887V22.1881H15.8897V18.9189H19.2887V16.9961C19.2887 14.2373 21.2027 11.9955 23.8295 11.9955H27.0041V15.4737Z" fill="white"/>
</g>
<defs>
<clipPath id="clip0_241_7599">
<rect width="44" height="44" fill="white" transform="translate(0.000488281)"/>
</clipPath>
</defs>
</svg>
