<?xml version="1.0" encoding="utf-8"?>
<!-- Generator: Adobe Illustrator 24.0.1, SVG Export Plug-In . SVG Version: 6.00 Build 0)  -->
<svg version="1.1" id="Layer_1" xmlns="http://www.w3.org/2000/svg" xmlns:xlink="http://www.w3.org/1999/xlink" x="0px" y="0px"
	 viewBox="0 0 1080 1080" style="enable-background:new 0 0 1080 1080;" xml:space="preserve">
<style type="text/css">
	.st0{fill:#EEDC92;}
	.st1{fill:#FFBD11;}
	.st2{fill:#800000;}
	.st3{fill:#D35C50;}
	.st4{fill:#CA5147;}
</style>
<g>
	<path class="st0" d="M313.04,547.55c0.12-31.76,0.32-63.51,0.34-95.27c0.02-40.79-0.11-81.59-0.17-122.38
		c23.75,7.05,39.4-0.21,48.85-22.67c0.44-1.06,0.63-2.22,2.01-2.47c1.52,5.64,3.8,10.92,7.69,15.37
		c8.92,10.19,20.28,14.5,33.46,12.05c15.46-2.88,24.63-13.01,28.76-27.94c0.57,0.23,1.15,0.45,1.72,0.68
		c4.39,20.27,24.02,31.99,43.75,26.51c14.05-3.9,20.92-14.51,26.39-26.69c0.42,1.08,0.85,2.17,1.27,3.25
		c5.87,15.47,17.55,24.34,32.51,24.71c15.77,0.39,27.92-7.75,34.52-23.16c0.77-1.8,0.81-4.1,3.33-4.64
		c4.44,17.43,17.97,28.11,35.23,27.82c16.45-0.28,29.76-11.36,33.34-27.76c0.57-0.23,1.14-0.46,1.72-0.68
		c0.4,1.08,0.82,2.16,1.21,3.25c5.58,15.61,17.63,24.86,32.82,25.19c15.63,0.34,27.87-7.96,34.32-23.14
		c0.73-1.72,0.62-4.15,3.15-4.73c6.68,23.17,24.73,32.34,49.3,25.05c0.06,72.55,0.11,145.11,0.17,217.66
		c-58.85,0.09-117.69,0.01-176.54,0.47c-8.14,0.06-9.54-2.72-9.45-10.02c0.36-31.75,0.02-63.51,0.27-95.27
		c0.05-6.08-1.01-8.87-8.03-8.74c-22.72,0.43-45.45,0.43-68.17,0c-7.02-0.13-8.08,2.65-8.03,8.74c0.25,32.34,0.07,64.68,0.17,97.01
		c0.02,4.86-0.14,8.23-6.73,8.19C432.48,547.65,372.76,547.64,313.04,547.55z M405.27,497.14c12.23,0,24.46-0.11,36.69,0.06
		c4.39,0.06,6.28-1.35,6.23-6c-0.18-16.89-0.2-33.78,0.02-50.67c0.07-5.05-1.91-6.48-6.69-6.45c-23.59,0.17-47.18,0.17-70.77,0
		c-4.8-0.03-6.75,1.42-6.69,6.46c0.22,16.6,0.26,33.2-0.02,49.8c-0.09,5.48,1.98,7.03,7.15,6.9
		C382.55,496.95,393.91,497.15,405.27,497.14z M675.6,497.14c11.94,0,23.88-0.11,35.82,0.06c4.37,0.06,6.3-1.31,6.25-5.98
		c-0.18-17.18-0.14-34.36-0.03-51.55c0.03-4.19-1.74-5.57-5.76-5.56c-24.17,0.1-48.34,0.13-72.51-0.02
		c-4.83-0.03-5.83,2.23-5.8,6.42c0.13,16.89,0.16,33.78-0.01,50.67c-0.05,4.64,1.82,6.08,6.22,6.01
		C651.72,497.03,663.66,497.14,675.6,497.14z M539.99,395.66c30.03,0,60.05,0.01,90.08-0.01c9.19-0.01,15.58-4.65,15.77-11.34
		c0.22-7.84-6.15-13.12-16.18-13.13c-59.18-0.04-118.36-0.04-177.53,0c-10.05,0.01-16.41,5.27-16.2,13.1
		c0.17,6.7,6.55,11.36,15.74,11.36C481.1,395.67,510.54,395.66,539.99,395.66z"/>
	<path class="st0" d="M292.82,269.67c15.5-42,31.12-83.96,46.34-126.06c1.92-5.32,5.17-5.24,9.38-5.23
		c31.75,0.05,63.5,0.03,95.25,0.03c95.83,0,191.67,0.08,287.5-0.17c6.86-0.02,10.17,1.74,12.58,8.44
		c14.73,41.04,29.96,81.9,45.02,122.83c-0.49,0-0.92,0.16-1.29,0.47c-22.71,0.05-45.42,0.1-68.14,0.15c-0.64,0-1.27,0-1.91,0
		c-23.32,0.02-46.64,0.04-69.96,0.05c-23.29-0.03-46.58-0.05-69.87-0.08c-0.61-0.03-1.22-0.06-1.82-0.09
		c-0.58,0-1.17-0.01-1.75-0.01c-22.72,0.04-45.45,0.07-68.17,0.11c-0.64,0-1.27,0-1.91,0c-23.27-0.01-46.55-0.01-69.82-0.02
		c-0.61-0.03-1.23-0.06-1.84-0.09c-22.74,0.04-45.47,0.09-68.21,0.13c-0.63,0-1.26-0.01-1.89-0.01
		C339.14,269.98,315.98,269.83,292.82,269.67z M441.2,192.65c6.7,0,13.4,0.13,20.1-0.04c7.48-0.19,13.1-5.61,13.06-12.28
		c-0.04-6.65-5.69-12.05-13.2-12.14c-13.4-0.15-26.8-0.16-40.2,0c-7.48,0.09-13.1,5.59-13.06,12.27c0.04,6.65,5.68,11.97,13.2,12.15
		C427.8,192.78,434.5,192.65,441.2,192.65z"/>
	<path class="st1" d="M313.04,547.55c59.72,0.09,119.44,0.1,179.16,0.39c6.59,0.03,6.74-3.34,6.73-8.19
		c-0.1-32.34,0.08-64.68-0.17-97.01c-0.05-6.09,1.02-8.87,8.03-8.74c22.72,0.43,45.45,0.43,68.17,0c7.02-0.13,8.08,2.66,8.03,8.74
		c-0.25,31.75,0.09,63.51-0.27,95.27c-0.08,7.3,1.32,10.08,9.45,10.02c58.84-0.46,117.69-0.38,176.54-0.47
		c20.65,0.28,20.65,0.28,20.65,20.83c0,21.26,0,21.26-21.09,21.26c-155.38,0-310.77-0.07-466.15,0.2
		c-8.17,0.01-10.49-2.23-9.88-10.1c0.68-8.69,0.38-17.49,0.07-26.22c-0.16-4.54,1.21-6.29,5.87-5.97
		C303.11,547.89,308.09,547.58,313.04,547.55z"/>
	<path class="st0" d="M926.56,807.07c0.02,42.72-0.1,85.45,0.2,128.17c0.05,6.38-1.36,8.52-8.09,8.27
		c-16.25-0.61-32.53-0.36-48.8-0.46c-0.01-25.03-0.28-50.07,0.13-75.1c0.12-7.1-2.2-8.94-8.96-8.74c-15.12,0.44-30.28,0.44-45.4,0
		c-6.76-0.2-9.08,1.65-8.96,8.74c0.41,25.03,0.14,50.07,0.13,75.1c-16.56,0.1-33.13-0.06-49.67,0.42c-5.87,0.17-7.21-1.79-7.18-7.36
		c0.23-43.01,0.15-86.03,0.17-129.04C808.94,807.07,867.75,807.07,926.56,807.07z"/>
	<path class="st0" d="M629.09,807.07c0.02,42.72-0.1,85.45,0.2,128.17c0.05,6.38-1.36,8.52-8.09,8.27
		c-16.25-0.61-32.53-0.36-48.8-0.46c-0.01-25.03-0.28-50.07,0.13-75.1c0.12-7.1-2.2-8.94-8.96-8.74c-15.12,0.44-30.28,0.44-45.4,0
		c-6.76-0.2-9.08,1.65-8.96,8.74c0.41,25.03,0.14,50.07,0.13,75.1c-16.56,0.1-33.13-0.06-49.67,0.42c-5.87,0.17-7.21-1.79-7.18-7.36
		c0.23-43.01,0.15-86.03,0.17-129.04C511.47,807.07,570.28,807.07,629.09,807.07z"/>
	<path class="st0" d="M211.88,943.05c-16.56,0.1-33.13-0.06-49.67,0.42c-5.87,0.17-7.21-1.79-7.18-7.36
		c0.23-43.01,0.15-86.03,0.17-129.04c58.81,0,117.62,0,176.43,0c0.02,42.72-0.1,85.45,0.2,128.17c0.05,6.38-1.36,8.52-8.09,8.27
		c-16.25-0.61-32.53-0.36-48.8-0.46c-0.01-25.03-0.28-50.07,0.13-75.1c0.12-7.1-2.2-8.94-8.96-8.74c-15.12,0.44-30.28,0.44-45.4,0
		c-6.76-0.2-9.08,1.65-8.96,8.74C212.15,892.98,211.89,918.01,211.88,943.05z"/>
	<path class="st2" d="M331.62,807.07c-58.81,0-117.62,0-176.43,0c-5.2-0.33-10.4-0.65-16.62-1.04c5.4-14.5,10.58-28.59,15.9-42.63
		c3.7-9.76,5.02-22.71,12.1-28.27c7.55-5.94,20.71-1.66,31.42-1.71c38.43-0.18,76.86,0.08,115.29-0.23
		c5.98-0.05,8.65,1.74,10.62,7.31c6.9,19.44,14.36,38.68,21.58,58c0.89,2.37,1.55,4.83,2.42,7.55
		C342.01,806.42,336.82,806.74,331.62,807.07z"/>
	<path class="st2" d="M926.56,807.07c-58.81,0-117.62,0-176.43,0c-5.2-0.33-10.4-0.65-16.62-1.04c5.4-14.5,10.58-28.59,15.9-42.63
		c3.7-9.76,5.02-22.71,12.1-28.27c7.55-5.94,20.71-1.66,31.42-1.71c38.43-0.18,76.86,0.08,115.29-0.23
		c5.98-0.05,8.65,1.74,10.62,7.31c6.9,19.44,14.35,38.68,21.59,58c0.9,2.39,2.35,4.66,1.76,7.6
		C936.96,806.42,931.76,806.74,926.56,807.07z"/>
	<path class="st2" d="M629.09,807.07c-58.81,0-117.62,0-176.43,0c-5.2-0.33-10.4-0.65-16.62-1.04c5.4-14.5,10.58-28.59,15.9-42.63
		c3.7-9.76,5.02-22.71,12.1-28.27c7.55-5.94,20.71-1.66,31.42-1.71c38.43-0.18,76.86,0.08,115.29-0.23
		c5.98-0.05,8.65,1.74,10.62,7.31c6.9,19.44,14.36,38.68,21.58,58c0.89,2.37,1.55,4.83,2.42,7.55
		C639.49,806.42,634.29,806.74,629.09,807.07z"/>
	<path d="M850.6,543.85c0,48.65-0.09,97.29,0.1,145.94c0.03,6.98-3.55,11.2-9.1,13.4c-6.07,2.41-10.48-1.55-14.03-6.19
		c-2.37-3.09-1.43-6.74-1.43-10.15c-0.05-88.55-0.02-177.11-0.05-265.66c-0.01-15.05,1.43-13.14-12.84-13.32
		c-2.86-0.04-5.87,0.62-8.43-1.36c-4.6-3.56-8.65-7.86-6.31-13.99c1.99-5.23,5.79-9.31,12.42-9.17c8.44,0.18,16.89-0.02,25.34,0.06
		c9.5,0.09,14.31,4.9,14.32,14.51C850.62,446.56,850.6,495.21,850.6,543.85z"/>
	<path d="M231.16,542.92c0-47.77-0.01-95.55,0-143.32c0-11.93,4.26-16.19,16.14-16.21c7.57-0.02,15.15-0.09,22.72,0.02
		c8.01,0.12,13.81,5.56,13.62,12.57c-0.18,6.53-5.97,11.66-13.44,11.9c-14.55,0.47-14.55,0.47-14.55,15.1
		c0,87.97,0.01,175.94-0.04,263.91c0,3.41,0.92,7.05-1.46,10.14c-3.57,4.64-8,8.56-14.05,6.13c-5.54-2.22-9.08-6.46-9.05-13.44
		C231.25,640.8,231.16,591.86,231.16,542.92z"/>
	<path class="st1" d="M806.82,943.05c0.01-25.03,0.28-50.07-0.13-75.1c-0.12-7.1,2.2-8.94,8.96-8.74c15.12,0.44,30.28,0.44,45.4,0
		c6.76-0.2,9.08,1.65,8.96,8.74c-0.41,25.03-0.14,50.07-0.13,75.1C848.86,943.05,827.84,943.05,806.82,943.05z"/>
	<path class="st1" d="M211.88,943.05c0.01-25.03,0.28-50.07-0.13-75.1c-0.12-7.1,2.2-8.94,8.96-8.74c15.12,0.44,30.28,0.44,45.4,0
		c6.76-0.2,9.08,1.65,8.96,8.74c-0.41,25.03-0.14,50.07-0.13,75.1C253.91,943.05,232.89,943.05,211.88,943.05z"/>
	<path class="st1" d="M509.35,943.05c0.01-25.03,0.28-50.07-0.13-75.1c-0.12-7.1,2.2-8.94,8.96-8.74c15.12,0.44,30.28,0.44,45.4,0
		c6.76-0.2,9.08,1.65,8.96,8.74c-0.41,25.03-0.14,50.07-0.13,75.1C551.39,943.05,530.37,943.05,509.35,943.05z"/>
	<path class="st2" d="M292.82,269.67c23.16,0.15,46.32,0.31,69.47,0.46c1.1,10.92-2.05,22.07,1.8,32.84c-0.01,0.6-0.02,1.2-0.04,1.8
		c-1.38,0.25-1.56,1.41-2.01,2.47c-9.45,22.46-25.1,29.71-48.85,22.67c-14.61-7.55-21.45-19.55-20.84-35.96
		C292.66,285.86,292.68,277.76,292.82,269.67z"/>
	<path class="st2" d="M719.46,270.13c22.71-0.05,45.42-0.1,68.14-0.15c0.49,0.46,0.99,0.93,1.48,1.39
		c0.09,7.52,0.05,15.04,0.31,22.56c0.58,16.4-6.24,28.42-20.84,35.97c-24.57,7.29-42.61-1.88-49.29-25.05
		c0.04-0.62,0.08-1.24,0.12-1.86C719.4,292.04,719.43,281.09,719.46,270.13z"/>
	<path d="M553.12,661.86c0,9.33,0.08,18.67-0.02,28c-0.09,8.12-5.43,13.88-12.47,13.74c-6.56-0.13-11.92-5.9-11.96-13.37
		c-0.11-18.96-0.1-37.91-0.01-56.87c0.04-8.12,5.42-13.87,12.47-13.74c6.88,0.13,11.92,6.03,11.98,14.23
		C553.18,643.19,553.12,652.52,553.12,661.86z"/>
	<path class="st3" d="M789.07,271.37c-0.49-0.46-0.99-0.93-1.48-1.39c0.37-0.31,0.8-0.47,1.29-0.47
		C788.95,270.13,789.01,270.75,789.07,271.37z"/>
	<path class="st1" d="M405.27,497.15c-11.36,0-22.72-0.19-34.07,0.09c-5.18,0.13-7.25-1.42-7.15-6.9c0.28-16.59,0.24-33.2,0.02-49.8
		c-0.07-5.04,1.89-6.49,6.69-6.46c23.59,0.17,47.18,0.17,70.77,0c4.79-0.03,6.76,1.4,6.69,6.45c-0.22,16.89-0.2,33.78-0.02,50.67
		c0.05,4.65-1.84,6.06-6.23,6C429.73,497.03,417.5,497.14,405.27,497.15z"/>
	<path class="st1" d="M675.6,497.14c-11.94,0-23.88-0.12-35.82,0.06c-4.41,0.07-6.27-1.38-6.22-6.01
		c0.18-16.89,0.14-33.78,0.01-50.67c-0.03-4.19,0.98-6.45,5.8-6.42c24.17,0.15,48.34,0.12,72.51,0.02c4.01-0.02,5.79,1.37,5.76,5.56
		c-0.12,17.18-0.15,34.37,0.03,51.55c0.05,4.67-1.88,6.05-6.25,5.98C699.48,497.03,687.54,497.14,675.6,497.14z"/>
	<path class="st1" d="M539.99,395.66c-29.44,0-58.89,0.01-88.33-0.01c-9.19-0.01-15.57-4.66-15.74-11.36
		c-0.2-7.84,6.16-13.1,16.2-13.1c59.18-0.04,118.36-0.04,177.53,0c10.03,0.01,16.4,5.29,16.18,13.13
		c-0.19,6.68-6.58,11.33-15.77,11.34C600.04,395.67,570.01,395.66,539.99,395.66z"/>
	<path class="st2" d="M505.97,270.12c22.72-0.04,45.45-0.07,68.17-0.11c0.56,0.5,1.11,1,1.67,1.49c1.17,10.48-2.23,21.22,1.82,31.53
		c-0.06,0.62-0.11,1.24-0.17,1.86c-2.51,0.54-2.56,2.84-3.33,4.64c-6.6,15.41-18.75,23.56-34.52,23.16
		c-14.97-0.37-26.64-9.24-32.51-24.71c-0.41-1.09-0.84-2.17-1.26-3.25c-0.56-1.17-1.12-2.35-1.68-3.52
		C508.13,291.05,504.82,280.46,505.97,270.12z"/>
	<path class="st2" d="M719.37,302.99c-0.04,0.62-0.08,1.24-0.12,1.86c-2.53,0.58-2.41,3-3.15,4.73
		c-6.45,15.19-18.69,23.49-34.32,23.14c-15.18-0.33-27.24-9.59-32.82-25.19c-0.39-1.09-0.8-2.17-1.21-3.25
		c-0.06-10.38-0.13-20.75-0.19-31.13c0.01-0.99,0.02-1.97,0.02-2.96c23.32-0.02,46.64-0.04,69.96-0.05
		C718.63,281.06,715.44,292.22,719.37,302.99z"/>
	<path class="st2" d="M364.06,304.77c0.01-0.6,0.02-1.2,0.04-1.8c0.03-10.94,0.06-21.88,0.09-32.83
		c22.74-0.04,45.47-0.09,68.21-0.13c0.59,0.53,1.17,1.06,1.76,1.59c-0.01,0.5-0.02,1-0.03,1.5c-0.05,10.38-0.1,20.76-0.16,31.14
		c-4.13,14.93-13.3,25.06-28.76,27.94c-13.18,2.46-24.54-1.86-33.46-12.05C367.86,315.69,365.58,310.42,364.06,304.77z"/>
	<path class="st2" d="M434.13,273.1c0.01-0.5,0.02-1,0.03-1.5c0.07-0.5,0.1-1,0.08-1.5c23.27,0.01,46.55,0.01,69.82,0.02
		c0.03,10.37,0.06,20.73,0.1,31.1c0.56,1.17,1.12,2.35,1.68,3.52c-5.47,12.18-12.34,22.79-26.39,26.69
		c-19.74,5.48-39.36-6.23-43.75-26.51C435.16,294.32,437.72,283.56,434.13,273.1z"/>
	<path class="st2" d="M647.59,270.19c-0.01,0.99-0.02,1.97-0.02,2.96c-3.48,10.46-1.01,21.21-1.53,31.81
		c-3.59,16.4-16.9,27.48-33.34,27.76c-17.26,0.29-30.79-10.39-35.23-27.82c0.05-0.62,0.11-1.24,0.17-1.87
		c0.03-10.97,0.06-21.94,0.08-32.92C601.01,270.14,624.3,270.16,647.59,270.19z"/>
	<path class="st2" d="M646.04,304.96c0.51-10.6-1.95-21.35,1.53-31.81c0.06,10.38,0.13,20.75,0.19,31.13
		C647.18,304.5,646.61,304.73,646.04,304.96z"/>
	<path class="st2" d="M434.13,273.1c3.59,10.46,1.03,21.22,1.56,31.82c-0.57-0.23-1.15-0.45-1.72-0.68
		C434.03,293.86,434.08,283.48,434.13,273.1z"/>
	<path class="st1" d="M441.2,192.65c-6.7,0-13.4,0.12-20.1-0.03c-7.51-0.17-13.16-5.5-13.2-12.15c-0.04-6.68,5.58-12.18,13.06-12.27
		c13.4-0.16,26.8-0.15,40.2,0c7.51,0.08,13.16,5.49,13.2,12.14c0.04,6.67-5.58,12.09-13.06,12.28
		C454.61,192.79,447.9,192.65,441.2,192.65z"/>
	<path class="st2" d="M364.19,270.14c-0.03,10.94-0.06,21.88-0.09,32.83c-3.86-10.77-0.7-21.92-1.8-32.83
		C362.93,270.14,363.56,270.14,364.19,270.14z"/>
	<path class="st2" d="M719.37,302.99c-3.93-10.77-0.74-21.93-1.82-32.85c0.64,0,1.27,0,1.91,0
		C719.43,281.09,719.4,292.04,719.37,302.99z"/>
	<path class="st2" d="M577.71,270.11c-0.03,10.97-0.06,21.94-0.08,32.92c-4.06-10.31-0.65-21.05-1.82-31.52
		c0.04-0.49,0.07-0.99,0.08-1.48C576.5,270.05,577.11,270.08,577.71,270.11z"/>
	<path class="st2" d="M504.16,301.22c-0.03-10.37-0.06-20.73-0.1-31.1c0.64,0,1.27,0,1.91,0
		C504.82,280.46,508.13,291.05,504.16,301.22z"/>
	<path class="st4" d="M434.24,270.1c0.02,0.5-0.01,1-0.08,1.5c-0.59-0.53-1.17-1.06-1.76-1.59
		C433.01,270.04,433.63,270.07,434.24,270.1z"/>
	<path class="st4" d="M575.89,270.02c-0.01,0.49-0.04,0.99-0.08,1.48c-0.56-0.5-1.11-0.99-1.67-1.49
		C574.72,270.02,575.31,270.02,575.89,270.02z"/>
</g>
</svg>
