<?xml version="1.0" encoding="utf-8"?>
<!-- Generator: Adobe Illustrator 24.0.1, SVG Export Plug-In . SVG Version: 6.00 Build 0)  -->
<svg version="1.1" id="Layer_1" xmlns="http://www.w3.org/2000/svg" xmlns:xlink="http://www.w3.org/1999/xlink" x="0px" y="0px"
	 viewBox="0 0 1080 1080" style="enable-background:new 0 0 1080 1080;" xml:space="preserve">
<style type="text/css">
	.st0{display:none;}
	.st1{display:none;fill-rule:evenodd;clip-rule:evenodd;}
	.st2{display:none;fill:#F6F2E0;}
	.st3{display:none;fill:#800000;}
	.st4{display:none;fill-rule:evenodd;clip-rule:evenodd;fill:#6ECAD9;}
	.st5{fill:#EDDC92;}
	.st6{fill:#800000;}
	.st7{fill:#FEC210;}
	.st8{fill:#FFFFFF;}
	.st9{fill:#F4C01F;}
	.st10{display:none;fill:#040303;}
	.st11{display:none;fill:#040302;}
	.st12{fill:#F6B13F;}
</style>
<path class="st0" d="M480.83,135.53c10.9,0,19.81,8.91,19.81,19.81v1.41c34.53,4.83,65.83,20.71,89.55,43.96
	c27.95,27.39,45.43,64.97,45.43,106.77l-1.33,51.6l10.22,73.99c0.41,2.39,0.18,4.85-0.65,7.13c-0.84,2.28-2.25,4.3-4.11,5.86
	l1.27,1.49l2.34,2.8l-10.32,13.66l-0.19,0.49l-0.05,0.16c-3.15,8.04-7.37,15.35-12.26,20.75c-4.1,4.38-8.7,7.53-13.7,8.77
	c-0.97,3.1-2.04,6.3-2.82,9.45c-5.57,18.78-9.95,33.56-21.54,48.25c-2.53,3.2-5.22,6.28-8.09,9.21c-1.94,2.05-3.97,4.02-6.08,5.9
	c0.33,3.56,0.3,34.8,0.24,43.71l-3.42,0.82c-7.48,26.44-29.88,43.6-56.26,51.68c-15.02,4.61-31.36,6.28-46.95,5.08
	c-15.7-1.2-30.71-5.36-42.93-12.37c-17.15-9.86-28.9-25.3-29.73-46.19v-1.44l-3.72-1.01v-40.1l0.08-4.19
	c-10.68-9.67-19.43-22.5-25.32-35.56c-4.1-9.1-7.36-18.94-11.14-30.08l-1.96-5.79c-4.27-0.55-8.26-2.53-11.85-5.46
	c-4.51-3.7-8.39-9.1-11.54-15.33c-2.12-4.18-6.31-10.44-7.83-23.47c-4.56-2.78-7.29-8.1-6.52-13.74l10.29-74.07l-2.88-45.34
	c-0.21-3.29-0.32-6.3-0.32-8.99c0-40.38,17.37-76.65,44.86-103.41c26.09-25.43,61.41-42.27,99.6-45.83v-0.55
	C461.01,144.44,469.92,135.53,480.83,135.53z"/>
<path class="st1" d="M667.3,945.13c-48.41-47.66-79.87-124.86-79.87-211.99c0-43.17,7.72-83.89,21.4-119.8
	c-2.9-0.47-5.81-0.94-8.71-1.41c-8.37-1.33-16.66-2.67-30.29-5.06c-8.64-1.5-16.92,3.26-20.21,11
	c-10.24,19.83-31.24,32.72-54.36,37.88c-10.63,2.36-21.66,3.09-32.31,2.09c-10.24-0.96-20.08-3.56-28.77-7.85
	c-14.46-7.14-25.62-19.24-29.5-36.62c-2.18-9.86-11.88-16.11-21.74-14.08c-9.64,2.03-21.98,4.48-33.99,6.85
	C234.86,628.79,156.1,644.42,126.4,795.45l-21.01,128.22c-1.63,10.06,5.21,19.54,15.25,21.17c1,0.16,1.99,0.24,2.96,0.29H667.3z"/>
<path class="st2" d="M554.25,570.07c-51.71,40.24-102.84,36.41-153.5,0.35l-0.24,40.08c5.35,62.16,138.54,65.66,153.73,1.84v-42.27
	H554.25z M627.66,451.89c-1.3-1.53-2.58-3.05-3.89-4.56l-0.89-0.57c-34.78-24.5-90.33-36.71-146.12-36.71
	c-54.18,0-107.87,11.5-142.26,34.39l4.81,21.3l15.86,16.62l9.81,10.57c27.58,115.41,196.32,122.65,225.85,0l17.36-15.1
	L627.66,451.89z"/>
<path class="st3" d="M630.82,435.45l-9.24-66.94c-1.03-0.05-2.06-0.28-3.05-0.71c-50.54-22.04-99.27-31.08-146.42-30.05
	c-47.19,1.04-93,12.2-137.59,30.53c-0.7,0.28-1.41,0.47-2.12,0.57l-9.24,66.6C396.29,383.26,556.31,382.96,630.82,435.45z
	 M620.67,349.92l1.01-38.88c2.06-78.77-64.47-141.99-143.27-141.99h-2.23c-80.04,0-150.62,64.36-145.52,144.24l2.36,36.97
	c44.88-17.88,91.04-28.71,138.76-29.75C519.85,319.44,569.41,328.32,620.67,349.92z M476.98,228.77c19.18,0,34.73,15.56,34.73,34.73
	c0,19.16-15.56,34.7-34.73,34.7c-19.18,0-34.72-15.54-34.72-34.7C442.26,244.32,457.8,228.77,476.98,228.77z"/>
<path class="st4" d="M602.7,631.04c-1.81-0.29-3.63-0.59-5.45-0.88c-10.16-1.64-20.37-3.28-30.56-5.07
	c-13.04,26.44-40.24,43.15-69.71,49.13v85.86H457.1l-0.03-84.38c-33.23-4.38-62.54-23.31-70.34-58.34
	c-11.74,2.48-23.15,4.74-34.2,6.93C245.65,645.51,171.88,660.15,144.59,799l-7.17,43.63h152.83v-77.62c0-4.75,3.86-8.61,8.61-8.61
	s8.61,3.86,8.61,8.61v161.63h338.26v-6.17c-35.97-47.58-58.3-113.93-58.3-187.33C587.43,696.92,592.87,662.42,602.7,631.04z
	 M123.64,926.64l6.99-42.61h159.62v42.61H123.64z"/>
<g>
	<path class="st5" d="M488.58,563.61v68.5c49.08-2.83,91.97-29.32,117.56-68.5H488.58z"/>
	<path class="st5" d="M471.31,563.61H353.75c25.59,39.2,68.46,65.66,117.56,68.5V563.61L471.31,563.61z"/>
	<path class="st6" d="M330.68,605.56c35.67,43.23,89.3,70.74,149.28,70.74c107.4,0,194.43-88.11,194.43-196.85h11.89
		c0-147.75-66.63-267.97-206.34-267.97c-121.26,0-187.44,90.58-202.82,211.07L330.68,605.56z M289.44,456.48h381.02
		c0,15.71-85.3,28.44-190.51,28.44C374.74,484.9,289.44,472.17,289.44,456.48z M479.96,650.08c-92.92,0-168.53-76.53-168.53-170.6
		h17.28c0,23.93,5.61,46.49,15.31,66.67H615.9c9.7-20.18,15.31-42.76,15.31-66.67h17.28C648.48,573.55,572.88,650.08,479.96,650.08z
		"/>
	<path d="M373.57,807.78l-147.11,44.09L37.08,279.93c0,0,1.94-41.99,63.22-60.33c61.3-18.37,83.89,16.24,83.89,16.24L373.57,807.78z
		"/>
	<path d="M254.55,873.02l106.89-32.06l-12.07,35.87l19.11,65.35h-71.11l-13.39-45.75L254.55,873.02z"/>
	<path class="st7" d="M371.1,877.28l9.64-28.6l15.83-19.31l23.75-28.96l38.81-47.33l-40.33-45.24l122.41-0.02l-40.33,45.24
		l84.26,102.8l18.72-148.04h43.11c1.21,0,2.37,0.09,3.54,0.16c0.29,0.02,0.58,0.04,0.86,0.05c24.4,0.62,71.64,8.64,119.99,54.63
		C813.8,803.03,846.7,863,870,942.21H723.92c-3.32-8.55-6.7-16.4-10.14-23.6v23.6h-323.7L371.1,877.28z"/>
	<path class="st7" d="M246.28,942.2v-23.54c-3.45,7.16-6.87,15-10.23,23.54H90.13c21.9-74.32,52.29-131.75,90.91-171.75
		l31.49,107.62l10.78-3.23l42.67,33.97l9.77,33.39L246.28,942.2L246.28,942.2z"/>
</g>
<path class="st8" d="M942.43,1062.73c-116.46,0-210.86-94.41-210.86-210.86s94.41-210.86,210.86-210.86
	c26.52,0,51.9,4.9,75.27,13.83c48.36,18.49-28.31,92.46-58.44,204.86C940,931.58,987.85,1062.73,942.43,1062.73z"/>
<path class="st9" d="M955.1,554.5l-193.54,0.02c0,0-1.03,175.07,75.25,200.16c3.83,18.87,9.08,58.78-2.73,102.15h43.5
	c-11.81-43.36-6.56-83.28-2.73-102.15c76.28-25.1,75.25-200.16,75.25-200.16l0,0"/>
<path class="st6" d="M786.58,713.78c-30.66-10.23-67-42.8-82.84-76.98c-6.43-13.89-12.06-33.71-2.32-49.3
	c6.24-10.01,13.49-15.21,22.14-15.93c11.53-0.92,23.62,6.15,32.74,13.35c-0.55-8.5-0.8-15.43-0.92-20.19
	c-9.71-6.02-21.17-10.64-32.85-9.69c-13.19,1.07-24.36,8.8-33.2,22.96c-10.91,17.47-10.44,41.08,1.33,66.46
	c21.14,45.63,71.06,85.78,109.33,88.95C794.97,727.63,790.53,721.01,786.58,713.78L786.58,713.78z"/>
<path class="st6" d="M1018.25,577.99c-8.84-14.16-20.01-21.88-33.2-22.96c-11.66-0.96-23.13,3.67-32.86,9.7
	c-0.11,4.76-0.37,11.7-0.92,20.19c9.52-7.41,21.65-14.21,32.72-13.35c8.67,0.7,15.92,5.91,22.18,15.93
	c9.72,15.59,4.1,35.41-2.33,49.3c-15.84,34.18-52.18,66.75-82.85,76.98c-3.94,7.23-8.38,13.85-13.38,19.63
	c38.26-3.17,88.19-43.31,109.33-88.95C1028.68,619.07,1029.16,595.46,1018.25,577.99L1018.25,577.99z"/>
<path d="M775.25,860.61c-2.43,0-4.4,1.97-4.4,4.4v73.42c0,2.43,1.97,4.4,4.4,4.4h157.14c2.43,0,4.4-1.97,4.4-4.4v-73.42
	c0-2.43-1.97-4.4-4.4-4.4H775.25z M904.51,917.35c0,2.43-1.97,4.4-4.4,4.4h-92.59c-2.43,0-4.4-1.97-4.4-4.4v-31.27
	c0-2.43,1.97-4.4,4.4-4.4h92.59c2.43,0,4.4,1.97,4.4,4.4V917.35L904.51,917.35z"/>
<g>
	<path class="st10" d="M838.44,414.18c2.69,0,6.07,0.99,7.87-0.28c1.78-1.25,1.98-4.77,2.85-7.31c0.75-2.2,1.38-4.45,2.21-6.62
		c1.24-3.26,3.94-5.11,7.19-5.1c3.25,0.01,5.97,1.85,7.16,5.14c1.39,3.87,2.76,7.77,3.81,11.75c0.59,2.21,1.67,2.7,3.76,2.6
		c3.76-0.17,7.54-0.08,11.31-0.04c4.16,0.04,6.92,1.94,8.05,5.45c1.08,3.35-0.03,6.41-3.34,8.87s-6.66,4.88-10.03,7.25
		c-1.11,0.78-1.43,1.46-0.93,2.87c1.45,4.04,2.72,8.15,3.97,12.27c1.08,3.57-0.02,6.88-2.8,8.83c-2.7,1.9-6.06,1.87-9.05-0.22
		c-3.53-2.47-7.02-4.99-10.44-7.6c-1.15-0.88-1.91-0.8-3.01,0.04c-3.14,2.39-6.36,4.67-9.56,6.98c-3.6,2.6-7.02,2.86-9.93,0.77
		c-3.04-2.18-3.87-5.48-2.46-9.87c1.18-3.67,2.25-7.37,3.61-10.97c0.62-1.64,0.15-2.38-1.13-3.27c-3.24-2.25-6.41-4.6-9.59-6.95
		c-3.48-2.56-4.64-5.6-3.52-9.04c1.17-3.58,3.93-5.37,8.35-5.41c1.89-0.02,3.77,0,5.66,0C838.44,414.27,838.44,414.22,838.44,414.18
		z M872.27,450.22c0.2,0.04,0.41,0.09,0.61,0.13c-0.07-0.21-0.13-0.41-0.2-0.62c-1.22-3.93-2.44-7.87-3.67-11.8
		c-1.11-3.54-0.75-4.65,2.28-6.87c3.51-2.56,7.02-5.11,11.15-8.12c-4.46,0-8.11,0-11.76,0c-6.51,0-6.5,0-8.49-6.12
		c-1.12-3.42-2.28-6.83-3.67-11.01c-1.55,4.72-2.83,8.61-4.11,12.5c-1.35,4.12-2.06,4.63-6.35,4.64c-4.23,0-8.46,0-13.42,0
		c4.08,2.97,7.5,5.45,10.9,7.94c3.35,2.45,3.67,3.42,2.42,7.28c-1.24,3.86-2.5,7.71-3.75,11.55c1.14,0.49,1.78-0.26,2.49-0.77
		c2.69-1.95,5.38-3.9,8.06-5.86c3.19-2.32,4.31-2.34,7.45-0.09C865.56,445.4,868.92,447.81,872.27,450.22z"/>
	<path class="st11" d="M908.49,442.24c6.6,0,6.6,0,8.62-6.16c0.44-1.36,0.84-2.74,1.31-4.09c1.15-3.3,3.64-5.24,6.72-5.27
		c3.07-0.03,5.61,1.87,6.77,5.18c0.94,2.7,1.89,5.41,2.64,8.17c0.44,1.63,1.15,2.32,2.93,2.22c2.95-0.17,5.92-0.08,8.88-0.03
		c3.35,0.06,5.7,1.79,6.69,4.81c0.94,2.84,0.11,5.66-2.45,7.65c-2.48,1.93-5.02,3.76-7.62,5.53c-1.13,0.77-1.48,1.44-0.96,2.83
		c1.09,2.93,1.99,5.93,2.88,8.93c0.91,3.05-0.02,5.9-2.38,7.67c-2.5,1.88-5.48,1.98-8.26,0.1c-2.59-1.76-5.14-3.61-7.61-5.54
		c-1.12-0.87-1.92-0.8-3.01,0.05c-2.33,1.82-4.75,3.53-7.17,5.23c-2.95,2.06-5.92,2.12-8.49,0.26c-2.52-1.82-3.46-4.8-2.46-8.15
		c0.84-2.83,1.67-5.68,2.76-8.41c0.61-1.53,0.16-2.26-1.03-3.07c-2.37-1.62-4.69-3.31-6.98-5.03c-3-2.25-3.98-5.1-2.92-8.22
		c1-2.96,3.5-4.6,7.09-4.65C905.8,442.22,907.15,442.24,908.49,442.24z M909.99,450.87c-0.05,0.17-0.11,0.34-0.16,0.51
		c1.92,1.4,3.81,2.84,5.77,4.17c2.41,1.63,3.18,3.68,2.18,6.49c-0.81,2.3-1.79,4.57-2.13,7.16c0.4-0.14,0.58-0.17,0.72-0.27
		c1.68-1.2,3.36-2.4,5.03-3.61c3.19-2.31,4.39-2.26,7.69,0.04c1.68,1.17,3.12,2.79,5.68,3.47c-0.75-2.42-1.38-4.45-2.02-6.47
		c-1.13-3.59-0.76-4.75,2.19-6.91c1.9-1.39,3.81-2.77,5.92-4.31c-0.53-0.17-0.61-0.22-0.7-0.22c-2.24-0.02-4.49-0.03-6.73-0.05
		c-3.57-0.03-4.71-0.88-5.85-4.32c-0.75-2.28-1.51-4.56-2.43-7.35c-0.98,3.01-1.79,5.46-2.57,7.93c-0.8,2.57-2.52,3.8-5.21,3.76
		C914.93,450.84,912.46,450.87,909.99,450.87z"/>
	<path class="st11" d="M740.23,498.31c6.68,0,6.68,0,8.75-6.36c0.5-1.53,0.93-3.08,1.51-4.58c1.12-2.89,3.34-4.39,6.38-4.55
		c2.87-0.15,5.58,1.7,6.63,4.59c1.08,2.94,2.03,5.93,2.87,8.94c0.44,1.57,1.22,2.07,2.83,2c2.96-0.13,5.92-0.07,8.88-0.03
		c3.37,0.06,5.71,1.75,6.73,4.76c0.99,2.94,0.11,5.75-2.6,7.84c-2.34,1.81-4.68,3.64-7.19,5.2c-1.58,0.98-1.64,1.96-1.09,3.5
		c1,2.78,1.9,5.59,2.74,8.42c0.92,3.09,0.02,5.9-2.32,7.7c-2.47,1.89-5.51,2.02-8.26,0.16c-2.6-1.76-5.13-3.61-7.61-5.53
		c-1.1-0.86-1.9-0.88-3.01-0.01c-2.33,1.83-4.74,3.54-7.17,5.23c-2.98,2.08-5.92,2.15-8.49,0.32c-2.6-1.85-3.52-4.9-2.44-8.4
		c0.87-2.82,1.74-5.65,2.78-8.41c0.48-1.27,0.21-1.94-0.85-2.67c-2.44-1.67-4.83-3.42-7.19-5.2c-3.02-2.26-4.01-5.07-2.97-8.21
		c1.01-3.06,3.52-4.67,7.33-4.7C737.72,498.3,738.97,498.31,740.23,498.31z M772.99,506.95c-3.03,0-5.32,0.01-7.62,0
		c-3.77-0.02-4.79-0.82-6.03-4.44c-0.76-2.22-1.19-4.57-2.5-6.85c-0.84,2.56-1.59,4.85-2.35,7.15c-1.09,3.26-2.25,4.12-5.7,4.14
		c-2.35,0.02-4.71,0-7.38,0c0.44,0.54,0.52,0.7,0.65,0.79c1.73,1.28,3.48,2.54,5.21,3.82c2.87,2.11,3.28,3.34,2.23,6.67
		c-0.72,2.28-1.47,4.55-2.46,7.61c2.54-1.84,4.39-3.18,6.25-4.53c3.05-2.21,4.32-2.17,7.47,0.04c1.72,1.21,3.25,2.74,5.52,3.57
		c-0.17-2.5-1.18-4.51-1.8-6.61c-1.02-3.43-0.67-4.63,2.14-6.7C768.55,510.2,770.47,508.8,772.99,506.95z"/>
	<path class="st11" d="M943.18,498.32c6.41,0,6.41,0,8.4-6.08c0.5-1.53,0.93-3.09,1.49-4.6c1.14-3.06,3.76-4.9,6.75-4.84
		c2.9,0.06,5.44,1.86,6.49,4.82c1.05,2.95,1.98,5.94,2.88,8.94c0.39,1.29,0.98,1.85,2.43,1.79c3.05-0.13,6.1-0.07,9.15-0.03
		c3.38,0.05,5.73,1.73,6.75,4.72c1.01,2.94,0.14,5.77-2.55,7.85c-2.49,1.91-5.03,3.76-7.61,5.54c-1.04,0.72-1.32,1.34-0.85,2.63
		c1.11,3.02,2.02,6.11,2.96,9.19c0.92,3-0.02,5.5-2.37,7.44c-2.33,1.92-5.38,2.09-8.02,0.36c-2.62-1.72-5.16-3.58-7.62-5.52
		c-1.25-0.99-2.14-1.11-3.45-0.05c-2.29,1.86-4.73,3.55-7.17,5.22c-2.84,1.95-5.76,1.98-8.27,0.22c-2.55-1.79-3.54-4.79-2.55-8.12
		c0.79-2.66,1.6-5.32,2.63-7.89c0.71-1.79,0.49-2.88-1.23-3.95c-2.36-1.46-4.55-3.19-6.76-4.87c-2.87-2.19-3.8-4.96-2.81-8.02
		c0.98-3.01,3.45-4.69,7.02-4.74C940.3,498.3,941.74,498.32,943.18,498.32z M975.77,506.95c-3.32,0-5.81-0.03-8.31,0.01
		c-2.69,0.04-4.39-1.18-5.18-3.78c-0.75-2.47-1.6-4.91-2.46-7.52c-0.27,0.36-0.41,0.47-0.46,0.6c-0.71,2.12-1.41,4.25-2.12,6.38
		c-1.15,3.47-2.25,4.29-5.84,4.31c-2.33,0.02-4.65,0-7.74,0c2.19,1.61,3.63,2.68,5.08,3.73c4.58,3.32,4.69,3.73,2.96,9.18
		c-0.55,1.75-1.45,3.42-1.51,5.66c2.27-1.64,4.33-3.08,6.32-4.59c2.16-1.64,4.24-1.64,6.39,0.02c1.49,1.15,3.04,2.22,4.58,3.31
		c0.4,0.28,0.84,0.83,1.38,0.34c0.38-0.35,0.13-0.84-0.01-1.26c-0.62-1.87-1.27-3.73-1.86-5.62c-0.74-2.41-0.21-4.38,1.98-5.86
		C971.06,510.45,973.05,508.93,975.77,506.95z"/>
	<path class="st11" d="M775.12,442.24c6.63,0,6.63,0,8.72-6.36c0.45-1.36,0.87-2.73,1.35-4.08c1.14-3.16,3.57-5.02,6.57-5.07
		c3.08-0.06,5.71,1.84,6.84,5.1c1,2.87,1.96,5.76,2.77,8.69c0.39,1.39,1.07,1.8,2.45,1.75c3.05-0.1,6.1-0.06,9.15-0.02
		c3.23,0.05,5.67,1.73,6.68,4.48c1.06,2.91,0.27,5.87-2.33,7.94c-2.31,1.84-4.7,3.6-7.17,5.22c-1.49,0.98-2.04,1.88-1.29,3.69
		c1.05,2.56,1.82,5.24,2.63,7.89c1.06,3.46,0.11,6.55-2.5,8.38c-2.58,1.81-5.52,1.7-8.49-0.38c-2.35-1.65-4.73-3.26-6.95-5.08
		c-1.32-1.08-2.21-0.92-3.45,0.06c-2.24,1.78-4.59,3.44-6.95,5.08c-2.95,2.05-5.9,2.11-8.49,0.25c-2.53-1.81-3.44-4.76-2.42-8.13
		c0.88-2.91,1.75-5.83,2.82-8.67c0.49-1.29,0.18-1.91-0.86-2.62c-2.51-1.73-4.98-3.52-7.4-5.37c-2.87-2.19-3.79-5-2.75-8.02
		c1.06-3.08,3.42-4.67,7.03-4.72C772.43,442.22,773.77,442.24,775.12,442.24z M807.18,451.43c-0.04-0.19-0.08-0.37-0.12-0.56
		c-2.48,0-4.95-0.03-7.43,0.01c-2.7,0.04-4.39-1.21-5.18-3.78c-0.76-2.46-1.58-4.89-2.56-7.91c-0.93,2.82-1.67,5.1-2.43,7.38
		c-1.13,3.43-2.29,4.28-5.86,4.3c-2.35,0.02-4.7,0-7.77,0c2.61,1.9,4.5,3.4,6.5,4.72c2.5,1.65,3.04,3.8,2.07,6.52
		c-0.82,2.3-1.55,4.62-2.56,7.67c2.68-1.92,4.81-3.35,6.84-4.91c2.17-1.67,4.23-1.62,6.38-0.01c2,1.5,4.05,2.93,6.66,4.82
		c-0.99-3.18-1.72-5.73-2.59-8.23c-0.79-2.29-0.12-4.04,1.74-5.42C802.97,454.47,805.08,452.96,807.18,451.43z"/>
	<path class="st12" d="M873.64,448.65c-3.69-2.65-7.38-5.3-11.07-7.95c-3.46-2.48-4.69-2.47-8.2,0.1c-2.96,2.15-5.91,4.3-8.87,6.45
		c-0.78,0.56-1.49,1.39-2.74,0.85c1.38-4.23,2.76-8.46,4.13-12.71c1.38-4.25,1.02-5.32-2.66-8.01c-3.74-2.74-7.51-5.47-12-8.74
		c5.45,0,10.1,0,14.77,0c4.72,0,5.5-0.57,6.99-5.11c1.41-4.28,2.82-8.56,4.52-13.76c1.54,4.61,2.82,8.35,4.04,12.12
		c2.2,6.73,2.19,6.73,9.34,6.73c4.02,0,8.03,0,12.94,0c-4.55,3.3-8.41,6.12-12.27,8.94c-3.33,2.44-3.73,3.66-2.51,7.56
		c1.35,4.32,2.7,8.65,4.04,12.99C873.95,448.29,873.8,448.46,873.64,448.65z"/>
	<path class="st12" d="M915.15,449.37c2.72,0,5.44-0.03,8.14,0.01c2.97,0.04,4.85-1.31,5.73-4.14c0.85-2.71,1.75-5.41,2.83-8.73
		c1.01,3.07,1.85,5.58,2.67,8.09c1.25,3.8,2.51,4.72,6.44,4.75c2.47,0.02,4.94,0.03,7.41,0.05c0.09,0,0.19,0.06,0.77,0.24
		c-2.32,1.69-4.42,3.21-6.51,4.74c-3.25,2.38-3.65,3.65-2.41,7.6c0.7,2.22,1.39,4.46,2.22,7.12c-2.82-0.74-4.4-2.53-6.25-3.82
		c-3.64-2.53-4.95-2.59-8.46-0.04c-1.84,1.33-3.69,2.65-5.54,3.97c-0.15,0.11-0.36,0.13-0.79,0.3c0.37-2.84,1.44-5.35,2.34-7.88
		c1.1-3.09,0.25-5.35-2.4-7.14c-2.16-1.46-4.24-3.06-6.35-4.59C915.04,449.74,915.1,449.55,915.15,449.37z"/>
	<path class="st12" d="M764.39,511.08c-2.77,2.04-4.89,3.58-7,5.14c-3.09,2.28-3.48,3.6-2.36,7.37c0.68,2.31,1.79,4.52,1.98,7.27
		c-2.51-0.91-4.18-2.6-6.07-3.93c-3.47-2.43-4.88-2.48-8.22-0.04c-2.05,1.49-4.08,2.96-6.88,4.99c1.09-3.37,1.91-5.87,2.71-8.37
		c1.16-3.66,0.69-5.02-2.45-7.34c-1.9-1.41-3.83-2.8-5.73-4.2c-0.14-0.11-0.23-0.28-0.72-0.87c2.94,0,5.52,0.02,8.12,0
		c3.8-0.03,5.07-0.97,6.27-4.56c0.84-2.52,1.66-5.05,2.59-7.87c1.45,2.51,1.91,5.1,2.75,7.54c1.36,3.98,2.49,4.88,6.64,4.89
		C758.53,511.09,761.06,511.08,764.39,511.08z"/>
	<path class="st12" d="M987.54,511.08c-3,2.18-5.18,3.86-7.46,5.4c-2.41,1.63-2.99,3.8-2.18,6.45c0.64,2.07,1.36,4.12,2.05,6.18
		c0.15,0.46,0.43,1.01,0.01,1.39c-0.59,0.55-1.08-0.05-1.52-0.37c-1.69-1.2-3.4-2.38-5.04-3.64c-2.37-1.83-4.66-1.83-7.03-0.02
		c-2.19,1.66-4.46,3.24-6.96,5.05c0.07-2.47,1.06-4.3,1.66-6.23c1.9-6,1.78-6.45-3.26-10.1c-1.6-1.16-3.18-2.33-5.59-4.1
		c3.4,0,5.95,0.01,8.52,0c3.95-0.02,5.16-0.94,6.43-4.74c0.78-2.34,1.54-4.68,2.33-7.02c0.06-0.15,0.2-0.28,0.51-0.66
		c0.95,2.87,1.88,5.56,2.71,8.28c0.87,2.86,2.74,4.19,5.7,4.16C981.15,511.05,983.89,511.08,987.54,511.08z"/>
	<path class="st12" d="M802.01,449.98c-2.31,1.68-4.63,3.36-6.93,5.06c-2.05,1.52-2.78,3.44-1.91,5.96
		c0.96,2.75,1.75,5.56,2.85,9.06c-2.88-2.08-5.13-3.65-7.33-5.3c-2.37-1.77-4.63-1.83-7.02,0.01c-2.23,1.72-4.58,3.29-7.53,5.4
		c1.11-3.36,1.91-5.91,2.82-8.44c1.07-3,0.48-5.36-2.28-7.18c-2.2-1.45-4.29-3.1-7.15-5.19c3.38,0,5.96,0.01,8.55,0
		c3.93-0.02,5.21-0.97,6.45-4.73c0.83-2.51,1.65-5.02,2.67-8.12c1.08,3.32,1.98,6,2.82,8.7c0.88,2.83,2.73,4.2,5.7,4.16
		c2.73-0.04,5.45-0.01,8.18-0.01C801.93,449.58,801.97,449.77,802.01,449.98z"/>
</g>
</svg>
