<svg width="60" height="83" viewBox="0 0 60 83" fill="none" xmlns="http://www.w3.org/2000/svg">
<path d="M1.93346 34.0928L1.92805 34.1047C1.87713 34.2307 1.90052 34.3757 1.98973 34.4795L2.59245 35.1806L2.59237 35.1807L7.12045 40.4391L7.31087 40.6602L7.35247 40.9491L8.47456 48.7415C8.47461 48.7418 8.47466 48.7421 8.47471 48.7425C8.49577 48.8833 8.59576 48.9967 8.72728 49.0359C8.72747 49.0359 8.72765 49.036 8.72784 49.036L12.7635 50.2259L13.4807 50.4373V51.1851V81.3301C13.4807 81.4543 13.5436 81.5687 13.6448 81.6345L13.6454 81.6349C13.7458 81.7003 13.8719 81.7104 13.9808 81.6625C13.9814 81.6622 13.9819 81.662 13.9825 81.6617L29.3207 74.7582L29.7313 74.5735L30.1418 74.7583L45.4579 81.6561C45.5646 81.6981 45.6842 81.6861 45.78 81.6241C45.8759 81.5621 45.9382 81.4563 45.9449 81.338V51.3762V50.6281L46.6625 50.4169L51.3212 49.0455C51.3215 49.0454 51.3218 49.0454 51.322 49.0453C51.4468 49.0079 51.5428 48.9041 51.5702 48.7731L51.5744 48.7437L52.6968 40.9488L52.7384 40.6599L52.9289 40.4388L58.0602 34.4798C58.0602 34.4798 58.0603 34.4798 58.0603 34.4798C58.1525 34.3724 58.1744 34.2209 58.1163 34.092C58.1162 34.0917 58.1161 34.0915 58.116 34.0913L54.8585 26.9335L54.7372 26.6668L54.7789 26.3768L55.9014 18.5818L55.9019 18.578C55.923 18.4357 55.8592 18.2958 55.7407 18.2188C55.7406 18.2187 55.7405 18.2187 55.7404 18.2186L49.1623 13.9678L48.916 13.8086L48.7947 13.5417L45.5365 6.37344L45.5354 6.37098C45.4771 6.24179 45.3507 6.16082 45.2134 6.15987H37.3693H37.075L36.8276 6.00045L30.2299 1.74874L30.2298 1.74867C30.1134 1.67362 29.9639 1.67362 29.8475 1.74867L29.8474 1.74874L23.2497 6.00045L23.0023 6.15987H22.708H14.891C14.7537 6.16082 14.6273 6.24179 14.569 6.37098L14.5679 6.37344L11.3098 13.5417L11.188 13.8095L10.9406 13.9688L4.33396 18.2205L4.32613 18.2255L4.31821 18.2304C4.19858 18.3043 4.13112 18.4435 4.14949 18.587C4.14962 18.588 4.14974 18.5889 4.14986 18.5899L5.2712 26.3768L5.31297 26.6668L5.19159 26.9335L1.93346 34.0928ZM44.2566 51.1767H45.2563L45.2566 52.1764L45.2655 79.2318L45.266 80.7804L43.8543 80.1437L38.6777 77.809L38.0888 77.5434V76.8974V76.8245V58.0457V57.6762L38.3291 57.3955L43.3524 51.5265L43.6517 51.1767H44.1121H44.2566ZM29.7757 73.8098H29.7735L29.7288 73.8097L29.7207 73.8097L29.7126 73.8096C29.6594 73.8086 29.6061 73.8199 29.557 73.8428L29.5358 73.7976L29.5467 73.8479L24.1161 76.31L22.7032 76.9506V75.3992V58.2282V57.4799L23.4212 57.2688L29.7563 55.4063L30.0383 55.3234L30.3204 55.4063L36.6555 57.2688L37.3734 57.4799V58.2282V75.6718V77.2239L35.9601 76.5824L29.9185 73.84C29.9181 73.8398 29.9177 73.8396 29.9173 73.8394C29.8741 73.8203 29.8261 73.8098 29.7757 73.8098ZM14.1957 51.9869V50.6222L15.4969 51.0334L16.2754 51.2793L16.5461 51.3648L16.7315 51.5798L21.7453 57.3943L21.9879 57.6758V58.0474V76.6169V77.2615L21.4008 77.5277L15.6086 80.1533L14.1957 80.7937V79.2425V51.9869ZM5.85733 25.5211H5.86111L4.97497 19.3402L4.8839 18.7049L5.42346 18.3575L11.627 14.3629C11.6276 14.3625 11.6281 14.3622 11.6286 14.3618C11.6859 14.324 11.7308 14.2712 11.7583 14.2099L11.7602 14.2058L14.8195 7.47362L15.0859 6.88735H15.7299H23.1045C23.1709 6.88701 23.2376 6.86747 23.2959 6.82973L23.2971 6.82892L29.4965 2.83127L30.0384 2.4818L30.5804 2.83127L36.7797 6.82892L36.781 6.82974C36.8394 6.86751 36.906 6.88703 36.9724 6.88735H44.347H44.9909L45.2574 7.47362L48.3167 14.2058L48.3167 14.2058L48.3186 14.2099C48.3445 14.2675 48.3856 14.3176 48.438 14.3548L48.4458 14.3598L54.6541 18.3575L55.1951 18.7059L55.1022 19.3426L54.034 26.6654L54.034 26.6657C54.0239 26.7344 54.034 26.8058 54.0631 26.8694L54.0633 26.8699L57.1226 33.5931L57.3876 34.1755L56.9699 34.6602L52.146 40.2567L52.146 40.2567C52.1013 40.3086 52.0718 40.373 52.0618 40.4433L52.0616 40.4453L51.0117 47.7682L50.9207 48.4031L50.3056 48.5851L45.5178 50.0022L45.5178 50.0022L43.2468 50.6744C43.183 50.6933 43.1248 50.7307 43.0795 50.7837L43.0768 50.7868L38.2529 56.3743L37.832 56.8619L37.2139 56.6803L30.1364 54.5998L30.1343 54.5991C30.0716 54.5806 30.0051 54.5806 29.9424 54.5992L29.9404 54.5998L22.8628 56.6803L22.2448 56.8619L21.8238 56.3743L17 50.7868L16.9973 50.7837C16.9522 50.731 16.8943 50.6937 16.8308 50.6747C16.8305 50.6746 16.8302 50.6745 16.8299 50.6744L9.75353 48.5853L9.13789 48.4036L9.04679 47.7682L7.99691 40.4453L7.9963 40.4409C7.98698 40.3738 7.95806 40.309 7.91191 40.2553L3.08873 34.6602L2.67092 34.1756L2.93595 33.5931L5.9953 26.8699L5.99553 26.8694C6.02452 26.8058 6.03463 26.7344 6.02459 26.6657L5.85733 25.5211Z" fill="#800000" stroke="white" stroke-width="2"/>
<path d="M29.7027 50.5763C35.0649 50.5835 40.2113 48.4518 44.0078 44.6484L44.0079 44.6483C47.8052 40.8449 49.9417 35.681 49.9453 30.2948C49.949 24.9085 47.8203 19.7417 44.0284 15.9327L44.0283 15.9327C40.2372 12.1241 35.0941 9.98459 29.7323 9.98438C24.3814 9.99166 19.2506 12.1254 15.4623 15.9204C11.6736 19.7158 9.5353 24.8636 9.51724 30.238C9.50617 35.6245 11.6274 40.7932 15.4137 44.6073C19.2002 48.4217 24.3399 50.5684 29.7027 50.5763ZM29.7027 50.5763L29.7013 51.5763M29.7027 50.5763L29.7013 51.5763M29.7013 51.5763C35.33 51.5839 40.7315 49.3462 44.7156 45.3548L8.51725 30.2346C8.50529 35.8856 10.7306 41.3092 14.704 45.3119C18.6774 49.3145 24.072 51.568 29.7013 51.5763ZM29.7315 49.8512H28.7315V49.7787C23.9245 49.5267 19.3663 47.4993 15.9475 44.0667C12.2923 40.3974 10.237 35.424 10.2324 30.236L10.2324 30.2327C10.245 25.0466 12.3082 20.0768 15.9703 16.416C19.632 12.7543 24.5932 10.7026 29.7626 10.7106L29.7628 10.7106C34.9331 10.7193 39.8869 12.788 43.5372 16.4608L43.5372 16.4608C47.1874 20.1338 49.2347 25.1102 49.23 30.2969C49.2259 35.483 47.1707 40.4562 43.5146 44.1236C39.859 47.7905 34.9012 49.8512 29.7315 49.8512Z" fill="#800000" stroke="white" stroke-width="2"/>
</svg>
