<?xml version="1.0" encoding="utf-8"?>
<!-- Generator: Adobe Illustrator 24.0.1, SVG Export Plug-In . SVG Version: 6.00 Build 0)  -->
<svg version="1.1" id="Layer_1" xmlns="http://www.w3.org/2000/svg" xmlns:xlink="http://www.w3.org/1999/xlink" x="0px" y="0px"
	 viewBox="0 0 1080 1080" style="enable-background:new 0 0 1080 1080;" xml:space="preserve">
<style type="text/css">
	.st0{fill:#800000;}
	.st1{fill:#EEDC92;}
	.st2{fill:#FFFFFF;}
	.st3{fill:#FFBB1A;}
	.st4{fill:#028A7E;}
</style>
<g>
	<path class="st0" d="M456.61,767.24c-47.99-0.08-95.98-0.18-143.96-0.24c-33.75-0.04-67.51,0.04-101.26-0.02
		c-31.97-0.05-52.08-19.84-52.09-51.61c-0.06-151.87-0.06-303.75,0-455.62c0.01-31.72,19.7-51.37,51.24-51.38
		c89.39-0.04,178.78-0.02,268.18-0.01c2.37,0,4.74,0.17,7.1,0.26c0.01,20.27,0.02,40.54,0.03,60.81c-3.42,0.12-6.84,0.33-10.26,0.34
		c-82,0.02-164.01,0.12-246.01-0.16c-7.74-0.03-9.49,2.24-9.48,9.71c0.23,127.61,0.17,255.21,0.17,382.82
		c0,11.1,0,11.11,11.01,11.11c205.66,0,411.33,0,616.99,0c1.32,0,2.65-0.13,3.95,0.02c5.06,0.57,6.99-1.38,6.87-6.68
		c-0.24-11.32,0.13-22.65,0.26-33.98c20.12,0.1,40.24,0.19,60.37,0.29c0.4,31.07,1.52,62.2-0.55,93.2
		c-1.57,23.55-23.47,40.82-49.38,40.86c-69.85,0.11-139.71,0.03-209.56,0.05c-12.39,0-24.77,0.14-37.15,0.21
		c-10.45-0.01-20.9-0.01-31.36-0.02C546.67,767.21,501.64,767.22,456.61,767.24z"/>
	<path class="st0" d="M485.85,269.43c-0.01-20.27-0.02-40.54-0.02-60.81c16.35,0,32.7,0.01,49.05,0.01
		c-2.83,18.51,15.92,36.97,36.02,36.8c101.95-0.89,203.92-0.32,305.88-0.58c7.72-0.02,9.55,2.24,9.53,9.72
		c-0.25,91.68,0.18,183.36-0.44,275.03c-0.13,19.84,14.07,35.4,34.16,36.77c0.66,22.18,1.21,44.35-0.31,66.52
		c-20.12-0.1-40.24-0.19-60.37-0.29c-0.29,0.13-0.59,0.18-0.91,0.16c0.19-2.88,0.55-5.76,0.55-8.64
		c0.03-114.92-0.05-229.83,0.19-344.75c0.02-7.59-1.98-9.64-9.59-9.62c-118.62,0.24-237.23,0.17-355.85,0.18
		c-2.63,0-5.26,0.2-7.89,0.3C485.89,269.98,485.89,269.7,485.85,269.43z"/>
	<path class="st0" d="M920.02,566.38c-20.09-1.37-34.29-16.93-34.16-36.77c0.62-91.67,0.19-183.36,0.44-275.03
		c0.02-7.49-1.8-9.74-9.53-9.72c-101.96,0.26-203.93-0.31-305.88,0.58c-20.1,0.17-38.85-18.29-36.02-36.8
		c1.05-0.09,2.1-0.26,3.14-0.26c111.44-0.01,222.87-0.11,334.31,0.06c27.51,0.04,48.05,20.27,48.17,49.04
		c0.45,101.94,0.16,203.89,0.13,305.83C920.63,564.33,920.23,565.35,920.02,566.38z"/>
	<path class="st1" d="M456.61,767.24c45.03-0.02,90.06-0.03,135.09-0.05c10.85,24.72,21.92,49.35,32.43,74.21
		c4.15,9.82,10.21,18.93,11.86,29.76c-55.79,0.08-111.58,0.17-167.37,0.25c-16.84,0.02-33.69-0.25-50.53,0.13
		c-6.55,0.15-6.65-1.6-4.28-6.92C428.25,832.24,442.38,799.72,456.61,767.24z"/>
	<path class="st1" d="M635.99,871.17c-1.65-10.83-7.71-19.94-11.86-29.76c-10.5-24.87-21.58-49.49-32.43-74.21
		c10.45,0.01,20.91,0.01,31.36,0.02c8.95,20.7,17.86,41.41,26.87,62.09c5.24,12.03,10.56,24.02,15.98,35.97
		c1.98,4.37,2.01,6.7-3.94,6.37C653.33,871.16,644.65,871.3,635.99,871.17z"/>
	<path class="st2" d="M859.35,632.61c-0.12,11.33-0.5,22.66-0.26,33.98c0.11,5.3-1.82,7.25-6.87,6.68c-1.3-0.15-2.63-0.02-3.95-0.02
		c-205.66,0-411.33,0-616.99,0c-11.01,0-11.01,0-11.01-11.11c0-127.61,0.07-255.21-0.17-382.82c-0.01-7.48,1.74-9.74,9.48-9.71
		c82,0.28,164,0.18,246.01,0.16c3.42,0,6.84-0.22,10.26-0.34c0.04,0.27,0.04,0.55,0.01,0.82c-0.01,61.15-0.28,122.3,0.09,183.45
		c0.16,26.29-1.51,52.59,1.33,78.88c3.42,31.67,18.65,56.4,42.81,76.14c4.11,3.36,7.77,8.11,13.99,8.06c0.08,2.1,0.51,4.26,0.19,6.3
		c-1.18,7.61,1.8,10.04,9.47,9.61c11.56-0.64,23.17-0.14,34.77-0.13c15.42,0,30.83,0,46.25-0.01c14.55-0.04,29.1-0.08,43.65-0.13
		c15.08,0,30.17,0,45.25,0c14.85-0.06,29.7-0.13,44.55-0.19c30.08,0.18,60.16,0.35,90.24,0.53
		C858.75,632.79,859.06,632.74,859.35,632.61z M295.95,447.71c22.31,26,69.78,25.97,91.88-0.07c17.76-15.24,24.33-45.13,15.17-68.98
		c-9.81-25.53-34.92-42.65-61.17-41.7c-8.65-0.91-16.72,1.47-24.61,4.52C274.2,358.13,262.13,418.55,295.95,447.71z M326.79,542.68
		c12.64,0,25.27-0.15,37.9,0.06c6.54,0.11,11.38-2.31,11.39-9.02c0.01-6.7-4.79-9.1-11.35-9.06c-25.01,0.16-50.01,0.11-75.02,0.03
		c-6.33-0.02-11.28,1.78-11.28,8.98c0,7.15,4.88,9.1,11.24,9.04C302.04,542.61,314.42,542.68,326.79,542.68z M322.07,641.03
		c11.05,0,22.1,0,33.16,0c5.85,0,9.98-2.68,10.12-8.65c0.15-6.36-3.95-9.34-10.21-9.34c-22.1,0-44.21,0.01-66.31-0.01
		c-6.18,0-10.34,2.58-10.4,9.13c-0.06,6.78,4.42,8.91,10.49,8.89C299.97,641.02,311.02,641.04,322.07,641.03z M394.72,591.89
		c9.75,0,19.5-0.08,29.24,0.03c6.27,0.07,10.64-2.76,10.66-9c0.02-6.2-4.21-9.12-10.55-9.1c-19.49,0.09-38.99,0.1-58.48,0
		c-6.3-0.03-10.61,2.76-10.66,8.99c-0.05,6.25,4.27,9.15,10.55,9.1C375.23,591.83,384.98,591.89,394.72,591.89z M407.31,641.08
		c0,0.02,0,0.03,0,0.05c6.28,0,12.59,0.31,18.85-0.09c5.53-0.35,8.8-4.08,8.49-9.42c-0.31-5.27-3.72-8.54-9.41-8.55
		c-11.8-0.03-23.59-0.03-35.39,0c-6.02,0.02-9.57,3.37-9.66,9.1c-0.09,5.48,3.56,8.64,9.05,8.86
		C395.25,641.27,401.28,641.08,407.31,641.08z M307.01,591.87c6.06,0,12.12-0.01,18.18,0c6.01,0.01,9.87-3.11,9.88-8.92
		c0.02-5.75-3.69-9.06-9.75-9.06c-12.39-0.01-24.77-0.05-37.16,0c-5.89,0.02-9.72,2.8-9.76,8.94c-0.04,6.12,3.67,8.99,9.63,9.04
		C294.36,591.92,300.68,591.88,307.01,591.87z M414.08,542.63c3.93,0,7.87,0.14,11.79-0.03c5.72-0.24,8.84-3.84,8.78-9.1
		c-0.06-4.84-3-8.5-8.37-8.65c-7.86-0.21-15.73-0.26-23.58,0.02c-5.23,0.19-8.33,3.56-8.38,8.61c-0.06,5.44,3.18,8.75,8.77,9.1
		C406.73,542.81,410.41,542.63,414.08,542.63z"/>
	<path class="st2" d="M858.44,632.77c-30.08-0.18-60.16-0.35-90.24-0.52c0.15-46.33,0.26-92.67,0.48-139
		c0.02-4.13-2.14-4.66-5.48-4.63c-11.32,0.1-22.66,0.28-33.97-0.07c-5.12-0.16-6.13,1.89-6.06,6.47
		c0.22,15.01,0.04,30.02,0.09,45.03c0.1,30.8,0.25,61.6,0.38,92.4c-15.08,0-30.17,0-45.25,0c0.13-26.35,0.19-52.7,0.45-79.05
		c0.04-3.91-1.5-4.94-5.13-4.89c-11.33,0.16-22.67,0.23-34-0.03c-4.53-0.1-5.96,1.48-5.84,5.91c0.25,10.01-0.09,20.03,0.11,30.05
		c0.33,16.04-1.03,32.12,0.76,48.14c-15.42,0-30.83,0-46.25,0.01c0.1-36.61,0.13-73.22,0.37-109.83c0.03-4.68-1.9-5.8-6.13-5.71
		c-9.48,0.21-19,0.55-28.44-0.09c-7.7-0.52-10.35,1.38-10.21,9.78c0.51,30.01,0.07,60.05-0.01,90.07c-6.22,0.05-9.89-4.7-13.99-8.06
		c-24.15-19.74-39.39-44.47-42.81-76.14c-2.84-26.3-1.17-52.6-1.33-78.88c-0.37-61.15-0.1-122.3-0.09-183.45
		c2.63-0.11,5.26-0.3,7.89-0.31c118.62-0.02,237.23,0.06,355.85-0.18c7.61-0.02,9.61,2.03,9.59,9.62
		c-0.24,114.92-0.16,229.83-0.19,344.75C858.99,627.01,858.63,629.89,858.44,632.77z M582.39,450.7c0.02-2.1,0.1-4.21,0.04-6.31
		c-0.24-9.23-6.99-17.06-16.1-18.74c-8.33-1.53-18.08,3.68-20.87,11.96c-5.98,17.75,7.69,30.04,24.36,26.88
		c19.13,12.48,38.27,24.95,57.4,37.43c0.37,1.8,0.63,3.64,1.12,5.4c2.26,8.03,9.65,13.83,18.02,14.25
		c8.08,0.4,16.16-5.1,19.04-12.87c1.63-4.39,0.84-8.85,0.6-13.3c20.59-21.28,41.17-42.56,61.76-63.84c1.58,0,3.16,0.12,4.73-0.01
		c11.06-0.89,19.42-10.02,18.79-20.47c-0.65-10.61-10.05-19.21-20.55-18.79c-10.83,0.43-19.15,9.91-18.6,21.29
		c0.11,2.35,0.63,4.68,0.97,7.01c-20.06,20.75-40.12,41.49-60.19,62.24c-6.23-1.4-11.99,0.16-17.57,2.82
		C617.7,474.02,600.04,462.36,582.39,450.7z"/>
	<path class="st3" d="M723.65,632.44c-0.13-30.8-0.28-61.6-0.38-92.4c-0.05-15.01,0.13-30.02-0.09-45.03
		c-0.07-4.57,0.94-6.63,6.06-6.47c11.31,0.35,22.65,0.17,33.97,0.07c3.34-0.03,5.49,0.5,5.48,4.63c-0.22,46.34-0.33,92.67-0.48,139
		C753.35,632.31,738.5,632.38,723.65,632.44z"/>
	<path class="st3" d="M544.07,616.79c0.08-30.02,0.52-60.06,0.01-90.07c-0.14-8.39,2.51-10.3,10.21-9.78
		c9.44,0.64,18.96,0.3,28.44,0.09c4.23-0.09,6.16,1.03,6.13,5.71c-0.23,36.61-0.27,73.22-0.37,109.83
		c-11.59-0.01-23.21-0.51-34.77,0.13c-7.67,0.43-10.65-2-9.47-9.61C544.58,621.05,544.15,618.89,544.07,616.79z"/>
	<path class="st4" d="M341.83,336.97c26.25-0.95,51.36,16.17,61.17,41.7c9.17,23.85,2.59,53.73-15.17,68.97
		c-2.11-1.94-4.27-3.82-6.32-5.82c-13.23-12.97-26.43-25.96-39.64-38.94C341.86,380.9,341.85,358.94,341.83,336.97z"/>
	<path class="st1" d="M341.83,336.97c0.02,21.97,0.03,43.94,0.05,65.91c-15.31,14.95-30.62,29.89-45.92,44.84
		c-33.83-29.17-21.75-89.58,21.27-106.23C325.11,338.43,333.18,336.06,341.83,336.97z"/>
	<path class="st3" d="M634.74,632.56c-1.79-16.02-0.43-32.09-0.76-48.14c-0.21-10.01,0.14-20.04-0.11-30.05
		c-0.11-4.43,1.32-6.02,5.84-5.91c11.33,0.26,22.67,0.19,34,0.03c3.63-0.05,5.17,0.97,5.13,4.89c-0.25,26.35-0.32,52.7-0.45,79.05
		C663.85,632.48,649.3,632.52,634.74,632.56z"/>
	<path class="st3" d="M295.95,447.71c15.31-14.94,30.62-29.89,45.92-44.84c13.21,12.98,26.41,25.97,39.64,38.94
		c2.04,2,4.21,3.88,6.32,5.82C365.73,473.68,318.26,473.72,295.95,447.71z"/>
	<path class="st3" d="M326.79,542.68c-12.37,0-24.74-0.08-37.12,0.03c-6.36,0.05-11.24-1.89-11.24-9.04c0-7.19,4.94-9,11.28-8.98
		c25.01,0.09,50.02,0.13,75.02-0.03c6.56-0.04,11.36,2.36,11.35,9.06c-0.01,6.71-4.85,9.13-11.39,9.02
		C352.06,542.53,339.42,542.68,326.79,542.68z"/>
	<path class="st3" d="M322.07,641.04c-11.05,0.01-22.1-0.02-33.16,0.02c-6.07,0.02-10.56-2.1-10.49-8.89
		c0.06-6.55,4.22-9.14,10.4-9.13c22.1,0.01,44.21,0.01,66.31,0.01c6.27,0,10.37,2.98,10.21,9.34c-0.14,5.97-4.27,8.65-10.12,8.65
		C344.18,641.03,333.12,641.03,322.07,641.04z"/>
	<path class="st3" d="M394.72,591.89c-9.75,0-19.5-0.06-29.24,0.02c-6.28,0.05-10.6-2.85-10.55-9.1c0.05-6.23,4.37-9.02,10.66-8.99
		c19.49,0.1,38.99,0.09,58.48,0c6.33-0.03,10.57,2.9,10.55,9.1c-0.02,6.24-4.39,9.07-10.66,9
		C414.22,591.81,404.47,591.89,394.72,591.89z"/>
	<path class="st3" d="M407.31,641.08c-6.02,0-12.05,0.19-18.07-0.06c-5.49-0.22-9.14-3.38-9.05-8.86c0.09-5.73,3.63-9.09,9.66-9.1
		c11.8-0.03,23.59-0.02,35.39,0c5.68,0.01,9.1,3.28,9.41,8.55c0.31,5.34-2.96,9.07-8.49,9.42c-6.26,0.4-12.56,0.09-18.85,0.09
		C407.31,641.11,407.31,641.09,407.31,641.08z"/>
	<path class="st3" d="M307.01,591.87c-6.32,0-12.65,0.04-18.97-0.01c-5.96-0.05-9.66-2.92-9.63-9.04c0.04-6.13,3.87-8.92,9.76-8.94
		c12.39-0.05,24.77-0.01,37.16,0c6.06,0,9.77,3.31,9.75,9.06c-0.02,5.81-3.87,8.93-9.88,8.92
		C319.13,591.86,313.07,591.87,307.01,591.87z"/>
	<path class="st3" d="M414.08,542.63c-3.67,0-7.35,0.18-11-0.04c-5.58-0.34-8.83-3.65-8.77-9.1c0.06-5.05,3.16-8.43,8.38-8.61
		c7.85-0.28,15.72-0.23,23.58-0.02c5.38,0.14,8.32,3.8,8.37,8.65c0.06,5.26-3.06,8.85-8.78,9.1
		C421.95,542.77,418.01,542.63,414.08,542.63z"/>
	<path d="M727.76,431.57c-20.59,21.28-41.17,42.56-61.76,63.83c-3.02-5.58-7.15-10.01-13.09-12.54
		c20.06-20.75,40.12-41.49,60.18-62.24C717.18,425.35,721.75,429.42,727.76,431.57z"/>
	<path class="st3" d="M727.76,431.57c-6.01-2.15-10.58-6.22-14.66-10.95c-0.33-2.34-0.85-4.67-0.96-7.02
		c-0.56-11.39,7.77-20.86,18.6-21.29c10.5-0.42,19.9,8.17,20.55,18.79c0.64,10.45-7.73,19.58-18.79,20.47
		C730.93,431.69,729.34,431.57,727.76,431.57z"/>
	<path class="st3" d="M652.92,482.86c5.94,2.54,10.07,6.96,13.09,12.54c0.24,4.45,1.02,8.92-0.6,13.3
		c-2.88,7.77-10.97,13.27-19.04,12.87c-8.37-0.41-15.76-6.22-18.02-14.25c-0.5-1.77-0.76-3.6-1.12-5.4
		c0.86-6.34,3.48-11.8,8.12-16.25C640.93,483.02,646.69,481.46,652.92,482.86z"/>
	<path d="M635.35,485.68c-4.65,4.45-7.26,9.91-8.12,16.25c-19.14-12.48-38.27-24.95-57.4-37.43c5.09-3.78,10.04-7.68,12.57-13.79
		C600.04,462.36,617.7,474.02,635.35,485.68z"/>
	<path class="st3" d="M582.39,450.7c-2.53,6.11-7.48,10.01-12.57,13.79c-16.68,3.15-30.34-9.13-24.37-26.89
		c2.79-8.27,12.54-13.49,20.87-11.96c9.12,1.68,15.86,9.5,16.1,18.74C582.49,446.49,582.41,448.6,582.39,450.7z"/>
</g>
</svg>
