<?xml version="1.0" encoding="utf-8"?>
<!-- Generator: Adobe Illustrator 24.0.1, SVG Export Plug-In . SVG Version: 6.00 Build 0)  -->
<svg version="1.1" id="Layer_1" xmlns="http://www.w3.org/2000/svg" xmlns:xlink="http://www.w3.org/1999/xlink" x="0px" y="0px"
	 viewBox="0 0 1080 1080" style="enable-background:new 0 0 1080 1080;" xml:space="preserve">
<style type="text/css">
	.st0{fill:#800000;}
	.st1{fill:#EEDC92;}
	.st2{fill:#FFBD11;}
</style>
<g>
	<path class="st0" d="M764.92,154.13c8.67,1.94,17.44,3.53,26,5.87c71.37,19.45,121.08,86.84,117.92,159.64
		c-3.34,76.91-58.11,140.05-132.81,153.11c-92.86,16.23-179.64-50.88-187.4-144.92c-7.02-85.1,53.22-160.39,137.75-172.18
		c1.43-0.2,3.08,0.16,3.94-1.51C741.85,154.13,753.38,154.13,764.92,154.13z"/>
	<path class="st1" d="M363.27,796.5c-43.85-0.11-87.71-0.24-131.56-0.33c-7.81-0.01-15.5-0.7-22.94-3.27
		c-40.46-13.98-51.56-66.07-19.5-94.43c36.39-32.19,61.44-70.93,72.34-118.47c3.71-16.16,5.44-32.57,5.4-49.17
		c-0.07-28.57-0.06-57.15-0.01-85.72c0.17-109.17,73.38-199.59,180.21-222.25c29.78-6.32,59.66-5.81,89.53,0.21
		c5.55,1.12,5.42,2.78,3.7,7.31c-30,79.33-20.45,153.65,30.66,221.37c33.91,44.93,79.75,72.29,135.12,82.94
		c7.85,1.51,10.38,3.97,10.99,12.43c4.12,56.6,26.77,104.76,68.54,143.41c11.98,11.09,23.11,22.31,25.79,39.28
		c5.68,35.98-19.86,66.02-56.84,66.27c-41.86,0.29-83.71,0.06-125.57,0.08c-3,0-6,0.16-9.01,0.25
		C534.52,796.44,448.89,796.47,363.27,796.5z"/>
	<path class="st2" d="M363.27,796.5c85.62-0.03,171.25-0.06,256.87-0.08c-2.43,64.17-43.03,112.96-104.58,125.67
		C445,936.66,373.34,885.22,364.63,813.7C363.94,807.99,363.71,802.23,363.27,796.5z"/>
</g>
</svg>
