<?xml version="1.0" encoding="utf-8"?>
<!-- Generator: Adobe Illustrator 24.0.1, SVG Export Plug-In . SVG Version: 6.00 Build 0)  -->
<svg version="1.1" id="Layer_1" xmlns="http://www.w3.org/2000/svg" xmlns:xlink="http://www.w3.org/1999/xlink" x="0px" y="0px"
	 viewBox="0 0 1080 1080" style="enable-background:new 0 0 1080 1080;" xml:space="preserve">
<style type="text/css">
	.st0{fill:#050404;}
	.st1{fill:#FFBD11;}
	.st2{fill:#060605;}
	.st3{fill:#060504;}
	.st4{fill:#EEDC92;}
	.st5{fill:#FFFFFF;stroke:#000000;stroke-width:6;stroke-miterlimit:10;}
	.st6{fill:#800000;}
</style>
<g>
	<g>
		<path class="st0" d="M884.69,663.6c-8.02,8.83-12.79,8.04-20.19-3.33c-0.19-0.7-0.26-1.45-0.58-2.07
			c-39.57-75.19-79.18-150.35-118.6-225.6c-2.08-3.97-4.57-4.7-8.52-4.7c-149.92,0.07-299.84,0.08-449.74-0.05
			c-4.56,0-6.79,1.56-8.79,5.52c-7.39,14.71-15.3,29.14-22.77,43.81c-3.09,6.06-7.35,8.79-14.09,6.88
			c-5.58-4.27-5.92-9.3-2.74-15.32c27.88-52.83,55.68-105.7,83.48-158.56c8.93-16.98,23.25-24.55,42.11-24.5
			c30.56,0.07,61.13-0.14,91.69,0.15c5.85,0.06,7.92-1.16,7.74-7.45c-0.46-16.97-0.21-33.95-0.14-50.93
			c0.03-9.24,2.99-12.21,12.14-12.23c24.01-0.05,48.03-0.05,72.04,0c8.91,0.02,12.16,3.31,12.2,12.34
			c0.07,17.22,0.3,34.45-0.14,51.66c-0.15,5.71,1.65,6.66,6.87,6.62c30.07-0.26,60.16,0.26,90.23-0.24
			c21.98-0.36,37.02,8.73,47.26,28.33c58.55,112.12,117.52,224.01,176.41,335.94c1.17,2.24,1.67,5.01,4.16,6.45
			C884.69,658.75,884.69,661.18,884.69,663.6z M482.47,295.13c-0.17,12.59-0.24,25.19-0.56,37.77c-0.17,6.84-3.8,10.78-9.48,10.38
			c-6.2-0.44-8.87-4.29-8.88-10.24c-0.02-7.28-0.32-14.57,0.08-21.82c0.29-5.22-0.96-7.25-6.7-7.07
			c-14.06,0.44-28.13,0.36-42.2,0.02c-4.51-0.1-6.26,1.67-7.66,5.59c-6.26,17.54-12.44,35.12-19.39,52.39
			c-2.73,6.79-0.71,7.15,5.3,7.14c79.32-0.16,158.62-0.1,237.94-0.1c2.31,0,4.62,0,7.85,0c-7.89-21.31-15.51-41.65-22.93-62.07
			c-1.17-3.23-3.45-2.81-5.81-2.82c-15.04-0.01-30.08,0.16-45.11-0.1c-4.47-0.08-5.2,1.74-5.08,5.56
			c0.23,7.27,0.14,14.55,0.05,21.83c-0.09,7.67-3.77,12-9.77,11.77c-5.71-0.23-8.88-4.32-8.95-11.79
			c-0.13-12.12-0.19-24.25-0.27-36.36c0.08-15.51,0.2-31.02,0.24-46.53c0.05-15.62,0.01-15.49-15.91-14.79
			c-3.51,0.16-4.48,1.16-4.45,4.6c0.23,18.91,0.24,37.8,0.34,56.71c-0.09,12.36-0.23,24.72-0.24,37.08c0,3.56-0.56,6.79-3.55,9.08
			c-2.94,2.24-6.17,2.79-9.55,1.15c-4.24-2.05-5.56-5.77-5.61-10.2c-0.1-12.36-0.24-24.71-0.37-37.07
			c0.12-19.1,0.24-38.22,0.35-57.32c0.01-1.93,0.36-3.99-2.72-3.92c-4.84,0.1-9.68,0.09-14.52,0.01c-2.87-0.05-2.95,1.78-2.92,3.86
			C482.16,256.93,482.31,276.04,482.47,295.13z M732.02,408.99c-1.43-5.52-5.05-9.66-6.79-14.55c-2.07-5.81-5.84-6.95-11.59-6.94
			c-134.42,0.15-268.84,0.12-403.26,0.12c-1.69,0-3.4,0.08-5.1-0.01c-1.89-0.1-3.28,0.52-4.17,2.24c-3.17,6.16-6.35,12.3-9.88,19.15
			C438.73,408.99,585.15,408.99,732.02,408.99z M311.98,369.18c17.18,0,32.92-0.05,48.65,0.03c2.94,0.01,4.85-0.49,6.04-3.73
			c6.86-18.86,13.92-37.65,21.05-56.41c1.61-4.22,0.02-4.94-3.8-4.85c-7.51,0.2-15.03-0.09-22.54,0.13
			c-8.75,0.26-16.48,3.47-20.82,11.23C330.91,332.87,321.89,350.49,311.98,369.18z M712.04,369.18
			c-10.36-19.2-19.87-37.59-30.19-55.51c-3.83-6.65-11.21-9.04-18.81-9.28c-7.74-0.24-15.51,0.1-23.26-0.16
			c-4.43-0.15-4.8,1.43-3.4,5.12c7.05,18.51,13.99,37.07,20.84,55.66c0.92,2.5,1.79,4.24,4.91,4.22
			C678.28,369.12,694.44,369.18,712.04,369.18z"/>
		<path class="st1" d="M241.39,484.09c6.74,1.89,11-0.82,14.09-6.88c7.46-14.67,15.38-29.11,22.77-43.81c2-3.97,4.22-5.54,8.79-5.52
			c149.92,0.13,299.84,0.12,449.74,0.05c3.95,0,6.44,0.73,8.52,4.7c39.43,75.25,79.05,150.42,118.6,225.6
			c0.33,0.62,0.39,1.38,0.58,2.07c-2.43,0.05-4.85,0.15-7.28,0.15c-230.15,0.01-460.3,0.01-690.44,0c-2.43,0-4.85-0.09-7.28-0.15
			c8.76-16.85,17.35-33.8,26.39-50.5c3.33-6.16,3.59-11.29-1.83-16.13c3.57-7.24,7.14-14.5,10.71-21.74
			c6.62,2.02,11.07-0.26,14.22-6.42c7.71-15.09,15.58-30.08,23.62-45c3.31-6.14,2.5-11.04-3.04-15.19
			C233.49,498.23,237.44,491.16,241.39,484.09z"/>
		<path class="st2" d="M184.06,593.65c5.43,4.83,5.16,9.97,1.83,16.13c-9.04,16.7-17.63,33.65-26.39,50.5
			c-0.92,1.39-1.78,2.83-2.75,4.19c-3.21,4.47-7.32,6.51-12.52,3.62c-5.45-3.03-6.27-7.66-3.47-12.99
			c9.89-18.85,19.84-37.66,29.74-56.5C173.54,592.82,178.32,591.96,184.06,593.65z"/>
		<path class="st3" d="M229.55,505.29c5.54,4.16,6.35,9.05,3.04,15.19c-8.03,14.91-15.91,29.91-23.62,45
			c-3.15,6.16-7.59,8.44-14.22,6.42c-5.27-4.42-5.71-9.33-2.4-15.36c8-14.57,15.8-29.24,23.34-44.03
			C218.75,506.52,222.76,503.53,229.55,505.29z"/>
		<path class="st1" d="M540.9,295.19c0.08,12.12,0.14,24.25,0.27,36.36c0.08,7.47,3.24,11.56,8.95,11.79c6,0.24,9.68-4.1,9.77-11.77
			c0.09-7.28,0.19-14.55-0.05-21.83c-0.13-3.83,0.62-5.64,5.08-5.56c15.03,0.27,30.07,0.09,45.11,0.1c2.36,0,4.64-0.42,5.81,2.82
			c7.42,20.42,15.03,40.76,22.93,62.07c-3.21,0-5.52,0-7.85,0c-79.32,0-158.62-0.06-237.94,0.1c-6.01,0.01-8.04-0.35-5.3-7.14
			c6.95-17.27,13.14-34.85,19.39-52.39c1.4-3.92,3.13-5.7,7.66-5.59c14.06,0.34,28.15,0.42,42.2-0.02c5.75-0.17,7,1.86,6.7,7.07
			c-0.41,7.25-0.12,14.54-0.08,21.82c0.02,5.94,2.68,9.81,8.88,10.24c5.68,0.39,9.31-3.54,9.48-10.38
			c0.31-12.58,0.38-25.17,0.56-37.77c6.44,0.02,12.89,0.06,19.34,0.08c0.13,12.36,0.27,24.71,0.37,37.07
			c0.03,4.42,1.37,8.15,5.61,10.2c3.38,1.64,6.62,1.09,9.55-1.15c2.99-2.29,3.54-5.52,3.55-9.08c0.01-12.36,0.15-24.72,0.24-37.08
			C527.71,295.17,534.31,295.17,540.9,295.19z"/>
		<path class="st4" d="M732.02,408.99c-146.87,0-293.28,0-440.78,0c3.53-6.85,6.71-13,9.88-19.15c0.88-1.72,2.27-2.34,4.17-2.24
			c1.69,0.09,3.4,0.01,5.1,0.01c134.42,0,268.84,0.03,403.26-0.12c5.77-0.01,9.53,1.13,11.59,6.94
			C726.97,399.33,730.58,403.46,732.02,408.99z"/>
		<path class="st1" d="M311.98,369.18c9.91-18.69,18.93-36.3,28.57-53.59c4.34-7.76,12.07-10.99,20.82-11.23
			c7.51-0.22,15.03,0.07,22.54-0.13c3.82-0.1,5.41,0.62,3.8,4.85c-7.15,18.76-14.19,37.55-21.05,56.41
			c-1.18,3.25-3.1,3.75-6.04,3.73C344.89,369.13,329.15,369.18,311.98,369.18z"/>
		<path class="st1" d="M712.04,369.18c-17.61,0-33.76-0.06-49.92,0.05c-3.12,0.02-3.99-1.73-4.91-4.22
			c-6.86-18.58-13.8-37.15-20.84-55.66c-1.4-3.69-1.03-5.26,3.4-5.12c7.74,0.26,15.51-0.09,23.26,0.16
			c7.6,0.24,14.98,2.62,18.81,9.29C692.19,331.58,701.68,349.98,712.04,369.18z"/>
	</g>
	<g>
		<circle class="st5" cx="768.73" cy="664.4" r="200.4"/>
		<path class="st6" d="M817.34,693.14c0.54-0.89,1.08-1.78,1.62-2.67c1.28-1.42,2.26-3.01,2.84-4.83l0.2-0.08v-0.22
			c0.57-0.39,0.92-0.91,0.96-1.61c0.3-0.52,0.61-1.04,0.91-1.56c0.65-0.33,0.87-0.91,0.92-1.59c0.15-0.26,0.32-0.52,0.47-0.77
			c1.66-2.05,3.01-4.3,4.01-6.74c0.3-0.5,0.6-1.01,0.9-1.52c0.68-0.65,1.28-1.46,2.39-1.38c0.35,0.46,0.79,0.73,1.38,0.71
			c0.48,0.46,1.03,0.8,1.73,0.76c0.88,0.38,1.76,0.77,2.64,1.15c0.91,0.65,1.83,1.25,3.01,1.3c0.56,0.24,1.11,0.46,1.67,0.7
			c1.78,1.12,3.6,2.19,5.64,2.79c0.27,0.7,0.79,0.91,1.49,0.77c0.31,0.18,0.61,0.35,0.92,0.53c0.75,0.86,1.73,1.28,2.82,1.47
			c0.34,0.12,0.67,0.25,1.01,0.37c0.87,0.97,1.96,1.54,3.19,1.86c0.62,1.02,1.64,1.36,2.7,1.66c0.52,0.31,1.03,0.62,1.55,0.93
			c0.33,0.65,0.91,0.91,1.59,0.99l0.09,0.23l0.25,0.02c0.34,0.61,0.86,0.94,1.54,1l0.12,0.23l0.26-0.01
			c0.98,0.99,2.01,1.89,3.39,2.27c0.46,0.69,1.11,1.13,1.91,1.38c0.59,0.93,1.38,1.57,2.48,1.78c1.14,0.93,2.29,1.85,3.43,2.78
			c0.72,1.04,1.63,1.84,2.84,2.27c2.76,2.64,5.51,5.28,8.27,7.91c0.35,0.72,0.76,1.38,1.6,1.63c2.78,3.53,5.56,7.07,8.35,10.6
			c-0.04,0.53,0.14,0.92,0.68,1.08c1.04,1.73,2.08,3.47,3.13,5.2c0.46,1.55,1.13,2.98,2.28,4.16c0.14,0.28,0.28,0.57,0.42,0.84
			c0.42,2.24,1.38,4.27,2.5,6.21c0.25,0.65,0.5,1.29,0.75,1.94c-0.2,1.21,0.3,2.19,0.96,3.13c0.08,0.42,0.18,0.83,0.26,1.26
			c0.49,2.11,0.69,4.3,1.69,6.27c-0.18,0.88-0.11,1.72,0.33,2.5c-0.01,2.95-0.03,5.89-0.04,8.84c-0.14,0.62-0.29,1.24-0.44,1.86
			c-0.86,1.67-1.71,3.34-2.57,5c-1.86,1.7-3.74,3.39-5.61,5.09c-0.77,0-1.25,0.46-1.65,1.04h-0.16l-0.07,0.15
			c-0.74,0.07-1.29,0.45-1.69,1.06c-1.02,0.37-1.95,0.9-2.68,1.71c-0.87-0.07-1.44,0.36-1.89,1.04c-0.55-0.04-1,0.1-1.25,0.64
			c-1.17,0.19-2.17,0.73-2.99,1.6c-2.36,1.17-4.71,2.35-7.07,3.51c-0.71,0-1.28,0.31-1.77,0.78c-0.25,0.12-0.49,0.26-0.74,0.38
			c-1.36,0.16-2.6,0.63-3.65,1.52c-0.34-0.13-0.6-0.05-0.75,0.3c-3.43,1.03-6.82,2.16-10.04,3.78c-0.72-0.07-1.39,0-1.89,0.61
			c-1.33,0.21-2.71,0.25-3.75,1.29c-2.78,0.63-5.59,1.15-8.18,2.45c-1.4-0.47-2.59,0.04-3.72,0.81c-0.41,0.07-0.82,0.15-1.24,0.23
			c-4.23,0.76-8.49,1.44-12.57,2.89c-0.62,0.09-1.24,0.19-1.86,0.28c-1.78-0.21-3.42,0.35-5.06,0.92c-0.62,0.07-1.24,0.15-1.85,0.23
			c-3.8,0.4-7.63,0.66-11.33,1.73c-0.84-0.18-1.67-0.1-2.46,0.23c-2.99-0.16-5.9,0.39-8.82,0.95c-1.04,0.06-2.07,0.13-3.11,0.2
			c-0.52-0.05-1.03-0.18-1.54-0.13c-12.6,1.1-25.23,1.29-37.88,0.98c-7.82-0.2-15.63-0.58-23.44-0.87
			c-0.82-0.06-1.65-0.12-2.48-0.19c-3.13-0.52-6.25-1.1-9.46-0.94c-0.62-0.06-1.25-0.11-1.86-0.18c-2.23-0.8-4.51-1.14-6.87-0.93
			c-0.59-0.08-1.17-0.15-1.76-0.24c-3.31-1.14-6.75-1.5-10.2-1.79c-0.41-0.06-0.82-0.11-1.24-0.18c-1.35-0.79-2.79-1.18-4.37-0.94
			c-0.38-0.07-0.76-0.14-1.14-0.21c-2.45-1.05-5.03-1.64-7.69-1.84c-0.41-0.07-0.81-0.14-1.23-0.22c-3.23-1.41-6.61-2.26-10.07-2.9
			c-0.41-0.1-0.81-0.2-1.23-0.3c-1.28-1.09-2.88-1.24-4.44-1.51c-0.4-0.12-0.8-0.24-1.21-0.36c-0.76-0.54-1.51-1.13-2.56-0.91
			c-1.27-0.57-2.47-1.31-3.92-1.41c-2.32-1.35-4.74-2.44-7.39-2.97c-0.47-0.24-0.96-0.48-1.43-0.72c-0.43-0.55-1.03-0.71-1.69-0.7
			c-0.59-0.69-1.43-0.86-2.25-1.05c-0.28-0.73-0.86-0.81-1.52-0.72c-0.38-0.19-0.77-0.37-1.15-0.56c-0.18-0.54-0.62-0.59-1.08-0.6
			c-0.67-0.97-1.68-1.33-2.76-1.59c-2.53-1.42-5.07-2.83-7.59-4.26c-0.38-0.57-0.91-0.92-1.58-1.06c-0.3-0.61-0.8-0.92-1.47-0.97
			c-0.07-0.23-0.24-0.32-0.46-0.26c-0.3-0.58-0.72-1-1.42-1.01c-2.33-1.77-4.1-4.05-5.72-6.45c-0.59-1.68-1.17-3.36-1.76-5.04
			c0-2.09,0-4.18,0-6.26c0.54-1.64,1.04-3.29,0.93-5.05c0.08-0.63,0.16-1.26,0.25-1.89c0.69-0.94,1.06-1.96,0.9-3.13
			c0.11-0.42,0.23-0.84,0.34-1.27c1.23-2.37,1.74-4.99,2.53-7.51c0.65-0.96,1.22-1.95,1.27-3.15c0.57-0.74,1.14-1.49,1.11-2.5
			c0.88-0.92,1.38-2.04,1.76-3.23c0.56-0.47,0.88-1.06,0.92-1.79c2.14-3.24,4.28-6.47,6.42-9.71c0.64-0.34,1.1-0.8,1.21-1.56
			c1.46-1.63,2.93-3.24,4.38-4.87c5.76-6.53,12.58-11.88,19.39-17.24c1.07-0.25,1.89-0.88,2.52-1.76c0.41-0.25,0.82-0.49,1.24-0.74
			c0.7-0.07,1.22-0.43,1.59-1.01c1.14-0.72,2.29-1.44,3.43-2.16c0.69-0.05,1.23-0.39,1.64-0.95c3.23-1.76,6.44-3.52,9.66-5.28
			c0.75,0.05,1.27-0.38,1.75-0.87c0.26-0.12,0.5-0.25,0.76-0.37c0.56,0.11,0.93-0.19,1.26-0.59c0.8,0.07,1.37-0.35,1.89-0.89
			c1.17-0.01,2.07-0.67,3-1.27c1.93-0.8,3.85-1.61,5.78-2.41c1.79,0.08,3.12-1.93,5.07-1.11c0.27,0.43,0.55,0.88,0.81,1.31
			c-0.06,0.73,0.32,1.2,0.94,1.5l-0.03,0.25l0.21,0.14c0.82,2.22,2.03,4.2,3.53,6.02c0.29,0.5,0.58,1.01,0.86,1.51
			c0.31,1.08,0.7,2.11,1.69,2.77c0.37,1.31,1,2.45,2,3.38c0.09,1.08,0.77,1.83,1.41,2.62c-0.01,0.65,0.32,1.07,0.87,1.35
			c1.45,3.06,3.09,6.02,5.17,8.71c-0.06,0.81,0.42,1.35,0.97,1.85c-0.02,0.69,0.27,1.16,0.92,1.42c0.06,0.72,0.3,1.33,1.01,1.66
			c1.21,2.96,2.96,5.59,4.73,8.22c0.2,1.01,0.67,1.86,1.48,2.5c0.06,0.64,0.22,1.22,0.89,1.48c0.25,1.13,0.93,2.02,1.63,2.9
			c-0.04,0.7,0.33,1.14,0.92,1.44c-0.07,0.22,0,0.37,0.22,0.45c0.82,2.13,1.93,4.11,3.45,5.83l0.12-0.12l-0.14,0.09
			c0.58,1.65,1.31,3.2,2.63,4.42c-0.07,0.22-0.01,0.36,0.21,0.44c0.36,1.4,1.11,2.58,2.1,3.62c0.16,0.26,0.33,0.52,0.49,0.77
			c0.05,0.67,0.23,1.27,0.91,1.57c0.3,0.53,0.6,1.05,0.91,1.58c1,2.44,2.35,4.68,3.95,6.77c0.14,0.26,0.3,0.5,0.44,0.76
			c0.05,0.68,0.19,1.51,1,1.4c0.62-0.09,0.66-0.83,0.34-1.43c0.05-1.05,0.1-2.1,0.15-3.15c1.18-6.84,1.47-13.77,1.73-20.68
			c0.1-1.46,0.2-2.92,0.3-4.38c0.71-4.59,1.28-9.17,0.97-13.83c0.35-0.61,0.37-1.24,0.16-1.9c0.67-1.62,0.83-3.29,0.49-5.01
			c0.36-1.43,0.68-2.86,0.02-4.3c0.11-0.74-0.27-1.26-0.75-1.74l-0.11-0.2c-1.08-2.71-2.17-5.42-3.26-8.13
			c-0.56-2.36-1.41-4.6-2.79-6.6c-0.12-0.31-0.25-0.62-0.37-0.92c0.18-0.59-0.07-0.99-0.58-1.28c-0.25-0.61-0.5-1.23-0.75-1.83
			c-0.22-0.79-0.34-1.63-0.67-2.36c-0.67-1.49-0.03-1.83,1.34-1.82c12.6,0.02,25.2,0.02,37.79,0c1.84,0,2.15,0.7,1.44,2.31
			c-0.91,2.07-2.13,4.02-2.52,6.3c-0.11,0.33-0.23,0.66-0.34,1c-1.15,0.83-1.28,2.15-1.62,3.37c-0.1,0.32-0.21,0.64-0.31,0.96
			c-1.06,0.91-1.36,2.14-1.56,3.44c-0.37,0.92-0.75,1.82-1.12,2.74l-0.07,0.08c-0.65,0.83-1.2,1.71-1.23,2.82
			c-0.66,1.14-1.5,2.24-1.01,3.7c-0.28,3.61,0.27,7.14,0.87,10.67c0.03,0.63,0.06,1.27,0.09,1.9c-0.12,5.05,0.6,10.04,1.17,15.03
			c0.03,0.42,0.06,0.83,0.09,1.26c-0.27,2.33-0.01,4.62,0.63,6.86c-0.28,1.71-0.04,3.38,0.31,5.05c-0.24,4.11,0.55,8.11,0.81,12.51
			c1.32-0.88,1.62-1.62,1.75-2.45c1.7-2.52,3.39-5.05,4.6-7.86c0.63-0.33,1-0.81,0.96-1.57c0.48-0.42,0.9-0.88,0.93-1.56
			c0.56-0.38,0.97-0.86,0.97-1.58c1.76-2.52,3.39-5.11,4.64-7.93c0.93-0.68,1.4-1.65,1.67-2.73c0.22-0.07,0.28-0.22,0.2-0.43
			c0.96-0.65,1.37-1.65,1.68-2.71c0.3-0.52,0.6-1.03,0.9-1.55c0.63-0.35,0.87-0.92,0.93-1.6c1.15-1.45,2.19-2.99,2.8-4.77
			c0.98-0.66,1.36-1.69,1.71-2.75c0.29-0.49,0.58-1,0.87-1.49c0.61-0.38,0.89-0.96,0.96-1.65c0.59-0.36,0.79-0.93,0.89-1.57
			c2.19-2.8,3.98-5.85,5.41-9.11c0.15-0.25,0.32-0.49,0.47-0.75C816.67,694.9,817.27,694.18,817.34,693.14z M856.61,763.82l0.1-0.11
			c0.73-2.36,0.54-4.74,0.13-7.12c-0.28-1.34,1.44-3.62-1.7-3.61c-4.84-0.46-9.7-0.4-14.54,0c-0.37,0.03-0.74,0.05-1.11,0.08
			c-5.03-0.36-10.06-0.31-15.09-0.04c-1.92-0.45-3.82-0.44-5.74-0.02c-0.8-0.21-1.61-0.26-2.41,0.04c-0.2-0.01-0.55-0.06-0.56-0.01
			c-1.01,3.64-0.92,7.28-0.03,10.93c0.01,0.04,0.37,0,0.57,0c4.39,0.02,8.77,0.04,13.16,0.06c2.5,0.42,5,0.39,7.5,0
			c4.4,0,8.81-0.01,13.21-0.01C852.27,764.28,854.45,764.69,856.61,763.82z"/>
		<path class="st6" d="M837.85,556.73c0.09,0.52,0.2,1.02,0.29,1.54c-0.31,1.2,0.04,2.2,0.82,3.11c0.11,0.81,0.24,1.62,0.35,2.43
			c-0.36,2.21,0.41,4.26,0.86,6.36c0.08,1.65,0.15,3.3,0.24,4.96c-0.4,1.52-0.39,3.05-0.01,4.57c-0.09,1.85-0.18,3.71-0.27,5.56
			c-0.68,2.07-1.2,4.16-0.93,6.38c-0.1,0.6-0.21,1.2-0.32,1.78c-0.76,0.92-1.07,1.95-0.77,3.13c-0.05,0.33-0.11,0.65-0.16,0.98
			c-1.04,1.2-1.21,2.65-1.23,4.13c-0.59,0.7-0.81,1.54-0.88,2.43c-1.35,2.17-2.27,4.52-2.98,6.98c-0.82,1.65-1.65,3.29-2.47,4.94
			c-0.75,0.33-0.91,1.04-1.11,1.72c-0.69,0.26-0.92,0.79-0.89,1.47c-1.99,2.67-3.98,5.34-5.97,8.01c-0.68,0.2-1.09,0.62-1.16,1.35
			c-2.09,2.11-4.19,4.21-6.29,6.33c-0.65,0.14-1.18,0.43-1.37,1.14c-0.59,0.46-1.17,0.93-1.76,1.39c-0.71,0.06-1.17,0.43-1.38,1.12
			c-0.37,0.28-0.75,0.57-1.12,0.84c-0.69,0.04-1.23,0.3-1.45,0.99c-0.21-0.01-0.34,0.07-0.43,0.26c-0.72-0.03-1.24,0.28-1.5,0.97
			c-0.54,0.34-1.07,0.68-1.62,1.01c-0.65,0.03-1.24,0.16-1.45,0.9c-0.34,0.18-0.68,0.34-1.02,0.52c-1.03-0.14-1.66,0.54-2.34,1.12
			c-0.28,0.18-0.56,0.35-0.83,0.53c-3.98,1.46-7.96,2.94-11.94,4.4c-0.4,0.08-0.79,0.16-1.2,0.25c-1.6-0.2-3.02,0.44-4.47,0.93
			c-0.4,0.05-0.8,0.1-1.2,0.15c-5.29,0.24-10.53,0.96-15.86,0.46c-5.07-0.47-9.97-1.75-14.96-2.6c-0.34-0.07-0.68-0.13-1.01-0.21
			c-2.8-1.85-6.09-2.62-9.11-3.96c-0.73-0.35-1.46-0.7-2.19-1.06c-0.36-0.58-0.84-0.92-1.56-0.87c-1.18-0.73-2.36-1.47-3.54-2.21
			c-0.29-0.63-0.77-0.96-1.47-0.96c-0.64-0.41-1.29-0.83-1.93-1.25c-0.28-0.23-0.57-0.45-0.84-0.68c-0.67-0.97-1.6-1.61-2.64-2.1
			c-0.71-1.01-1.51-1.91-2.68-2.42c-2.53-2.72-5.08-5.44-7.61-8.17c-0.07-0.69-0.47-1.14-1.08-1.44c-0.42-1.17-1.2-2.1-2.08-2.95
			c-0.02-0.72-0.43-1.17-1.03-1.49c-0.33-0.55-0.65-1.08-0.98-1.63c0.05-0.72-0.3-1.17-0.93-1.46c-0.01-0.49-0.1-0.94-0.67-1.09
			c-0.05-0.74-0.39-1.34-0.94-1.83c-0.06-0.65-0.26-1.24-0.79-1.66c-0.47-1.4-0.94-2.79-1.89-3.98c-1.36-4.18-2.73-8.38-4.09-12.56
			c-0.07-0.42-0.13-0.83-0.21-1.26c-0.61-4.59-1.22-9.17-1.82-13.76c0-1.94,0.01-3.86,0.01-5.8c0.73-6.31,1.71-12.58,2.95-18.8
			c0.1-0.41,0.21-0.82,0.32-1.25c1.44-2.33,2.07-4.96,2.8-7.54c0.62-0.84,1.23-1.71,1.24-2.82c0.62-0.34,0.94-0.83,0.81-1.56
			c0.75-1.41,1.5-2.82,2.25-4.23c1-0.6,1.31-1.63,1.64-2.64c0.24-0.05,0.33-0.19,0.27-0.42c0.58-0.32,0.91-0.8,1-1.45
			c0.24-0.05,0.32-0.2,0.26-0.43c0.62-0.29,1.03-0.73,1.05-1.44c1.51-1.86,3.02-3.73,4.53-5.61c0.7-0.16,1.05-0.64,1.15-1.33
			c1.28-1.26,2.54-2.51,3.82-3.78c0.94-0.3,1.56-0.93,1.95-1.81c2.92-2.16,5.84-4.34,8.76-6.5c0.46-0.28,0.93-0.56,1.39-0.83
			c0.91,0,1.49-0.57,2.09-1.14c0.28-0.18,0.57-0.34,0.84-0.52c4.62-1.85,9.23-3.71,13.85-5.55c0.39-0.07,0.79-0.15,1.18-0.23
			c2.72-0.64,5.59-0.57,8.21-1.72c0.81-0.08,1.63-0.15,2.45-0.24c4.04-0.01,8.08-0.03,12.12-0.04c1.03,0.09,2.05,0.18,3.08,0.27
			c8.99,1.71,17.59,4.61,25.75,8.79c1.15,0.74,2.31,1.48,3.47,2.23c0.44,0.75,1.11,1.15,1.97,1.26c0.46,0.83,1.1,1.44,2.08,1.62
			c2.75,2.41,5.51,4.83,8.26,7.24c0.34,0.73,0.76,1.39,1.58,1.68c0.28,0.39,0.57,0.78,0.84,1.17c0.25,0.96,0.83,1.64,1.75,2.01
			c0.28,0.37,0.57,0.74,0.84,1.11c-0.02,0.73,0.39,1.15,1.03,1.41c0.7,1,1.4,1.99,2.1,2.99c-0.01,0.72,0.35,1.18,1,1.46
			c-0.02,0.2,0.05,0.34,0.22,0.43c0.24,1.1,0.62,2.1,1.64,2.74c0.52,0.97,1.03,1.94,1.55,2.9c0.3,1.23,0.47,2.51,1.63,3.32
			c0.12,0.35,0.25,0.7,0.37,1.04c-0.15,0.74,0.21,1.22,0.82,1.55c-0.06,0.2,0.01,0.33,0.2,0.41c0.09,0.39,0.2,0.79,0.29,1.18
			C835.85,551.97,836.59,554.43,837.85,556.73z"/>
	</g>
</g>
</svg>
