<svg width="22" height="23" viewBox="0 0 22 23" fill="none" xmlns="http://www.w3.org/2000/svg">
<path d="M15.5832 1.86741C16.7977 1.8711 17.9615 2.36423 18.8203 3.23909C19.6791 4.11395 20.1632 5.29945 20.1668 6.53668V15.8742C20.1632 17.1115 19.6791 18.297 18.8203 19.1718C17.9615 20.0467 16.7977 20.5398 15.5832 20.5435H6.41683C5.20228 20.5398 4.03852 20.0467 3.1797 19.1718C2.32088 18.297 1.8368 17.1115 1.83317 15.8742V6.53668C1.8368 5.29945 2.32088 4.11395 3.1797 3.23909C4.03852 2.36423 5.20228 1.8711 6.41683 1.86741H15.5832ZM15.5832 0H6.41683C2.8875 0 0 2.94143 0 6.53668V15.8742C0 19.4695 2.8875 22.4109 6.41683 22.4109H15.5832C19.1125 22.4109 22 19.4695 22 15.8742V6.53668C22 2.94143 19.1125 0 15.5832 0Z" fill="#800000"/>
<path d="M16.9582 6.53671C16.6862 6.53671 16.4204 6.45457 16.1943 6.30066C15.9681 6.14675 15.7919 5.92799 15.6878 5.67205C15.5838 5.41611 15.5565 5.13448 15.6096 4.86277C15.6626 4.59107 15.7936 4.34149 15.9859 4.1456C16.1782 3.94971 16.4232 3.81631 16.6899 3.76227C16.9566 3.70822 17.2331 3.73596 17.4844 3.84197C17.7356 3.94799 17.9504 4.12752 18.1014 4.35786C18.2525 4.5882 18.3332 4.859 18.3332 5.13603C18.3336 5.32008 18.2983 5.5024 18.2293 5.67252C18.1603 5.84264 18.0591 5.9972 17.9313 6.12735C17.8036 6.25749 17.6518 6.36065 17.4848 6.4309C17.3178 6.50115 17.1388 6.53711 16.9582 6.53671ZM11 7.47017C11.7252 7.47017 12.4342 7.68924 13.0372 8.09968C13.6402 8.51013 14.1102 9.0935 14.3877 9.77604C14.6652 10.4586 14.7379 11.2096 14.5964 11.9342C14.4549 12.6588 14.1057 13.3244 13.5928 13.8468C13.08 14.3691 12.4267 14.7249 11.7154 14.869C11.0041 15.0132 10.2668 14.9392 9.59677 14.6565C8.92674 14.3738 8.35406 13.895 7.95114 13.2807C7.54823 12.6664 7.33317 11.9443 7.33317 11.2055C7.33421 10.2151 7.72087 9.26567 8.40831 8.56539C9.09575 7.86511 10.0278 7.47123 11 7.47017ZM11 5.60276C9.9122 5.60276 8.84884 5.93135 7.94437 6.54699C7.0399 7.16262 6.33495 8.03765 5.91867 9.06142C5.50238 10.0852 5.39346 11.2117 5.60568 12.2985C5.8179 13.3853 6.34173 14.3837 7.11092 15.1672C7.8801 15.9508 8.86011 16.4844 9.92701 16.7006C10.9939 16.9167 12.0998 16.8058 13.1048 16.3817C14.1098 15.9577 14.9687 15.2396 15.5731 14.3182C16.1774 13.3968 16.5 12.3136 16.5 11.2055C16.5 9.71955 15.9205 8.29448 14.8891 7.24376C13.8576 6.19305 12.4587 5.60276 11 5.60276Z" fill="#800000"/>
</svg>
