<svg width="44" height="44" viewBox="0 0 44 44" fill="none" xmlns="http://www.w3.org/2000/svg">
<path fill-rule="evenodd" clip-rule="evenodd" d="M22.1205 43.24C33.7847 43.24 43.2405 33.7843 43.2405 22.12C43.2405 10.4557 33.7847 1 22.1205 1C10.4562 1 1.00049 10.4557 1.00049 22.12C1.00049 33.7843 10.4562 43.24 22.1205 43.24ZM12.0005 22C12.0005 17.286 12.0005 14.9289 13.465 13.4645C14.9294 12 17.2864 12 22.0005 12H22.2405C26.9545 12 29.3116 12 30.776 13.4645C32.2405 14.9289 32.2405 17.286 32.2405 22V22.24C32.2405 26.954 32.2405 29.3111 30.776 30.7755C29.3116 32.24 26.9545 32.24 22.2405 32.24H22.0005C17.2864 32.24 14.9294 32.24 13.465 30.7755C12.0005 29.3111 12.0005 26.954 12.0005 22.24V22ZM27.398 17.4941C28.0768 17.4941 28.627 16.9438 28.627 16.2651C28.627 15.5864 28.0768 15.0361 27.398 15.0361C26.7193 15.0361 26.169 15.5864 26.169 16.2651C26.169 16.9438 26.7193 17.4941 27.398 17.4941ZM22.121 17.0601C21.1203 17.0601 20.142 17.3569 19.3099 17.9129C18.4777 18.4689 17.8292 19.2592 17.4462 20.1838C17.0632 21.1083 16.963 22.1257 17.1583 23.1073C17.3535 24.0888 17.8354 24.9904 18.5431 25.6981C19.2507 26.4057 20.1523 26.8877 21.1339 27.0829C22.1154 27.2781 23.1328 27.1779 24.0574 26.795C24.982 26.412 25.7723 25.7634 26.3283 24.9313C26.8843 24.0992 27.181 23.1209 27.181 22.1201C27.181 20.7781 26.6479 19.4911 25.699 18.5422C24.7501 17.5932 23.463 17.0601 22.121 17.0601ZM22.121 25.4048C21.4714 25.4048 20.8363 25.2121 20.2962 24.8512C19.756 24.4903 19.335 23.9773 19.0864 23.3771C18.8378 22.7769 18.7728 22.1165 18.8995 21.4793C19.0262 20.8422 19.3391 20.2569 19.7984 19.7975C20.2578 19.3382 20.8431 19.0253 21.4802 18.8986C22.1174 18.7719 22.7778 18.8369 23.378 19.0855C23.9782 19.3341 24.4912 19.7551 24.8521 20.2953C25.213 20.8354 25.4057 21.4705 25.4057 22.1201C25.4057 22.9913 25.0596 23.8267 24.4436 24.4427C23.8276 25.0587 22.9922 25.4048 22.121 25.4048Z" fill="white"/>
</svg>
