<?xml version="1.0" encoding="utf-8"?>
<!-- Generator: Adobe Illustrator 24.0.1, SVG Export Plug-In . SVG Version: 6.00 Build 0)  -->
<svg version="1.1" id="Layer_1" xmlns="http://www.w3.org/2000/svg" xmlns:xlink="http://www.w3.org/1999/xlink" x="0px" y="0px"
	 viewBox="0 0 1080 1080" style="enable-background:new 0 0 1080 1080;" xml:space="preserve">
<style type="text/css">
	.st0{fill:#EEDC92;}
	.st1{fill:#FFBD11;}
	.st2{fill:#800000;}
</style>
<g>
	<path class="st0" d="M941.3,176.78c0.02-10.45-3.65-19.32-10.33-27.08c-5.61-6.52-13.44-9.44-21.12-12.55H207.84
		c-1.38,2.5-4.86,0.63-6.29,3.03c-15.21,5.26-25.14,18.91-25.15,35.07c-0.06,60.97-0.07,121.95,0.01,182.92
		c0.02,21.34,16.99,38.03,38.48,38.14c12.82,0.07,25.64,0.02,38.47,0.02c-0.01-8.4-0.02-16.8-0.03-25.2
		c0.07-31.27,0.01-62.54,0.25-93.8c0.1-12.82,3.92-24.09,15.58-31.34c3.37-2.1,6.85-3.68,10.9-3.7
		c13.26-4.29,30.44,4.59,35.83,18.83c2.21,5.84,3.43,11.93,3.4,18.33c-0.1,30.57,0.02,61.13,0.06,91.7c0,8.39,0,16.77-0.01,25.16
		c194.33,0,388.66,0.02,582.99,0c16.85,0,30.44-9.6,35.87-25.14c2.55-4.4,3.08-9.22,3.08-14.19
		C941.25,296.91,941.22,236.84,941.3,176.78z M788.86,219.02c9.84-3.65,18.66,2.47,27.14,7.98c3.6,2.35,7.31,2.21,11,0
		c15.41-9.2,28.53-11.48,41.16,0.92c13.11,12.88,15.31,26.83,6.8,42.49c-9.3,17.13-22.69,30.37-38.71,41.15
		c-11.77,10.35-15.66,10.58-27.77,1.58c-15.6-11.58-30.38-24.05-39.61-41.59C757.1,249.2,765.16,228.46,788.86,219.02z
		 M625.5,221.87c0.02-6.27,3.5-10.43,9.38-12.03c6.31-1.72,11.25,0.98,14.86,6.18c10.57,15.25,21.08,30.53,31.64,45.79
		c1.42,2.06,2.93,4.04,5.39,7.41c0-15.75-0.02-29.75,0.01-43.76c0.01-10.19,4.16-15.73,11.99-16.09
		c7.91-0.37,12.77,4.67,13.49,14.61c2.01,27.94,0.73,55.93,1.17,83.89c0.1,6.71-3.27,11.88-9.39,14.06
		c-6.46,2.3-12.41,0.41-16.54-5.52c-10.32-14.78-20.6-29.59-30.95-44.35c-1.14-1.63-1.75-3.9-4.33-4.25
		c-2.33,2.08-1.23,4.87-1.26,7.31c-0.13,12.03,0.11,24.06-0.16,36.09c-0.19,7.79-5.75,12.94-12.97,12.75
		c-6.96-0.19-12.24-5.15-12.28-12.64C625.36,281.5,625.43,251.69,625.5,221.87z M578.68,225.25c0.03-10.24,4.88-15.91,13.2-15.91
		c8.51,0.01,13.1,5.4,13.17,15.84c0.1,13.84,0.03,27.67,0.03,41.51c0,13.84,0.07,27.67-0.03,41.51c-0.06,9.6-5.02,15.64-12.67,15.77
		c-7.98,0.14-13.67-6.19-13.69-15.7C578.6,280.6,578.61,252.92,578.68,225.25z M504.59,209.34c31.57,0.16,56.78,25.96,56.61,57.94
		c-0.17,31.38-26.36,56.96-58.05,56.71c-31.45-0.25-56.74-26.23-56.6-58.14C446.69,234.36,472.54,209.19,504.59,209.34z
		 M374.88,296.8c4.29-5.77,11.24-6.47,18.67-1.89c7.33,4.51,10.25,2.93,10.3-5.97c0.11-21.43,0-42.86,0.06-64.29
		c0.02-9.9,4.56-15.27,12.67-15.29c8.06-0.02,12.71,5.48,12.76,15.33c0.07,11.5,0.02,23,0.02,34.5
		c-0.01,11.24,0.11,22.48-0.04,33.71c-0.17,12.92-6.01,22.49-17.68,28.2c-12.06,5.91-22.94,2.44-32.94-4.95
		C372.01,311.2,370.57,302.58,374.88,296.8z"/>
	<path class="st1" d="M490.4,772.13c-11.46,41.12-16.11,83.41-15.79,126.2c0.16,22.16-11.24,37.21-31.29,42.06
		c-3.01,0.73-6.21,0.85-9.32,0.86c-55.19,0.04-110.38,0.03-165.57,0.04c-5.23,0-10.39-0.25-15.06-3.04
		c-15.14-5.2-25.03-18.78-25.2-35.01c-0.2-20.34,0.65-40.69-3.66-60.83c-5.06-23.69-17.91-43.82-28.86-64.83
		c-14.23-27.32-30.21-53.7-42.94-81.8c-7.15-15.8-11.17-32.5-13.86-49.57c-0.27-1.73,0.28-3.75-1.68-4.91V506.23
		c4.4-7.26,8.45-14.82,17.51-17.51c3.03-0.9,5.97-1.64,9.13-1c12.61-0.22,20.81,7.34,27.81,16.38c6.73,8.68,10.02,18.8,10.05,29.85
		c0.05,22.97-0.11,45.94,0.13,68.91c0.12,11.03,5.06,19.71,15.12,24.61c9.9,4.83,19.36,3.11,27.69-3.9
		c6.62-5.57,8.98-13.18,9.24-21.59c-0.08-23.81-0.17-47.61-0.23-71.42c-0.1-44.74-0.18-89.48-0.26-134.23
		c-0.01-8.4-0.02-16.8-0.03-25.2c0.07-31.27,0.01-62.54,0.25-93.8c0.1-12.82,3.92-24.09,15.58-31.34c3.37-2.1,6.85-3.68,10.9-3.7
		c13.26-4.29,30.44,4.59,35.83,18.83c2.21,5.84,3.43,11.93,3.4,18.33c-0.1,30.57,0.02,61.13,0.06,91.7c0,8.39,0,16.77-0.01,25.16
		c-0.07,31.83-0.15,63.67-0.21,95.51c-0.01,1.78-0.31,3.73,1.71,4.83c3.56-11.88,11.85-18.55,23.58-21.43
		c22.28-2.23,36.51,9.21,39.23,31.54c0.19,1.53-0.08,3.19,1.61,4.11c3.56-11.94,11.19-19.57,23.53-22.21
		c19.23-5.1,38.38,9.7,39.45,30.23c0.34,6.66-1.42,13.48,1.27,20c3.04-13.68,12.13-22.52,25.28-24.57
		c24.85-2.57,38.29,11.21,38.97,39.87C515.52,627.86,510.31,700.67,490.4,772.13z"/>
	<path class="st2" d="M652.22,267.81c-2.33,2.08-1.23,4.87-1.26,7.31c-0.14,12.03,0.11,24.06-0.17,36.09
		c-0.18,7.8-5.75,12.94-12.97,12.75c-6.96-0.18-12.24-5.15-12.28-12.64c-0.18-29.81-0.12-59.63-0.04-89.44
		c0.02-6.27,3.5-10.43,9.38-12.04c6.31-1.72,11.25,0.98,14.85,6.18c10.57,15.25,21.09,30.53,31.64,45.79
		c1.42,2.05,2.94,4.04,5.4,7.41c0-15.75-0.02-29.75,0.01-43.76c0.02-10.19,4.17-15.73,11.99-16.1c7.92-0.37,12.77,4.68,13.49,14.62
		c2.01,27.93,0.74,55.92,1.17,83.89c0.1,6.71-3.27,11.88-9.39,14.06c-6.45,2.3-12.4,0.41-16.54-5.52
		c-10.32-14.78-20.6-29.59-30.95-44.35C655.41,270.43,654.8,268.16,652.22,267.81z"/>
	<path class="st2" d="M504.59,209.34c31.57,0.15,56.79,25.96,56.61,57.94c-0.17,31.38-26.36,56.96-58.05,56.7
		c-31.45-0.25-56.74-26.22-56.6-58.13C446.69,234.36,472.54,209.19,504.59,209.34z M534.82,266.99
		c0.13-17.77-13.04-31.67-30.48-32.15c-17.01-0.47-31.3,13.71-31.43,31.2c-0.14,18.26,12.57,31.41,30.48,31.54
		C521.6,297.72,534.68,284.98,534.82,266.99z"/>
	<path class="st2" d="M874.96,270.41c-9.3,17.13-22.69,30.37-38.71,41.15c-11.77,10.35-15.66,10.58-27.77,1.58
		c-15.6-11.58-30.38-24.05-39.61-41.59c-11.77-22.35-3.71-43.09,19.99-52.53c11.17-4.15,21.64-1.31,31.01,6.07
		c0.84,0.66,2.03,0.7,2.91,0.09c16.82-11.67,31.81-10.59,45.38,2.74C881.27,240.8,883.47,254.75,874.96,270.41z"/>
	<path class="st2" d="M429.36,259.19c-0.01,11.24,0.11,22.48-0.04,33.71c-0.17,12.92-6.01,22.48-17.68,28.2
		c-12.06,5.91-22.94,2.44-32.94-4.96c-6.68-4.94-8.12-13.57-3.82-19.35c4.29-5.77,11.25-6.47,18.68-1.89
		c7.32,4.51,10.24,2.93,10.29-5.97c0.12-21.43,0-42.86,0.06-64.29c0.03-9.89,4.56-15.26,12.67-15.29
		c8.06-0.02,12.71,5.48,12.76,15.33C429.41,236.19,429.36,247.69,429.36,259.19z"/>
	<path class="st2" d="M605.08,266.69c0,13.84,0.07,27.67-0.02,41.51c-0.07,9.61-5.03,15.64-12.68,15.77
		c-7.98,0.14-13.66-6.19-13.69-15.7c-0.08-27.67-0.08-55.34,0-83.02c0.03-10.24,4.88-15.91,13.2-15.91c8.51,0,13.11,5.4,13.18,15.84
		C605.15,239.02,605.08,252.85,605.08,266.69z"/>
	<path class="st0" d="M534.82,266.99c-0.13,17.99-13.22,30.72-31.43,30.59c-17.91-0.13-30.62-13.28-30.48-31.54
		c0.13-17.49,14.42-31.67,31.43-31.2C521.78,235.33,534.95,249.22,534.82,266.99z"/>
</g>
</svg>
