<svg width="52" height="23" viewBox="0 0 52 23" fill="none" xmlns="http://www.w3.org/2000/svg">
<path d="M19.0524 17.4167C21.6404 18.3388 25.1505 19.4841 28.7201 20.0493C30.5049 20.3319 32.2897 20.4657 33.9555 20.4508C34.1934 20.4508 34.4017 20.436 34.6248 20.436C34.9966 20.6739 35.3684 20.897 35.77 21.1053C36.9004 21.6705 38.1051 22.0572 39.3545 22.2356C39.176 22.2555 38.9876 22.2753 38.7893 22.2951C37.3466 22.4439 35.6659 22.4736 33.896 22.3249C32.1112 22.191 30.252 21.8638 28.4375 21.3879C24.7935 20.4657 21.3875 18.9784 18.8888 17.8183C17.6394 17.2382 16.5983 16.7325 15.8844 16.3756C15.1556 16.0186 14.7391 15.8104 14.7391 15.8104C14.7391 15.8104 15.1705 15.974 15.929 16.2714C16.6727 16.554 17.7584 16.9556 19.0524 17.4167Z" fill="#800000"/>
<path d="M1.8144 6.05347C2.95965 6.18733 4.62547 6.30631 6.60362 6.33606C10.5748 6.41043 15.8846 5.88986 20.9415 4.43227C23.4551 3.71835 25.9241 2.76646 28.3187 1.9633C30.6984 1.16014 33.0335 0.520586 35.1009 0.237993C35.9338 0.104133 36.7072 0.0446392 37.436 0.0148926C36.6031 0.282613 35.8148 0.639572 35.0563 1.08577C34.2234 1.59147 33.4797 2.1864 32.8104 2.87057C31.5611 3.08871 30.2423 3.38618 28.8541 3.76297C26.4744 4.38765 23.9162 5.20569 21.2687 5.756C15.9887 6.91612 10.5748 7.0946 6.58875 6.76739C4.59572 6.60378 2.94478 6.38068 1.78466 6.17245C1.21947 6.08321 0.773273 5.9791 0.460934 5.91961C0.163467 5.86011 -0.000137329 5.83037 -0.000137329 5.83037C-0.000137329 5.83037 0.163467 5.84524 0.460934 5.88986C0.773273 5.91961 1.23434 5.99397 1.8144 6.05347Z" fill="#800000"/>
<path d="M6.41026 8.38858C5.56248 8.29934 5.07166 8.23985 5.07166 8.23985C5.07166 8.23985 5.56248 8.25472 6.42513 8.26959C7.28778 8.28447 8.52227 8.29934 9.99473 8.26959C12.9397 8.2101 16.8811 7.987 20.6887 7.18384C24.4962 6.44018 28.0956 4.96771 31.0108 4.10506C31.338 4.00591 31.6553 3.91667 31.9626 3.83734C31.5016 4.4174 31.1 5.04208 30.7579 5.71138C30.6092 6.00885 30.4753 6.32119 30.3415 6.63353C29.226 6.88637 28.0063 7.18384 26.6826 7.49618C24.8829 7.92751 22.8899 8.32909 20.8969 8.53731C16.9108 9.01326 12.9397 8.89427 9.97986 8.70092C8.5074 8.59681 7.27291 8.47782 6.41026 8.38858Z" fill="#800000"/>
<path d="M13.3263 10.5749C12.7463 10.5006 12.4191 10.456 12.4191 10.456C12.4191 10.456 12.7463 10.456 13.3412 10.456C13.9213 10.4708 14.769 10.456 15.7656 10.4113C17.7735 10.3518 20.4358 10.1139 23.0684 9.68254C25.5522 9.26609 28.0063 8.67115 29.8655 8.13571C29.6672 8.90912 29.5531 9.69245 29.5234 10.4857C27.6791 10.7385 25.4332 10.9616 23.2022 11.0509C20.4804 11.1401 17.7735 11.036 15.7507 10.8427C14.7542 10.7534 13.9064 10.6642 13.3263 10.5749Z" fill="#800000"/>
<path d="M17.3719 12.4044C17.3719 12.4044 18.3833 12.4787 19.8707 12.5085C21.3729 12.5531 23.3808 12.5085 25.344 12.3151C26.8314 12.1813 28.3038 11.973 29.5532 11.7499C29.6028 12.4539 29.7218 13.153 29.9102 13.8471C28.5567 13.862 26.9504 13.8173 25.3589 13.6983C23.3213 13.5347 21.3134 13.2373 19.826 12.9398C18.3536 12.6572 17.3719 12.4044 17.3719 12.4044Z" fill="#800000"/>
<path d="M21.6407 15.0816C21.6407 15.0816 22.4736 15.2006 23.7379 15.2898C25.0021 15.3939 26.6828 15.3939 28.3337 15.2452C29.003 15.1857 29.6575 15.0964 30.2821 15.0072C30.53 15.6418 30.8225 16.2417 31.1597 16.8069C30.2524 16.792 29.2856 16.7325 28.304 16.6284C26.5787 16.4202 24.898 16.0632 23.6635 15.7211C22.429 15.379 21.6407 15.0816 21.6407 15.0816Z" fill="#800000"/>
<path d="M27.4707 18.443C26.4296 18.086 25.7454 17.8034 25.7454 17.8034C25.7454 17.8034 26.4742 17.9224 27.56 18.0265C28.6606 18.1306 30.1033 18.1901 31.546 18.1455C31.7245 18.1356 31.903 18.1257 32.0815 18.1157C32.6318 18.785 33.2416 19.3949 33.9109 19.9303C33.1226 19.8262 32.2748 19.6923 31.427 19.5138C29.9546 19.2164 28.5267 18.7999 27.4707 18.443Z" fill="#800000"/>
<path d="M42.8202 19.5435C42.6715 19.4989 42.4781 19.4543 42.2699 19.3948C42.0617 19.3254 41.8287 19.2411 41.5709 19.142C41.08 18.9486 40.5149 18.666 39.9348 18.2942C39.796 18.2049 39.6522 18.1108 39.5035 18.0116C39.3646 17.9124 39.2258 17.8034 39.087 17.6844C38.9383 17.5803 38.8044 17.4613 38.6706 17.3423C38.5317 17.2233 38.3979 17.0994 38.269 16.9705C38.0013 16.7176 37.7484 16.4499 37.5253 16.1822C37.4757 16.1128 37.4212 16.0434 37.3617 15.9739C37.3022 15.9045 37.2477 15.8302 37.1981 15.7508C37.1485 15.6814 37.0989 15.612 37.0494 15.5426C36.9998 15.4732 36.9502 15.4038 36.9006 15.3344C36.8114 15.1857 36.7222 15.0518 36.6329 14.9031C36.5585 14.7692 36.4693 14.6353 36.4098 14.4866C36.3354 14.3528 36.2611 14.2189 36.2016 14.085C36.1421 13.9462 36.0876 13.8173 36.038 13.6983C35.9339 13.4455 35.8446 13.2075 35.7851 12.9993C35.7256 12.7911 35.681 12.6126 35.6364 12.449C35.6067 12.3002 35.5918 12.1812 35.5769 12.092C35.5571 12.0127 35.5472 11.973 35.5472 11.973C35.5472 11.973 35.572 12.0077 35.6215 12.0771C35.6513 12.1515 35.7256 12.2556 35.8 12.3895C35.8744 12.5233 35.9785 12.6869 36.0826 12.8654C36.1322 12.9646 36.1917 13.0637 36.2611 13.1629C36.3206 13.2521 36.3949 13.3711 36.4693 13.4752C36.6032 13.6835 36.7668 13.9214 36.9304 14.1594C37.0196 14.2784 37.1138 14.4023 37.213 14.5312C37.2526 14.5907 37.2973 14.6502 37.3468 14.7097C37.3964 14.7692 37.446 14.8337 37.4956 14.9031C37.5451 14.9626 37.5947 15.0221 37.6443 15.0815C37.7038 15.151 37.7583 15.2154 37.8079 15.2749C37.917 15.4038 38.026 15.5277 38.1351 15.6467C38.3632 15.8946 38.6011 16.1376 38.849 16.3755C38.968 16.4945 39.092 16.6135 39.2209 16.7325C39.3399 16.8366 39.4588 16.9556 39.5927 17.0597C39.8505 17.2878 40.1083 17.5009 40.3661 17.6993C40.614 17.8976 40.8619 18.081 41.1098 18.2496C41.3478 18.428 41.5857 18.5768 41.794 18.7255C42.2402 19.0081 42.612 19.2312 42.8797 19.3799C43.0185 19.4593 43.1226 19.5188 43.1921 19.5584C43.2714 19.5981 43.311 19.6179 43.311 19.6179C43.311 19.6278 43.2664 19.6229 43.1772 19.603C43.0879 19.5882 42.969 19.5733 42.8202 19.5435Z" fill="#800000"/>
<path d="M49.2305 15.7658C49.1809 15.8649 49.1263 15.9591 49.0669 16.0483C48.9776 15.9194 48.8884 15.7955 48.7991 15.6765C48.7396 15.617 48.7545 15.5129 48.8289 15.4683C48.8884 15.4088 48.9776 15.4237 49.0371 15.498C49.0966 15.5873 49.1611 15.6765 49.2305 15.7658Z" fill="#800000"/>
<path d="M48.5611 15.1411C48.5314 15.1609 48.5016 15.1708 48.4719 15.1708C48.4273 15.1708 48.3827 15.1559 48.3529 15.1113C48.2141 14.9428 48.0753 14.7742 47.9365 14.6056C47.877 14.5461 47.8918 14.4569 47.9513 14.3974C48.0108 14.3379 48.1001 14.3528 48.1596 14.4123C48.3083 14.5808 48.4521 14.7494 48.5909 14.918C48.6355 14.9923 48.6355 15.0816 48.5611 15.1411Z" fill="#800000"/>
<path d="M47.669 14.085C47.6393 14.1148 47.6046 14.1297 47.5649 14.1297C47.5203 14.1297 47.4905 14.1148 47.4608 14.0702C47.312 13.9115 47.1584 13.7578 46.9997 13.6091C46.9402 13.5496 46.9402 13.4455 46.9997 13.386C47.0592 13.3265 47.1633 13.3265 47.2079 13.386C47.3666 13.5446 47.5203 13.7082 47.669 13.8768C47.7285 13.9363 47.7285 14.0255 47.669 14.085Z" fill="#800000"/>
<path d="M46.7021 13.0885C46.6724 13.1183 46.6277 13.1332 46.5831 13.1332C46.5534 13.1332 46.5187 13.1232 46.479 13.1034C46.3303 12.9547 46.1716 12.8059 46.0031 12.6572C45.9436 12.5977 45.9287 12.5085 45.9882 12.4341C46.0477 12.3746 46.1369 12.3746 46.1964 12.4341C46.365 12.5828 46.5286 12.7316 46.6872 12.8803C46.7467 12.9398 46.7616 13.029 46.7021 13.0885Z" fill="#800000"/>
<path d="M45.6611 12.1664C45.6314 12.1961 45.5867 12.211 45.5421 12.211C45.5124 12.211 45.4826 12.2011 45.4529 12.1813C45.2843 12.0424 45.1157 11.9036 44.9472 11.7648C44.8728 11.7202 44.8579 11.6161 44.9174 11.5566C44.9621 11.4971 45.0662 11.4822 45.1257 11.5268C45.3041 11.6656 45.4777 11.8045 45.6462 11.9433C45.7057 12.0028 45.7206 12.092 45.6611 12.1664Z" fill="#800000"/>
<path d="M44.5754 11.3037C44.5456 11.3335 44.501 11.3632 44.4564 11.3632C44.4167 11.3632 44.387 11.3533 44.3672 11.3335C44.1887 11.2046 44.0052 11.0757 43.8168 10.9468C43.7573 10.9022 43.7425 10.8129 43.7871 10.7386C43.8317 10.6791 43.921 10.6642 43.9953 10.7088C44.1738 10.8278 44.3572 10.9567 44.5456 11.0955C44.6051 11.1401 44.62 11.2294 44.5754 11.3037Z" fill="#800000"/>
<path d="M43.43 10.5006C43.4002 10.5601 43.3407 10.575 43.2961 10.575C43.2664 10.575 43.2416 10.57 43.2217 10.5601C43.0333 10.4411 42.8449 10.3221 42.6565 10.2031C42.5822 10.1734 42.5524 10.0693 42.5971 10.0098C42.6417 9.93541 42.7309 9.90567 42.8053 9.95029C42.9937 10.0594 43.1821 10.1783 43.3705 10.3072C43.4448 10.3519 43.4746 10.4411 43.43 10.5006Z" fill="#800000"/>
<path d="M42.2251 9.78667C42.1954 9.84616 42.1508 9.87591 42.0913 9.87591C42.0714 9.87591 42.0467 9.86599 42.0169 9.84616C41.8285 9.747 41.6352 9.64785 41.4368 9.54869C41.3625 9.50407 41.3327 9.41483 41.3773 9.34047C41.4071 9.2661 41.4963 9.23635 41.5707 9.28097C41.769 9.38013 41.9673 9.48424 42.1656 9.59331C42.24 9.62306 42.2697 9.7123 42.2251 9.78667Z" fill="#800000"/>
<path d="M40.9906 9.14709C40.9608 9.20658 40.9013 9.23633 40.8418 9.23633C40.822 9.23633 40.8022 9.23137 40.7823 9.22146C40.584 9.13222 40.3857 9.04297 40.1874 8.95373C40.113 8.92399 40.0684 8.83475 40.0982 8.76038C40.1428 8.68602 40.2171 8.6414 40.3064 8.68602C40.5047 8.76534 40.708 8.85458 40.9162 8.95373C40.9906 8.98348 41.0203 9.07272 40.9906 9.14709Z" fill="#800000"/>
<path d="M39.7116 8.59677C39.6819 8.65627 39.6224 8.68601 39.5629 8.68601C39.5431 8.68601 39.5232 8.68601 39.5034 8.68601C39.3051 8.60669 39.1018 8.52736 38.8936 8.44804C38.8192 8.41829 38.7746 8.32905 38.8044 8.25469C38.8341 8.18032 38.9085 8.1357 38.9977 8.16545C39.2059 8.24477 39.4142 8.32409 39.6224 8.40342C39.6968 8.43317 39.7414 8.52241 39.7116 8.59677Z" fill="#800000"/>
<path d="M38.3877 8.12085C38.3728 8.18034 38.3133 8.22496 38.2538 8.22496C38.234 8.22496 38.2191 8.22496 38.2092 8.22496C37.991 8.15555 37.7778 8.0911 37.5696 8.03161C37.4953 8.00186 37.4506 7.9275 37.4655 7.83826C37.4953 7.76389 37.5696 7.71927 37.6589 7.73414C37.8671 7.79364 38.0803 7.85809 38.2984 7.9275C38.3728 7.95724 38.4174 8.04648 38.3877 8.12085Z" fill="#800000"/>
<path d="M37.0494 7.73414C37.0345 7.80851 36.975 7.85313 36.9156 7.85313C36.8957 7.85313 36.8809 7.84817 36.8709 7.83826C36.6627 7.78868 36.4495 7.7391 36.2314 7.68952C36.157 7.67465 36.0975 7.60028 36.1124 7.51104C36.1421 7.43668 36.2165 7.37719 36.2909 7.40693C36.509 7.44659 36.7272 7.49617 36.9453 7.55567C37.0345 7.57054 37.0792 7.65978 37.0494 7.73414Z" fill="#800000"/>
<path d="M34.7586 7.27308C34.7586 7.19871 34.8479 7.13922 34.9223 7.15409C35.1404 7.18384 35.3585 7.21854 35.5767 7.2582C35.6659 7.27308 35.7105 7.34744 35.6957 7.43668C35.6808 7.51105 35.6213 7.55567 35.5469 7.55567C35.537 7.55567 35.5321 7.55567 35.5321 7.55567C35.3139 7.51601 35.0958 7.4813 34.8776 7.45156C34.7884 7.43668 34.7438 7.36232 34.7586 7.27308Z" fill="#800000"/>
<path d="M48.6654 16.4648C48.5464 16.2863 48.4224 16.1128 48.2935 15.9442C48.234 15.8699 48.2489 15.7806 48.3084 15.736C48.3828 15.6765 48.472 15.6914 48.5315 15.7509C48.6604 15.9293 48.7893 16.1078 48.9182 16.2863C48.9182 16.2863 48.9182 16.2913 48.9182 16.3012C48.8885 16.3508 48.8637 16.3954 48.8438 16.435C48.824 16.4648 48.8042 16.4945 48.7844 16.5243C48.7397 16.5094 48.6951 16.4945 48.6654 16.4648Z" fill="#800000"/>
<path d="M48.0557 15.4088C48.0259 15.4286 47.9962 15.4385 47.9664 15.4385C47.9218 15.4385 47.8772 15.4237 47.8474 15.3939C47.7086 15.2254 47.5698 15.0617 47.431 14.9031C47.3715 14.8287 47.3715 14.7395 47.4459 14.68C47.5053 14.6354 47.5946 14.6354 47.6541 14.6949C47.7929 14.8634 47.9317 15.032 48.0705 15.2006C48.13 15.2601 48.1151 15.3493 48.0557 15.4088Z" fill="#800000"/>
<path d="M47.1629 14.3825C47.1332 14.4023 47.0984 14.4123 47.0588 14.4123C47.0142 14.4123 46.9695 14.3974 46.9398 14.3676C46.801 14.2189 46.6522 14.0652 46.4936 13.9066C46.4341 13.8471 46.4341 13.7578 46.4936 13.6983C46.5531 13.6388 46.6423 13.6388 46.7018 13.6983C46.8605 13.8471 47.0142 14.0008 47.1629 14.1594C47.2224 14.2189 47.2224 14.323 47.1629 14.3825Z" fill="#800000"/>
<path d="M46.1965 13.4009C46.1668 13.4306 46.1221 13.4455 46.0775 13.4455C46.0478 13.4455 46.0131 13.4356 45.9734 13.4157C45.8148 13.267 45.6561 13.1232 45.4975 12.9844C45.438 12.9249 45.4231 12.8357 45.4826 12.7613C45.5421 12.7018 45.6313 12.7018 45.6908 12.7464C45.8594 12.8952 46.023 13.0439 46.1816 13.1926C46.2411 13.2521 46.256 13.3414 46.1965 13.4009Z" fill="#800000"/>
<path d="M45.1406 12.2854C45.2001 12.33 45.215 12.4341 45.1703 12.4936C45.1406 12.5382 45.096 12.5531 45.0514 12.5531C45.0117 12.5531 44.977 12.5432 44.9472 12.5234C44.7787 12.3845 44.6101 12.2507 44.4416 12.1218C44.3821 12.0623 44.3672 11.973 44.4118 11.8987C44.4564 11.8392 44.5605 11.8243 44.62 11.8689C44.7985 12.0077 44.972 12.1466 45.1406 12.2854Z" fill="#800000"/>
<path d="M44.0695 11.6607C44.0397 11.6904 43.9951 11.7202 43.9505 11.7202C43.9208 11.7202 43.891 11.7103 43.8613 11.6904C43.6828 11.5615 43.5043 11.4376 43.3258 11.3186C43.2663 11.274 43.2366 11.1847 43.2812 11.1104C43.3258 11.036 43.4299 11.0211 43.4894 11.0657C43.6778 11.1947 43.8613 11.3186 44.0397 11.4376C44.1141 11.4971 44.129 11.5863 44.0695 11.6607Z" fill="#800000"/>
<path d="M42.939 10.8873C42.9093 10.9319 42.8498 10.9616 42.8051 10.9616C42.7754 10.9616 42.7506 10.9517 42.7308 10.9319C42.5424 10.8228 42.354 10.7137 42.1656 10.6047C42.0912 10.56 42.0615 10.4708 42.1061 10.3964C42.1507 10.3221 42.24 10.2923 42.3143 10.3369C42.5027 10.446 42.6911 10.56 42.8795 10.679C42.9539 10.7237 42.9688 10.8129 42.939 10.8873Z" fill="#800000"/>
<path d="M41.7344 10.1882C41.7195 10.2329 41.66 10.2626 41.6154 10.2626C41.5857 10.2626 41.5609 10.2576 41.5411 10.2477C41.3427 10.1486 41.1494 10.0494 40.961 9.95026C40.8866 9.92052 40.8569 9.83127 40.8866 9.75691C40.9312 9.68254 41.0205 9.65279 41.0949 9.68254C41.2833 9.7817 41.4766 9.88085 41.6749 9.98001C41.7493 10.0246 41.779 10.1139 41.7344 10.1882Z" fill="#800000"/>
<path d="M40.515 9.57842C40.4852 9.62304 40.4257 9.66766 40.3662 9.66766C40.3464 9.66766 40.3266 9.66271 40.3067 9.65279C40.1084 9.56355 39.9101 9.47431 39.7118 9.38507C39.6374 9.35532 39.5928 9.26608 39.6226 9.19172C39.6672 9.11735 39.7416 9.07273 39.8308 9.11735C40.0291 9.19668 40.2274 9.28096 40.4257 9.3702C40.515 9.39994 40.5447 9.48918 40.515 9.57842Z" fill="#800000"/>
<path d="M39.0422 9.11736C38.8439 9.04795 38.6406 8.97854 38.4324 8.90913C38.358 8.87938 38.3134 8.79014 38.3432 8.71578C38.358 8.64141 38.4473 8.59679 38.5216 8.62654C38.7299 8.69594 38.9381 8.77031 39.1463 8.84964C39.2207 8.86451 39.2653 8.95375 39.2356 9.04299C39.2207 9.10248 39.1612 9.13223 39.1017 9.13223C39.0819 9.13223 39.062 9.12727 39.0422 9.11736Z" fill="#800000"/>
<path d="M37.793 8.68604C37.7732 8.68604 37.7583 8.68604 37.7484 8.68604C37.5402 8.62655 37.3319 8.56705 37.1237 8.50756C37.0493 8.47781 36.9898 8.40345 37.0196 8.31421C37.0345 8.23984 37.1237 8.19522 37.1981 8.21009C37.4162 8.26959 37.6294 8.33404 37.8376 8.40345C37.912 8.41832 37.9566 8.50756 37.9417 8.58193C37.912 8.65629 37.8525 8.68604 37.793 8.68604Z" fill="#800000"/>
<path d="M36.6178 8.22496C36.5881 8.28445 36.5286 8.32907 36.4691 8.32907C36.4592 8.32907 36.4443 8.32907 36.4245 8.32907C36.2162 8.2795 36.008 8.23488 35.7998 8.19521C35.7105 8.18034 35.6659 8.0911 35.6808 8.01673C35.6957 7.92749 35.77 7.88287 35.8593 7.89775C36.0675 7.93741 36.2807 7.98203 36.4988 8.03161C36.5732 8.06135 36.6327 8.13572 36.6178 8.22496Z" fill="#800000"/>
<path d="M49.8254 12.092C49.7659 12.0325 49.7659 11.9433 49.8402 11.8838C49.8997 11.8243 49.989 11.8392 50.0485 11.8987C50.1377 11.9978 50.2319 12.1019 50.3311 12.211C50.3112 12.3399 50.2964 12.4638 50.2864 12.5828C50.2765 12.5928 50.2716 12.6076 50.2716 12.6275C50.1228 12.449 49.9741 12.2705 49.8254 12.092Z" fill="#800000"/>
<path d="M48.8141 10.8278C48.8736 10.7683 48.9628 10.7683 49.0223 10.8278C49.1909 10.9864 49.3594 11.15 49.528 11.3186C49.5726 11.393 49.5726 11.4822 49.5131 11.5417C49.4834 11.5715 49.4487 11.5863 49.409 11.5863C49.3793 11.5863 49.3347 11.5566 49.3049 11.5268C49.1463 11.3682 48.9826 11.2046 48.8141 11.036C48.7546 10.9765 48.7546 10.8873 48.8141 10.8278Z" fill="#800000"/>
<path d="M47.7283 9.81639C47.7878 9.7569 47.8771 9.7569 47.9365 9.80152C48.115 9.96017 48.2935 10.1188 48.472 10.2775C48.5315 10.337 48.5315 10.4262 48.472 10.5006C48.4422 10.5303 48.3976 10.5452 48.3679 10.5452C48.3282 10.5452 48.2935 10.5303 48.2638 10.5006C48.0952 10.3419 47.9217 10.1882 47.7432 10.0395C47.6837 9.98 47.6688 9.89076 47.7283 9.81639Z" fill="#800000"/>
<path d="M46.5831 8.89425C46.6277 8.81988 46.717 8.80501 46.7913 8.8645C46.9797 9.00332 47.1632 9.14709 47.3417 9.29583C47.416 9.35532 47.416 9.44456 47.3714 9.51893C47.3417 9.54867 47.297 9.56355 47.2524 9.56355C47.2127 9.56355 47.1781 9.55363 47.1483 9.5338C46.9698 9.38507 46.7864 9.24129 46.598 9.10247C46.5385 9.04298 46.5236 8.95374 46.5831 8.89425Z" fill="#800000"/>
<path d="M45.3633 8.0316C45.4079 7.95724 45.512 7.94236 45.5715 7.98698C45.7699 8.11588 45.9682 8.24975 46.1665 8.38856C46.226 8.44806 46.2408 8.5373 46.1962 8.59679C46.1665 8.64141 46.1219 8.67116 46.0772 8.67116C46.0475 8.67116 46.0177 8.66124 45.988 8.64141C45.7996 8.50259 45.6063 8.36873 45.4079 8.23983C45.3336 8.19521 45.3187 8.0911 45.3633 8.0316Z" fill="#800000"/>
<path d="M44.1586 7.45152C44.0842 7.4069 44.0693 7.31766 44.1139 7.24329C44.1437 7.16892 44.2478 7.15405 44.3073 7.1838C44.5155 7.3127 44.7188 7.43664 44.9171 7.55563C44.9915 7.60025 45.0063 7.68949 44.9617 7.76386C44.9468 7.80848 44.8874 7.83822 44.8427 7.83822C44.813 7.83822 44.7832 7.82831 44.7535 7.80848C44.5651 7.68949 44.3668 7.5705 44.1586 7.45152Z" fill="#800000"/>
<path d="M42.8647 6.73762C42.7903 6.70787 42.7606 6.60376 42.7903 6.52939C42.8349 6.45503 42.9242 6.44015 42.9985 6.4699C43.2167 6.57897 43.4249 6.68804 43.6232 6.79711C43.6976 6.84173 43.7273 6.93097 43.6976 7.00534C43.6678 7.04996 43.6083 7.07971 43.5637 7.07971C43.534 7.07971 43.5092 7.07475 43.4894 7.06483C43.2811 6.95576 43.0729 6.84669 42.8647 6.73762Z" fill="#800000"/>
<path d="M41.452 5.91958C41.4817 5.83034 41.5709 5.80059 41.6453 5.83034C41.8635 5.92949 42.0816 6.02865 42.2997 6.1278C42.3741 6.15755 42.4038 6.24679 42.3741 6.32116C42.3444 6.38065 42.2849 6.4104 42.2254 6.4104C42.2055 6.4104 42.1857 6.40544 42.1659 6.39552C41.9477 6.29637 41.7345 6.20217 41.5263 6.11293C41.452 6.08318 41.4073 5.99394 41.452 5.91958Z" fill="#800000"/>
<path d="M40.0686 5.36925C40.0834 5.29488 40.1727 5.25026 40.247 5.28001C40.4751 5.35933 40.6982 5.44362 40.9163 5.53286C40.9907 5.5626 41.0353 5.65184 41.0056 5.72621C40.9758 5.7857 40.9312 5.83032 40.8717 5.83032C40.8519 5.83032 40.8321 5.82536 40.8122 5.81545C40.5941 5.72621 40.3759 5.64193 40.1578 5.5626C40.0686 5.53286 40.0388 5.45849 40.0686 5.36925Z" fill="#800000"/>
<path d="M38.6406 4.92306C38.6704 4.8487 38.7596 4.80408 38.834 4.81895C39.062 4.88836 39.2901 4.95777 39.5181 5.02718C39.5925 5.05692 39.6371 5.14616 39.6074 5.22053C39.5925 5.28002 39.533 5.32464 39.4735 5.32464C39.4537 5.32464 39.4339 5.32464 39.414 5.32464C39.1959 5.24532 38.9728 5.17591 38.7447 5.11642C38.6704 5.08667 38.6257 4.99743 38.6406 4.92306Z" fill="#800000"/>
<path d="M37.213 4.56614C37.2279 4.4769 37.3023 4.43228 37.3915 4.44715C37.6196 4.49673 37.8476 4.55127 38.0757 4.61076C38.1649 4.64051 38.2096 4.71487 38.1947 4.80411C38.1649 4.86361 38.1055 4.90823 38.046 4.90823C38.036 4.90823 38.0212 4.90823 38.0013 4.90823C37.7733 4.84873 37.5452 4.7942 37.3172 4.74462C37.2428 4.72975 37.1982 4.64051 37.213 4.56614Z" fill="#800000"/>
<path d="M36.6331 4.29841C36.7075 4.31328 36.767 4.38765 36.7521 4.46202C36.7372 4.53638 36.6629 4.59588 36.6034 4.59588C36.5935 4.59588 36.5835 4.59092 36.5736 4.581C36.3456 4.54134 36.1175 4.50168 35.8894 4.46202C35.8002 4.46202 35.7407 4.37278 35.7556 4.29841C35.7705 4.20917 35.8448 4.16455 35.9341 4.16455C36.1621 4.20421 36.3951 4.24883 36.6331 4.29841Z" fill="#800000"/>
<path d="M50.0039 11.4376C49.9444 11.3781 49.9444 11.274 50.0039 11.2294C50.0634 11.1699 50.1675 11.1699 50.2121 11.2294C50.2716 11.2889 50.3262 11.3484 50.3757 11.4079C50.3757 11.4773 50.3757 11.5417 50.3757 11.6012V11.6904C50.3757 11.7053 50.3609 11.7351 50.3757 11.7351L50.3609 11.7648C50.3609 11.7946 50.3609 11.8193 50.3609 11.8392C50.2419 11.7103 50.1229 11.5764 50.0039 11.4376Z" fill="#800000"/>
<path d="M48.9629 10.3816C48.9034 10.3221 48.9034 10.218 48.9629 10.1585C49.0224 10.099 49.1116 10.099 49.1711 10.1585C49.3397 10.327 49.5083 10.4956 49.6768 10.6642C49.7363 10.7237 49.7363 10.8129 49.6768 10.8724C49.6471 10.9021 49.6124 10.917 49.5727 10.917C49.5281 10.917 49.4983 10.9021 49.4686 10.8724C49.3 10.7038 49.1315 10.5402 48.9629 10.3816Z" fill="#800000"/>
<path d="M47.8621 9.3702C47.8026 9.32558 47.7877 9.22146 47.8472 9.16197C47.9067 9.10248 47.996 9.0876 48.0555 9.1471C48.2439 9.30574 48.4273 9.46439 48.6058 9.62304C48.6653 9.68254 48.6653 9.77178 48.6058 9.83127C48.576 9.86102 48.5463 9.87589 48.5017 9.87589C48.462 9.87589 48.4273 9.86597 48.3975 9.84614C48.2191 9.68749 48.0406 9.52884 47.8621 9.3702Z" fill="#800000"/>
<path d="M46.8807 8.21008C47.079 8.3489 47.2674 8.49267 47.4459 8.64141C47.5203 8.7009 47.5203 8.79014 47.4756 8.84963C47.4459 8.89425 47.4013 8.90913 47.3567 8.90913C47.3269 8.90913 47.2972 8.89921 47.2674 8.87938C47.079 8.73065 46.8906 8.58687 46.7022 8.44805C46.6427 8.38856 46.6279 8.29932 46.6725 8.23983C46.7171 8.16546 46.8212 8.15059 46.8807 8.21008Z" fill="#800000"/>
<path d="M46.1518 8.01674C46.1221 8.01674 46.0973 8.00682 46.0775 7.98699C45.8792 7.84817 45.6808 7.71431 45.4825 7.58541C45.4082 7.54079 45.3933 7.45155 45.4379 7.37718C45.4825 7.30282 45.5718 7.28794 45.6461 7.33256C45.8445 7.46147 46.0428 7.59533 46.2411 7.73414C46.3154 7.79364 46.3303 7.88288 46.2857 7.94237C46.2559 7.98699 46.2113 8.01674 46.1518 8.01674Z" fill="#800000"/>
<path d="M44.9026 7.18383C44.8728 7.18383 44.848 7.17887 44.8282 7.16896C44.62 7.04006 44.4117 6.91611 44.2035 6.79713C44.144 6.76738 44.1143 6.67814 44.1589 6.60377C44.1886 6.52941 44.2928 6.49966 44.3671 6.54428C44.5654 6.66327 44.7687 6.78721 44.9769 6.91611C45.0513 6.96073 45.0662 7.04997 45.0364 7.12434C45.0067 7.16896 44.9472 7.18383 44.9026 7.18383Z" fill="#800000"/>
<path d="M42.82 5.9047C42.8647 5.83034 42.9539 5.80059 43.0283 5.83034C43.2464 5.93941 43.4596 6.04848 43.6678 6.15755C43.7422 6.20217 43.7719 6.29141 43.7273 6.36578C43.6976 6.4104 43.653 6.44015 43.5935 6.44015C43.5736 6.44015 43.5488 6.43519 43.5191 6.42527C43.3109 6.3162 43.1026 6.20713 42.8944 6.09806C42.82 6.06831 42.7903 5.97907 42.82 5.9047Z" fill="#800000"/>
<path d="M41.4517 5.28004C41.4815 5.20567 41.5707 5.17593 41.6451 5.20567C41.8632 5.29491 42.0863 5.38911 42.3144 5.48827C42.3887 5.53289 42.4185 5.62213 42.3887 5.69649C42.359 5.74111 42.2995 5.78573 42.24 5.78573C42.2202 5.78573 42.2003 5.78078 42.1805 5.77086C41.9624 5.6717 41.7442 5.57255 41.5261 5.47339C41.4517 5.44365 41.422 5.35441 41.4517 5.28004Z" fill="#800000"/>
<path d="M40.0388 4.75947C40.0686 4.67023 40.1578 4.64048 40.2322 4.65536C40.4602 4.73468 40.6883 4.81896 40.9163 4.9082C40.9907 4.93795 41.0353 5.02719 41.0056 5.10156C40.9758 5.16105 40.9163 5.20567 40.8568 5.20567C40.837 5.20567 40.8172 5.20071 40.7974 5.1908C40.5792 5.10156 40.3611 5.01727 40.1429 4.93795C40.0537 4.92308 40.0091 4.83384 40.0388 4.75947Z" fill="#800000"/>
<path d="M38.6111 4.31326C38.6259 4.23889 38.7152 4.1794 38.7896 4.20915C39.0275 4.26864 39.2605 4.33805 39.4886 4.41737C39.563 4.43225 39.6076 4.52149 39.5778 4.59585C39.563 4.67022 39.5035 4.69997 39.444 4.69997C39.4241 4.69997 39.4093 4.69997 39.3994 4.69997C39.1713 4.63056 38.9432 4.56115 38.7152 4.49174C38.6408 4.47687 38.5813 4.38763 38.6111 4.31326Z" fill="#800000"/>
<path d="M37.2723 4.13478C37.1831 4.1199 37.1385 4.04554 37.1534 3.9563C37.1682 3.88193 37.2575 3.83731 37.3318 3.85218C37.5698 3.90176 37.8028 3.95134 38.0309 4.00092C38.1053 4.03066 38.1647 4.10503 38.135 4.19427C38.1201 4.25376 38.0606 4.29838 38.0011 4.29838C37.9813 4.29838 37.9664 4.29838 37.9565 4.29838C37.7285 4.23889 37.5004 4.18436 37.2723 4.13478Z" fill="#800000"/>
<path fill-rule="evenodd" clip-rule="evenodd" d="M35.3389 1.5617C33.5987 2.61771 32.1708 4.13479 31.2487 5.96421C29.925 8.55217 29.7019 11.512 30.5943 14.2784C31.5015 17.0448 33.4202 19.2907 36.023 20.6144C37.5401 21.3879 39.2506 21.8043 40.9461 21.8043C42.9391 21.8043 44.8727 21.254 46.5831 20.2426C48.3233 19.1866 49.7363 17.6695 50.6733 15.8401C51.1195 14.9626 51.4467 14.0404 51.64 13.0885C51.65 13.0687 51.6549 13.0439 51.6549 13.0142C52.0119 11.1996 51.9078 9.32558 51.3277 7.52591C50.4204 4.75947 48.5018 2.51359 45.8989 1.18987C44.3819 0.416453 42.6714 0 40.961 0C38.9828 0 37.0493 0.53544 35.3389 1.5617ZM35.3537 2.60283C36.1866 2.0079 37.1683 1.50221 38.2689 1.18987C38.8044 1.04113 39.3695 0.922146 39.9496 0.862653C40.0983 0.84778 40.2471 0.818033 40.3958 0.818033C40.5346 0.808118 40.6784 0.798202 40.8271 0.788286C40.8767 0.798202 40.9213 0.80316 40.961 0.80316C41.0701 0.80316 41.1791 0.80316 41.2882 0.80316C41.4369 0.80316 41.5708 0.818033 41.7195 0.818033C42.9094 0.907273 44.0993 1.20474 45.1999 1.71043C46.3005 2.21613 47.297 2.93005 48.1448 3.77783C48.9777 4.62561 49.6321 5.62212 50.0932 6.66325C50.3312 7.16895 50.5245 7.68951 50.6435 8.22495C50.7774 8.74552 50.8666 9.28096 50.9112 9.78665C50.9608 10.3023 50.9707 10.803 50.941 11.2889C50.9311 11.4078 50.9212 11.5268 50.9112 11.6458L50.8964 11.7202V11.7797L50.8815 11.8243C50.8815 11.8739 50.8765 11.9284 50.8666 11.9879C50.8369 12.2259 50.7923 12.449 50.7476 12.6721C50.6584 13.1084 50.5444 13.5149 50.4056 13.8917C50.2568 14.2784 50.123 14.6354 49.9594 14.9626C49.647 15.6021 49.2901 16.1227 48.9777 16.5243C48.6654 16.9407 48.3679 17.2233 48.1894 17.4167C48.0407 17.5654 47.9465 17.6546 47.9068 17.6844C46.6872 18.9338 45.1701 19.8113 43.5341 20.2575C41.9129 20.0195 36.737 18.785 34.8778 12.6275C34.3424 10.8575 34.2531 9.29583 34.4018 7.94236C34.4118 7.95227 34.4266 7.96219 34.4465 7.97211C34.6646 8.00185 34.8828 8.0316 35.1009 8.06135C35.1009 8.06135 35.1059 8.06135 35.1158 8.06135C35.1901 8.06135 35.2496 8.01673 35.2645 7.94236C35.2794 7.85312 35.2199 7.77875 35.1455 7.76388C34.9274 7.73413 34.7092 7.70439 34.4911 7.67464C34.4713 7.66472 34.4514 7.66472 34.4316 7.67464C34.4713 7.38709 34.5208 7.1045 34.5803 6.82686C40.3809 7.57053 45.9436 10.798 49.3644 15.498C49.4636 15.2898 49.5627 15.0667 49.6619 14.8287C49.7957 14.5015 49.9147 14.1445 50.0188 13.7727C50.0387 13.7132 50.0536 13.6537 50.0635 13.5942C49.9841 13.4951 49.8999 13.391 49.8106 13.2819C49.7511 13.2075 49.766 13.1183 49.8255 13.0588C49.885 13.0142 49.9891 13.0142 50.0337 13.0885C50.0734 13.1381 50.113 13.1877 50.1527 13.2373C50.1725 13.1381 50.1924 13.0439 50.2122 12.9547C46.5682 8.49267 41.0949 5.44364 35.3686 4.64048C35.5074 4.37276 35.6512 4.11495 35.7999 3.86707C35.7999 3.87698 35.8049 3.88194 35.8148 3.88194C36.0429 3.91169 36.2709 3.94639 36.499 3.98605C36.5089 3.98605 36.5188 3.98605 36.5287 3.98605C36.6031 3.98605 36.6626 3.94143 36.6775 3.86707C36.6923 3.7927 36.6477 3.70346 36.5585 3.68859C36.3701 3.65884 36.1767 3.62909 35.9784 3.59935C36.2759 3.16802 36.5585 2.79619 36.8262 2.49872C36.4395 2.6772 36.0528 2.88543 35.6958 3.1234C35.2943 3.37625 34.9224 3.67371 34.5655 3.97118C34.2283 4.26865 33.916 4.58099 33.6284 4.9082C33.0781 5.54775 32.6468 6.20218 32.3196 6.82686C32.0072 7.43667 31.7841 8.01673 31.6354 8.49267C31.6057 8.61166 31.5759 8.73065 31.5462 8.84963C31.5164 8.95375 31.4867 9.05786 31.4569 9.1471C31.4272 9.34045 31.3826 9.50406 31.3528 9.63792C31.3082 9.90564 31.2933 10.0544 31.2933 10.0544C31.2933 10.0544 31.2933 9.90564 31.3082 9.63792C31.3379 9.35533 31.3677 8.95375 31.4867 8.46293C31.5759 7.95723 31.7544 7.34743 32.037 6.693C32.3196 6.0237 32.7212 5.30978 33.2715 4.59586C33.5392 4.24882 33.8466 3.90177 34.1936 3.55473C34.5407 3.2176 34.9274 2.9003 35.3537 2.60283ZM36.9006 6.15756C36.142 5.97908 35.4876 5.84522 35.0414 5.78573C34.9918 5.77581 34.9472 5.76589 34.9075 5.75598C34.9075 5.74606 34.9075 5.73615 34.9075 5.72623C34.9571 5.72623 35.0067 5.73119 35.0563 5.74111C35.5173 5.78573 36.1718 5.87497 36.9601 6.03857C37.7335 6.20218 38.6407 6.44015 39.5778 6.76737C40.0537 6.93097 40.5445 7.10945 41.0205 7.31768C41.5113 7.52591 41.9873 7.76388 42.4632 8.00185C42.9391 8.2547 43.4002 8.50755 43.8464 8.79014C44.2926 9.07273 44.7239 9.35533 45.1255 9.65279C45.9436 10.2329 46.6575 10.8278 47.2375 11.3781C47.8176 11.9284 48.2638 12.4192 48.5761 12.7613C48.8736 13.1183 49.0521 13.3265 49.0521 13.3265C49.0521 13.3265 48.8736 13.1332 48.5464 12.8059C48.234 12.4639 47.7581 12.0177 47.1632 11.4971C46.5682 10.9765 45.8394 10.3965 45.0214 9.8164C44.6198 9.53381 44.1885 9.25121 43.7423 8.98349C43.2961 8.71577 42.835 8.44805 42.3591 8.21008C41.8831 7.95723 41.4072 7.73413 40.9312 7.52591C40.4553 7.31768 39.9645 7.12433 39.5034 6.94585C38.5664 6.60376 37.674 6.35091 36.9006 6.15756ZM37.1832 7.10945C37.1088 7.09458 37.0642 7.00534 37.0791 6.93097C37.0939 6.84173 37.1832 6.79711 37.2575 6.81199C37.4757 6.87148 37.6938 6.93097 37.912 6.99047C38.0012 7.02021 38.0458 7.09458 38.0161 7.18382C38.0012 7.24331 37.9417 7.28793 37.8822 7.28793C37.8624 7.28793 37.8475 7.28793 37.8376 7.28793C37.6194 7.21852 37.4013 7.15903 37.1832 7.10945ZM38.5366 7.49616C38.4623 7.46641 38.4177 7.37717 38.4474 7.30281C38.4623 7.22844 38.5515 7.18382 38.6259 7.21357C38.844 7.28297 39.0622 7.35238 39.2803 7.42179C39.3547 7.45154 39.3993 7.54078 39.3695 7.61515C39.3398 7.67464 39.2803 7.71926 39.2208 7.71926C39.2109 7.71926 39.196 7.7143 39.1762 7.70439C38.958 7.63498 38.7449 7.56557 38.5366 7.49616ZM39.9496 7.98698C39.8752 7.97211 39.8455 7.88287 39.8752 7.82337C39.8901 7.74901 39.9793 7.71926 40.0388 7.73413C40.2272 7.81346 40.4107 7.89278 40.5892 7.97211C40.6635 8.00185 40.6933 8.07622 40.6635 8.15059C40.6486 8.19521 40.5892 8.22495 40.5445 8.22495C40.5247 8.22495 40.5049 8.21999 40.485 8.21008C40.3066 8.14067 40.1281 8.0663 39.9496 7.98698ZM41.1543 8.52242C41.08 8.49267 41.0502 8.40343 41.0949 8.32907C41.1246 8.2547 41.2138 8.21008 41.2882 8.2547C41.4964 8.35386 41.6997 8.45301 41.898 8.55217C41.9724 8.58191 42.0021 8.67115 41.9724 8.74552C41.9426 8.80501 41.8831 8.83476 41.8385 8.83476C41.8088 8.83476 41.784 8.8298 41.7642 8.81989C41.5658 8.72073 41.3626 8.62158 41.1543 8.52242ZM42.4186 9.16197C42.3442 9.11735 42.3145 9.02811 42.3591 8.95374C42.4037 8.87938 42.4929 8.86451 42.5673 8.89425C42.7656 9.00332 42.959 9.11735 43.1474 9.23634C43.2217 9.28096 43.2515 9.3702 43.2069 9.44457C43.1771 9.48919 43.1325 9.51893 43.073 9.51893C43.0532 9.51893 43.0284 9.50902 42.9986 9.48919C42.8102 9.38011 42.6169 9.27104 42.4186 9.16197ZM43.6233 9.87589C43.5638 9.83127 43.5341 9.74203 43.5787 9.66767C43.6233 9.5933 43.7274 9.57843 43.7869 9.62304C43.9852 9.74203 44.1786 9.86598 44.367 9.99488C44.4265 10.0395 44.4414 10.1287 44.3967 10.2031C44.367 10.2477 44.3224 10.2775 44.2777 10.2775C44.248 10.2775 44.2182 10.2676 44.1885 10.2477C44.01 10.1188 43.8216 9.99488 43.6233 9.87589ZM44.7983 10.6642C44.7239 10.6196 44.7091 10.5303 44.7686 10.456C44.8132 10.3965 44.9024 10.3816 44.9768 10.4262C45.1553 10.5551 45.3338 10.689 45.5122 10.8278C45.5866 10.8873 45.5866 10.9765 45.542 11.0509C45.5122 11.0806 45.4676 11.0955 45.423 11.0955C45.3932 11.0955 45.3635 11.0856 45.3337 11.0658C45.1553 10.9369 44.9768 10.803 44.7983 10.6642ZM45.8989 11.5268C45.8394 11.4822 45.8394 11.3781 45.8841 11.3186C45.9436 11.2591 46.0328 11.2442 46.0923 11.3037C46.2708 11.4425 46.4443 11.5863 46.6129 11.7351C46.6723 11.7946 46.6872 11.8838 46.6277 11.9582C46.598 11.9879 46.5534 12.0028 46.5087 12.0028C46.479 12.0028 46.4492 11.9929 46.4195 11.973C46.2509 11.8243 46.0774 11.6756 45.8989 11.5268ZM46.9549 12.4639C46.8954 12.4044 46.8954 12.3151 46.9549 12.2556C46.9996 12.1813 47.1037 12.1813 47.1632 12.2408C47.3317 12.3994 47.4904 12.5581 47.6391 12.7167C47.6986 12.7762 47.6986 12.8654 47.6391 12.9249C47.6094 12.9547 47.5747 12.9695 47.535 12.9695C47.4953 12.9695 47.4606 12.9547 47.4309 12.9249C47.2722 12.7663 47.1136 12.6126 46.9549 12.4639ZM47.9366 13.4604C47.8771 13.386 47.892 13.2968 47.9515 13.2373C48.0109 13.1778 48.1002 13.1926 48.1597 13.2521C48.3084 13.4108 48.4571 13.5744 48.6059 13.743C48.6654 13.8173 48.6654 13.9066 48.591 13.9661C48.5613 13.9859 48.5315 13.9958 48.5018 13.9958C48.4571 13.9958 48.4125 13.9809 48.3828 13.9512C48.234 13.7826 48.0853 13.619 47.9366 13.4604ZM48.8587 14.5015C48.7992 14.442 48.8141 14.3528 48.8736 14.2933C48.948 14.2487 49.0372 14.2487 49.0818 14.3081C49.2306 14.4866 49.3694 14.6651 49.4983 14.8436C49.5578 14.9031 49.5429 15.0072 49.4834 15.0518C49.4537 15.0716 49.419 15.0816 49.3793 15.0816C49.3347 15.0816 49.2901 15.0667 49.2603 15.0221C49.1314 14.8535 48.9975 14.68 48.8587 14.5015ZM49.5429 12.5085C49.6024 12.568 49.5875 12.6572 49.528 12.7167C49.4983 12.7464 49.4636 12.7613 49.4239 12.7613C49.3942 12.7613 49.3495 12.7316 49.3198 12.7018C49.1711 12.5333 49.0174 12.3647 48.8587 12.1961C48.7992 12.1366 48.7992 12.0474 48.8587 11.9879C48.9182 11.9284 49.0223 11.9284 49.067 11.9879C49.2355 12.1565 49.3942 12.33 49.5429 12.5085ZM48.5464 11.4376C48.6059 11.4971 48.6059 11.6012 48.5464 11.6607C48.5166 11.6904 48.477 11.7053 48.4274 11.7053C48.3877 11.7053 48.353 11.6904 48.3233 11.6607C48.1646 11.502 48.001 11.3434 47.8325 11.1847C47.773 11.1253 47.773 11.0211 47.8325 10.9616C47.8771 10.9022 47.9812 10.9022 48.0407 10.9616C48.2093 11.1203 48.3778 11.2789 48.5464 11.4376ZM47.4755 10.4411C47.535 10.5006 47.535 10.5898 47.4904 10.6642C47.4606 10.6939 47.416 10.7088 47.3714 10.7088C47.3317 10.7088 47.297 10.6939 47.2673 10.6642C47.0987 10.5154 46.9252 10.3667 46.7467 10.218C46.6872 10.1734 46.6723 10.0841 46.7318 10.0098C46.7765 9.95026 46.8657 9.93538 46.9401 9.99488C47.1185 10.1436 47.297 10.2923 47.4755 10.4411ZM46.3303 9.51893C46.4046 9.56355 46.4195 9.65279 46.36 9.72716C46.3303 9.75691 46.2856 9.78665 46.241 9.78665C46.2113 9.78665 46.1815 9.77674 46.1518 9.75691C45.9733 9.61809 45.7899 9.47927 45.6015 9.34045C45.5271 9.29583 45.5122 9.19172 45.5568 9.13223C45.6163 9.05786 45.7056 9.04299 45.7799 9.08761C45.9683 9.22642 46.1518 9.3702 46.3303 9.51893ZM45.1404 8.65628C45.2148 8.7009 45.2296 8.79014 45.185 8.86451C45.1553 8.90913 45.1106 8.924 45.0512 8.924C45.0214 8.924 44.9966 8.91904 44.9768 8.90913C44.7785 8.77031 44.5851 8.64141 44.3967 8.52242C44.3224 8.4778 44.3075 8.38856 44.3521 8.31419C44.3967 8.23983 44.486 8.22495 44.5603 8.26957C44.7487 8.38856 44.9421 8.51746 45.1404 8.65628ZM43.9505 8.07622C43.9208 8.12084 43.8762 8.15059 43.8167 8.15059C43.7968 8.15059 43.772 8.14067 43.7423 8.12084C43.544 8.01177 43.3457 7.9027 43.1474 7.79363C43.073 7.74901 43.0433 7.65977 43.0879 7.5854C43.1176 7.51103 43.2069 7.48129 43.2812 7.52591C43.4895 7.63498 43.6927 7.74901 43.891 7.86799C43.9654 7.91261 43.9952 8.00185 43.9505 8.07622ZM42.6714 7.3623C42.6417 7.42179 42.5822 7.45154 42.5376 7.45154C42.5078 7.45154 42.483 7.44658 42.4632 7.43667C42.2649 7.32759 42.0567 7.22348 41.8385 7.12433C41.7642 7.09458 41.7344 7.00534 41.7642 6.93097C41.8088 6.85661 41.898 6.82686 41.9724 6.85661C42.1806 6.95576 42.3888 7.05987 42.5971 7.16895C42.6714 7.19869 42.7012 7.28793 42.6714 7.3623ZM41.2733 6.54427C41.3477 6.57401 41.3774 6.66325 41.3477 6.73762C41.318 6.79711 41.2585 6.82686 41.2138 6.82686C41.194 6.82686 41.1742 6.8219 41.1543 6.81199C40.9362 6.72275 40.723 6.63846 40.5148 6.55914C40.4255 6.52939 40.3958 6.44015 40.4256 6.35091C40.4553 6.27655 40.5445 6.2468 40.6189 6.27655C40.837 6.35587 41.0552 6.44511 41.2733 6.54427ZM39.8901 6.00883C39.9793 6.0237 40.0091 6.11294 39.9942 6.18731C39.9645 6.26167 39.905 6.29142 39.8455 6.29142C39.8257 6.29142 39.8108 6.29142 39.8009 6.29142C39.5827 6.2121 39.3646 6.13773 39.1464 6.06832C39.0572 6.03857 39.0126 5.94933 39.0423 5.87497C39.0721 5.8006 39.1464 5.75598 39.2357 5.77085C39.4538 5.85018 39.672 5.9295 39.8901 6.00883ZM38.492 5.54775C38.5813 5.5775 38.6259 5.65187 38.5961 5.74111C38.5813 5.8006 38.5218 5.84522 38.4623 5.84522C38.4424 5.84522 38.4276 5.84522 38.4177 5.84522C38.1995 5.77581 37.9764 5.71136 37.7484 5.65187C37.6591 5.63699 37.6145 5.56263 37.6442 5.47339C37.6591 5.39902 37.7335 5.33953 37.8227 5.36927C38.0508 5.42877 38.2739 5.48826 38.492 5.54775ZM37.0791 5.19079C37.1534 5.20567 37.2129 5.29491 37.1832 5.36927C37.1683 5.44364 37.1088 5.48826 37.0344 5.48826C37.0245 5.48826 37.0146 5.48826 37.0047 5.48826C36.7766 5.43868 36.5535 5.3891 36.3354 5.33953C36.2461 5.32465 36.2015 5.25029 36.2164 5.17592C36.2313 5.08668 36.3056 5.04206 36.3949 5.05693C36.613 5.09659 36.8411 5.14122 37.0791 5.19079ZM35.8148 6.81199C35.7404 6.79711 35.681 6.72275 35.6958 6.63351C35.7107 6.55914 35.7851 6.49965 35.8743 6.51452C36.0924 6.55418 36.3106 6.5988 36.5287 6.64838C36.618 6.66325 36.6626 6.73762 36.6477 6.82686C36.6328 6.90123 36.5734 6.94585 36.499 6.94585C36.4891 6.94585 36.4792 6.94585 36.4692 6.94585C36.2511 6.89627 36.033 6.85165 35.8148 6.81199ZM35.6363 4.92307C35.7107 4.93795 35.7702 5.01231 35.7553 5.08668C35.7553 5.16105 35.681 5.22054 35.6066 5.22054C35.6066 5.22054 35.6016 5.22054 35.5917 5.22054C35.443 5.19079 35.2893 5.166 35.1306 5.14617C35.1802 5.05693 35.2248 4.96274 35.2645 4.86358C35.3934 4.88341 35.5173 4.90324 35.6363 4.92307ZM34.6398 6.63351C34.6597 6.53435 34.6844 6.43519 34.7142 6.33604C34.853 6.35587 34.9968 6.3757 35.1455 6.39553C35.2199 6.41041 35.2794 6.48477 35.2645 6.55914C35.2496 6.63351 35.1901 6.693 35.1158 6.693C35.1059 6.693 35.1009 6.693 35.1009 6.693C34.9422 6.67317 34.7886 6.65334 34.6398 6.63351Z" fill="#800000"/>
<path d="M42.4932 1.35346C42.8352 1.39808 43.222 1.47245 43.6235 1.57656C44.0102 1.68067 44.4267 1.81453 44.8432 2.00789C44.9473 2.05251 45.0514 2.09713 45.1406 2.14175L45.2299 2.17149L45.2596 2.20124L45.3042 2.21611L45.453 2.29048C45.562 2.34997 45.6661 2.40451 45.7653 2.45409C45.8694 2.51358 45.9586 2.58795 46.0628 2.64744C46.1619 2.70693 46.266 2.76643 46.3751 2.82592C46.4643 2.90029 46.5685 2.97465 46.6577 3.04902C46.7618 3.10851 46.851 3.18288 46.9552 3.25725L47.2229 3.48035C47.5947 3.79269 47.9219 4.14965 48.2343 4.49173C48.3979 4.67021 48.5317 4.86357 48.6805 5.04205C48.7995 5.2354 48.9333 5.42875 49.0523 5.62211C49.1118 5.71135 49.1713 5.80555 49.2308 5.9047C49.2903 5.99394 49.3498 6.09805 49.3944 6.18729C49.4341 6.28645 49.4787 6.38065 49.5283 6.46989C49.5778 6.56904 49.6224 6.66324 49.6621 6.75248C49.7018 6.85164 49.7414 6.94584 49.7811 7.03508C49.8257 7.12431 49.8555 7.21355 49.8852 7.31767C49.9447 7.49615 50.0191 7.67463 50.0637 7.83823C50.1133 8.01671 50.1579 8.18528 50.1976 8.34393C50.2273 8.49266 50.257 8.64139 50.2868 8.79013C50.3165 8.92895 50.3364 9.06281 50.3463 9.19171C50.3661 9.31069 50.381 9.42472 50.3909 9.53379C50.4058 9.74202 50.4058 9.89075 50.4207 10.0097C50.4207 10.1188 50.4207 10.1733 50.4207 10.1733C50.4207 10.1733 50.376 9.95025 50.3017 9.54867C50.2719 9.44951 50.2422 9.33548 50.2124 9.20658C50.2025 9.14709 50.1876 9.08759 50.1678 9.0281C50.1529 8.96861 50.1232 8.89424 50.1083 8.83475C50.0637 8.70089 50.0191 8.55215 49.9745 8.40342C49.9249 8.25469 49.8703 8.09604 49.8108 7.92747C49.677 7.61514 49.5283 7.25817 49.3498 6.91609C49.3002 6.82685 49.2506 6.73761 49.201 6.64837C49.1515 6.55913 49.1019 6.46989 49.0523 6.38065C48.9482 6.20217 48.8292 6.02369 48.7102 5.84521C48.5912 5.66673 48.4574 5.48825 48.3235 5.30977C48.2541 5.23044 48.1847 5.14616 48.1153 5.05692C48.0409 4.96768 47.9666 4.87844 47.8922 4.80407C47.5947 4.46199 47.2675 4.13477 46.9105 3.85218L46.6577 3.62908C46.5685 3.55471 46.4792 3.48035 46.3751 3.42085C46.2859 3.34649 46.1966 3.28699 46.1074 3.21263C46.0082 3.15313 45.914 3.09364 45.8248 3.03415C45.6314 2.90029 45.4381 2.79617 45.2447 2.69206L45.1109 2.60282L45.0663 2.58795L45.0365 2.57307L44.9621 2.52845C44.858 2.48383 44.7539 2.42434 44.6647 2.37972C44.278 2.20124 43.8913 2.03763 43.5194 1.91865C43.1327 1.78479 42.7758 1.69555 42.4337 1.62118C42.0916 1.54681 41.7792 1.48732 41.4967 1.45757C41.2289 1.41295 40.9761 1.39808 40.7679 1.38321C40.5596 1.36833 40.4109 1.35346 40.2919 1.35346C40.1828 1.35346 40.1283 1.35346 40.1283 1.35346C40.1283 1.35346 40.1828 1.3485 40.2919 1.33859C40.401 1.31876 40.5596 1.29893 40.7679 1.27909C40.9761 1.27909 41.2289 1.26422 41.5115 1.26422C41.809 1.27909 42.1362 1.29397 42.4932 1.35346Z" fill="#800000"/>
<path d="M23.2617 2.33512C22.3395 2.67721 21.2538 3.01929 20.0639 3.36138C18.874 3.67372 17.5801 3.94144 16.2861 4.16454C14.9772 4.34302 13.6684 4.46201 12.4488 4.53637C11.2143 4.56612 10.069 4.56612 9.08739 4.5215C8.10575 4.44713 7.28772 4.35789 6.72253 4.28353C6.15734 4.19429 5.83013 4.14967 5.83013 4.14967C5.83013 4.14967 6.15734 4.11992 6.72253 4.0753C7.28772 4.04555 8.10576 4.00093 9.07252 3.89682C10.0393 3.8522 11.1697 3.73321 12.3744 3.58448C13.5791 3.46549 14.8582 3.30189 16.1225 3.07879C17.4016 2.91518 18.6658 2.69208 19.8557 2.43923C21.0307 2.21613 22.1462 1.99303 23.0832 1.74019C24.0351 1.54683 24.8234 1.35348 25.3737 1.20475C25.9389 1.07089 26.2512 0.996521 26.2512 0.996521C26.2512 0.996521 25.9686 1.14525 25.4481 1.3981C24.9275 1.63607 24.1838 1.97816 23.2617 2.33512Z" fill="#800000"/>
<path d="M5.01221 11.1104C5.81537 11.2591 6.75239 11.4525 7.76377 11.6607C8.74541 11.8987 9.80143 12.1664 10.8574 12.449C11.8986 12.7762 12.9397 13.1183 13.9065 13.4455C14.8584 13.8173 15.7508 14.1594 16.5093 14.4718C17.253 14.8139 17.8628 15.0965 18.309 15.2898C18.7254 15.5129 18.9783 15.6319 18.9783 15.6319C18.9783 15.6319 18.7105 15.5724 18.2495 15.4534C17.7884 15.3344 17.134 15.1559 16.3457 14.9328C15.5574 14.7097 14.6501 14.442 13.6685 14.1743C12.7017 13.8768 11.6606 13.5794 10.6195 13.2968C9.57832 12.9844 8.53719 12.6721 7.57042 12.3895C6.58878 12.092 5.68151 11.8243 4.9081 11.6012C4.11981 11.3484 3.48026 11.155 3.01919 11.0063C2.57299 10.8576 2.30527 10.7683 2.30527 10.7683C2.30527 10.7683 2.58786 10.7981 3.0638 10.8427C3.52488 10.9022 4.20905 11.0063 5.01221 11.1104Z" fill="#800000"/>
</svg>
