<svg width="52" height="23" viewBox="0 0 52 23" fill="none" xmlns="http://www.w3.org/2000/svg">
<path d="M19.0525 17.4166C21.6405 18.3388 25.1506 19.484 28.7202 20.0492C30.505 20.3318 32.2898 20.4657 33.9556 20.4508C34.1936 20.4508 34.4018 20.4359 34.6249 20.4359C34.9967 20.6739 35.3686 20.897 35.7701 21.1052C36.9005 21.6704 38.1053 22.0571 39.3546 22.2356C39.1761 22.2554 38.9877 22.2752 38.7894 22.2951C37.3467 22.4438 35.666 22.4736 33.8961 22.3248C32.1113 22.191 30.2521 21.8637 28.4376 21.3878C24.7936 20.4657 21.3876 18.9783 18.8889 17.8182C17.6396 17.2381 16.5984 16.7324 15.8845 16.3755C15.1557 16.0185 14.7392 15.8103 14.7392 15.8103C14.7392 15.8103 15.1706 15.9739 15.9291 16.2714C16.6728 16.554 17.7585 16.9555 19.0525 17.4166Z" fill="#EDDC92"/>
<path d="M1.81453 6.05347C2.95977 6.18733 4.62559 6.30631 6.60374 6.33606C10.5749 6.41043 15.8847 5.88986 20.9416 4.43227C23.4552 3.71835 25.9242 2.76646 28.3188 1.9633C30.6985 1.16014 33.0337 0.520586 35.1011 0.237993C35.934 0.104133 36.7074 0.0446392 37.4362 0.0148926C36.6033 0.282613 35.815 0.639572 35.0564 1.08577C34.2235 1.59147 33.4799 2.1864 32.8106 2.87057C31.5612 3.08871 30.2424 3.38618 28.8543 3.76297C26.4745 4.38765 23.9163 5.20569 21.2689 5.756C15.9888 6.91612 10.5749 7.0946 6.58887 6.76739C4.59584 6.60378 2.9449 6.38068 1.78479 6.17245C1.2196 6.08321 0.773396 5.9791 0.461056 5.91961C0.163589 5.86011 -1.52588e-05 5.83037 -1.52588e-05 5.83037C-1.52588e-05 5.83037 0.163589 5.84524 0.461056 5.88986C0.773396 5.91961 1.23446 5.99397 1.81453 6.05347Z" fill="#EDDC92"/>
<path d="M6.41051 8.38864C5.56273 8.2994 5.07191 8.23991 5.07191 8.23991C5.07191 8.23991 5.56272 8.25478 6.42537 8.26966C7.28803 8.28453 8.52252 8.2994 9.99498 8.26966C12.9399 8.21016 16.8813 7.98706 20.6889 7.1839C24.4965 6.44024 28.0958 4.96778 31.011 4.10512C31.3382 4.00597 31.6555 3.91673 31.9629 3.8374C31.5018 4.41746 31.1002 5.04214 30.7582 5.71144C30.6094 6.00891 30.4756 6.32125 30.3417 6.63359C29.2262 6.88644 28.0066 7.1839 26.6829 7.49624C24.8832 7.92757 22.8902 8.32915 20.8971 8.53738C16.9111 9.01332 12.9399 8.89434 9.98011 8.70098C8.50765 8.59687 7.27316 8.47788 6.41051 8.38864Z" fill="#EDDC92"/>
<path d="M13.3265 10.575C12.7464 10.5006 12.4192 10.456 12.4192 10.456C12.4192 10.456 12.7464 10.456 13.3413 10.456C13.9214 10.4709 14.7692 10.456 15.7657 10.4114C17.7736 10.3519 20.4359 10.1139 23.0685 9.68257C25.5523 9.26612 28.0064 8.67118 29.8656 8.13574C29.6673 8.90916 29.5533 9.69248 29.5235 10.4857C27.6792 10.7386 25.4333 10.9617 23.2023 11.0509C20.4805 11.1402 17.7736 11.036 15.7508 10.8427C14.7543 10.7534 13.9065 10.6642 13.3265 10.575Z" fill="#EDDC92"/>
<path d="M17.3721 12.4044C17.3721 12.4044 18.3834 12.4788 19.8708 12.5085C21.373 12.5532 23.3809 12.5085 25.3442 12.3152C26.8315 12.1813 28.304 11.9731 29.5533 11.75C29.6029 12.454 29.7219 13.1531 29.9103 13.8471C28.5568 13.862 26.9505 13.8174 25.359 13.6984C23.3214 13.5348 21.3135 13.2373 19.8262 12.9399C18.3537 12.6573 17.3721 12.4044 17.3721 12.4044Z" fill="#EDDC92"/>
<path d="M21.6407 15.0816C21.6407 15.0816 22.4736 15.2006 23.7379 15.2898C25.0021 15.3939 26.6828 15.3939 28.3337 15.2452C29.003 15.1857 29.6575 15.0964 30.2821 15.0072C30.53 15.6418 30.8225 16.2417 31.1597 16.8069C30.2524 16.792 29.2856 16.7325 28.304 16.6284C26.5787 16.4202 24.898 16.0632 23.6635 15.7211C22.429 15.379 21.6407 15.0816 21.6407 15.0816Z" fill="#EDDC92"/>
<path d="M27.4708 18.443C26.4297 18.0861 25.7455 17.8035 25.7455 17.8035C25.7455 17.8035 26.4743 17.9225 27.5601 18.0266C28.6607 18.1307 30.1034 18.1902 31.5461 18.1456C31.7246 18.1356 31.9031 18.1257 32.0816 18.1158C32.6319 18.7851 33.2417 19.3949 33.911 19.9304C33.1227 19.8262 32.2749 19.6924 31.4272 19.5139C29.9547 19.2164 28.5269 18.8 27.4708 18.443Z" fill="#EDDC92"/>
<path d="M42.8202 19.5435C42.6715 19.4989 42.4781 19.4543 42.2699 19.3948C42.0617 19.3254 41.8287 19.2411 41.5709 19.142C41.08 18.9486 40.5149 18.666 39.9348 18.2942C39.796 18.2049 39.6522 18.1108 39.5035 18.0116C39.3646 17.9124 39.2258 17.8034 39.087 17.6844C38.9383 17.5803 38.8044 17.4613 38.6706 17.3423C38.5317 17.2233 38.3979 17.0994 38.269 16.9705C38.0013 16.7176 37.7484 16.4499 37.5253 16.1822C37.4757 16.1128 37.4212 16.0434 37.3617 15.9739C37.3022 15.9045 37.2477 15.8302 37.1981 15.7508C37.1485 15.6814 37.0989 15.612 37.0494 15.5426C36.9998 15.4732 36.9502 15.4038 36.9006 15.3344C36.8114 15.1857 36.7222 15.0518 36.6329 14.9031C36.5585 14.7692 36.4693 14.6353 36.4098 14.4866C36.3354 14.3528 36.2611 14.2189 36.2016 14.085C36.1421 13.9462 36.0876 13.8173 36.038 13.6983C35.9339 13.4455 35.8446 13.2075 35.7851 12.9993C35.7256 12.7911 35.681 12.6126 35.6364 12.449C35.6067 12.3002 35.5918 12.1812 35.5769 12.092C35.5571 12.0127 35.5472 11.973 35.5472 11.973C35.5472 11.973 35.572 12.0077 35.6215 12.0771C35.6513 12.1515 35.7256 12.2556 35.8 12.3895C35.8744 12.5233 35.9785 12.6869 36.0826 12.8654C36.1322 12.9646 36.1917 13.0637 36.2611 13.1629C36.3206 13.2521 36.3949 13.3711 36.4693 13.4752C36.6032 13.6835 36.7668 13.9214 36.9304 14.1594C37.0196 14.2784 37.1138 14.4023 37.213 14.5312C37.2526 14.5907 37.2973 14.6502 37.3468 14.7097C37.3964 14.7692 37.446 14.8337 37.4956 14.9031C37.5451 14.9626 37.5947 15.0221 37.6443 15.0815C37.7038 15.151 37.7583 15.2154 37.8079 15.2749C37.917 15.4038 38.026 15.5277 38.1351 15.6467C38.3632 15.8946 38.6011 16.1376 38.849 16.3755C38.968 16.4945 39.092 16.6135 39.2209 16.7325C39.3399 16.8366 39.4588 16.9556 39.5927 17.0597C39.8505 17.2878 40.1083 17.5009 40.3661 17.6993C40.614 17.8976 40.8619 18.081 41.1098 18.2496C41.3478 18.428 41.5857 18.5768 41.794 18.7255C42.2402 19.0081 42.612 19.2312 42.8797 19.3799C43.0185 19.4593 43.1226 19.5188 43.1921 19.5584C43.2714 19.5981 43.311 19.6179 43.311 19.6179C43.311 19.6278 43.2664 19.6229 43.1772 19.603C43.0879 19.5882 42.969 19.5733 42.8202 19.5435Z" fill="#EDDC92"/>
<path d="M49.2306 15.7658C49.181 15.865 49.1265 15.9592 49.067 16.0484C48.9777 15.9195 48.8885 15.7956 48.7993 15.6766C48.7398 15.6171 48.7546 15.513 48.829 15.4684C48.8885 15.4089 48.9777 15.4237 49.0372 15.4981C49.0967 15.5873 49.1612 15.6766 49.2306 15.7658Z" fill="#EDDC92"/>
<path d="M48.5613 15.141C48.5315 15.1609 48.5018 15.1708 48.472 15.1708C48.4274 15.1708 48.3828 15.1559 48.353 15.1113C48.2142 14.9427 48.0754 14.7742 47.9366 14.6056C47.8771 14.5461 47.892 14.4569 47.9515 14.3974C48.0109 14.3379 48.1002 14.3528 48.1597 14.4122C48.3084 14.5808 48.4522 14.7494 48.591 14.9179C48.6356 14.9923 48.6356 15.0815 48.5613 15.141Z" fill="#EDDC92"/>
<path d="M47.6691 14.085C47.6394 14.1147 47.6047 14.1296 47.565 14.1296C47.5204 14.1296 47.4906 14.1147 47.4609 14.0701C47.3122 13.9115 47.1585 13.7578 46.9998 13.609C46.9403 13.5495 46.9403 13.4454 46.9998 13.3859C47.0593 13.3264 47.1634 13.3264 47.208 13.3859C47.3667 13.5446 47.5204 13.7082 47.6691 13.8767C47.7286 13.9362 47.7286 14.0255 47.6691 14.085Z" fill="#EDDC92"/>
<path d="M46.7021 13.0886C46.6724 13.1183 46.6277 13.1332 46.5831 13.1332C46.5534 13.1332 46.5187 13.1233 46.479 13.1034C46.3303 12.9547 46.1716 12.806 46.0031 12.6572C45.9436 12.5978 45.9287 12.5085 45.9882 12.4341C46.0477 12.3747 46.1369 12.3747 46.1964 12.4341C46.365 12.5829 46.5286 12.7316 46.6872 12.8803C46.7467 12.9398 46.7616 13.0291 46.7021 13.0886Z" fill="#EDDC92"/>
<path d="M45.6612 12.1664C45.6315 12.1961 45.5869 12.211 45.5422 12.211C45.5125 12.211 45.4827 12.2011 45.453 12.1812C45.2844 12.0424 45.1159 11.9036 44.9473 11.7648C44.8729 11.7202 44.8581 11.616 44.9176 11.5565C44.9622 11.4971 45.0663 11.4822 45.1258 11.5268C45.3043 11.6656 45.4778 11.8044 45.6463 11.9433C45.7058 12.0027 45.7207 12.092 45.6612 12.1664Z" fill="#EDDC92"/>
<path d="M44.5754 11.3037C44.5456 11.3335 44.501 11.3632 44.4564 11.3632C44.4167 11.3632 44.387 11.3533 44.3672 11.3335C44.1887 11.2046 44.0052 11.0757 43.8168 10.9468C43.7573 10.9022 43.7425 10.8129 43.7871 10.7386C43.8317 10.6791 43.921 10.6642 43.9953 10.7088C44.1738 10.8278 44.3572 10.9567 44.5456 11.0955C44.6051 11.1401 44.62 11.2294 44.5754 11.3037Z" fill="#EDDC92"/>
<path d="M43.43 10.5006C43.4002 10.5601 43.3407 10.575 43.2961 10.575C43.2664 10.575 43.2416 10.57 43.2217 10.5601C43.0333 10.4411 42.8449 10.3221 42.6565 10.2031C42.5822 10.1734 42.5524 10.0693 42.5971 10.0098C42.6417 9.93541 42.7309 9.90567 42.8053 9.95029C42.9937 10.0594 43.1821 10.1783 43.3705 10.3072C43.4448 10.3519 43.4746 10.4411 43.43 10.5006Z" fill="#EDDC92"/>
<path d="M42.2252 9.78667C42.1955 9.84616 42.1509 9.87591 42.0914 9.87591C42.0716 9.87591 42.0468 9.86599 42.017 9.84616C41.8286 9.747 41.6353 9.64785 41.437 9.54869C41.3626 9.50407 41.3328 9.41483 41.3775 9.34047C41.4072 9.2661 41.4965 9.23635 41.5708 9.28097C41.7691 9.38013 41.9675 9.48424 42.1658 9.59331C42.2401 9.62306 42.2699 9.7123 42.2252 9.78667Z" fill="#EDDC92"/>
<path d="M40.9907 9.14709C40.9609 9.20658 40.9014 9.23633 40.8419 9.23633C40.8221 9.23633 40.8023 9.23137 40.7824 9.22146C40.5841 9.13222 40.3858 9.04297 40.1875 8.95373C40.1131 8.92399 40.0685 8.83475 40.0983 8.76038C40.1429 8.68602 40.2173 8.6414 40.3065 8.68602C40.5048 8.76534 40.7081 8.85458 40.9163 8.95373C40.9907 8.98348 41.0204 9.07272 40.9907 9.14709Z" fill="#EDDC92"/>
<path d="M39.7116 8.59677C39.6819 8.65627 39.6224 8.68601 39.5629 8.68601C39.5431 8.68601 39.5232 8.68601 39.5034 8.68601C39.3051 8.60669 39.1018 8.52736 38.8936 8.44804C38.8192 8.41829 38.7746 8.32905 38.8044 8.25469C38.8341 8.18032 38.9085 8.1357 38.9977 8.16545C39.2059 8.24477 39.4142 8.32409 39.6224 8.40342C39.6968 8.43317 39.7414 8.52241 39.7116 8.59677Z" fill="#EDDC92"/>
<path d="M38.3879 8.12088C38.373 8.18037 38.3135 8.22499 38.254 8.22499C38.2342 8.22499 38.2193 8.22499 38.2094 8.22499C37.9913 8.15558 37.7781 8.09113 37.5699 8.03164C37.4955 8.00189 37.4509 7.92753 37.4658 7.83829C37.4955 7.76392 37.5699 7.7193 37.6591 7.73417C37.8673 7.79367 38.0805 7.85812 38.2987 7.92753C38.373 7.95727 38.4176 8.04651 38.3879 8.12088Z" fill="#EDDC92"/>
<path d="M37.0495 7.73421C37.0347 7.80857 36.9752 7.85319 36.9157 7.85319C36.8958 7.85319 36.881 7.84823 36.8711 7.83832C36.6628 7.78874 36.4496 7.73916 36.2315 7.68959C36.1571 7.67471 36.0976 7.60035 36.1125 7.51111C36.1423 7.43674 36.2166 7.37725 36.291 7.40699C36.5091 7.44665 36.7273 7.49623 36.9454 7.55573C37.0347 7.5706 37.0793 7.65984 37.0495 7.73421Z" fill="#EDDC92"/>
<path d="M34.7589 7.27314C34.7589 7.19877 34.8481 7.13928 34.9225 7.15415C35.1406 7.1839 35.3588 7.2186 35.5769 7.25826C35.6662 7.27314 35.7108 7.3475 35.6959 7.43674C35.681 7.51111 35.6215 7.55573 35.5472 7.55573C35.5373 7.55573 35.5323 7.55573 35.5323 7.55573C35.3142 7.51607 35.096 7.48136 34.8779 7.45162C34.7886 7.43674 34.744 7.36238 34.7589 7.27314Z" fill="#EDDC92"/>
<path d="M48.6656 16.4648C48.5466 16.2863 48.4227 16.1128 48.2938 15.9442C48.2343 15.8699 48.2492 15.7806 48.3087 15.736C48.383 15.6765 48.4723 15.6914 48.5318 15.7509C48.6607 15.9293 48.7896 16.1078 48.9185 16.2863C48.9185 16.2863 48.9185 16.2913 48.9185 16.3012C48.8887 16.3508 48.8639 16.3954 48.8441 16.435C48.8243 16.4648 48.8044 16.4945 48.7846 16.5243C48.74 16.5094 48.6954 16.4945 48.6656 16.4648Z" fill="#EDDC92"/>
<path d="M48.0558 15.4088C48.026 15.4286 47.9963 15.4385 47.9665 15.4385C47.9219 15.4385 47.8773 15.4237 47.8475 15.3939C47.7087 15.2254 47.5699 15.0617 47.4311 14.9031C47.3716 14.8287 47.3716 14.7395 47.446 14.68C47.5055 14.6354 47.5947 14.6354 47.6542 14.6949C47.793 14.8634 47.9318 15.032 48.0706 15.2006C48.1301 15.2601 48.1153 15.3493 48.0558 15.4088Z" fill="#EDDC92"/>
<path d="M47.1631 14.3825C47.1334 14.4023 47.0987 14.4122 47.059 14.4122C47.0144 14.4122 46.9698 14.3974 46.94 14.3676C46.8012 14.2189 46.6525 14.0652 46.4938 13.9065C46.4344 13.847 46.4344 13.7578 46.4938 13.6983C46.5533 13.6388 46.6426 13.6388 46.7021 13.6983C46.8607 13.847 47.0144 14.0007 47.1631 14.1594C47.2226 14.2189 47.2226 14.323 47.1631 14.3825Z" fill="#EDDC92"/>
<path d="M46.1965 13.4008C46.1668 13.4306 46.1221 13.4455 46.0775 13.4455C46.0478 13.4455 46.0131 13.4355 45.9734 13.4157C45.8148 13.267 45.6561 13.1232 45.4975 12.9844C45.438 12.9249 45.4231 12.8356 45.4826 12.7613C45.5421 12.7018 45.6313 12.7018 45.6908 12.7464C45.8594 12.8951 46.023 13.0439 46.1816 13.1926C46.2411 13.2521 46.256 13.3413 46.1965 13.4008Z" fill="#EDDC92"/>
<path d="M45.1406 12.2854C45.2001 12.33 45.215 12.4341 45.1703 12.4936C45.1406 12.5383 45.096 12.5531 45.0514 12.5531C45.0117 12.5531 44.977 12.5432 44.9472 12.5234C44.7787 12.3846 44.6101 12.2507 44.4416 12.1218C44.3821 12.0623 44.3672 11.9731 44.4118 11.8987C44.4564 11.8392 44.5605 11.8243 44.62 11.869C44.7985 12.0078 44.972 12.1466 45.1406 12.2854Z" fill="#EDDC92"/>
<path d="M44.0695 11.6607C44.0397 11.6904 43.9951 11.7202 43.9505 11.7202C43.9208 11.7202 43.891 11.7103 43.8613 11.6904C43.6828 11.5615 43.5043 11.4376 43.3258 11.3186C43.2663 11.274 43.2366 11.1847 43.2812 11.1104C43.3258 11.036 43.4299 11.0211 43.4894 11.0657C43.6778 11.1947 43.8613 11.3186 44.0397 11.4376C44.1141 11.4971 44.129 11.5863 44.0695 11.6607Z" fill="#EDDC92"/>
<path d="M42.9392 10.8872C42.9095 10.9318 42.85 10.9616 42.8054 10.9616C42.7756 10.9616 42.7509 10.9516 42.731 10.9318C42.5426 10.8227 42.3542 10.7137 42.1658 10.6046C42.0915 10.56 42.0617 10.4707 42.1063 10.3964C42.151 10.322 42.2402 10.2923 42.3146 10.3369C42.503 10.446 42.6914 10.56 42.8798 10.679C42.9541 10.7236 42.969 10.8128 42.9392 10.8872Z" fill="#EDDC92"/>
<path d="M41.7347 10.1882C41.7198 10.2329 41.6603 10.2626 41.6157 10.2626C41.5859 10.2626 41.5611 10.2576 41.5413 10.2477C41.343 10.1486 41.1496 10.0494 40.9612 9.95026C40.8869 9.92052 40.8571 9.83127 40.8869 9.75691C40.9315 9.68254 41.0207 9.65279 41.0951 9.68254C41.2835 9.7817 41.4768 9.88085 41.6752 9.98001C41.7495 10.0246 41.7793 10.1139 41.7347 10.1882Z" fill="#EDDC92"/>
<path d="M40.515 9.57848C40.4852 9.6231 40.4257 9.66772 40.3662 9.66772C40.3464 9.66772 40.3266 9.66277 40.3067 9.65285C40.1084 9.56361 39.9101 9.47437 39.7118 9.38513C39.6374 9.35538 39.5928 9.26615 39.6226 9.19178C39.6672 9.11741 39.7416 9.07279 39.8308 9.11741C40.0291 9.19674 40.2274 9.28102 40.4257 9.37026C40.515 9.4 40.5447 9.48924 40.515 9.57848Z" fill="#EDDC92"/>
<path d="M39.0423 9.11733C38.844 9.04792 38.6407 8.97851 38.4325 8.9091C38.3581 8.87935 38.3135 8.79011 38.3433 8.71574C38.3582 8.64138 38.4474 8.59676 38.5218 8.62651C38.73 8.69591 38.9382 8.77028 39.1464 8.84961C39.2208 8.86448 39.2654 8.95372 39.2357 9.04296C39.2208 9.10245 39.1613 9.1322 39.1018 9.1322C39.082 9.1322 39.0622 9.12724 39.0423 9.11733Z" fill="#EDDC92"/>
<path d="M37.7931 8.68607C37.7733 8.68607 37.7584 8.68607 37.7485 8.68607C37.5403 8.62658 37.332 8.56709 37.1238 8.50759C37.0495 8.47785 36.99 8.40348 37.0197 8.31424C37.0346 8.23987 37.1238 8.19525 37.1982 8.21013C37.4163 8.26962 37.6295 8.33407 37.8377 8.40348C37.9121 8.41835 37.9567 8.50759 37.9419 8.58196C37.9121 8.65633 37.8526 8.68607 37.7931 8.68607Z" fill="#EDDC92"/>
<path d="M36.6181 8.22493C36.5883 8.28442 36.5288 8.32904 36.4693 8.32904C36.4594 8.32904 36.4445 8.32904 36.4247 8.32904C36.2165 8.27947 36.0083 8.23484 35.8 8.19518C35.7108 8.18031 35.6662 8.09107 35.681 8.0167C35.6959 7.92746 35.7703 7.88284 35.8595 7.89772C36.0678 7.93738 36.2809 7.982 36.4991 8.03158C36.5734 8.06132 36.6329 8.13569 36.6181 8.22493Z" fill="#EDDC92"/>
<path d="M49.8256 12.092C49.7661 12.0326 49.7661 11.9433 49.8405 11.8838C49.9 11.8243 49.9892 11.8392 50.0487 11.8987C50.138 11.9978 50.2321 12.102 50.3313 12.211C50.3115 12.3399 50.2966 12.4639 50.2867 12.5829C50.2768 12.5928 50.2718 12.6077 50.2718 12.6275C50.1231 12.449 49.9743 12.2705 49.8256 12.092Z" fill="#EDDC92"/>
<path d="M48.8142 10.8278C48.8737 10.7683 48.9629 10.7683 49.0224 10.8278C49.191 10.9865 49.3596 11.1501 49.5281 11.3186C49.5728 11.393 49.5727 11.4822 49.5133 11.5417C49.4835 11.5715 49.4488 11.5864 49.4091 11.5864C49.3794 11.5864 49.3348 11.5566 49.305 11.5269C49.1464 11.3682 48.9828 11.2046 48.8142 11.036C48.7547 10.9766 48.7547 10.8873 48.8142 10.8278Z" fill="#EDDC92"/>
<path d="M47.7286 9.81645C47.7881 9.75696 47.8773 9.75696 47.9368 9.80158C48.1153 9.96023 48.2937 10.1189 48.4722 10.2775C48.5317 10.337 48.5317 10.4263 48.4722 10.5006C48.4425 10.5304 48.3979 10.5452 48.3681 10.5452C48.3284 10.5452 48.2938 10.5304 48.264 10.5006C48.0954 10.342 47.9219 10.1883 47.7434 10.0396C47.6839 9.98006 47.6691 9.89082 47.7286 9.81645Z" fill="#EDDC92"/>
<path d="M46.5834 8.89422C46.628 8.81985 46.7172 8.80498 46.7916 8.86447C46.98 9.00329 47.1634 9.14706 47.3419 9.2958C47.4163 9.35529 47.4163 9.44453 47.3716 9.5189C47.3419 9.54864 47.2973 9.56352 47.2527 9.56352C47.213 9.56352 47.1783 9.5536 47.1485 9.53377C46.9701 9.38504 46.7866 9.24126 46.5982 9.10244C46.5387 9.04295 46.5239 8.95371 46.5834 8.89422Z" fill="#EDDC92"/>
<path d="M45.3634 8.03163C45.4081 7.95727 45.5122 7.94239 45.5717 7.98701C45.77 8.11591 45.9683 8.24978 46.1666 8.38859C46.2261 8.44809 46.241 8.53733 46.1963 8.59682C46.1666 8.64144 46.122 8.67119 46.0774 8.67119C46.0476 8.67119 46.0179 8.66127 45.9881 8.64144C45.7997 8.50262 45.6064 8.36876 45.4081 8.23986C45.3337 8.19524 45.3188 8.09113 45.3634 8.03163Z" fill="#EDDC92"/>
<path d="M44.1588 7.45152C44.0844 7.4069 44.0696 7.31766 44.1142 7.24329C44.1439 7.16892 44.248 7.15405 44.3075 7.1838C44.5158 7.3127 44.719 7.43664 44.9173 7.55563C44.9917 7.60025 45.0066 7.68949 44.962 7.76386C44.9471 7.80848 44.8876 7.83822 44.843 7.83822C44.8132 7.83822 44.7835 7.82831 44.7537 7.80848C44.5653 7.68949 44.367 7.5705 44.1588 7.45152Z" fill="#EDDC92"/>
<path d="M42.8648 6.73765C42.7904 6.7079 42.7607 6.60379 42.7904 6.52942C42.835 6.45506 42.9243 6.44018 42.9987 6.46993C43.2168 6.579 43.425 6.68807 43.6233 6.79714C43.6977 6.84176 43.7275 6.931 43.6977 7.00537C43.668 7.04999 43.6085 7.07974 43.5638 7.07974C43.5341 7.07974 43.5093 7.07478 43.4895 7.06486C43.2813 6.95579 43.073 6.84672 42.8648 6.73765Z" fill="#EDDC92"/>
<path d="M41.4521 5.91961C41.4818 5.83037 41.5711 5.80062 41.6454 5.83037C41.8636 5.92952 42.0817 6.02868 42.2999 6.12783C42.3742 6.15758 42.404 6.24682 42.3742 6.32119C42.3445 6.38068 42.285 6.41043 42.2255 6.41043C42.2057 6.41043 42.1858 6.40547 42.166 6.39556C41.9479 6.2964 41.7347 6.2022 41.5264 6.11296C41.4521 6.08322 41.4075 5.99398 41.4521 5.91961Z" fill="#EDDC92"/>
<path d="M40.0687 5.36931C40.0836 5.29494 40.1728 5.25032 40.2472 5.28007C40.4752 5.35939 40.6983 5.44368 40.9165 5.53292C40.9908 5.56266 41.0354 5.6519 41.0057 5.72627C40.9759 5.78576 40.9313 5.83038 40.8718 5.83038C40.852 5.83038 40.8322 5.82542 40.8123 5.81551C40.5942 5.72627 40.3761 5.64199 40.1579 5.56266C40.0687 5.53292 40.0389 5.45855 40.0687 5.36931Z" fill="#EDDC92"/>
<path d="M38.6409 4.92312C38.6706 4.84876 38.7598 4.80414 38.8342 4.81901C39.0623 4.88842 39.2903 4.95783 39.5184 5.02724C39.5927 5.05698 39.6374 5.14622 39.6076 5.22059C39.5928 5.28008 39.5333 5.3247 39.4738 5.3247C39.4539 5.3247 39.4341 5.3247 39.4143 5.3247C39.1961 5.24538 38.973 5.17597 38.745 5.11648C38.6706 5.08673 38.626 4.99749 38.6409 4.92312Z" fill="#EDDC92"/>
<path d="M37.213 4.56614C37.2279 4.4769 37.3023 4.43228 37.3915 4.44715C37.6196 4.49673 37.8476 4.55127 38.0757 4.61076C38.1649 4.64051 38.2096 4.71487 38.1947 4.80411C38.1649 4.86361 38.1055 4.90823 38.046 4.90823C38.036 4.90823 38.0212 4.90823 38.0013 4.90823C37.7733 4.84873 37.5452 4.7942 37.3172 4.74462C37.2428 4.72975 37.1982 4.64051 37.213 4.56614Z" fill="#EDDC92"/>
<path d="M36.6331 4.29841C36.7075 4.31328 36.767 4.38765 36.7521 4.46202C36.7372 4.53638 36.6629 4.59588 36.6034 4.59588C36.5935 4.59588 36.5835 4.59092 36.5736 4.581C36.3456 4.54134 36.1175 4.50168 35.8894 4.46202C35.8002 4.46202 35.7407 4.37278 35.7556 4.29841C35.7705 4.20917 35.8448 4.16455 35.9341 4.16455C36.1621 4.20421 36.3951 4.24883 36.6331 4.29841Z" fill="#EDDC92"/>
<path d="M50.0041 11.4377C49.9446 11.3782 49.9446 11.2741 50.0041 11.2294C50.0636 11.1699 50.1678 11.1699 50.2124 11.2294C50.2719 11.2889 50.3264 11.3484 50.376 11.4079C50.376 11.4773 50.376 11.5418 50.376 11.6013V11.6905C50.376 11.7054 50.3611 11.7351 50.376 11.7351L50.3611 11.7649C50.3611 11.7946 50.3611 11.8194 50.3611 11.8392C50.2421 11.7103 50.1231 11.5765 50.0041 11.4377Z" fill="#EDDC92"/>
<path d="M48.963 10.3816C48.9035 10.3221 48.9035 10.218 48.963 10.1585C49.0225 10.099 49.1117 10.099 49.1712 10.1585C49.3398 10.3271 49.5084 10.4956 49.6769 10.6642C49.7364 10.7237 49.7364 10.8129 49.6769 10.8724C49.6472 10.9022 49.6125 10.9171 49.5728 10.9171C49.5282 10.9171 49.4985 10.9022 49.4687 10.8724C49.3001 10.7039 49.1316 10.5403 48.963 10.3816Z" fill="#EDDC92"/>
<path d="M47.8623 9.37023C47.8029 9.32561 47.788 9.22149 47.8475 9.162C47.907 9.10251 47.9962 9.08763 48.0557 9.14713C48.2441 9.30578 48.4275 9.46442 48.606 9.62307C48.6655 9.68257 48.6655 9.77181 48.606 9.8313C48.5763 9.86105 48.5465 9.87592 48.5019 9.87592C48.4622 9.87592 48.4275 9.866 48.3978 9.84617C48.2193 9.68752 48.0408 9.52888 47.8623 9.37023Z" fill="#EDDC92"/>
<path d="M46.8807 8.21005C47.079 8.34887 47.2674 8.49264 47.4459 8.64138C47.5203 8.70087 47.5203 8.79011 47.4756 8.8496C47.4459 8.89422 47.4013 8.9091 47.3567 8.9091C47.3269 8.9091 47.2972 8.89918 47.2674 8.87935C47.079 8.73062 46.8906 8.58684 46.7022 8.44802C46.6427 8.38853 46.6279 8.29929 46.6725 8.2398C46.7171 8.16543 46.8212 8.15056 46.8807 8.21005Z" fill="#EDDC92"/>
<path d="M46.1518 8.01677C46.1221 8.01677 46.0973 8.00685 46.0775 7.98702C45.8792 7.8482 45.6808 7.71434 45.4825 7.58544C45.4082 7.54082 45.3933 7.45158 45.4379 7.37721C45.4825 7.30285 45.5718 7.28797 45.6461 7.33259C45.8445 7.4615 46.0428 7.59536 46.2411 7.73417C46.3154 7.79367 46.3303 7.88291 46.2857 7.9424C46.2559 7.98702 46.2113 8.01677 46.1518 8.01677Z" fill="#EDDC92"/>
<path d="M44.9026 7.18383C44.8728 7.18383 44.848 7.17887 44.8282 7.16896C44.62 7.04006 44.4117 6.91611 44.2035 6.79713C44.144 6.76738 44.1143 6.67814 44.1589 6.60377C44.1886 6.52941 44.2928 6.49966 44.3671 6.54428C44.5654 6.66327 44.7687 6.78721 44.9769 6.91611C45.0513 6.96073 45.0662 7.04997 45.0364 7.12434C45.0067 7.16896 44.9472 7.18383 44.9026 7.18383Z" fill="#EDDC92"/>
<path d="M42.8203 5.90474C42.8649 5.83037 42.9542 5.80062 43.0285 5.83037C43.2467 5.93944 43.4598 6.04851 43.6681 6.15758C43.7424 6.2022 43.7722 6.29144 43.7276 6.36581C43.6978 6.41043 43.6532 6.44018 43.5937 6.44018C43.5739 6.44018 43.5491 6.43522 43.5193 6.4253C43.3111 6.31623 43.1029 6.20716 42.8947 6.09809C42.8203 6.06834 42.7905 5.9791 42.8203 5.90474Z" fill="#EDDC92"/>
<path d="M41.4518 5.2801C41.4816 5.20573 41.5708 5.17599 41.6452 5.20573C41.8633 5.29497 42.0864 5.38917 42.3145 5.48833C42.3889 5.53295 42.4186 5.62219 42.3889 5.69655C42.3591 5.74117 42.2996 5.7858 42.2401 5.7858C42.2203 5.7858 42.2005 5.78084 42.1806 5.77092C41.9625 5.67177 41.7444 5.57261 41.5262 5.47345C41.4518 5.44371 41.4221 5.35447 41.4518 5.2801Z" fill="#EDDC92"/>
<path d="M40.0389 4.7595C40.0687 4.67026 40.1579 4.64051 40.2323 4.65539C40.4603 4.73471 40.6884 4.81899 40.9165 4.90823C40.9908 4.93798 41.0354 5.02722 41.0057 5.10159C40.9759 5.16108 40.9165 5.2057 40.857 5.2057C40.8371 5.2057 40.8173 5.20074 40.7975 5.19083C40.5793 5.10159 40.3612 5.0173 40.143 4.93798C40.0538 4.92311 40.0092 4.83387 40.0389 4.7595Z" fill="#EDDC92"/>
<path d="M38.6111 4.31323C38.6259 4.23886 38.7152 4.17937 38.7896 4.20912C39.0275 4.26861 39.2605 4.33802 39.4886 4.41734C39.563 4.43222 39.6076 4.52146 39.5778 4.59582C39.563 4.67019 39.5035 4.69994 39.444 4.69994C39.4241 4.69994 39.4093 4.69994 39.3994 4.69994C39.1713 4.63053 38.9432 4.56112 38.7152 4.49171C38.6408 4.47684 38.5813 4.3876 38.6111 4.31323Z" fill="#EDDC92"/>
<path d="M37.2723 4.13481C37.1831 4.11993 37.1385 4.04557 37.1534 3.95633C37.1682 3.88196 37.2575 3.83734 37.3318 3.85222C37.5698 3.90179 37.8028 3.95137 38.0309 4.00095C38.1053 4.0307 38.1647 4.10506 38.135 4.1943C38.1201 4.25379 38.0606 4.29842 38.0011 4.29842C37.9813 4.29842 37.9664 4.29842 37.9565 4.29842C37.7285 4.23892 37.5004 4.18439 37.2723 4.13481Z" fill="#EDDC92"/>
<path fill-rule="evenodd" clip-rule="evenodd" d="M35.339 1.5617C33.5988 2.61771 32.171 4.13479 31.2488 5.96421C29.9251 8.55217 29.702 11.512 30.5944 14.2784C31.5017 17.0448 33.4203 19.2907 36.0232 20.6144C37.5402 21.3879 39.2507 21.8043 40.9462 21.8043C42.9393 21.8043 44.8728 21.254 46.5832 20.2426C48.3234 19.1866 49.7364 17.6695 50.6734 15.8401C51.1196 14.9626 51.4468 14.0404 51.6402 13.0885C51.6501 13.0687 51.655 13.0439 51.655 13.0142C52.012 11.1996 51.9079 9.32558 51.3278 7.52591C50.4205 4.75947 48.5019 2.51359 45.8991 1.18987C44.382 0.416453 42.6715 0 40.9611 0C38.983 0 37.0494 0.53544 35.339 1.5617ZM35.3539 2.60283C36.1868 2.0079 37.1684 1.50221 38.269 1.18987C38.8045 1.04113 39.3697 0.922146 39.9497 0.862653C40.0985 0.84778 40.2472 0.818033 40.3959 0.818033C40.5347 0.808118 40.6785 0.798202 40.8273 0.788286C40.8768 0.798202 40.9214 0.80316 40.9611 0.80316C41.0702 0.80316 41.1793 0.80316 41.2883 0.80316C41.4371 0.80316 41.5709 0.818033 41.7197 0.818033C42.9095 0.907273 44.0994 1.20474 45.2 1.71043C46.3006 2.21613 47.2971 2.93005 48.1449 3.77783C48.9778 4.62561 49.6323 5.62212 50.0933 6.66325C50.3313 7.16895 50.5247 7.68951 50.6437 8.22495C50.7775 8.74552 50.8668 9.28096 50.9114 9.78665C50.9609 10.3023 50.9709 10.803 50.9411 11.2889C50.9312 11.4078 50.9213 11.5268 50.9114 11.6458L50.8965 11.7202V11.7797L50.8816 11.8243C50.8816 11.8739 50.8767 11.9284 50.8668 11.9879C50.837 12.2259 50.7924 12.449 50.7478 12.6721C50.6585 13.1084 50.5445 13.5149 50.4057 13.8917C50.2569 14.2784 50.1231 14.6354 49.9595 14.9626C49.6471 15.6021 49.2902 16.1227 48.9778 16.5243C48.6655 16.9407 48.368 17.2233 48.1896 17.4167C48.0408 17.5654 47.9466 17.6546 47.907 17.6844C46.6873 18.9338 45.1703 19.8113 43.5342 20.2575C41.913 20.0195 36.7371 18.785 34.8779 12.6275C34.3425 10.8575 34.2532 9.29583 34.402 7.94236C34.4119 7.95227 34.4268 7.96219 34.4466 7.97211C34.6647 8.00185 34.8829 8.0316 35.101 8.06135C35.101 8.06135 35.106 8.06135 35.1159 8.06135C35.1903 8.06135 35.2498 8.01673 35.2646 7.94236C35.2795 7.85312 35.22 7.77875 35.1456 7.76388C34.9275 7.73413 34.7094 7.70439 34.4912 7.67464C34.4714 7.66472 34.4516 7.66472 34.4317 7.67464C34.4714 7.38709 34.521 7.1045 34.5805 6.82686C40.3811 7.57053 45.9437 10.798 49.3645 15.498C49.4637 15.2898 49.5629 15.0667 49.662 14.8287C49.7959 14.5015 49.9149 14.1445 50.019 13.7727C50.0388 13.7132 50.0537 13.6537 50.0636 13.5942C49.9843 13.4951 49.9 13.391 49.8107 13.2819C49.7512 13.2075 49.7661 13.1183 49.8256 13.0588C49.8851 13.0142 49.9892 13.0142 50.0338 13.0885C50.0735 13.1381 50.1132 13.1877 50.1528 13.2373C50.1727 13.1381 50.1925 13.0439 50.2123 12.9547C46.5684 8.49267 41.095 5.44364 35.3687 4.64048C35.5076 4.37276 35.6513 4.11495 35.8001 3.86707C35.8001 3.87698 35.805 3.88194 35.8149 3.88194C36.043 3.91169 36.2711 3.94639 36.4991 3.98605C36.509 3.98605 36.5189 3.98605 36.5289 3.98605C36.6032 3.98605 36.6627 3.94143 36.6776 3.86707C36.6925 3.7927 36.6478 3.70346 36.5586 3.68859C36.3702 3.65884 36.1769 3.62909 35.9785 3.59935C36.276 3.16802 36.5586 2.79619 36.8263 2.49872C36.4396 2.6772 36.0529 2.88543 35.696 3.1234C35.2944 3.37625 34.9225 3.67371 34.5656 3.97118C34.2284 4.26865 33.9161 4.58099 33.6286 4.9082C33.0782 5.54775 32.6469 6.20218 32.3197 6.82686C32.0074 7.43667 31.7843 8.01673 31.6355 8.49267C31.6058 8.61166 31.576 8.73065 31.5463 8.84963C31.5165 8.95375 31.4868 9.05786 31.4571 9.1471C31.4273 9.34045 31.3827 9.50406 31.3529 9.63792C31.3083 9.90564 31.2934 10.0544 31.2934 10.0544C31.2934 10.0544 31.2934 9.90564 31.3083 9.63792C31.3381 9.35533 31.3678 8.95375 31.4868 8.46293C31.576 7.95723 31.7545 7.34743 32.0371 6.693C32.3197 6.0237 32.7213 5.30978 33.2716 4.59586C33.5393 4.24882 33.8467 3.90177 34.1937 3.55473C34.5408 3.2176 34.9275 2.9003 35.3539 2.60283ZM36.9007 6.15756C36.1422 5.97908 35.4877 5.84522 35.0415 5.78573C34.9919 5.77581 34.9473 5.76589 34.9077 5.75598C34.9077 5.74606 34.9077 5.73615 34.9077 5.72623C34.9572 5.72623 35.0068 5.73119 35.0564 5.74111C35.5175 5.78573 36.1719 5.87497 36.9602 6.03857C37.7336 6.20218 38.6409 6.44015 39.5779 6.76737C40.0538 6.93097 40.5447 7.10945 41.0206 7.31768C41.5114 7.52591 41.9874 7.76388 42.4633 8.00185C42.9393 8.2547 43.4003 8.50755 43.8465 8.79014C44.2927 9.07273 44.7241 9.35533 45.1256 9.65279C45.9437 10.2329 46.6576 10.8278 47.2377 11.3781C47.8177 11.9284 48.2639 12.4192 48.5763 12.7613C48.8737 13.1183 49.0522 13.3265 49.0522 13.3265C49.0522 13.3265 48.8737 13.1332 48.5465 12.8059C48.2342 12.4639 47.7582 12.0177 47.1633 11.4971C46.5684 10.9765 45.8396 10.3965 45.0215 9.8164C44.6199 9.53381 44.1886 9.25121 43.7424 8.98349C43.2962 8.71577 42.8352 8.44805 42.3592 8.21008C41.8833 7.95723 41.4073 7.73413 40.9314 7.52591C40.4554 7.31768 39.9646 7.12433 39.5035 6.94585C38.5665 6.60376 37.6741 6.35091 36.9007 6.15756ZM37.1833 7.10945C37.1089 7.09458 37.0643 7.00534 37.0792 6.93097C37.094 6.84173 37.1833 6.79711 37.2577 6.81199C37.4758 6.87148 37.6939 6.93097 37.9121 6.99047C38.0013 7.02021 38.0459 7.09458 38.0162 7.18382C38.0013 7.24331 37.9418 7.28793 37.8823 7.28793C37.8625 7.28793 37.8476 7.28793 37.8377 7.28793C37.6196 7.21852 37.4014 7.15903 37.1833 7.10945ZM38.5368 7.49616C38.4624 7.46641 38.4178 7.37717 38.4475 7.30281C38.4624 7.22844 38.5516 7.18382 38.626 7.21357C38.8441 7.28297 39.0623 7.35238 39.2804 7.42179C39.3548 7.45154 39.3994 7.54078 39.3697 7.61515C39.3399 7.67464 39.2804 7.71926 39.2209 7.71926C39.211 7.71926 39.1961 7.7143 39.1763 7.70439C38.9582 7.63498 38.745 7.56557 38.5368 7.49616ZM39.9497 7.98698C39.8754 7.97211 39.8456 7.88287 39.8754 7.82337C39.8902 7.74901 39.9795 7.71926 40.039 7.73413C40.2274 7.81346 40.4108 7.89278 40.5893 7.97211C40.6636 8.00185 40.6934 8.07622 40.6636 8.15059C40.6488 8.19521 40.5893 8.22495 40.5447 8.22495C40.5248 8.22495 40.505 8.21999 40.4852 8.21008C40.3067 8.14067 40.1282 8.0663 39.9497 7.98698ZM41.1545 8.52242C41.0801 8.49267 41.0504 8.40343 41.095 8.32907C41.1247 8.2547 41.214 8.21008 41.2883 8.2547C41.4966 8.35386 41.6998 8.45301 41.8981 8.55217C41.9725 8.58191 42.0022 8.67115 41.9725 8.74552C41.9427 8.80501 41.8833 8.83476 41.8386 8.83476C41.8089 8.83476 41.7841 8.8298 41.7643 8.81989C41.566 8.72073 41.3627 8.62158 41.1545 8.52242ZM42.4187 9.16197C42.3443 9.11735 42.3146 9.02811 42.3592 8.95374C42.4038 8.87938 42.4931 8.86451 42.5674 8.89425C42.7657 9.00332 42.9591 9.11735 43.1475 9.23634C43.2219 9.28096 43.2516 9.3702 43.207 9.44457C43.1772 9.48919 43.1326 9.51893 43.0731 9.51893C43.0533 9.51893 43.0285 9.50902 42.9988 9.48919C42.8104 9.38011 42.617 9.27104 42.4187 9.16197ZM43.6234 9.87589C43.5639 9.83127 43.5342 9.74203 43.5788 9.66767C43.6234 9.5933 43.7275 9.57843 43.787 9.62304C43.9854 9.74203 44.1787 9.86598 44.3671 9.99488C44.4266 10.0395 44.4415 10.1287 44.3969 10.2031C44.3671 10.2477 44.3225 10.2775 44.2779 10.2775C44.2481 10.2775 44.2184 10.2676 44.1886 10.2477C44.0101 10.1188 43.8217 9.99488 43.6234 9.87589ZM44.7984 10.6642C44.7241 10.6196 44.7092 10.5303 44.7687 10.456C44.8133 10.3965 44.9025 10.3816 44.9769 10.4262C45.1554 10.5551 45.3339 10.689 45.5124 10.8278C45.5867 10.8873 45.5867 10.9765 45.5421 11.0509C45.5123 11.0806 45.4677 11.0955 45.4231 11.0955C45.3934 11.0955 45.3636 11.0856 45.3339 11.0658C45.1554 10.9369 44.9769 10.803 44.7984 10.6642ZM45.8991 11.5268C45.8396 11.4822 45.8396 11.3781 45.8842 11.3186C45.9437 11.2591 46.0329 11.2442 46.0924 11.3037C46.2709 11.4425 46.4444 11.5863 46.613 11.7351C46.6725 11.7946 46.6873 11.8838 46.6279 11.9582C46.5981 11.9879 46.5535 12.0028 46.5089 12.0028C46.4791 12.0028 46.4494 11.9929 46.4196 11.973C46.2511 11.8243 46.0775 11.6756 45.8991 11.5268ZM46.9551 12.4639C46.8956 12.4044 46.8956 12.3151 46.9551 12.2556C46.9997 12.1813 47.1038 12.1813 47.1633 12.2408C47.3319 12.3994 47.4905 12.5581 47.6392 12.7167C47.6987 12.7762 47.6987 12.8654 47.6392 12.9249C47.6095 12.9547 47.5748 12.9695 47.5351 12.9695C47.4955 12.9695 47.4608 12.9547 47.431 12.9249C47.2724 12.7663 47.1137 12.6126 46.9551 12.4639ZM47.9367 13.4604C47.8772 13.386 47.8921 13.2968 47.9516 13.2373C48.0111 13.1778 48.1003 13.1926 48.1598 13.2521C48.3085 13.4108 48.4573 13.5744 48.606 13.743C48.6655 13.8173 48.6655 13.9066 48.5911 13.9661C48.5614 13.9859 48.5316 13.9958 48.5019 13.9958C48.4573 13.9958 48.4127 13.9809 48.3829 13.9512C48.2342 13.7826 48.0854 13.619 47.9367 13.4604ZM48.8589 14.5015C48.7994 14.442 48.8142 14.3528 48.8737 14.2933C48.9481 14.2487 49.0373 14.2487 49.082 14.3081C49.2307 14.4866 49.3695 14.6651 49.4984 14.8436C49.5579 14.9031 49.543 15.0072 49.4835 15.0518C49.4538 15.0716 49.4191 15.0816 49.3794 15.0816C49.3348 15.0816 49.2902 15.0667 49.2604 15.0221C49.1315 14.8535 48.9977 14.68 48.8589 14.5015ZM49.543 12.5085C49.6025 12.568 49.5876 12.6572 49.5282 12.7167C49.4984 12.7464 49.4637 12.7613 49.424 12.7613C49.3943 12.7613 49.3497 12.7316 49.3199 12.7018C49.1712 12.5333 49.0175 12.3647 48.8589 12.1961C48.7994 12.1366 48.7994 12.0474 48.8589 11.9879C48.9183 11.9284 49.0225 11.9284 49.0671 11.9879C49.2356 12.1565 49.3943 12.33 49.543 12.5085ZM48.5465 11.4376C48.606 11.4971 48.606 11.6012 48.5465 11.6607C48.5168 11.6904 48.4771 11.7053 48.4275 11.7053C48.3879 11.7053 48.3532 11.6904 48.3234 11.6607C48.1648 11.502 48.0012 11.3434 47.8326 11.1847C47.7731 11.1253 47.7731 11.0211 47.8326 10.9616C47.8772 10.9022 47.9813 10.9022 48.0408 10.9616C48.2094 11.1203 48.3779 11.2789 48.5465 11.4376ZM47.4756 10.4411C47.5351 10.5006 47.5351 10.5898 47.4905 10.6642C47.4608 10.6939 47.4161 10.7088 47.3715 10.7088C47.3319 10.7088 47.2972 10.6939 47.2674 10.6642C47.0988 10.5154 46.9253 10.3667 46.7468 10.218C46.6873 10.1734 46.6725 10.0841 46.732 10.0098C46.7766 9.95026 46.8658 9.93538 46.9402 9.99488C47.1187 10.1436 47.2971 10.2923 47.4756 10.4411ZM46.3304 9.51893C46.4048 9.56355 46.4196 9.65279 46.3601 9.72716C46.3304 9.75691 46.2858 9.78665 46.2411 9.78665C46.2114 9.78665 46.1817 9.77674 46.1519 9.75691C45.9734 9.61809 45.79 9.47927 45.6016 9.34045C45.5272 9.29583 45.5124 9.19172 45.557 9.13223C45.6165 9.05786 45.7057 9.04299 45.7801 9.08761C45.9685 9.22642 46.1519 9.3702 46.3304 9.51893ZM45.1405 8.65628C45.2149 8.7009 45.2298 8.79014 45.1851 8.86451C45.1554 8.90913 45.1108 8.924 45.0513 8.924C45.0215 8.924 44.9967 8.91904 44.9769 8.90913C44.7786 8.77031 44.5852 8.64141 44.3969 8.52242C44.3225 8.4778 44.3076 8.38856 44.3522 8.31419C44.3968 8.23983 44.4861 8.22495 44.5605 8.26957C44.7489 8.38856 44.9422 8.51746 45.1405 8.65628ZM43.9507 8.07622C43.9209 8.12084 43.8763 8.15059 43.8168 8.15059C43.797 8.15059 43.7722 8.14067 43.7424 8.12084C43.5441 8.01177 43.3458 7.9027 43.1475 7.79363C43.0731 7.74901 43.0434 7.65977 43.088 7.5854C43.1177 7.51103 43.207 7.48129 43.2814 7.52591C43.4896 7.63498 43.6928 7.74901 43.8912 7.86799C43.9655 7.91261 43.9953 8.00185 43.9507 8.07622ZM42.6715 7.3623C42.6418 7.42179 42.5823 7.45154 42.5377 7.45154C42.5079 7.45154 42.4832 7.44658 42.4633 7.43667C42.265 7.32759 42.0568 7.22348 41.8386 7.12433C41.7643 7.09458 41.7345 7.00534 41.7643 6.93097C41.8089 6.85661 41.8981 6.82686 41.9725 6.85661C42.1807 6.95576 42.3889 7.05987 42.5972 7.16895C42.6715 7.19869 42.7013 7.28793 42.6715 7.3623ZM41.2735 6.54427C41.3478 6.57401 41.3776 6.66325 41.3478 6.73762C41.3181 6.79711 41.2586 6.82686 41.214 6.82686C41.1941 6.82686 41.1743 6.8219 41.1545 6.81199C40.9363 6.72275 40.7231 6.63846 40.5149 6.55914C40.4257 6.52939 40.3959 6.44015 40.4257 6.35091C40.4554 6.27655 40.5447 6.2468 40.619 6.27655C40.8372 6.35587 41.0553 6.44511 41.2735 6.54427ZM39.8902 6.00883C39.9795 6.0237 40.0092 6.11294 39.9943 6.18731C39.9646 6.26167 39.9051 6.29142 39.8456 6.29142C39.8258 6.29142 39.8109 6.29142 39.801 6.29142C39.5828 6.2121 39.3647 6.13773 39.1466 6.06832C39.0573 6.03857 39.0127 5.94933 39.0425 5.87497C39.0722 5.8006 39.1466 5.75598 39.2358 5.77085C39.4539 5.85018 39.6721 5.9295 39.8902 6.00883ZM38.4921 5.54775C38.5814 5.5775 38.626 5.65187 38.5963 5.74111C38.5814 5.8006 38.5219 5.84522 38.4624 5.84522C38.4426 5.84522 38.4277 5.84522 38.4178 5.84522C38.1996 5.77581 37.9765 5.71136 37.7485 5.65187C37.6592 5.63699 37.6146 5.56263 37.6444 5.47339C37.6592 5.39902 37.7336 5.33953 37.8228 5.36927C38.0509 5.42877 38.274 5.48826 38.4921 5.54775ZM37.0792 5.19079C37.1535 5.20567 37.213 5.29491 37.1833 5.36927C37.1684 5.44364 37.1089 5.48826 37.0346 5.48826C37.0246 5.48826 37.0147 5.48826 37.0048 5.48826C36.7767 5.43868 36.5536 5.3891 36.3355 5.33953C36.2463 5.32465 36.2016 5.25029 36.2165 5.17592C36.2314 5.08668 36.3058 5.04206 36.395 5.05693C36.6131 5.09659 36.8412 5.14122 37.0792 5.19079ZM35.8149 6.81199C35.7406 6.79711 35.6811 6.72275 35.696 6.63351C35.7108 6.55914 35.7852 6.49965 35.8744 6.51452C36.0926 6.55418 36.3107 6.5988 36.5289 6.64838C36.6181 6.66325 36.6627 6.73762 36.6478 6.82686C36.633 6.90123 36.5735 6.94585 36.4991 6.94585C36.4892 6.94585 36.4793 6.94585 36.4694 6.94585C36.2512 6.89627 36.0331 6.85165 35.8149 6.81199ZM35.6365 4.92307C35.7108 4.93795 35.7703 5.01231 35.7554 5.08668C35.7554 5.16105 35.6811 5.22054 35.6067 5.22054C35.6067 5.22054 35.6018 5.22054 35.5918 5.22054C35.4431 5.19079 35.2894 5.166 35.1308 5.14617C35.1803 5.05693 35.225 4.96274 35.2646 4.86358C35.3935 4.88341 35.5175 4.90324 35.6365 4.92307ZM34.6399 6.63351C34.6598 6.53435 34.6846 6.43519 34.7143 6.33604C34.8531 6.35587 34.9969 6.3757 35.1456 6.39553C35.22 6.41041 35.2795 6.48477 35.2646 6.55914C35.2498 6.63351 35.1903 6.693 35.1159 6.693C35.106 6.693 35.101 6.693 35.101 6.693C34.9424 6.67317 34.7887 6.65334 34.6399 6.63351Z" fill="#EDDC92"/>
<path d="M42.4932 1.3534C42.8352 1.39802 43.222 1.47239 43.6235 1.5765C44.0102 1.68061 44.4267 1.81447 44.8432 2.00783C44.9473 2.05245 45.0514 2.09707 45.1406 2.14169L45.2299 2.17143L45.2596 2.20118L45.3042 2.21605L45.453 2.29042C45.562 2.34991 45.6661 2.40445 45.7653 2.45403C45.8694 2.51352 45.9586 2.58789 46.0628 2.64738C46.1619 2.70687 46.266 2.76637 46.3751 2.82586C46.4643 2.90023 46.5685 2.97459 46.6577 3.04896C46.7618 3.10845 46.851 3.18282 46.9552 3.25719L47.2229 3.48029C47.5947 3.79263 47.9219 4.14959 48.2343 4.49167C48.3979 4.67015 48.5317 4.86351 48.6805 5.04199C48.7995 5.23534 48.9333 5.42869 49.0523 5.62205C49.1118 5.71129 49.1713 5.80548 49.2308 5.90464C49.2903 5.99388 49.3498 6.09799 49.3944 6.18723C49.4341 6.28639 49.4787 6.38059 49.5283 6.46983C49.5778 6.56898 49.6224 6.66318 49.6621 6.75242C49.7018 6.85158 49.7414 6.94577 49.7811 7.03501C49.8257 7.12425 49.8555 7.21349 49.8852 7.31761C49.9447 7.49609 50.0191 7.67457 50.0637 7.83817C50.1133 8.01665 50.1579 8.18522 50.1976 8.34387C50.2273 8.4926 50.257 8.64133 50.2868 8.79007C50.3165 8.92888 50.3364 9.06275 50.3463 9.19165C50.3661 9.31063 50.381 9.42466 50.3909 9.53373C50.4058 9.74196 50.4058 9.89069 50.4207 10.0097C50.4207 10.1188 50.4207 10.1733 50.4207 10.1733C50.4207 10.1733 50.376 9.95019 50.3017 9.54861C50.2719 9.44945 50.2422 9.33542 50.2124 9.20652C50.2025 9.14703 50.1876 9.08753 50.1678 9.02804C50.1529 8.96855 50.1232 8.89418 50.1083 8.83469C50.0637 8.70083 50.0191 8.55209 49.9745 8.40336C49.9249 8.25463 49.8703 8.09598 49.8108 7.92741C49.677 7.61507 49.5283 7.25811 49.3498 6.91603C49.3002 6.82679 49.2506 6.73755 49.201 6.64831C49.1515 6.55907 49.1019 6.46983 49.0523 6.38059C48.9482 6.20211 48.8292 6.02363 48.7102 5.84515C48.5912 5.66667 48.4574 5.48819 48.3235 5.30971C48.2541 5.23038 48.1847 5.1461 48.1153 5.05686C48.0409 4.96762 47.9666 4.87838 47.8922 4.80401C47.5947 4.46193 47.2675 4.13471 46.9105 3.85212L46.6577 3.62902C46.5685 3.55465 46.4792 3.48029 46.3751 3.42079C46.2859 3.34643 46.1966 3.28693 46.1074 3.21257C46.0082 3.15307 45.914 3.09358 45.8248 3.03409C45.6314 2.90023 45.4381 2.79611 45.2447 2.692L45.1109 2.60276L45.0663 2.58789L45.0365 2.57301L44.9621 2.52839C44.858 2.48377 44.7539 2.42428 44.6647 2.37966C44.278 2.20118 43.8913 2.03757 43.5194 1.91859C43.1327 1.78473 42.7758 1.69549 42.4337 1.62112C42.0916 1.54675 41.7792 1.48726 41.4967 1.45751C41.2289 1.41289 40.9761 1.39802 40.7679 1.38315C40.5596 1.36827 40.4109 1.3534 40.2919 1.3534C40.1828 1.3534 40.1283 1.3534 40.1283 1.3534C40.1283 1.3534 40.1828 1.34844 40.2919 1.33853C40.401 1.3187 40.5596 1.29886 40.7679 1.27903C40.9761 1.27903 41.2289 1.26416 41.5115 1.26416C41.809 1.27903 42.1362 1.29391 42.4932 1.3534Z" fill="#EDDC92"/>
<path d="M23.2618 2.33518C22.3397 2.67727 21.2539 3.01935 20.064 3.36144C18.8742 3.67378 17.5802 3.9415 16.2862 4.1646C14.9774 4.34308 13.6685 4.46207 12.4489 4.53643C11.2144 4.56618 10.0692 4.56618 9.08751 4.52156C8.10588 4.4472 7.28784 4.35795 6.72265 4.28359C6.15746 4.19435 5.83025 4.14973 5.83025 4.14973C5.83025 4.14973 6.15746 4.11998 6.72265 4.07536C7.28784 4.04562 8.10588 4.001 9.07265 3.89688C10.0394 3.85226 11.1698 3.73327 12.3745 3.58454C13.5793 3.46555 14.8584 3.30195 16.1226 3.07885C17.4017 2.91524 18.6659 2.69214 19.8558 2.4393C21.0308 2.2162 22.1463 1.9931 23.0833 1.74025C24.0352 1.5469 24.8235 1.35354 25.3738 1.20481C25.939 1.07095 26.2513 0.996582 26.2513 0.996582C26.2513 0.996582 25.9687 1.14532 25.4482 1.39816C24.9276 1.63614 24.1839 1.97822 23.2618 2.33518Z" fill="#EDDC92"/>
<path d="M5.01221 11.1104C5.81537 11.2591 6.75239 11.4525 7.76377 11.6607C8.74541 11.8987 9.80143 12.1664 10.8574 12.449C11.8986 12.7762 12.9397 13.1183 13.9065 13.4455C14.8584 13.8173 15.7508 14.1594 16.5093 14.4718C17.253 14.8139 17.8628 15.0965 18.309 15.2898C18.7254 15.5129 18.9783 15.6319 18.9783 15.6319C18.9783 15.6319 18.7105 15.5724 18.2495 15.4534C17.7884 15.3344 17.134 15.1559 16.3457 14.9328C15.5574 14.7097 14.6501 14.442 13.6685 14.1743C12.7017 13.8768 11.6606 13.5794 10.6195 13.2968C9.57832 12.9844 8.53719 12.6721 7.57042 12.3895C6.58878 12.092 5.68151 11.8243 4.9081 11.6012C4.11981 11.3484 3.48026 11.155 3.01919 11.0063C2.57299 10.8576 2.30527 10.7683 2.30527 10.7683C2.30527 10.7683 2.58786 10.7981 3.0638 10.8427C3.52488 10.9022 4.20905 11.0063 5.01221 11.1104Z" fill="#EDDC92"/>
</svg>
