<svg width="10" height="10" viewBox="0 0 10 10" fill="none" xmlns="http://www.w3.org/2000/svg">
<path d="M3.00003 4.8L2.94524 4.98264C2.59044 6.16528 2.60958 7.42864 3.00003 8.6M4.84196 2.51285L4.93364 1.56533C4.97052 1.18448 5.32584 0.926141 5.68512 1.01897C6.22572 1.15865 6.605 1.66065 6.605 2.23657V3.4505C6.605 3.7205 6.605 3.8555 6.6636 3.95476C6.69676 4.01092 6.74244 4.05809 6.79676 4.09237C6.8928 4.15296 7.02344 4.15296 7.28468 4.15296H7.4432C8.12432 4.15296 8.46488 4.15296 8.67456 4.30916C8.83144 4.42596 8.94208 4.59748 8.98608 4.79204C9.04496 5.05216 8.91396 5.37704 8.652 6.02684L8.5214 6.35076C8.44596 6.53788 8.41508 6.74092 8.43136 6.94292C8.52404 8.09224 7.61228 9.06096 6.49804 8.997L2.32827 8.7576C1.87291 8.73144 1.64523 8.71836 1.43942 8.53632C1.23362 8.35424 1.1949 8.16676 1.11746 7.79188C1.05145 7.47228 1 7.08048 1 6.63552C1 6.142 1.06328 5.71388 1.13953 5.3772C1.25263 4.8778 1.72968 4.60928 2.22214 4.67288C3.52755 4.84152 4.71108 3.86572 4.84196 2.51285Z" stroke="white" stroke-linecap="round" stroke-linejoin="round"/>
</svg>
