<svg width="44" height="44" viewBox="0 0 44 44" fill="none" xmlns="http://www.w3.org/2000/svg">
<g clip-path="url(#clip0_241_7607)">
<path d="M22.0013 0.878906C10.3369 0.878906 0.881348 10.3345 0.881348 21.9989C0.881348 33.6633 10.3369 43.1189 22.0013 43.1189C33.6657 43.1189 43.1213 33.6633 43.1213 21.9989C43.1213 10.3345 33.6657 0.878906 22.0013 0.878906ZM16.8313 30.7527H12.5545V16.9895H16.8313V30.7527ZM14.6665 15.2999C13.3157 15.2999 12.4423 14.3429 12.4423 13.1593C12.4423 11.9515 13.3421 11.0231 14.7215 11.0231C16.1009 11.0231 16.9457 11.9515 16.9721 13.1593C16.9721 14.3429 16.1009 15.2999 14.6665 15.2999ZM32.4513 30.7527H28.1745V23.1253C28.1745 21.3499 27.5541 20.1443 26.0075 20.1443C24.8261 20.1443 24.1243 20.9605 23.8141 21.7459C23.6997 22.0253 23.6711 22.4213 23.6711 22.8151V30.7505H19.3921V21.3785C19.3921 19.6603 19.3371 18.2237 19.2799 16.9873H22.9957L23.1915 18.8991H23.2773C23.8405 18.0015 25.2199 16.6771 27.5277 16.6771C30.3415 16.6771 32.4513 18.5625 32.4513 22.6149V30.7527Z" fill="white"/>
</g>
<defs>
<clipPath id="clip0_241_7607">
<rect width="44" height="44" fill="white" transform="translate(0.000488281)"/>
</clipPath>
</defs>
</svg>
