<svg width="32" height="32" viewBox="0 0 32 32" fill="none" xmlns="http://www.w3.org/2000/svg">
<g clip-path="url(#clip0_292_6907)">
<path d="M31.9863 16.2989C31.9863 14.9879 31.8774 14.0312 31.6418 13.0391H16.3203V18.9564H25.3137C25.1324 20.4269 24.1533 22.6415 21.9774 24.1296L21.9469 24.3277L26.7913 27.9947L27.1269 28.0274C30.2093 25.2458 31.9863 21.1533 31.9863 16.2989Z" fill="#4285F4"/>
<path d="M16.3203 31.8891C20.7263 31.8891 24.4252 30.4717 27.1269 28.0269L21.9774 24.1291C20.5994 25.0681 18.7499 25.7236 16.3203 25.7236C12.0049 25.7236 8.34231 22.9422 7.03669 19.0977L6.84531 19.1135L1.80806 22.9226L1.74219 23.1016C4.42569 28.3102 9.93781 31.8891 16.3203 31.8891Z" fill="#34A853"/>
<path d="M7.03512 19.0997C6.69062 18.1076 6.49125 17.0445 6.49125 15.9461C6.49125 14.8476 6.69063 13.7846 7.017 12.7925L7.00787 12.5812L1.9075 8.71094L1.74063 8.7885C0.634625 10.95 0 13.3772 0 15.9461C0 18.515 0.634625 20.9421 1.74063 23.1036L7.03512 19.0997Z" fill="#FBBC05"/>
<path d="M16.3203 6.16537C19.3846 6.16537 21.4516 7.45869 22.6302 8.53948L27.2357 4.14571C24.4072 1.57679 20.7263 0 16.3203 0C9.93781 0 4.42569 3.57875 1.74219 8.78742L7.01856 12.7915C8.34231 8.94693 12.0049 6.16537 16.3203 6.16537Z" fill="#EB4335"/>
</g>
<defs>
<clipPath id="clip0_292_6907">
<rect width="32" height="32" fill="white"/>
</clipPath>
</defs>
</svg>
