<svg width="28" height="22" viewBox="0 0 28 22" fill="none" xmlns="http://www.w3.org/2000/svg">
<path d="M24.5 0H3.5C2.57205 0.000992641 1.68238 0.37006 1.02622 1.02622C0.37006 1.68238 0.000992641 2.57205 0 3.5V18.5C0.000992641 19.428 0.37006 20.3176 1.02622 20.9738C1.68238 21.6299 2.57205 21.999 3.5 22H24.5C25.428 21.999 26.3176 21.6299 26.9738 20.9738C27.6299 20.3176 27.999 19.428 28 18.5V3.5C27.999 2.57205 27.6299 1.68238 26.9738 1.02622C26.3176 0.37006 25.428 0.000992641 24.5 0ZM23.6138 5.78938L14.6138 12.7894C14.4382 12.9258 14.2223 12.9999 14 12.9999C13.7777 12.9999 13.5618 12.9258 13.3862 12.7894L4.38625 5.78938C4.28051 5.70952 4.19169 5.60945 4.12496 5.49497C4.05823 5.3805 4.01491 5.2539 3.99753 5.12254C3.98015 4.99118 3.98905 4.85767 4.02371 4.72978C4.05837 4.60189 4.1181 4.48216 4.19944 4.37755C4.28077 4.27294 4.38208 4.18554 4.49749 4.12043C4.61289 4.05532 4.74008 4.01379 4.87168 3.99825C5.00327 3.98272 5.13664 3.9935 5.26403 4.02996C5.39142 4.06642 5.5103 4.12783 5.61375 4.21062L14 10.7331L22.3862 4.21062C22.596 4.05226 22.8596 3.98281 23.1201 4.01728C23.3806 4.05175 23.617 4.18738 23.7783 4.39483C23.9396 4.60228 24.0128 4.86488 23.982 5.12585C23.9512 5.38682 23.8189 5.62518 23.6138 5.78938Z" fill="white"/>
</svg>
