<svg width="35" height="35" viewBox="0 0 35 35" fill="none" xmlns="http://www.w3.org/2000/svg">
<path d="M7.99609 22.9144V24.0172C7.99609 24.3714 8.29003 24.619 8.64521 24.6647L10.2218 24.8621C10.3942 25.5092 10.6529 26.1214 10.9773 26.683L10.0037 27.9421C9.78563 28.2201 9.75517 28.6045 10.0037 28.8524L10.3029 29.1509L11.256 30.1069L11.5551 30.4002C11.8085 30.653 12.189 30.6176 12.4725 30.4002L13.7299 29.4289C14.2977 29.7527 14.906 30.0106 15.5551 30.1827L15.758 31.761C15.8037 32.11 16.0467 32.4033 16.4019 32.4033H18.5972C18.9521 32.4033 19.2006 32.11 19.2463 31.761L19.444 30.1827C20.0928 30.0106 20.7063 29.7527 21.2692 29.4289L22.5318 30.4002C22.8105 30.6176 23.1958 30.653 23.4444 30.4002L23.7435 30.1069L24.7018 29.1509L24.9957 28.8524C25.2492 28.6045 25.2138 28.2201 24.9957 27.9421L24.0222 26.6827C24.3469 26.1214 24.6052 25.5092 24.7776 24.8617L26.3594 24.6644C26.7091 24.619 27.0034 24.3711 27.0034 24.0169V22.9141H23.0792C23.0792 22.9176 23.0792 22.9212 23.0792 22.9248C23.0792 25.9947 20.5796 28.4885 17.5022 28.4885C14.4196 28.4885 11.9203 25.995 11.9203 22.9248C11.9203 22.9212 11.9203 22.9176 11.9203 22.9141H7.99609V22.9144Z" fill="#800000"/>
<path d="M14.6406 22.9141C14.6406 22.9176 14.6406 22.9212 14.6406 22.9248C14.6406 23.7087 14.9602 24.422 15.4771 24.9379C15.9943 25.459 16.7092 25.7776 17.4999 25.7776C18.2858 25.7776 19.0007 25.459 19.5176 24.9379C20.0397 24.422 20.3592 23.709 20.3592 22.9248C20.3592 22.9212 20.3592 22.9176 20.3592 22.9141H19.0004C19.0004 22.9176 19.0004 22.9212 19.0004 22.9244C19.0004 23.3389 18.8332 23.7136 18.5642 23.9864C18.2903 24.2544 17.9154 24.4213 17.4996 24.4213C17.0841 24.4213 16.7037 24.2544 16.435 23.9864C16.1612 23.7132 15.994 23.3392 15.994 22.9244C15.994 22.9209 15.994 22.9173 15.994 22.9141H14.6406Z" fill="#800000"/>
<path d="M17.5977 2.57324C17.877 2.57324 18.1049 2.79134 18.1049 3.05903V3.09371C18.988 3.21199 19.7884 3.60153 20.3954 4.17093C21.1103 4.84241 21.5572 5.76343 21.5572 6.7875L21.5235 8.05204L21.7851 9.86556C21.7954 9.92421 21.7896 9.98449 21.7682 10.0406C21.7468 10.0963 21.7108 10.1456 21.6632 10.1838L21.6956 10.2204L21.7559 10.2888L21.4921 10.6232L21.4869 10.6349L21.4853 10.6385C21.4046 10.8355 21.2964 11.0147 21.1716 11.1469C21.0666 11.2542 20.9489 11.3313 20.8209 11.3615C20.796 11.4373 20.7688 11.5157 20.749 11.5929C20.6064 12.0527 20.4946 12.415 20.1977 12.7751C20.1329 12.8538 20.0639 12.9294 19.9913 13.0006C19.9414 13.0506 19.8899 13.0992 19.8354 13.1455C19.8442 13.233 19.8429 13.9978 19.8413 14.2169L19.7538 14.2367C19.5626 14.8848 18.9896 15.3051 18.3149 15.5035C17.9305 15.6159 17.5125 15.6571 17.1142 15.6276C16.713 15.5981 16.3286 15.496 16.0162 15.3243C15.5774 15.0825 15.277 14.704 15.2556 14.1926V14.1573L15.16 14.1323V13.1497L15.1623 13.047C14.8891 12.8098 14.6655 12.4951 14.5148 12.1756C14.4098 11.9529 14.3268 11.7112 14.2296 11.4386L14.1797 11.2967C14.0701 11.2827 13.9681 11.2341 13.8764 11.1628C13.761 11.0724 13.6618 10.9402 13.5808 10.7872C13.5264 10.6851 13.4191 10.5315 13.3802 10.212C13.2632 10.1436 13.1935 10.0137 13.2133 9.8756L13.4764 8.06046L13.4029 6.94954C13.3977 6.86884 13.3948 6.79528 13.3948 6.72917C13.3948 5.73945 13.8394 4.85083 14.5426 4.19491C15.2099 3.57171 16.1138 3.15884 17.0902 3.07199V3.05871C17.0915 2.79134 17.3193 2.57324 17.5977 2.57324Z" fill="black"/>
<path d="M17.9665 15.3213C18.558 15.1949 19.0953 14.8789 19.3568 14.3931C19.4414 14.2035 19.653 14.0865 19.8734 14.1235C20.2218 14.1821 20.434 14.2152 20.6479 14.2476C23.1926 14.6407 25.6072 15.0134 26.2745 18.1106L26.9946 21.8397C27.0056 21.8779 27.0115 21.9184 27.0115 21.9596C27.0115 22.2101 26.7992 22.413 26.5383 22.413H8.46048C8.43553 22.4114 8.41057 22.4101 8.38465 22.4065C8.12733 22.367 7.95266 22.1346 7.99446 21.8877L8.53145 18.7454C9.29141 15.0442 11.3055 14.6615 14.2241 14.1066C14.5314 14.0486 14.8473 13.9884 15.0933 13.9391C15.3454 13.8892 15.5937 14.0428 15.6494 14.2846C15.7486 14.7101 16.0338 15.0069 16.4042 15.1819C16.6262 15.2869 16.878 15.3511 17.1398 15.3744C17.4127 15.3971 17.6946 15.3793 17.9665 15.3213Z" fill="black"/>
<path d="M19.4769 13.2253C18.1543 14.2115 16.8464 14.1175 15.5507 13.2341L15.5449 14.2167C15.6816 15.7398 19.0889 15.826 19.4769 14.2614V13.2253ZM21.3542 10.3288C21.3212 10.2912 21.2881 10.2539 21.2551 10.217L21.2324 10.203C20.3425 9.60283 18.922 9.30371 17.4951 9.30371C16.1094 9.30371 14.736 9.58598 13.8564 10.1466L13.9793 10.6684L14.385 11.0754L14.6362 11.3347C15.3417 14.1629 19.658 14.3401 20.4125 11.3347L20.8564 10.9649L21.3542 10.3288Z" fill="#F6F2E0"/>
<path d="M21.4333 9.92236L21.1967 8.28222C21.1701 8.2806 21.1439 8.27476 21.1189 8.26472C19.8265 7.72448 18.5801 7.50347 17.3736 7.52842C16.1664 7.55402 14.9949 7.82754 13.8545 8.27638C13.837 8.28384 13.8185 8.28805 13.8001 8.29032L13.5635 9.92236C15.435 8.64388 19.5277 8.63643 21.4333 9.92236ZM21.1737 7.82689L21.1993 6.87379C21.2521 4.94328 19.5504 3.39453 17.5347 3.39453H17.4773C15.4301 3.39453 13.6247 4.97148 13.7557 6.92888L13.8159 7.83499C14.9638 7.39717 16.1444 7.13175 17.3652 7.10615C18.5947 7.07958 19.8628 7.29703 21.1737 7.82689Z" fill="#800000"/>
<path d="M18.0433 5.07895H17.8671C17.8567 5.02839 17.8385 4.98432 17.8126 4.94607C17.787 4.90783 17.7559 4.87543 17.7186 4.84982C17.682 4.82325 17.6415 4.80348 17.5974 4.7902C17.5527 4.77691 17.5064 4.77043 17.4577 4.77043C17.3696 4.77043 17.2902 4.79246 17.2183 4.83719C17.147 4.88126 17.0902 4.94672 17.0484 5.03325C17.0066 5.1201 16.9859 5.22575 16.9859 5.35149C16.9859 5.47723 17.0063 5.58288 17.0484 5.66973C17.0902 5.75658 17.147 5.82172 17.2183 5.8658C17.2895 5.90987 17.3696 5.93256 17.4577 5.93256C17.5064 5.93256 17.5524 5.92607 17.5974 5.91279C17.6421 5.8995 17.6827 5.87973 17.7186 5.85413C17.7552 5.82756 17.787 5.79547 17.8126 5.75723C17.8382 5.71834 17.8567 5.67427 17.8671 5.62436H18.0433C18.0301 5.69858 18.0058 5.76469 17.9708 5.82334C17.9354 5.882 17.892 5.93223 17.8398 5.97242C17.7877 6.01293 17.7296 6.04371 17.6642 6.0651C17.5994 6.08649 17.5313 6.09654 17.4577 6.09654C17.3336 6.09654 17.2234 6.0664 17.1262 6.00612C17.0293 5.94584 16.9535 5.85996 16.8984 5.74816C16.8433 5.63635 16.8154 5.50413 16.8154 5.35149C16.8154 5.19853 16.8433 5.06631 16.8984 4.95482C16.9535 4.84302 17.03 4.75714 17.1262 4.69686C17.2225 4.63658 17.3333 4.60645 17.4577 4.60645C17.5313 4.60645 17.6003 4.61682 17.6642 4.63788C17.729 4.65927 17.7877 4.69006 17.8398 4.73121C17.892 4.77172 17.9354 4.82163 17.9708 4.88029C18.0067 4.93765 18.0301 5.00473 18.0433 5.07895Z" fill="white"/>
<path d="M19.7902 14.5708C19.4568 15.2189 18.7606 15.6282 18.0075 15.775V17.8796H16.9876L16.987 15.8117C16.1369 15.7044 15.3874 15.2406 15.1881 14.3818C11.982 15.03 9.76435 15.0786 8.99435 18.8327L8.8106 19.9018H12.7199V17.9995C12.7199 17.8835 12.8184 17.7885 12.9403 17.7885C13.0621 17.7885 13.1606 17.8831 13.1606 17.9995V21.96H21.8115V17.9995C21.8115 17.8835 21.91 17.7885 22.0319 17.7885C22.1537 17.7885 22.2516 17.8831 22.2516 17.9995V19.9018H26.1388L25.8154 18.2257C25.1566 15.1065 22.445 15.016 19.7902 14.5708ZM8.63657 20.9158L8.45801 21.96H12.7199V20.9158H8.63657ZM22.2519 21.96H26.5358L26.3346 20.9158H22.2519V21.96Z" fill="#6ECAD9"/>
<path d="M15.3003 19.7975H15.1292C15.1189 19.7499 15.1014 19.7087 15.0764 19.6727C15.0514 19.6368 15.0213 19.6066 14.9853 19.5823C14.95 19.5574 14.9105 19.5389 14.867 19.5266C14.8236 19.5139 14.7789 19.5081 14.7319 19.5081C14.646 19.5081 14.5689 19.5285 14.4989 19.5707C14.4299 19.6125 14.3748 19.6734 14.3336 19.7544C14.2931 19.8351 14.2727 19.9352 14.2727 20.0529C14.2727 20.1705 14.2931 20.2703 14.3336 20.3513C14.3748 20.432 14.4299 20.4939 14.4989 20.5351C14.5686 20.5769 14.6457 20.5976 14.7319 20.5976C14.7789 20.5976 14.8236 20.5918 14.867 20.5792C14.9105 20.5665 14.95 20.5484 14.9853 20.5241C15.0213 20.4991 15.0514 20.469 15.0764 20.433C15.102 20.397 15.1198 20.3552 15.1292 20.3082H15.3003C15.287 20.3779 15.2637 20.4398 15.2297 20.4949C15.1957 20.55 15.1532 20.5963 15.1026 20.6352C15.0521 20.6735 14.9954 20.702 14.9322 20.7227C14.8696 20.7425 14.8022 20.7529 14.7309 20.7529C14.6104 20.7529 14.5031 20.7244 14.4091 20.6676C14.3151 20.6109 14.2409 20.5302 14.1871 20.4259C14.1333 20.3215 14.1064 20.1974 14.1064 20.0542C14.1064 19.9109 14.1337 19.7868 14.1871 19.6825C14.2409 19.5781 14.3151 19.4974 14.4091 19.4407C14.5031 19.384 14.6104 19.3555 14.7309 19.3555C14.8022 19.3555 14.869 19.3658 14.9322 19.3856C14.9954 19.4054 15.0521 19.4349 15.1026 19.4731C15.1532 19.5113 15.196 19.5577 15.2297 19.6128C15.2644 19.6653 15.288 19.7278 15.3003 19.7975Z" fill="black"/>
<path d="M16.7714 20.0532C16.7714 20.1964 16.7442 20.3206 16.6907 20.4249C16.637 20.5293 16.5627 20.61 16.4688 20.6667C16.3748 20.7234 16.2675 20.7519 16.147 20.7519C16.0264 20.7519 15.9191 20.7234 15.8251 20.6667C15.7312 20.61 15.657 20.5293 15.6032 20.4249C15.5494 20.3206 15.5225 20.1964 15.5225 20.0532C15.5225 19.91 15.5497 19.7858 15.6032 19.6815C15.657 19.5771 15.7312 19.4964 15.8251 19.4397C15.9191 19.383 16.0264 19.3545 16.147 19.3545C16.2675 19.3545 16.3748 19.383 16.4688 19.4397C16.5627 19.4964 16.637 19.5771 16.6907 19.6815C16.7452 19.7852 16.7714 19.9093 16.7714 20.0532ZM16.6062 20.0532C16.6062 19.9356 16.5857 19.8357 16.5446 19.7547C16.5041 19.674 16.449 19.6121 16.3793 19.571C16.3103 19.5292 16.2332 19.5084 16.1473 19.5084C16.0614 19.5084 15.9843 19.5288 15.9143 19.571C15.8452 19.6128 15.7901 19.6737 15.749 19.7547C15.7085 19.8354 15.6881 19.9356 15.6881 20.0532C15.6881 20.1708 15.7085 20.2706 15.749 20.3517C15.7901 20.4324 15.8452 20.4943 15.9143 20.5354C15.9839 20.5772 16.0611 20.598 16.1473 20.598C16.2332 20.598 16.3103 20.5775 16.3793 20.5354C16.449 20.4936 16.5041 20.4327 16.5446 20.3517C16.5857 20.27 16.6062 20.1708 16.6062 20.0532Z" fill="black"/>
<path d="M17.0523 20.7329H16.8721L17.3916 19.3721H17.5685L18.088 20.7329H17.9078L17.4846 19.5873H17.4736L17.0523 20.7329ZM17.1184 20.2007H17.843V20.3469H17.1184V20.2007Z" fill="black"/>
<path d="M19.3814 19.7975H19.2103C19.1999 19.7499 19.1824 19.7087 19.1565 19.6727C19.1315 19.6368 19.1014 19.6066 19.0654 19.5823C19.0301 19.5574 18.9906 19.5389 18.9471 19.5266C18.9037 19.5139 18.859 19.5081 18.812 19.5081C18.7261 19.5081 18.649 19.5285 18.579 19.5707C18.51 19.6125 18.4549 19.6734 18.4137 19.7544C18.3732 19.8351 18.3528 19.9352 18.3528 20.0529C18.3528 20.1705 18.3725 20.2703 18.4137 20.3513C18.4549 20.432 18.51 20.4939 18.579 20.5351C18.6487 20.5769 18.7258 20.5976 18.812 20.5976C18.859 20.5976 18.9037 20.5918 18.9471 20.5792C18.9906 20.5665 19.0301 20.5484 19.0654 20.5241C19.1014 20.4991 19.1315 20.469 19.1565 20.433C19.1821 20.397 19.1999 20.3552 19.2103 20.3082H19.3814C19.3681 20.3779 19.3448 20.4398 19.3107 20.4949C19.277 20.55 19.2343 20.5963 19.1837 20.6352C19.1331 20.6735 19.0764 20.702 19.0132 20.7227C18.9507 20.7425 18.8839 20.7529 18.812 20.7529C18.6914 20.7529 18.5842 20.7244 18.4902 20.6676C18.3962 20.6109 18.322 20.5302 18.2682 20.4259C18.2144 20.3215 18.1875 20.1974 18.1875 20.0542C18.1875 19.9109 18.2147 19.7868 18.2682 19.6825C18.322 19.5781 18.3962 19.4974 18.4902 19.4407C18.5842 19.384 18.6914 19.3555 18.812 19.3555C18.8833 19.3555 18.95 19.3658 19.0132 19.3856C19.0764 19.4054 19.1331 19.4349 19.1837 19.4731C19.2343 19.5113 19.277 19.5577 19.3107 19.6128C19.3454 19.6653 19.3691 19.7278 19.3814 19.7975Z" fill="black"/>
<path d="M19.6582 20.7329V19.3721H19.8293V19.9784H20.5847V19.3721H20.7558V20.7329H20.5847V20.1236H19.83V20.7329H19.6582Z" fill="black"/>
</svg>
