<?xml version="1.0" encoding="utf-8"?>
<!-- Generator: Adobe Illustrator 24.0.1, SVG Export Plug-In . SVG Version: 6.00 Build 0)  -->
<svg version="1.1" id="Layer_1" xmlns="http://www.w3.org/2000/svg" xmlns:xlink="http://www.w3.org/1999/xlink" x="0px" y="0px"
	 viewBox="0 0 1080 1080" style="enable-background:new 0 0 1080 1080;" xml:space="preserve">
<style type="text/css">
	.st0{fill:#800000;}
	.st1{fill:#F6F2E0;}
	.st2{fill:#FFFFFF;}
	.st3{fill:#6ECAD9;}
</style>
<path class="st0" d="M246.75,707.06v34.03c0,10.93,9.07,18.57,20.03,19.98l48.65,6.09c5.32,19.97,13.3,38.86,23.31,56.19
	L308.7,862.2c-6.73,8.58-7.67,20.44,0,28.09l9.23,9.21l29.41,29.5l9.23,9.05c7.82,7.8,19.56,6.71,28.31,0l38.8-29.97
	c17.52,9.99,36.29,17.95,56.32,23.26l6.26,48.7c1.41,10.77,8.91,19.82,19.87,19.82h67.74c10.95,0,18.62-9.05,20.03-19.82l6.1-48.7
	c20.02-5.31,38.95-13.27,56.32-23.26l38.96,29.97c8.6,6.71,20.49,7.8,28.16,0l9.23-9.05l29.57-29.5l9.07-9.21
	c7.82-7.65,6.73-19.51,0-28.09l-30.04-38.86c10.02-17.32,17.99-36.21,23.31-56.19l48.81-6.09c10.79-1.4,19.87-9.05,19.87-19.98
	v-34.03H712.17c0,0.11,0,0.22,0,0.33c0,94.73-77.13,171.68-172.09,171.68c-95.12,0-172.24-76.94-172.24-171.68c0-0.11,0-0.22,0-0.33
	H246.75z"/>
<path class="st0" d="M451.77,707.06c0,0.11,0,0.22,0,0.33c0,24.19,9.86,46.2,25.81,62.12c15.96,16.08,38.02,25.91,62.42,25.91
	c24.25,0,46.31-9.83,62.26-25.91c16.11-15.92,25.97-37.92,25.97-62.12c0-0.11,0-0.22,0-0.33h-41.93c0,0.11,0,0.22,0,0.32
	c0,12.79-5.16,24.35-13.46,32.77c-8.45,8.27-20.02,13.42-32.85,13.42c-12.82,0-24.56-5.15-32.85-13.42
	c-8.45-8.43-13.61-19.97-13.61-32.77c0-0.11,0-0.22,0-0.32H451.77z"/>
<g>
	<path d="M543.02,79.4c8.62,0,15.65,6.73,15.65,14.99v1.07c27.25,3.65,51.95,15.67,70.68,33.24c22.06,20.72,35.85,49.14,35.85,80.74
		l-1.04,39.02l8.07,55.96c0.32,1.81,0.14,3.67-0.52,5.4c-0.66,1.72-1.77,3.24-3.24,4.42l1,1.13l1.86,2.11l-8.14,10.32l-0.16,0.36
		l-0.05,0.11c-2.49,6.08-5.83,11.61-9.68,15.69c-3.24,3.31-6.87,5.69-10.82,6.62c-0.77,2.34-1.61,4.76-2.22,7.14
		c-4.4,14.19-7.85,25.37-17.01,36.48c-2,2.43-4.13,4.76-6.37,6.96c-1.54,1.54-3.13,3.04-4.81,4.47c0.27,2.7,0.23,26.3,0.18,33.06
		l-2.7,0.61c-5.9,20-23.58,32.97-44.4,39.09c-11.86,3.47-24.76,4.74-37.05,3.83c-12.38-0.91-24.24-4.06-33.88-9.36
		c-13.54-7.46-22.81-19.14-23.47-34.92v-1.09l-2.95-0.77v-30.32l0.07-3.17c-8.43-7.32-15.33-17.03-19.98-26.89
		c-3.24-6.87-5.8-14.33-8.8-22.74l-1.54-4.38c-3.38-0.43-6.53-1.93-9.36-4.13c-3.56-2.79-6.62-6.87-9.12-11.59
		c-1.68-3.15-4.99-7.89-6.19-17.75c-3.61-2.11-5.76-6.12-5.15-10.38l8.12-56.01l-2.27-34.28c-0.16-2.49-0.25-4.76-0.25-6.8
		c0-30.54,13.72-57.96,35.42-78.2c20.59-19.23,48.48-31.97,78.61-34.65v-0.41C527.4,86.13,534.43,79.4,543.02,79.4z"/>
	<path d="M554.4,472.77c18.25-3.9,34.83-13.65,42.9-28.64c2.61-5.85,9.14-9.46,15.94-8.32c10.75,1.81,17.3,2.83,23.9,3.83
		c78.52,12.13,153.03,23.63,173.62,119.2l22.22,115.07c0.34,1.18,0.52,2.43,0.52,3.7c0,7.73-6.55,13.99-14.6,13.99H261.07
		c-0.77-0.05-1.54-0.09-2.34-0.2c-7.94-1.22-13.33-8.39-12.04-16.01l16.57-96.96c23.45-114.21,85.6-126.02,175.66-143.14
		c9.48-1.79,19.23-3.65,26.82-5.17c7.78-1.54,15.44,3.2,17.16,10.66c3.06,13.13,11.86,22.29,23.29,27.69
		c6.85,3.24,14.62,5.22,22.7,5.94C537.31,475.11,546.01,474.56,554.4,472.77z"/>
	<path class="st1" d="M601,408.08c-40.81,30.43-81.17,27.53-121.15,0.27l-0.18,30.32c4.22,47,109.36,49.66,121.33,1.38V408.08z
		 M658.93,318.7c-1.02-1.16-2.04-2.31-3.06-3.45l-0.7-0.43c-27.46-18.52-71.29-27.75-115.32-27.75c-42.76,0-85.14,8.71-112.28,26.01
		l3.79,16.1l12.52,12.56l7.75,8c21.77,87.27,154.96,92.74,178.24,0l13.7-11.41L658.93,318.7z"/>
	<path class="st0" d="M661.36,306.16l-7.3-50.61c-0.82-0.05-1.63-0.23-2.4-0.54c-39.88-16.67-78.34-23.49-115.57-22.72
		c-37.25,0.79-73.4,9.23-108.59,23.08c-0.54,0.23-1.11,0.36-1.68,0.43l-7.3,50.36C476.27,266.71,602.56,266.48,661.36,306.16z
		 M653.35,241.5l0.79-29.41c1.63-59.57-50.88-107.36-113.08-107.36h-1.77c-63.17,0-118.88,48.66-114.84,109.06l1.86,27.96
		c35.42-13.51,71.85-21.7,109.52-22.49C573.77,218.44,612.9,225.15,653.35,241.5z"/>
	<path class="st2" d="M556.76,156.72h-5.44c-0.32-1.56-0.88-2.92-1.68-4.1c-0.79-1.18-1.75-2.18-2.9-2.97
		c-1.13-0.82-2.38-1.43-3.74-1.84c-1.38-0.41-2.81-0.61-4.31-0.61c-2.72,0-5.17,0.68-7.39,2.06c-2.2,1.36-3.95,3.38-5.24,6.05
		c-1.29,2.68-1.93,5.94-1.93,9.82s0.63,7.14,1.93,9.82c1.29,2.68,3.04,4.69,5.24,6.05c2.2,1.36,4.67,2.06,7.39,2.06
		c1.5,0,2.92-0.2,4.31-0.61c1.38-0.41,2.63-1.02,3.74-1.81c1.13-0.82,2.11-1.81,2.9-2.99c0.79-1.2,1.36-2.56,1.68-4.1h5.44
		c-0.41,2.29-1.16,4.33-2.24,6.14c-1.09,1.81-2.43,3.36-4.04,4.6c-1.61,1.25-3.4,2.2-5.42,2.86c-2,0.66-4.1,0.97-6.37,0.97
		c-3.83,0-7.23-0.93-10.23-2.79c-2.99-1.86-5.33-4.51-7.03-7.96c-1.7-3.45-2.56-7.53-2.56-12.24c0-4.72,0.86-8.8,2.56-12.24
		c1.7-3.45,4.06-6.1,7.03-7.96c2.97-1.86,6.39-2.79,10.23-2.79c2.27,0,4.4,0.32,6.37,0.97c2,0.66,3.81,1.61,5.42,2.88
		c1.61,1.25,2.95,2.79,4.04,4.6C555.63,152.36,556.35,154.43,556.76,156.72z"/>
	<path class="st3" d="M610.68,449.62c-10.29,20-31.77,32.63-55.01,37.16v64.94H524.2l-0.02-63.81
		c-26.23-3.31-49.36-17.62-55.51-44.12c-98.93,20-167.36,21.5-191.12,137.34l-5.67,32.99h120.63v-58.7c0-3.58,3.04-6.51,6.8-6.51
		c3.76,0,6.8,2.92,6.8,6.51v122.21h266.94V555.42c0-3.58,3.04-6.51,6.8-6.51c3.76,0,6.78,2.92,6.78,6.51v58.7h119.95l-9.98-51.72
		C776.27,466.15,692.6,463.36,610.68,449.62z M266.51,645.41L261,677.63h131.51v-32.22H266.51z M686.64,677.63h132.19l-6.21-32.22
		H686.64V677.63z"/>
	<path d="M472.14,610.88h-5.28c-0.32-1.47-0.86-2.74-1.63-3.85c-0.77-1.11-1.7-2.04-2.81-2.79c-1.09-0.77-2.31-1.34-3.65-1.72
		c-1.34-0.39-2.72-0.57-4.17-0.57c-2.65,0-5.03,0.63-7.19,1.93c-2.13,1.29-3.83,3.17-5.1,5.67c-1.25,2.49-1.88,5.58-1.88,9.21
		c0,3.63,0.63,6.71,1.88,9.21c1.27,2.49,2.97,4.4,5.1,5.67c2.15,1.29,4.53,1.93,7.19,1.93c1.45,0,2.83-0.18,4.17-0.57
		c1.34-0.39,2.56-0.95,3.65-1.7c1.11-0.77,2.04-1.7,2.81-2.81c0.79-1.11,1.34-2.4,1.63-3.85h5.28c-0.41,2.15-1.13,4.06-2.18,5.76
		s-2.36,3.13-3.92,4.33c-1.56,1.18-3.31,2.06-5.26,2.7c-1.93,0.61-4.01,0.93-6.21,0.93c-3.72,0-7.03-0.88-9.93-2.63
		c-2.9-1.75-5.19-4.24-6.85-7.46c-1.66-3.22-2.49-7.05-2.49-11.47s0.84-8.25,2.49-11.47c1.66-3.22,3.95-5.71,6.85-7.46
		c2.9-1.75,6.21-2.63,9.93-2.63c2.2,0,4.26,0.32,6.21,0.93s3.7,1.52,5.26,2.7c1.56,1.18,2.88,2.61,3.92,4.31
		C471.03,606.8,471.76,608.73,472.14,610.88z"/>
	<path d="M517.53,618.77c0,4.42-0.84,8.25-2.49,11.47c-1.66,3.22-3.95,5.71-6.85,7.46s-6.21,2.63-9.93,2.63
		c-3.72,0-7.03-0.88-9.93-2.63c-2.9-1.75-5.19-4.24-6.85-7.46c-1.66-3.22-2.49-7.05-2.49-11.47s0.84-8.25,2.49-11.47
		c1.66-3.22,3.95-5.71,6.85-7.46c2.9-1.75,6.21-2.63,9.93-2.63c3.72,0,7.03,0.88,9.93,2.63s5.19,4.24,6.85,7.46
		C516.72,610.5,517.53,614.33,517.53,618.77z M512.43,618.77c0-3.63-0.63-6.71-1.9-9.21c-1.25-2.49-2.95-4.4-5.1-5.67
		c-2.13-1.29-4.51-1.93-7.16-1.93c-2.65,0-5.03,0.63-7.19,1.93c-2.13,1.29-3.83,3.17-5.1,5.67c-1.25,2.49-1.88,5.58-1.88,9.21
		c0,3.63,0.63,6.71,1.88,9.21c1.27,2.49,2.97,4.4,5.1,5.67c2.15,1.29,4.53,1.93,7.19,1.93c2.65,0,5.03-0.63,7.16-1.93
		c2.15-1.29,3.85-3.17,5.1-5.67C511.8,625.46,512.43,622.4,512.43,618.77z"/>
	<path d="M526.17,639.77h-5.56l16.03-41.99h5.46l16.03,41.99h-5.56l-13.06-35.35h-0.34L526.17,639.77z M528.21,623.35h22.36v4.51
		h-22.36V623.35z"/>
	<path d="M598.05,610.88h-5.28c-0.32-1.47-0.86-2.74-1.66-3.85c-0.77-1.11-1.7-2.04-2.81-2.79c-1.09-0.77-2.31-1.34-3.65-1.72
		c-1.34-0.39-2.72-0.57-4.17-0.57c-2.65,0-5.03,0.63-7.19,1.93c-2.13,1.29-3.83,3.17-5.1,5.67c-1.25,2.49-1.88,5.58-1.88,9.21
		c0,3.63,0.61,6.71,1.88,9.21c1.27,2.49,2.97,4.4,5.1,5.67c2.15,1.29,4.53,1.93,7.19,1.93c1.45,0,2.83-0.18,4.17-0.57
		c1.34-0.39,2.56-0.95,3.65-1.7c1.11-0.77,2.04-1.7,2.81-2.81c0.79-1.11,1.34-2.4,1.66-3.85h5.28c-0.41,2.15-1.13,4.06-2.18,5.76
		c-1.04,1.7-2.36,3.13-3.92,4.33c-1.56,1.18-3.31,2.06-5.26,2.7c-1.93,0.61-3.99,0.93-6.21,0.93c-3.72,0-7.03-0.88-9.93-2.63
		c-2.9-1.75-5.19-4.24-6.85-7.46c-1.66-3.22-2.49-7.05-2.49-11.47s0.84-8.25,2.49-11.47c1.66-3.22,3.95-5.71,6.85-7.46
		c2.9-1.75,6.21-2.63,9.93-2.63c2.2,0,4.26,0.32,6.21,0.93s3.7,1.52,5.26,2.7c1.56,1.18,2.88,2.61,3.92,4.31
		C596.94,606.8,597.67,608.73,598.05,610.88z"/>
	<path d="M606.6,639.77v-41.99h5.28v18.71h23.31v-18.71h5.28v41.99h-5.28v-18.8H611.9v18.8H606.6z"/>
</g>
</svg>
