<svg width="35" height="35" viewBox="0 0 35 35" fill="none" xmlns="http://www.w3.org/2000/svg">
<path d="M19.0739 14.4977C19.0162 15.6628 18.8039 16.7581 18.2961 17.7825C17.565 19.2577 16.3598 20.1943 14.8661 20.8052C13.7928 21.244 12.6588 21.4728 11.5456 21.7745C11.3975 21.8147 11.2524 21.8646 11.1036 21.9022C10.7717 21.9855 10.4655 21.8182 10.3738 21.5091C10.2821 21.1993 10.4457 20.8943 10.7873 20.7987C11.6733 20.5505 12.5645 20.3217 13.4509 20.075C13.9879 19.9256 14.5077 19.7263 15.0061 19.4739C16.5886 18.6731 17.471 17.3642 17.7892 15.6446C17.8732 15.1906 17.926 14.7324 17.9348 14.2709C17.9477 13.5893 17.4674 13.0498 16.7661 12.9464C16.1297 12.8527 15.5395 13.2539 15.3626 13.9056C15.2505 14.3182 15.1976 14.7456 15.0557 15.1514C14.4484 16.8845 13.1871 17.8068 11.4105 18.0813C11.0997 18.1293 10.7831 18.1491 10.4681 18.1614C10.0993 18.1756 9.84295 17.9413 9.8342 17.6075C9.82578 17.2896 10.0627 17.0414 10.4221 17.0287C10.9007 17.0119 11.3739 16.9678 11.8367 16.8392C13.1067 16.4866 13.8064 15.6132 14.0932 14.3645C14.1797 13.9873 14.2329 13.6026 14.3849 13.2416C14.777 12.3099 15.8578 11.6935 16.8666 11.8332C18.03 11.9943 18.9258 12.831 19.0583 13.8775C19.0859 14.0949 19.1024 14.3117 19.0739 14.4977Z" fill="#800000"/>
<path d="M22.8601 14.5953C22.8481 15.1624 22.8076 15.7516 22.7557 16.3405C22.7272 16.6674 22.7674 16.9747 23.1245 17.1335C23.1861 17.161 23.2363 17.2271 23.2775 17.2855C23.422 17.4906 23.4003 17.5295 23.1572 17.5969C22.8934 17.6701 22.628 17.745 22.374 17.8455C22.232 17.9015 22.1529 17.8662 22.0648 17.7638C21.7128 17.3538 21.5813 16.8755 21.6179 16.3453C21.6616 15.7075 21.7193 15.0711 21.7342 14.4313C21.7835 12.2928 20.4843 10.337 18.4766 9.54171C16.5111 8.76296 14.1895 9.32361 12.7784 10.9051C12.1666 11.5908 11.7618 12.3741 11.5709 13.2721C11.5308 13.4607 11.4783 13.6503 11.4021 13.8266C11.2841 14.0988 10.987 14.2158 10.7131 14.1225C10.4441 14.0308 10.263 13.7612 10.3246 13.4993C10.6042 12.3096 10.9883 11.1637 11.837 10.2401C13.5669 8.35786 15.6951 7.61379 18.1762 8.26615C20.6693 8.92175 22.1834 10.6047 22.7551 13.124C22.8089 13.3609 22.838 13.6017 22.8526 13.8444C22.8672 14.0865 22.8908 14.3286 22.8601 14.5953Z" fill="#800000"/>
<path d="M20.985 14.9547C20.9711 15.5536 20.8791 16.1479 20.8878 16.7484C20.8956 17.2793 20.9915 17.7783 21.361 18.1873C21.4387 18.2735 21.3905 18.2998 21.3214 18.3451C21.0784 18.5046 20.8311 18.6598 20.6017 18.8374C20.486 18.9272 20.4432 18.8779 20.3781 18.7933C19.9697 18.2632 19.7756 17.6558 19.7344 16.9957C19.6975 16.4036 19.761 15.8151 19.808 15.2259C19.8871 14.2401 19.8339 13.2789 19.2166 12.4438C18.4427 11.397 17.3982 10.9242 16.11 11.105C14.803 11.2888 13.9909 12.1002 13.5618 13.3152C13.428 13.6947 13.3622 14.0978 13.2332 14.4793C12.8194 15.7046 11.8799 16.3051 10.6014 16.1807C10.2258 16.144 9.98565 15.8815 10.0181 15.5429C10.0475 15.2314 10.3246 15.0182 10.6756 15.0363C11.6112 15.0853 12.0225 14.7858 12.2535 13.8703C12.3721 13.4004 12.4843 12.9302 12.6884 12.4869C13.5044 10.7135 15.2476 9.7345 17.1671 9.97561C19.0208 10.2083 20.5719 11.6951 20.9073 13.5511C20.9909 14.0171 20.9961 14.4848 20.985 14.9547Z" fill="#800000"/>
<path d="M17.1668 14.477C17.0679 16.1051 16.4914 17.4938 15.1455 18.4929C14.2319 19.1712 13.1793 19.5254 12.0882 19.7821C11.6481 19.8858 11.2035 19.9703 10.7601 20.0591C10.4153 20.1285 10.1298 19.9541 10.0533 19.6346C9.9762 19.3121 10.1483 19.0325 10.4986 18.9476C11.1186 18.7975 11.7453 18.6753 12.362 18.5136C13.1077 18.3182 13.8178 18.0324 14.4432 17.5667C15.3753 16.8728 15.8458 15.9217 15.991 14.7897C16.0118 14.6293 16.0247 14.4676 16.0367 14.3065C16.0643 13.9377 16.3047 13.6956 16.6343 13.7096C16.9736 13.7238 17.1933 13.9964 17.1749 14.3801C17.1726 14.4125 17.1693 14.4446 17.1668 14.477Z" fill="#800000"/>
<path d="M24.9171 5.97458C25.2655 5.98852 25.6901 5.93181 26.1058 6.00569C27.2407 6.20727 27.9994 7.11176 28.0224 8.29106C28.0354 8.95444 28.0266 9.61847 28.024 10.2822C28.0231 10.5489 27.9566 10.616 27.6967 10.6205C27.454 10.625 27.2109 10.6247 26.9682 10.6205C26.7021 10.616 26.6376 10.5515 26.6367 10.288C26.6347 9.64051 26.6373 8.99301 26.6357 8.34551C26.6341 7.7288 26.2546 7.35028 25.6366 7.34833C25.0134 7.34639 24.3902 7.34315 23.767 7.35028C23.5382 7.35287 23.4403 7.25403 23.4429 7.03204C23.4462 6.7812 23.4452 6.53005 23.4432 6.27921C23.4416 6.06889 23.535 5.9681 23.7527 5.97231C24.117 5.97944 24.4813 5.97458 24.9171 5.97458Z" fill="#FEC210"/>
<path d="M5.20134 9.10167C5.22565 8.72834 5.15759 8.27399 5.24477 7.82417C5.44861 6.77352 6.33852 6.00547 7.40958 5.98019C8.10472 5.96366 8.80083 5.97695 9.4963 5.97338C9.70986 5.97209 9.80935 6.08 9.81324 6.28288C9.81778 6.53371 9.81357 6.78454 9.81454 7.03505C9.81519 7.24635 9.7131 7.34227 9.50051 7.3413C8.86144 7.33774 8.22236 7.33838 7.58329 7.34033C6.95199 7.3426 6.57769 7.7195 6.57574 8.35403C6.5738 8.985 6.57607 9.61598 6.57509 10.2469C6.57445 10.561 6.53329 10.6031 6.22834 10.6051C5.99371 10.6067 5.75908 10.6073 5.52445 10.6047C5.25482 10.6018 5.20329 10.5483 5.20167 10.2713C5.20005 9.90797 5.20134 9.54403 5.20134 9.10167Z" fill="#FEC210"/>
<path d="M8.27518 28.7907C7.8931 28.7687 7.43 28.8368 6.97435 28.7337C5.97101 28.5065 5.24023 27.6617 5.20037 26.6376C5.17347 25.9431 5.19097 25.2467 5.1874 24.5512C5.18643 24.3736 5.27134 24.2754 5.44893 24.2728C5.73185 24.2686 6.01509 24.2683 6.29801 24.2728C6.50476 24.2761 6.5699 24.4002 6.56861 24.5933C6.56375 25.2081 6.56537 25.8225 6.56731 26.4373C6.56893 27.0586 6.94 27.4355 7.5606 27.44C8.18314 27.4445 8.80601 27.4397 9.42888 27.4416C9.74 27.4426 9.77986 27.4837 9.78083 27.7903C9.7818 28.0168 9.7737 28.2437 9.7831 28.4696C9.7925 28.6964 9.69657 28.7959 9.46907 28.792C9.09671 28.7859 8.72435 28.7907 8.27518 28.7907Z" fill="#FEC210"/>
<path d="M17.5452 21.0334C17.867 21.0211 18.1684 21.1079 18.4675 21.2142C18.581 21.2547 18.6254 21.2939 18.5599 21.4174C18.4277 21.6676 18.3334 21.9346 18.2507 22.2046C18.2203 22.3038 18.1859 22.3342 18.0819 22.2866C17.6953 22.1096 17.3086 22.1839 16.922 22.297C15.5901 22.6868 14.275 23.1363 12.9217 23.452C12.5049 23.5492 12.0878 23.6458 11.6681 23.7297C11.3181 23.7997 11.0459 23.6214 10.9736 23.2951C10.9053 22.9869 11.0803 22.6858 11.4118 22.6214C13.2068 22.2707 14.9377 21.6909 16.6858 21.1708C16.8556 21.1202 17.0312 21.0878 17.2062 21.058C17.3177 21.0392 17.4321 21.0408 17.5452 21.0334Z" fill="#800000"/>
<path d="M17.9317 24.3178C17.489 24.0987 17.0813 24.2216 16.674 24.3266C15.5417 24.6179 14.4314 24.9893 13.2903 25.2482C13.0936 25.293 12.8966 25.3399 12.6973 25.3668C12.3777 25.4103 12.1097 25.2197 12.0468 24.9216C11.9823 24.615 12.1421 24.3181 12.4571 24.2546C13.9142 23.9607 15.3148 23.4564 16.7576 23.111C17.1306 23.0215 17.5065 22.9946 17.8857 23.086C17.99 23.1113 18.0373 23.1404 18.014 23.2626C17.9508 23.5961 17.9285 23.9351 17.9317 24.3178Z" fill="#800000"/>
<path d="M18.2288 26.3924C18.1581 26.4106 18.1024 26.3668 18.0466 26.3406C17.45 26.0576 16.8524 26.1633 16.2477 26.3137C15.6138 26.4712 14.9764 26.6167 14.3305 26.7207C13.8136 26.804 13.4438 26.4222 13.6084 25.9753C13.6781 25.7864 13.809 25.649 14.0038 25.6201C14.9793 25.4756 15.9184 25.1606 16.892 25.0083C17.2264 24.9558 17.5518 25.0154 17.8765 25.0851C17.9248 25.0955 17.9766 25.1065 17.9876 25.1629C18.068 25.5748 18.1461 25.987 18.2249 26.3989L18.2288 26.3924Z" fill="#800000"/>
<path d="M18.9537 19.0459C19.1582 19.0436 19.656 19.3823 19.7305 19.569C19.761 19.6451 19.6978 19.6694 19.667 19.7096C19.4939 19.9332 19.3151 20.1523 19.1439 20.3772C19.0885 20.4501 19.0539 20.5026 18.9618 20.4129C18.8059 20.2602 18.6358 20.1209 18.5081 19.9423C18.3743 19.7553 18.3616 19.5508 18.4657 19.3473C18.5658 19.1516 18.7327 19.0517 18.9537 19.0459Z" fill="#800000"/>
<path d="M18.2241 26.3992C18.2358 26.3979 18.2478 26.3966 18.2594 26.3949C18.2591 26.4026 18.2584 26.4099 18.2581 26.4176C18.2481 26.4092 18.2378 26.4009 18.2278 26.3926C18.2281 26.3926 18.2241 26.3992 18.2241 26.3992Z" fill="#800000"/>
<path d="M25.459 24.3936V25.275C26.088 25.2387 26.638 24.8978 26.9659 24.3936H25.459Z" fill="#EDDC92"/>
<path d="M25.2374 24.3936H23.7305C24.0584 24.8978 24.6081 25.2384 25.2374 25.275V24.3936Z" fill="#EDDC92"/>
<path d="M23.4343 24.9331C23.8915 25.4895 24.5789 25.8434 25.3479 25.8434C26.7246 25.8434 27.8404 24.7095 27.8404 23.3105H27.9927C27.9927 21.4091 27.1384 19.8623 25.3476 19.8623C23.793 19.8623 22.9449 21.028 22.7476 22.5784L23.4343 24.9331ZM22.9054 23.0146H27.7898C27.7898 23.2168 26.6964 23.3805 25.3476 23.3805C23.9988 23.3805 22.9054 23.2165 22.9054 23.0146ZM25.3479 25.5057C24.157 25.5057 23.1873 24.5209 23.1873 23.3105H23.4087C23.4087 23.6183 23.4806 23.9087 23.6047 24.1683H27.0902C27.2146 23.9087 27.2862 23.618 27.2862 23.3105H27.5076C27.5082 24.5209 26.5389 25.5057 25.3479 25.5057Z" fill="#800000"/>
<path d="M23.9843 27.5354L22.0985 28.1029L19.6709 20.7432C19.6709 20.7432 19.6959 20.2029 20.4814 19.9667C21.2673 19.7301 21.5567 20.1757 21.5567 20.1757L23.9843 27.5354Z" fill="black"/>
<path d="M22.459 28.3745L23.8292 27.9619L23.6743 28.4234L23.9193 29.2644H23.0076L22.8359 28.6755L22.459 28.3745Z" fill="black"/>
<path d="M23.9531 28.4297L24.0766 28.0616L25.0816 26.8314L24.5647 26.2493L26.1338 26.249L25.6169 26.8311L26.6971 28.1539L26.9372 26.249H27.4897C27.5053 26.249 27.5202 26.2503 27.5351 26.2513C27.539 26.2516 27.5426 26.2516 27.5461 26.2519C27.8589 26.26 28.4646 26.3631 29.0842 26.9549C29.628 27.4743 30.0499 28.246 30.3487 29.2652H28.4759C28.4331 29.1553 28.39 29.0542 28.3459 28.9615V29.2652H24.1962L23.9531 28.4297Z" fill="#FEC210"/>
<path d="M22.3524 29.2649V28.9619C22.308 29.0539 22.2642 29.1547 22.2211 29.2649H20.3506C20.6312 28.3085 21.0211 27.5696 21.516 27.0547L21.9198 28.4395L22.0578 28.398L22.6048 28.8352L22.7303 29.2649H22.3524Z" fill="#FEC210"/>
</svg>
