<svg width="35" height="35" viewBox="0 0 35 35" fill="none" xmlns="http://www.w3.org/2000/svg">
<path d="M7.99609 22.5371V23.6399C7.99609 23.9941 8.29003 24.2417 8.64521 24.2874L10.2218 24.4848C10.3942 25.132 10.6529 25.7441 10.9773 26.3058L10.0037 27.5651C9.78563 27.8432 9.75517 28.2275 10.0037 28.4754L10.3029 28.7739L11.256 29.7299L11.5551 30.0232C11.8085 30.276 12.189 30.2407 12.4725 30.0232L13.7299 29.052C14.2977 29.3757 14.906 29.6337 15.5551 29.8058L15.758 31.384C15.8037 31.733 16.0467 32.0263 16.4019 32.0263H18.5972C18.9521 32.0263 19.2006 31.733 19.2463 31.384L19.444 29.8058C20.0928 29.6337 20.7063 29.3757 21.2692 29.052L22.5318 30.0232C22.8105 30.2407 23.1958 30.276 23.4444 30.0232L23.7435 29.7299L24.7018 28.7739L24.9957 28.4754C25.2491 28.2275 25.2138 27.8432 24.9957 27.5651L24.0222 26.3058C24.3469 25.7445 24.6052 25.1323 24.7776 24.4848L26.3594 24.2874C26.7091 24.2421 27.0034 23.9941 27.0034 23.6399V22.5371H23.0791C23.0791 22.5407 23.0791 22.5442 23.0791 22.5478C23.0791 25.6178 20.5796 28.1115 17.5022 28.1115C14.4196 28.1115 11.9203 25.6181 11.9203 22.5478C11.9203 22.5442 11.9203 22.5407 11.9203 22.5371H7.99609Z" fill="#800000"/>
<path d="M14.6406 22.5371C14.6406 22.5407 14.6406 22.5442 14.6406 22.5478C14.6406 23.3317 14.9602 24.045 15.4771 24.561C15.9943 25.0821 16.7092 25.4006 17.4999 25.4006C18.2858 25.4006 19.0007 25.0821 19.5176 24.561C20.0397 24.045 20.3592 23.3321 20.3592 22.5478C20.3592 22.5442 20.3592 22.5407 20.3592 22.5371H19.0004C19.0004 22.5407 19.0004 22.5442 19.0004 22.5475C19.0004 22.962 18.8332 23.3366 18.5642 23.6095C18.2903 23.8775 17.9154 24.0444 17.4996 24.0444C17.0841 24.0444 16.7037 23.8775 16.435 23.6095C16.1612 23.3363 15.994 22.9623 15.994 22.5475C15.994 22.5439 15.994 22.5404 15.994 22.5371H14.6406Z" fill="#800000"/>
<path d="M26.9917 20.6097C26.9917 20.8933 26.9917 21.1772 26.9917 21.4608C26.8469 21.6915 26.6304 21.7301 26.3737 21.7297C20.4671 21.7249 14.5606 21.7262 8.654 21.7262C8.59243 21.7262 8.53053 21.7281 8.46895 21.7246C8.21326 21.71 8.05803 21.5606 8.04733 21.3033C8.03891 21.1001 8.03534 20.8956 8.05025 20.6933C8.07099 20.4095 8.21812 20.1706 8.49423 20.1246C8.76029 20.0802 8.76192 19.9431 8.74539 19.7516C8.74279 19.7211 8.74474 19.69 8.74539 19.6592C8.75414 19.2574 9.01534 18.9874 9.41492 18.9751C9.63043 18.9686 9.84659 18.9686 10.0621 18.9751C10.1639 18.9783 10.2066 18.9531 10.2002 18.8432C10.1914 18.6958 10.1953 18.5473 10.1989 18.3996C10.204 18.1889 10.2711 17.977 10.4743 17.917C10.7239 17.8434 10.7248 17.6902 10.7093 17.4967C10.7028 17.417 10.7128 17.3363 10.7073 17.2565C10.6927 17.054 10.7796 16.927 10.9773 16.8774C11.222 16.9545 11.2634 17.0115 11.2644 17.2763C11.2651 17.4241 11.269 17.5722 11.2628 17.72C11.2589 17.8094 11.29 17.8376 11.3782 17.8344C11.5383 17.8282 11.6987 17.8327 11.8588 17.8327C12.1524 17.8327 12.1524 17.8327 12.1524 17.5485C12.1524 15.8847 12.1524 14.2209 12.1524 12.5575C12.1524 12.4651 12.1482 12.3724 12.1537 12.2804C12.1582 12.1997 12.1284 12.1731 12.0477 12.1751C11.863 12.1799 11.677 12.1883 11.4935 12.1731C11.3163 12.1585 11.257 12.2 11.2589 12.3964C11.2706 13.5177 11.2647 14.6393 11.2644 15.7606C11.2644 16.0108 11.2087 16.0834 10.9805 16.1398C10.7582 16.0737 10.709 16.0085 10.709 15.7674C10.7083 14.6208 10.708 13.4746 10.7099 12.328C10.7102 12.236 10.7044 12.1809 10.592 12.1495C10.3353 12.0778 10.2083 11.8905 10.1995 11.6112C10.1946 11.4572 10.194 11.303 10.2002 11.149C10.2037 11.058 10.169 11.0333 10.0822 11.035C9.86053 11.0392 9.63821 11.0414 9.41655 11.0327C9.1346 11.0217 8.93303 10.8272 8.90386 10.5472C8.89576 10.4678 8.89965 10.3871 8.89965 10.3071C8.89932 9.96001 8.89965 9.96001 8.55807 9.94381C8.23529 9.92858 8.0778 9.76978 8.06807 9.44571C8.06451 9.32872 8.07196 9.2114 8.06645 9.09441C8.05576 8.85654 8.16497 8.70099 8.37335 8.59501C8.77326 8.39182 9.16928 8.18085 9.56659 7.97247C12.1355 6.62497 14.7054 5.27974 17.2715 3.92673C17.5446 3.78284 17.7864 3.77895 18.0528 3.93483C18.4135 4.1458 18.7842 4.33927 19.1546 4.53307C19.3322 4.62608 19.4142 4.75247 19.3549 4.95242C19.1832 5.1271 19.1047 5.14071 18.8863 5.02339C18.5133 4.82312 18.1419 4.61992 17.7696 4.41867C17.7119 4.38756 17.6616 4.34932 17.5839 4.39145C17.1428 4.63191 16.6985 4.86622 16.2552 5.10279C16.2104 5.12224 16.1644 5.13941 16.1213 5.1621C13.6749 6.44543 11.2297 7.73136 8.77974 9.00853C8.62905 9.08696 8.59955 9.18515 8.63164 9.31608C8.66372 9.44765 8.78687 9.38154 8.86497 9.38154C13.8765 9.38576 18.8879 9.3864 23.8994 9.3864C23.9668 9.3864 24.0346 9.38057 24.102 9.37733C24.8353 9.38057 25.5687 9.38413 26.3021 9.38737C26.3527 9.3877 26.412 9.38738 26.4065 9.31705C26.4 9.23085 26.4541 9.12909 26.354 9.06298C26.3128 9.03608 26.2681 9.01469 26.2246 8.99136C24.2313 7.91381 22.2376 6.83659 20.2442 5.75872C19.9788 5.61515 19.9434 5.54677 19.9998 5.29788C20.1233 5.16048 20.2643 5.13455 20.4289 5.22367C22.5195 6.35534 24.6108 7.48636 26.702 8.61673C26.8465 8.69483 26.9415 8.80599 26.9648 8.97159C26.9473 9.15599 26.9506 9.34071 26.9632 9.52543C26.9172 9.7983 26.7853 9.92145 26.5085 9.94219C26.4227 9.94867 26.3355 9.949 26.2496 9.94219C26.1615 9.93506 26.1307 9.96423 26.1346 10.0546C26.141 10.2086 26.1423 10.3632 26.1339 10.5171C26.1174 10.8169 25.9109 11.0217 25.6125 11.033C25.4031 11.0408 25.1931 11.0414 24.9838 11.0337C24.8739 11.0295 24.8272 11.0554 24.8357 11.175C24.8457 11.3221 24.8425 11.4708 24.837 11.6186C24.8263 11.8951 24.6973 12.0795 24.4371 12.1524C24.3314 12.1819 24.3262 12.2305 24.3265 12.3177C24.3285 14.1121 24.3282 15.9068 24.3272 17.7012C24.3272 17.7783 24.3282 17.8253 24.4293 17.8538C24.6996 17.93 24.8279 18.1157 24.8373 18.4005C24.8415 18.5237 24.8512 18.6488 24.835 18.77C24.8114 18.9495 24.8885 18.9874 25.0496 18.9758C25.2275 18.9628 25.407 18.9699 25.5859 18.9735C26.0218 18.9819 26.2849 19.2464 26.2908 19.6793C26.2921 19.7778 26.293 19.8767 26.2901 19.9752C26.2885 20.0316 26.2992 20.0721 26.365 20.0773C26.7036 20.1026 26.8867 20.3103 26.9917 20.6097ZM23.8463 9.95288C23.7662 9.94997 23.6865 9.94446 23.6065 9.94446C18.9878 9.94413 14.369 9.94413 9.75002 9.94413C9.45479 9.94413 9.46516 9.94478 9.4509 10.2484C9.44247 10.426 9.47942 10.4844 9.67613 10.484C14.3318 10.4772 18.9878 10.4789 23.6434 10.4785C23.7111 10.4785 23.7785 10.4733 23.8463 10.4704C24.3878 10.473 24.9296 10.4759 25.4712 10.4785C25.5289 10.4789 25.5836 10.4798 25.582 10.3962C25.5794 10.2731 25.5794 10.1499 25.582 10.0268C25.5836 9.94349 25.5292 9.94381 25.4712 9.94413C24.9296 9.94705 24.3878 9.94997 23.8463 9.95288ZM24.0316 20.0582C24.4853 20.0617 24.9394 20.0666 25.3931 20.0689C25.768 20.0708 25.7654 20.0695 25.7363 19.6855C25.7282 19.5782 25.6828 19.5293 25.5768 19.5299C25.0615 19.5335 24.5463 19.5358 24.0307 19.5387C23.9694 19.5358 23.9078 19.5302 23.8466 19.5302C19.0879 19.5299 14.3292 19.5299 9.57048 19.5299C9.52738 19.5299 9.48428 19.5299 9.44117 19.5309C9.35205 19.5328 9.30442 19.5776 9.30247 19.668C9.3015 19.7295 9.30993 19.7924 9.29988 19.8527C9.27071 20.0296 9.33585 20.0744 9.51604 20.0744C14.2871 20.0689 19.0581 20.0698 23.8291 20.0695C23.8968 20.0692 23.9642 20.0621 24.0316 20.0582ZM24.7342 21.1649C25.1837 21.1678 25.6335 21.172 26.083 21.1736C26.4771 21.1752 26.4745 21.1743 26.4405 20.7815C26.4311 20.6733 26.3783 20.6204 26.2781 20.6217C25.7612 20.6276 25.244 20.599 24.7274 20.6363C24.5858 20.6344 24.4445 20.6308 24.3029 20.6308C19.155 20.6305 14.0071 20.6305 8.85914 20.6308C8.60085 20.6308 8.62062 20.6337 8.59405 20.9662C8.57525 21.2008 8.70164 21.1714 8.84682 21.1714C14.0686 21.1701 19.2908 21.1704 24.5126 21.1701C24.5865 21.1701 24.6603 21.1668 24.7342 21.1649ZM12.7088 15.0055C12.7088 15.899 12.7104 16.7921 12.7065 17.6856C12.7062 17.7851 12.726 17.8305 12.8303 17.8613C13.0786 17.9342 13.2076 18.1173 13.2179 18.3843C13.2241 18.5383 13.2234 18.6925 13.2179 18.8464C13.2147 18.9382 13.2367 18.9793 13.3395 18.9754C13.5427 18.968 13.7462 18.9667 13.9494 18.9758C14.0638 18.9809 14.0816 18.932 14.0774 18.8351C14.0709 18.6877 14.0735 18.5396 14.0764 18.3914C14.0813 18.1189 14.2086 17.9355 14.4708 17.8571C14.5703 17.8272 14.5859 17.7835 14.5859 17.6921C14.5833 15.8993 14.5833 14.1065 14.5862 12.3134C14.5862 12.2191 14.5645 12.1802 14.4682 12.1511C14.208 12.0727 14.0809 11.8886 14.0764 11.6144C14.0738 11.4605 14.0719 11.3062 14.0774 11.1523C14.0803 11.0671 14.0583 11.0308 13.9652 11.0333C13.7559 11.0395 13.5462 11.0408 13.3369 11.033C13.2302 11.0291 13.2157 11.0774 13.2186 11.1652C13.2234 11.3192 13.2247 11.4734 13.2183 11.6274C13.2069 11.8947 13.0783 12.0772 12.8281 12.1482C12.7185 12.1793 12.7072 12.2305 12.7075 12.3251C12.7101 13.2189 12.7088 14.1124 12.7088 15.0055ZM22.3277 15.0233C22.3277 14.1299 22.3254 13.2367 22.3306 12.3433C22.3312 12.2298 22.3121 12.1728 22.1906 12.142C22.0046 12.0947 21.8918 11.9599 21.8403 11.7729C21.8069 11.651 21.8179 11.5282 21.8172 11.4054C21.8156 11.0359 21.8166 11.0333 21.4403 11.0372C21.2877 11.0389 21.0874 10.9711 20.9947 11.0628C20.8933 11.163 20.9724 11.3658 20.9614 11.5237C20.9591 11.5545 20.9617 11.5852 20.9607 11.616C20.9546 11.8896 20.8285 12.0739 20.5676 12.1517C20.4697 12.1809 20.4503 12.2217 20.4506 12.3147C20.4535 14.1075 20.4535 15.9003 20.4506 17.6934C20.4506 17.7864 20.4688 17.8282 20.5666 17.8577C20.8282 17.9364 20.9552 18.1199 20.9604 18.3927C20.963 18.5344 20.9708 18.677 20.9581 18.8176C20.9458 18.9547 21.0006 18.9832 21.125 18.9761C21.3033 18.9657 21.4828 18.9641 21.6607 18.9764C21.7978 18.9861 21.8273 18.9317 21.8192 18.8085C21.8095 18.6676 21.8124 18.525 21.8185 18.3837C21.8296 18.1173 21.9585 17.9339 22.2071 17.8613C22.3128 17.8305 22.3306 17.7832 22.3303 17.685C22.326 16.7977 22.3277 15.9103 22.3277 15.0233ZM18.4504 15.0224C18.4504 14.1224 18.4485 13.2221 18.453 12.3222C18.4537 12.2208 18.4294 12.1767 18.3273 12.1459C18.0904 12.0743 17.9624 11.9032 17.953 11.6539C17.9468 11.4877 17.9471 11.3211 17.9507 11.1549C17.9527 11.0706 17.9293 11.0321 17.837 11.0343C17.6276 11.0395 17.4176 11.0408 17.2083 11.034C17.1055 11.0304 17.0825 11.0732 17.0858 11.1649C17.0909 11.3189 17.0913 11.4731 17.0858 11.6271C17.0764 11.898 16.9548 12.0723 16.7004 12.1498C16.6029 12.1796 16.5841 12.2211 16.5841 12.3138C16.587 14.1078 16.587 15.9016 16.5841 17.6957C16.5841 17.7896 16.6052 17.8298 16.7014 17.8596C16.9496 17.9361 17.0734 18.1066 17.0845 18.3649C17.0913 18.525 17.0909 18.6854 17.0858 18.8455C17.0828 18.9378 17.1071 18.979 17.2089 18.9754C17.4121 18.9683 17.6159 18.9673 17.8191 18.9758C17.9303 18.9803 17.9546 18.9356 17.9514 18.8358C17.9459 18.6695 17.9465 18.5026 17.9549 18.3367C17.9669 18.103 18.0904 17.94 18.3104 17.87C18.4235 17.834 18.4546 17.7861 18.454 17.6678C18.4475 16.7857 18.4504 15.9039 18.4504 15.0224ZM16.0299 15.0036C16.0299 14.1156 16.0273 13.2277 16.0328 12.3397C16.0335 12.2133 16.005 12.1647 15.8708 12.1728C15.6802 12.1841 15.4881 12.1848 15.2975 12.1728C15.1604 12.164 15.1322 12.2182 15.1384 12.3413C15.1478 12.5257 15.141 12.7111 15.141 12.8961C15.141 14.4808 15.1426 16.0659 15.1381 17.6506C15.1377 17.79 15.1653 17.848 15.3176 17.836C15.5014 17.8217 15.688 17.8237 15.8721 17.8357C16.0079 17.8444 16.0335 17.7926 16.0328 17.6678C16.0273 16.7798 16.0299 15.8915 16.0299 15.0036ZM19.0069 15.0039C19.0069 15.8919 19.0091 16.7798 19.0043 17.6678C19.0036 17.7926 19.0296 17.8438 19.165 17.8357C19.3617 17.824 19.5601 17.8253 19.7568 17.8353C19.8764 17.8415 19.9052 17.7964 19.8981 17.6872C19.89 17.5644 19.8961 17.4406 19.8961 17.3175C19.8961 15.6647 19.8945 14.0122 19.8987 12.3595C19.899 12.2227 19.8757 12.1595 19.7205 12.1721C19.5367 12.187 19.3501 12.1845 19.166 12.1728C19.0315 12.1644 19.0033 12.2139 19.0043 12.3397C19.0095 13.228 19.0069 14.1159 19.0069 15.0039ZM22.8841 14.9968C22.8841 15.8902 22.8857 16.7837 22.8818 17.6772C22.8812 17.7896 22.8984 17.8431 23.0293 17.8357C23.2318 17.8237 23.436 17.8272 23.6392 17.8347C23.7432 17.8386 23.7746 17.8084 23.7743 17.7018C23.7711 15.9026 23.7711 14.1033 23.7743 12.304C23.7746 12.1935 23.7361 12.1705 23.6363 12.1741C23.4392 12.1809 23.2415 12.1845 23.0448 12.1731C22.9155 12.1657 22.8799 12.2036 22.8809 12.3348C22.887 13.2221 22.8841 14.1095 22.8841 14.9968ZM11.7207 18.3882C11.5421 18.3882 11.3636 18.3882 11.1847 18.3882C10.7384 18.3882 10.7433 18.3882 10.7508 18.8345C10.7527 18.9537 10.7958 18.9771 10.9027 18.9761C11.3461 18.9712 11.7897 18.9741 12.2334 18.9741C12.6784 18.9741 12.6728 18.9741 12.6673 18.5253C12.6657 18.4031 12.6203 18.3843 12.5153 18.3866C12.2506 18.3921 11.9858 18.3882 11.7207 18.3882ZM23.3206 18.9738C23.4992 18.9738 23.6778 18.9738 23.8566 18.9738C24.2912 18.9738 24.2864 18.9738 24.2857 18.5386C24.2854 18.4158 24.2494 18.3837 24.1292 18.3853C23.6859 18.3921 23.2422 18.3879 22.7985 18.3879C22.3546 18.3879 22.3581 18.3879 22.3704 18.8387C22.3734 18.943 22.4028 18.9777 22.5078 18.9754C22.7784 18.9696 23.0497 18.9738 23.3206 18.9738ZM11.7058 11.6199C11.8844 11.6199 12.0629 11.6199 12.2415 11.6199C12.6745 11.6199 12.6745 11.6199 12.6641 11.1847C12.6638 11.1662 12.6628 11.1477 12.6641 11.1293C12.669 11.056 12.6304 11.034 12.563 11.0343C11.9965 11.0353 11.4303 11.0356 10.8639 11.034C10.7867 11.0337 10.7397 11.0615 10.7563 11.1406C10.7893 11.2988 10.673 11.4783 10.8221 11.6164C10.8421 11.6348 10.8937 11.6199 10.9306 11.6199C11.1886 11.6202 11.4472 11.6199 11.7058 11.6199ZM23.3261 11.6199C23.5047 11.6199 23.6833 11.6199 23.8618 11.6199C24.2886 11.6199 24.2815 11.6199 24.2864 11.2012C24.288 11.0534 24.2332 11.0301 24.1039 11.0324C23.6671 11.0395 23.2299 11.035 22.7927 11.035C22.3623 11.035 22.3665 11.035 22.3701 11.4757C22.3711 11.5872 22.3977 11.6261 22.514 11.6225C22.7843 11.6144 23.0555 11.6199 23.3261 11.6199ZM15.5671 11.6199C15.7457 11.6199 15.9246 11.6199 16.1032 11.6199C16.5397 11.6199 16.5348 11.6199 16.5329 11.1896C16.5322 11.069 16.4998 11.0308 16.377 11.0324C15.9398 11.0392 15.5023 11.035 15.0648 11.035C14.6127 11.035 14.616 11.035 14.629 11.4971C14.6315 11.5933 14.6562 11.6241 14.754 11.6219C15.0246 11.6157 15.2959 11.6199 15.5671 11.6199ZM19.444 11.6199C19.6226 11.6199 19.8015 11.6199 19.9801 11.6199C20.4124 11.6199 20.4059 11.6199 20.4091 11.1902C20.4101 11.0515 20.3592 11.0308 20.238 11.0327C19.807 11.0392 19.3757 11.0353 18.9443 11.0353C18.4848 11.0353 18.488 11.0353 18.5046 11.4968C18.5081 11.5927 18.534 11.6238 18.6309 11.6219C18.9019 11.616 19.1728 11.6199 19.444 11.6199ZM15.594 18.3882C15.4152 18.3882 15.2366 18.3882 15.0577 18.3882C14.6176 18.3882 14.6228 18.3882 14.628 18.8354C14.6293 18.956 14.6717 18.9767 14.7787 18.9754C15.2162 18.9702 15.6537 18.9732 16.0915 18.9732C16.5407 18.9732 16.5368 18.9732 16.5326 18.5311C16.5316 18.42 16.5053 18.3814 16.389 18.3853C16.1242 18.3944 15.8588 18.3882 15.594 18.3882ZM19.4761 18.3882C19.2972 18.3882 19.1187 18.3882 18.9398 18.3882C18.4919 18.3882 18.4958 18.3882 18.5039 18.8309C18.5059 18.9453 18.5412 18.977 18.6527 18.9758C19.0902 18.9702 19.5277 18.9735 19.9655 18.9735C20.4347 18.9735 20.4318 18.9735 20.4075 18.499C20.403 18.4086 20.3748 18.3853 20.2892 18.3866C20.0186 18.3911 19.7474 18.3882 19.4761 18.3882Z" fill="#040302"/>
<path d="M26.9913 9.54553C26.9793 9.54229 26.9702 9.53581 26.9634 9.52512C26.9511 9.34007 26.9478 9.15535 26.965 8.97095C26.9712 8.96155 26.9799 8.95572 26.9909 8.95312C26.9913 9.15081 26.9913 9.34817 26.9913 9.54553Z" fill="#BB7927"/>
<path d="M24.103 9.37708C24.0356 9.38032 23.9679 9.38615 23.9005 9.38615C18.889 9.38583 13.8775 9.3855 8.86603 9.38129C8.78793 9.38129 8.66478 9.44708 8.6327 9.31583C8.60061 9.1849 8.63043 9.0867 8.7808 9.00828C11.2308 7.73143 13.6759 6.4455 16.1224 5.16184C16.1655 5.13916 16.2115 5.12231 16.2562 5.10254C16.8068 5.40231 17.3571 5.70305 17.9083 6.00184C18.9622 6.57286 20.0164 7.14421 21.0716 7.71328C21.9269 8.17444 22.7863 8.62717 23.6373 9.09578C23.7948 9.18231 23.9783 9.23351 24.103 9.37708Z" fill="#FFBD11"/>
<path d="M24.102 9.37794C23.9772 9.23438 23.7938 9.18317 23.636 9.09632C22.785 8.62803 21.9252 8.17498 21.0703 7.71382C20.0151 7.14475 18.9612 6.57373 17.907 6.00239C17.3558 5.70359 16.8055 5.40285 16.2549 5.10308C16.6982 4.86651 17.1425 4.6322 17.5836 4.39174C17.661 4.34961 17.7113 4.38752 17.7693 4.41896C18.1416 4.62021 18.5134 4.8234 18.886 5.02368C19.1041 5.141 19.1826 5.12739 19.3547 4.95271C19.5698 5.06776 19.785 5.18313 20.0005 5.2985C19.9441 5.54739 19.9795 5.61609 20.2449 5.75933C22.2383 6.8372 24.2316 7.91442 26.2253 8.99197C26.2688 9.0153 26.3135 9.03669 26.3547 9.06359C26.4548 9.12938 26.4007 9.23146 26.4072 9.31766C26.4123 9.38799 26.3534 9.38799 26.3028 9.38799C25.5688 9.38475 24.8354 9.38118 24.102 9.37794Z" fill="#FFBD11"/>
<path d="M24.7348 21.1652C24.6609 21.1668 24.587 21.1704 24.5132 21.1704C19.2913 21.1707 14.0692 21.1704 8.84741 21.1717C8.70223 21.1717 8.57584 21.2011 8.59463 20.9665C8.62121 20.634 8.60144 20.6311 8.85973 20.6311C14.0076 20.6308 19.1556 20.6308 24.3035 20.6311C24.4451 20.6311 24.5864 20.6347 24.728 20.6366C24.7303 20.8129 24.7325 20.9889 24.7348 21.1652Z" fill="#FFBD11"/>
<path d="M24.0321 20.0579C23.9647 20.0618 23.8973 20.0689 23.8299 20.0689C19.0588 20.0695 14.2878 20.0682 9.51679 20.0737C9.33661 20.0741 9.27147 20.029 9.30064 19.8521C9.31068 19.7921 9.30193 19.7289 9.30323 19.6674C9.30485 19.5773 9.35281 19.5322 9.44193 19.5303C9.48503 19.5293 9.52814 19.5293 9.57124 19.5293C14.3299 19.5293 19.0886 19.5293 23.8473 19.5296C23.9086 19.5296 23.9702 19.5351 24.0314 19.538C24.0317 19.7117 24.0317 19.8848 24.0321 20.0579Z" fill="#EEDC92"/>
<path d="M23.8457 10.4706C23.7779 10.4735 23.7105 10.4787 23.6428 10.4787C18.9872 10.4791 14.3312 10.4774 9.67554 10.4842C9.47915 10.4846 9.44188 10.4262 9.45031 10.2486C9.46457 9.94498 9.4542 9.94434 9.74943 9.94434C14.3681 9.94434 18.9868 9.94434 23.6059 9.94466C23.6859 9.94466 23.7656 9.95017 23.8457 9.95309C23.8457 10.1258 23.8457 10.2982 23.8457 10.4706Z" fill="#EEDC92"/>
<path d="M10.9775 16.8769C10.9785 16.631 10.9795 16.3853 10.9805 16.1393C11.2086 16.0829 11.2643 16.0107 11.2643 15.7602C11.265 14.6385 11.2705 13.5173 11.2588 12.396C11.2569 12.1996 11.3162 12.1578 11.4935 12.1727C11.6772 12.1879 11.8629 12.1795 12.0476 12.1746C12.1283 12.1723 12.1581 12.1992 12.1536 12.2799C12.1484 12.372 12.1523 12.4647 12.1523 12.557C12.1523 14.2208 12.1523 15.8846 12.1523 17.5481C12.1523 17.8323 12.1523 17.8323 11.8587 17.8323C11.6986 17.8323 11.5382 17.8278 11.3781 17.8339C11.2899 17.8372 11.2588 17.809 11.2627 17.7195C11.2689 17.5717 11.265 17.424 11.2643 17.2759C11.2637 17.0111 11.2225 16.9541 10.9775 16.8769Z" fill="#EEDC92"/>
<path d="M16.0303 15.0039C16.0303 15.8919 16.0281 16.7798 16.0329 17.6678C16.0336 17.7926 16.0083 17.8444 15.8722 17.8357C15.6878 17.8237 15.5014 17.8217 15.3177 17.836C15.1654 17.848 15.1378 17.79 15.1382 17.6506C15.1427 16.0659 15.1411 14.4808 15.1411 12.8961C15.1411 12.7111 15.1479 12.5257 15.1385 12.3413C15.1323 12.2182 15.1605 12.164 15.2976 12.1728C15.4882 12.1848 15.6803 12.1845 15.8709 12.1728C16.0051 12.1647 16.0336 12.2133 16.0329 12.3397C16.0277 13.228 16.0303 14.1159 16.0303 15.0039Z" fill="#EEDC92"/>
<path d="M19.0065 15.0039C19.0065 14.116 19.0088 13.228 19.0039 12.34C19.0033 12.214 19.0315 12.1644 19.1656 12.1731C19.35 12.1848 19.5364 12.1874 19.7201 12.1725C19.8754 12.1598 19.8987 12.223 19.8984 12.3598C19.8942 14.0126 19.8958 15.665 19.8958 17.3178C19.8958 17.4413 19.8893 17.5647 19.8977 17.6876C19.9052 17.7968 19.8763 17.8418 19.7564 17.8357C19.5597 17.8256 19.3614 17.8243 19.1647 17.836C19.0289 17.8441 19.0033 17.7932 19.0039 17.6681C19.0091 16.7798 19.0065 15.8919 19.0065 15.0039Z" fill="#EEDC92"/>
<path d="M22.8841 14.9964C22.8841 14.109 22.887 13.2217 22.8809 12.3344C22.8799 12.2035 22.9156 12.1656 23.0449 12.1727C23.2416 12.184 23.4393 12.1805 23.6363 12.1737C23.7364 12.1701 23.7747 12.1931 23.7744 12.3036C23.7711 14.1029 23.7711 15.9021 23.7744 17.7014C23.7747 17.808 23.7432 17.8382 23.6392 17.8343C23.436 17.8265 23.2322 17.8233 23.0293 17.8352C22.8984 17.843 22.8812 17.7892 22.8819 17.6768C22.8857 16.7833 22.8841 15.8898 22.8841 14.9964Z" fill="#EEDC92"/>
<path d="M11.7208 18.3879C11.9855 18.3879 12.2506 18.3917 12.5154 18.3859C12.6204 18.3836 12.6658 18.4024 12.6674 18.5246C12.6732 18.9738 12.6784 18.9735 12.2335 18.9735C11.7898 18.9735 11.3465 18.9709 10.9028 18.9754C10.7959 18.9767 10.7528 18.953 10.7508 18.8338C10.7434 18.3875 10.7385 18.3875 11.1848 18.3875C11.3636 18.3879 11.5422 18.3879 11.7208 18.3879Z" fill="#FFBD11"/>
<path d="M23.3212 18.974C23.0502 18.974 22.779 18.9701 22.5081 18.976C22.4031 18.9782 22.3736 18.9432 22.3707 18.8392C22.3583 18.3881 22.3548 18.3884 22.7988 18.3884C23.2424 18.3884 23.6857 18.3926 24.1294 18.3858C24.2496 18.3839 24.2859 18.416 24.2859 18.5391C24.2866 18.9743 24.2914 18.9743 23.8569 18.9743C23.6786 18.974 23.4997 18.974 23.3212 18.974Z" fill="#FFBD11"/>
<path d="M11.7061 11.6201C11.4475 11.6201 11.1889 11.6201 10.9306 11.6201C10.8936 11.6201 10.8421 11.635 10.822 11.6165C10.6733 11.4785 10.7896 11.299 10.7562 11.1408C10.7397 11.0617 10.7867 11.0339 10.8638 11.0342C11.4303 11.0358 11.9965 11.0355 12.5629 11.0345C12.6303 11.0345 12.6689 11.0562 12.6641 11.1295C12.6628 11.1479 12.6637 11.1664 12.6641 11.1849C12.6744 11.6201 12.6747 11.6201 12.2415 11.6201C12.0632 11.6201 11.8847 11.6201 11.7061 11.6201Z" fill="#FFBD11"/>
<path d="M23.3261 11.6199C23.0552 11.6199 22.7843 11.6144 22.5137 11.6225C22.3973 11.626 22.3708 11.5871 22.3698 11.4757C22.3662 11.0349 22.362 11.0349 22.7924 11.0349C23.2296 11.0349 23.6667 11.0391 24.1036 11.0323C24.2332 11.0304 24.288 11.0534 24.2861 11.2012C24.2812 11.6199 24.2883 11.6199 23.8615 11.6199C23.6833 11.6199 23.5047 11.6199 23.3261 11.6199Z" fill="#FFBD11"/>
<path d="M15.5669 11.6195C15.2959 11.6195 15.0247 11.6156 14.7538 11.6218C14.6562 11.6241 14.6316 11.5936 14.6287 11.497C14.6157 11.0349 14.6125 11.0349 15.0646 11.0349C15.5021 11.0349 15.9396 11.0391 16.3767 11.0323C16.4992 11.0304 16.532 11.0686 16.5326 11.1895C16.5346 11.6198 16.5391 11.6198 16.1029 11.6198C15.924 11.6195 15.7454 11.6195 15.5669 11.6195Z" fill="#FFBD11"/>
<path d="M19.4436 11.6196C19.1727 11.6196 18.9014 11.616 18.6305 11.6215C18.5339 11.6235 18.5077 11.5923 18.5041 11.4964C18.4876 11.0349 18.4843 11.0349 18.9439 11.0349C19.3752 11.0349 19.8066 11.0388 20.2376 11.0323C20.3588 11.0304 20.4097 11.0511 20.4087 11.1898C20.4054 11.6196 20.4119 11.6196 19.9796 11.6196C19.8007 11.6196 19.6222 11.6196 19.4436 11.6196Z" fill="#FFBD11"/>
<path d="M15.5942 18.3886C15.8593 18.3886 16.1244 18.3944 16.3892 18.386C16.5055 18.3821 16.5318 18.4207 16.5327 18.5318C16.537 18.9739 16.5408 18.9739 16.0917 18.9739C15.6542 18.9739 15.2164 18.971 14.7789 18.9761C14.6719 18.9774 14.6295 18.9567 14.6282 18.8361C14.6226 18.3886 14.6178 18.3889 15.0579 18.3889C15.2368 18.3886 15.4153 18.3886 15.5942 18.3886Z" fill="#FFBD11"/>
<path d="M19.4758 18.3884C19.7471 18.3884 20.0183 18.3913 20.2892 18.3868C20.3748 18.3855 20.4027 18.4088 20.4075 18.4992C20.4315 18.9737 20.4344 18.9737 19.9655 18.9737C19.528 18.9737 19.0902 18.9704 18.6527 18.9759C18.5412 18.9772 18.5059 18.9455 18.5039 18.8311C18.4958 18.3884 18.4919 18.3884 18.9398 18.3884C19.1184 18.3884 19.2973 18.3884 19.4758 18.3884Z" fill="#FFBD11"/>
<path d="M24.7343 21.1643C24.7321 20.988 24.7298 20.8121 24.7275 20.6358C25.2441 20.5985 25.7613 20.627 26.2782 20.6212C26.378 20.6202 26.4312 20.6727 26.4406 20.781C26.4746 21.1737 26.4775 21.1747 26.0831 21.1731C25.6336 21.1715 25.1842 21.1673 24.7343 21.1643Z" fill="#FFBD11"/>
<path d="M23.8467 10.4707C23.8467 10.2983 23.8467 10.1259 23.8467 9.95313C24.3882 9.95021 24.9301 9.94762 25.4716 9.94438C25.5296 9.94405 25.584 9.94373 25.5824 10.027C25.5798 10.1502 25.5798 10.2733 25.5824 10.3965C25.584 10.4801 25.5293 10.4791 25.4716 10.4788C24.9297 10.4762 24.3882 10.4736 23.8467 10.4707Z" fill="#EEDC92"/>
<path d="M24.0319 20.0585C24.0316 19.8855 24.0316 19.7124 24.0312 19.539C24.5465 19.5361 25.0618 19.5338 25.5774 19.5303C25.6834 19.5296 25.7287 19.5786 25.7369 19.6858C25.7657 20.0699 25.7683 20.0712 25.3937 20.0692C24.9396 20.0673 24.4856 20.0624 24.0319 20.0585Z" fill="#EEDC92"/>
</svg>
