<?xml version="1.0" encoding="utf-8"?>
<!-- Generator: Adobe Illustrator 24.0.1, SVG Export Plug-In . SVG Version: 6.00 Build 0)  -->
<svg version="1.1" id="Layer_1" xmlns="http://www.w3.org/2000/svg" xmlns:xlink="http://www.w3.org/1999/xlink" x="0px" y="0px"
	 viewBox="0 0 1080 1080" style="enable-background:new 0 0 1080 1080;" xml:space="preserve">
<style type="text/css">
	.st0{fill:#800000;}
	.st1{fill:#EDDC92;}
	.st2{fill:#FEC210;}
</style>
<path class="st0" d="M267.24,678.61v34.03c0,10.93,9.07,18.57,20.03,19.98l48.65,6.09c5.32,19.97,13.3,38.86,23.31,56.19
	l-30.04,38.86c-6.73,8.58-7.67,20.44,0,28.09l9.23,9.21l29.41,29.5l9.23,9.05c7.82,7.8,19.56,6.71,28.31,0l38.8-29.97
	c17.52,9.99,36.29,17.95,56.32,23.26l6.26,48.7c1.41,10.77,8.91,19.82,19.87,19.82h67.74c10.95,0,18.62-9.05,20.03-19.82l6.1-48.7
	c20.02-5.31,38.95-13.27,56.32-23.26l38.96,29.97c8.6,6.71,20.49,7.8,28.16,0l9.23-9.05l29.57-29.5l9.07-9.21
	c7.82-7.65,6.73-19.51,0-28.09l-30.04-38.86c10.02-17.32,17.99-36.21,23.31-56.19l48.81-6.09c10.79-1.4,19.87-9.05,19.87-19.98
	v-34.03H732.65c0,0.11,0,0.22,0,0.33c0,94.73-77.13,171.68-172.09,171.68c-95.12,0-172.24-76.94-172.24-171.68c0-0.11,0-0.22,0-0.33
	H267.24z"/>
<path class="st0" d="M472.33,678.61c0,0.11,0,0.22,0,0.33c0,24.19,9.86,46.2,25.81,62.12c15.96,16.08,38.02,25.91,62.42,25.91
	c24.25,0,46.31-9.83,62.26-25.91c16.11-15.92,25.97-37.92,25.97-62.12c0-0.11,0-0.22,0-0.33h-41.93c0,0.11,0,0.22,0,0.32
	c0,12.79-5.16,24.35-13.46,32.77c-8.45,8.27-20.02,13.42-32.85,13.42c-12.82,0-24.56-5.15-32.85-13.42
	c-8.45-8.43-13.61-19.97-13.61-32.77c0-0.11,0-0.22,0-0.32H472.33z"/>
<path class="st1" d="M566.43,374.93v51.64c37.01-2.13,69.34-22.1,88.63-51.64H566.43z"/>
<path class="st1" d="M553.4,374.93h-88.63c19.29,29.55,51.62,49.51,88.63,51.64V374.93z"/>
<path class="st0" d="M447.36,406.57c26.9,32.6,67.34,53.34,112.56,53.34c80.98,0,146.61-66.44,146.61-148.42h8.97
	c0-111.4-50.24-202.04-155.58-202.04c-91.43,0-141.32,68.3-152.92,159.15L447.36,406.57z M416.27,294.15h287.29
	c0,11.84-64.31,21.44-143.64,21.44S416.27,305.99,416.27,294.15z M559.93,440.13c-70.06,0-127.07-57.7-127.07-128.63h13.03
	c0,18.04,4.22,35.05,11.54,50.26h204.99c7.31-15.22,11.54-32.23,11.54-50.26H687C686.98,382.42,629.99,440.13,559.93,440.13z"/>
<path d="M479.71,559.04l-110.92,33.24L226,161.04c0,0,1.46-31.66,47.67-45.49c46.22-13.85,63.26,12.25,63.26,12.25L479.71,559.04z"
	/>
<path d="M389.97,608.23l80.59-24.16l-9.1,27.04l14.41,49.28h-53.62l-10.09-34.5L389.97,608.23z"/>
<path class="st2" d="M477.84,611.43l7.27-21.57l59.11-72.09l-30.41-34.11l92.3-0.01l-30.41,34.11l63.53,77.51l14.11-111.62h32.5
	c0.9,0,1.79,0.06,2.67,0.12c0.22,0.02,0.43,0.03,0.65,0.04c18.4,0.47,54.02,6.51,90.46,41.19c32,30.44,56.8,75.65,74.36,135.37
	H743.86c-2.5-6.44-5.06-12.36-7.64-17.79v17.79H492.16L477.84,611.43z"/>
<path class="st2" d="M383.73,660.39v-17.75c-2.6,5.4-5.18,11.31-7.72,17.75H265.99c16.52-56.03,39.43-99.33,68.54-129.49
	l23.74,81.14l8.13-2.43l32.17,25.61l7.36,25.17H383.73z"/>
</svg>
