<svg width="39" height="39" viewBox="0 0 39 39" fill="none" xmlns="http://www.w3.org/2000/svg">
<path d="M9.6499 24.5059V25.7347C9.6499 26.1294 9.97743 26.4053 10.3732 26.4562L12.13 26.6761C12.3221 27.3973 12.6103 28.0794 12.9718 28.7052L11.887 30.1085C11.644 30.4183 11.61 30.8466 11.887 31.1229L12.2203 31.4554L13.2823 32.5207L13.6156 32.8475C13.898 33.1292 14.322 33.0898 14.6379 32.8475L16.039 31.7653C16.6717 32.126 17.3495 32.4135 18.0728 32.6052L18.2989 34.3638C18.3498 34.7527 18.6206 35.0796 19.0164 35.0796H21.4626C21.858 35.0796 22.135 34.7527 22.1859 34.3638L22.4062 32.6052C23.1291 32.4135 23.8127 32.126 24.4399 31.7653L25.8468 32.8475C26.1574 33.0898 26.5867 33.1292 26.8637 32.8475L27.197 32.5207L28.2648 31.4554L28.5923 31.1229C28.8747 30.8466 28.8354 30.4183 28.5923 30.1085L27.5076 28.7052C27.8694 28.0798 28.1572 27.3976 28.3493 26.6761L30.1119 26.4562C30.5015 26.4057 30.8294 26.1294 30.8294 25.7347V24.5059H26.4564C26.4564 24.5098 26.4564 24.5138 26.4564 24.5178C26.4564 27.9386 23.6711 30.7173 20.242 30.7173C16.8071 30.7173 14.0222 27.9389 14.0222 24.5178C14.0222 24.5138 14.0222 24.5098 14.0222 24.5059H9.6499Z" fill="#800000"/>
<path d="M17.0562 24.5059C17.0562 24.5098 17.0562 24.5138 17.0562 24.5178C17.0562 25.3913 17.4122 26.1861 17.9882 26.761C18.5645 27.3417 19.3611 27.6966 20.2422 27.6966C21.1179 27.6966 21.9145 27.3417 22.4905 26.761C23.0723 26.1861 23.4283 25.3917 23.4283 24.5178C23.4283 24.5138 23.4283 24.5098 23.4283 24.5059H21.9142C21.9142 24.5098 21.9142 24.5138 21.9142 24.5174C21.9142 24.9793 21.7278 25.3967 21.4281 25.7008C21.123 25.9994 20.7052 26.1854 20.2419 26.1854C19.7789 26.1854 19.355 25.9994 19.0556 25.7008C18.7505 25.3964 18.5642 24.9796 18.5642 24.5174C18.5642 24.5134 18.5642 24.5095 18.5642 24.5059H17.0562Z" fill="#800000"/>
<path d="M20.4541 13.5391V15.4038C21.7906 15.3269 22.958 14.6058 23.6546 13.5391H20.4541Z" fill="#EDDC92"/>
<path d="M19.9832 13.5391H16.7827C17.4793 14.6061 18.6468 15.3269 19.9832 15.4038V13.5391Z" fill="#EDDC92"/>
<path d="M16.1542 14.6815C17.1256 15.8587 18.5859 16.6076 20.2189 16.6076C23.1432 16.6076 25.5131 14.2084 25.5131 11.248H25.8371C25.8371 7.22526 24.0228 3.95215 20.2189 3.95215C16.9172 3.95215 15.1157 6.41854 14.6968 9.69923L16.1542 14.6815ZM15.0315 10.6219H25.4059C25.4059 11.0494 23.0836 11.3961 20.2189 11.3961C17.3542 11.3961 15.0315 11.0494 15.0315 10.6219ZM20.2192 15.8934C17.6893 15.8934 15.6306 13.8098 15.6306 11.2484H16.1011C16.1011 11.8998 16.2535 12.5141 16.5179 13.0633H23.9203C24.1842 12.5137 24.337 11.8995 24.337 11.2484H24.8079C24.8072 13.8094 22.7492 15.8934 20.2192 15.8934Z" fill="#800000"/>
<path d="M17.3229 20.1876L13.3174 21.3879L8.16113 5.81538C8.16113 5.81538 8.21386 4.6721 9.88255 4.17268C11.5516 3.67254 12.1669 4.61504 12.1669 4.61504L17.3229 20.1876Z" fill="black"/>
<path d="M14.082 21.9633L16.9922 21.0908L16.6636 22.0673L17.184 23.8468H15.2477L14.8833 22.601L14.082 21.9633Z" fill="black"/>
<path d="M17.2549 22.0791L17.5174 21.3002L19.6519 18.697L18.5538 17.4652L21.8869 17.4648L20.7887 18.6966L23.0829 21.4956L23.5924 17.4648H24.766C24.7985 17.4648 24.8306 17.467 24.8624 17.4692C24.8704 17.4699 24.8779 17.4703 24.8859 17.4706C25.5503 17.4876 26.8366 17.7057 28.1525 18.958C29.3081 20.0573 30.2036 21.6898 30.8377 23.8464H26.8612C26.7709 23.6138 26.6784 23.4001 26.5853 23.204V23.8464H17.772L17.2549 22.0791Z" fill="#FEC210"/>
<path d="M13.8572 23.8469V23.206C13.7633 23.401 13.6701 23.6144 13.5784 23.8469H9.60547C10.202 21.8236 11.0293 20.26 12.0805 19.1709L12.9378 22.101L13.2314 22.0132L14.3931 22.938L14.6589 23.8469H13.8572Z" fill="#FEC210"/>
</svg>
