<?xml version="1.0" encoding="utf-8"?>
<!-- Generator: Adobe Illustrator 24.0.1, SVG Export Plug-In . SVG Version: 6.00 Build 0)  -->
<svg version="1.1" id="Layer_1" xmlns="http://www.w3.org/2000/svg" xmlns:xlink="http://www.w3.org/1999/xlink" x="0px" y="0px"
	 viewBox="0 0 1080 1080" style="enable-background:new 0 0 1080 1080;" xml:space="preserve">
<style type="text/css">
	.st0{fill:#800000;}
	.st1{fill:#FEC210;}
	.st2{fill:#EDDC92;}
</style>
<g>
	<path class="st0" d="M588.6,447.34c-1.78,35.95-8.33,69.75-24,101.36c-22.56,45.52-59.75,74.42-105.84,93.27
		c-33.12,13.54-68.11,20.6-102.46,29.91c-4.57,1.24-9.05,2.78-13.64,3.94c-10.24,2.57-19.69-2.59-22.52-12.13
		c-2.83-9.56,2.22-18.97,12.76-21.92c27.34-7.66,54.84-14.72,82.19-22.33c16.57-4.61,32.61-10.76,47.99-18.55
		c48.83-24.71,76.06-65.1,85.88-118.16c2.59-14.01,4.22-28.15,4.49-42.39c0.4-21.03-14.42-37.68-36.06-40.87
		c-19.64-2.89-37.85,9.49-43.31,29.6c-3.46,12.73-5.09,25.92-9.47,38.44c-18.74,53.48-57.66,81.94-112.48,90.41
		c-9.59,1.48-19.36,2.09-29.08,2.47c-11.38,0.44-19.29-6.79-19.56-17.09c-0.26-9.81,7.05-17.47,18.14-17.86
		c14.77-0.52,29.37-1.88,43.65-5.85c39.19-10.88,60.78-37.83,69.63-76.36c2.67-11.64,4.31-23.51,9-34.65
		c12.1-28.75,45.45-47.77,76.58-43.46c35.9,4.97,63.54,30.79,67.63,63.08C588.97,434.91,589.48,441.6,588.6,447.34z"/>
	<path class="st0" d="M705.44,450.34c-0.37,17.5-1.62,35.68-3.22,53.85c-0.88,10.09,0.36,19.57,11.38,24.47
		c1.9,0.85,3.45,2.89,4.72,4.69c4.46,6.33,3.79,7.53-3.71,9.61c-8.14,2.26-16.33,4.57-24.17,7.67c-4.38,1.73-6.82,0.64-9.54-2.52
		c-10.86-12.65-14.92-27.41-13.79-43.77c1.35-19.68,3.13-39.32,3.59-59.06c1.52-65.99-38.57-126.34-100.52-150.88
		c-60.65-24.03-132.29-6.73-175.83,42.07c-18.88,21.16-31.37,45.33-37.26,73.04c-1.24,5.82-2.86,11.67-5.21,17.11
		c-3.64,8.4-12.81,12.01-21.26,9.13c-8.3-2.83-13.89-11.15-11.99-19.23c8.63-36.71,20.48-72.07,46.67-100.57
		c53.38-58.08,119.05-81.04,195.61-60.91c76.93,20.23,123.65,72.16,141.29,149.9c1.66,7.31,2.56,14.74,3.01,22.23
		C705.66,434.64,706.39,442.11,705.44,450.34z"/>
	<path class="st0" d="M647.58,461.44c-0.43,18.48-3.27,36.82-3,55.35c0.24,16.38,3.2,31.78,14.6,44.4c2.4,2.66,0.91,3.47-1.22,4.87
		c-7.5,4.92-15.13,9.71-22.21,15.19c-3.57,2.77-4.89,1.25-6.9-1.36c-12.6-16.36-18.59-35.1-19.86-55.47
		c-1.14-18.27,0.82-36.43,2.27-54.61c2.44-30.42,0.8-60.08-18.25-85.85c-23.88-32.3-56.11-46.89-95.86-41.31
		c-40.33,5.67-65.39,30.71-78.63,68.2c-4.13,11.71-6.16,24.15-10.14,35.92c-12.77,37.81-41.76,56.34-81.21,52.5
		c-11.59-1.13-19-9.23-18-19.68c0.91-9.61,9.46-16.19,20.29-15.63c28.87,1.51,41.56-7.73,48.69-35.98
		c3.66-14.5,7.12-29.01,13.42-42.69c25.18-54.72,78.97-84.93,138.2-77.49c57.2,7.18,105.06,53.06,115.41,110.33
		C647.76,432.51,647.92,446.94,647.58,461.44z"/>
	<path class="st0" d="M529.76,446.72c-3.05,50.24-20.84,93.09-62.37,123.92c-28.19,20.93-60.67,31.86-94.34,39.78
		c-13.58,3.2-27.3,5.81-40.98,8.55c-10.64,2.14-19.45-3.24-21.81-13.1c-2.38-9.95,2.93-18.58,13.74-21.2
		c19.13-4.63,38.47-8.4,57.5-13.39c23.01-6.03,44.92-14.85,64.22-29.22c28.76-21.41,43.28-50.76,47.76-85.69
		c0.64-4.95,1.04-9.94,1.41-14.91c0.85-11.38,8.27-18.85,18.44-18.42c10.47,0.44,17.25,8.85,16.68,20.69
		C529.94,444.73,529.84,445.72,529.76,446.72z"/>
	<path class="st1" d="M768.91,184.34c10.75,0.43,23.85-1.32,36.68,0.96c35.02,6.22,58.43,34.13,59.14,70.52
		c0.4,20.47,0.13,40.96,0.05,61.44c-0.03,8.23-2.08,10.3-10.1,10.44c-7.49,0.14-14.99,0.13-22.48,0
		c-8.21-0.14-10.2-2.13-10.23-10.26c-0.06-19.98,0.02-39.96-0.03-59.94c-0.05-19.03-11.76-30.71-30.83-30.77
		c-19.23-0.06-38.46-0.16-57.69,0.06c-7.06,0.08-10.08-2.97-10-9.82c0.1-7.74,0.07-15.49,0.01-23.23c-0.05-6.49,2.83-9.6,9.55-9.47
		C744.22,184.49,755.46,184.34,768.91,184.34z"/>
	<path class="st1" d="M160.53,280.84c0.75-11.52-1.35-25.54,1.34-39.42c6.29-32.42,33.75-56.12,66.8-56.9
		c21.45-0.51,42.93-0.1,64.39-0.21c6.59-0.04,9.66,3.29,9.78,9.55c0.14,7.74,0.01,15.48,0.04,23.21c0.02,6.52-3.13,9.48-9.69,9.45
		c-19.72-0.11-39.44-0.09-59.16-0.03c-19.48,0.07-31.03,11.7-31.09,31.28c-0.06,19.47,0.01,38.94-0.02,58.41
		c-0.02,9.69-1.29,10.99-10.7,11.05c-7.24,0.05-14.48,0.07-21.72-0.01c-8.32-0.09-9.91-1.74-9.96-10.29
		C160.49,305.72,160.53,294.49,160.53,280.84z"/>
	<path class="st1" d="M255.38,888.38c-11.79-0.68-26.08,1.42-40.14-1.76c-30.96-7.01-53.51-33.08-54.74-64.68
		c-0.83-21.43-0.29-42.92-0.4-64.38c-0.03-5.48,2.59-8.51,8.07-8.59c8.73-0.13,17.47-0.14,26.2,0c6.38,0.1,8.39,3.93,8.35,9.89
		c-0.15,18.97-0.1,37.93-0.04,56.9c0.05,19.17,11.5,30.8,30.65,30.94c19.21,0.14,38.43-0.01,57.65,0.05
		c9.6,0.03,10.83,1.3,10.86,10.76c0.03,6.99-0.22,13.99,0.07,20.96c0.29,7-2.67,10.07-9.69,9.95
		C280.73,888.23,269.24,888.38,255.38,888.38z"/>
	<path class="st0" d="M541.42,649.01c9.93-0.38,19.23,2.3,28.46,5.58c3.5,1.25,4.87,2.46,2.85,6.27
		c-4.08,7.72-6.99,15.96-9.54,24.29c-0.94,3.06-2,4-5.21,2.53c-11.93-5.46-23.86-3.17-35.79,0.32
		c-41.1,12.03-81.68,25.9-123.44,35.64c-12.86,3-25.73,5.98-38.68,8.57c-10.8,2.16-19.2-3.34-21.43-13.41
		c-2.11-9.51,3.29-18.8,13.52-20.79c55.39-10.82,108.8-28.71,162.74-44.76c5.24-1.56,10.66-2.56,16.06-3.48
		C534.4,649.19,537.93,649.24,541.42,649.01z"/>
	<path class="st0" d="M553.35,750.35c-13.66-6.76-26.24-2.97-38.81,0.27c-34.94,8.99-69.2,20.45-104.41,28.44
		c-6.07,1.38-12.15,2.83-18.3,3.66c-9.86,1.34-18.13-4.54-20.07-13.74c-1.99-9.46,2.94-18.62,12.66-20.58
		c44.96-9.07,88.18-24.63,132.7-35.29c11.51-2.76,23.11-3.59,34.81-0.77c3.22,0.78,4.68,1.68,3.96,5.45
		C553.94,728.08,553.25,738.54,553.35,750.35z"/>
	<path class="st0" d="M562.51,814.38c-2.18,0.56-3.9-0.79-5.62-1.6c-18.41-8.73-36.85-5.47-55.51-0.83
		c-19.56,4.86-39.23,9.35-59.16,12.56c-15.95,2.57-27.36-9.21-22.28-23c2.15-5.83,6.19-10.07,12.2-10.96
		c30.1-4.46,59.08-14.18,89.12-18.88c10.32-1.62,20.36,0.22,30.38,2.37c1.49,0.32,3.09,0.66,3.43,2.4
		c2.48,12.71,4.89,25.43,7.32,38.14L562.51,814.38z"/>
	<path class="st0" d="M584.89,587.68c6.31-0.07,21.67,10.38,23.97,16.14c0.94,2.35-1.01,3.1-1.96,4.34
		c-5.34,6.9-10.86,13.66-16.14,20.6c-1.71,2.25-2.78,3.87-5.62,1.1c-4.81-4.71-10.06-9.01-14-14.52
		c-4.13-5.77-4.52-12.08-1.31-18.36C572.92,590.94,578.07,587.86,584.89,587.68z"/>
	<path class="st0" d="M562.39,814.58c0.35-0.04,0.71-0.08,1.06-0.13c-0.01,0.23-0.03,0.45-0.04,0.68c-0.3-0.25-0.61-0.5-0.91-0.75
		C562.51,814.38,562.39,814.58,562.39,814.58z"/>
</g>
<g>
	<path class="st2" d="M785.6,752.67v27.2c19.41-1.12,36.38-11.64,46.5-27.2H785.6z"/>
	<path class="st2" d="M778.76,752.67h-46.5c10.12,15.56,27.08,26.07,46.5,27.2L778.76,752.67L778.76,752.67z"/>
	<path class="st0" d="M723.14,769.33c14.11,17.17,35.32,28.09,59.05,28.09c42.48,0,76.91-34.99,76.91-78.16h4.7
		c0-58.67-26.36-106.4-81.62-106.4c-47.97,0-74.14,35.97-80.23,83.81L723.14,769.33z M706.82,710.13h150.72
		c0,6.24-33.74,11.29-75.36,11.29C740.56,721.42,706.82,716.36,706.82,710.13z M782.19,787c-36.75,0-66.67-30.39-66.67-67.74h6.83
		c0,9.5,2.22,18.46,6.05,26.47h107.55c3.84-8.01,6.05-16.98,6.05-26.47h6.83C848.85,756.61,818.94,787,782.19,787z"/>
	<path d="M740.1,849.62l-58.19,17.51L607,640.03c0,0,0.77-16.67,25.01-23.96c24.25-7.3,33.18,6.45,33.18,6.45L740.1,849.62z"/>
	<path d="M693.02,875.53l42.28-12.73l-4.78,14.24l7.56,25.95h-28.13l-5.3-18.17L693.02,875.53z"/>
	<path class="st1" d="M739.13,877.22l3.81-11.36l31.01-37.96L758,809.94l48.42-0.01l-15.95,17.96l33.33,40.82l7.41-58.78h17.05
		c0.48,0,0.94,0.04,1.4,0.07c0.12,0.01,0.23,0.01,0.34,0.02c9.65,0.25,28.34,3.43,47.46,21.69c16.78,16.03,29.8,39.84,39.02,71.29
		h-57.79c-1.32-3.39-2.65-6.51-4.01-9.37V903H746.63L739.13,877.22z"/>
	<path class="st1" d="M689.75,902.99v-9.35c-1.37,2.84-2.72,5.95-4.05,9.35h-57.72c8.66-29.51,20.69-52.31,35.96-68.2l12.46,42.73
		l4.26-1.28l16.88,13.49l3.87,13.26L689.75,902.99L689.75,902.99z"/>
</g>
</svg>
