<?xml version="1.0" encoding="utf-8"?>
<!-- Generator: Adobe Illustrator 24.0.1, SVG Export Plug-In . SVG Version: 6.00 Build 0)  -->
<svg version="1.1" id="Layer_1" xmlns="http://www.w3.org/2000/svg" xmlns:xlink="http://www.w3.org/1999/xlink" x="0px" y="0px"
	 viewBox="0 0 1080 1080" style="enable-background:new 0 0 1080 1080;" xml:space="preserve">
<style type="text/css">
	.st0{fill:#800000;}
	.st1{fill:#EEDC92;}
	.st2{fill:#FFBD11;}
	.st3{fill:#F3F3F3;}
	.st4{fill:#FBFBFB;}
</style>
<g>
	<path d="M889.44,455.54c0,20.48-0.01,37.91,0,55.33c0.08,94.84,0.24,189.68,0.22,284.51c-0.01,40.42-14.86,55.27-54.96,55.28
		c-209.28,0.03-418.57,0.03-627.85,0c-40.26-0.01-55.02-14.83-55.03-55.13c-0.02-146.32-0.03-292.65,0-438.97
		c0.01-40.46,14.26-54.46,55.29-54.48c40.64-0.02,81.29,0.65,121.9-0.37c13.93-0.35,16.76,4.25,16.64,17.12
		c-0.33,36.84,0.22,36.85-37.34,36.85c-27.77,0-55.57,0.77-83.29-0.32c-14.4-0.56-19.83,2.26-19.73,18.46
		c0.75,122.61,0.59,245.22,0.15,367.84c-0.05,12.89,2.72,17.62,16.69,17.27c39.94-1,79.91-0.35,119.87-0.35
		c157.81,0,315.62-0.2,473.43,0.33c15.12,0.05,20.46-2.74,20.25-19.4c-1.01-77.89-0.34-155.8-0.57-233.7
		c-0.03-10.09-0.24-16.41,13.64-18.03C865.62,485.79,872.54,467.1,889.44,455.54z M540.1,800.01c-1.59-11.64-7.34-19.06-19.66-18.8
		c-12.12,0.25-18.98,7.4-18.79,19.13c0.18,11.65,7.07,18.75,19.27,18.69C533.29,818.96,538.61,811.18,540.1,800.01z"/>
	<path class="st0" d="M706.98,459.35c-0.92-2.05,6.67-11.04-4.76-16.25c-12.58-5.73-15.48,5.23-20.88,10.49
		c-21.38,20.84-21.1,21.12-41.96-0.2c-9.47-9.68-18.58-19.76-28.53-28.92c-8.92-8.21-9.8-15.23-0.13-23.35
		c5.16-4.33,9.39-9.75,14.21-14.5c4.05-3.99,6.74-7.39,3.53-13.92c-2.99-6.08-5.7-9.23-13.13-9.89
		c-36.41-3.27-36.38-3.57-36.38-41.28c0-4.06,0-8.13,0-12.19c0-31.93-0.01-32.12,31.38-34.46c6.72-0.5,11.25-1.48,13.41-9.11
		c1.91-6.73,3.63-11.41-2.14-17.98c-20.68-23.53-20.28-23.88,1.42-46.23c5.19-5.35,10.37-10.7,15.55-16.05
		c19.86-20.55,20.16-20.89,41.42-1.89c6.39,5.71,10.99,4.91,17.91,1.9c6.89-3,10.61-5.81,11.06-14.32
		c1.49-28.12,1.98-28.1,30.7-28.1c12.19,0,24.44,0.79,36.55-0.2c14.52-1.19,19.46,4.7,18.35,18.75
		c-0.75,9.54-2.57,18.71,10.99,24.56c14.37,6.2,18.67-3.62,24.67-10.41c9.92-11.23,17.38-9.34,26.41,0.96
		c11.15,12.72,22.87,25.03,35.26,36.52c9.86,9.15,9.91,16.64-0.33,24.9c-2.62,2.11-4.53,5.09-7.17,7.18
		c-7.22,5.72-8.65,11.6-5.11,20.86c3.84,10.06,10.86,8.34,18.03,8.52c26.8,0.66,26.81,0.64,26.82,26.8
		c0.01,14.9-0.45,29.82,0.14,44.7c0.48,11.99-3.79,17.89-16.37,16.92c-6.73-0.52-13.58-0.58-20.3,0.02
		c-12.78,1.14-17.51,12.2-9.99,22.47c7.05,9.63,22.85,15.55,21.21,27.95c-1.74,13.18-17.02,20.07-25.64,30.36
		c-1.73,2.07-3.75,3.9-5.65,5.84c-26.47,26.91-22.24,27.79-49.02,0.18c-4.2-4.33-6.99-11.22-16.5-7.46
		c-10.2,4.03-7.44,11.44-7.6,18.27c-0.82,35.79,7.24,37.32-35.02,33.47c-37.29-3.39-62.37,16.56-90.04,34.09
		c-5.65,3.58-5.45,8.37-6.59,13.62c-2.93,13.47-11.01,21.75-25.58,20.95c-13.31-0.72-21.72-8.18-22.46-21.49
		c-0.45-8.12-4.96-11.95-10.38-16.1c-22.55-17.29-45.35-34.28-67.39-52.19c-7.76-6.3-13.13-6.04-21.03-0.47
		c-21.53,15.2-43.61,29.64-65.67,44.09c-11.67,7.64-23.5,13.52-25.41,30.68c-1.32,11.92-12.83,16.79-25.03,15.35
		c-12.29-1.45-21.41-8.93-20.4-21.01c1.09-13.07-5.52-19.76-13.63-27.03c-8.57-7.68-16.84-15.7-25.23-23.58
		c-8.24-7.74-15.33-15.19-29.14-14.81c-13.92,0.38-21.7-11.1-20.81-24.94c0.88-13.76,9.5-22.67,23.74-22.9
		c14.09-0.23,24.82,7.9,23.98,21.82c-0.81,13.38,6.38,19.59,14.16,26.93c10.35,9.75,20.23,20.04,31.05,29.23
		c13.25,11.26,27.78,14.25,43.36,3.78c28.62-19.24,57.64-37.9,85.88-57.67c10.44-7.31,18.03-8.11,28.31,0.58
		c19.1,16.15,39.44,30.84,59.3,46.09c31.36,24.09,42.71,24.5,75.97,2.83c6.23-4.06,12.11-8.85,18.76-12.05
		C706.47,484.59,711.48,476.54,706.98,459.35z M752.38,216.74c-52.15-0.17-94.87,42.92-95.2,96.03
		c-0.33,53.05,42.11,96.9,94.16,97.29c51.74,0.38,94.77-43.16,95.14-96.3C846.86,260.71,804.37,216.91,752.38,216.74z"/>
	<path class="st1" d="M508.77,681.19c-82.6,0-165.21-0.4-247.8,0.34c-16.29,0.15-19.29-5.26-20.86-20.82
		c-3.78-37.45,5.45-68.55,32.62-95.08c11.52-11.25,20.74-24.98,30.17-38.18c8.06-11.29,14.9-10.63,24.31-1.34
		c21.2,20.92,43.58,40.65,64.58,61.76c8.65,8.69,14.82,9.92,25.28,2.55c30.93-21.8,63.04-41.94,94.01-63.69
		c11.6-8.14,19.91-9.22,31.64,0.51c27.06,22.45,55.79,42.86,83.15,64.96c8.4,6.79,13.87,6.77,22.46,0.47
		c34.91-25.58,70.3-50.5,105.78-75.29c6.23-4.35,11.83-13.35,20.91-9.04c9.27,4.39,5.8,14.28,5.84,21.98
		c0.25,42.66-0.6,85.34,0.47,127.98c0.44,17.47-4.48,23.48-22.74,23.28C675.33,680.68,592.05,681.19,508.77,681.19z"/>
	<path class="st2" d="M465.79,299.54c0,19.63,0.73,39.29-0.26,58.87c-0.65,12.9,2.67,18,16.59,17.28
		c9.16-0.47,22.53-6.27,27.37,5.39c4.85,11.65-8.71,16.85-15.26,23.67c-22.5,23.42-45.97,45.9-68.54,69.25
		c-7.95,8.23-13.92,8.26-21.86,0.15c-26.03-26.6-52.5-52.77-78.78-79.12c-3.83-3.84-8.42-7.78-6.13-13.91
		c2.78-7.44,9.74-5.76,15.66-5.99c28.65-1.1,28.65-1.1,28.65-30.44c0-35.19,0.55-70.4-0.26-105.57
		c-0.33-14.42,4.86-19.09,18.88-18.51c21.62,0.89,43.35,1.13,64.93-0.06c15.8-0.87,19.97,5.5,19.23,20.12
		C465.05,260.25,465.79,279.91,465.79,299.54z"/>
	<path class="st0" d="M519.57,932.89c-37.93,0-75.85,0.09-113.78-0.08c-6.98-0.03-16.96,2.55-17.56-8.25
		c-0.63-11.37,9.53-8.96,16.49-9.25c27.53-1.15,28.43-1.09,27.51-29.64c-0.47-14.6,4.19-18.04,18.2-17.78
		c46.72,0.87,93.47,0.86,140.18,0.01c14.07-0.26,20.11,3.53,17.92,17.91c-0.61,3.97,0.34,8.17-0.17,12.17
		c-1.6,12.58,2.04,18.16,16.32,17.84c9.63-0.22,28.1-7.78,27.41,8.88c-0.63,15.29-18.8,7.51-28.91,7.8
		C588.67,933.52,554.11,932.89,519.57,932.89z"/>
	<path class="st2" d="M415.06,205.69c-2.7,0.01-5.4,0.01-8.09,0.01c-47.4,0-49.91-3.04-43.79-49.85
		c1.07-8.22,4.28-12.26,12.61-12.24c25.63,0.06,51.27,0.19,76.9-0.07c9.67-0.1,13.27,4.5,13.12,13.6
		c-0.19,11.47-0.42,22.96,0.08,34.4c0.46,10.54-4.1,14.61-14.39,14.25C439.36,205.36,427.21,205.68,415.06,205.69z"/>
	<path d="M522.46,355.67c-40.58,0-44.13-4.6-38.11-45.45c1.14-7.73,4.56-8.24,10.45-8.2c17.55,0.14,35.11,0.48,52.64-0.12
		c9.83-0.34,14,1.68,14.32,13.04C562.9,355.69,563.43,355.67,522.46,355.67z"/>
	<path class="st3" d="M540.1,800.01c-1.49,11.17-6.81,18.95-19.19,19.01c-12.19,0.06-19.08-7.04-19.27-18.69
		c-0.19-11.72,6.67-18.87,18.79-19.13C532.77,780.95,538.52,788.37,540.1,800.01z"/>
	<path class="st4" d="M752.38,216.74c51.99,0.17,94.48,43.98,94.1,97.02c-0.37,53.14-43.4,96.68-95.14,96.3
		c-52.05-0.39-94.5-44.24-94.16-97.29C657.52,259.65,700.23,216.57,752.38,216.74z"/>
</g>
</svg>
