<svg xmlns="http://www.w3.org/2000/svg" viewBox="0 0 1080 1080"><defs><style>.cls-1{fill:#010101;}.cls-2{fill:#e6e6e6;}.cls-3{fill:#eedc92;}.cls-4{fill:#ffbd11;}.cls-5{fill:maroon;}.cls-6{fill:#010303;}.cls-7{fill:#030606;}</style></defs><title>Mission</title><g id="Mission"><path class="cls-1" d="M130.2,928.74q58.13-100.11,116.25-200.22,42.38-73,84.65-146.11c9.7-16.73,22.48-16.9,32.65-.43q29.06,47.07,58.06,94.18c3-.88,3.51-3.5,4.68-5.4q46.86-76,93.69-151.92a21.42,21.42,0,0,0,3.08-12q-.1-176.05,0-352.12c0-18.37,4.67-23,23.29-23q121.8,0,243.6,0c6,0,11.72.43,16.18,5.1,6.12,6.41,6,14.57-.69,23-16.38,20.63-32.68,41.32-49.49,61.59-4.07,4.92-3.87,7.66.09,12.44,16.43,19.89,32.31,40.24,48.52,60.32,5,6.17,8.27,12.56,4.21,20.4-3.81,7.33-10.43,8.92-18.15,8.91-75.87-.1-151.74,0-227.62-.23-6.66,0-8.19,1.56-8.16,8.18.3,58.55.18,117.1.16,175.66,0,3.72.18,7.15,2.31,10.6q48.22,77.91,96.2,156c.52.85,1.17,1.63,1.84,2.56,2.83-1.45,3.55-4.16,4.87-6.29q27.24-44.06,54.34-88.19c9.86-16,23-16,32.31.13Q845.23,751.45,943.39,921c7.81,13.49,6.35,19.86-6.4,28.47H141.38c-4.76-3.35-9.36-6.85-11.18-12.77Zm635.89-11.36L539.2,548.77,312.3,917.38Zm-541.28.18c14.37,0,28.74-.22,43.11.12,4.85.11,7.71-1.43,10.24-5.55q60.82-99.27,122-198.32c2.85-4.6,2.64-7.78-.06-12.09-16.06-25.7-32-51.45-47.7-77.39-3.78-6.26-5.41-5.89-8.94.26Q294.4,710,244.9,795.09q-33.17,57.28-66.34,114.55c-1.27,2.2-4.16,4.41-2.73,7,1.19,2.12,4.39.89,6.67.9C196.61,917.6,210.71,917.56,224.81,917.56Zm679-.42c-1.54-2.94-2.63-5.25-3.91-7.46q-27.74-48-55.51-95.93Q789.39,718.89,734.5,624c-3.09-5.37-4.6-6.05-8-.36q-24.21,39.89-48.91,79.45c-2,3.26-2.37,5.68-.15,9.28q61.83,100.06,123.22,200.39c2.5,4.09,5.47,4.91,9.78,4.89,28.73-.14,57.47-.07,86.21-.09C898.64,917.54,900.69,917.32,903.77,917.14ZM761.49,163.71c-68.18,0-134.45.07-200.73-.14-5.69,0-5.66,2.58-5.65,6.7.09,38.06.24,76.11-.12,114.16-.06,6.43,2.17,7.17,7.7,7.15,63.88-.18,127.77-.1,191.65-.17,1.91,0,4.18,1,6.09-1.3l-38.32-47.93c-9.64-12.05-9.6-17.16.21-29.44Z"/><path class="cls-2" d="M130.2,936.73c1.82,5.92,6.42,9.42,11.18,12.77C130.2,949.5,130.2,949.5,130.2,936.73Z"/><path class="cls-3" d="M766.09,917.38H312.3L539.2,548.77ZM696,869.46c.25-4.39-2-8.28-4.41-12.15q-21.32-34.6-42.58-69.22-29.44-47.83-59-95.64c-5.89-9.48-15-12.07-23-7.19s-9.63,14.12-4.21,23.78c.65,1.16,1.34,2.3,2,3.43q49.49,80.4,99,160.79a37.55,37.55,0,0,0,6.26,8.17c5,4.53,10.89,5.36,17,2.38C692.91,881,696,876.37,696,869.46Zm-141-223.2c.14-8.32-7.09-15.84-15.47-16.1s-15.92,6.89-16.3,15.27c-.39,8.55,7.24,16.48,15.87,16.49C547.49,661.94,554.93,654.61,555.07,646.26Z"/><path class="cls-4" d="M224.81,917.56c-14.1,0-28.2,0-42.31,0-2.28,0-5.48,1.22-6.67-.9-1.43-2.56,1.46-4.77,2.73-7q33.12-57.3,66.34-114.55,49.35-85.22,98.57-170.5c3.53-6.15,5.16-6.52,8.94-.26,15.67,25.94,31.64,51.69,47.7,77.39,2.7,4.31,2.91,7.49.06,12.09q-61.26,99-122,198.32c-2.53,4.12-5.39,5.66-10.24,5.55C253.55,917.34,239.18,917.56,224.81,917.56Z"/><path class="cls-4" d="M903.77,917.14c-3.08.18-5.13.4-7.17.4-28.74,0-57.48,0-86.21.09-4.31,0-7.28-.8-9.78-4.89Q739.2,812.42,677.39,712.35c-2.22-3.6-1.88-6,.15-9.28q24.6-39.63,48.91-79.45c3.45-5.69,5-5,8,.36q54.75,95,109.85,189.77,27.78,48,55.51,95.93C901.14,911.89,902.23,914.2,903.77,917.14Z"/><path class="cls-5" d="M761.49,163.71l-39.17,49c-9.81,12.28-9.85,17.39-.21,29.44l38.32,47.93c-1.91,2.33-4.18,1.3-6.09,1.3-63.88.07-127.77,0-191.65.17-5.53,0-7.76-.72-7.7-7.15.36-38.05.21-76.1.12-114.16,0-4.12,0-6.72,5.65-6.7C627,163.78,693.31,163.71,761.49,163.71Z"/><path class="cls-6" d="M696,869.46c0,6.91-3.13,11.55-8.86,14.35-6.11,3-12,2.15-17-2.38a37.55,37.55,0,0,1-6.26-8.17q-49.56-80.37-99-160.79c-.7-1.13-1.39-2.27-2-3.43-5.42-9.66-3.77-18.95,4.21-23.78s17.12-2.29,23,7.19q29.64,47.73,59,95.64,21.3,34.6,42.58,69.22C694,861.18,696.29,865.07,696,869.46Z"/><path class="cls-7" d="M555.07,646.26c-.14,8.35-7.58,15.68-15.9,15.66-8.63,0-16.26-7.94-15.87-16.49.38-8.38,8-15.52,16.3-15.27S555.21,637.94,555.07,646.26Z"/></g></svg>