<svg width="63" height="59" viewBox="0 0 63 59" fill="none" xmlns="http://www.w3.org/2000/svg">
<path d="M36.3921 6.03552C36.8803 6.03552 37.2792 6.43441 37.2792 6.92257V6.98563C38.8252 7.20173 40.2266 7.91307 41.2886 8.95387C42.5399 10.1803 43.3228 11.863 43.3228 13.7342L43.2633 16.0446L43.721 19.3576C43.7393 19.4647 43.7292 19.5748 43.6918 19.6768C43.6544 19.7789 43.5909 19.8694 43.5077 19.9393L43.5644 20.0059L43.6692 20.1313L43.2073 20.7427L43.1988 20.7647L43.1967 20.7718C43.0557 21.1317 42.8665 21.459 42.6476 21.7006C42.4641 21.8969 42.2579 22.0379 42.034 22.0931C41.9908 22.232 41.9426 22.3751 41.9079 22.5161C41.6585 23.3571 41.4622 24.0189 40.9436 24.6764C40.8302 24.8195 40.7098 24.9576 40.5816 25.0887C40.4946 25.1806 40.4038 25.2687 40.3095 25.353C40.3244 25.5124 40.323 26.911 40.3201 27.3099L40.1671 27.3467C39.832 28.5306 38.8294 29.2987 37.6483 29.6607C36.976 29.8669 36.2441 29.942 35.5462 29.8881C34.8434 29.8343 34.171 29.648 33.624 29.3341C32.856 28.8927 32.3303 28.2012 32.2927 27.266V27.2015L32.1262 27.1561V25.3608L32.1298 25.173C31.6515 24.7401 31.2597 24.1655 30.9962 23.581C30.8127 23.1736 30.6667 22.7329 30.4974 22.2341L30.4095 21.9748C30.2182 21.95 30.0397 21.8615 29.8788 21.7304C29.6769 21.5646 29.5033 21.323 29.3623 21.0438C29.2674 20.8568 29.0796 20.5762 29.0116 19.9931C28.8076 19.8684 28.685 19.6304 28.7197 19.3781L29.1803 16.0616L29.0513 14.0317C29.0421 13.8844 29.0371 13.7498 29.0371 13.6293C29.0371 11.8212 29.8151 10.1973 31.0458 8.99921C32.2141 7.86064 33.7955 7.10679 35.5051 6.94737V6.92257C35.5051 6.43441 35.904 6.03552 36.3921 6.03552Z" fill="black"/>
<path d="M37.0373 29.3284C38.0724 29.0974 39.0126 28.52 39.471 27.6322C39.6184 27.2858 39.9889 27.0725 40.3758 27.1398C40.9858 27.2468 41.3571 27.307 41.7319 27.3665C46.1862 28.0843 50.4125 28.7658 51.5801 34.424L52.8405 41.2377C52.8597 41.3078 52.8703 41.3808 52.8703 41.4566C52.8703 41.9143 52.499 42.2849 52.0421 42.2849H20.3966C20.3533 42.2827 20.3087 42.2792 20.2641 42.2721C19.8142 42.1991 19.5081 41.7747 19.5811 41.3241L20.522 35.5831C21.8518 28.8211 25.3781 28.1211 30.4864 27.1072C31.0242 27.0009 31.5768 26.8911 32.0083 26.8004C32.4497 26.7097 32.884 26.9896 32.9818 27.431C33.1554 28.209 33.6549 28.751 34.3024 29.0705C34.6914 29.2625 35.1321 29.3787 35.5905 29.4219C36.0673 29.4666 36.5612 29.434 37.0373 29.3284Z" fill="black"/>
<path d="M39.6789 25.4914C37.3635 27.2931 35.0743 27.1217 32.8064 25.507L32.7957 27.3016C33.0352 30.0847 38.9987 30.2412 39.6789 27.3838V25.4914ZM42.9657 20.2003C42.9076 20.1315 42.8502 20.0635 42.7914 19.9962L42.7517 19.9707C41.1944 18.8739 38.7075 18.327 36.2093 18.327C33.7834 18.327 31.3794 18.8421 29.8398 19.8666L30.0552 20.8202L30.7652 21.5641L31.2044 22.0374C32.4394 27.2046 39.9942 27.5291 41.3163 22.0374L42.0935 21.3615L42.9657 20.2003Z" fill="#F6F2E0"/>
<path d="M43.1075 19.4613L42.6938 16.4643C42.6477 16.4622 42.6017 16.4516 42.557 16.4324C40.2941 15.4455 38.1126 15.0409 36.0012 15.087C33.8884 15.1337 31.8373 15.6332 29.8407 16.4537C29.8096 16.4664 29.7777 16.4749 29.7458 16.4792L29.332 19.4613C32.6068 17.1246 39.7712 17.1112 43.1075 19.4613ZM42.6527 15.6318L42.698 13.891C42.7901 10.3641 39.8116 7.53357 36.2832 7.53357H36.1833C32.5997 7.53357 29.4397 10.4151 29.6679 13.9916L29.7734 15.6467C31.7828 14.8461 33.8495 14.3615 35.9863 14.3147C38.1388 14.2672 40.3578 14.6647 42.6527 15.6318ZM36.2194 10.2075C37.0781 10.2075 37.7746 10.9039 37.7746 11.7627C37.7746 12.6207 37.0781 13.3164 36.2194 13.3164C35.3607 13.3164 34.665 12.6207 34.665 11.7627C34.665 10.9039 35.3607 10.2075 36.2194 10.2075Z" fill="#800000"/>
<path d="M40.2352 27.9553C39.6514 29.1392 38.4335 29.8874 37.1143 30.1552V33.9996H35.3288L35.3274 30.2218C33.8395 30.0256 32.5274 29.1782 32.1781 27.6096C26.5667 28.7935 22.6848 28.882 21.3365 35.7418L21.0155 37.6952H27.8583V34.2199C27.8583 34.0074 28.0312 33.8345 28.2437 33.8345C28.4563 33.8345 28.6292 34.0074 28.6292 34.2199V41.4566H43.7742V34.2199C43.7742 34.0074 43.9471 33.8345 44.1597 33.8345C44.3722 33.8345 44.5444 34.0074 44.5444 34.2199V37.6952H51.3489L50.7828 34.6323C49.6293 28.9338 44.883 28.7694 40.2352 27.9553ZM20.7116 39.5486L20.3984 41.4566H27.8583V39.5486H20.7116ZM44.5444 41.4566H52.0439L51.6911 39.5486H44.5444V41.4566Z" fill="#6ECAD9"/>
<path d="M17.0478 45.2169C17.3471 44.2956 18.6505 44.2956 18.9499 45.2169L19.632 47.3162C19.7659 47.7282 20.1498 48.0072 20.5831 48.0072H22.7904C23.7591 48.0072 24.1619 49.2468 23.3782 49.8162L21.5924 51.1136C21.2419 51.3683 21.0953 51.8196 21.2291 52.2317L21.9112 54.331C22.2106 55.2523 21.1561 56.0184 20.3724 55.449L18.5866 54.1516C18.2361 53.8969 17.7615 53.8969 17.411 54.1516L15.6253 55.449C14.8415 56.0184 13.7871 55.2523 14.0864 54.331L14.7685 52.2317C14.9024 51.8196 14.7557 51.3683 14.4053 51.1136L12.6195 49.8162C11.8358 49.2468 12.2385 48.0072 13.2073 48.0072H15.4146C15.8478 48.0072 16.2318 47.7282 16.3657 47.3162L17.0478 45.2169Z" fill="#FEBE00"/>
<path d="M35.1729 45.2169C35.4722 44.2956 36.7757 44.2956 37.075 45.2169L37.7571 47.3162C37.891 47.7282 38.2749 48.0072 38.7082 48.0072H40.9155C41.8842 48.0072 42.287 49.2468 41.5033 49.8162L39.7175 51.1136C39.367 51.3683 39.2204 51.8196 39.3543 52.2317L40.0364 54.331C40.3357 55.2523 39.2812 56.0184 38.4975 55.449L36.7117 54.1516C36.3612 53.8969 35.8867 53.8969 35.5362 54.1516L33.7504 55.449C32.9667 56.0184 31.9122 55.2523 32.2115 54.331L32.8937 52.2317C33.0275 51.8196 32.8809 51.3683 32.5304 51.1136L30.7446 49.8162C29.9609 49.2468 30.3637 48.0072 31.3324 48.0072H33.5397C33.973 48.0072 34.3569 47.7282 34.4908 47.3162L35.1729 45.2169Z" fill="#FEBE00"/>
<path d="M53.2978 45.2167C53.5971 44.2954 54.9005 44.2954 55.1999 45.2167L55.882 47.316C56.0159 47.728 56.3998 48.007 56.8331 48.007H59.0404C60.0091 48.007 60.4119 49.2466 59.6282 49.816L57.8424 51.1134C57.4919 51.3681 57.3453 51.8194 57.4791 52.2315L58.1612 54.3308C58.4606 55.2521 57.4061 56.0182 56.6224 55.4488L54.8366 54.1514C54.4861 53.8967 54.0115 53.8967 53.661 54.1514L51.8753 55.4488C51.0915 56.0182 50.0371 55.2521 50.3364 54.3308L51.0185 52.2315C51.1524 51.8194 51.0057 51.3681 50.6553 51.1134L48.8695 49.816C48.0858 49.2466 48.4885 48.007 49.4573 48.007H51.6646C52.0978 48.007 52.4818 47.728 52.6157 47.316L53.2978 45.2167Z" fill="#FEBE00"/>
<ellipse cx="12.6883" cy="12.7741" rx="12.1219" ry="12.1219" fill="#FDDA6D"/>
</svg>
