<svg width="40" height="40" viewBox="0 0 40 40" fill="none" xmlns="http://www.w3.org/2000/svg">
<g id="material-symbols:music-video">
<path id="Vector" d="M17.4987 28.3341C18.6654 28.3341 19.6515 27.9313 20.457 27.1258C21.2626 26.3202 21.6654 25.3341 21.6654 24.1674V15.0008H26.6654V11.6674H19.9987V20.8341C19.6376 20.5841 19.2487 20.3824 18.832 20.2291C18.4154 20.0769 17.9709 20.0008 17.4987 20.0008C16.332 20.0008 15.3459 20.4035 14.5404 21.2091C13.7348 22.0146 13.332 23.0008 13.332 24.1674C13.332 25.3341 13.7348 26.3202 14.5404 27.1258C15.3459 27.9313 16.332 28.3341 17.4987 28.3341ZM6.66536 33.3341C5.7487 33.3341 4.96425 33.008 4.31203 32.3558C3.6587 31.7024 3.33203 30.9174 3.33203 30.0008V10.0008C3.33203 9.08409 3.6587 8.29964 4.31203 7.64742C4.96425 6.99409 5.7487 6.66742 6.66536 6.66742H33.332C34.2487 6.66742 35.0337 6.99409 35.687 7.64742C36.3393 8.29964 36.6654 9.08409 36.6654 10.0008V30.0008C36.6654 30.9174 36.3393 31.7024 35.687 32.3558C35.0337 33.008 34.2487 33.3341 33.332 33.3341H6.66536Z" fill="#800000"/>
</g>
</svg>
