<?xml version="1.0" encoding="utf-8"?>
<!-- Generator: Adobe Illustrator 24.0.1, SVG Export Plug-In . SVG Version: 6.00 Build 0)  -->
<svg version="1.1" id="Layer_1" xmlns="http://www.w3.org/2000/svg" xmlns:xlink="http://www.w3.org/1999/xlink" x="0px" y="0px"
	 viewBox="0 0 1080 1080" style="enable-background:new 0 0 1080 1080;" xml:space="preserve">
<style type="text/css">
	.st0{fill:#EEDC92;}
	.st1{fill:#800000;}
	.st2{fill:#FFBD11;}
	.st3{fill:#028A7E;}
</style>
<g>
	<path class="st0" d="M127.31,451.92c0-2.45,0-4.89,0-7.34c2.91-0.5,3.36-2.86,4.24-5.16c13.91-36.39,41.22-52.63,79.34-52.63
		c218.21,0.01,436.42-0.01,654.62,0.04c16.65,0,32.79,2.53,47.2,11.79c26.91,17.29,35.71,43.13,35.67,73.67
		c-0.16,130.18-0.07,260.36-0.07,390.54c0,53.7-14.71,74.32-65.31,91.6c-229.88,0-459.77,0-689.65,0
		c-14.6-4.42-28.66-9.49-40.64-19.78c-12.42-10.66-16.38-26.32-25.39-38.91c0-2.45,0-4.89,0-7.34c6.02-3.84,3.54-9.91,3.54-15.01
		c0.13-135.49,0.13-270.98,0-406.48C130.85,461.83,133.34,455.75,127.31,451.92z M449.1,672.66c0,40.89,0.06,81.78-0.04,122.67
		c-0.03,12.41,3,23.33,15.13,28.88c11.5,5.25,22.08,2.6,32.48-4.63c58.47-40.65,117.25-80.83,175.76-121.42
		c23.5-16.3,23.26-35.63-0.51-52.28c-57.34-40.16-114.89-80.03-172.22-120.2c-11.03-7.73-22.33-13.25-35.55-6.6
		c-13.4,6.74-15.17,19.32-15.12,32.73C449.19,592.1,449.1,632.38,449.1,672.66z"/>
	<path class="st0" d="M127.31,451.92c6.02,3.84,3.54,9.91,3.54,15.01c0.13,135.49,0.13,270.98,0,406.48c0,5.1,2.48,11.18-3.54,15.01
		C127.31,742.92,127.31,597.42,127.31,451.92z"/>
	<path class="st1" d="M449.1,672.66c0-40.28,0.09-80.56-0.06-120.84c-0.05-13.41,1.72-25.99,15.12-32.73
		c13.22-6.65,24.52-1.13,35.55,6.6c57.34,40.17,114.88,80.04,172.22,120.2c23.77,16.65,24.01,35.99,0.51,52.28
		c-58.51,40.58-117.3,80.77-175.76,121.42c-10.4,7.23-20.99,9.89-32.48,4.63c-12.13-5.55-15.16-16.47-15.13-28.88
		C449.16,754.44,449.1,713.55,449.1,672.66z"/>
	<path class="st2" d="M538.23,342.05c-104.42,0-208.84-0.22-313.25,0.29c-12.82,0.06-16.9-1.94-17.49-16.38
		c-2.5-61.03,16.34-70.68,69.46-70.32c178.3,1.22,356.61,0.46,534.91,0.47c43.49,0,56.43,13.07,56.44,56.89
		c0,29.06,0,29.06-29.64,29.06C738.52,342.05,638.38,342.05,538.23,342.05z"/>
	<path class="st3" d="M537.14,213.89c-77.6,0-155.2-0.33-232.79,0.32c-12.82,0.11-15.37-3.22-16.12-15.9
		c-3.77-63.11,21.22-70.04,68.43-69.58c125.24,1.23,250.5,0.41,375.76,0.42c40.68,0,55.18,14.38,55.19,54.66
		c0.01,30.08,0.01,30.08-30.51,30.08C683.78,213.89,610.46,213.89,537.14,213.89z"/>
</g>
</svg>
