<?xml version="1.0" encoding="utf-8"?>
<!-- Generator: Adobe Illustrator 24.0.1, SVG Export Plug-In . SVG Version: 6.00 Build 0)  -->
<svg version="1.1" id="Layer_1" xmlns="http://www.w3.org/2000/svg" xmlns:xlink="http://www.w3.org/1999/xlink" x="0px" y="0px"
	 viewBox="0 0 1080 1080" style="enable-background:new 0 0 1080 1080;" xml:space="preserve">
<style type="text/css">
	.st0{fill:#EDDC92;}
	.st1{fill:#800000;}
	.st2{fill:#0B7EEB;}
</style>
<g>
	<path d="M748.46,851.8v-45.23H331.5v45.23c0,25.57,21.18,46.2,46.66,46.2h323.65C727.31,897.99,748.46,877.36,748.46,851.8z
		 M544.61,888.01c-9.32,0-18.26-3.71-24.85-10.33c-6.6-6.61-10.29-15.59-10.29-24.94c0-9.35,3.7-18.33,10.29-24.94
		s15.54-10.33,24.87-10.33c9.32,0,18.26,3.71,24.85,10.33c6.59,6.61,10.29,15.59,10.29,24.94c-0.02,9.35-3.71,18.32-10.3,24.94
		C562.86,884.27,553.94,887.99,544.61,888.01z"/>
	<path class="st0" d="M330.71,287.64h418.58v504.7H330.71V287.64z"/>
	<path d="M748.46,228.2c0-25.57-21.18-46.2-46.66-46.2H378.16c-25.48,0-46.66,20.64-46.66,46.2v46.78h416.95L748.46,228.2z
		 M570.52,237.8h-61.03c-5.12,0-9.26-4.16-9.26-9.3c0-5.14,4.15-9.3,9.26-9.3h61.03c5.12,0,9.26,4.16,9.26,9.3
		C579.78,233.62,575.63,237.8,570.52,237.8z"/>
</g>
<g>
	<path class="st1" d="M539.2,517.06c7.23-3.97,14.55-7.77,21.66-11.94c29.1-17.05,54.36-38.71,76.49-64.13
		c13.37-15.36,27.02-30.49,40.54-45.73c0.69-0.78,1.32-1.61,2.39-2.91c-7.95,0-15.3,0.03-22.65-0.01c-4.9-0.02-9.04-3.45-9.74-7.96
		c-0.79-5.02,1.79-9.39,6.46-11.18c1.28-0.49,2.55-0.47,3.85-0.47c11.65-0.01,23.31,0.26,34.95-0.12
		c5.97-0.19,10.57,1.25,13.51,6.65c0,15.26,0,30.53,0,45.79c-2.46,3.88-5.38,6.93-10.56,6.57c-4.78-0.34-8.85-4.26-9.03-9.06
		c-0.09-2.27-0.02-4.55-0.02-7.12c-1.38,0.52-1.92,1.61-2.67,2.43c-19.4,21.17-37.36,43.69-58.44,63.3
		c-25.26,23.5-53.61,42.41-85.07,56.6c-0.48,0.22-1.02,0.3-1.53,0.44C539.29,531.17,539.25,524.12,539.2,517.06z"/>
	<path d="M706.65,694.57v5.89c-1.35,3.44-3.78,5.8-7.19,7.19H378.54c-0.3-0.98-1.29-1.05-1.98-1.51c-3.64-2.45-5.35-6.72-4.26-10.75
		c1.16-4.27,4.76-7.19,9.24-7.34c3.57-0.12,7.15-0.09,10.72-0.13h137.27c3.27,0.07,6.54,0.14,9.81,0.22
		c3.26-0.08,6.53-0.15,9.79-0.22h137.26c2.5,0.04,5.03,0.34,7.49,0.05C699.7,687.29,703.85,689.55,706.65,694.57z"/>
	<path class="st2" d="M686.42,468.65c-0.04,73.09-0.03,146.18-0.03,219.27h-58.83c0-58.75,0.03-117.49-0.05-176.24
		c0-4.24,1.28-7.49,4.44-10.35c8.8-7.97,16.96-16.6,24.98-25.34c4.05-5.4,8.54-10.44,13.23-15.26c2.93-3.03,6.87-3.19,10.61-1.5
		C684.7,461.01,686.43,464.24,686.42,468.65z"/>
	<path class="st2" d="M607.96,687.92h-58.83c0-40.99,0.05-81.97-0.06-122.96c-0.01-5.47,2.1-9.01,7.01-11.35
		c7.77-3.7,15.04-8.3,22.47-12.62c4.84-3.11,9.59-6.35,14.54-9.28c6.88-4.06,14.85,0.69,14.86,8.77
		C607.97,589.62,607.96,638.77,607.96,687.92z"/>
	<path class="st2" d="M529.53,687.92H470.7v-94.43c0-7.4,2.37-10.4,9.5-12.25c6.62-1.72,13.21-3.54,19.82-5.32
		c5.73-1.9,11.41-4.01,17.21-5.66c6.38-1.81,12.28,2.94,12.28,9.64C529.53,615.91,529.52,651.91,529.53,687.92z"/>
	<path class="st1" d="M539.2,517.06c0.05,7.06,0.1,14.11,0.15,21.17c-16.33,7.81-33.41,13.55-50.87,18.15
		c-28.14,7.42-56.79,10.86-85.88,10.48c-7.17-0.09-14.35-0.68-21.51-1.17c-5.55-0.38-9.42-4.93-9.06-10.37
		c0.36-5.43,4.8-9.5,10.32-9.1c9.45,0.68,18.9,1.26,28.37,1.15c43.37-0.52,84.68-10.07,124-28.34
		C536.2,518.33,537.7,517.71,539.2,517.06z"/>
	<path class="st2" d="M451.09,671.26v16.66h-58.83V602.1c0.01-7.93,3.56-11.46,11.52-11.6c5.97-0.1,11.94-0.32,17.91-0.49
		c6.38-0.65,12.74-1.4,19.13-1.9c5.54-0.42,10.26,4.39,10.26,10.28C451.1,622.68,451.09,646.97,451.09,671.26z"/>
</g>
</svg>
