<svg width="40" height="40" viewBox="0 0 40 40" fill="none" xmlns="http://www.w3.org/2000/svg">
<g id="zondicons:photo">
<path id="Vector" d="M3.33203 10.0008C3.33203 8.16742 4.83203 6.66742 6.66536 6.66742H33.332C34.2161 6.66742 35.0639 7.01861 35.6891 7.64373C36.3142 8.26885 36.6654 9.1167 36.6654 10.0008V30.0008C36.6654 30.8848 36.3142 31.7327 35.6891 32.3578C35.0639 32.9829 34.2161 33.3341 33.332 33.3341H6.66536C5.78131 33.3341 4.93346 32.9829 4.30834 32.3578C3.68322 31.7327 3.33203 30.8848 3.33203 30.0008V10.0008ZM21.6654 25.0008L16.6654 20.0008L6.66536 30.0008H33.332L24.9987 21.6674L21.6654 25.0008ZM28.332 18.3341C29.2161 18.3341 30.0639 17.9829 30.6891 17.3578C31.3142 16.7327 31.6654 15.8848 31.6654 15.0008C31.6654 14.1167 31.3142 13.2689 30.6891 12.6437C30.0639 12.0186 29.2161 11.6674 28.332 11.6674C27.448 11.6674 26.6001 12.0186 25.975 12.6437C25.3499 13.2689 24.9987 14.1167 24.9987 15.0008C24.9987 15.8848 25.3499 16.7327 25.975 17.3578C26.6001 17.9829 27.448 18.3341 28.332 18.3341Z" fill="#800000"/>
</g>
</svg>
