<svg width="38" height="36" viewBox="0 0 38 36" fill="none" xmlns="http://www.w3.org/2000/svg">
<path d="M9.5 36C9.14006 36 8.79487 35.8541 8.54036 35.5945C8.28584 35.3348 8.14286 34.9826 8.14286 34.6154V29.0769H6.10714C4.48798 29.0751 2.93565 28.418 1.79072 27.25C0.645802 26.0819 0.00179608 24.4981 0 22.8462V6.23077C0.00179608 4.57883 0.645802 2.99507 1.79072 1.82697C2.93565 0.658875 4.48798 0.00183244 6.10714 0H31.8929C33.512 0.00183244 35.0644 0.658875 36.2093 1.82697C37.3542 2.99507 37.9982 4.57883 38 6.23077V22.8462C37.9982 24.4981 37.3542 26.0819 36.2093 27.25C35.0644 28.418 33.512 29.0751 31.8929 29.0769H18.1297L10.3694 35.6789C10.1252 35.8862 9.81764 35.9997 9.5 36Z" fill="#800000"/>
</svg>
