<?xml version="1.0" encoding="utf-8"?>
<!-- Generator: Adobe Illustrator 24.0.1, SVG Export Plug-In . SVG Version: 6.00 Build 0)  -->
<svg version="1.1" id="Layer_1" xmlns="http://www.w3.org/2000/svg" xmlns:xlink="http://www.w3.org/1999/xlink" x="0px" y="0px"
	 viewBox="0 0 1080 1080" style="enable-background:new 0 0 1080 1080;" xml:space="preserve">
<style type="text/css">
	.st0{fill:#EDDC92;}
	.st1{fill:#800000;}
	.st2{fill:#FEC210;}
	.st3{fill:#FFFFFF;}
</style>
<g>
	<path class="st0" d="M428.05,616.98v46.86c33.58-1.94,62.92-20.06,80.43-46.86H428.05z"/>
	<path class="st0" d="M416.23,616.98h-80.43c17.51,26.82,46.84,44.92,80.43,46.86L416.23,616.98L416.23,616.98z"/>
	<path class="st1" d="M320.02,645.68c24.41,29.58,61.09,48.4,102.13,48.4c73.48,0,133.02-60.28,133.02-134.67h8.14
		c0-101.08-45.59-183.33-141.17-183.33c-82.96,0-128.24,61.97-138.76,144.41L320.02,645.68z M291.81,543.69h260.67
		c0,10.75-58.36,19.46-130.34,19.46C350.16,563.13,291.81,554.42,291.81,543.69z M422.16,676.14c-63.57,0-115.3-52.36-115.3-116.71
		h11.82c0,16.37,3.84,31.8,10.47,45.61h186.01c6.64-13.81,10.47-29.25,10.47-45.61h11.82C537.45,623.78,485.72,676.14,422.16,676.14
		z"/>
	<path d="M349.37,784.03l-100.64,30.17L119.16,422.9c0,0,1.32-28.73,43.25-41.27c41.94-12.57,57.4,11.11,57.4,11.11L349.37,784.03z"
		/>
	<path d="M267.94,828.66l73.13-21.93l-8.26,24.54l13.07,44.71h-48.65l-9.16-31.3L267.94,828.66z"/>
	<path class="st2" d="M347.68,831.58l6.6-19.57l53.63-65.41l-27.59-30.95l83.75-0.01l-27.59,30.95l57.65,70.33l12.81-101.28h29.49
		c0.82,0,1.62,0.06,2.42,0.11c0.2,0.01,0.4,0.02,0.59,0.04c16.69,0.42,49.01,5.91,82.09,37.38C650.55,780.78,673.05,821.8,689,876
		h-99.94c-2.27-5.85-4.59-11.22-6.94-16.15V876H360.66L347.68,831.58z"/>
	<path class="st2" d="M262.28,875.99v-16.11c-2.36,4.9-4.7,10.26-7,16.11h-99.83c14.98-50.85,35.78-90.14,62.19-117.5l21.54,73.63
		l7.37-2.21l29.19,23.24l6.69,22.84L262.28,875.99L262.28,875.99z"/>
</g>
<path class="st3" d="M899.97,883H610.03c-19.34,0-35.03-15.68-35.03-35.03V722.03c0-19.34,15.68-35.03,35.03-35.03h289.95
	c19.34,0,35.03,15.68,35.03,35.03v125.95C935,867.32,919.32,883,899.97,883z"/>
<g>
	<path d="M947.85,836.09v-39.07H587.68v39.07c0,22.08,18.3,39.91,40.3,39.91h279.56C929.58,875.99,947.85,858.18,947.85,836.09z
		 M771.76,867.37c-8.05,0-15.77-3.21-21.47-8.92c-5.7-5.71-8.89-13.47-8.89-21.55c0-8.08,3.2-15.83,8.89-21.55
		c5.69-5.71,13.42-8.92,21.48-8.92c8.05,0,15.77,3.21,21.47,8.92c5.69,5.71,8.89,13.47,8.89,21.55c-0.01,8.08-3.21,15.83-8.9,21.54
		C787.53,864.14,779.82,867.36,771.76,867.37z"/>
	<path class="st0" d="M587,348.77h361.57v435.96H587V348.77z"/>
	<path d="M947.85,297.43c0-22.08-18.3-39.91-40.3-39.91H627.99c-22.01,0-40.3,17.82-40.3,39.91v40.41h360.16L947.85,297.43z
		 M794.15,305.72h-52.72c-4.42,0-8-3.59-8-8.03s3.58-8.03,8-8.03h52.72c4.42,0,8,3.59,8,8.03
		C802.14,302.11,798.56,305.72,794.15,305.72z"/>
</g>
<g>
	<path class="st1" d="M659.28,734.94c-0.39-0.9-1.35-0.84-2.05-1.2c-4.87-2.47-7.15-7.13-6.23-13.05c0.71-4.58,1.4-9.17,2.41-13.69
		c0.52-2.34-0.11-3.85-1.76-5.39c-3.4-3.16-6.66-6.46-10-9.69c-3.5-3.38-4.96-7.4-3.46-12.12c1.48-4.67,4.8-7.35,9.68-8.04
		c4.77-0.68,9.53-1.44,14.32-2.03c2.03-0.25,3.38-1.06,4.27-2.99c1.98-4.28,4.16-8.48,6.22-12.72c2.17-4.47,5.55-7.13,10.66-7.16
		c5.24-0.03,8.66,2.71,10.87,7.27c2.02,4.17,4.18,8.27,6.07,12.49c0.92,2.06,2.32,2.86,4.45,3.13c4.97,0.63,9.92,1.36,14.86,2.18
		c4.53,0.75,7.53,3.44,8.91,7.78c1.34,4.23,0.54,8.13-2.56,11.33c-3.62,3.73-7.36,7.35-11.13,10.92c-1.35,1.27-1.88,2.56-1.53,4.42
		c0.91,4.83,1.66,9.69,2.46,14.53c1.09,6.64-2.06,11.64-8.5,13.56c-0.22,0.07-0.38,0.32-0.57,0.49c-1.67,0-3.34,0-5.02,0
		c-5.18-2.76-10.39-5.47-15.52-8.32c-1.89-1.05-3.46-1.07-5.4-0.02c-5.4,2.92-10.73,5.99-16.42,8.34
		C662.62,734.94,660.95,734.94,659.28,734.94z M683.33,716.62c2.27,0.06,4.35,0.77,6.34,1.83c4.33,2.31,8.66,4.61,13,6.9
		c1.11,0.59,2.24,0.97,3.37,0.02c1.05-0.89,1.12-1.97,0.88-3.27c-0.92-5.11-1.75-10.23-2.6-15.35c-0.69-4.17,0.63-7.66,3.63-10.58
		c3.46-3.36,6.91-6.75,10.38-10.09c1.1-1.06,2.22-2.11,1.6-3.82c-0.57-1.58-2.06-1.68-3.44-1.89c-4.86-0.71-9.72-1.44-14.59-2.12
		c-4.31-0.61-7.28-2.98-9.18-6.82c-2.17-4.4-4.35-8.79-6.5-13.2c-0.63-1.29-1.22-2.53-2.97-2.46c-1.6,0.07-2.14,1.27-2.72,2.44
		c-2.13,4.31-4.28,8.62-6.37,12.95c-1.96,4.05-5.04,6.52-9.57,7.13c-4.87,0.65-9.73,1.4-14.59,2.1c-1.41,0.2-2.81,0.47-3.32,2.07
		c-0.48,1.51,0.54,2.42,1.48,3.34c3.59,3.5,7.18,6.99,10.75,10.52c3.14,3.1,4.26,6.82,3.43,11.18c-0.88,4.64-1.67,9.31-2.42,13.97
		c-0.23,1.42-0.67,2.98,0.93,4.04c1.46,0.97,2.64,0.12,3.86-0.53c4.18-2.2,8.36-4.38,12.53-6.6
		C679.16,717.37,681.16,716.71,683.33,716.62z"/>
	<path class="st1" d="M650.81,593.47c0.76-4.43,1.61-9.93,2.67-15.39c0.39-1.98-0.07-3.35-1.5-4.7c-3.65-3.44-7.23-6.95-10.77-10.5
		c-3.39-3.39-4.5-7.46-2.91-12c1.53-4.39,4.71-6.98,9.38-7.66c4.77-0.69,9.53-1.51,14.32-2.07c2.3-0.26,3.65-1.23,4.6-3.34
		c1.91-4.21,4.07-8.31,6.1-12.47c2.19-4.47,5.64-7.1,10.72-7.08c5.08,0.01,8.51,2.65,10.68,7.14c2.06,4.25,4.27,8.43,6.23,12.73
		c0.88,1.94,2.15,2.75,4.21,3c4.97,0.61,9.92,1.37,14.86,2.17c4.52,0.73,7.6,3.33,9.03,7.67c1.39,4.21,0.69,8.14-2.4,11.37
		c-3.53,3.69-7.19,7.26-10.94,10.72c-1.7,1.57-2.2,3.18-1.76,5.41c0.93,4.73,1.66,9.5,2.48,14.25c0.79,4.65-0.74,8.47-4.45,11.27
		c-3.73,2.81-7.88,3.14-12.06,1.06c-4.39-2.19-8.75-4.45-13.01-6.9c-2.12-1.22-3.84-1.08-5.91,0.09c-4.36,2.45-8.76,4.85-13.29,6.94
		C659.2,608.81,650.62,603.14,650.81,593.47z M659.77,593.9c-0.09,3.08,1.63,4.2,4.18,2.91c4.46-2.26,8.9-4.56,13.28-6.97
		c4.09-2.24,8.11-2.28,12.2-0.11c4.41,2.35,8.83,4.69,13.25,7.03c1.11,0.59,2.23,0.99,3.36,0.05c1.06-0.88,1.14-1.96,0.91-3.26
		c-0.91-5.02-1.7-10.05-2.57-15.08c-0.76-4.39,0.6-8.02,3.78-11.07c3.42-3.28,6.78-6.61,10.19-9.9c1.1-1.06,2.23-2.09,1.63-3.81
		c-0.56-1.61-2.07-1.71-3.43-1.91c-4.4-0.65-8.81-1.31-13.22-1.83c-5.12-0.6-8.78-3.06-10.96-7.83c-1.92-4.21-4.07-8.31-6.1-12.47
		c-0.63-1.28-1.23-2.55-2.96-2.5c-1.58,0.05-2.15,1.25-2.74,2.43c-2.22,4.48-4.44,8.96-6.66,13.44c-1.81,3.66-4.66,5.95-8.73,6.56
		c-4.95,0.75-9.91,1.43-14.86,2.18c-1.45,0.22-3.05,0.32-3.61,2.08c-0.53,1.65,0.65,2.56,1.64,3.54c3.52,3.44,7.05,6.86,10.55,10.32
		c3.14,3.1,4.27,6.81,3.46,11.17C661.41,584,660.58,589.12,659.77,593.9z"/>
	<path class="st1" d="M650.81,469.8c0.76-4.45,1.6-9.95,2.67-15.4c0.38-1.97-0.04-3.35-1.48-4.7c-3.52-3.31-6.92-6.74-10.38-10.1
		c-3.59-3.48-4.98-7.61-3.32-12.4c1.6-4.62,5.02-7.15,9.91-7.78c4.78-0.62,9.53-1.47,14.32-2.06c1.88-0.23,3.02-1.05,3.82-2.73
		c2.07-4.34,4.26-8.63,6.35-12.97c2.17-4.5,5.64-7.13,10.69-7.13c5.04,0,8.53,2.6,10.7,7.11c2.09,4.34,4.31,8.61,6.36,12.97
		c0.8,1.7,1.91,2.5,3.79,2.74c5.06,0.63,10.11,1.39,15.14,2.2c4.4,0.7,7.49,3.2,8.98,7.38c1.52,4.26,0.88,8.32-2.28,11.64
		c-3.58,3.76-7.33,7.38-11.13,10.92c-1.54,1.43-2.03,2.88-1.64,4.92c0.92,4.83,1.66,9.69,2.5,14.53c0.8,4.65-0.7,8.47-4.4,11.28
		c-3.62,2.75-7.68,3.22-11.78,1.19c-4.56-2.25-9.06-4.66-13.52-7.11c-1.91-1.05-3.52-1-5.45,0.07c-4.53,2.52-9.09,5.02-13.8,7.15
		C659.07,485.04,650.63,479.32,650.81,469.8z M659.78,470.1c-0.15,3.22,1.56,4.32,4.29,2.93c4.46-2.26,8.88-4.59,13.28-6.96
		c3.99-2.16,7.95-2.19,11.95-0.08c4.42,2.33,8.83,4.68,13.25,7.01c1.1,0.58,2.21,1.03,3.38,0.17c1.23-0.91,1.21-2.09,0.96-3.49
		c-0.91-5.02-1.7-10.05-2.55-15.08c-0.72-4.29,0.63-7.83,3.72-10.81c3.54-3.41,7.04-6.87,10.58-10.29c0.98-0.94,1.78-1.93,1.35-3.39
		c-0.45-1.54-1.79-1.74-3.09-1.93c-4.59-0.67-9.17-1.38-13.77-1.95c-4.88-0.61-8.47-2.86-10.6-7.44c-2.02-4.36-4.27-8.63-6.38-12.95
		c-0.59-1.22-1.23-2.36-2.76-2.39c-1.55-0.03-2.22,1.12-2.81,2.32c-2.08,4.23-4.27,8.42-6.23,12.71c-2.18,4.77-5.85,7.18-10.98,7.77
		c-4.6,0.53-9.18,1.3-13.77,1.95c-1.35,0.19-2.56,0.57-2.97,2.08c-0.38,1.4,0.5,2.27,1.38,3.12c3.59,3.5,7.19,6.99,10.77,10.5
		c3.23,3.16,4.39,6.93,3.53,11.41C661.37,460.32,660.59,465.36,659.78,470.1z"/>
	<path class="st1" d="M820.88,666.1c-22.47,0-44.95,0-67.42-0.01c-1.02,0-2.06,0.04-3.05-0.14c-2.31-0.42-3.59-1.91-3.63-4.24
		c-0.04-2.34,1.21-3.85,3.51-4.35c0.89-0.2,1.84-0.19,2.77-0.19c45.14-0.01,90.27-0.01,135.41,0c0.93,0,1.87,0,2.77,0.16
		c2.34,0.41,3.64,1.98,3.66,4.25c0.02,2.39-1.31,4.03-3.8,4.4c-1,0.15-2.04,0.12-3.06,0.12C865.64,666.1,843.26,666.1,820.88,666.1z
		"/>
	<path class="st1" d="M821.02,528.65c22.29,0,44.58,0,66.87,0c0.84,0,1.67-0.03,2.51,0.02c2.67,0.18,4.5,1.95,4.54,4.33
		c0.04,2.25-1.65,4.12-4.13,4.48c-0.82,0.12-1.67,0.1-2.5,0.1c-44.95,0-89.9,0-134.85,0c-4.63,0-6.66-1.35-6.71-4.43
		c-0.05-3.11,1.97-4.5,6.57-4.5C775.88,528.65,798.45,528.65,821.02,528.65z"/>
	<path class="st1" d="M820.74,404.96c22.48,0,44.95,0,67.43,0c0.93,0,1.86-0.04,2.78,0.06c2.38,0.25,3.71,1.76,3.92,4
		c0.2,2.15-0.9,3.71-2.98,4.51c-1.08,0.42-2.19,0.35-3.3,0.35c-45.23,0-90.46,0-135.69,0.01c-1.21,0-2.43,0.05-3.55-0.5
		c-1.98-0.97-2.9-2.62-2.53-4.78c0.35-2.01,1.61-3.32,3.71-3.58c0.92-0.12,1.85-0.07,2.78-0.07
		C775.79,404.95,798.26,404.96,820.74,404.96z"/>
	<path class="st1" d="M821.14,686.42c22.57,0,45.14,0,67.71,0c1.48,0,3-0.16,4.26,0.88c1.39,1.14,2.11,2.61,1.7,4.42
		c-0.42,1.89-1.67,3.1-3.56,3.49c-0.98,0.2-2.03,0.13-3.05,0.13c-44.95,0-89.91,0-134.86,0c-0.65,0-1.3,0.03-1.95-0.01
		c-2.84-0.18-4.66-1.97-4.63-4.53c0.02-2.56,1.85-4.35,4.72-4.36c11.05-0.04,22.1-0.02,33.16-0.02
		C796.8,686.42,808.97,686.42,821.14,686.42z"/>
	<path class="st1" d="M820.89,443c-22.48,0-44.95,0-67.43,0c-0.93,0-1.87,0.07-2.78-0.06c-2.3-0.33-3.7-1.69-3.89-4.03
		c-0.19-2.35,1-3.92,3.22-4.59c0.86-0.26,1.83-0.23,2.75-0.23c45.32-0.01,90.65-0.01,135.97-0.01c0.56,0,1.12-0.03,1.67,0.01
		c2.61,0.2,4.48,2.03,4.53,4.39c0.05,2.49-1.88,4.42-4.66,4.49c-3.62,0.08-7.24,0.03-10.87,0.03C859.89,443,840.39,443,820.89,443z"
		/>
	<path class="st1" d="M820.89,557.82c22.48,0,44.95,0,67.43,0c0.93,0,1.87-0.07,2.78,0.07c2.21,0.33,3.94,2.32,3.81,4.46
		c-0.15,2.3-1.43,3.78-3.68,4.29c-0.8,0.18-1.66,0.1-2.5,0.1c-45.23,0-90.46,0-135.69,0c-0.74,0-1.49,0.05-2.23-0.04
		c-2.44-0.29-4.08-2.14-4.05-4.5c0.04-2.36,1.71-4.12,4.2-4.35c0.83-0.08,1.67-0.03,2.51-0.03
		C775.93,557.82,798.41,557.82,820.89,557.82z"/>
	<path class="st1" d="M800.54,463.32c15.78,0,31.56,0,47.34,0c0.84,0,1.68-0.04,2.5,0.04c2.53,0.23,4.26,1.93,4.37,4.22
		c0.11,2.36-1.64,4.27-4.28,4.6c-0.73,0.09-1.48,0.07-2.22,0.07c-31.65,0-63.3,0-94.95-0.01c-1.02,0-2.06,0-3.04-0.21
		c-2.29-0.5-3.52-2.03-3.47-4.37c0.05-2.33,1.35-3.81,3.66-4.22c0.99-0.18,2.03-0.13,3.05-0.13
		C769.17,463.32,784.85,463.32,800.54,463.32z"/>
	<path class="st1" d="M800.7,595.91c-15.78,0-31.56,0-47.34-0.01c-1.02,0-2.06,0.05-3.05-0.14c-2.17-0.42-3.41-1.83-3.54-4.03
		c-0.13-2.2,0.93-3.78,3.05-4.41c1.04-0.31,2.19-0.33,3.3-0.33c31.74-0.02,63.49-0.01,95.23-0.01c0.83,0,1.68-0.02,2.5,0.12
		c2.46,0.41,3.75,1.99,3.88,4.39c0.12,2.3-1.69,4.23-4.18,4.34c-3.61,0.15-7.24,0.08-10.86,0.08
		C826.69,595.92,813.7,595.91,800.7,595.91z"/>
	<path class="st1" d="M800.61,724.46c-15.78,0-31.56,0-47.34,0c-0.93,0-1.87,0.06-2.78-0.09c-2.19-0.34-3.48-1.71-3.71-3.89
		c-0.22-2.19,0.8-3.72,2.85-4.58c1.16-0.49,2.37-0.37,3.57-0.37c31.65,0,63.3,0,94.96,0c0.37,0,0.74-0.01,1.11,0
		c3.37,0.07,5.55,1.91,5.47,4.61c-0.08,2.66-2.08,4.3-5.41,4.31C833.1,724.47,816.85,724.46,800.61,724.46z"/>
	<path class="st0" d="M683.33,716.62c-2.17,0.09-4.17,0.75-6.08,1.77c-4.17,2.22-8.36,4.4-12.53,6.6c-1.23,0.65-2.4,1.5-3.86,0.53
		c-1.6-1.06-1.15-2.62-0.93-4.04c0.75-4.67,1.54-9.33,2.42-13.97c0.83-4.36-0.28-8.08-3.43-11.18c-3.57-3.52-7.17-7.01-10.75-10.52
		c-0.94-0.92-1.96-1.82-1.48-3.34c0.51-1.6,1.9-1.87,3.32-2.07c4.86-0.7,9.72-1.44,14.59-2.1c4.54-0.61,7.61-3.08,9.57-7.13
		c2.1-4.33,4.24-8.64,6.37-12.95c0.58-1.17,1.13-2.37,2.72-2.44c1.75-0.07,2.34,1.17,2.97,2.46c2.15,4.41,4.33,8.8,6.5,13.2
		c1.89,3.84,4.87,6.21,9.18,6.82c4.87,0.69,9.73,1.41,14.59,2.12c1.38,0.2,2.87,0.31,3.44,1.89c0.62,1.71-0.5,2.76-1.6,3.82
		c-3.48,3.35-6.92,6.73-10.38,10.09c-3,2.91-4.32,6.41-3.63,10.58c0.85,5.12,1.68,10.25,2.6,15.35c0.23,1.3,0.17,2.39-0.88,3.27
		c-1.12,0.95-2.26,0.57-3.37-0.02c-4.34-2.29-8.68-4.59-13-6.9C687.69,717.39,685.61,716.68,683.33,716.62z M679.3,705.54
		c1.31,0.1,2.42-0.68,3.44-1.69c4.39-4.39,8.81-8.76,13.16-13.2c2.22-2.26,2.33-4.72,0.48-6.65c-1.91-1.99-4.5-1.87-6.84,0.42
		c-2.65,2.59-5.35,5.15-7.84,7.89c-1.69,1.87-2.88,2.9-4.98,0.31c-1.64-2.03-4.47-1.83-6.2-0.18c-1.73,1.65-1.88,4.31-0.14,6.24
		c1.8,1.99,3.77,3.84,5.68,5.72C676.88,705.21,677.91,705.58,679.3,705.54z"/>
	<path class="st0" d="M659.77,593.9c0.82-4.78,1.64-9.91,2.59-15.01c0.81-4.37-0.32-8.08-3.46-11.17
		c-3.5-3.45-7.04-6.88-10.55-10.32c-0.99-0.97-2.17-1.88-1.64-3.54c0.56-1.76,2.16-1.86,3.61-2.08c4.95-0.74,9.91-1.43,14.86-2.18
		c4.07-0.62,6.92-2.9,8.73-6.56c2.21-4.48,4.43-8.96,6.66-13.44c0.58-1.18,1.16-2.38,2.74-2.43c1.73-0.05,2.33,1.22,2.96,2.5
		c2.03,4.16,4.18,8.26,6.1,12.47c2.18,4.76,5.83,7.22,10.96,7.83c4.42,0.52,8.82,1.18,13.22,1.83c1.36,0.2,2.87,0.29,3.43,1.91
		c0.6,1.72-0.54,2.75-1.63,3.81c-3.41,3.29-6.77,6.62-10.19,9.9c-3.18,3.05-4.54,6.68-3.78,11.07c0.87,5.02,1.67,10.06,2.57,15.08
		c0.23,1.3,0.16,2.38-0.91,3.26c-1.14,0.94-2.26,0.54-3.36-0.05c-4.42-2.34-8.84-4.68-13.25-7.03c-4.09-2.18-8.11-2.14-12.2,0.11
		c-4.38,2.41-8.82,4.71-13.28,6.97C661.4,598.1,659.68,596.98,659.77,593.9z M679.15,576.98c1.51,0.02,2.62-0.74,3.64-1.76
		c4.32-4.34,8.67-8.63,12.96-12.99c2.35-2.38,2.51-4.88,0.56-6.85c-1.95-1.97-4.46-1.82-6.85,0.51c-2.65,2.59-5.4,5.11-7.82,7.9
		c-1.79,2.07-2.97,2.55-4.99,0.2c-1.69-1.97-4.49-1.75-6.2-0.07c-1.71,1.69-1.81,4.29-0.05,6.24c1.74,1.92,3.64,3.69,5.48,5.53
		C676.79,576.6,677.9,576.98,679.15,576.98z"/>
	<path class="st1" d="M659.78,470.1c0.81-4.74,1.59-9.78,2.54-14.79c0.86-4.48-0.3-8.25-3.53-11.41c-3.58-3.51-7.18-7-10.77-10.5
		c-0.87-0.85-1.75-1.72-1.38-3.12c0.41-1.51,1.61-1.89,2.97-2.08c4.59-0.65,9.16-1.42,13.77-1.95c5.13-0.6,8.8-3,10.98-7.77
		c1.96-4.29,4.15-8.48,6.23-12.71c0.59-1.2,1.26-2.35,2.81-2.32c1.53,0.03,2.17,1.17,2.76,2.39c2.11,4.32,4.36,8.59,6.38,12.95
		c2.12,4.58,5.71,6.83,10.6,7.44c4.6,0.57,9.18,1.28,13.77,1.95c1.29,0.19,2.64,0.39,3.09,1.93c0.43,1.47-0.38,2.45-1.35,3.39
		c-3.54,3.42-7.04,6.88-10.58,10.29c-3.09,2.98-4.45,6.53-3.72,10.81c0.85,5.03,1.64,10.06,2.55,15.08
		c0.25,1.39,0.27,2.58-0.96,3.49c-1.16,0.86-2.28,0.41-3.38-0.17c-4.42-2.34-8.83-4.68-13.25-7.01c-3.99-2.11-7.95-2.08-11.95,0.08
		c-4.4,2.38-8.82,4.7-13.28,6.96C661.34,474.42,659.63,473.32,659.78,470.1z M673.72,438.98c-1.96-0.07-3.34,0.82-4.11,2.43
		c-0.82,1.71-0.66,3.48,0.67,4.92c1.63,1.77,3.35,3.46,5.08,5.14c2.6,2.52,4.87,2.54,7.47-0.03c4.36-4.29,8.68-8.62,12.98-12.98
		c2.32-2.35,2.46-4.9,0.47-6.84c-1.97-1.94-4.44-1.75-6.85,0.61c-2.98,2.92-5.96,5.84-8.83,8.87c-1.11,1.17-1.84,1.5-2.97,0.06
		C676.65,439.91,675.41,438.89,673.72,438.98z"/>
	<path class="st1" d="M679.3,705.54c-1.39,0.05-2.42-0.33-3.25-1.14c-1.92-1.88-3.89-3.72-5.68-5.72c-1.74-1.93-1.59-4.59,0.14-6.24
		c1.74-1.66,4.56-1.85,6.2,0.18c2.1,2.59,3.29,1.56,4.98-0.31c2.49-2.75,5.18-5.3,7.84-7.89c2.34-2.29,4.93-2.41,6.84-0.42
		c1.85,1.93,1.74,4.39-0.48,6.65c-4.35,4.44-8.77,8.8-13.16,13.2C681.72,704.86,680.61,705.64,679.3,705.54z"/>
	<path class="st1" d="M679.15,576.98c-1.24,0-2.36-0.38-3.26-1.28c-1.83-1.83-3.74-3.61-5.48-5.53c-1.77-1.95-1.67-4.55,0.05-6.24
		c1.7-1.68,4.51-1.9,6.2,0.07c2.01,2.35,3.2,1.86,4.99-0.2c2.42-2.8,5.16-5.32,7.82-7.9c2.39-2.33,4.89-2.49,6.85-0.51
		c1.95,1.97,1.79,4.47-0.56,6.85c-4.3,4.35-8.65,8.65-12.96,12.99C681.77,576.24,680.66,577,679.15,576.98z"/>
	<path class="st0" d="M673.72,438.98c1.69-0.09,2.93,0.93,3.91,2.17c1.13,1.44,1.86,1.12,2.97-0.06c2.87-3.03,5.85-5.95,8.83-8.87
		c2.41-2.36,4.88-2.54,6.85-0.61c1.98,1.95,1.85,4.49-0.47,6.84c-4.3,4.35-8.62,8.68-12.98,12.98c-2.6,2.56-4.86,2.55-7.47,0.03
		c-1.73-1.68-3.45-3.37-5.08-5.14c-1.33-1.44-1.49-3.2-0.67-4.92C670.38,439.8,671.76,438.9,673.72,438.98z"/>
</g>
</svg>
