<?xml version="1.0" encoding="utf-8"?>
<!-- Generator: Adobe Illustrator 24.0.1, SVG Export Plug-In . SVG Version: 6.00 Build 0)  -->
<svg version="1.1" id="Layer_1" xmlns="http://www.w3.org/2000/svg" xmlns:xlink="http://www.w3.org/1999/xlink" x="0px" y="0px"
	 viewBox="0 0 1080 1080" style="enable-background:new 0 0 1080 1080;" xml:space="preserve">
<style type="text/css">
	.st0{fill-rule:evenodd;clip-rule:evenodd;fill:#800000;stroke:#000000;stroke-width:11;stroke-miterlimit:10;}
	.st1{fill-rule:evenodd;clip-rule:evenodd;fill:#EDDC92;stroke:#000000;stroke-width:11;stroke-miterlimit:10;}
</style>
<path class="st0" d="M759.42,774.86c-5.86-3.39-14.18-8.01-24.98-13.88c-10.79-5.86-20.58-11.26-29.37-16.19
	c-8.79-4.94-17.04-9.71-24.75-14.34c-1.23-0.92-5.09-3.62-11.56-8.09l0.01-0.01c-5.22-3.72-10.71-7.04-16.42-9.94
	c-4.09-2.07-8.6-3.18-13.18-3.24c-6.17,0-13.88,4.4-23.13,13.18v-0.01c-9.28,8.82-17.78,18.41-25.44,28.68
	c-7.51,10.1-15.7,19.68-24.51,28.67c-8.63,8.79-15.72,13.18-21.27,13.18c-3.58-0.17-7.1-0.95-10.4-2.31
	c-3.23-1.15-6.4-2.46-9.49-3.93c-2.16-1.08-5.86-3.24-11.1-6.48c-5.24-3.24-8.17-5.01-8.79-5.32l0.01,0.01
	c-39.81-21.63-76.39-48.72-108.69-80.48c-31.76-32.3-58.85-68.88-80.48-108.7c-0.31-0.62-2.08-3.55-5.32-8.79
	c-3.24-5.24-5.4-8.94-6.47-11.1v0.01c-1.47-3.09-2.79-6.26-3.93-9.48c-1.36-3.31-2.14-6.83-2.31-10.41
	c0-5.55,4.39-12.64,13.18-21.28v0.01c8.99-8.81,18.57-17,28.67-24.51c10.26-7.65,19.85-16.16,28.67-25.44
	c8.79-9.25,13.18-16.96,13.18-23.13c-0.06-4.58-1.17-9.09-3.24-13.18c-2.9-5.72-6.23-11.2-9.94-16.42
	c-4.47-6.47-7.17-10.33-8.09-11.56c-4.62-7.71-9.4-15.96-14.34-24.74c-4.93-8.79-10.33-18.58-16.19-29.37
	c-5.86-10.79-10.48-19.12-13.88-24.98c-10.79-21.58-18.97-33.3-24.51-35.15h-0.01c-3.12-1.07-6.41-1.55-9.71-1.39
	c-11.01,0.36-21.94,1.91-32.61,4.62c-10.83,2.28-21.44,5.53-31.68,9.71c-15.42,6.47-31.76,25.28-49.03,56.43
	c-19.52,33.26-27.26,72.12-21.97,110.31c1.32,8.99,3.25,17.87,5.78,26.6c2.77,9.86,5.01,17.19,6.71,21.97
	c1.7,4.78,4.86,13.33,9.48,25.67c4.63,12.33,7.4,19.88,8.33,22.66c9.86,28.28,22.73,55.41,38.38,80.94
	c28.41,44.48,61.86,85.53,99.68,122.34c36.81,37.82,77.86,71.27,122.33,99.68c25.53,15.65,52.66,28.52,80.94,38.39
	c2.77,0.92,10.33,3.7,22.66,8.33c12.33,4.62,20.89,7.79,25.67,9.48c4.78,1.69,12.1,3.93,21.97,6.71l-0.01-0.01
	c8.72,2.53,17.61,4.46,26.6,5.78c38.19,5.29,77.05-2.45,110.31-21.97c31.14-17.27,49.95-33.61,56.43-49.03
	c4.18-10.24,7.44-20.84,9.71-31.68c2.71-10.68,4.26-21.61,4.62-32.61c0.16-3.3-0.31-6.59-1.39-9.71
	C792.72,793.83,781.01,785.65,759.42,774.86L759.42,774.86z"/>
<path class="st1" d="M923.14,297.4c-23.05-70.38-77.79-125.86-147.85-149.86c-70.06-24-147.32-13.73-208.69,27.73
	c-61.36,41.46-99.71,109.32-103.58,183.27C459.14,432.5,490.2,504,546.89,551.63c-10.6,29.69-27.3,56.82-49.01,79.68
	c10.28,12.9,32.61,10.85,47.48,7.76c32.2-6.69,61.22-22.51,88.91-40.7l0-0.01c55.26,15.74,114.37,10.78,166.23-13.94
	c51.87-24.72,92.94-67.52,115.52-120.36C938.59,411.23,941.12,351.97,923.14,297.4L923.14,297.4z M691.74,276.15
	c-24.86,0-45.02,20.15-45.02,45.02c0,24.86,20.16,45.02,45.02,45.02c24.86,0,45.02-20.16,45.02-45.02S716.61,276.15,691.74,276.15z
	 M601.68,445.94c0-39.07,31.67-70.74,70.74-70.74l38.47,0c39.14,0,70.86,31.73,70.86,70.86c0,5.62-4.55,10.17-10.17,10.17H611.97
	C606.28,456.23,601.68,451.62,601.68,445.94z"/>
</svg>
