<?xml version="1.0" encoding="utf-8"?>
<!-- Generator: Adobe Illustrator 24.0.1, SVG Export Plug-In . SVG Version: 6.00 Build 0)  -->
<svg version="1.1" id="Layer_1" xmlns="http://www.w3.org/2000/svg" xmlns:xlink="http://www.w3.org/1999/xlink" x="0px" y="0px"
	 viewBox="0 0 1080 1080" style="enable-background:new 0 0 1080 1080;" xml:space="preserve">
<style type="text/css">
	.st0{fill:#FFBD11;}
	.st1{fill:#F0DB92;}
	.st2{fill:#800000;}
</style>
<g>
	<path class="st0" d="M744.52,785.06c-6.78,20.76-25.43,33.35-49.89,33.39c-47.68,0.08-95.36,0.02-143.03,0.02
		c-123.1,0-246.2,0-369.3,0c-30.29,0-45.33-10.45-56.02-38.87c-0.16-0.43-0.75-0.7-1.15-1.04c0-159.58,0-319.16,0-478.74
		c4.16-8.53,6.95-17.85,14.25-24.59c5.33-4.92,10.68-9.78,18.15-11.24c2.82,21.99,1.41,44.08,1.43,66.11
		c0.15,141.74,0.08,283.48,0.08,425.21c0,20.85,8.97,29.69,30.08,29.69C374.25,785.03,559.39,785.05,744.52,785.06z"/>
	<path class="st1" d="M744.52,785.06c-185.14-0.01-370.27-0.03-555.41-0.04c-21.11,0-30.08-8.85-30.08-29.69
		c0-141.74,0.07-283.48-0.08-425.21c-0.02-22.04,1.39-44.13-1.43-66.11c7.05-4.14,15-4.1,22.67-4.11
		c170.74-0.13,341.48-0.13,512.22-0.07c28.74,0.01,48.07,14.41,54.44,39.81c1.07,4.27,1.02,8.54,1.02,12.83
		c0.06,33.93,0.06,67.86,0.09,101.79c-0.01,67.01-0.02,134.01-0.03,201.02c0.01,16.26,0.01,32.52,0.02,48.78
		c-0.02,34.35-0.06,68.7-0.04,103.05C747.91,773.32,747.33,779.39,744.52,785.06z M350.23,377.88c-15.24-7.67-32.8,4.27-32.82,22.7
		c-0.1,92.35-0.05,184.7-0.04,277.05c0,3.5,0.2,6.91,1.67,10.25c6.39,14.47,22.74,19.49,37.33,10.53
		c19.02-11.68,37.62-24.06,56.41-36.12c51.61-33.14,103.21-66.28,154.83-99.39c7.68-4.92,14.46-10.41,14.69-20.61
		c2.26-12.96-4.93-20.56-14.86-26.93c-69.04-44.27-138.02-88.63-207.02-132.97C357.26,380.35,354.17,378.16,350.23,377.88z"/>
	<path class="st1" d="M747.93,615.27c0.01-67.01,0.02-134.01,0.03-201.02c32.2-20.53,64.42-41.02,96.58-61.59
		c22.66-14.5,45.48-28.77,67.81-43.77c18.5-12.43,37.17-0.81,40.29,14.23c0.49,2.35,0.6,4.81,0.6,7.21
		c0.03,124.92,0.03,249.84,0.02,374.76c0,0.8-0.15,1.6-0.23,2.41c-12.46,19.3-24.82,22.19-43.59,10.08
		c-42.81-27.61-85.45-55.48-128.49-82.73C770.18,628.01,760.47,619.19,747.93,615.27z"/>
	<path class="st0" d="M747.93,615.27c12.54,3.93,22.24,12.75,33.03,19.58c43.04,27.25,85.68,55.12,128.49,82.73
		c18.77,12.11,31.13,9.22,43.59-10.08c0.08,13.47,0.06,26.94,0.27,40.41c0.16,10.32-3.76,18.45-12.72,23.61
		c-9.34,5.38-18.51,4.15-27.42-1.59c-34.62-22.34-69.26-44.62-103.94-66.86c-20.38-13.07-40.85-26.02-61.28-39.02
		C747.95,647.79,747.94,631.53,747.93,615.27z"/>
	<path class="st2" d="M582.31,542.29c-0.23,10.2-7.02,15.68-14.69,20.6c-51.63,33.12-103.23,66.26-154.84,99.4
		c-18.78,12.06-37.38,24.43-56.4,36.12c-14.59,8.96-30.94,3.94-37.33-10.53c-1.48-3.34-1.67-6.76-1.67-10.25
		c-0.01-92.35-0.06-184.7,0.04-277.05c0.01-18.43,17.57-30.37,32.81-22.7c3.94,0.28,7.03,2.47,10.2,4.51
		c69,44.34,137.98,88.7,207.02,132.97C577.38,521.72,584.57,529.33,582.31,542.29z"/>
</g>
</svg>
