<?xml version="1.0" encoding="utf-8"?>
<!-- Generator: Adobe Illustrator 24.0.1, SVG Export Plug-In . SVG Version: 6.00 Build 0)  -->
<svg version="1.1" id="Layer_1" xmlns="http://www.w3.org/2000/svg" xmlns:xlink="http://www.w3.org/1999/xlink" x="0px" y="0px"
	 viewBox="0 0 1080 1080" style="enable-background:new 0 0 1080 1080;" xml:space="preserve">
<style type="text/css">
	.st0{fill:#F4F7F7;}
	.st1{fill:#FFBD11;}
	.st2{fill:#EEDC92;}
	.st3{fill:#800000;}
	.st4{fill:#FFFFFF;}
	.st5{fill:#0B585E;}
	.st6{fill:#28BCC8;}
	.st7{fill:#FDC68B;}
</style>
<g>
	<path class="st0" d="M482.01,966.41c0-3.47-4.8-0.56-5.01-3.76c2.67,0.14,5.35,0.28,8.02,0.42c1.65,0.13,3.31,0.26,4.96,0.39
		c0.23,0.5,0.47,1.01,0.7,1.51c-1.5,0.68-3.44-0.09-4.68,1.43C484.67,966.41,483.34,966.41,482.01,966.41z"/>
	<path class="st1" d="M854.06,829.82c-5.42,8.06-12.87,14.26-19.78,20.89c-25.89,24.85-54.62,45.96-85.96,63.45
		c-24.8,13.84-50.77,25.11-77.81,33.79c-13.82,4.44-27.9,8.06-42.22,10.75c-10.23,1.92-20.55,3.25-30.74,5.15
		c-13.97,2.61-27.82,0.91-41.72,1.35c0.03-1.15-0.62-1.81-1.59-2.25c-0.23-2.46-1.67-4.4-2.76-6.49c0.39-2.07-0.61-3.43-2.27-4.45
		c-0.13-0.52-0.26-1.04-0.38-1.56c0.16-1.25-0.52-2-1.55-2.54c-0.5-1.48-0.99-2.96-1.49-4.45c0.21-1.29-0.58-1.94-1.59-2.44
		c-0.12-0.52-0.25-1.04-0.37-1.57c-0.39-2.03-0.43-4.23-2.68-5.32c-0.14-0.56-0.28-1.11-0.41-1.67c0.25-1.29-0.52-1.93-1.54-2.41
		c0.18-1.76-0.84-3.11-1.53-4.57c0.29-1.29-0.43-1.93-1.51-2.34c-0.25-3.25-2.32-5.77-3.51-8.64c0.3-1.29-0.42-1.91-1.51-2.29
		c-0.15-3.3-2.33-5.79-3.47-8.7c0.22-2.05-0.73-3.47-2.44-4.47c-0.11-0.51-0.23-1.03-0.34-1.54c0.11-0.86-0.14-1.56-0.95-1.98
		c0.12-1.18-0.41-2.12-1.1-3.01c-0.06-1.96-0.83-3.5-2.61-4.45c-0.11-0.52-0.23-1.03-0.34-1.55c0.12-0.36,0.24-0.71,0.36-1.07
		c11.05-1.64,13.66-5.58,12.76-14.83c-0.08-0.82,0.05-1.66-0.02-2.48c-1.34-15.43-11.32-34.39-32.74-31.5
		c-0.8-4.15,2.44-5.5,5.13-6.93c6.08-3.23,12.76-3.66,19.45-3.13c16.25,1.29,28.73,8.73,34.89,24.1
		c4.27,10.67,8.65,21.25,14.09,31.35c5.67,10.55,11.75,20.86,20.47,29.32c5.27,5.11,11.11,7.78,18.53,5.08
		c2.66-0.97,4.03-2.59,4.22-5.48c0.57-8.57-0.44-16.94-3.41-24.98c-9.1-24.6-18.28-49.18-27.56-73.72
		c-4.4-11.63-8.08-23.54-13.49-34.79c-0.91-5.79-3.64-10.96-5.65-16.36c-6.31-16.88-12.79-33.7-19.2-50.54
		c-7.67-20.78-15.42-41.54-22.98-62.36c-5.42-14.9-12.55-29.32-13.15-45.61c1.33-11.05,6.29-17.54,15.11-19.79
		c2.49-1.18,6.48,0.54,7.34-3.79c0.61-0.05,1.23-0.1,1.84-0.15c2.78-0.11,6.09,3.63,8.23-1.13c2.02,0.45,4.04,0.89,6.06,1.34
		c0.11,3.13,3.2,3.47,4.91,5c5.72,5.12,8.52,12.41,13.76,17.85c-0.05,1.7,0.6,3.19,1.23,4.74c8.11,19.94,16.13,39.91,24.22,59.85
		c5.96,14.69,11.98,29.35,17.97,44.03c6.15,19.15,14.42,37.48,21.92,56.11c0.81,2,1.89,5.65,4.19,4.68
		c2.56-1.08,0.91-4.51,0.07-6.72c-3.88-10.24-7.8-20.48-11.99-30.61c-3.35-8.1-5.64-16.64-10.27-24.2
		c-0.78-2.53-1.54-5.06-2.33-7.58c-3.33-10.59-0.56-18.94,8.6-25.21c6.13-4.19,13.17-5.98,20.32-7.69
		c9.66-2.32,16.56,1.48,22.08,8.81c3.5,4.66,6.11,9.86,8.36,15.25c2.43,5.81,4.49,11.78,7.71,17.24
		c4.99,13.87,10.1,27.68,18.91,39.69c-2.09-10.93-7.05-20.73-11.1-30.85c-1.32-3.3-1.57-7.21-4.63-9.72
		c-0.6-4.33-2.81-8.09-4.36-12.08c-3.63-9.29-1.91-15.38,5.9-21.81c6.58-5.42,14.47-7.74,22.36-10.19
		c6.59-1.09,12.82-0.61,18.38,3.67c4.43,3.4,6.39,8.32,8.74,13.07c2.4,4.83,3.45,10.34,7.29,14.44c0.25,0.79,0.51,1.57,0.76,2.36
		c3.15,10.74,8.43,20.56,13.07,30.66c0.21,0.45,0.51,0.87,0.83,1.24c0.66,0.78,1.44,1.48,2.56,1.01c1.18-0.5,1.13-1.6,0.86-2.56
		c-0.45-1.6-1-3.17-1.63-4.71c-4.02-9.84-8.08-19.66-12.12-29.5c-1.46-3.54-1.9-7.22,0.02-10.62c5.31-9.38,14.19-13.32,24.3-14.55
		c9.36-1.14,15.82,3.93,20.59,11.44c3.14,4.94,4.86,10.55,7.17,15.89c4.01,9.26,6.84,19.01,11.85,27.84
		c0.48,1.76,0.79,3.59,1.46,5.27c12.87,31.99,25.8,63.96,38.65,95.95C851.43,828.29,852.12,829.6,854.06,829.82z M521.92,604.34
		c-0.34,10.36,4.64,19.39,7.49,28.94c0.54,1.82,2.22,3.33,4.45,3.56c12.9,1.3,23.55-3.52,32.79-12.12c1.55-1.44,1.5-3.1,0.77-5.01
		c-2.68-6.95-5.56-13.82-9.24-20.29c-3.3-5.82-7.32-11.68-14.08-13.27C532.42,583.42,521.99,592.41,521.92,604.34z"/>
	<path class="st2" d="M854.06,829.82c-1.94-0.21-2.63-1.53-3.3-3.21c-12.85-32-25.78-63.96-38.65-95.95
		c-0.68-1.68-0.98-3.51-1.46-5.26c0.11-2.16,0.3-4.31,0.3-6.47c0.01-165.43,0-330.86,0-496.29c0-2.15-0.29-4.34,0.7-6.39
		c13.9,10.41,26.31,22.46,38.17,35.06c30.56,32.45,55.71,68.66,74.84,108.95c16.12,33.95,27.6,69.37,34.45,106.37
		c6.24,33.72,8.31,67.7,6.31,101.79c-1.59,27.19-6.03,54.07-12.9,80.56c-9.42,36.28-23.52,70.58-41.86,103.18
		C894.84,780.25,875.69,805.94,854.06,829.82z"/>
	<path d="M811.64,216.24c-0.99,2.05-0.7,4.24-0.7,6.39c0,165.43,0.01,330.86,0,496.29c0,2.16-0.2,4.32-0.3,6.47
		c-5.02-8.83-7.85-18.59-11.85-27.84c-2.31-5.33-4.03-10.94-7.17-15.89c-4.77-7.52-11.23-12.58-20.59-11.44
		c-10.1,1.23-18.98,5.18-24.3,14.55c-1.92,3.4-1.48,7.08-0.02,10.62c4.04,9.83,8.1,19.66,12.12,29.5c0.63,1.54,1.19,3.11,1.63,4.71
		c0.27,0.96,0.32,2.06-0.86,2.56c-1.12,0.48-1.89-0.23-2.56-1.01c-0.32-0.38-0.62-0.8-0.83-1.24c-4.64-10.1-9.92-19.93-13.07-30.67
		c0.75-0.73,0.96-1.57,0.52-2.54c0.07-4.48,0.21-8.97,0.22-13.45c0.02-163.21,0.03-326.43,0.04-489.64c0-8.08,0-8.08-7.89-8.08
		c-130.93,0-261.87-0.01-392.8,0.03c-3.15,0-6.3,0.42-9.44,0.64c-1.47,0.1-1.65,1.38-2.17,2.35c-0.53-0.36-1.18-0.62-1.56-1.1
		c-6.89-8.65-13.68-17.38-20.63-25.98c-7.87-9.72-16.14-19.14-22.89-29.71c-3.75-5.86-6.42-6.26-11.61-1.61
		c-0.71,0.63-1.66,0.99-2.49,1.48c4.89-7.65,12.51-10.94,20.91-12.78c2.23-0.49,4.65-0.18,6.98-0.18
		c158.44-0.01,316.88,0.18,475.32-0.24c19.66-0.05,35.86,16.8,35.3,35.64c-0.55,18.45-0.12,36.94-0.12,55.41
		C810.83,211.76,810.64,214.07,811.64,216.24z M540.89,135.68c-8.57,0.04-15,6.62-14.9,15.24c0.1,8.24,7.22,15.37,15.23,15.26
		c7.98-0.11,15.65-7.99,15.45-15.86C556.47,142.28,549.32,135.64,540.89,135.68z"/>
	<path class="st1" d="M214.02,814.72c-11.16-13.97-22.23-28.02-31.61-43.27c-4.48-7.29-9.51-14.31-12.48-22.45
		c1.87-0.38,2.1-1.74,2.23-3.36c0.58-7.59,1.24-15.18,1.89-22.76c1.39-16.17,2.67-32.35,4.22-48.51
		c2.72-28.39,5.84-56.75,5.69-85.31c-0.05-10.04,1.47-19.89,3.88-29.5c6.35-25.38,16.58-49.36,27.46-73.07
		c12.89-28.1,28.1-55,42.84-82.14c1.77-3.26,2.83-7.18,6.21-9.46c0.1,1.66,0.28,3.31,0.28,4.97c0.01,90.64,0,181.28,0.05,271.92
		c0,2.39-1.3,6.34,0.7,6.89c2.71,0.74,5.06-2.34,6.88-4.72c0.26-0.18,0.51-0.37,0.76-0.55c1.57-0.16,2.48-1.15,3.1-2.5
		c0.31-0.21,0.61-0.41,0.92-0.62c1.58-0.07,2.41-1.04,2.94-2.39c0.69-0.5,1.37-0.99,2.06-1.49c1.56-0.14,2.52-1.06,3.14-2.41
		c1.06-0.32,1.78-0.96,1.99-2.09c0.34-0.33,0.89-0.6,1-0.99c4.2-15.51,8.07-31.11,12.6-46.52c6.33-21.54,9.78-43.98,19.88-64.36
		c1.47-1.47,2.93-2.93,4.4-4.4c2.45-1.02,5.33-0.91,7.42-2.86c1.65,0.14,3.29,0.32,4.95,0.41c12.87,0.7,18.63,5.81,20.87,18.33
		c0.92,5.14,0.71,10.28,0.37,15.41c-0.77,11.42-1.78,22.82-2.55,34.24c-1.19,17.55-2.23,35.12-3.4,52.67
		c-1.04,15.55-2.88,31.05-2.78,46.67c-0.29,0.93-0.78,1.85-0.84,2.8c-0.76,11.05-1.57,22.11-2.1,33.17
		c-0.19,3.93-1.24,7.3-3.14,10.75c-3.74,6.77-8.67,12.92-11,20.44c-7.8,10.27-13.41,21.86-19.76,33
		c-4.31,6.05-8.26,12.31-11.26,19.13c-5.39,0.26-10.49-1.62-15.67-2.52c-19.41-3.36-38.64-7.75-58.03-11.24
		C223.54,815.19,218.91,812.65,214.02,814.72z M353.32,568.85c-0.1-0.01-0.21-0.02-0.31-0.03c0-1.66,0.09-3.33-0.01-4.98
		c-0.62-9.99-8.44-16.92-17.82-15.82c-5.9,0.69-12.14,7.73-13.99,15.93c-1.49,6.6-2.53,13.32-4.42,19.8
		c-0.96,3.32,0.06,5.29,2.49,6.66c8.59,4.85,17.83,5.52,27.31,3.47c2.36-0.51,4.09-2.29,4.41-4.87
		C351.81,582.29,352.55,575.57,353.32,568.85z"/>
	<path class="st2" d="M264.33,394.87c-3.37,2.29-4.44,6.2-6.21,9.46c-14.74,27.14-29.94,54.04-42.84,82.14
		c-10.88,23.71-21.11,47.7-27.46,73.07c-2.4,9.61-3.93,19.45-3.88,29.5c0.15,28.57-2.96,56.93-5.69,85.31
		c-1.55,16.16-2.83,32.34-4.22,48.51c-0.65,7.59-1.31,15.17-1.89,22.76c-0.12,1.62-0.36,2.98-2.23,3.36
		c-19.95-35.98-34.63-73.92-43.36-114.17c-4.02-18.53-6.36-37.25-8.73-56.04c-2.6-20.6-2.54-41.24-1.1-61.68
		c1.85-26.11,5.79-52.09,12.32-77.61c10.12-39.55,25.41-76.93,46.14-112.08c22.13-37.51,49.44-70.83,81.94-99.88
		c2.35-2.1,4.81-4.08,7.22-6.11c0.08,1.83,0.25,3.65,0.25,5.48c0.01,53.84,0.01,107.67,0,161.51
		C264.59,390.56,264.42,392.72,264.33,394.87z"/>
	<path class="st2" d="M313.06,810.63c6.35-11.14,11.96-22.73,19.76-33c56.44-0.02,112.87-0.02,169.31-0.05
		c23.47-0.01,46.94-0.06,70.42-0.09c5.41,11.24,9.09,23.16,13.49,34.79c9.28,24.54,18.46,49.12,27.56,73.72
		c2.97,8.04,3.98,16.41,3.41,24.98c-0.19,2.88-1.56,4.51-4.22,5.48c-7.42,2.71-13.26,0.04-18.53-5.08
		c-8.72-8.46-14.8-18.77-20.47-29.32c-5.43-10.11-9.82-20.68-14.09-31.35c-6.15-15.37-18.63-22.81-34.89-24.1
		c-6.69-0.53-13.37-0.1-19.45,3.13c-2.69,1.43-5.93,2.77-5.13,6.93c-0.57,2.14,0.14,4.02,1.14,5.85c-0.36,1.25,0.26,2.01,1.29,2.56
		c0.59,1.88,1.11,3.78,1.79,5.63c4.17,11.25,10.16,21.75,13.86,33.2c-0.37,1.4-0.07,2.41,1.56,2.63c0.11,0.52,0.23,1.03,0.34,1.55
		c-0.1,2.05,0.26,3.84,2.61,4.45c0.69,0.88,1.23,1.82,1.1,3.01c-1.41,1.49-0.29,1.76,0.95,1.98c0.11,0.51,0.23,1.03,0.34,1.54
		c-0.13,2.01,0.26,3.72,2.44,4.47c1.14,2.91,3.32,5.4,3.47,8.7c-0.18,1.22,0.19,2.06,1.51,2.29c1.19,2.87,3.26,5.39,3.51,8.65
		c-0.2,1.24,0.16,2.1,1.51,2.34c0.7,1.46,1.71,2.82,1.53,4.58c-0.25,1.29,0.11,2.19,1.54,2.41c0.14,0.56,0.28,1.11,0.41,1.67
		c0.36,2.04,0.08,4.41,2.68,5.31c0.12,0.52,0.25,1.04,0.37,1.57c-0.26,1.33,0.12,2.23,1.59,2.43c0.5,1.48,0.99,2.96,1.48,4.45
		c-0.32,1.35-0.01,2.33,1.55,2.53c0.13,0.52,0.26,1.04,0.38,1.57c-0.15,1.95,0.31,3.58,2.28,4.45c1.09,2.09,2.53,4.03,2.76,6.49
		c-0.09,0.75-0.17,1.5-0.25,2.25c-17.65-0.04-35.31-0.08-52.96-0.11c-3.42-2.31-7.02-3.38-11.04-1.63
		c-1.65-0.13-3.31-0.26-4.96-0.39c-3.05-2.39-6.29-3.52-10.03-1.6c-1.03,0.3-2.02,0.22-2.97-0.29c-0.56-2.09-1.58-2.27-3.02-0.74
		c-0.66-0.12-1.32-0.24-1.97-0.36c-2.62-2.53-5.75-2.41-8.99-1.71c-0.67-0.09-1.34-0.18-2.01-0.26c-2.27-2.4-4.86-3.33-8-1.73
		c-0.71,0.16-1.42,0.32-2.13,0.49c0.09-0.25,0.17-0.51,0.24-0.78c-2.17-2.59-4.87-3.11-7.98-2.06c-0.38-0.16-0.76-0.31-1.14-0.47
		c-0.26-0.77-0.31-1.71-0.8-2.27c-5.33-6.11-10.46-12.4-16.15-18.16c-11.41-11.56-21.3-24.43-32.16-36.46
		c-15.28-16.93-29.84-34.49-44.96-51.57C332.86,833.69,322.58,822.5,313.06,810.63z"/>
	<path d="M277.03,670.26c-0.31,0.21-0.61,0.41-0.92,0.62c-1.75-0.06-2.79,0.77-3.1,2.5c-0.25,0.18-0.51,0.37-0.76,0.55
		c-0.64,0.12-1.31,0.17-1.92,0.38c-1.31,0.45-1.98,2.88-3.65,1.76c-1.31-0.88-0.43-2.79-0.6-4.23c-0.06-0.49-0.01-1-0.01-1.5
		c0.01-166.12,0.01-332.24,0.03-498.37c0-13.5-1.09-27.18,5.83-39.67c-0.06-0.4,0.11-0.63,0.51-0.69c0.84-0.49,1.79-0.85,2.49-1.48
		c5.19-4.65,7.86-4.25,11.61,1.61c6.76,10.57,15.03,19.99,22.89,29.71c6.96,8.6,13.74,17.33,20.63,25.98
		c0.38,0.48,1.03,0.74,1.56,1.1c0.11,1.82,0.31,3.64,0.31,5.45c0.01,114.2,0.02,228.39,0,342.59c0,1.81-0.26,3.62-0.4,5.43
		c-2.16,1.21-5.07,1.05-6.5,3.58c-1.47,1.47-2.93,2.93-4.4,4.4c-2.1,0.76-2.72,2.71-3.58,4.47c-4.17,8.53-6.52,17.69-9,26.78
		c-5.62,20.59-11.17,41.2-16.54,61.85c-1.62,6.21-4.24,12.22-4.36,18.79c-0.2,1.13-0.93,1.77-1.99,2.09
		c-1.79-0.16-2.81,0.69-3.14,2.42c-0.69,0.5-1.37,0.99-2.05,1.49C278.34,667.87,277.35,668.65,277.03,670.26z"/>
	<path class="st2" d="M313.06,810.63c9.52,11.86,19.8,23.06,29.88,34.44c15.11,17.08,29.68,34.64,44.96,51.57
		c10.86,12.03,20.75,24.9,32.16,36.46c5.68,5.76,10.82,12.06,16.15,18.16c0.49,0.56,0.54,1.51,0.8,2.27
		c-0.66,0.12-1.33,0.25-1.99,0.37c-0.93-0.63-1.94-0.72-3.01-0.47c-1.44-1.25-3.07-1.84-4.99-1.46c-0.67-0.17-1.35-0.33-2.02-0.5
		c-1.68-1.65-3.73-2.02-5.97-1.75c-1.18-0.94-2.43-1.64-4.02-1.27c-1.51-1.01-3.06-1.9-4.99-1.67c-0.65-0.15-1.31-0.3-1.96-0.45
		c-1.36-1.51-3.06-2.01-5.03-1.69c-0.64-0.58-1.34-0.94-2.23-0.61c-0.85-1.45-2.27-1.65-3.76-1.7c-0.36-0.44-0.78-0.58-1.29-0.22
		c-8.89-4.63-18.29-8.03-27.72-11.37c-0.78-0.91-1.71-1.49-2.96-1.39c-0.45-0.8-1.16-1.04-2.03-0.94c-0.33-0.47-0.74-0.63-1.27-0.31
		c-3.04-2.88-6.89-4.19-10.74-5.49c-0.44-0.14-0.89-0.28-1.33-0.41c-0.54-1.11-1.38-1.71-2.67-1.55c-3.84-2.67-7.89-4.92-12.33-6.44
		c-0.56-1.08-1.37-1.78-2.67-1.71c-2.66-2.23-5.68-3.83-8.9-5.07c-0.44-0.57-0.88-1.14-1.32-1.72c0.31-0.57,0.79-1.11,0.91-1.72
		c3.3-16.38,6.56-32.77,9.82-49.15c0.52-2.62-1.1-3.91-3.26-4.03c-3.89-0.21-7.44-1.63-11.16-2.44c0.66-3.4,1.18-6.84,2.01-10.2
		c0.86-3.48-0.58-4.79-3.88-5.24c-4.9-0.66-9.85-1.18-14.46-3.18C304.79,822.95,308.75,816.69,313.06,810.63z"/>
	<path class="st3" d="M318.13,848.39c3.72,0.81,7.27,2.23,11.16,2.44c2.16,0.12,3.78,1.41,3.26,4.03
		c-3.26,16.39-6.52,32.77-9.82,49.15c-0.12,0.61-0.6,1.15-0.91,1.72c-1.25-0.38-2.51-0.76-3.76-1.15c-1.28-1.57-3.1-2.34-4.83-3.23
		c-0.57-1.44-1.78-1.81-3.16-1.91c-0.68-1.1-1.71-1.7-2.91-2.08c-4.77-4.51-10.41-7.76-16.02-11.04c-0.06-0.61-0.41-0.91-1.02-0.91
		c-1.3-2.37-3.71-3.14-5.99-4.09c-0.02-0.6-0.35-0.89-0.94-0.9c-0.8-1.8-2.15-2.83-4.14-2.98c-0.44-0.94-1.02-1.72-2.14-1.91
		c-1.75-2.39-3.67-4.54-6.75-5.19c-0.62-1.35-1.59-2.33-3-2.85c-1.48-2.25-3.3-4.11-5.9-5.05c0,0-0.1-0.06-0.1-0.06
		c0.03-0.68-0.29-1-0.98-0.92c0,0-0.08-0.06-0.08-0.06c-3.26-3.02-5.85-6.79-9.92-8.92c0,0-0.05-0.02-0.05-0.02
		c0.01-0.68-0.34-0.97-1-0.94c0,0-0.03-0.03-0.03-0.03c0.02-0.66-0.31-0.97-0.97-0.95c0,0-0.04-0.04-0.04-0.04
		c0.01-0.65-0.3-0.97-0.96-0.94c0,0-0.06-0.06-0.06-0.06c0.02-0.65-0.3-0.96-0.94-0.94c0,0-0.06-0.06-0.06-0.06
		c0.02-0.64-0.29-0.96-0.94-0.93c0,0-0.07-0.07-0.07-0.07c0.02-0.64-0.29-0.95-0.93-0.93c0,0-0.07-0.07-0.07-0.07
		c0.02-0.64-0.29-0.95-0.93-0.93c0,0-0.07-0.07-0.07-0.07c0.02-0.64-0.29-0.95-0.93-0.92c0,0-0.08-0.08-0.08-0.08
		c0.03-0.64-0.29-0.94-0.92-0.92c0,0-0.08-0.08-0.08-0.08c0.02-0.64-0.28-0.94-0.92-0.92c0,0-0.08-0.08-0.08-0.08
		c0.02-0.64-0.28-0.94-0.92-0.92c0,0-0.08-0.08-0.08-0.08c0.02-0.64-0.28-0.95-0.92-0.92c0,0-0.08-0.08-0.08-0.08
		c0.02-0.64-0.29-0.95-0.92-0.92c0,0-0.08-0.08-0.08-0.08c0.02-0.64-0.29-0.94-0.92-0.92c0,0-0.08-0.08-0.08-0.08
		c0.02-0.63-0.29-0.94-0.92-0.92c0,0-0.08-0.08-0.08-0.08c0.02-0.63-0.3-0.93-0.92-0.91c0,0-0.09-0.08-0.09-0.08
		c0.02-0.62-0.31-0.89-0.9-0.9c-0.33-0.38-0.66-0.76-0.99-1.14c0.54-3.2,2.88-1.58,4.27-1.31c19.41,3.7,38.76,7.66,58.19,11.28
		C302.42,845.89,310.08,848.32,318.13,848.39z"/>
	<path class="st4" d="M318.13,848.39c-8.05-0.07-15.71-2.5-23.52-3.95c-19.42-3.61-38.78-7.58-58.19-11.28
		c-1.39-0.27-3.73-1.88-4.27,1.31c-6.24-1.79-8.47-7.86-12.35-12.05c-2.09-2.26-5.16-4.2-5.79-7.71c4.9-2.07,9.52,0.47,14.08,1.29
		c19.39,3.48,38.62,7.87,58.03,11.24c5.18,0.9,10.28,2.78,15.67,2.52c4.61,2,9.56,2.52,14.46,3.18c3.31,0.45,4.75,1.75,3.88,5.24
		C319.31,841.55,318.78,844.98,318.13,848.39z"/>
	<path class="st5" d="M271.92,132.31c-6.92,12.49-5.83,26.17-5.83,39.67c-0.02,166.12-0.02,332.24-0.03,498.37
		c0,0.5-0.05,1,0.01,1.5c0.17,1.44-0.71,3.35,0.6,4.23c1.67,1.12,2.34-1.31,3.65-1.76c0.61-0.21,1.28-0.26,1.92-0.38
		c-1.82,2.38-4.17,5.46-6.88,4.72c-2-0.55-0.7-4.49-0.7-6.89c-0.06-90.64-0.04-181.28-0.05-271.92c0-1.65-0.18-3.31-0.28-4.97
		c0.09-2.16,0.26-4.31,0.26-6.47c0.02-53.84,0.02-107.67,0-161.51c0-1.82-0.16-3.65-0.25-5.48c0.08-8.12,0.21-16.23,0.23-24.34
		c0.04-14.1-0.17-28.2,0.08-42.29C264.8,146.67,265.72,138.58,271.92,132.31z"/>
	<path class="st0" d="M368.02,930.76c9.43,3.34,18.83,6.74,27.72,11.37c-7.34-0.22-13.33-4.4-19.9-6.85
		C373.06,934.23,369.51,934.16,368.02,930.76z"/>
	<path class="st0" d="M291.13,886.33c5.61,3.28,11.25,6.54,16.02,11.04C300.62,895.41,294.72,892.54,291.13,886.33z"/>
	<path class="st2" d="M489.98,963.46c4.02-1.75,7.62-0.69,11.04,1.63c-3.45-0.04-6.9-0.07-10.34-0.11
		C490.45,964.47,490.22,963.96,489.98,963.46z"/>
	<path class="st0" d="M250.18,852.47c4.07,2.13,6.66,5.9,9.92,8.92C254.7,860.74,252.21,856.87,250.18,852.47z"/>
	<path class="st0" d="M351.03,922.63c3.85,1.3,7.7,2.61,10.74,5.49C357.43,927.77,353.7,926.23,351.03,922.63z"/>
	<path class="st2" d="M474.99,961.47c3.74-1.92,6.98-0.79,10.03,1.6c-2.67-0.14-5.35-0.28-8.02-0.42c-0.65-0.1-1.3-0.2-1.96-0.31
		C475.01,962.05,474.99,961.76,474.99,961.47z"/>
	<path class="st2" d="M458.03,958.36c3.24-0.7,6.37-0.82,8.99,1.71c-0.34,0.23-0.68,0.45-1.02,0.68c-1.28-0.6-2.62-0.66-3.98-0.38
		c-0.86-0.85-1.88-1.02-3.01-0.73C458.69,959.21,458.36,958.79,458.03,958.36z"/>
	<path class="st0" d="M466.01,960.75c0.34-0.23,0.68-0.45,1.02-0.68c0.66,0.12,1.32,0.24,1.97,0.36c0.81,1.06,1.86,1.14,3.02,0.74
		c0.95,0.51,1.94,0.6,2.97,0.29c-0.01,0.29,0.01,0.58,0.05,0.86C471.59,964.33,468.67,963.31,466.01,960.75z"/>
	<path class="st0" d="M270.16,870.34c3.08,0.65,5.01,2.8,6.75,5.19C273.65,875.11,270.84,874.1,270.16,870.34z"/>
	<path class="st2" d="M448.03,956.37c3.14-1.59,5.73-0.67,8,1.73c-1.01,0.12-2.03,0.25-3.04,0.37c-0.81-0.99-1.85-1.05-2.98-0.75
		c-0.64-0.15-1.29-0.3-1.93-0.45C448.05,956.97,448.04,956.67,448.03,956.37z"/>
	<path class="st2" d="M438.15,954.01c3.11-1.05,5.82-0.53,7.98,2.06c-1.03,0.08-2.05,0.16-3.08,0.24c-0.47-0.84-1.18-0.99-2.04-0.74
		c-0.65-0.09-1.3-0.18-1.94-0.27C438.76,954.88,438.45,954.44,438.15,954.01z"/>
	<path class="st0" d="M284.12,881.33c2.28,0.95,4.68,1.72,5.99,4.09C287.24,885.33,284.5,885.05,284.12,881.33z"/>
	<path class="st0" d="M261.26,862.44c2.6,0.94,4.41,2.8,5.9,5.05C264.24,866.91,261.45,866.19,261.26,862.44z"/>
	<path class="st0" d="M419.02,949.73c2.24-0.28,4.29,0.1,5.97,1.75C422.63,952.16,420.45,952.22,419.02,949.73z"/>
	<path class="st0" d="M410.01,946.79c1.93-0.22,3.48,0.66,4.99,1.67C412.54,950.29,411.13,948.96,410.01,946.79z"/>
	<path class="st0" d="M427.01,951.98c1.92-0.38,3.55,0.22,4.99,1.46C429.64,955.33,428.26,953.89,427.01,951.98z"/>
	<path class="st2" d="M438.15,954.01c0.31,0.43,0.61,0.87,0.92,1.3c-2.13,1.79-3.08,0.15-4.06-1.39c0.66-0.12,1.33-0.25,1.99-0.37
		C437.38,953.7,437.77,953.85,438.15,954.01z"/>
	<path class="st0" d="M403.02,944.66c1.98-0.33,3.67,0.18,5.03,1.69C405.76,947.62,404.15,946.84,403.02,944.66z"/>
	<path class="st0" d="M318.05,904.59c1.25,0.38,2.51,0.76,3.76,1.15c0.44,0.57,0.88,1.15,1.32,1.72
		C320.93,907.39,318.69,907.41,318.05,904.59z"/>
	<path class="st0" d="M279.05,877.44c1.99,0.15,3.34,1.19,4.14,2.98C280.89,880.7,279.18,880.16,279.05,877.44z"/>
	<path class="st0" d="M459.01,959.64c1.13-0.28,2.16-0.12,3.01,0.73C460.58,961.94,459.57,961.73,459.01,959.64z"/>
	<path class="st0" d="M450.01,957.73c1.13-0.3,2.17-0.24,2.98,0.75C451.57,959.91,450.57,959.72,450.01,957.73z"/>
	<path class="st0" d="M397.03,942.35c1.49,0.05,2.91,0.25,3.76,1.7C399.09,944.45,397.38,944.9,397.03,942.35z"/>
	<path class="st0" d="M310.06,899.45c1.38,0.1,2.59,0.47,3.16,1.91C311.66,901.56,310.17,901.64,310.06,899.45z"/>
	<path class="st0" d="M448.03,956.37c0.01,0.3,0.03,0.61,0.05,0.91c-1.07,1.59-1.68,0.85-2.19-0.43
		C446.61,956.69,447.32,956.53,448.03,956.37z"/>
	<path class="st2" d="M553.98,965.2c0.08-0.75,0.17-1.5,0.25-2.25c0.98,0.43,1.62,1.1,1.59,2.25
		C555.22,965.2,554.6,965.2,553.98,965.2z"/>
	<path class="st0" d="M363.03,928.43c0.87-0.1,1.58,0.14,2.03,0.94C363.48,931,363.24,929.75,363.03,928.43z"/>
	<path class="st0" d="M332.03,912.52c1.3-0.07,2.1,0.63,2.67,1.71C333.25,914.53,332.21,914.2,332.03,912.52z"/>
	<path class="st0" d="M347.03,920.67c1.28-0.17,2.12,0.43,2.67,1.55C348.34,922.5,347.27,922.3,347.03,920.67z"/>
	<path class="st0" d="M441.01,955.58c0.86-0.25,1.58-0.09,2.04,0.74C441.7,957.92,441.27,956.97,441.01,955.58z"/>
	<path class="st0" d="M241.13,843.57c0.64-0.02,0.95,0.28,0.92,0.92C241.74,844.18,241.44,843.88,241.13,843.57z"/>
	<path class="st0" d="M242.13,844.57c0.64-0.02,0.95,0.28,0.93,0.92C242.75,845.18,242.44,844.87,242.13,844.57z"/>
	<path class="st0" d="M243.13,845.56c0.64-0.02,0.95,0.28,0.93,0.93C243.75,846.18,243.44,845.87,243.13,845.56z"/>
	<path class="st0" d="M244.13,846.56c0.64-0.02,0.96,0.29,0.93,0.93C244.75,847.18,244.44,846.87,244.13,846.56z"/>
	<path class="st0" d="M238.13,840.57c0.64-0.02,0.95,0.29,0.92,0.92C238.74,841.19,238.44,840.88,238.13,840.57z"/>
	<path class="st0" d="M233.14,835.61c0.59,0.01,0.92,0.28,0.9,0.9C233.74,836.21,233.44,835.91,233.14,835.61z"/>
	<path class="st0" d="M239.13,841.57c0.64-0.02,0.94,0.28,0.92,0.92C239.74,842.19,239.44,841.88,239.13,841.57z"/>
	<path class="st0" d="M260.18,861.46c0.69-0.09,1.01,0.23,0.98,0.92C260.83,862.07,260.5,861.76,260.18,861.46z"/>
	<path class="st0" d="M236.13,838.58c0.64-0.02,0.95,0.28,0.92,0.92C236.74,839.19,236.44,838.88,236.13,838.58z"/>
	<path class="st0" d="M235.13,837.58c0.63-0.02,0.94,0.29,0.92,0.92C235.74,838.19,235.44,837.89,235.13,837.58z"/>
	<path class="st0" d="M249.13,851.51c0.66-0.03,1.01,0.27,1,0.94C249.8,852.14,249.46,851.83,249.13,851.51z"/>
	<path class="st0" d="M248.13,850.53c0.66-0.02,0.98,0.29,0.97,0.95C248.77,851.16,248.45,850.84,248.13,850.53z"/>
	<path class="st0" d="M247.13,849.54c0.65-0.02,0.97,0.29,0.96,0.94C247.76,850.17,247.45,849.85,247.13,849.54z"/>
	<path class="st0" d="M246.13,848.55c0.65-0.02,0.96,0.29,0.94,0.94C246.76,849.17,246.44,848.86,246.13,848.55z"/>
	<path class="st0" d="M245.13,847.55c0.65-0.02,0.96,0.29,0.94,0.93C245.75,848.17,245.44,847.86,245.13,847.55z"/>
	<path class="st0" d="M240.13,842.57c0.64-0.02,0.94,0.28,0.92,0.92C240.74,843.19,240.44,842.88,240.13,842.57z"/>
	<path class="st0" d="M234.13,836.59c0.63-0.02,0.94,0.28,0.92,0.91C234.74,837.2,234.44,836.89,234.13,836.59z"/>
	<path class="st0" d="M237.13,839.57c0.64-0.02,0.95,0.29,0.92,0.92C237.74,840.19,237.44,839.88,237.13,839.57z"/>
	<path class="st4" d="M333.8,186.19c3.15-0.22,6.3-0.64,9.44-0.64c130.93-0.03,261.87-0.03,392.8-0.03c7.89,0,7.89,0,7.89,8.08
		c-0.01,163.21-0.02,326.43-0.04,489.64c0,4.48-0.14,8.97-0.21,13.45c-0.43,0.06-0.86,0.12-1.28,0.18
		c-3.84-4.1-4.89-9.61-7.29-14.44c-2.36-4.75-4.31-9.66-8.74-13.07c-5.57-4.28-11.8-4.76-18.39-3.67c-0.3-0.75-0.46-1.63-0.94-2.24
		c-13.35-17.07-26.89-34-39.98-51.26c-2.41-3.18-6.69-5.2-7.04-9.87c4.01-0.68,8.02-0.79,12.04,0l0.41,0.26l0.39-0.27
		c1.09-0.57,2.18-0.55,3.27,0c0.57,0.63,1.15,0.62,1.73,0c1.09-0.55,2.18-0.57,3.27-0.01l0.39,0.28l0.41-0.26
		c1.72-0.66,3.43-0.7,5.14,0.01c0.28,0,0.55-0.01,0.83-0.01c1.4-0.65,2.79-0.63,4.18,0.02c0.28,0,0.57,0,0.85,0
		c3.87-0.99,5.03-3.52,5-7.4c-0.15-18.76-0.07-37.52-0.07-56.28c0-7.52-0.77-8.31-8.24-8.31c-27.26-0.01-54.53-0.01-81.79,0.02
		c-1.63,0-3.33-0.42-4.87,0.54c-0.65-0.13-1.3-0.26-1.95-0.4c0.05-2.15-1.11-3.73-2.37-5.32c-12.98-16.31-26.14-32.48-38.76-49.05
		c-3.06-4.01-6.12-5.15-10.82-5.13c-37.95,0.15-75.89,0.1-113.84,0.03c-1.78,0-4.12,1.13-5.24-1.5c2.15-0.11,4.3-0.33,6.44-0.33
		c36.88-0.02,73.77-0.01,110.65-0.03c1.98,0,3.97-0.19,5.95-0.29c0.68,0.03,1.35,0.07,2.03,0.1c1.36,1.41,3.13,0.88,4.73,0.88
		c26.81,0.03,53.63,0.03,80.44-0.01c1.59,0,3.36,0.6,4.73-0.84c2.74-0.12,2.39-2.19,2.52-3.97c1.03-13.21,0.23-26.45,0.48-39.67
		c0.02-1.14,0.16-2.34-0.77-3.27c-0.98-2.98-3.53-1.98-5.5-1.98c-27.78-0.06-55.57-0.01-83.35-0.04
		c-14.8-0.01-29.59-0.12-44.39-0.18c0.23-1.89-0.23-3.41-1.59-4.93c-7.74-8.69-14.51-18.14-21.39-27.5c1.99-0.1,3.97-0.28,5.96-0.28
		c48.05-0.02,96.1,0,144.14-0.07c2.09,0,4.82,1.23,6.09-1.83c0.23-0.43,0.67-0.85,0.67-1.28c0.04-14.57,0.54-29.14-0.24-43.71
		c-0.6-4.51-4.18-2.96-6.61-2.96c-61.52-0.08-123.04-0.06-184.56-0.07c-2.48,0-4.97-0.11-7.45-0.16c0.21-2.35-1.03-4.06-2.4-5.8
		c-10.96-13.89-21.87-27.81-32.8-41.72c-14.51-18.47-29.01-36.95-43.53-55.4c-10.13-12.87-20.45-25.59-30.33-38.64
		C337.68,192.63,333.77,190.62,333.8,186.19z M537.67,305.31c34.32,0,68.64,0,102.97,0c6.79,0,7.33-0.55,7.33-7.46
		c0-11.65,0-23.3,0-34.94c0-6.77-0.61-7.42-7.41-7.42c-32.16-0.01-64.31-0.01-96.47-0.01c-36.32,0-72.64-0.01-108.96,0
		c-6.73,0-7.2,0.49-7.2,6.97c-0.01,11.81,0,23.63,0,35.44c0,6.99,0.39,7.41,7.28,7.41C469.36,305.31,503.52,305.31,537.67,305.31z"
		/>
	<path class="st4" d="M333.8,186.19c-0.03,4.42,3.89,6.44,6.09,9.35c9.89,13.05,20.2,25.77,30.33,38.64
		c14.53,18.46,29.02,36.94,43.53,55.4c10.93,13.91,21.85,27.83,32.8,41.72c1.37,1.74,2.61,3.45,2.41,5.8
		c-4.99,0.07-9.98,0.33-14.96,0.15c-4.43-0.15-6.28,1.4-6.18,6.06c0.24,11.96,0.08,23.93,0.08,35.89c0,7.88,0.06,7.91,8.18,7.95
		c18.29,0.09,36.58,0.2,54.88,0.3c6.88,9.36,13.65,18.81,21.39,27.5c1.35,1.52,1.82,3.04,1.59,4.93c-1.82,0.08-3.65,0.23-5.47,0.23
		c-24.79,0.01-49.57,0.08-74.36-0.07c-4.38-0.03-6.37,1.15-6.29,5.89c0.22,12.79,0.08,25.59,0.06,38.38c0,2.04-0.07,4.04,2.08,5.19
		c1.12,2.63,3.46,1.49,5.24,1.5c37.95,0.07,75.89,0.12,113.84-0.03c4.71-0.02,7.77,1.12,10.82,5.13
		c12.62,16.58,25.78,32.75,38.76,49.05c1.26,1.59,2.43,3.17,2.37,5.32c-2.16,0.02-4.33,0.07-6.49,0.07
		c-68.62,0-137.23,0-205.85,0.01c-7.01,0-7.74,0.74-7.75,7.7c-0.01,18.63-0.02,37.26,0,55.89c0.01,6.84,0.91,7.71,7.83,7.71
		c38.64,0,77.28,0,115.91-0.01c2.33,0,4.66-0.13,6.89,0.75c0.6,16.29,7.73,30.71,13.15,45.61c7.57,20.82,15.31,41.58,22.99,62.37
		c-59.61,0.02-119.22,0.04-178.82,0.04c-6.32,0-12.65-0.11-18.97-0.17c-0.1-15.62,1.75-31.12,2.78-46.67
		c1.17-17.55,2.21-35.12,3.4-52.67c0.77-11.42,1.78-22.82,2.55-34.24c0.34-5.13,0.55-10.27-0.37-15.41
		c-2.24-12.52-8-17.64-20.87-18.33c-1.65-0.09-3.3-0.27-4.94-0.41c-0.3-0.24-0.61-0.48-0.92-0.72c0.14-1.81,0.4-3.62,0.4-5.43
		c0.02-114.2,0.02-228.39,0-342.59c0-1.82-0.2-3.63-0.31-5.45C332.15,187.57,332.33,186.29,333.8,186.19z"/>
	<path d="M349.89,710.46c6.32,0.06,12.65,0.17,18.97,0.17c59.61,0,119.22-0.02,178.82-0.04c6.41,16.84,12.9,33.65,19.2,50.53
		c2.02,5.4,4.75,10.57,5.65,16.36c-23.47,0.03-46.95,0.08-70.42,0.09c-56.44,0.03-112.87,0.04-169.31,0.05
		c2.33-7.52,7.26-13.67,11-20.44c1.9-3.45,2.95-6.83,3.14-10.75c0.52-11.07,1.34-22.12,2.1-33.17
		C349.12,712.32,349.6,711.4,349.89,710.46z"/>
	<path class="st3" d="M511.55,602.61c-2.23-0.88-4.56-0.76-6.89-0.75c-38.64,0.01-77.28,0.01-115.91,0.01
		c-6.92,0-7.83-0.87-7.83-7.71c-0.02-18.63-0.01-37.26,0-55.89c0-6.96,0.74-7.7,7.75-7.7c68.62-0.01,137.23,0,205.85-0.01
		c2.16,0,4.33-0.05,6.49-0.07c0.65,0.13,1.3,0.26,1.95,0.4c2.3,2.61,5.15,4.91,6.78,7.88c4.02,7.32,9.19,11.87,18.17,10.28
		c1.64-0.29,3.92-0.64,3.99,2.29c-4.16,0.01-8.32,0.06-12.48,0.02c-2.48-0.02-3.47,0.99-3.56,3.58c-0.23,6.82-0.24,13.62-0.03,20.45
		c0.11,3.42,1.88,3.63,4.49,3.69c2.98,0.07,3.53-1.41,3.65-4.01c0.09-2.07-1.65-5.42,1.51-5.97c3.15-0.55,3.39,2.97,4.23,5.23
		c0.12,0.31,0.2,0.63,0.31,0.95c1.57,4.54,5.68,5.28,9.37,1.7c0.81,0.07,2-0.11,2.18,0.75c0.85,4.1,4,6.68,6.25,9.85
		c3.2,4.5,7.41,8.31,9.2,13.76c-3.97,0.18-7.95,0.51-11.92,0.52c-25.43,0.07-50.86,0.08-76.29,0.11
		c-5.23-5.44-8.03-12.73-13.76-17.85c-1.71-1.53-4.81-1.87-4.91-5c1.63-0.27,3.26-0.56,4.9-0.8c4.25-0.63,7.21-2.92,7.65-7.23
		c0.46-4.44-2.56-6.77-6.23-8.58c-1.98-0.98-6.24-0.34-5.36-3.55c0.77-2.79,4.27-0.97,6.58-0.53c1.92,0.36,2.73-0.67,3.28-2.22
		c0.53-1.49,0.75-2.76-0.96-3.83c-5.39-3.4-14.6-0.65-17.41,5.3c-1.93,1.55-1.95,3.1-0.01,4.66c1.61,4.35,5.77,4.97,9.38,6.34
		c3.22,1.22,3.13,2.54,0.27,4.1c-1.12-0.66-2.28-0.71-3.47-0.19c-2.49-0.55-5.43-2.46-6.24,2.07c-1.66,0.55-0.84,4.22-3.53,3.13
		c-2.13-0.86-1.17-3.18-1.2-4.86c-0.09-5.91-0.01-11.82-0.04-17.73c-0.01-1.96,0.18-4.2-2.96-3.73c-1.68-0.1-3.37-0.39-4.96,0.43
		c-2.68,3.55-1.65,7.31-0.6,11.06c0.04,5.11-0.43,10.25,0.57,15.33c1.09,2.98-2.61,2.69-3.13,4.57
		C517.84,585.07,512.88,591.56,511.55,602.61z M524.73,570.14c0-7.74-0.42-8.11-8.17-7.62c-1.78,0.11-3.42,0.29-3.93,2.29
		c-0.54,2.11,0.1,3.57,2.49,3.96c1.06,0.18,1.81,0.87,1.77,2.06c-0.04,1.16-0.79,1.74-1.85,2.02c-3.09,0.79-8.28-1.95-9.42-5.24
		c-1.36-3.94,0.36-6.78,3.75-8.74c2.76-1.59,5.75-1.6,8.73-0.8c2.41,0.65,4.23,0.7,4.78-2.42c0.55-3.12-1.51-3.76-3.72-4.12
		c-4.69-0.76-9.34-0.47-13.73,1.44c-5.78,2.5-9.56,8.82-8.77,14.34c0.86,6.02,6.02,10.73,12.75,11.43c2.31,0.24,4.66,0.3,6.98,0.18
		C524.1,578.53,524.72,577.82,524.73,570.14z M448.14,565.46c0,1.66,0,3.32,0,4.98c0,1.82,0.06,3.65-0.03,5.47
		c-0.16,3.37,2.18,3.09,4.38,3.11c2.23,0.03,4.05-0.4,3.91-3.2c-0.06-1.16-0.22-2.31-0.31-3.47c-0.1-1.36-0.15-2.84,1.47-3.29
		c1.52-0.42,2.6,0.7,3.19,1.87c0.73,1.45,1.22,3.06,1.59,4.66c0.9,3.84,3.84,3.79,6.67,3.33c3.68-0.6,1.74-3.27,1.38-5.09
		c-0.35-1.76-0.95-3.58-1.9-5.09c-1.19-1.9-0.78-3.1,0.43-4.84c3.46-4.96,1.79-9.74-3.92-11.76c-4.69-1.66-9.53-0.86-14.32-0.66
		c-2.2,0.1-2.56,1.73-2.56,3.54C448.13,558.49,448.13,561.98,448.14,565.46z M591.56,565.15c0,13.86,0,13.86,13.77,13.87
		c1,0,2-0.04,3,0.01c2.18,0.12,3.5-0.57,3.48-3.06c-0.02-2.57-1.19-3.64-3.71-3.44c-1.33,0.11-2.66,0.12-3.99,0.18
		c-1.79,0.09-4.1,0.68-4.17-2.06c-0.06-2.56,2.25-1.82,3.78-1.92c1.33-0.09,2.66-0.01,4-0.02c2.05-0.02,3.05-1.06,3.01-3.11
		c-0.04-1.92-0.78-3.23-2.91-3.26c-1.83-0.02-3.67,0.02-5.5,0c-1.57-0.02-2.52-0.74-2.48-2.42c0.04-1.7,1.1-2.3,2.62-2.31
		c2.17-0.02,4.33,0.01,6.5,0.01c1.96-0.01,2.54-1.23,2.6-2.94c0.06-1.85-0.34-3.36-2.6-3.44c-1.16-0.04-2.33-0.04-3.5-0.04
		C591.56,551.15,591.56,551.15,591.56,565.15z M474.04,565.08c0.01,0,0.01,0,0.02,0c0,3.49,0.08,6.99-0.03,10.48
		c-0.08,2.59,1.04,3.56,3.59,3.49c4.33-0.12,8.66-0.07,12.99-0.02c2.22,0.02,3.44-0.79,3.38-3.2c-0.05-2.3-1.08-3.37-3.38-3.26
		c-1.99,0.09-3.99,0.23-5.98,0.17c-1.18-0.04-2.4-0.45-2.48-1.93c-0.09-1.55,1.1-1.93,2.32-1.99c1.83-0.1,3.66-0.06,5.49-0.08
		c2.11-0.03,2.94-1.19,2.89-3.2c-0.04-1.94-0.7-3.22-2.9-3.18c-1.67,0.03-3.33,0.04-5-0.01c-1.43-0.05-2.75-0.48-2.84-2.16
		c-0.11-2.01,1.37-2.46,2.99-2.51c1.66-0.06,3.33-0.07,5,0c2.5,0.1,3.72-0.98,3.66-3.53c-0.06-2.51-1.61-2.96-3.68-2.95
		c-4.16,0.03-8.33,0.14-12.49-0.04c-3.04-0.13-3.68,1.36-3.59,3.96C474.13,558.43,474.04,561.76,474.04,565.08z M576.79,551.19
		c-2.5,0-5-0.02-7.5,0.01c-1.98,0.02-4.16-0.35-4.22,2.76c-0.06,2.85,1.28,3.92,3.98,3.68c3.18-0.28,4.01,1.5,3.94,4.3
		c-0.11,4.32,0.19,8.67-0.18,12.97c-0.28,3.21,0.9,4.14,3.86,4.17c2.74,0.02,4.47-0.46,4.3-3.8c-0.22-4.31,0.07-8.65-0.12-12.97
		c-0.14-3.23,0.54-5.2,4.35-4.69c2.2,0.29,3.41-0.76,3.46-3.14c0.05-2.77-1.56-3.33-3.87-3.28
		C582.12,551.24,579.46,551.2,576.79,551.19z"/>
	<path class="st4" d="M568.8,601.95c25.43-0.03,50.86-0.03,76.29-0.11c3.98-0.01,7.95-0.34,11.92-0.53c1,0.34,2,0.67,3,1.01
		c0.35,4.67,4.63,6.69,7.04,9.87c13.09,17.27,26.63,34.19,39.98,51.26c0.48,0.62,0.63,1.49,0.94,2.24
		c-7.88,2.44-15.78,4.77-22.36,10.19c-7.81,6.43-9.53,12.52-5.9,21.81c1.56,3.98,3.76,7.75,4.36,12.08
		c-1.06,0.29-2.13,0.58-3.19,0.87c-3.22-5.45-5.29-11.43-7.71-17.24c-2.25-5.39-4.86-10.6-8.36-15.25
		c-5.52-7.33-12.41-11.13-22.08-8.81c-7.15,1.72-14.2,3.5-20.32,7.69c-9.15,6.27-11.92,14.61-8.6,25.21
		c0.79,2.52,1.55,5.05,2.33,7.58c-1.18,0.91-2.58,0.7-3.93,0.73c-5.99-14.68-12.02-29.34-17.97-44.03
		c-8.09-19.95-16.11-39.92-24.22-59.85C569.4,605.13,568.74,603.65,568.8,601.95z"/>
	<path class="st2" d="M521.92,604.34c0.07-11.92,10.5-20.92,22.17-18.18c6.77,1.59,10.78,7.45,14.08,13.27
		c3.68,6.47,6.56,13.34,9.24,20.29c0.73,1.9,0.78,3.57-0.77,5.01c-9.24,8.6-19.89,13.42-32.79,12.12c-2.23-0.22-3.91-1.74-4.45-3.56
		C526.56,623.73,521.58,614.7,521.92,604.34z"/>
	<path class="st1" d="M501.37,842.5c-1-1.83-1.72-3.72-1.14-5.85c21.43-2.89,31.41,16.08,32.74,31.51c0.07,0.82-0.06,1.66,0.02,2.48
		c0.89,9.25-1.71,13.18-12.76,14.83c-0.64-0.52-1.28-1.04-1.91-1.56c-3.7-11.45-9.69-21.95-13.86-33.2
		c-0.68-1.84-1.2-3.75-1.79-5.63C503.07,843.79,502.8,842.85,501.37,842.5z"/>
	<path d="M612.22,710.57c1.35-0.04,2.74,0.18,3.93-0.73c4.62,7.56,6.92,16.11,10.27,24.2c4.18,10.12,8.1,20.36,11.99,30.61
		c0.84,2.21,2.48,5.63-0.07,6.72c-2.29,0.97-3.38-2.68-4.19-4.68C626.64,748.05,618.38,729.72,612.22,710.57z"/>
	<path class="st4" d="M552.24,572.74c2.85-1.56,2.95-2.87-0.27-4.1c-3.61-1.37-7.77-1.99-9.38-6.34c0.43-1.55,0.43-3.11,0.01-4.66
		c2.81-5.95,12.02-8.7,17.41-5.3c1.71,1.08,1.49,2.34,0.96,3.83c-0.55,1.55-1.36,2.59-3.28,2.22c-2.31-0.44-5.82-2.26-6.58,0.53
		c-0.88,3.21,3.38,2.57,5.36,3.55c3.67,1.81,6.69,4.14,6.23,8.58c-0.45,4.32-3.4,6.6-7.65,7.23c-1.64,0.24-3.27,0.53-4.9,0.8
		c-2.02-0.44-4.04-0.89-6.06-1.33c-0.52-1.04-1.03-2.09-1.55-3.14c0.81-4.53,3.75-2.61,6.24-2.07
		C549.84,574.23,550.99,574.31,552.24,572.74z"/>
	<path d="M680.89,710.66c1.06-0.29,2.13-0.58,3.19-0.87c3.06,2.51,3.3,6.41,4.63,9.72c4.05,10.12,9.01,19.91,11.1,30.85
		C690.99,738.33,685.88,724.52,680.89,710.66z"/>
	<path class="st4" d="M529.78,578.25c-0.99-5.08-0.52-10.21-0.57-15.33c1.48-3.62,0.43-7.37,0.6-11.06c1.6-0.83,3.29-0.53,4.96-0.43
		c0.83,1.46,1.23,2.97,1.21,4.7c-0.11,7.58-0.11,15.17-0.15,22.75c-0.61,0.05-1.23,0.1-1.84,0.15
		C532.69,578.27,531.31,577.84,529.78,578.25z"/>
	<path class="st3" d="M535.84,578.88c0.04-7.59,0.04-15.17,0.15-22.75c0.03-1.73-0.37-3.24-1.21-4.7c3.14-0.47,2.95,1.77,2.96,3.73
		c0.03,5.91-0.05,11.82,0.04,17.73c0.03,1.68-0.93,4,1.2,4.86c2.69,1.09,1.88-2.58,3.53-3.13c0.51,1.05,1.03,2.09,1.55,3.14
		C541.93,582.52,538.62,578.77,535.84,578.88z"/>
	<path class="st3" d="M529.78,578.25c1.53-0.41,2.9,0.02,4.21,0.78c-0.85,4.33-4.84,2.61-7.34,3.79
		C527.18,580.94,530.88,581.23,529.78,578.25z"/>
	<path class="st2" d="M543.83,939.46c-2.61-0.91-2.33-3.27-2.68-5.31C543.4,935.24,543.44,937.43,543.83,939.46z"/>
	<path class="st2" d="M522.83,892.53c-2.35-0.61-2.71-2.4-2.61-4.45C522,889.03,522.76,890.57,522.83,892.53z"/>
	<path class="st2" d="M527.66,903.53c-2.18-0.74-2.57-2.46-2.44-4.47C526.93,900.06,527.88,901.47,527.66,903.53z"/>
	<path class="st2" d="M551.48,956.46c-1.96-0.87-2.43-2.5-2.28-4.45C550.87,953.03,551.87,954.39,551.48,956.46z"/>
	<path class="st2" d="M548.82,950.45c-1.56-0.21-1.86-1.18-1.55-2.53C548.3,948.45,548.98,949.19,548.82,950.45z"/>
	<path class="st2" d="M518.32,883.9c0.64,0.52,1.28,1.04,1.91,1.56c-0.12,0.36-0.24,0.71-0.36,1.07
		C518.25,886.31,517.95,885.3,518.32,883.9z"/>
	<path class="st2" d="M524.88,897.52c-1.24-0.22-2.36-0.5-0.95-1.98C524.74,895.96,524.99,896.65,524.88,897.52z"/>
	<path class="st2" d="M532.65,914.51c-1.32-0.22-1.69-1.07-1.51-2.29C532.22,912.6,532.94,913.22,532.65,914.51z"/>
	<path class="st2" d="M537.66,925.5c-1.35-0.24-1.71-1.1-1.51-2.34C537.23,923.56,537.96,924.2,537.66,925.5z"/>
	<path class="st2" d="M540.73,932.48c-1.43-0.22-1.79-1.12-1.54-2.41C540.21,930.55,540.99,931.19,540.73,932.48z"/>
	<path class="st2" d="M545.79,943.46c-1.46-0.2-1.85-1.11-1.59-2.43C545.21,941.53,546,942.17,545.79,943.46z"/>
	<path class="st6" d="M742.39,696.88c0.43-0.06,0.86-0.12,1.28-0.18c0.43,0.97,0.22,1.81-0.52,2.54
		C742.9,698.45,742.64,697.67,742.39,696.88z"/>
	<path class="st4" d="M540.89,135.68c8.42-0.04,15.58,6.6,15.78,14.64c0.2,7.87-7.48,15.75-15.45,15.86
		c-8.01,0.11-15.13-7.02-15.23-15.26C525.89,142.3,532.33,135.72,540.89,135.68z"/>
	<path class="st2" d="M353.32,568.85c-0.77,6.72-1.51,13.44-2.34,20.15c-0.32,2.58-2.05,4.35-4.41,4.87
		c-9.47,2.06-18.72,1.39-27.31-3.47c-2.42-1.37-3.45-3.34-2.49-6.66c1.88-6.48,2.93-13.2,4.42-19.8c1.85-8.2,8.08-15.24,13.99-15.93
		c9.38-1.1,17.2,5.83,17.82,15.82c0.1,1.66,0.01,3.32,0.01,4.98C353.12,568.83,353.22,568.84,353.32,568.85z"/>
	<path class="st5" d="M287.14,661.87c0.12-6.57,2.74-12.57,4.36-18.79c5.37-20.65,10.92-41.26,16.54-61.85
		c2.48-9.09,4.83-18.24,9-26.78c0.86-1.75,1.48-3.71,3.58-4.47c-10.11,20.38-13.55,42.82-19.88,64.36
		c-4.53,15.41-8.4,31.02-12.6,46.52C288.03,661.27,287.49,661.54,287.14,661.87z"/>
	<path class="st5" d="M331.53,542.01c0.31,0.24,0.61,0.48,0.92,0.72c-2.09,1.95-4.98,1.84-7.42,2.86
		C326.46,543.06,329.37,543.22,331.53,542.01z"/>
	<path class="st5" d="M273.01,673.37c0.31-1.73,1.35-2.56,3.1-2.5C275.49,672.22,274.58,673.21,273.01,673.37z"/>
	<path class="st5" d="M277.03,670.26c0.32-1.6,1.31-2.39,2.94-2.39C279.44,669.22,278.6,670.19,277.03,670.26z"/>
	<path class="st5" d="M282.02,666.38c0.34-1.73,1.35-2.57,3.14-2.42C284.54,665.32,283.58,666.24,282.02,666.38z"/>
	<path class="st2" d="M472.03,961.18c-1.17,0.4-2.22,0.32-3.02-0.74C470.44,958.91,471.47,959.09,472.03,961.18z"/>
	<path class="st7" d="M501.37,842.5c1.43,0.35,1.7,1.29,1.29,2.56C501.63,844.51,501,843.76,501.37,842.5z"/>
	<path class="st1" d="M537.67,305.31c-34.16,0-68.31,0-102.47-0.01c-6.89,0-7.28-0.42-7.28-7.41c0-11.81,0-23.63,0-35.44
		c0-6.49,0.48-6.97,7.2-6.97c36.32-0.01,72.64,0,108.96,0c32.16,0,64.31,0,96.47,0.01c6.79,0,7.41,0.64,7.41,7.42
		c0,11.65,0,23.3,0,34.94c0,6.91-0.55,7.46-7.33,7.46C606.32,305.31,571.99,305.31,537.67,305.31z"/>
	<path class="st1" d="M647.58,340.29c0.79,14.57,0.28,29.14,0.24,43.71c0,0.43-0.44,0.85-0.67,1.28
		c-51.96-0.02-103.93-0.06-155.89-0.04c-3.42,0-6.69,0.42-6.72-4.65c-0.01-1.77-1.87-3.02-3.04-4.44c-3.26-3.94-6.38-8-9.53-12.03
		c-5.17-6.62-10.35-13.24-15.47-19.9c-1.04-1.36-3.66-2.17-2.74-4.2c0.73-1.61,3.03-0.72,4.61-0.72
		c60.79-0.04,121.58-0.03,182.37-0.06C643.1,339.25,645.38,339.42,647.58,340.29z"/>
	<path class="st1" d="M429.97,469.52c-2.15-1.15-2.09-3.16-2.08-5.19c0.02-12.79,0.16-25.59-0.06-38.38
		c-0.08-4.74,1.9-5.92,6.29-5.89c24.79,0.15,49.57,0.08,74.36,0.07c1.82,0,3.65-0.15,5.47-0.23c14.8,0.06,29.59,0.17,44.39,0.18
		c27.78,0.03,55.57-0.01,83.35,0.04c1.97,0,4.52-1,5.5,1.98c-42.88,0-85.76,0-129.92,0c2.18,2.16,3.34,2.94,4.01,4.02
		c4.87,7.89,11.25,14.6,16.86,21.89c5.19,6.75,10.94,13.19,14.88,20.86c-1.98,0.1-3.97,0.29-5.95,0.29
		c-36.88,0.02-73.77,0.01-110.65,0.03C434.27,469.2,432.12,469.41,429.97,469.52z"/>
	<path class="st1" d="M553.02,468.88c-3.94-7.67-9.69-14.11-14.88-20.86c-5.61-7.3-11.99-14-16.86-21.89
		c-0.67-1.08-1.83-1.86-4.01-4.02c44.16,0,87.04,0,129.92,0c0.93,0.93,0.79,2.13,0.77,3.27c-0.25,13.22,0.55,26.46-0.48,39.67
		c-0.14,1.78,0.22,3.85-2.52,3.97c-1.35-1.46-3.12-0.9-4.72-0.9c-26.81-0.03-53.63-0.03-80.44,0c-1.6,0-3.37-0.55-4.74,0.86
		C554.37,468.94,553.69,468.91,553.02,468.88z"/>
	<path class="st3" d="M660.01,602.33c-1-0.34-2-0.67-3-1.01c-1.78-5.44-6-9.25-9.2-13.75c-2.25-3.16-5.4-5.75-6.25-9.85
		c-0.18-0.87-1.38-0.68-2.18-0.75c-1.73-2.99-1.62-6.74-3.92-9.52c-0.7-0.85-0.4-1.72,0.17-2.69c4.22-7.24,3.78-8.74-3.75-13.42
		c-0.07-2.93-2.36-2.58-3.99-2.29c-8.98,1.6-14.15-2.95-18.17-10.28c-1.63-2.97-4.48-5.27-6.78-7.88c1.53-0.96,3.24-0.54,4.87-0.54
		c27.26-0.03,54.53-0.03,81.79-0.02c7.47,0,8.24,0.79,8.24,8.31c0,18.76-0.08,37.52,0.07,56.28c0.03,3.88-1.13,6.41-5,7.4
		c-0.29-0.29-0.57-0.29-0.85,0c-1.39-0.65-2.78-0.67-4.18-0.02c-0.28-0.29-0.56-0.29-0.83,0.01c-1.71-0.71-3.43-0.67-5.14-0.01
		c-0.26-0.3-0.52-0.3-0.8-0.02c-1.09-0.57-2.18-0.54-3.27,0.01c-0.58,0-1.15,0-1.73,0c-1.09-0.55-2.18-0.57-3.27,0
		c-0.28-0.29-0.54-0.28-0.81,0.02C668.04,601.54,664.02,601.64,660.01,602.33z"/>
	<path class="st1" d="M647.58,340.29c-2.2-0.88-4.48-1.04-6.83-1.04c-60.79,0.03-121.58,0.02-182.37,0.06
		c-1.58,0-3.88-0.89-4.61,0.72c-0.92,2.03,1.7,2.84,2.74,4.2c5.12,6.66,10.3,13.28,15.47,19.9c3.15,4.03,6.27,8.09,9.53,12.03
		c1.17,1.41,3.03,2.66,3.04,4.44c0.03,5.06,3.3,4.65,6.72,4.65c51.96-0.01,103.93,0.02,155.89,0.04c-1.27,3.06-4,1.83-6.09,1.83
		c-48.05,0.07-96.1,0.05-144.14,0.07c-1.99,0-3.97,0.18-5.96,0.28c-18.29-0.1-36.58-0.21-54.88-0.3c-8.12-0.04-8.18-0.07-8.18-7.95
		c0-11.96,0.16-23.93-0.08-35.89c-0.09-4.66,1.75-6.22,6.18-6.06c4.98,0.17,9.97-0.08,14.96-0.15c2.48,0.06,4.97,0.16,7.45,0.16
		c61.52,0.01,123.04-0.01,184.56,0.07C643.4,337.34,646.98,335.78,647.58,340.29z"/>
	<path class="st1" d="M555.05,468.98c1.37-1.41,3.14-0.86,4.74-0.86c26.81-0.03,53.63-0.03,80.44,0c1.6,0,3.37-0.56,4.72,0.9
		c-1.37,1.44-3.14,0.84-4.73,0.84c-26.81,0.04-53.63,0.04-80.44,0.01C558.18,469.86,556.41,470.39,555.05,468.98z"/>
	<path class="st6" d="M676.12,602.31c0.58,0,1.15,0,1.73,0C677.27,602.93,676.7,602.94,676.12,602.31z"/>
	<path class="st6" d="M692.07,602.33c0.28-0.3,0.57-0.3,0.85,0C692.63,602.33,692.35,602.33,692.07,602.33z"/>
	<path class="st6" d="M687.05,602.33c0.27-0.3,0.55-0.3,0.83-0.01C687.61,602.32,687.33,602.32,687.05,602.33z"/>
	<path class="st6" d="M681.12,602.3c0.27-0.29,0.54-0.28,0.8,0.02c0,0-0.41,0.26-0.41,0.26L681.12,602.3z"/>
	<path class="st6" d="M672.05,602.32c0.26-0.3,0.53-0.31,0.81-0.02c0,0-0.4,0.27-0.4,0.27L672.05,602.32z"/>
	<path class="st4" d="M524.73,570.14c0,7.68-0.63,8.39-8.37,8.78c-2.32,0.12-4.67,0.06-6.98-0.18c-6.72-0.7-11.89-5.41-12.75-11.43
		c-0.79-5.52,2.99-11.83,8.77-14.34c4.39-1.9,9.04-2.2,13.73-1.44c2.22,0.36,4.27,0.99,3.72,4.12c-0.55,3.11-2.37,3.07-4.78,2.42
		c-2.98-0.8-5.97-0.79-8.73,0.8c-3.39,1.96-5.12,4.8-3.75,8.74c1.14,3.28,6.33,6.03,9.42,5.24c1.07-0.27,1.81-0.86,1.85-2.02
		c0.04-1.18-0.7-1.88-1.77-2.06c-2.38-0.4-3.03-1.86-2.49-3.96c0.52-2,2.16-2.18,3.93-2.29C524.3,562.03,524.73,562.4,524.73,570.14
		z"/>
	<path class="st4" d="M448.13,565.46c0-3.48,0-6.97,0-10.45c0-1.8,0.35-3.44,2.56-3.54c4.79-0.21,9.63-1.01,14.32,0.66
		c5.71,2.02,7.37,6.8,3.92,11.76c-1.21,1.74-1.62,2.95-0.43,4.84c0.95,1.51,1.55,3.33,1.9,5.09c0.36,1.82,2.3,4.49-1.38,5.09
		c-2.83,0.46-5.77,0.52-6.67-3.33c-0.37-1.59-0.86-3.21-1.59-4.66c-0.59-1.17-1.67-2.29-3.19-1.87c-1.62,0.45-1.57,1.93-1.47,3.29
		c0.09,1.16,0.25,2.31,0.31,3.47c0.14,2.81-1.68,3.23-3.91,3.2c-2.2-0.03-4.54,0.26-4.38-3.11c0.09-1.82,0.03-3.65,0.03-5.47
		C448.14,568.78,448.14,567.12,448.13,565.46z M462.83,559.93c-0.51-1.55-1.54-2.66-3.37-2.84c-2.22-0.22-3.35,0.84-3.46,3.07
		c-0.08,1.7,0.41,2.95,2.31,3.04C460.52,563.32,462.02,562.28,462.83,559.93z"/>
	<path class="st4" d="M631.89,551.33c7.52,4.68,7.97,6.18,3.75,13.42c-0.57,0.97-0.87,1.84-0.17,2.69c2.3,2.78,2.19,6.52,3.92,9.52
		c-3.69,3.58-7.8,2.84-9.37-1.7c-0.11-0.31-0.2-0.64-0.31-0.95c-0.84-2.26-1.08-5.78-4.23-5.23c-3.15,0.55-1.41,3.91-1.51,5.97
		c-0.12,2.6-0.67,4.08-3.65,4.01c-2.61-0.06-4.38-0.27-4.49-3.69c-0.21-6.82-0.2-13.63,0.03-20.45c0.09-2.59,1.08-3.6,3.56-3.58
		C623.57,551.39,627.73,551.34,631.89,551.33z M626.99,557.05c-2.53-0.2-3.27,1.12-3.4,2.98c-0.13,1.84,0.35,3.49,2.56,3.36
		c2.04-0.12,4.18-0.94,4.29-3.29C630.54,557.89,628.53,557.31,626.99,557.05z"/>
	<path class="st4" d="M591.56,565.15c0-13.99,0-13.99,13.89-13.95c1.17,0,2.33,0,3.5,0.04c2.26,0.09,2.66,1.59,2.6,3.44
		c-0.05,1.71-0.64,2.93-2.6,2.94c-2.17,0.01-4.33-0.02-6.5-0.01c-1.52,0.01-2.58,0.61-2.62,2.31c-0.04,1.68,0.91,2.4,2.48,2.42
		c1.83,0.03,3.67-0.02,5.5,0c2.13,0.03,2.87,1.34,2.91,3.26c0.04,2.05-0.96,3.09-3.01,3.11c-1.33,0.01-2.67-0.07-4,0.02
		c-1.52,0.11-3.84-0.64-3.78,1.92c0.07,2.74,2.38,2.14,4.17,2.06c1.33-0.06,2.66-0.07,3.99-0.18c2.52-0.21,3.69,0.87,3.71,3.44
		c0.02,2.48-1.3,3.17-3.48,3.06c-1-0.05-2-0.01-3-0.01C591.56,579,591.56,579,591.56,565.15z"/>
	<path class="st4" d="M474.04,565.08c0-3.33,0.09-6.66-0.03-9.98c-0.09-2.6,0.55-4.09,3.59-3.96c4.16,0.18,8.33,0.07,12.49,0.04
		c2.07-0.02,3.62,0.44,3.68,2.95c0.06,2.56-1.16,3.63-3.66,3.53c-1.66-0.07-3.33-0.06-5,0c-1.62,0.06-3.1,0.51-2.99,2.51
		c0.09,1.68,1.41,2.11,2.84,2.16c1.66,0.05,3.33,0.04,5,0.01c2.2-0.04,2.86,1.24,2.9,3.18c0.04,2.01-0.79,3.17-2.89,3.2
		c-1.83,0.03-3.67-0.01-5.49,0.08c-1.22,0.06-2.41,0.44-2.32,1.99c0.08,1.48,1.31,1.89,2.48,1.93c1.99,0.06,3.99-0.08,5.98-0.17
		c2.3-0.1,3.33,0.97,3.38,3.26c0.05,2.41-1.16,3.23-3.38,3.2c-4.33-0.04-8.66-0.09-12.99,0.02c-2.55,0.07-3.66-0.9-3.59-3.49
		c0.1-3.49,0.03-6.99,0.03-10.48C474.05,565.08,474.05,565.08,474.04,565.08z"/>
	<path class="st4" d="M576.79,551.2c2.67,0,5.33,0.05,8-0.01c2.31-0.05,3.91,0.51,3.87,3.28c-0.04,2.38-1.26,3.43-3.46,3.14
		c-3.81-0.5-4.5,1.47-4.35,4.69c0.19,4.32-0.1,8.66,0.12,12.97c0.17,3.35-1.55,3.82-4.3,3.8c-2.96-0.02-4.14-0.96-3.86-4.17
		c0.37-4.3,0.07-8.64,0.18-12.97c0.07-2.8-0.76-4.59-3.94-4.3c-2.71,0.24-4.05-0.83-3.98-3.68c0.07-3.12,2.25-2.74,4.22-2.76
		C571.79,551.17,574.29,551.19,576.79,551.2z"/>
	<path class="st4" d="M529.82,551.86c-0.17,3.69,0.88,7.44-0.6,11.06C528.17,559.17,527.14,555.41,529.82,551.86z"/>
	<path class="st4" d="M542.59,557.65c0.43,1.55,0.42,3.11-0.01,4.66C540.65,560.75,540.66,559.2,542.59,557.65z"/>
	<path class="st4" d="M552.24,572.74c-1.25,1.57-2.4,1.48-3.47-0.19C549.96,572.03,551.11,572.08,552.24,572.74z"/>
	<path class="st3" d="M462.83,559.93c-0.81,2.35-2.31,3.39-4.52,3.28c-1.9-0.1-2.39-1.35-2.31-3.04c0.11-2.23,1.23-3.29,3.46-3.07
		C461.29,557.27,462.32,558.38,462.83,559.93z"/>
	<path class="st3" d="M626.99,557.05c1.54,0.26,3.55,0.84,3.45,3.05c-0.11,2.35-2.25,3.17-4.29,3.29c-2.21,0.13-2.7-1.52-2.56-3.36
		C623.72,558.17,624.46,556.84,626.99,557.05z"/>
</g>
</svg>
