<svg width="58" height="83" viewBox="0 0 58 83" fill="none" xmlns="http://www.w3.org/2000/svg">
<mask id="path-1-inside-1_629_7370" fill="white">
<path d="M40.582 14.6559V11.3155C40.582 11.1929 40.5388 11.0778 40.467 10.9895L40.4314 10.9552C40.3386 10.8624 40.2096 10.8046 40.0711 10.8046H33.8992C33.1448 10.8046 32.5328 10.1925 32.5328 9.43814V6.78857C32.5328 5.84287 32.1445 4.98048 31.5191 4.35571C30.8981 3.72842 30.0363 3.34201 29.0869 3.34201C28.1679 3.34201 27.3309 3.70491 26.7137 4.29215L26.6546 4.3557C26.0292 4.98109 25.6409 5.84288 25.6409 6.78855V9.43812C25.6409 10.1925 25.0289 10.8045 24.2745 10.8045H18.102C17.9609 10.8045 17.8306 10.8617 17.7391 10.9533C17.6476 11.0448 17.5904 11.1751 17.5904 11.3162V17.1841C17.5904 17.3226 17.6482 17.4523 17.741 17.5444C17.8306 17.6379 17.9603 17.6951 18.1013 17.6951H40.0707C40.2093 17.6951 40.3389 17.6372 40.4311 17.5444C40.5239 17.4517 40.5817 17.3226 40.5817 17.1841L40.582 14.6559ZM29.087 4.99562C30.0682 4.99562 30.8646 5.79195 30.8646 6.77328C30.8646 7.7546 30.0683 8.55094 29.087 8.55094C28.1056 8.55094 27.3093 7.7546 27.3093 6.77328C27.3093 5.79195 28.1056 4.99562 29.087 4.99562ZM41.9499 49.9823C44.7685 49.9823 47.3253 51.1295 49.176 52.9815C51.0294 54.8285 52.1753 57.3858 52.1753 60.209C52.1753 63.0252 51.0294 65.5814 49.1793 67.4332L49.1704 67.4421C47.3184 69.2896 44.7648 70.435 41.9493 70.435C39.1331 70.435 36.5769 69.2891 34.7251 67.439L34.7162 67.4301C32.8687 65.5781 31.7233 63.0245 31.7233 60.209C31.7233 57.3865 32.8692 54.8285 34.7193 52.9785L34.8 52.9041C36.6457 51.0973 39.1699 49.9825 41.9487 49.9825L41.9499 49.9823ZM47.2466 54.9077C45.8948 53.554 44.0212 52.7157 41.9499 52.7157C39.9104 52.7157 38.0641 53.5279 36.7168 54.8422L36.6532 54.9108C35.2976 56.2664 34.4581 58.1401 34.4581 60.2087C34.4581 62.2798 35.2964 64.1535 36.6482 65.5054C38.0051 66.8622 39.8786 67.7005 41.9506 67.7005C44.0218 67.7005 45.8954 66.8622 47.2473 65.5104C48.6042 64.1535 49.4424 62.28 49.4424 60.208C49.4424 58.1399 48.6029 56.2663 47.2473 54.9069L47.2466 54.9077ZM37.9123 60.9226C37.4795 60.3067 37.6282 59.4545 38.2441 59.0223C38.8599 58.5895 39.7122 58.7382 40.1444 59.354L41.1645 60.7974L43.6914 56.4197C44.0651 55.7689 44.8976 55.5446 45.5491 55.9183C46.1999 56.292 46.4242 57.1246 46.0505 57.776L42.5054 63.9173C42.4076 64.1188 42.2589 64.2993 42.0631 64.4372C41.4472 64.87 40.595 64.7213 40.1628 64.1054L37.9123 60.9226ZM10.211 28.4786C9.45662 28.4786 8.8446 27.8666 8.8446 27.1122C8.8446 26.3578 9.45662 25.7458 10.211 25.7458H47.9656C48.7199 25.7458 49.332 26.3578 49.332 27.1122C49.332 27.8666 48.7199 28.4786 47.9656 28.4786H10.211ZM10.211 70.1184C9.45662 70.1184 8.8446 69.5064 8.8446 68.752C8.8446 67.9976 9.45662 67.3856 10.211 67.3856H31.2953C32.0497 67.3856 32.6617 67.9976 32.6617 68.752C32.6617 69.5064 32.0497 70.1184 31.2953 70.1184H10.211ZM10.211 61.7914C9.45662 61.7914 8.8446 61.1794 8.8446 60.425C8.8446 59.6706 9.45662 59.0586 10.211 59.0586H28.2935C29.0479 59.0586 29.6599 59.6706 29.6599 60.425C29.6599 61.1794 29.0479 61.7914 28.2935 61.7914H10.211ZM10.211 53.4631C9.45662 53.4631 8.8446 52.8511 8.8446 52.0967C8.8446 51.3423 9.45662 50.7303 10.211 50.7303H30.9618C31.7162 50.7303 32.3282 51.3423 32.3282 52.0967C32.3282 52.8511 31.7162 53.4631 30.9618 53.4631H10.211ZM10.211 45.1348C9.45662 45.1348 8.8446 44.5228 8.8446 43.7684C8.8446 43.014 9.45662 42.402 10.211 42.402H47.9656C48.7199 42.402 49.332 43.014 49.332 43.7684C49.332 44.5228 48.7199 45.1348 47.9656 45.1348H10.211ZM10.211 36.8079C9.45662 36.8079 8.8446 36.1958 8.8446 35.4414C8.8446 34.687 9.45662 34.075 10.211 34.075H47.9656C48.7199 34.075 49.332 34.687 49.332 35.4414C49.332 36.1958 48.7199 36.8079 47.9656 36.8079H10.211ZM43.3172 13.2538H52.445C53.8502 13.2538 55.1309 13.8296 56.0587 14.7562C56.9905 15.6892 57.5663 16.9697 57.5663 18.375V77.4872C57.5663 78.8923 56.9904 80.173 56.0638 81.1009C55.1308 82.0326 53.8503 82.6084 52.445 82.6084H5.73062C4.32543 82.6084 3.04477 82.0326 2.11689 81.106C1.18517 80.173 0.609375 78.8924 0.609375 77.4872V18.375C0.609375 16.9698 1.18519 15.6892 2.11181 14.7613C3.0448 13.8296 4.32534 13.2538 5.73058 13.2538H14.8595V11.3154C14.8595 10.4256 15.2243 9.61532 15.8109 9.02749C16.4039 8.43579 17.2142 8.07099 18.104 8.07099H22.91V6.78846C22.91 5.0884 23.6053 3.54145 24.7245 2.42289L24.8103 2.34408C25.9231 1.27256 27.4338 0.608398 29.0888 0.608398C30.7851 0.608398 32.3314 1.3056 33.4506 2.42608C34.573 3.54211 35.2683 5.08834 35.2683 6.78839V8.07093H40.073C40.9659 8.07093 41.7794 8.43573 42.3661 9.02235L42.4557 9.12149C42.9895 9.70048 43.3175 10.472 43.3175 11.316L43.3172 13.2538ZM14.8594 15.9873H5.73042C5.07262 15.9873 4.4733 16.2555 4.04176 16.687C3.61021 17.1186 3.34202 17.7179 3.34202 18.3757V77.4879C3.34202 78.1457 3.61021 78.745 4.04176 79.1765C4.4733 79.6081 5.07261 79.8763 5.73042 79.8763H52.4448C53.1026 79.8763 53.702 79.6081 54.1335 79.1765C54.565 78.745 54.8333 78.1457 54.8333 77.4879V18.3757C54.8333 17.7179 54.5651 17.1186 54.1335 16.687C53.702 16.2555 53.1027 15.9873 52.4448 15.9873H43.3171V17.184C43.3171 18.077 42.9522 18.8904 42.3656 19.4771C41.779 20.0638 40.9655 20.4286 40.0725 20.4286H18.1032C17.2134 20.4286 16.4031 20.0638 15.8153 19.4771C15.2236 18.8905 14.8588 18.077 14.8588 17.184L14.8594 15.9873Z"/>
</mask>
<path d="M40.582 14.6559V11.3155C40.582 11.1929 40.5388 11.0778 40.467 10.9895L40.4314 10.9552C40.3386 10.8624 40.2096 10.8046 40.0711 10.8046H33.8992C33.1448 10.8046 32.5328 10.1925 32.5328 9.43814V6.78857C32.5328 5.84287 32.1445 4.98048 31.5191 4.35571C30.8981 3.72842 30.0363 3.34201 29.0869 3.34201C28.1679 3.34201 27.3309 3.70491 26.7137 4.29215L26.6546 4.3557C26.0292 4.98109 25.6409 5.84288 25.6409 6.78855V9.43812C25.6409 10.1925 25.0289 10.8045 24.2745 10.8045H18.102C17.9609 10.8045 17.8306 10.8617 17.7391 10.9533C17.6476 11.0448 17.5904 11.1751 17.5904 11.3162V17.1841C17.5904 17.3226 17.6482 17.4523 17.741 17.5444C17.8306 17.6379 17.9603 17.6951 18.1013 17.6951H40.0707C40.2093 17.6951 40.3389 17.6372 40.4311 17.5444C40.5239 17.4517 40.5817 17.3226 40.5817 17.1841L40.582 14.6559ZM29.087 4.99562C30.0682 4.99562 30.8646 5.79195 30.8646 6.77328C30.8646 7.7546 30.0683 8.55094 29.087 8.55094C28.1056 8.55094 27.3093 7.7546 27.3093 6.77328C27.3093 5.79195 28.1056 4.99562 29.087 4.99562ZM41.9499 49.9823C44.7685 49.9823 47.3253 51.1295 49.176 52.9815C51.0294 54.8285 52.1753 57.3858 52.1753 60.209C52.1753 63.0252 51.0294 65.5814 49.1793 67.4332L49.1704 67.4421C47.3184 69.2896 44.7648 70.435 41.9493 70.435C39.1331 70.435 36.5769 69.2891 34.7251 67.439L34.7162 67.4301C32.8687 65.5781 31.7233 63.0245 31.7233 60.209C31.7233 57.3865 32.8692 54.8285 34.7193 52.9785L34.8 52.9041C36.6457 51.0973 39.1699 49.9825 41.9487 49.9825L41.9499 49.9823ZM47.2466 54.9077C45.8948 53.554 44.0212 52.7157 41.9499 52.7157C39.9104 52.7157 38.0641 53.5279 36.7168 54.8422L36.6532 54.9108C35.2976 56.2664 34.4581 58.1401 34.4581 60.2087C34.4581 62.2798 35.2964 64.1535 36.6482 65.5054C38.0051 66.8622 39.8786 67.7005 41.9506 67.7005C44.0218 67.7005 45.8954 66.8622 47.2473 65.5104C48.6042 64.1535 49.4424 62.28 49.4424 60.208C49.4424 58.1399 48.6029 56.2663 47.2473 54.9069L47.2466 54.9077ZM37.9123 60.9226C37.4795 60.3067 37.6282 59.4545 38.2441 59.0223C38.8599 58.5895 39.7122 58.7382 40.1444 59.354L41.1645 60.7974L43.6914 56.4197C44.0651 55.7689 44.8976 55.5446 45.5491 55.9183C46.1999 56.292 46.4242 57.1246 46.0505 57.776L42.5054 63.9173C42.4076 64.1188 42.2589 64.2993 42.0631 64.4372C41.4472 64.87 40.595 64.7213 40.1628 64.1054L37.9123 60.9226ZM10.211 28.4786C9.45662 28.4786 8.8446 27.8666 8.8446 27.1122C8.8446 26.3578 9.45662 25.7458 10.211 25.7458H47.9656C48.7199 25.7458 49.332 26.3578 49.332 27.1122C49.332 27.8666 48.7199 28.4786 47.9656 28.4786H10.211ZM10.211 70.1184C9.45662 70.1184 8.8446 69.5064 8.8446 68.752C8.8446 67.9976 9.45662 67.3856 10.211 67.3856H31.2953C32.0497 67.3856 32.6617 67.9976 32.6617 68.752C32.6617 69.5064 32.0497 70.1184 31.2953 70.1184H10.211ZM10.211 61.7914C9.45662 61.7914 8.8446 61.1794 8.8446 60.425C8.8446 59.6706 9.45662 59.0586 10.211 59.0586H28.2935C29.0479 59.0586 29.6599 59.6706 29.6599 60.425C29.6599 61.1794 29.0479 61.7914 28.2935 61.7914H10.211ZM10.211 53.4631C9.45662 53.4631 8.8446 52.8511 8.8446 52.0967C8.8446 51.3423 9.45662 50.7303 10.211 50.7303H30.9618C31.7162 50.7303 32.3282 51.3423 32.3282 52.0967C32.3282 52.8511 31.7162 53.4631 30.9618 53.4631H10.211ZM10.211 45.1348C9.45662 45.1348 8.8446 44.5228 8.8446 43.7684C8.8446 43.014 9.45662 42.402 10.211 42.402H47.9656C48.7199 42.402 49.332 43.014 49.332 43.7684C49.332 44.5228 48.7199 45.1348 47.9656 45.1348H10.211ZM10.211 36.8079C9.45662 36.8079 8.8446 36.1958 8.8446 35.4414C8.8446 34.687 9.45662 34.075 10.211 34.075H47.9656C48.7199 34.075 49.332 34.687 49.332 35.4414C49.332 36.1958 48.7199 36.8079 47.9656 36.8079H10.211ZM43.3172 13.2538H52.445C53.8502 13.2538 55.1309 13.8296 56.0587 14.7562C56.9905 15.6892 57.5663 16.9697 57.5663 18.375V77.4872C57.5663 78.8923 56.9904 80.173 56.0638 81.1009C55.1308 82.0326 53.8503 82.6084 52.445 82.6084H5.73062C4.32543 82.6084 3.04477 82.0326 2.11689 81.106C1.18517 80.173 0.609375 78.8924 0.609375 77.4872V18.375C0.609375 16.9698 1.18519 15.6892 2.11181 14.7613C3.0448 13.8296 4.32534 13.2538 5.73058 13.2538H14.8595V11.3154C14.8595 10.4256 15.2243 9.61532 15.8109 9.02749C16.4039 8.43579 17.2142 8.07099 18.104 8.07099H22.91V6.78846C22.91 5.0884 23.6053 3.54145 24.7245 2.42289L24.8103 2.34408C25.9231 1.27256 27.4338 0.608398 29.0888 0.608398C30.7851 0.608398 32.3314 1.3056 33.4506 2.42608C34.573 3.54211 35.2683 5.08834 35.2683 6.78839V8.07093H40.073C40.9659 8.07093 41.7794 8.43573 42.3661 9.02235L42.4557 9.12149C42.9895 9.70048 43.3175 10.472 43.3175 11.316L43.3172 13.2538ZM14.8594 15.9873H5.73042C5.07262 15.9873 4.4733 16.2555 4.04176 16.687C3.61021 17.1186 3.34202 17.7179 3.34202 18.3757V77.4879C3.34202 78.1457 3.61021 78.745 4.04176 79.1765C4.4733 79.6081 5.07261 79.8763 5.73042 79.8763H52.4448C53.1026 79.8763 53.702 79.6081 54.1335 79.1765C54.565 78.745 54.8333 78.1457 54.8333 77.4879V18.3757C54.8333 17.7179 54.5651 17.1186 54.1335 16.687C53.702 16.2555 53.1027 15.9873 52.4448 15.9873H43.3171V17.184C43.3171 18.077 42.9522 18.8904 42.3656 19.4771C41.779 20.0638 40.9655 20.4286 40.0725 20.4286H18.1032C17.2134 20.4286 16.4031 20.0638 15.8153 19.4771C15.2236 18.8905 14.8588 18.077 14.8588 17.184L14.8594 15.9873Z" fill="#800000" stroke="white" stroke-width="4" mask="url(#path-1-inside-1_629_7370)"/>
</svg>
