<?xml version="1.0" encoding="utf-8"?>
<!-- Generator: Adobe Illustrator 24.0.1, SVG Export Plug-In . SVG Version: 6.00 Build 0)  -->
<svg version="1.1" id="Layer_1" xmlns="http://www.w3.org/2000/svg" xmlns:xlink="http://www.w3.org/1999/xlink" x="0px" y="0px"
	 viewBox="0 0 1080 1080" style="enable-background:new 0 0 1080 1080;" xml:space="preserve">
<style type="text/css">
	.st0{fill:#800000;stroke:#000000;stroke-width:16;stroke-miterlimit:10;}
	.st1{fill:#EEDC92;stroke:#000000;stroke-width:16;stroke-miterlimit:10;}
	.st2{fill:#FFBD11;stroke:#000000;stroke-width:16;stroke-miterlimit:10;}
</style>
<g>
	<path class="st0" d="M417.75,930.49c-3.08,11.88-11.05,18.74-23.31,18.76c-47.71,0.06-95.42,0.08-143.13-0.01
		c-13.78-0.03-24.38-10.54-24.44-24.08c-0.07-19.72,0.07-39.45,0.11-59.17V765.07c-0.01-17.09-0.02-34.17-0.03-51.26
		c-0.01-17.09-0.01-34.17-0.02-51.26c-0.02-8.81-0.07-17.61-0.06-26.42c0.01-15.56,10.43-26.39,25.84-26.41
		c55.51-0.05,111.02,0.04,166.54,0.07c0.02,2.63,0.05,5.26,0.08,7.9c-0.18,14.94-0.35,29.89-0.53,44.83
		c0.18,8.02,0.36,16.03,0.53,24.05c-0.17,9.07-0.35,18.14-0.53,27.21c0.18,14.42,0.35,28.84,0.53,43.27
		c-0.18,2.66-0.35,5.32-0.52,7.98c0.17,16.56,0.34,33.12,0.51,49.68c-0.18,17.07-0.36,34.14-0.55,51.22
		c0.19,2.14,0.38,4.29,0.57,6.44c-0.08,9.58-0.16,19.16-0.23,28.74C418.39,910.89,420.28,920.73,417.75,930.49z"/>
	<path class="st1" d="M840.23,686.56c-1.47,21.47-6.03,42.53-8.68,63.84c-0.36,2.88-1,5.73-1.51,8.6
		c-4.16,18.41-3.99,37.49-8.47,55.86c-2.15,19.27-4.8,38.47-8.53,57.5c-1.7,5.44-1.9,11.2-2.76,16.73
		c-5.11,33.17-33.06,59.48-66.76,59.91c-48.57,0.64-97.19,1.17-145.74-0.21c-41.77-1.19-78.93-16.7-111.16-43.45
		c-3.52-2.93-6.88-4.29-11.45-4.24c-18.69,0.2-37.38,0.04-56.06,0.01c0.07-9.58,0.15-19.16,0.23-28.74
		c-0.19-2.15-0.38-4.3-0.57-6.44c0.19-17.08,0.37-34.15,0.55-51.22c-0.17-16.56-0.34-33.12-0.51-49.68
		c0.17-2.66,0.34-5.32,0.52-7.98c-0.18-14.43-0.35-28.85-0.53-43.27c0.18-9.07,0.36-18.14,0.53-27.21
		c-0.17-8.02-0.35-16.03-0.53-24.05c0.18-14.94,0.35-29.89,0.53-44.83c-0.03-2.64-0.06-5.27-0.08-7.9
		c17.84-0.04,35.69-0.35,53.53,0.03c5.8,0.12,9.14-1.94,12.35-6.52c19.53-27.96,31.27-58.34,30.08-92.98
		c-0.18-5.31,0.14-10.64,0.23-15.96c-0.08-17.86-0.41-35.72-0.16-53.57c0.18-11.8,9-22.47,20.55-22.87
		c21-0.72,42.21-2.46,63.04,0.88c37.48,6,62.12,37.57,60.19,75.56c0.1,35.74,0.39,71.49,0.11,107.23c-0.05,6.72,1.71,8.31,8.32,8.24
		c33.08-0.36,66.16-0.16,99.24-0.17c8.82,0,17.52,0.67,25.66,4.51C822.1,622.85,842.89,654.31,840.23,686.56z"/>
	<path class="st2" d="M647.72,235.19c-6.97,7.27-14.49,14.01-21.78,20.99c-0.11,0.24-0.18,0.53-0.36,0.71
		c-5.1,5.36-13.57,10.24-14.41,16.19c-0.88,6.32,2.23,14.33,3.51,21.61c1.74,9.86,3.71,19.72,4.6,29.68
		c0.76,8.54-2.95,16.01-9.83,21.1c-7.39,5.47-15.75,6.25-24.15,2.05c-11.12-5.56-22.76-10.39-33.04-17.24
		c-10.68-7.12-19.6-5.25-29.41,0.82c-8.48,5.24-17.43,9.73-26.1,14.67c-9.67,5.51-19.18,6.01-28.46-0.71
		c-9.78-7.08-10.59-17.21-8.84-27.89c2.22-13.64,4.75-27.22,7.32-40.8c0.67-3.53-0.25-6.02-2.88-8.46c-4.07-3.79-7.79-7.98-11.65-12
		c-7.31-7-14.88-13.74-21.84-21.07c-6.57-6.91-8.44-15.31-5.06-24.46c3.35-9.07,10.01-14.19,19.52-15.64
		c13.96-2.13,27.91-4.43,41.91-6.25c5.47-0.71,9.12-2.49,11.5-7.96c4.25-9.76,9.69-19,14.09-28.7c4.24-9.37,9.4-17.73,18.83-22.68
		h14.42c9.21,3.54,14.78,10.39,18.76,19.26c4.89,10.89,10.86,21.29,15.8,32.15c2.26,4.96,5.32,7.17,10.65,7.85
		c14.22,1.83,28.37,4.17,42.55,6.31c9.8,1.47,16.59,6.74,19.86,16.16C656.42,220.08,654.26,228.36,647.72,235.19z"/>
	<path class="st2" d="M364.74,323.91c-1.22,3.32-3.02,6.23-5.5,8.69c-9.05,9.01-18.16,17.97-27.22,26.97
		c-1.17,1.16-2.42,2.06-4.13,2.08c-4.91,4.09-5.39,8.77-3.99,15.06c2.96,13.25,4.71,26.76,6.88,40.18
		c1.64,10.24-0.57,19.26-9.34,25.58c-8.69,6.25-17.8,5.9-27.11,0.97c-12.71-6.74-25.63-13.1-38.28-19.95
		c-3.71-2.01-6.52-2.09-10.26-0.04c-12.4,6.76-25.07,13.01-37.56,19.61c-9.47,5-18.87,5.84-27.9-0.6
		c-9.14-6.51-10.99-15.89-9.25-26.35c1.8-10.78,3.35-21.61,5.66-32.28c1.99-9.21,2.8-17.7-6.03-24
		c-9.73-9.44-19.94-18.46-29.08-28.45c-12.42-13.57-5.38-34.66,12.52-38.93c2.82-0.67,5.76-0.85,8.64-1.25
		c12.62-2.03,25.2-4.34,37.87-5.95c4.66-0.6,6.87-2.75,8.76-6.68c6.12-12.71,12.66-25.22,18.86-37.89
		c4.55-9.32,11.82-14.03,22.2-14.15c10.69-0.12,18.29,4.51,23.01,14.14c6.34,12.91,12.93,25.68,19.21,38.61
		c1.66,3.41,3.62,5.18,7.65,5.73c12.91,1.74,25.75,4.07,38.62,6.17C359.7,293.02,370.86,307.22,364.74,323.91z"/>
	<path class="st2" d="M936.52,331.64c-11.75,12.56-24.5,24.19-36.81,36.22c2.48,15.76,4.87,31.53,7.47,47.26
		c2.85,17.27-5.27,29.91-20.65,31.83c-5.5,0.68-10.47-0.88-15.3-3.4c-12.97-6.78-26.07-13.31-38.96-20.25
		c-3.46-1.87-6.05-1.88-9.51-0.01c-12.64,6.83-25.53,13.2-38.22,19.93c-9.52,5.04-18.84,5.62-27.79-0.91
		c-9.07-6.61-10.69-15.99-9.03-26.41c2.57-16.01,5.09-32.03,7.63-48.05c-12.19-11.88-24.73-23.42-36.47-35.74
		c-13.3-13.96-6.36-35.5,12.46-39.75c5.16-1.17,10.51-1.55,15.77-2.29c9.71-1.58,19.4-3.44,29.16-4.64c5.04-0.62,7.9-2.6,10.07-7.36
		c5.31-11.62,11.63-22.78,16.98-34.38c4.9-10.65,12.03-17.26,24.4-17.19c12.42,0.06,19.3,6.99,24.17,17.56
		c5.35,11.61,11.49,22.84,17.05,34.36c1.86,3.86,3.88,6.2,8.68,6.72c10.05,1.07,19.99,3.09,29.98,4.72
		c5.49,0.83,11.06,1.3,16.44,2.57C942.36,296.78,949.34,317.93,936.52,331.64z"/>
</g>
</svg>
