<svg width="103" height="70" viewBox="0 0 103 70" fill="none" xmlns="http://www.w3.org/2000/svg">
<path d="M83.4015 19.686L81.3039 23.8461C80.9919 24.4701 80.5109 24.4755 79.7008 24.0107L74.0527 20.5411L75.0148 19.1106L79.7269 21.1785L82.078 14.9883" fill="#E2D188"/>
<path opacity="0.15" d="M74.185 20.1113L80.1684 23.7688C80.7079 24.1114 80.8625 24.0386 81.1826 24.0467C80.8904 24.4791 80.3024 24.4279 79.5921 23.9442L74.1499 20.6031L74.185 20.1113Z" fill="#0E2245"/>
<path opacity="0.15" d="M80.2081 21.1696L81.1512 17.4258L79.7271 21.1615L79.8349 21.2649C79.8601 21.2964 79.8943 21.3197 79.9329 21.3324C79.9716 21.3451 80.013 21.3465 80.0516 21.3365C80.0912 21.3265 80.1262 21.3054 80.1541 21.2759C80.182 21.2463 80.2009 21.2094 80.2081 21.1696Z" fill="#0E2245"/>
<path d="M75.3527 69.2087H70.9471C70.6918 69.2087 70.4472 69.1071 70.2674 68.9264C70.0867 68.7465 69.9851 68.502 69.9851 68.2466V20.0734C69.9851 19.8183 70.0867 19.5737 70.2674 19.3934C70.4472 19.213 70.6918 19.1116 70.9471 19.1113H75.3527C76.0486 19.112 76.7157 19.3889 77.2084 19.8811C77.7002 20.3733 77.9771 21.0407 77.978 21.7367V66.5923C77.9753 67.2873 77.6975 67.9526 77.2057 68.4427C76.7139 68.9327 76.0477 69.2087 75.3527 69.2087Z" fill="#21252B"/>
<path d="M73.2038 69.2098H52.1562C51.4077 69.2089 50.6904 68.9113 50.1612 68.3817C49.632 67.8521 49.3342 67.1347 49.333 66.3867V21.9267C49.3342 21.1783 49.632 20.4609 50.1612 19.9317C50.6904 19.4025 51.4077 19.1047 52.1562 19.1035H73.2038C73.9518 19.1047 74.6693 19.4025 75.1989 19.9317C75.7284 20.4609 76.026 21.1783 76.0269 21.9267V66.3777C76.0278 66.7491 75.9559 67.1176 75.8147 67.461C75.6727 67.8045 75.465 68.1165 75.2034 68.3799C74.9408 68.6424 74.6288 68.851 74.2863 68.994C73.9428 69.136 73.5751 69.2098 73.2038 69.2098Z" fill="#61656D"/>
<path d="M73.1681 20.252H67.7196C67.5397 20.2509 67.3653 20.3135 67.227 20.4286C67.0888 20.5438 66.9959 20.7041 66.9644 20.8813C66.9317 21.0578 66.8383 21.2173 66.7004 21.3323C66.5625 21.4472 66.3887 21.5103 66.2091 21.5107H59.1693C58.9894 21.5118 58.8149 21.4491 58.6767 21.3339C58.5385 21.2188 58.4455 21.0585 58.414 20.8813C58.3813 20.7047 58.288 20.5453 58.1501 20.4303C58.0121 20.3154 57.8383 20.2523 57.6588 20.252H52.2103C51.7479 20.2524 51.3045 20.4364 50.9775 20.7634C50.6505 21.0904 50.4666 21.5337 50.4661 21.9962V66.2944C50.4666 66.7568 50.6505 67.1998 50.9775 67.5271C51.3045 67.8543 51.7479 68.0378 52.2103 68.0387H73.1861C73.6482 68.0378 74.0924 67.8543 74.4188 67.5271C74.746 67.1998 74.9303 66.7568 74.9303 66.2944V22.0052C74.9276 21.5395 74.7406 21.0937 74.4107 20.7652C74.0807 20.4366 73.6338 20.2521 73.1681 20.252Z" fill="#E2D188"/>
<path opacity="0.5" d="M73.1681 20.252H67.7196C67.5397 20.2509 67.3653 20.3135 67.227 20.4286C67.0888 20.5438 66.9959 20.7041 66.9644 20.8813C66.9317 21.0578 66.8383 21.2173 66.7004 21.3323C66.5625 21.4472 66.3887 21.5103 66.2091 21.5107H59.1693C58.9894 21.5118 58.8149 21.4491 58.6767 21.3339C58.5385 21.2188 58.4455 21.0585 58.414 20.8813C58.3813 20.7047 58.288 20.5453 58.1501 20.4303C58.0121 20.3154 57.8383 20.2523 57.6588 20.252H52.2103C51.7479 20.2524 51.3045 20.4364 50.9775 20.7634C50.6505 21.0904 50.4666 21.5337 50.4661 21.9962V66.2944C50.4666 66.7568 50.6505 67.1998 50.9775 67.5271C51.3045 67.8543 51.7479 68.0378 52.2103 68.0387H73.1861C73.6482 68.0378 74.0924 67.8543 74.4188 67.5271C74.746 67.1998 74.9303 66.7568 74.9303 66.2944V22.0052C74.9276 21.5395 74.7406 21.0937 74.4107 20.7652C74.0807 20.4366 73.6338 20.2521 73.1681 20.252Z" fill="white"/>
<path opacity="0.5" d="M65.49 20.6573H59.8706C59.8181 20.6573 59.7679 20.6365 59.7308 20.5994C59.6937 20.5623 59.6729 20.512 59.6729 20.4595C59.6729 20.4071 59.6937 20.3568 59.7308 20.3197C59.7679 20.2826 59.8181 20.2617 59.8706 20.2617H65.49C65.5423 20.2622 65.5923 20.2832 65.6293 20.3202C65.6663 20.3572 65.6873 20.4072 65.6878 20.4595C65.6882 20.4857 65.6835 20.5116 65.6737 20.5358C65.6639 20.56 65.6494 20.5821 65.6309 20.6005C65.6124 20.6189 65.5904 20.6335 65.5662 20.6433C65.542 20.653 65.516 20.6579 65.49 20.6573Z" fill="#0E2245"/>
<path d="M47.1123 29.3417L46.1413 28.8292L46.0964 28.9101C44.6235 28.4259 43.0266 28.4791 41.5892 29.0604C40.1518 29.6418 38.9668 30.7136 38.2447 32.0856C37.5225 33.4577 37.3099 35.0413 37.6446 36.5553C37.9792 38.0692 38.8394 39.4156 40.0725 40.3555L40.0275 40.4365L40.9985 40.9489C42.5305 41.6898 44.2903 41.8067 45.9067 41.275C47.5231 40.7432 48.8699 39.6044 49.6629 38.0989C50.4559 36.5934 50.6332 34.8386 50.1574 33.2049C49.6815 31.5712 48.5897 30.186 47.1123 29.3417Z" fill="#E2D188"/>
<path opacity="0.3" d="M47.1123 29.3417L46.1413 28.8292L46.0964 28.9101C44.6235 28.4259 43.0266 28.4791 41.5892 29.0604C40.1518 29.6418 38.9668 30.7136 38.2447 32.0856C37.5225 33.4577 37.3099 35.0413 37.6446 36.5553C37.9792 38.0692 38.8394 39.4156 40.0725 40.3555L40.0275 40.4365L40.9985 40.9489C42.5305 41.6898 44.2903 41.8067 45.9067 41.275C47.5231 40.7432 48.8699 39.6044 49.6629 38.0989C50.4559 36.5934 50.6332 34.8386 50.1574 33.2049C49.6815 31.5712 48.5897 30.186 47.1123 29.3417Z" fill="#0E2245"/>
<path d="M43.4169 41.3548C44.7132 41.3548 45.9804 40.9705 47.0583 40.2502C48.1362 39.53 48.9763 38.5063 49.4723 37.3087C49.9684 36.1111 50.0983 34.7932 49.8453 33.5218C49.5924 32.2504 48.9682 31.0824 48.0516 30.1658C47.1348 29.2492 45.967 28.625 44.6956 28.372C43.4242 28.1191 42.1063 28.249 40.9086 28.745C39.711 29.2411 38.6873 30.0812 37.9671 31.159C37.2469 32.2369 36.8625 33.5041 36.8625 34.8005C36.8625 36.5388 37.5531 38.2059 38.7823 39.4351C40.0114 40.6642 41.6785 41.3548 43.4169 41.3548Z" fill="#E2D188"/>
<path d="M45.2245 34.8172C45.2194 34.8016 45.2113 34.7872 45.2005 34.7748C45.1897 34.7624 45.1764 34.7524 45.1615 34.7453L44.6131 34.4576C44.6695 34.2712 44.6818 34.0742 44.6491 33.8822L45.4043 34.2778C45.4177 34.2859 45.4327 34.2908 45.4483 34.2924C45.4638 34.2939 45.4795 34.292 45.4942 34.2868C45.5098 34.2818 45.5243 34.2737 45.5367 34.2628C45.549 34.252 45.5591 34.2388 45.5661 34.2238L45.737 33.8912C45.745 33.8778 45.75 33.8628 45.7515 33.8473C45.753 33.8318 45.7512 33.816 45.7459 33.8013C45.7409 33.7856 45.7327 33.7712 45.7219 33.7588C45.7112 33.7464 45.6978 33.7364 45.683 33.7293L42.9947 32.3178C42.9813 32.3098 42.9663 32.3048 42.9508 32.3033C42.9353 32.3017 42.9196 32.3036 42.9048 32.3088C42.8892 32.3138 42.8747 32.322 42.8624 32.3329C42.85 32.3437 42.84 32.3569 42.8329 32.3717L42.6081 32.8033C42.5999 32.8167 42.5949 32.8317 42.5933 32.8473C42.5918 32.8628 42.5937 32.8785 42.5991 32.8932C42.6087 32.9225 42.6277 32.9478 42.6531 32.9651L43.1206 33.2079C43.5791 33.4506 43.8039 33.7204 43.7949 34.026L42.4643 33.3248C42.4509 33.3168 42.4358 33.3118 42.4203 33.3103C42.4048 33.3087 42.3891 33.3106 42.3744 33.3158C42.3587 33.3208 42.3442 33.329 42.3319 33.3399C42.3195 33.3507 42.3095 33.3639 42.3024 33.3787L42.1316 33.7114C42.1236 33.7248 42.1187 33.7398 42.117 33.7553C42.1155 33.7709 42.1174 33.7866 42.1226 33.8013C42.1276 33.8169 42.1358 33.8314 42.1466 33.8438C42.1575 33.8561 42.1707 33.8662 42.1855 33.8732L43.5701 34.6015C43.4995 34.6757 43.4144 34.7348 43.3201 34.775C43.2258 34.8152 43.1242 34.8357 43.0217 34.8352C42.7524 34.8238 42.4901 34.7467 42.2575 34.6105L41.8978 34.4216C41.8845 34.4135 41.8695 34.4084 41.854 34.4068C41.8384 34.4053 41.8227 34.4073 41.8079 34.4127C41.7787 34.4223 41.7534 34.4412 41.736 34.4666L41.5202 34.8802C41.512 34.8936 41.507 34.9086 41.5054 34.9241C41.5039 34.9397 41.5058 34.9554 41.5112 34.9701C41.691 35.6264 41.8169 36.094 42.0597 37.2358C42.0632 37.2533 42.0706 37.2697 42.0816 37.2837C42.0925 37.2978 42.1065 37.3091 42.1226 37.3167L42.752 37.6494C42.7713 37.6613 42.7938 37.6668 42.8163 37.6652C42.839 37.6636 42.8605 37.655 42.8778 37.6404C42.8978 37.6292 42.9133 37.6114 42.9215 37.5901C42.9296 37.5687 42.9302 37.5452 42.9228 37.5235C42.698 36.4176 42.5991 36.013 42.4373 35.4376C42.777 35.5843 43.153 35.625 43.5162 35.5545C43.8467 35.4831 44.1385 35.2907 44.3344 35.015L44.8738 35.3028C44.8872 35.3108 44.9022 35.3158 44.9178 35.3173C44.9333 35.3189 44.949 35.317 44.9637 35.3117C44.9794 35.3067 44.9939 35.2986 45.0063 35.2877C45.0186 35.277 45.0287 35.2637 45.0357 35.2488L45.2065 34.9161C45.2247 34.8867 45.2311 34.8513 45.2245 34.8172Z" fill="#E2D188"/>
<path opacity="0.3" d="M43.417 40.1934C44.484 40.1934 45.5269 39.877 46.414 39.2843C47.3012 38.6915 47.9927 37.849 48.4009 36.8632C48.8092 35.8776 48.916 34.7929 48.7079 33.7464C48.4997 32.7 47.986 31.7388 47.2315 30.9843C46.4771 30.2299 45.5158 29.7161 44.4694 29.5079C43.423 29.2998 42.3384 29.4066 41.3526 29.815C40.3668 30.2233 39.5244 30.9147 38.9316 31.8018C38.3389 32.6889 38.0225 33.732 38.0225 34.7988C38.0225 36.2296 38.5908 37.6017 39.6025 38.6134C40.6142 39.6251 41.9863 40.1934 43.417 40.1934Z" fill="#0E2245"/>
<path opacity="0.2" d="M39.1735 32.5714C39.8159 31.3527 40.9004 30.4259 42.2043 29.9812C43.5084 29.5364 44.9331 29.6076 46.1864 30.1798C46.1025 30.1266 46.0154 30.0786 45.9257 30.036C44.6667 29.4286 43.2213 29.3335 41.8938 29.7707C40.5662 30.208 39.4601 31.1434 38.8086 32.38C38.1571 33.6166 38.0111 35.0578 38.4011 36.3999C38.7911 37.7422 39.6869 38.8805 40.8997 39.5753L41.1695 39.7102C39.9886 38.9997 39.1241 37.8646 38.7531 36.5374C38.382 35.2102 38.5323 33.7914 39.1735 32.5714Z" fill="#0E2245"/>
<path d="M45.6649 35.0544C45.6599 35.0387 45.6517 35.0243 45.6409 35.0119C45.6301 34.9995 45.6168 34.9895 45.602 34.9825L45.0536 34.6948C45.1099 34.5083 45.1223 34.3113 45.0895 34.1193L45.8448 34.5149C45.8582 34.5229 45.8732 34.5279 45.8887 34.5294C45.9043 34.531 45.9199 34.5291 45.9347 34.5239C45.9503 34.5189 45.9648 34.5107 45.9772 34.4998C45.9895 34.489 45.9996 34.4758 46.0066 34.461L46.1774 34.1283C46.1855 34.1149 46.1905 34.0999 46.192 34.0844C46.1935 34.0688 46.1916 34.0531 46.1864 34.0384C46.1814 34.0228 46.1732 34.0083 46.1624 33.9959C46.1516 33.9836 46.1383 33.9735 46.1235 33.9665L43.4442 32.5639C43.4308 32.5558 43.4158 32.5509 43.4002 32.5493C43.3848 32.5478 43.369 32.5497 43.3543 32.5549C43.3386 32.56 43.3242 32.5681 43.3118 32.5789C43.2994 32.5897 43.2895 32.603 43.2824 32.6178L43.0576 33.0494C43.0494 33.0627 43.0444 33.0777 43.0427 33.0933C43.0412 33.1088 43.0432 33.1246 43.0486 33.1393C43.0582 33.1685 43.0772 33.1938 43.1025 33.2113L43.5701 33.454C44.0286 33.6968 44.2534 33.9665 44.2444 34.2722L42.9137 33.5709C42.9003 33.5628 42.8853 33.5579 42.8698 33.5563C42.8543 33.5548 42.8386 33.5567 42.8238 33.5619C42.8082 33.5669 42.7937 33.5751 42.7814 33.5859C42.769 33.5967 42.759 33.61 42.7519 33.6248L42.5811 33.9575C42.5731 33.9709 42.5681 33.9859 42.5665 34.0015C42.565 34.0169 42.5669 34.0327 42.5721 34.0474C42.5771 34.0631 42.5853 34.0775 42.5961 34.0898C42.607 34.1022 42.6202 34.1122 42.635 34.1193L44.0196 34.8476C43.9489 34.9219 43.8639 34.9808 43.7696 35.0211C43.6753 35.0613 43.5737 35.0818 43.4712 35.0814C43.2019 35.0699 42.9395 34.9927 42.7069 34.8566L42.3473 34.6678C42.334 34.6595 42.319 34.6545 42.3034 34.6529C42.2879 34.6513 42.2721 34.6534 42.2574 34.6588C42.2282 34.6683 42.2029 34.6873 42.1855 34.7127L41.9697 35.1263C41.9615 35.1396 41.9565 35.1546 41.9548 35.1702C41.9533 35.1857 41.9553 35.2015 41.9607 35.2162C42.1405 35.8726 42.2664 36.3401 42.5091 37.4819C42.5126 37.4994 42.5201 37.5157 42.5311 37.5299C42.542 37.5439 42.556 37.5552 42.5721 37.5628L43.2014 37.8955C43.2208 37.9074 43.2432 37.913 43.2658 37.9113C43.2885 37.9097 43.31 37.901 43.3273 37.8865C43.3473 37.8753 43.3627 37.8575 43.3709 37.8362C43.3791 37.8149 43.3796 37.7913 43.3723 37.7696C43.1475 36.6638 43.0486 36.2592 42.8868 35.6838C43.2264 35.8303 43.6024 35.871 43.9657 35.8006C44.2962 35.7292 44.588 35.5368 44.7838 35.2612L45.3233 35.5489C45.3367 35.5569 45.3517 35.5618 45.3673 35.5634C45.3828 35.565 45.3985 35.5631 45.4132 35.5579C45.4288 35.5528 45.4433 35.5447 45.4557 35.5338C45.468 35.523 45.4781 35.5098 45.4851 35.4949L45.656 35.1623C45.672 35.1286 45.6752 35.0903 45.6649 35.0544Z" fill="#E2D188"/>
<path opacity="0.3" d="M45.6649 35.0544C45.6599 35.0387 45.6517 35.0243 45.6409 35.0119C45.6301 34.9995 45.6168 34.9895 45.602 34.9825L45.0536 34.6948C45.1099 34.5083 45.1223 34.3113 45.0895 34.1193L45.8448 34.5149C45.8582 34.5229 45.8732 34.5279 45.8887 34.5294C45.9043 34.531 45.9199 34.5291 45.9347 34.5239C45.9503 34.5189 45.9648 34.5107 45.9772 34.4998C45.9895 34.489 45.9996 34.4758 46.0066 34.461L46.1774 34.1283C46.1855 34.1149 46.1905 34.0999 46.192 34.0844C46.1935 34.0688 46.1916 34.0531 46.1864 34.0384C46.1814 34.0228 46.1732 34.0083 46.1624 33.9959C46.1516 33.9836 46.1383 33.9735 46.1235 33.9665L43.4442 32.5639C43.4308 32.5558 43.4158 32.5509 43.4002 32.5493C43.3848 32.5478 43.369 32.5497 43.3543 32.5549C43.3386 32.56 43.3242 32.5681 43.3118 32.5789C43.2994 32.5897 43.2895 32.603 43.2824 32.6178L43.0576 33.0494C43.0494 33.0627 43.0444 33.0777 43.0427 33.0933C43.0412 33.1088 43.0432 33.1246 43.0486 33.1393C43.0582 33.1685 43.0772 33.1938 43.1025 33.2113L43.5701 33.454C44.0286 33.6968 44.2534 33.9665 44.2444 34.2722L42.9137 33.5709C42.9003 33.5628 42.8853 33.5579 42.8698 33.5563C42.8543 33.5548 42.8386 33.5567 42.8238 33.5619C42.8082 33.5669 42.7937 33.5751 42.7814 33.5859C42.769 33.5967 42.759 33.61 42.7519 33.6248L42.5811 33.9575C42.5731 33.9709 42.5681 33.9859 42.5665 34.0015C42.565 34.0169 42.5669 34.0327 42.5721 34.0474C42.5771 34.0631 42.5853 34.0775 42.5961 34.0898C42.607 34.1022 42.6202 34.1122 42.635 34.1193L44.0196 34.8476C43.9489 34.9219 43.8639 34.9808 43.7696 35.0211C43.6753 35.0613 43.5737 35.0818 43.4712 35.0814C43.2019 35.0699 42.9395 34.9927 42.7069 34.8566L42.3473 34.6678C42.334 34.6595 42.319 34.6545 42.3034 34.6529C42.2879 34.6513 42.2721 34.6534 42.2574 34.6588C42.2282 34.6683 42.2029 34.6873 42.1855 34.7127L41.9697 35.1263C41.9615 35.1396 41.9565 35.1546 41.9548 35.1702C41.9533 35.1857 41.9553 35.2015 41.9607 35.2162C42.1405 35.8726 42.2664 36.3401 42.5091 37.4819C42.5126 37.4994 42.5201 37.5157 42.5311 37.5299C42.542 37.5439 42.556 37.5552 42.5721 37.5628L43.2014 37.8955C43.2208 37.9074 43.2432 37.913 43.2658 37.9113C43.2885 37.9097 43.31 37.901 43.3273 37.8865C43.3473 37.8753 43.3627 37.8575 43.3709 37.8362C43.3791 37.8149 43.3796 37.7913 43.3723 37.7696C43.1475 36.6638 43.0486 36.2592 42.8868 35.6838C43.2264 35.8303 43.6024 35.871 43.9657 35.8006C44.2962 35.7292 44.588 35.5368 44.7838 35.2612L45.3233 35.5489C45.3367 35.5569 45.3517 35.5618 45.3673 35.5634C45.3828 35.565 45.3985 35.5631 45.4132 35.5579C45.4288 35.5528 45.4433 35.5447 45.4557 35.5338C45.468 35.523 45.4781 35.5098 45.4851 35.4949L45.656 35.1623C45.672 35.1286 45.6752 35.0903 45.6649 35.0544Z" fill="#0E2245"/>
<path d="M45.2245 34.8172C45.2194 34.8016 45.2113 34.7872 45.2005 34.7748C45.1897 34.7624 45.1764 34.7524 45.1615 34.7453L44.6131 34.4576C44.6695 34.2712 44.6818 34.0742 44.6491 33.8822L45.4043 34.2778C45.4177 34.2859 45.4327 34.2908 45.4483 34.2924C45.4638 34.2939 45.4795 34.292 45.4942 34.2868C45.5098 34.2818 45.5243 34.2737 45.5367 34.2628C45.549 34.252 45.5591 34.2388 45.5661 34.2238L45.737 33.8912C45.745 33.8778 45.75 33.8628 45.7515 33.8473C45.753 33.8318 45.7512 33.816 45.7459 33.8013C45.7409 33.7856 45.7327 33.7712 45.7219 33.7588C45.7112 33.7464 45.6978 33.7364 45.683 33.7293L42.9947 32.3178C42.9813 32.3098 42.9663 32.3048 42.9508 32.3033C42.9353 32.3017 42.9196 32.3036 42.9048 32.3088C42.8892 32.3138 42.8747 32.322 42.8624 32.3329C42.85 32.3437 42.84 32.3569 42.8329 32.3717L42.6081 32.8033C42.5999 32.8167 42.5949 32.8317 42.5933 32.8473C42.5918 32.8628 42.5937 32.8785 42.5991 32.8932C42.6087 32.9225 42.6277 32.9478 42.6531 32.9651L43.1206 33.2079C43.5791 33.4506 43.8039 33.7204 43.7949 34.026L42.4643 33.3248C42.4509 33.3168 42.4358 33.3118 42.4203 33.3103C42.4048 33.3087 42.3891 33.3106 42.3744 33.3158C42.3587 33.3208 42.3442 33.329 42.3319 33.3399C42.3195 33.3507 42.3095 33.3639 42.3024 33.3787L42.1316 33.7114C42.1236 33.7248 42.1187 33.7398 42.117 33.7553C42.1155 33.7709 42.1174 33.7866 42.1226 33.8013C42.1276 33.8169 42.1358 33.8314 42.1466 33.8438C42.1575 33.8561 42.1707 33.8662 42.1855 33.8732L43.5701 34.6015C43.4995 34.6757 43.4144 34.7348 43.3201 34.775C43.2258 34.8152 43.1242 34.8357 43.0217 34.8352C42.7524 34.8238 42.4901 34.7467 42.2575 34.6105L41.8978 34.4216C41.8845 34.4135 41.8695 34.4084 41.854 34.4068C41.8384 34.4053 41.8227 34.4073 41.8079 34.4127C41.7787 34.4223 41.7534 34.4412 41.736 34.4666L41.5202 34.8802C41.512 34.8936 41.507 34.9086 41.5054 34.9241C41.5039 34.9397 41.5058 34.9554 41.5112 34.9701C41.691 35.6264 41.8169 36.094 42.0597 37.2358C42.0632 37.2533 42.0706 37.2697 42.0816 37.2837C42.0925 37.2978 42.1065 37.3091 42.1226 37.3167L42.752 37.6494C42.7713 37.6613 42.7938 37.6668 42.8163 37.6652C42.839 37.6636 42.8605 37.655 42.8778 37.6404C42.8978 37.6292 42.9133 37.6114 42.9215 37.5901C42.9296 37.5687 42.9302 37.5452 42.9228 37.5235C42.698 36.4176 42.5991 36.013 42.4373 35.4376C42.777 35.5843 43.153 35.625 43.5162 35.5545C43.8467 35.4831 44.1385 35.2907 44.3344 35.015L44.8738 35.3028C44.8872 35.3108 44.9022 35.3158 44.9178 35.3173C44.9333 35.3189 44.949 35.317 44.9637 35.3117C44.9794 35.3067 44.9939 35.2986 45.0063 35.2877C45.0186 35.277 45.0287 35.2637 45.0357 35.2488L45.2065 34.9161C45.2247 34.8867 45.2311 34.8513 45.2245 34.8172Z" fill="#E2D188"/>
<path d="M71.1002 27.7432H53.4152C53.3706 27.7411 53.3284 27.7224 53.2968 27.6908C53.2652 27.6593 53.2465 27.617 53.2444 27.5724V26.4755C53.2465 26.4309 53.2652 26.3888 53.2968 26.3572C53.3284 26.3256 53.3706 26.3069 53.4152 26.3047H71.1002C71.1452 26.3069 71.1874 26.3256 71.2189 26.3572C71.2504 26.3888 71.2693 26.4309 71.2711 26.4755V27.5724C71.2711 27.6177 71.2531 27.6612 71.2207 27.6932C71.1892 27.7252 71.1452 27.7432 71.1002 27.7432Z" fill="white"/>
<path d="M69.0051 30.8077H55.5097C55.4651 30.8055 55.4228 30.7868 55.3913 30.7553C55.3597 30.7236 55.341 30.6815 55.3389 30.6369V29.54C55.341 29.4954 55.3597 29.4532 55.3913 29.4216C55.4228 29.39 55.4651 29.3713 55.5097 29.3691H69.0051C69.05 29.3713 69.0923 29.39 69.1237 29.4216C69.1552 29.4532 69.1741 29.4954 69.1759 29.54V30.6369C69.1759 30.6822 69.1579 30.7256 69.1255 30.7576C69.0941 30.7897 69.05 30.8077 69.0051 30.8077Z" fill="white"/>
<path d="M66.8293 60.4241H57.6855C57.5473 60.4241 57.4146 60.3692 57.3168 60.2714C57.219 60.1736 57.1641 60.0409 57.1641 59.9026V58.4101C57.1641 58.2719 57.219 58.1393 57.3168 58.0414C57.4146 57.9436 57.5473 57.8887 57.6855 57.8887H66.8293C66.9677 57.8887 67.1003 57.9436 67.1981 58.0414C67.2958 58.1393 67.3508 58.2719 67.3508 58.4101V59.9026C67.3515 59.9713 67.3385 60.0395 67.3126 60.103C67.2867 60.1667 67.2483 60.2244 67.1996 60.273C67.1511 60.3216 67.0934 60.3599 67.0297 60.3859C66.9661 60.4119 66.898 60.4248 66.8293 60.4241Z" fill="#E2D188"/>
<path d="M63.4575 37.1289H62.6304V37.3087C62.2897 37.4676 62.0014 37.7203 61.7992 38.0372C61.597 38.354 61.4892 38.722 61.4885 39.0979V52.881C61.4892 53.2569 61.597 53.6248 61.7992 53.9417C62.0014 54.2586 62.2897 54.5112 62.6304 54.6702V54.85H63.4575C63.7161 54.8501 63.9723 54.7993 64.2112 54.7003C64.4501 54.6014 64.6673 54.4564 64.8501 54.2735C65.0329 54.0907 65.178 53.8736 65.2769 53.6346C65.3758 53.3956 65.4266 53.1396 65.4265 52.881V39.0979C65.4266 38.8392 65.3758 38.5832 65.2769 38.3442C65.178 38.1053 65.0329 37.8882 64.8501 37.7053C64.6673 37.5224 64.4501 37.3774 64.2112 37.2785C63.9723 37.1796 63.7161 37.1287 63.4575 37.1289Z" fill="#E2D188"/>
<path opacity="0.3" d="M63.4575 37.1289H62.6304V37.3087C62.2897 37.4676 62.0014 37.7203 61.7992 38.0372C61.597 38.354 61.4892 38.722 61.4885 39.0979V52.881C61.4892 53.2569 61.597 53.6248 61.7992 53.9417C62.0014 54.2586 62.2897 54.5112 62.6304 54.6702V54.85H63.4575C63.7161 54.8501 63.9723 54.7993 64.2112 54.7003C64.4501 54.6014 64.6673 54.4564 64.8501 54.2735C65.0329 54.0907 65.178 53.8736 65.2769 53.6346C65.3758 53.3956 65.4266 53.1396 65.4265 52.881V39.0979C65.4266 38.8392 65.3758 38.5832 65.2769 38.3442C65.178 38.1053 65.0329 37.8882 64.8501 37.7053C64.6673 37.5224 64.4501 37.3774 64.2112 37.2785C63.9723 37.1796 63.7161 37.1287 63.4575 37.1289Z" fill="white"/>
<path d="M62.6216 54.85C62.363 54.8501 62.1069 54.7993 61.868 54.7003C61.629 54.6014 61.412 54.4564 61.2291 54.2735C61.0462 54.0907 60.9012 53.8736 60.8023 53.6346C60.7033 53.3956 60.6525 53.1396 60.6526 52.881V39.0979C60.6526 38.5757 60.8601 38.0748 61.2294 37.7056C61.5986 37.3363 62.0994 37.1289 62.6216 37.1289C63.1438 37.1289 63.6447 37.3363 64.0139 37.7056C64.3832 38.0748 64.5906 38.5757 64.5906 39.0979V52.881C64.5908 53.1396 64.5399 53.3956 64.441 53.6346C64.3421 53.8736 64.1971 54.0907 64.0142 54.2735C63.8313 54.4564 63.6142 54.6014 63.3753 54.7003C63.1363 54.7993 62.8803 54.8501 62.6216 54.85Z" fill="white"/>
<path d="M62.6214 53.8775C62.4808 53.8779 62.3415 53.8506 62.2115 53.797C62.0814 53.7434 61.9633 53.6647 61.8639 53.5652C61.7644 53.4657 61.6857 53.3476 61.632 53.2175C61.5784 53.0875 61.5511 52.9482 61.5515 52.8076V39.1773C61.5515 38.8936 61.6643 38.6214 61.8649 38.4208C62.0655 38.2202 62.3377 38.1074 62.6214 38.1074C62.9052 38.1074 63.1773 38.2202 63.378 38.4208C63.5787 38.6214 63.6914 38.8936 63.6914 39.1773V52.8076C63.6919 52.9482 63.6645 53.0875 63.6109 53.2175C63.5573 53.3476 63.4785 53.4657 63.3791 53.5652C63.2797 53.6647 63.1615 53.7434 63.0314 53.797C62.9014 53.8506 62.7621 53.8779 62.6214 53.8775Z" fill="white"/>
<path d="M63.7003 39.4404C63.1479 39.2995 62.5803 39.227 62.0101 39.2246H60.8862V39.3145C59.3095 39.5806 57.8779 40.3968 56.8456 41.618C55.8133 42.8392 55.2468 44.3867 55.2468 45.9858C55.2468 47.5848 55.8133 49.1322 56.8456 50.3535C57.8779 51.5747 59.3095 52.3908 60.8862 52.657V52.7469H62.0101C62.5805 52.7489 63.1488 52.6764 63.7003 52.5312V39.4404Z" fill="#E2D188"/>
<path opacity="0.3" d="M63.7003 39.4404C63.1479 39.2995 62.5803 39.227 62.0101 39.2246H60.8862V39.3145C59.3095 39.5806 57.8779 40.3968 56.8456 41.618C55.8133 42.8392 55.2468 44.3867 55.2468 45.9858C55.2468 47.5848 55.8133 49.1322 56.8456 50.3535C57.8779 51.5747 59.3095 52.3908 60.8862 52.657V52.7469H62.0101C62.5805 52.7489 63.1488 52.6764 63.7003 52.5312V39.4404Z" fill="#0E2245"/>
<path d="M63.7003 39.6832C62.921 39.3785 62.0914 39.223 61.2547 39.2246C60.26 39.2241 59.2773 39.4427 58.3767 39.8651C57.4759 40.2874 56.6794 40.9031 56.0438 41.6683C55.408 42.4334 54.9488 43.3292 54.6986 44.2921C54.4483 45.2549 54.4135 46.261 54.5962 47.2389C54.779 48.2167 55.1751 49.1422 55.7562 49.9496C56.3373 50.757 57.0892 51.4265 57.9584 51.9103C58.8276 52.3941 59.7927 52.6804 60.7851 52.7488C61.7776 52.8174 62.7729 52.6662 63.7003 52.3064V39.6832Z" fill="#E2D188"/>
<path opacity="0.3" d="M63.7006 40.9961C62.8521 40.5809 61.9118 40.3885 60.9685 40.437C60.0251 40.4855 59.1096 40.7734 58.3082 41.2735C57.5068 41.7735 56.8459 42.4693 56.3876 43.2953C55.9294 44.1213 55.689 45.0505 55.689 45.995C55.689 46.9396 55.9294 47.8688 56.3876 48.6947C56.8459 49.5208 57.5068 50.2166 58.3082 50.7167C59.1096 51.2167 60.0251 51.5046 60.9685 51.553C61.9118 51.6016 62.8521 51.4092 63.7006 50.994V40.9961Z" fill="#0E2245"/>
<path d="M62.9092 45.1396C62.8978 45.1274 62.8838 45.1179 62.8682 45.1116C62.8528 45.1054 62.836 45.1027 62.8193 45.1036H62.172C62.132 44.9081 62.0491 44.7238 61.9292 44.5642H62.8103C62.8269 44.5645 62.8435 44.5615 62.859 44.5553C62.8743 44.5491 62.8884 44.5399 62.9001 44.5281C62.9119 44.5163 62.9212 44.5023 62.9274 44.4868C62.9336 44.4715 62.9365 44.4549 62.9362 44.4383V44.0517C62.9365 44.0351 62.9336 44.0185 62.9274 44.003C62.9212 43.9876 62.9119 43.9736 62.9001 43.9619C62.8884 43.9501 62.8743 43.9408 62.859 43.9346C62.8435 43.9284 62.8269 43.9255 62.8103 43.9258H59.6725C59.6559 43.9255 59.6393 43.9284 59.6239 43.9346C59.6085 43.9408 59.5944 43.9501 59.5827 43.9619C59.5709 43.9736 59.5616 43.9876 59.5554 44.003C59.5493 44.0185 59.5463 44.0351 59.5466 44.0517V44.5552C59.5452 44.5706 59.5477 44.5862 59.554 44.6003C59.5603 44.6145 59.5701 44.6268 59.5826 44.6361C59.5928 44.6473 59.6053 44.6564 59.6193 44.6626C59.6332 44.6687 59.6483 44.672 59.6635 44.6721H60.2119C60.7424 44.6721 61.0751 44.8159 61.2189 45.0946H59.6635C59.6469 45.0943 59.6303 45.0972 59.6149 45.1034C59.5995 45.1096 59.5855 45.1189 59.5737 45.1307C59.5619 45.1424 59.5526 45.1564 59.5464 45.1719C59.5402 45.1873 59.5373 45.2039 59.5376 45.2205V45.6071C59.5373 45.6237 59.5402 45.6403 59.5464 45.6557C59.5526 45.6711 59.5619 45.6851 59.5737 45.6969C59.5855 45.7087 59.5995 45.718 59.6149 45.7241C59.6303 45.7303 59.6469 45.7333 59.6635 45.733H61.2729C61.2469 45.8346 61.1987 45.9292 61.1319 46.01C61.065 46.0907 60.9812 46.1558 60.8863 46.2005C60.6369 46.3192 60.3621 46.3748 60.0861 46.3623H59.6635C59.648 46.3608 59.6325 46.3633 59.6184 46.3696C59.6042 46.3759 59.5918 46.3858 59.5826 46.3983C59.5713 46.4086 59.5623 46.4211 59.5561 46.435C59.5499 46.4489 59.5467 46.4639 59.5466 46.4792V46.9557C59.5452 46.9711 59.5477 46.9868 59.554 47.0009C59.5603 47.0151 59.5701 47.0274 59.5826 47.0367C60.0681 47.5491 60.4008 47.9178 61.174 48.8348C61.185 48.8482 61.1988 48.859 61.2143 48.8668C61.2297 48.8745 61.2466 48.8789 61.2639 48.8798H62.0011C62.0245 48.881 62.0475 48.8746 62.067 48.8616C62.0864 48.8487 62.1012 48.8298 62.109 48.8079C62.1217 48.7882 62.1268 48.7647 62.1235 48.7415C62.1202 48.7184 62.1087 48.6973 62.091 48.682C61.3538 47.7829 61.0661 47.4592 60.6525 47.0097C61.0327 46.975 61.3948 46.8313 61.6954 46.5961C61.9627 46.3742 62.1362 46.0594 62.181 45.715H62.8103C62.8269 45.7154 62.8435 45.7123 62.859 45.7061C62.8743 45.7 62.8884 45.6907 62.9001 45.679C62.9119 45.6672 62.9212 45.6531 62.9274 45.6377C62.9336 45.6223 62.9365 45.6058 62.9362 45.5891V45.2025C62.9399 45.1905 62.9392 45.1776 62.9342 45.1661C62.9293 45.1546 62.9205 45.1452 62.9092 45.1396Z" fill="#E2D188"/>
<path opacity="0.2" d="M56.3103 45.9853C56.3112 44.564 56.8555 43.1969 57.8317 42.1639C58.8078 41.1308 60.1421 40.5102 61.561 40.4289C61.4621 40.4199 61.3542 40.4199 61.2553 40.4199C60.5244 40.4199 59.8008 40.5639 59.1255 40.8436C58.4503 41.1233 57.8368 41.5333 57.32 42.05C56.8032 42.5668 56.3933 43.1803 56.1136 43.8555C55.8339 44.5307 55.6899 45.2545 55.6899 45.9853C55.6899 46.7162 55.8339 47.4398 56.1136 48.1151C56.3933 48.7904 56.8032 49.4038 57.32 49.9206C57.8368 50.4374 58.4503 50.8474 59.1255 51.1271C59.8008 51.4067 60.5244 51.5507 61.2553 51.5507C61.3542 51.5507 61.4621 51.5507 61.561 51.5417C60.141 51.4635 58.805 50.8437 57.8283 49.81C56.8514 48.7763 56.3082 47.4075 56.3103 45.9853Z" fill="#0E2245"/>
<path d="M63.4309 45.1396C63.4194 45.1274 63.4055 45.1179 63.3899 45.1116C63.3744 45.1054 63.3578 45.1027 63.341 45.1036H62.6937C62.6537 44.9081 62.5708 44.7238 62.4509 44.5642H63.332C63.3487 44.5645 63.3652 44.5615 63.3807 44.5553C63.3961 44.5491 63.4101 44.5399 63.4219 44.5281C63.4336 44.5163 63.4429 44.5023 63.4491 44.4868C63.4553 44.4715 63.4583 44.4549 63.4579 44.4383V44.0517C63.4583 44.0351 63.4553 44.0185 63.4491 44.003C63.4429 43.9876 63.4336 43.9736 63.4219 43.9619C63.4101 43.9501 63.3961 43.9408 63.3807 43.9346C63.3652 43.9284 63.3487 43.9255 63.332 43.9258H60.1942C60.1776 43.9255 60.161 43.9284 60.1456 43.9346C60.1302 43.9408 60.1162 43.9501 60.1044 43.9619C60.0926 43.9736 60.0834 43.9876 60.0772 44.003C60.071 44.0185 60.068 44.0351 60.0683 44.0517V44.5552C60.0668 44.5706 60.0693 44.5862 60.0756 44.6003C60.082 44.6145 60.0918 44.6268 60.1043 44.6361C60.1146 44.6473 60.1271 44.6564 60.141 44.6626C60.1549 44.6687 60.1699 44.672 60.1852 44.6721H60.7337C61.2641 44.6721 61.5968 44.8159 61.7407 45.0946H60.1852C60.1686 45.0943 60.1521 45.0972 60.1366 45.1034C60.1212 45.1096 60.1072 45.1189 60.0954 45.1307C60.0836 45.1424 60.0744 45.1564 60.0682 45.1719C60.062 45.1873 60.059 45.2039 60.0594 45.2205V45.6071C60.059 45.6237 60.062 45.6403 60.0682 45.6557C60.0744 45.6711 60.0836 45.6851 60.0954 45.6969C60.1072 45.7087 60.1212 45.718 60.1366 45.7241C60.1521 45.7303 60.1686 45.7333 60.1852 45.733H61.7946C61.7685 45.8346 61.7204 45.9292 61.6535 46.01C61.5867 46.0907 61.5028 46.1558 61.408 46.2005C61.1586 46.3192 60.8837 46.3748 60.6078 46.3623H60.1852C60.1698 46.3608 60.1542 46.3633 60.14 46.3696C60.1259 46.3759 60.1136 46.3858 60.1043 46.3983C60.093 46.4086 60.084 46.4211 60.0778 46.435C60.0716 46.4489 60.0683 46.4639 60.0683 46.4792V46.9557C60.0668 46.9711 60.0693 46.9868 60.0756 47.0009C60.082 47.0151 60.0918 47.0274 60.1043 47.0367C60.5898 47.5491 60.9225 47.9178 61.6957 48.8348C61.7068 48.8482 61.7204 48.859 61.7359 48.8668C61.7514 48.8745 61.7683 48.8789 61.7856 48.8798H62.5229C62.5462 48.881 62.5693 48.8746 62.5887 48.8616C62.6081 48.8487 62.6228 48.8298 62.6308 48.8079C62.6434 48.7882 62.6486 48.7647 62.6452 48.7415C62.6419 48.7184 62.6304 48.6973 62.6128 48.682C61.8755 47.7829 61.5878 47.4592 61.1742 47.0097C61.5545 46.975 61.9165 46.8313 62.2172 46.5961C62.4845 46.3742 62.6579 46.0594 62.7027 45.715H63.332C63.3487 45.7154 63.3652 45.7123 63.3807 45.7061C63.3961 45.7 63.4101 45.6907 63.4219 45.679C63.4336 45.6672 63.4429 45.6531 63.4491 45.6377C63.4553 45.6223 63.4583 45.6058 63.4579 45.5891V45.2025C63.4616 45.1905 63.4609 45.1776 63.4559 45.1661C63.451 45.1546 63.4422 45.1452 63.4309 45.1396Z" fill="#E2D188"/>
<path opacity="0.3" d="M63.4309 45.1396C63.4194 45.1274 63.4055 45.1179 63.3899 45.1116C63.3744 45.1054 63.3578 45.1027 63.341 45.1036H62.6937C62.6537 44.9081 62.5708 44.7238 62.4509 44.5642H63.332C63.3487 44.5645 63.3652 44.5615 63.3807 44.5553C63.3961 44.5491 63.4101 44.5399 63.4219 44.5281C63.4336 44.5163 63.4429 44.5023 63.4491 44.4868C63.4553 44.4715 63.4583 44.4549 63.4579 44.4383V44.0517C63.4583 44.0351 63.4553 44.0185 63.4491 44.003C63.4429 43.9876 63.4336 43.9736 63.4219 43.9619C63.4101 43.9501 63.3961 43.9408 63.3807 43.9346C63.3652 43.9284 63.3487 43.9255 63.332 43.9258H60.1942C60.1776 43.9255 60.161 43.9284 60.1456 43.9346C60.1302 43.9408 60.1162 43.9501 60.1044 43.9619C60.0926 43.9736 60.0834 43.9876 60.0772 44.003C60.071 44.0185 60.068 44.0351 60.0683 44.0517V44.5552C60.0668 44.5706 60.0693 44.5862 60.0756 44.6003C60.082 44.6145 60.0918 44.6268 60.1043 44.6361C60.1146 44.6473 60.1271 44.6564 60.141 44.6626C60.1549 44.6687 60.1699 44.672 60.1852 44.6721H60.7337C61.2641 44.6721 61.5968 44.8159 61.7407 45.0946H60.1852C60.1686 45.0943 60.1521 45.0972 60.1366 45.1034C60.1212 45.1096 60.1072 45.1189 60.0954 45.1307C60.0836 45.1424 60.0744 45.1564 60.0682 45.1719C60.062 45.1873 60.059 45.2039 60.0594 45.2205V45.6071C60.059 45.6237 60.062 45.6403 60.0682 45.6557C60.0744 45.6711 60.0836 45.6851 60.0954 45.6969C60.1072 45.7087 60.1212 45.718 60.1366 45.7241C60.1521 45.7303 60.1686 45.7333 60.1852 45.733H61.7946C61.7685 45.8346 61.7204 45.9292 61.6535 46.01C61.5867 46.0907 61.5028 46.1558 61.408 46.2005C61.1586 46.3192 60.8837 46.3748 60.6078 46.3623H60.1852C60.1698 46.3608 60.1542 46.3633 60.14 46.3696C60.1259 46.3759 60.1136 46.3858 60.1043 46.3983C60.093 46.4086 60.084 46.4211 60.0778 46.435C60.0716 46.4489 60.0683 46.4639 60.0683 46.4792V46.9557C60.0668 46.9711 60.0693 46.9868 60.0756 47.0009C60.082 47.0151 60.0918 47.0274 60.1043 47.0367C60.5898 47.5491 60.9225 47.9178 61.6957 48.8348C61.7068 48.8482 61.7204 48.859 61.7359 48.8668C61.7514 48.8745 61.7683 48.8789 61.7856 48.8798H62.5229C62.5462 48.881 62.5693 48.8746 62.5887 48.8616C62.6081 48.8487 62.6228 48.8298 62.6308 48.8079C62.6434 48.7882 62.6486 48.7647 62.6452 48.7415C62.6419 48.7184 62.6304 48.6973 62.6128 48.682C61.8755 47.7829 61.5878 47.4592 61.1742 47.0097C61.5545 46.975 61.9165 46.8313 62.2172 46.5961C62.4845 46.3742 62.6579 46.0594 62.7027 45.715H63.332C63.3487 45.7154 63.3652 45.7123 63.3807 45.7061C63.3961 45.7 63.4101 45.6907 63.4219 45.679C63.4336 45.6672 63.4429 45.6531 63.4491 45.6377C63.4553 45.6223 63.4583 45.6058 63.4579 45.5891V45.2025C63.4616 45.1905 63.4609 45.1776 63.4559 45.1661C63.451 45.1546 63.4422 45.1452 63.4309 45.1396Z" fill="#0E2245"/>
<path d="M62.9092 45.1396C62.8978 45.1274 62.8838 45.1179 62.8682 45.1116C62.8528 45.1054 62.836 45.1027 62.8193 45.1036H62.172C62.132 44.9081 62.0491 44.7238 61.9292 44.5642H62.8103C62.8269 44.5645 62.8435 44.5615 62.859 44.5553C62.8743 44.5491 62.8884 44.5399 62.9001 44.5281C62.9119 44.5163 62.9212 44.5023 62.9274 44.4868C62.9336 44.4715 62.9365 44.4549 62.9362 44.4383V44.0517C62.9365 44.0351 62.9336 44.0185 62.9274 44.003C62.9212 43.9876 62.9119 43.9736 62.9001 43.9619C62.8884 43.9501 62.8743 43.9408 62.859 43.9346C62.8435 43.9284 62.8269 43.9255 62.8103 43.9258H59.6725C59.6559 43.9255 59.6393 43.9284 59.6239 43.9346C59.6085 43.9408 59.5944 43.9501 59.5827 43.9619C59.5709 43.9736 59.5616 43.9876 59.5554 44.003C59.5493 44.0185 59.5463 44.0351 59.5466 44.0517V44.5552C59.5452 44.5706 59.5477 44.5862 59.554 44.6003C59.5603 44.6145 59.5701 44.6268 59.5826 44.6361C59.5928 44.6473 59.6053 44.6564 59.6193 44.6626C59.6332 44.6687 59.6483 44.672 59.6635 44.6721H60.2119C60.7424 44.6721 61.0751 44.8159 61.2189 45.0946H59.6635C59.6469 45.0943 59.6303 45.0972 59.6149 45.1034C59.5995 45.1096 59.5855 45.1189 59.5737 45.1307C59.5619 45.1424 59.5526 45.1564 59.5464 45.1719C59.5402 45.1873 59.5373 45.2039 59.5376 45.2205V45.6071C59.5373 45.6237 59.5402 45.6403 59.5464 45.6557C59.5526 45.6711 59.5619 45.6851 59.5737 45.6969C59.5855 45.7087 59.5995 45.718 59.6149 45.7241C59.6303 45.7303 59.6469 45.7333 59.6635 45.733H61.2729C61.2469 45.8346 61.1987 45.9292 61.1319 46.01C61.065 46.0907 60.9812 46.1558 60.8863 46.2005C60.6369 46.3192 60.3621 46.3748 60.0861 46.3623H59.6635C59.648 46.3608 59.6325 46.3633 59.6184 46.3696C59.6042 46.3759 59.5918 46.3858 59.5826 46.3983C59.5713 46.4086 59.5623 46.4211 59.5561 46.435C59.5499 46.4489 59.5467 46.4639 59.5466 46.4792V46.9557C59.5452 46.9711 59.5477 46.9868 59.554 47.0009C59.5603 47.0151 59.5701 47.0274 59.5826 47.0367C60.0681 47.5491 60.4008 47.9178 61.174 48.8348C61.185 48.8482 61.1988 48.859 61.2143 48.8668C61.2297 48.8745 61.2466 48.8789 61.2639 48.8798H62.0011C62.0245 48.881 62.0475 48.8746 62.067 48.8616C62.0864 48.8487 62.1012 48.8298 62.109 48.8079C62.1217 48.7882 62.1268 48.7647 62.1235 48.7415C62.1202 48.7184 62.1087 48.6973 62.091 48.682C61.3538 47.7829 61.0661 47.4592 60.6525 47.0097C61.0327 46.975 61.3948 46.8313 61.6954 46.5961C61.9627 46.3742 62.1362 46.0594 62.181 45.715H62.8103C62.8269 45.7154 62.8435 45.7123 62.859 45.7061C62.8743 45.7 62.8884 45.6907 62.9001 45.679C62.9119 45.6672 62.9212 45.6531 62.9274 45.6377C62.9336 45.6223 62.9365 45.6058 62.9362 45.5891V45.2025C62.9399 45.1905 62.9392 45.1776 62.9342 45.1661C62.9293 45.1546 62.9205 45.1452 62.9092 45.1396Z" fill="#E2D188"/>
<path opacity="0.3" d="M63.7007 39.0449H62.8196V52.9269H63.7007V39.0449Z" fill="#263238"/>
<path d="M36.7909 69.2078H33.1585C32.9499 69.2078 32.7485 69.1322 32.5915 68.9947C32.4344 68.858 32.3324 68.6683 32.3044 68.4615L31.3064 61.3496H36.683L37.645 68.2188C37.6639 68.3419 37.6559 68.4669 37.6215 68.5865C37.5872 68.7061 37.5273 68.8167 37.4461 68.9102C37.3649 69.0046 37.2643 69.0792 37.1511 69.1313C37.038 69.1826 36.9151 69.2087 36.7909 69.2078Z" fill="white"/>
<path d="M14.4484 69.2078H18.0808C18.2893 69.2078 18.4908 69.1322 18.6478 68.9947C18.8049 68.858 18.9068 68.6683 18.9349 68.4615L19.9329 61.3496H14.5563L13.5943 68.2188C13.5772 68.341 13.5864 68.466 13.6214 68.5847C13.6563 68.7034 13.7163 68.8131 13.7971 68.9066C13.878 69.0001 13.9779 69.0756 14.0903 69.1277C14.2026 69.1799 14.3247 69.2069 14.4484 69.2078Z" fill="white"/>
<path opacity="0.2" d="M14.4484 69.2078H18.0808C18.2893 69.2078 18.4908 69.1322 18.6478 68.9947C18.8049 68.858 18.9068 68.6683 18.9349 68.4615L19.9329 61.3496H14.5563L13.5943 68.2188C13.5772 68.341 13.5864 68.466 13.6214 68.5847C13.6563 68.7034 13.7163 68.8131 13.7971 68.9066C13.878 69.0001 13.9779 69.0756 14.0903 69.1277C14.2026 69.1799 14.3247 69.2069 14.4484 69.2078Z" fill="#0E2245"/>
<path d="M15.7609 68.4615L16.7589 61.3496H14.5561L13.5941 68.2188C13.5772 68.341 13.5866 68.4651 13.6217 68.5829C13.6569 68.7016 13.717 68.8104 13.7979 68.903C13.8789 68.9965 13.9788 69.0702 14.091 69.1214C14.2032 69.1727 14.3251 69.1988 14.4483 69.1988H14.9068C15.1148 69.2024 15.3169 69.1286 15.4743 68.9929C15.6318 68.8571 15.7339 68.6674 15.7609 68.4615Z" fill="white"/>
<path opacity="0.2" d="M36.7909 69.2078H33.1585C32.9499 69.2078 32.7485 69.1322 32.5915 68.9947C32.4344 68.858 32.3324 68.6683 32.3044 68.4615L31.3064 61.3496H36.683L37.645 68.2188C37.6639 68.3419 37.6559 68.4669 37.6215 68.5865C37.5872 68.7061 37.5273 68.8167 37.4461 68.9102C37.3649 69.0046 37.2643 69.0792 37.1511 69.1313C37.038 69.1826 36.9151 69.2087 36.7909 69.2078Z" fill="#0E2245"/>
<path d="M34.8758 68.2188L33.9138 61.3496H31.3064L32.3044 68.4615C32.3339 68.6674 32.4363 68.8562 32.593 68.9929C32.7497 69.1295 32.9504 69.206 33.1585 69.2078H34.0216C34.1454 69.2069 34.2675 69.1799 34.3798 69.1277C34.4921 69.0756 34.5921 69.0001 34.673 68.9066C34.7539 68.8131 34.8137 68.7034 34.8487 68.5847C34.8837 68.466 34.893 68.341 34.8758 68.2188Z" fill="white"/>
<path d="M7.29175 69.2078H10.9241C11.1326 69.2078 11.3341 69.1322 11.4911 68.9947C11.6481 68.858 11.7502 68.6683 11.7782 68.4615L12.7762 61.3496H7.39964L6.43761 68.2188C6.42044 68.341 6.42961 68.466 6.46459 68.5847C6.49956 68.7034 6.55953 68.8131 6.64036 68.9066C6.72128 69.0001 6.82126 69.0756 6.93355 69.1277C7.04585 69.1799 7.16803 69.2069 7.29175 69.2078Z" fill="white"/>
<path d="M29.6344 69.2078H26.002C25.7935 69.2078 25.592 69.1322 25.435 68.9947C25.278 68.858 25.1759 68.6683 25.1479 68.4615L24.1499 61.3496H29.5265L30.4885 68.2188C30.5074 68.3419 30.4994 68.4669 30.465 68.5865C30.4307 68.7061 30.3709 68.8167 30.2897 68.9102C30.2084 69.0046 30.1078 69.0792 29.9947 69.1313C29.8815 69.1826 29.7586 69.2087 29.6344 69.2078Z" fill="white"/>
<path opacity="0.2" d="M29.6344 69.2078H26.002C25.7935 69.2078 25.592 69.1322 25.435 68.9947C25.278 68.858 25.1759 68.6683 25.1479 68.4615L24.1499 61.3496H29.5265L30.4885 68.2188C30.5074 68.3419 30.4994 68.4669 30.465 68.5865C30.4307 68.7061 30.3709 68.8167 30.2897 68.9102C30.2084 69.0046 30.1078 69.0792 29.9947 69.1313C29.8815 69.1826 29.7586 69.2087 29.6344 69.2078Z" fill="#0E2245"/>
<path opacity="0.2" d="M7.29175 69.2078H10.9241C11.1326 69.2078 11.3341 69.1322 11.4911 68.9947C11.6481 68.858 11.7502 68.6683 11.7782 68.4615L12.7762 61.3496H7.39964L6.43761 68.2188C6.42044 68.341 6.42961 68.466 6.46459 68.5847C6.49956 68.7034 6.55953 68.8131 6.64036 68.9066C6.72128 69.0001 6.82126 69.0756 6.93355 69.1277C7.04585 69.1799 7.16803 69.2069 7.29175 69.2078Z" fill="#0E2245"/>
<path d="M10.4206 47.8202C11.6622 47.8202 12.6683 46.1659 12.6683 44.1249C12.6683 42.084 11.6622 40.4297 10.4206 40.4297C9.17893 40.4297 8.17285 42.084 8.17285 44.1249C8.17285 46.1659 9.17893 47.8202 10.4206 47.8202Z" fill="white"/>
<path opacity="0.3" d="M10.4206 47.8202C11.6622 47.8202 12.6683 46.1659 12.6683 44.1249C12.6683 42.084 11.6622 40.4297 10.4206 40.4297C9.17893 40.4297 8.17285 42.084 8.17285 44.1249C8.17285 46.1659 9.17893 47.8202 10.4206 47.8202Z" fill="#0E2245"/>
<path d="M42.4907 56.4231C42.3649 56.4231 42.23 56.4141 42.0951 56.4052C42.0329 56.4006 41.9722 56.3835 41.9167 56.3552C41.861 56.3268 41.8117 56.2875 41.7715 56.2397C41.7313 56.192 41.7011 56.1367 41.6825 56.0771C41.6639 56.0175 41.6575 55.9548 41.6636 55.8927C41.6744 55.7675 41.7343 55.6517 41.8304 55.5708C41.9266 55.4899 42.0509 55.4504 42.1761 55.4611C42.6549 55.5092 43.1383 55.4445 43.5876 55.2723C43.0572 54.8677 42.6706 54.3283 42.5267 53.7528C42.239 52.638 42.7874 51.8468 43.4797 51.649C44.1541 51.4602 45.0442 51.7928 45.4218 52.9976C45.6465 53.7169 45.6016 54.4092 45.2959 54.9846C45.8364 55.0539 46.3856 55.0048 46.9053 54.8407C47.0252 54.8104 47.1522 54.8278 47.2595 54.8891C47.3669 54.9504 47.4463 55.0509 47.4812 55.1695C47.5161 55.2881 47.5037 55.4157 47.4466 55.5254C47.3895 55.6351 47.2922 55.7183 47.175 55.7578C46.0871 56.0815 45.224 56.0006 44.5946 55.8028C44.0462 56.1984 43.3089 56.4231 42.4907 56.4231ZM43.8394 52.5481C43.8034 52.5481 43.7764 52.557 43.7405 52.557C43.4977 52.629 43.2999 52.9527 43.4438 53.5101C43.5337 53.8517 43.8214 54.3283 44.3788 54.6609C44.6306 54.2833 44.6755 53.8158 44.5137 53.2763C44.3519 52.7638 44.0641 52.5481 43.8394 52.5481Z" fill="white"/>
<path opacity="0.25" d="M42.4907 56.4231C42.3649 56.4231 42.23 56.4141 42.0951 56.4052C42.0329 56.4006 41.9722 56.3835 41.9167 56.3552C41.861 56.3268 41.8117 56.2875 41.7715 56.2397C41.7313 56.192 41.7011 56.1367 41.6825 56.0771C41.6639 56.0175 41.6575 55.9548 41.6636 55.8927C41.6744 55.7675 41.7343 55.6517 41.8304 55.5708C41.9266 55.4899 42.0509 55.4504 42.1761 55.4611C42.6549 55.5092 43.1383 55.4445 43.5876 55.2723C43.0572 54.8677 42.6706 54.3283 42.5267 53.7528C42.239 52.638 42.7874 51.8468 43.4797 51.649C44.1541 51.4602 45.0442 51.7928 45.4218 52.9976C45.6465 53.7169 45.6016 54.4092 45.2959 54.9846C45.8364 55.0539 46.3856 55.0048 46.9053 54.8407C47.0252 54.8104 47.1522 54.8278 47.2595 54.8891C47.3669 54.9504 47.4463 55.0509 47.4812 55.1695C47.5161 55.2881 47.5037 55.4157 47.4466 55.5254C47.3895 55.6351 47.2922 55.7183 47.175 55.7578C46.0871 56.0815 45.224 56.0006 44.5946 55.8028C44.0462 56.1984 43.3089 56.4231 42.4907 56.4231ZM43.8394 52.5481C43.8034 52.5481 43.7764 52.557 43.7405 52.557C43.4977 52.629 43.2999 52.9527 43.4438 53.5101C43.5337 53.8517 43.8214 54.3283 44.3788 54.6609C44.6306 54.2833 44.6755 53.8158 44.5137 53.2763C44.3519 52.7638 44.0641 52.5481 43.8394 52.5481Z" fill="#0E2245"/>
<path d="M30.5063 66.1433H14.7362C11.6053 66.1433 8.60271 64.8996 6.38879 62.6857C4.17495 60.4719 2.93115 57.4692 2.93115 54.3383C2.93115 51.2074 4.17495 48.2048 6.38879 45.9908C8.60271 43.777 11.6053 42.5332 14.7362 42.5332H30.5063C33.6372 42.5332 36.6399 43.777 38.8537 45.9908C41.0676 48.2048 42.3113 51.2074 42.3113 54.3383C42.3113 57.4692 41.0676 60.4719 38.8537 62.6857C36.6399 64.8996 33.6372 66.1433 30.5063 66.1433Z" fill="white"/>
<path opacity="0.2" d="M36.7278 44.3027C38.0038 46.106 38.7594 48.2257 38.9121 50.4295C39.0647 52.6334 38.6083 54.8368 37.593 56.7989C36.5776 58.7609 35.0423 60.406 33.155 61.5543C31.2677 62.7025 29.101 63.3097 26.8917 63.3095H10.798C9.16631 63.309 7.55163 62.9787 6.05078 62.3385C7.15451 63.539 8.49577 64.497 9.98934 65.1517C11.4829 65.8064 13.0962 66.1435 14.727 66.1417H30.4971C33.0634 66.1407 35.5596 65.3037 37.6079 63.7575C39.6561 62.2113 41.1449 60.04 41.849 57.5721C42.5531 55.1042 42.4341 52.4741 41.5101 50.0799C40.586 47.6857 38.9072 45.6577 36.7278 44.3027Z" fill="#0E2245"/>
<path d="M4.22545 50.6426H3.03865V51.0292C1.95075 51.7754 1.18652 53.5197 1.18652 55.5426C1.18652 57.5656 1.95075 59.3098 3.03865 60.0561V60.4427H4.22545C5.90675 60.4427 7.26438 58.2489 7.26438 55.5426C7.26438 52.8364 5.90675 50.6426 4.22545 50.6426Z" fill="white"/>
<path opacity="0.3" d="M4.22545 50.6426H3.03865V51.0292C1.95075 51.7754 1.18652 53.5197 1.18652 55.5426C1.18652 57.5656 1.95075 59.3098 3.03865 60.0561V60.4427H4.22545C5.90675 60.4427 7.26438 58.2489 7.26438 55.5426C7.26438 52.8364 5.90675 50.6426 4.22545 50.6426Z" fill="#0E2245"/>
<path d="M3.03893 60.4505C4.71753 60.4505 6.07786 58.2567 6.07786 55.5504C6.07786 52.8442 4.71753 50.6504 3.03893 50.6504C1.36032 50.6504 0 52.8442 0 55.5504C0 58.2567 1.36032 60.4505 3.03893 60.4505Z" fill="white"/>
<path opacity="0.3" d="M1.61809 56.9087C1.85635 56.9087 2.04965 56.2793 2.04965 55.5061C2.04965 54.7329 1.85635 54.1035 1.61809 54.1035C1.37983 54.1035 1.18652 54.7329 1.18652 55.5061C1.18652 56.2793 1.37983 56.9087 1.61809 56.9087Z" fill="#0E2245"/>
<path opacity="0.3" d="M3.47014 56.9087C3.7084 56.9087 3.9017 56.2793 3.9017 55.5061C3.9017 54.7329 3.7084 54.1035 3.47014 54.1035C3.23188 54.1035 3.03857 54.7329 3.03857 55.5061C3.03857 56.2793 3.23188 56.9087 3.47014 56.9087Z" fill="#0E2245"/>
<path opacity="0.3" d="M10.4208 49.7437C10.8029 49.7437 11.1131 49.144 11.1131 48.4041C11.1131 47.6641 10.8029 47.0645 10.4208 47.0645C10.0387 47.0645 9.72852 47.6641 9.72852 48.4041C9.72852 49.144 10.0387 49.7437 10.4208 49.7437Z" fill="#0E2245"/>
<path opacity="0.3" d="M5.9882 49.7437C6.37031 49.7437 6.6805 49.144 6.6805 48.4041C6.6805 47.6641 6.37031 47.0645 5.9882 47.0645C5.60609 47.0645 5.2959 47.6668 5.2959 48.4041C5.2959 49.1414 5.60609 49.7437 5.9882 49.7437Z" fill="#0E2245"/>
<path d="M18.2333 45.7163C18.3772 45.1981 18.4498 44.6628 18.4491 44.1249C18.4491 42.084 17.4421 40.4297 16.2014 40.4297C14.9606 40.4297 13.9536 42.084 13.9536 44.1249C13.9528 44.3926 13.9708 44.66 14.0076 44.9251L18.2333 45.7163Z" fill="white"/>
<path opacity="0.3" d="M16.3991 44.2059C16.423 44.2105 16.4477 44.2098 16.4713 44.2038C16.495 44.1978 16.517 44.1867 16.5359 44.1713C16.5548 44.1558 16.57 44.1364 16.5805 44.1145C16.5911 44.0924 16.5967 44.0684 16.5969 44.0441C16.6059 43.6305 16.5879 42.9022 16.5879 42.7404C16.5879 42.0391 16.2013 41.4727 15.7337 41.4727C15.2662 41.4727 14.8796 42.0391 14.8796 42.7404C14.8796 42.8213 14.8706 43.4776 14.8706 43.7743C14.8704 43.8128 14.8838 43.8502 14.9085 43.8798C14.9332 43.9094 14.9675 43.9293 15.0055 43.9362L16.3991 44.2059Z" fill="#0E2245"/>
<path opacity="0.04" d="M13.9987 44.2774C13.9892 44.2775 13.9798 44.2757 13.971 44.2722C13.9623 44.2686 13.9543 44.2633 13.9475 44.2565C13.9409 44.2499 13.9356 44.2419 13.932 44.2331C13.9285 44.2243 13.9267 44.2149 13.9268 44.2054C13.9464 43.6385 14.0065 43.0736 14.1066 42.5152C14.1089 42.5057 14.1131 42.4968 14.1189 42.489C14.1247 42.4812 14.132 42.4745 14.1404 42.4696C14.1487 42.4645 14.158 42.4612 14.1676 42.4598C14.1772 42.4583 14.187 42.4589 14.1965 42.4612C14.2059 42.4636 14.2148 42.4678 14.2227 42.4735C14.2305 42.4794 14.237 42.4867 14.2421 42.495C14.2471 42.5033 14.2504 42.5126 14.2519 42.5222C14.2533 42.5319 14.2528 42.5417 14.2504 42.5511C14.1505 43.1003 14.0933 43.6564 14.0796 44.2144C14.0758 44.2328 14.0656 44.2492 14.0507 44.2607C14.0359 44.2723 14.0175 44.2782 13.9987 44.2774Z" fill="#0E2245"/>
<path opacity="0.3" d="M19.2945 45.0057H19.4743C19.3664 44.0915 18.9876 43.2304 18.3864 42.5332H18.2246C18.3722 43.0506 18.4449 43.5866 18.4404 44.1246V44.1336C18.4392 44.247 18.4604 44.3594 18.5026 44.4646C18.5449 44.5698 18.6075 44.6656 18.6868 44.7466C18.7661 44.8276 18.8606 44.8921 18.9649 44.9366C19.0691 44.9811 19.1812 45.0045 19.2945 45.0057Z" fill="#0E2245"/>
<path d="M32.9519 47.1274H19.052C18.8993 47.1274 18.7529 47.0668 18.6451 46.9589C18.5372 46.8509 18.4766 46.7046 18.4766 46.552C18.4766 46.3994 18.5372 46.253 18.6451 46.1451C18.7529 46.0372 18.8993 45.9766 19.052 45.9766H32.9519C33.1045 45.9766 33.2509 46.0372 33.3588 46.1451C33.4667 46.253 33.5273 46.3994 33.5273 46.552C33.5273 46.7046 33.4667 46.8509 33.3588 46.9589C33.2509 47.0668 33.1045 47.1274 32.9519 47.1274Z" fill="white"/>
<path opacity="0.5" d="M32.9519 47.1274H19.052C18.8993 47.1274 18.7529 47.0668 18.6451 46.9589C18.5372 46.8509 18.4766 46.7046 18.4766 46.552C18.4766 46.3994 18.5372 46.253 18.6451 46.1451C18.7529 46.0372 18.8993 45.9766 19.052 45.9766H32.9519C33.1045 45.9766 33.2509 46.0372 33.3588 46.1451C33.4667 46.253 33.5273 46.3994 33.5273 46.552C33.5273 46.7046 33.4667 46.8509 33.3588 46.9589C33.2509 47.0668 33.1045 47.1274 32.9519 47.1274Z" fill="#0E2245"/>
<path d="M20.4456 47.1265H32.3226C32.826 46.0525 33.0287 44.8622 32.9092 43.6821C32.7896 42.5022 32.3523 41.3767 31.6438 40.4255C30.9352 39.4743 29.982 38.7331 28.8856 38.2808C27.7892 37.8284 26.5906 37.682 25.4176 37.8568L24.3387 38.0187L24.3566 38.1086C22.8841 38.5906 21.6295 39.578 20.815 40.896C20.0006 42.214 19.6786 43.7777 19.9062 45.3103C19.9954 45.939 20.1772 46.551 20.4456 47.1265Z" fill="#E2D188"/>
<path opacity="0.3" d="M20.4456 47.1265H32.3226C32.826 46.0525 33.0287 44.8622 32.9092 43.6821C32.7896 42.5022 32.3523 41.3767 31.6438 40.4255C30.9352 39.4743 29.982 38.7331 28.8856 38.2808C27.7892 37.8284 26.5906 37.682 25.4176 37.8568L24.3387 38.0187L24.3566 38.1086C22.8841 38.5906 21.6295 39.578 20.815 40.896C20.0006 42.214 19.6786 43.7777 19.9062 45.3103C19.9954 45.939 20.1772 46.551 20.4456 47.1265Z" fill="#0E2245"/>
<path d="M19.6724 47.1268H31.6482C32.1614 45.9862 32.3331 44.7215 32.1427 43.4855C31.8712 41.7786 30.9369 40.2479 29.543 39.2261C28.1491 38.2043 26.4082 37.774 24.6987 38.0286C22.9893 38.2833 21.4495 39.2025 20.414 40.5863C19.3784 41.9701 18.9311 43.7066 19.1689 45.4185C19.2654 46.0065 19.4345 46.5803 19.6724 47.1268Z" fill="#E2D188"/>
<path d="M27.6292 43.323C27.6166 43.3134 27.602 43.3067 27.5863 43.3036C27.5708 43.3005 27.5547 43.301 27.5393 43.305L26.9189 43.3949C26.8573 43.211 26.7525 43.0446 26.6132 42.9094L27.4584 42.7836C27.4903 42.7799 27.5193 42.7637 27.5393 42.7386C27.549 42.726 27.5556 42.7114 27.5587 42.6957C27.5619 42.6802 27.5613 42.6641 27.5573 42.6487L27.5033 42.2801C27.4997 42.2482 27.4835 42.2191 27.4584 42.1991C27.4458 42.1895 27.4311 42.1829 27.4155 42.1797C27.3999 42.1767 27.3839 42.1771 27.3685 42.1812L24.3655 42.6307C24.3337 42.6344 24.3046 42.6506 24.2846 42.6757C24.275 42.6883 24.2683 42.703 24.2652 42.7186C24.2621 42.7341 24.2626 42.7502 24.2666 42.7656L24.3385 43.2421C24.3446 43.2707 24.3605 43.2961 24.3835 43.314C24.3962 43.3237 24.4108 43.3303 24.4264 43.3334C24.4419 43.3366 24.458 43.336 24.4734 43.332L24.9949 43.2511C25.5074 43.1792 25.849 43.2601 26.0198 43.5118L24.5273 43.7366C24.4955 43.7403 24.4664 43.7565 24.4464 43.7815C24.4368 43.7942 24.4302 43.8089 24.4271 43.8244C24.424 43.84 24.4244 43.8561 24.4285 43.8715L24.4824 44.2401C24.4862 44.272 24.5023 44.301 24.5273 44.321C24.54 44.3307 24.5547 44.3373 24.5702 44.3404C24.5858 44.3436 24.6019 44.343 24.6173 44.339L26.1637 44.1052C26.1523 44.2063 26.119 44.3036 26.0662 44.3906C26.0135 44.4775 25.9424 44.552 25.858 44.6087C25.6362 44.7606 25.3794 44.8534 25.1118 44.8784L24.7072 44.9414C24.6787 44.9474 24.6531 44.9633 24.6352 44.9863C24.6256 44.999 24.619 45.0137 24.6158 45.0292C24.6128 45.0448 24.6132 45.0609 24.6173 45.0762L24.6892 45.5348C24.6952 45.5634 24.7111 45.5888 24.7341 45.6067C25.2736 46.0293 25.6512 46.335 26.5143 47.1082C26.5593 47.1082 27.3145 47.0363 27.3145 47.0363C27.3371 47.0338 27.3585 47.0249 27.376 47.0105C27.3936 46.9962 27.4066 46.977 27.4134 46.9553C27.4233 46.9349 27.425 46.9116 27.4184 46.8899C27.4117 46.8682 27.3972 46.8499 27.3775 46.8385C26.5413 46.0832 26.2176 45.8135 25.7591 45.4449C26.1198 45.3626 26.4464 45.1711 26.6942 44.8964C26.9166 44.643 27.0382 44.3166 27.0358 43.9793L27.6382 43.8894C27.6701 43.8858 27.6992 43.8696 27.7191 43.8445C27.7288 43.8319 27.7354 43.8172 27.7385 43.8016C27.7417 43.786 27.7412 43.77 27.7371 43.7546L27.6832 43.3859C27.6675 43.3631 27.6494 43.3421 27.6292 43.323Z" fill="#E2D188"/>
<path opacity="0.3" d="M20.9755 47.1252H30.3351C30.7613 46.379 31.0029 45.5415 31.0397 44.6829C31.0764 43.8241 30.9072 42.9692 30.5461 42.1892C30.1851 41.4093 29.6427 40.727 28.9642 40.1994C28.2858 39.6717 27.491 39.314 26.6462 39.1562C25.8013 38.9983 24.931 39.0448 24.1078 39.2917C23.2846 39.5387 22.5324 39.9791 21.914 40.576C21.2956 41.173 20.8291 41.9092 20.5531 42.7231C20.2773 43.5372 20.2002 44.4053 20.3282 45.2551C20.425 45.9135 20.6446 46.5479 20.9755 47.1252Z" fill="#0E2245"/>
<path opacity="0.3" d="M24.3743 43.3242C24.3869 43.3338 24.4016 43.3405 24.4172 43.3436C24.4328 43.3467 24.4489 43.3463 24.4642 43.3422L24.9857 43.2613C25.4982 43.1894 25.8399 43.2703 26.0107 43.522L24.5182 43.7468C24.4864 43.7505 24.4572 43.7667 24.4373 43.7918C24.4277 43.8043 24.421 43.819 24.4179 43.8345C24.4147 43.8502 24.4152 43.8663 24.4193 43.8817L24.4732 44.2503C24.4769 44.2821 24.4931 44.3112 24.5182 44.3312C24.5308 44.3408 24.5454 44.3475 24.5611 44.3505C24.5766 44.3537 24.5927 44.3532 24.6081 44.3492L26.1545 44.1154C26.143 44.2165 26.1098 44.3138 26.057 44.4007C26.0042 44.4876 25.9332 44.5621 25.8488 44.6189C25.627 44.7707 25.3702 44.8636 25.1026 44.8886L24.698 44.9516C24.6694 44.9575 24.644 44.9734 24.6261 44.9965C24.6164 45.0091 24.6098 45.0238 24.6067 45.0393C24.6035 45.055 24.6041 45.0711 24.6081 45.0864L24.68 45.545C24.686 45.5735 24.702 45.599 24.725 45.6169C25.2644 46.0395 25.6421 46.3452 26.5052 47.1184H26.8019L27.3054 47.0465C27.3279 47.044 27.3492 47.035 27.3669 47.0207C27.3844 47.0063 27.3974 46.9871 27.4043 46.9655C27.4141 46.945 27.4159 46.9217 27.4092 46.9C27.4026 46.8783 27.3879 46.86 27.3683 46.8487C26.5322 46.0934 26.2085 45.8237 25.7499 45.4551C26.1106 45.3728 26.4371 45.1812 26.685 44.9066C26.9074 44.6531 27.029 44.3267 27.0267 43.9896L27.638 43.8996C27.6699 43.8959 27.699 43.8798 27.719 43.8547C27.7286 43.842 27.7352 43.8274 27.7384 43.8118C27.7414 43.7962 27.741 43.7802 27.7369 43.7648L27.683 43.3962C27.6793 43.3642 27.6631 43.3352 27.638 43.3152C27.6254 43.3055 27.6107 43.299 27.5952 43.2958C27.5796 43.2927 27.5635 43.2932 27.5481 43.2973L26.9278 43.3872C26.8661 43.2032 26.7612 43.0367 26.6221 42.9017L27.4672 42.7758C27.499 42.772 27.5282 42.7559 27.5481 42.7308C27.5577 42.7181 27.5644 42.7035 27.5675 42.6879C27.5706 42.6723 27.5702 42.6563 27.5661 42.6409L27.5122 42.2723C27.5085 42.2404 27.4923 42.2113 27.4672 42.1914C27.4545 42.1817 27.4399 42.1751 27.4243 42.1719C27.4088 42.1688 27.3927 42.1693 27.3773 42.1734L24.3743 42.6229C24.3425 42.6266 24.3134 42.6428 24.2934 42.6679C24.2837 42.6805 24.2771 42.6951 24.274 42.7107C24.2709 42.7263 24.2714 42.7424 24.2754 42.7578L24.3474 43.2343C24.3421 43.2502 24.3418 43.2674 24.3466 43.2835C24.3515 43.2996 24.3611 43.3138 24.3743 43.3242Z" fill="#0E2245"/>
<path opacity="0.2" d="M20.9759 47.125H21.6142C21.1734 46.3859 20.9157 45.5522 20.8628 44.6933C20.8098 43.8345 20.9631 42.9754 21.3098 42.1878C21.6565 41.4002 22.1866 40.707 22.8558 40.166C23.525 39.625 24.314 39.2521 25.1567 39.0781C25.0578 39.0871 24.9589 39.0961 24.86 39.1141C24.1595 39.2185 23.4865 39.46 22.8795 39.8247C22.2725 40.1896 21.7434 40.6705 21.3224 41.2401C20.9015 41.8097 20.5971 42.4566 20.4266 43.144C20.256 43.8313 20.2227 44.5456 20.3286 45.2459C20.424 45.9074 20.6437 46.545 20.9759 47.125Z" fill="#0E2245"/>
<path d="M26.8197 47.1187C26.8401 47.1158 26.8589 47.1064 26.8736 47.0918C26.8882 47.0771 26.8976 47.0583 26.9006 47.0378C26.9104 47.0173 26.9122 46.994 26.9055 46.9723C26.8989 46.9506 26.8842 46.9323 26.8646 46.9209C26.0285 46.1656 25.7048 45.8959 25.2462 45.5273C25.6069 45.445 25.9334 45.2535 26.1813 44.9788C26.4037 44.7254 26.5253 44.399 26.523 44.0618L27.1253 43.9719C27.1572 43.9682 27.1862 43.952 27.2063 43.9269C27.2159 43.9143 27.2225 43.8997 27.2256 43.8841C27.2287 43.8685 27.2283 43.8524 27.2242 43.837L27.1703 43.4684C27.1665 43.4365 27.1504 43.4075 27.1253 43.3874C27.1127 43.3778 27.098 43.3712 27.0825 43.3681C27.0669 43.365 27.0508 43.3654 27.0354 43.3695L26.4151 43.4594C26.3534 43.2755 26.2486 43.109 26.1094 42.9739L26.9545 42.848C26.9863 42.8443 27.0154 42.8281 27.0354 42.803C27.0451 42.7905 27.0517 42.7758 27.0548 42.7602C27.0579 42.7446 27.0575 42.7285 27.0534 42.7131L26.9995 42.3445C26.9957 42.3127 26.9796 42.2836 26.9545 42.2636C26.9418 42.254 26.9272 42.2473 26.9116 42.2443C26.896 42.2411 26.88 42.2416 26.8646 42.2456L23.8616 42.6951C23.8297 42.6989 23.8007 42.715 23.7807 42.7401C23.771 42.7528 23.7645 42.7674 23.7613 42.783C23.7582 42.7986 23.7587 42.8147 23.7627 42.83L23.8347 43.3065C23.8406 43.3351 23.8566 43.3606 23.8796 43.3785C23.8922 43.3882 23.9069 43.3948 23.9224 43.3979C23.9381 43.401 23.9542 43.4005 23.9695 43.3964L24.491 43.3155C25.0035 43.2436 25.3451 43.3245 25.516 43.5763L24.0235 43.801C23.9916 43.8048 23.9625 43.8209 23.9426 43.846C23.9329 43.8587 23.9263 43.8733 23.9231 43.8889C23.92 43.9045 23.9205 43.9206 23.9246 43.9359L23.9785 44.3045C23.9822 44.3364 23.9984 44.3655 24.0235 44.3854C24.0361 44.3951 24.0507 44.4018 24.0663 44.4049C24.0819 44.408 24.098 44.4075 24.1134 44.4034L25.6598 44.1697C25.6483 44.2707 25.6151 44.3681 25.5623 44.455C25.5095 44.542 25.4385 44.6164 25.3541 44.6731C25.1323 44.825 24.8755 44.9179 24.6079 44.9429L24.2033 45.0058C24.1747 45.0118 24.1493 45.0278 24.1314 45.0508C24.1217 45.0634 24.1151 45.0781 24.112 45.0937C24.1088 45.1093 24.1093 45.1254 24.1134 45.1407L24.1853 45.5992C24.1912 45.6278 24.2072 45.6532 24.2303 45.6711C24.7517 46.0757 25.1204 46.3814 25.9206 47.0917H26.8197V47.1187Z" fill="#E2D188"/>
<path opacity="0.5" d="M33.5363 46.5625H18.4766C18.4793 46.7135 18.5411 46.8572 18.6487 46.963C18.7563 47.069 18.901 47.1285 19.052 47.1289H32.9519C33.1038 47.1288 33.2496 47.0696 33.3587 46.9639C33.4677 46.8582 33.5314 46.7143 33.5363 46.5625Z" fill="#0E2245"/>
<path d="M102.919 69.3064H0.153185C0.131786 69.3064 0.111197 69.2983 0.0960023 69.283C0.0808077 69.2677 0.0722656 69.247 0.0722656 69.2255C0.0722656 69.2039 0.0808077 69.1832 0.0960023 69.1679C0.111197 69.1535 0.131786 69.1445 0.153185 69.1445H102.919C102.941 69.1445 102.962 69.1535 102.977 69.1679C102.992 69.1832 103 69.2039 103 69.2255C103 69.247 102.992 69.2677 102.977 69.283C102.962 69.2983 102.941 69.3064 102.919 69.3064Z" fill="#B2B6BB"/>
<path d="M45.431 46.8296C45.3755 46.819 45.3227 46.7976 45.2754 46.7665C45.2282 46.7355 45.1875 46.6954 45.1558 46.6487C45.124 46.6019 45.1018 46.5493 45.0904 46.4939C45.0791 46.4386 45.0787 46.3815 45.0893 46.3261C45.0931 46.2996 45.0867 46.2726 45.0714 46.2506C45.0562 46.2285 45.0331 46.2132 45.0069 46.2075C44.9807 46.2018 44.9533 46.2062 44.9303 46.2199C44.9072 46.2336 44.8902 46.2554 44.8825 46.2811C44.872 46.3366 44.8506 46.3896 44.8196 46.4368C44.7885 46.484 44.7485 46.5246 44.7017 46.5563C44.655 46.5881 44.6024 46.6103 44.547 46.6217C44.4916 46.6331 44.4346 46.6335 44.3791 46.6228C44.3525 46.619 44.3256 46.6254 44.3036 46.6407C44.2816 46.656 44.2662 46.6791 44.2605 46.7052C44.2548 46.7315 44.2592 46.7588 44.2729 46.7819C44.2865 46.8049 44.3085 46.8219 44.3341 46.8296C44.3897 46.8401 44.4425 46.8616 44.4898 46.8926C44.537 46.9236 44.5777 46.9636 44.6094 47.0105C44.6411 47.0572 44.6633 47.1097 44.6748 47.1651C44.6861 47.2205 44.6865 47.2776 44.6758 47.3331C44.6721 47.3596 44.6784 47.3866 44.6937 47.4086C44.709 47.4305 44.7321 47.446 44.7583 47.4516C44.7845 47.4573 44.8119 47.4529 44.8349 47.4392C44.858 47.4256 44.875 47.4037 44.8825 47.378C44.8932 47.3224 44.9146 47.2696 44.9456 47.2224C44.9767 47.1751 45.0167 47.1344 45.0634 47.1027C45.1102 47.071 45.1628 47.0488 45.2182 47.0374C45.2736 47.026 45.3306 47.0257 45.386 47.0364C45.4134 47.0409 45.4413 47.0351 45.4646 47.0202C45.4879 47.0052 45.5047 46.9821 45.5119 46.9554C45.5153 46.9283 45.509 46.9009 45.4943 46.8778C45.4795 46.8548 45.4572 46.8377 45.431 46.8296Z" fill="#E2D188"/>
<path opacity="0.5" d="M45.431 46.8296C45.3755 46.819 45.3227 46.7976 45.2754 46.7665C45.2282 46.7355 45.1875 46.6954 45.1558 46.6487C45.124 46.6019 45.1018 46.5493 45.0904 46.4939C45.0791 46.4386 45.0787 46.3815 45.0893 46.3261C45.0931 46.2996 45.0867 46.2726 45.0714 46.2506C45.0562 46.2285 45.0331 46.2132 45.0069 46.2075C44.9807 46.2018 44.9533 46.2062 44.9303 46.2199C44.9072 46.2336 44.8902 46.2554 44.8825 46.2811C44.872 46.3366 44.8506 46.3896 44.8196 46.4368C44.7885 46.484 44.7485 46.5246 44.7017 46.5563C44.655 46.5881 44.6024 46.6103 44.547 46.6217C44.4916 46.6331 44.4346 46.6335 44.3791 46.6228C44.3525 46.619 44.3256 46.6254 44.3036 46.6407C44.2816 46.656 44.2662 46.6791 44.2605 46.7052C44.2548 46.7315 44.2592 46.7588 44.2729 46.7819C44.2865 46.8049 44.3085 46.8219 44.3341 46.8296C44.3897 46.8401 44.4425 46.8616 44.4898 46.8926C44.537 46.9236 44.5777 46.9636 44.6094 47.0105C44.6411 47.0572 44.6633 47.1097 44.6748 47.1651C44.6861 47.2205 44.6865 47.2776 44.6758 47.3331C44.6721 47.3596 44.6784 47.3866 44.6937 47.4086C44.709 47.4305 44.7321 47.446 44.7583 47.4516C44.7845 47.4573 44.8119 47.4529 44.8349 47.4392C44.858 47.4256 44.875 47.4037 44.8825 47.378C44.8932 47.3224 44.9146 47.2696 44.9456 47.2224C44.9767 47.1751 45.0167 47.1344 45.0634 47.1027C45.1102 47.071 45.1628 47.0488 45.2182 47.0374C45.2736 47.026 45.3306 47.0257 45.386 47.0364C45.4134 47.0409 45.4413 47.0351 45.4646 47.0202C45.4879 47.0052 45.5047 46.9821 45.5119 46.9554C45.5153 46.9283 45.509 46.9009 45.4943 46.8778C45.4795 46.8548 45.4572 46.8377 45.431 46.8296Z" fill="white"/>
<path d="M38.0133 28.6968C37.9577 28.6862 37.9049 28.6648 37.8576 28.6338C37.8104 28.6027 37.7697 28.5627 37.738 28.5159C37.7063 28.4691 37.684 28.4166 37.6726 28.3612C37.6613 28.3059 37.6609 28.2488 37.6716 28.1933C37.6753 28.1668 37.6689 28.1397 37.6537 28.1178C37.6384 28.0958 37.6153 28.0804 37.5891 28.0747C37.5629 28.069 37.5355 28.0735 37.5125 28.087C37.4894 28.1007 37.4724 28.1226 37.4648 28.1484C37.4542 28.2038 37.4328 28.2567 37.4018 28.304C37.3707 28.3512 37.3307 28.3918 37.284 28.4236C37.2372 28.4553 37.1846 28.4775 37.1292 28.4889C37.0739 28.5003 37.0168 28.5007 36.9614 28.49C36.9473 28.4859 36.9327 28.4846 36.9182 28.4864C36.9037 28.4882 36.8898 28.493 36.8772 28.5004C36.8647 28.5079 36.8537 28.5178 36.8453 28.5297C36.8367 28.5414 36.8307 28.5549 36.8276 28.5692C36.8245 28.5834 36.8244 28.5982 36.8272 28.6125C36.8301 28.6268 36.8358 28.6403 36.8442 28.6523C36.8526 28.6642 36.8633 28.6744 36.8757 28.6821C36.8881 28.6897 36.9019 28.6947 36.9164 28.6968C36.9719 28.7073 37.0247 28.7287 37.072 28.7598C37.1192 28.7908 37.1599 28.8309 37.1916 28.8776C37.2233 28.9245 37.2456 28.977 37.257 29.0323C37.2684 29.0877 37.2688 29.1447 37.2581 29.2003C37.2539 29.2142 37.2527 29.229 37.2545 29.2434C37.2563 29.2578 37.261 29.2719 37.2685 29.2844C37.2759 29.2969 37.2858 29.3078 37.2977 29.3164C37.3095 29.3249 37.323 29.3308 37.3373 29.334C37.3515 29.337 37.3662 29.3372 37.3805 29.3343C37.3948 29.3315 37.4084 29.3257 37.4203 29.3174C37.4323 29.3091 37.4425 29.2984 37.4501 29.2859C37.4577 29.2735 37.4628 29.2596 37.4648 29.2452C37.4754 29.1897 37.4968 29.1368 37.5279 29.0895C37.5589 29.0423 37.5989 29.0017 37.6457 28.9699C37.6925 28.9382 37.745 28.916 37.8004 28.9046C37.8558 28.8933 37.9128 28.8929 37.9683 28.9036C37.9956 28.9081 38.0235 28.9023 38.0468 28.8873C38.0701 28.8724 38.0869 28.8494 38.0942 28.8227C38.0989 28.809 38.1004 28.7945 38.0987 28.7802C38.097 28.7659 38.0921 28.7522 38.0842 28.74C38.0764 28.728 38.066 28.7177 38.0537 28.7103C38.0414 28.7027 38.0276 28.6981 38.0133 28.6968Z" fill="#E2D188"/>
<path opacity="0.5" d="M38.0133 28.6968C37.9577 28.6862 37.9049 28.6648 37.8576 28.6338C37.8104 28.6027 37.7697 28.5627 37.738 28.5159C37.7063 28.4691 37.684 28.4166 37.6726 28.3612C37.6613 28.3059 37.6609 28.2488 37.6716 28.1933C37.6753 28.1668 37.6689 28.1397 37.6537 28.1178C37.6384 28.0958 37.6153 28.0804 37.5891 28.0747C37.5629 28.069 37.5355 28.0735 37.5125 28.087C37.4894 28.1007 37.4724 28.1226 37.4648 28.1484C37.4542 28.2038 37.4328 28.2567 37.4018 28.304C37.3707 28.3512 37.3307 28.3918 37.284 28.4236C37.2372 28.4553 37.1846 28.4775 37.1292 28.4889C37.0739 28.5003 37.0168 28.5007 36.9614 28.49C36.9473 28.4859 36.9327 28.4846 36.9182 28.4864C36.9037 28.4882 36.8898 28.493 36.8772 28.5004C36.8647 28.5079 36.8537 28.5178 36.8453 28.5297C36.8367 28.5414 36.8307 28.5549 36.8276 28.5692C36.8245 28.5834 36.8244 28.5982 36.8272 28.6125C36.8301 28.6268 36.8358 28.6403 36.8442 28.6523C36.8526 28.6642 36.8633 28.6744 36.8757 28.6821C36.8881 28.6897 36.9019 28.6947 36.9164 28.6968C36.9719 28.7073 37.0247 28.7287 37.072 28.7598C37.1192 28.7908 37.1599 28.8309 37.1916 28.8776C37.2233 28.9245 37.2456 28.977 37.257 29.0323C37.2684 29.0877 37.2688 29.1447 37.2581 29.2003C37.2539 29.2142 37.2527 29.229 37.2545 29.2434C37.2563 29.2578 37.261 29.2719 37.2685 29.2844C37.2759 29.2969 37.2858 29.3078 37.2977 29.3164C37.3095 29.3249 37.323 29.3308 37.3373 29.334C37.3515 29.337 37.3662 29.3372 37.3805 29.3343C37.3948 29.3315 37.4084 29.3257 37.4203 29.3174C37.4323 29.3091 37.4425 29.2984 37.4501 29.2859C37.4577 29.2735 37.4628 29.2596 37.4648 29.2452C37.4754 29.1897 37.4968 29.1368 37.5279 29.0895C37.5589 29.0423 37.5989 29.0017 37.6457 28.9699C37.6925 28.9382 37.745 28.916 37.8004 28.9046C37.8558 28.8933 37.9128 28.8929 37.9683 28.9036C37.9956 28.9081 38.0235 28.9023 38.0468 28.8873C38.0701 28.8724 38.0869 28.8494 38.0942 28.8227C38.0989 28.809 38.1004 28.7945 38.0987 28.7802C38.097 28.7659 38.0921 28.7522 38.0842 28.74C38.0764 28.728 38.066 28.7177 38.0537 28.7103C38.0414 28.7027 38.0276 28.6981 38.0133 28.6968Z" fill="white"/>
<path d="M59.1695 35.978C59.114 35.9674 59.0611 35.946 59.0139 35.915C58.9667 35.8839 58.926 35.8439 58.8943 35.7972C58.8626 35.7504 58.8404 35.6978 58.8289 35.6424C58.8175 35.5871 58.8172 35.53 58.8279 35.4746C58.8316 35.448 58.8253 35.421 58.81 35.399C58.7946 35.377 58.7716 35.3616 58.7454 35.356C58.7192 35.3502 58.6918 35.3547 58.6688 35.3683C58.6457 35.382 58.6287 35.4039 58.6211 35.4296C58.6105 35.4851 58.5892 35.5379 58.558 35.5852C58.527 35.6324 58.487 35.6731 58.4403 35.7048C58.3934 35.7366 58.3409 35.7588 58.2855 35.7702C58.2301 35.7816 58.1731 35.782 58.1176 35.7713C58.0911 35.7675 58.0641 35.7739 58.0421 35.7892C58.0201 35.8044 58.0047 35.8275 57.999 35.8537C57.9933 35.88 57.9977 35.9073 58.0114 35.9303C58.0251 35.9534 58.0469 35.9704 58.0726 35.978C58.1282 35.9886 58.1811 36.01 58.2283 36.0411C58.2756 36.0721 58.3162 36.1121 58.3479 36.1589C58.3797 36.2057 58.4019 36.2582 58.4132 36.3136C58.4246 36.369 58.425 36.426 58.4143 36.4815C58.4101 36.4955 58.409 36.5102 58.4108 36.5247C58.4126 36.5391 58.4173 36.5531 58.4248 36.5656C58.4322 36.5782 58.4422 36.5891 58.454 36.5976C58.4658 36.6062 58.4793 36.6121 58.4935 36.6152C58.5078 36.6183 58.5225 36.6185 58.5368 36.6156C58.5511 36.6127 58.5647 36.607 58.5767 36.5986C58.5886 36.5903 58.5988 36.5796 58.6064 36.5671C58.6141 36.5547 58.619 36.5409 58.6211 36.5265C58.6317 36.4709 58.6531 36.4181 58.6841 36.3708C58.7151 36.3236 58.7552 36.2829 58.802 36.2512C58.8487 36.2195 58.9013 36.1972 58.9567 36.1858C59.012 36.1745 59.0691 36.1741 59.1246 36.1848C59.1519 36.1893 59.1799 36.1836 59.2031 36.1686C59.2263 36.1536 59.2432 36.1306 59.2504 36.1039C59.2536 36.0903 59.254 36.0762 59.2516 36.0625C59.2493 36.0487 59.2441 36.0356 59.2366 36.0238C59.229 36.0121 59.2192 36.002 59.2077 35.9941C59.1962 35.9862 59.1832 35.9807 59.1695 35.978Z" fill="#E2D188"/>
<path d="M27.0982 35.3388C27.0428 35.3283 26.9898 35.3069 26.9426 35.2758C26.8953 35.2448 26.8547 35.2048 26.8229 35.1579C26.7912 35.1112 26.7691 35.0587 26.7577 35.0033C26.7462 34.9479 26.7459 34.8908 26.7566 34.8353C26.7607 34.8214 26.7619 34.8066 26.7601 34.7922C26.7583 34.7777 26.7535 34.7638 26.7461 34.7513C26.7387 34.7387 26.7287 34.7278 26.7169 34.7193C26.7051 34.7107 26.6917 34.7048 26.6774 34.7016C26.6632 34.6986 26.6484 34.6984 26.6341 34.7013C26.6197 34.7041 26.6062 34.7099 26.5942 34.7183C26.5822 34.7265 26.5722 34.7372 26.5645 34.7496C26.5569 34.762 26.5519 34.776 26.5498 34.7904C26.5393 34.8459 26.5178 34.8988 26.4868 34.946C26.4557 34.9933 26.4156 35.0339 26.3689 35.0657C26.3221 35.0974 26.2695 35.1196 26.2142 35.1309C26.1589 35.1424 26.1018 35.1427 26.0463 35.132C26.0198 35.1282 25.9928 35.1347 25.9708 35.15C25.9488 35.1653 25.9334 35.1884 25.9277 35.2146C25.922 35.2407 25.9264 35.2681 25.9401 35.2912C25.9538 35.3142 25.9756 35.3313 26.0013 35.3388C26.0569 35.3494 26.1098 35.3708 26.157 35.4018C26.2043 35.4329 26.2449 35.473 26.2766 35.5197C26.3084 35.5665 26.3306 35.6191 26.3419 35.6744C26.3533 35.7297 26.3537 35.7868 26.343 35.8423C26.3389 35.8563 26.3377 35.871 26.3395 35.8855C26.3413 35.8999 26.346 35.9139 26.3535 35.9265C26.3609 35.939 26.3709 35.9498 26.3826 35.9584C26.3945 35.9669 26.408 35.9729 26.4222 35.976C26.4365 35.9791 26.4512 35.9792 26.4655 35.9765C26.4798 35.9736 26.4933 35.9678 26.5054 35.9595C26.5173 35.9511 26.5274 35.9404 26.5351 35.928C26.5428 35.9156 26.5477 35.9017 26.5498 35.8873C26.5604 35.8318 26.5818 35.7788 26.6128 35.7316C26.6438 35.6844 26.6839 35.6438 26.7307 35.612C26.7774 35.5803 26.83 35.5581 26.8853 35.5467C26.9407 35.5353 26.9978 35.5349 27.0533 35.5456C27.0805 35.5502 27.1086 35.5443 27.1318 35.5294C27.1551 35.5145 27.172 35.4914 27.1791 35.4647C27.1833 35.4511 27.1845 35.4367 27.1826 35.4226C27.1806 35.4085 27.1755 35.395 27.1679 35.383C27.1602 35.371 27.1499 35.3608 27.138 35.3532C27.1259 35.3456 27.1123 35.3407 27.0982 35.3388Z" fill="#E2D188"/>
<path d="M35.9544 39.9445C36.0024 39.9445 36.0494 39.9303 36.0893 39.9036C36.1292 39.8769 36.1603 39.839 36.1787 39.7946C36.1971 39.7503 36.2019 39.7015 36.1925 39.6543C36.1831 39.6073 36.16 39.5641 36.1261 39.5301C36.0921 39.4961 36.0488 39.473 36.0018 39.4636C35.9547 39.4543 35.9059 39.4591 35.8615 39.4775C35.8171 39.4958 35.7792 39.5269 35.7526 39.5669C35.7259 39.6068 35.7117 39.6537 35.7117 39.7017C35.7117 39.7336 35.718 39.7652 35.7301 39.7946C35.7423 39.8241 35.7602 39.8509 35.7828 39.8734C35.8053 39.8959 35.8321 39.9138 35.8615 39.926C35.8909 39.9382 35.9225 39.9445 35.9544 39.9445Z" fill="#E2D188"/>
<path d="M53.4871 43.5832C53.5351 43.5832 53.5821 43.5689 53.622 43.5422C53.6619 43.5155 53.693 43.4777 53.7114 43.4333C53.7298 43.3889 53.7346 43.3401 53.7252 43.293C53.7159 43.246 53.6928 43.2027 53.6588 43.1688C53.6248 43.1348 53.5815 43.1117 53.5345 43.1023C53.4874 43.093 53.4386 43.0977 53.3943 43.1162C53.3498 43.1345 53.3119 43.1656 53.2853 43.2055C53.2586 43.2455 53.2444 43.2924 53.2444 43.3404C53.2444 43.3723 53.2507 43.4039 53.2628 43.4333C53.275 43.4628 53.2929 43.4896 53.3155 43.512C53.338 43.5346 53.3648 43.5525 53.3943 43.5647C53.4237 43.5769 53.4552 43.5832 53.4871 43.5832Z" fill="#E2D188"/>
<path d="M36.1703 6.80273H20.8857V19.4889H36.1703V6.80273Z" fill="#E2D188"/>
<path opacity="0.8" d="M36.1703 6.80273H20.8857V19.4889H36.1703V6.80273Z" fill="white"/>
<path d="M35.0824 7.94336H21.9736V18.3458H35.0824V7.94336Z" fill="white"/>
<path d="M36.5031 6.80273H36.1704V19.4889H36.5031V6.80273Z" fill="#B2B6BB"/>
<path d="M29.5224 17.2435V16.5332H26.8521V17.2435H29.5224Z" fill="#E2D188"/>
<path opacity="0.2" d="M28.1866 15.6945C28.8197 15.6945 29.4385 15.5067 29.9648 15.1551C30.4912 14.8034 30.9015 14.3035 31.1437 13.7186C31.386 13.1338 31.4494 12.4902 31.3259 11.8693C31.2023 11.2484 30.8975 10.6781 30.4499 10.2304C30.0022 9.78276 29.4319 9.47797 28.811 9.35443C28.1902 9.23099 27.5465 9.29437 26.9617 9.53659C26.3768 9.77889 25.8769 10.1891 25.5253 10.7155C25.1736 11.2418 24.9858 11.8607 24.9858 12.4937C24.9858 13.3426 25.3231 14.1567 25.9233 14.757C26.5236 15.3573 27.3377 15.6945 28.1866 15.6945Z" fill="#0E2245"/>
<path d="M50.8437 0.410156H42.3113V12.3051H50.8437V0.410156Z" fill="white"/>
<path d="M50.8391 12.311H51.0594V0.416016H50.8436L50.8391 12.311Z" fill="#B2B6BB"/>
<path d="M49.7736 1.55273H43.3811V11.182H49.7736V1.55273Z" fill="#DADDDF"/>
<path d="M92.5803 64.088C92.6819 64.3211 92.7548 64.5656 92.797 64.8163L93.4039 67.5027C93.4749 67.8794 93.4623 68.2669 93.3688 68.6382C93.3284 68.7938 93.2376 68.9322 93.1108 69.0311C92.9831 69.13 92.8276 69.184 92.6666 69.1849H91.9474C91.8206 69.1849 91.6965 69.1516 91.5868 69.0887C91.4772 69.0257 91.3863 68.9349 91.3234 68.8252L91.2713 68.7353C91.0537 68.3541 90.9305 67.9261 90.9116 67.4874L90.9206 64.97C90.9026 64.6683 90.9404 64.3659 91.033 64.0781L92.5803 64.088Z" fill="#E2D188"/>
<path d="M83.8177 57.625L82.9771 62.7993C82.8871 63.5015 82.8296 63.8134 82.8377 64.3331L81.1474 67.3837L79.2494 68.3287L78.7639 67.6616L80.8615 64.0121C81.035 63.7784 81.1474 63.3109 81.1474 62.8685L81.2949 58.1797L83.8177 57.625Z" fill="#FC9D9D"/>
<path opacity="0.15" d="M79.0589 68.1725L78.7649 67.678L80.8616 64.0304C81.0782 63.7184 81.1394 63.2068 81.1484 62.8859L81.2086 60.8926H83.2891L83.2711 61.1443L82.1185 61.2999C82.0565 61.3071 81.9989 61.335 81.9549 61.3791C81.9108 61.4231 81.8829 61.4808 81.8757 61.5426L81.651 63.2158C81.5512 63.6603 81.3848 64.0868 81.1565 64.4809L79.0589 68.1725Z" fill="#0E2245"/>
<path d="M77.1957 68.8743C77.1813 68.9085 77.1759 68.9454 77.1795 68.9831C77.1822 69.02 77.1948 69.055 77.2155 69.0856C77.2362 69.1171 77.2641 69.1423 77.2973 69.1593C77.3297 69.1773 77.3666 69.1863 77.4034 69.1863H79.4578C79.7509 69.1863 80.0396 69.1207 80.3039 68.9948C80.5691 68.8689 80.802 68.6855 80.9863 68.458L82.3044 66.8459C82.3268 66.8175 82.3565 66.7966 82.3916 66.7862C82.4257 66.7758 82.4626 66.7762 82.4968 66.7875C82.5309 66.7989 82.5606 66.8205 82.5822 66.8495C82.6038 66.8784 82.6154 66.9134 82.6163 66.9494L82.6856 69.1773H82.9364L83.2484 67.0105C83.3797 66.0979 83.2412 65.167 82.8501 64.332L80.6923 66.9494C80.4639 67.2263 80.1663 67.4385 79.8301 67.5653C79.4938 67.6911 79.1306 67.7271 78.7763 67.6686L77.7792 68.2746C77.5149 68.3915 77.3054 68.6064 77.1957 68.8743Z" fill="#E2D188"/>
<path d="M90.561 58.996L92.8232 58.9609L92.5804 63.3386C92.5435 64.0032 92.5903 64.6699 92.7189 65.3229L92.9706 66.6059C92.9877 66.7311 92.9787 66.8586 92.9427 66.98C92.9068 67.1005 92.8447 67.2129 92.762 67.3082C92.6793 67.4035 92.5759 67.4799 92.4608 67.5321C92.3466 67.5842 92.2217 67.6112 92.0949 67.6112H91.9474C91.7182 67.6103 91.4979 67.5204 91.3325 67.3603C91.1679 67.2003 91.0717 66.9827 91.0636 66.7534L91.0807 65.6744C91.0951 64.7652 91.0492 63.856 90.9422 62.9529L90.561 58.996Z" fill="#FC9D9D"/>
<path d="M92.424 27.7637L92.7621 29.1501C93.6459 32.8272 94.0019 36.6114 93.8194 40.3887L92.8304 60.861L90.5827 60.8781L88.3808 33.2041C88.3736 33.1072 88.3314 33.0164 88.2604 32.9498C88.1902 32.8832 88.0967 32.8456 87.9996 32.8444C87.9079 32.8422 87.818 32.8736 87.7479 32.9327C87.6777 32.9918 87.6319 33.0746 87.6184 33.1654L83.3846 60.8817H81.1045L81.6332 41.1017C81.7024 38.5537 81.8498 36.011 82.0755 33.4738L82.2553 31.4634L83.8332 27.7772L92.424 27.7637Z" fill="white"/>
<path opacity="0.15" d="M92.7184 60.875L92.7094 61.0998L91.7043 61.2796C91.6305 61.2946 91.5649 61.3347 91.5172 61.3931C91.4696 61.4515 91.4444 61.5245 91.4444 61.5997L91.5136 66.3586C91.5226 66.7488 91.4876 67.2684 91.9039 67.5894C91.6827 67.5804 91.4723 67.4869 91.3168 67.3296C91.1612 67.1722 91.0704 66.9609 91.0632 66.7398L91.0803 65.6609C91.0893 65.1322 91.0803 64.6035 91.0461 64.0749V64.0659C91.0201 63.6936 90.7512 60.8849 90.7512 60.8849L92.7184 60.875Z" fill="#0E2245"/>
<path opacity="0.2" d="M81.6419 41.1026C81.7112 38.5545 81.8586 36.0119 82.0843 33.4747L82.2641 31.4643L83.842 27.778H83.8672L85.9738 27.769L92.4391 27.752V27.7609L85.9738 27.778C85.9738 28.6447 86.1536 29.5286 86.1383 30.4214C86.1212 31.5003 85.384 32.8489 83.4689 32.8489L82.0232 60.8826H81.1133L81.6419 41.1026Z" fill="#0E2245"/>
<path d="M90.5689 13.4719L89.8415 13.3164L85.6805 13.3506L85.1348 13.507C85.6032 15.4221 85.9152 20.0245 86.0186 28.5704L89.7372 28.5623C89.7201 26.4126 89.7633 17.8406 90.5689 13.4719Z" fill="white"/>
<path opacity="0.2" d="M88.9662 28.5618H89.7377C89.7206 26.4643 89.6684 18.2385 90.4138 13.7754C89.0526 17.9526 88.6021 22.9452 88.9662 28.5618Z" fill="#0E2245"/>
<path opacity="0.2" d="M88.9751 28.5535C89.0183 29.3627 89.0264 29.3771 89.0965 30.2007C89.1513 30.8309 89.4408 31.4177 89.9066 31.8457C90.3723 32.2739 90.981 32.5122 91.614 32.514L93.7286 32.6183C93.5002 31.3975 93.2026 30.1907 92.8358 29.004C92.6281 28.6444 92.4636 28.2937 92.4024 27.9817C92.3899 27.9125 88.9661 28.5625 88.9751 28.5535Z" fill="#0E2245"/>
<path d="M83.7397 29.3417H92.2425V28.5703H83.7397V29.3417Z" fill="#0E2245"/>
<path d="M85.9584 7.5957C84.5801 7.65684 83.5138 8.95693 83.583 10.5079C83.6523 12.0588 84.8229 13.2645 86.2012 13.2051C87.0679 13.162 86.7901 12.3213 86.7209 10.7695C86.6516 9.21766 86.3306 8.92186 85.9584 7.5957Z" fill="#21252B"/>
<path d="M89.9264 13.257C91.3434 13.1329 92.3935 11.9146 92.2721 10.5363C92.1507 9.15801 90.9055 8.14204 89.4849 8.26612C88.0644 8.39019 87.0178 9.60846 87.1392 10.9868C87.2606 12.3651 88.5103 13.381 89.9264 13.257Z" fill="#21252B"/>
<path d="M89.6158 13.2628C89.5475 13.2451 89.4855 13.2064 89.4396 13.1521C89.3937 13.0978 89.3659 13.0306 89.3605 12.9598L89.0566 9.53697L86.9887 9.02539L86.9806 9.13778L86.6767 11.426L86.5868 12.0553L86.4735 12.9131C86.4645 12.978 86.4375 13.0389 86.3944 13.0883C86.3512 13.1377 86.2946 13.1733 86.2316 13.1909L85.4944 13.3896L85.703 13.5694C86.2865 14.0697 87.0282 14.3461 87.797 14.3493C88.5657 14.3524 89.3101 14.082 89.8972 13.5865L90.149 13.3788L89.6158 13.2628Z" fill="#FC9D9D"/>
<path d="M86.1237 10.2552L85.854 6.62373L89.8666 6.59766L89.65 10.2372C89.6257 10.6869 89.4306 11.1103 89.1042 11.4208C88.7779 11.7314 88.3454 11.9055 87.8949 11.9079C87.4445 11.9102 87.0102 11.7404 86.6812 11.4331C86.3512 11.126 86.1516 10.7046 86.1228 10.2552H86.1237Z" fill="#FC9D9D"/>
<path d="M86.1237 10.2552L85.854 6.62373L89.8666 6.59766L89.65 10.2372C89.6257 10.6869 89.4306 11.1103 89.1042 11.4208C88.7779 11.7314 88.3454 11.9055 87.8949 11.9079C87.4445 11.9102 87.0102 11.7404 86.6812 11.4331C86.3512 11.126 86.1516 10.7046 86.1228 10.2552H86.1237Z" fill="#FC9D9D"/>
<path d="M88.8702 9.20169C88.8702 9.16043 88.8585 9.11997 88.8352 9.08553C88.8127 9.05109 88.7803 9.02421 88.7416 9.0083C88.7039 8.99239 88.6616 8.98816 88.6212 8.99607C88.5807 9.00407 88.5438 9.02385 88.5142 9.05298C88.4854 9.08211 88.4656 9.11925 88.4575 9.1598C88.4494 9.20026 88.453 9.24224 88.4692 9.28037C88.4845 9.31858 88.5115 9.35121 88.5456 9.37414C88.5798 9.39716 88.6203 9.40938 88.6616 9.40938C88.7165 9.40938 88.7695 9.38753 88.8091 9.3486C88.8477 9.30967 88.8702 9.25681 88.8702 9.20169Z" fill="#21252B"/>
<path d="M88.6196 9.15674C88.6196 9.14814 88.6169 9.13972 88.6124 9.13256C88.6079 9.12541 88.6006 9.11989 88.5925 9.11654C88.5852 9.11328 88.5762 9.11247 88.568 9.1141C88.559 9.11582 88.5517 9.11989 88.5454 9.12604C88.5391 9.13211 88.5354 9.1398 88.5336 9.14822C88.5318 9.15664 88.5327 9.16543 88.5363 9.17339C88.539 9.18127 88.5445 9.18806 88.5517 9.19286C88.559 9.19765 88.5671 9.20019 88.5762 9.20019C88.5879 9.20019 88.5988 9.19557 88.6069 9.18742C88.6151 9.17928 88.6196 9.16823 88.6196 9.15674Z" fill="white"/>
<path d="M87.2496 9.20167C87.2496 9.16031 87.2379 9.11985 87.2146 9.08542C87.1921 9.05098 87.1597 9.0241 87.1211 9.00819C87.0833 8.99236 87.041 8.98814 87.0006 8.99614C86.9601 9.00414 86.9233 9.02401 86.8936 9.05323C86.8648 9.08245 86.8441 9.11976 86.8361 9.16031C86.8289 9.20086 86.8325 9.24285 86.8486 9.28097C86.8648 9.31918 86.8918 9.35173 86.926 9.37456C86.9601 9.3974 87.0006 9.40954 87.0419 9.40936C87.0968 9.40909 87.1498 9.38715 87.1885 9.34822C87.2271 9.30938 87.2496 9.25669 87.2496 9.20167Z" fill="#21252B"/>
<path d="M86.9901 9.14879C86.9901 9.13992 86.9874 9.13123 86.9828 9.1238C86.9783 9.11638 86.9711 9.1105 86.9629 9.10706C86.9548 9.10362 86.9457 9.10262 86.9376 9.10434C86.9285 9.10597 86.9204 9.11023 86.914 9.11647C86.9077 9.12272 86.9041 9.13078 86.9023 9.13947C86.9005 9.14816 86.9014 9.15712 86.905 9.16527C86.9086 9.17342 86.914 9.1803 86.9213 9.18509C86.9294 9.18989 86.9376 9.19243 86.9466 9.19225C86.9521 9.19225 86.9584 9.19107 86.9629 9.18889C86.9684 9.18672 86.9738 9.18355 86.9774 9.17948C86.981 9.1755 86.9846 9.1707 86.9865 9.16536C86.9892 9.16011 86.9901 9.15449 86.9901 9.14879Z" fill="white"/>
<path opacity="0.09" d="M87.5703 9.89473C87.5703 9.8282 87.5964 9.76428 87.644 9.71707C87.6908 9.66987 87.7546 9.64326 87.8212 9.64299C87.8302 9.642 87.8382 9.64281 87.8463 9.64533C87.8553 9.64793 87.8625 9.65225 87.8688 9.65791C87.876 9.66367 87.8805 9.67077 87.8841 9.67859C87.8877 9.6865 87.8895 9.69504 87.8895 9.70368C87.8895 9.7124 87.8877 9.72094 87.8841 9.72885C87.8805 9.73667 87.876 9.74378 87.8688 9.74953C87.8625 9.75519 87.8553 9.75951 87.8463 9.76212C87.8382 9.76464 87.8302 9.76544 87.8212 9.76437C87.8041 9.76419 87.787 9.76733 87.7708 9.7738C87.7555 9.78037 87.7411 9.7899 87.7286 9.80213C87.7169 9.81426 87.707 9.82874 87.7007 9.84466C87.6944 9.86057 87.6917 9.87765 87.6917 9.89473C87.6917 9.9119 87.6944 9.9289 87.7007 9.94472C87.707 9.96064 87.7169 9.97502 87.7286 9.98716C87.7411 9.99921 87.7555 10.0087 87.7708 10.0151C87.787 10.0215 87.8041 10.0247 87.8212 10.0242H88.001C88.0154 10.0261 88.0298 10.0332 88.0396 10.0444C88.0495 10.0556 88.0549 10.07 88.0549 10.0849C88.0549 10.0999 88.0495 10.1143 88.0396 10.1254C88.0298 10.1367 88.0154 10.1438 88.001 10.1456H87.8212C87.7546 10.1456 87.6908 10.1192 87.644 10.0721C87.5964 10.0251 87.5703 9.96127 87.5703 9.89473Z" fill="#0E2245"/>
<path d="M91.1327 8.80067L90.8117 8.57589C90.6472 8.8699 89.8407 9.03443 89.8407 9.03443L89.8236 8.61006C89.8236 8.61006 87.8214 8.96969 87.0364 7.31896C86.9915 7.54877 86.8719 7.75745 86.6966 7.91254C86.5213 8.06764 86.2992 8.16042 86.0654 8.1767C86.0654 8.1767 86.1436 9.06949 85.8317 9.27718C85.6842 8.88788 85.4154 8.62714 85.2688 8.06431L84.8867 7.90787C84.9757 7.85995 85.0486 7.7864 85.0944 7.69676C85.1412 7.60712 85.1591 7.50553 85.1475 7.40528C85.0692 6.64285 85.2688 5.83636 86.1436 5.1081C87.5741 3.9213 90.4692 4.37174 90.6598 6.33895C90.6733 6.44765 90.7182 6.54997 90.7893 6.63386C90.9034 6.75694 90.9925 6.90151 91.0509 7.0593C91.1084 7.21701 91.1345 7.38478 91.1273 7.55273C91.1228 7.74423 91.0913 7.93412 91.032 8.11646C91.032 8.11646 90.9196 8.52374 91.2316 8.74043L91.1327 8.80067Z" fill="#21252B"/>
<path d="M86.1404 9.70887L86.1755 8.96353C86.1665 8.27932 85.3259 8.26133 85.3609 8.94644C85.396 9.63155 86.0712 9.69179 86.0712 9.69179L86.1404 9.70887Z" fill="#FC9D9D"/>
<path opacity="0.3" d="M85.9667 9.01704C85.9676 9.03179 85.9631 9.04635 85.9532 9.05768C85.9433 9.06901 85.9299 9.07638 85.9155 9.07818C85.902 9.07728 85.8894 9.07153 85.8795 9.06191C85.8696 9.05238 85.8642 9.03952 85.8633 9.02603C85.8624 8.96516 85.8543 8.90465 85.8372 8.84621C85.8229 8.80441 85.795 8.76826 85.759 8.74282C85.724 8.72484 85.6898 8.73383 85.6376 8.7599C85.6331 8.76422 85.6269 8.76665 85.6206 8.76665C85.6134 8.76665 85.6071 8.76422 85.6026 8.7599C85.5945 8.7599 85.5855 8.75091 85.5774 8.73383C85.572 8.72124 85.572 8.70712 85.5765 8.69436C85.581 8.6815 85.5909 8.67089 85.6026 8.6646C85.6322 8.64716 85.6664 8.63664 85.7006 8.63367C85.7347 8.6307 85.7698 8.63547 85.8022 8.64751C85.8345 8.66433 85.8624 8.6877 85.8849 8.71603C85.9074 8.74435 85.9236 8.77708 85.9325 8.81205C85.9559 8.87777 85.9676 8.94718 85.9667 9.01704Z" fill="#0E2245"/>
<path d="M85.9991 9.42787C86.0036 9.39595 85.9955 9.36359 85.9767 9.33741C85.9587 9.31123 85.9301 9.29321 85.8987 9.28711C85.8413 9.28711 85.7938 9.34718 85.792 9.42339C85.7875 9.45522 85.7956 9.48758 85.8144 9.51377C85.8332 9.54004 85.861 9.55806 85.8924 9.56415C85.9498 9.56505 85.9973 9.50408 85.9991 9.42787Z" fill="#E2D188"/>
<path opacity="0.15" d="M85.9662 9.53559C85.9581 9.54393 85.9492 9.55047 85.9393 9.55478C85.9285 9.55917 85.9169 9.56114 85.9061 9.5607C85.8452 9.5607 85.8021 9.50062 85.8021 9.42262C85.8012 9.402 85.8048 9.38147 85.812 9.36219C85.8192 9.34291 85.8308 9.32534 85.8452 9.31055C85.8353 9.33556 85.8299 9.36183 85.8281 9.38855C85.8245 9.40505 85.8254 9.42199 85.829 9.4384C85.8326 9.45481 85.8389 9.47032 85.8488 9.48404C85.8586 9.49775 85.8712 9.50941 85.8855 9.51828C85.8999 9.52707 85.9151 9.53299 85.9321 9.53559H85.9662Z" fill="#0E2245"/>
<path d="M89.6422 9.70887L89.6072 8.96353C89.6162 8.27932 90.4568 8.26133 90.4218 8.94644C90.3867 9.63155 89.7115 9.69179 89.7115 9.69179L89.6422 9.70887Z" fill="#FC9D9D"/>
<path opacity="0.3" d="M89.8153 9.01696C89.8144 9.0318 89.8189 9.04627 89.8288 9.05769C89.8387 9.06902 89.8522 9.0763 89.8666 9.0781C89.8801 9.07729 89.8927 9.07154 89.9026 9.06192C89.9124 9.0523 89.9178 9.03953 89.9187 9.02595C89.9268 8.96535 89.9385 8.90529 89.9538 8.84613C89.9574 8.82402 89.9673 8.80307 89.9808 8.78518C89.9943 8.76719 90.0113 8.75263 90.032 8.74274C90.0581 8.72475 90.1012 8.73375 90.1534 8.75982C90.1579 8.76414 90.1642 8.76656 90.1705 8.76656C90.1768 8.76656 90.1831 8.76414 90.1876 8.75982C90.1966 8.75982 90.2046 8.75083 90.2136 8.73375C90.219 8.72107 90.219 8.70686 90.2145 8.69401C90.2091 8.68115 90.2001 8.67054 90.1876 8.66452C90.1561 8.64716 90.121 8.63665 90.0851 8.63368C90.05 8.63071 90.014 8.63539 89.9799 8.64743C89.9466 8.66389 89.9169 8.68699 89.8936 8.71532C89.8693 8.74364 89.8522 8.77654 89.8414 8.81197C89.8117 8.87598 89.8028 8.94755 89.8153 9.01696Z" fill="#0E2245"/>
<path d="M89.887 9.55718C89.9166 9.56507 89.9471 9.56355 89.9758 9.55288C90.0036 9.54212 90.0287 9.52275 90.0448 9.49756C90.0619 9.47228 90.0699 9.44233 90.069 9.41211C90.0681 9.38181 90.0574 9.35267 90.0386 9.32882C90.0197 9.30497 89.9937 9.28758 89.965 9.27915C89.9354 9.27072 89.905 9.27162 89.8763 9.28184C89.8476 9.29206 89.8234 9.31089 89.8054 9.33591C89.7884 9.36083 89.7794 9.3906 89.7803 9.4209C89.7821 9.49711 89.8296 9.55808 89.887 9.55718Z" fill="#E2D188"/>
<path opacity="0.15" d="M89.8157 9.53559C89.8237 9.54393 89.8327 9.55047 89.8426 9.55478C89.8533 9.55917 89.865 9.56114 89.8757 9.5607C89.9367 9.5607 89.9797 9.50062 89.9797 9.42262C89.9806 9.402 89.9771 9.38147 89.9699 9.36219C89.9627 9.34291 89.9511 9.32534 89.9367 9.31055C89.9466 9.33556 89.9519 9.36183 89.9537 9.38855C89.9564 9.40505 89.9564 9.42199 89.9528 9.4384C89.9493 9.45481 89.943 9.47032 89.9331 9.48404C89.9233 9.49775 89.9107 9.50941 89.8964 9.51828C89.882 9.52707 89.8668 9.53299 89.8497 9.53559H89.8157Z" fill="#0E2245"/>
<path d="M88.3331 10.4805C88.3682 10.4805 88.3763 10.5065 88.3682 10.5326C88.3196 10.6348 88.2432 10.721 88.1479 10.7814C88.0526 10.8418 87.942 10.8739 87.8287 10.8739C87.7154 10.8739 87.6048 10.8418 87.5095 10.7814C87.4142 10.721 87.3378 10.6348 87.2893 10.5326C87.2875 10.5269 87.2866 10.5207 87.2875 10.5145C87.2875 10.5084 87.2902 10.5026 87.2938 10.4975C87.2965 10.4924 87.3019 10.4882 87.3073 10.4852C87.3126 10.4823 87.318 10.4806 87.3243 10.4805H88.3331Z" fill="white"/>
<path d="M86.062 9.08759C86.0494 9.21715 86.0674 9.34779 86.1133 9.46934C86.16 9.59081 86.2337 9.69987 86.3299 9.78789C86.4261 9.87582 86.5412 9.94038 86.6662 9.97625C86.7912 10.0121 86.9224 10.0185 87.051 9.99477C87.1787 9.97113 87.2992 9.91799 87.4035 9.83968C87.5068 9.76128 87.5914 9.65995 87.6498 9.54343C87.7073 9.42691 87.7379 9.29861 87.7379 9.16842C87.737 9.03832 87.7073 8.91002 87.6489 8.79359C87.7847 8.75007 87.9303 8.75295 88.0643 8.80168C88.0274 8.88745 88.0041 8.97844 87.9951 9.07141C87.9807 9.23684 88.0148 9.40299 88.0949 9.54874C88.1749 9.69439 88.2963 9.81325 88.4428 9.89003C88.5903 9.9669 88.7575 9.99828 88.922 9.98039C89.0875 9.96241 89.2439 9.89587 89.3707 9.78915C89.4983 9.68252 89.5909 9.54046 89.6377 9.38096C89.6844 9.22155 89.6827 9.05181 89.6323 8.89339C89.5829 8.73497 89.4866 8.5948 89.3572 8.49077C89.2277 8.38675 89.0704 8.32354 88.9049 8.30898C88.7503 8.29315 88.5939 8.32129 88.4545 8.39016C88.3151 8.45904 88.1983 8.56585 88.1164 8.69828C87.9492 8.6358 87.7658 8.63292 87.5968 8.69019C87.5266 8.58563 87.4349 8.49779 87.327 8.43332C87.2191 8.36877 87.0978 8.32903 86.9728 8.31707C86.8622 8.30646 86.7507 8.31815 86.6446 8.35132C86.5385 8.38459 86.4396 8.43863 86.3551 8.51046C86.2706 8.58221 86.2005 8.67032 86.1501 8.7694C86.0998 8.86857 86.0701 8.97673 86.062 9.08759ZM88.0904 9.07051C88.1029 8.92557 88.1587 8.78774 88.2495 8.67437C88.3412 8.56108 88.4635 8.47729 88.6028 8.43377C88.7413 8.39017 88.8905 8.38882 89.0299 8.42972C89.1693 8.47063 89.2933 8.552 89.3869 8.66358C89.4804 8.77516 89.5388 8.91191 89.5541 9.05657C89.5694 9.20123 89.5424 9.34725 89.475 9.47618C89.4075 9.60511 89.3032 9.71111 89.1756 9.78088C89.0479 9.85065 88.9022 9.88095 88.7575 9.868C88.5633 9.8502 88.3844 9.75633 88.2594 9.6069C88.1344 9.45747 88.0733 9.26462 88.0904 9.07051ZM86.1573 9.0795C86.1699 8.93465 86.2256 8.79682 86.3165 8.68345C86.4082 8.57016 86.5304 8.48637 86.6698 8.44276C86.8083 8.39915 86.9566 8.39763 87.096 8.43854C87.2362 8.47935 87.3603 8.56063 87.4538 8.67212C87.5473 8.78361 87.6049 8.92027 87.621 9.06493C87.6363 9.20951 87.6093 9.35552 87.5419 9.48445C87.4745 9.61338 87.3711 9.71956 87.2434 9.78942C87.1157 9.85928 86.9701 9.88976 86.8253 9.87699C86.6311 9.85919 86.4522 9.76532 86.3272 9.6159C86.2014 9.46656 86.1411 9.2737 86.1573 9.0795Z" fill="white"/>
<path opacity="0.15" d="M88.6711 11.793C88.6684 11.7843 88.6631 11.7763 88.6568 11.7697C88.6505 11.763 88.6433 11.7578 88.6343 11.7545C88.6262 11.7511 88.6163 11.7497 88.6073 11.7503C88.5983 11.7509 88.5893 11.7535 88.5812 11.758C88.3789 11.8451 88.1596 11.8895 87.9393 11.8883H87.8871C87.6282 11.8818 87.372 11.826 87.1337 11.7238C86.9692 11.6457 86.8181 11.5432 86.6841 11.4199L86.5942 12.0493C86.792 12.1043 86.9961 12.1277 87.2011 12.1185C87.3702 12.1124 87.5374 12.0774 87.6947 12.0151C87.7729 12.0255 87.8512 12.0311 87.9294 12.0322C88.1676 12.0338 88.4032 11.9867 88.6226 11.8937C88.6379 11.8821 88.6514 11.867 88.6594 11.8494C88.6675 11.8318 88.672 11.8125 88.6711 11.793Z" fill="#0E2245"/>
<path d="M93.4468 14.0261L90.4798 13.4453C89.4009 17.9614 89.0584 23.7768 89.587 29.9832C89.6464 30.6549 89.9548 31.2801 90.452 31.7357C90.9492 32.1912 91.5992 32.4438 92.2735 32.444H93.6087C93.6329 32.4437 93.6572 32.4381 93.6797 32.4276C93.7022 32.4169 93.7211 32.4017 93.7372 32.3828C93.7525 32.3638 93.7642 32.3418 93.7705 32.318C93.7768 32.2942 93.7777 32.2694 93.7732 32.2453C93.4441 30.6413 93.1438 29.1156 92.9155 27.9369C92.6314 26.4431 92.5756 24.9149 92.7509 23.4045L93.3398 18.3948L95.1857 16.3494C95.1371 15.2741 94.5302 14.295 93.4468 14.0261Z" fill="#E2D188"/>
<path d="M83.3371 14.0111C82.2708 14.3491 81.7421 15.2851 81.7511 16.4035L82.2006 17.1228L82.6691 22.0112C82.848 23.886 82.8273 25.7744 82.6079 27.6449L82.0882 32.0558C82.0829 32.1068 82.0874 32.1583 82.1035 32.2071C82.1188 32.256 82.144 32.301 82.1782 32.3395C82.2114 32.3779 82.2537 32.4088 82.2995 32.4303C82.3463 32.4517 82.3966 32.4632 82.4479 32.464H83.9125C84.5095 32.4603 85.0813 32.223 85.5057 31.803C85.9301 31.3828 86.1728 30.8134 86.1827 30.2163C86.3041 22.3465 85.6801 15.2302 85.2468 13.4707L83.3371 14.0111Z" fill="#E2D188"/>
<path d="M90.8729 22.5987L90.8639 24.4796L87.5373 23.96L86.5672 24.0499C86.0547 24.1015 85.5368 24.0604 85.0387 23.9285C84.9992 23.9157 84.965 23.8921 84.9389 23.8602C84.9129 23.8283 84.8958 23.7897 84.8913 23.7487C84.8904 23.7193 84.8958 23.69 84.9066 23.6627C84.9183 23.6355 84.9344 23.6108 84.956 23.5904C84.9776 23.57 85.0028 23.5543 85.0306 23.5442C85.0576 23.5341 85.0873 23.53 85.117 23.532L85.2069 23.5401L85.0855 23.532C85.027 23.5246 84.9722 23.4973 84.9317 23.4545C84.8904 23.4118 84.8652 23.3563 84.8607 23.2973C84.858 23.2632 84.8616 23.2287 84.8724 23.1961C84.8832 23.1635 84.9003 23.1333 84.9228 23.1075C84.9452 23.0816 84.9731 23.0606 85.0037 23.0457C85.0342 23.0307 85.0684 23.0221 85.1026 23.0204C85.0315 23.0228 84.9623 22.9981 84.9093 22.9513C84.8562 22.9045 84.8229 22.8392 84.8167 22.7687C84.8095 22.7023 84.8274 22.6356 84.8679 22.5824C84.9084 22.5291 84.9677 22.4934 85.0333 22.4827L85.1232 22.4657C85.1232 22.4657 85.0801 22.4747 85.0189 22.4827C84.9911 22.489 84.9623 22.4892 84.9335 22.4833C84.9057 22.4774 84.8796 22.4655 84.8562 22.4484C84.8337 22.4313 84.814 22.4096 84.8005 22.3845C84.787 22.3593 84.778 22.3315 84.7762 22.3029V22.2939C84.7717 22.2449 84.7861 22.1958 84.8167 22.1571C84.8472 22.1184 84.8922 22.093 84.9407 22.0863L86.4494 21.8435V21.7482C86.4458 21.4751 86.4692 21.2023 86.5186 20.9336L86.5267 20.9075C86.5474 20.8068 86.5996 20.7152 86.676 20.6465C86.7524 20.5778 86.8495 20.5358 86.952 20.5263H86.9862C86.9925 20.525 86.9988 20.5251 87.005 20.5267C87.0113 20.5282 87.0176 20.5312 87.023 20.5353C87.0275 20.5395 87.032 20.5447 87.0347 20.5506C87.0374 20.5565 87.0383 20.563 87.0383 20.5695L87.0644 21.1323C87.0671 21.2423 87.0985 21.3497 87.1543 21.4443L87.6308 22.3029L90.8729 22.5987Z" fill="#FC9D9D"/>
<path d="M96.5849 24.2278C96.6128 24.3912 96.6002 24.5589 96.5498 24.7165C96.4986 24.8742 96.4096 25.0171 96.2909 25.1331C96.1731 25.2489 96.0284 25.3344 95.8692 25.3823C95.711 25.4301 95.5428 25.4387 95.3801 25.4075L90.0143 24.3672L89.9001 22.4863L93.2807 22.7201L92.8231 19.6146L93.0398 19.0338C92.9966 17.6555 93.43 16.7114 94.1403 15.5273L95.1293 15.887L96.5849 24.2278Z" fill="#E2D188"/>
<path opacity="0.15" d="M90.0063 24.1133L90.0234 24.365L95.3847 25.4053C95.5322 25.4335 95.6832 25.4289 95.8289 25.392C95.9745 25.355 96.1094 25.2865 96.2254 25.1914C96.3413 25.0962 96.4348 24.9767 96.4996 24.8414C96.5634 24.706 96.5976 24.5581 96.5985 24.4082C96.4987 24.6083 96.3368 24.7702 96.1363 24.8688C95.9358 24.9674 95.7084 24.9974 95.489 24.9539L90.0063 24.1133Z" fill="#0E2245"/>
<path opacity="0.15" d="M93.2829 22.7274L93.6291 22.7615C93.6533 22.7641 93.6776 22.7595 93.6992 22.7484C93.7208 22.7374 93.7388 22.7202 93.7504 22.6991C93.7621 22.6781 93.7684 22.654 93.7666 22.6298C93.7648 22.6056 93.7567 22.5823 93.7424 22.5628L93.1436 21.7734L93.2829 22.7274Z" fill="#0E2245"/>
<path opacity="0.15" d="M84.7617 22.2672V22.2753C84.7644 22.3038 84.7725 22.3316 84.786 22.3566C84.8004 22.3815 84.8193 22.4033 84.8426 22.4204C84.8651 22.4374 84.8912 22.4493 84.92 22.4553C84.9478 22.4613 84.9766 22.4612 85.0045 22.4551H85.0225C84.9577 22.4679 84.8993 22.5041 84.8597 22.5568C84.8202 22.6096 84.8004 22.6751 84.8058 22.741C84.8121 22.8117 84.8453 22.8772 84.8984 22.9242C84.9514 22.971 85.0207 22.9955 85.0917 22.9928C85.0575 22.9949 85.0243 23.0038 84.9937 23.0189C84.9631 23.034 84.9352 23.0551 84.9128 23.0808C84.8903 23.1065 84.8732 23.1364 84.8624 23.1689C84.8507 23.2013 84.8462 23.2355 84.8489 23.2697C84.8525 23.3291 84.8777 23.3852 84.9191 23.428C84.9604 23.4709 85.0153 23.4976 85.0746 23.5034H85.1088C85.0791 23.4994 85.0485 23.5021 85.0198 23.5114C84.991 23.5207 84.9649 23.5364 84.9433 23.5572C84.9218 23.5781 84.9047 23.6036 84.8948 23.6317C84.884 23.66 84.8804 23.6902 84.8831 23.7201C84.884 23.7624 84.8984 23.8032 84.9254 23.8359C84.9523 23.8686 84.9892 23.8911 85.0305 23.8999C85.1438 23.926 85.2562 23.9521 85.3686 23.9692L85.2562 23.7525C85.2391 23.7237 85.2302 23.6907 85.2302 23.6572C85.2302 23.6236 85.2391 23.5907 85.2562 23.5619L85.2994 23.4926C85.3174 23.4621 85.3263 23.427 85.3246 23.3917C85.3228 23.3563 85.312 23.3221 85.2913 23.293L85.2733 23.258C85.2517 23.2276 85.24 23.1914 85.24 23.1541C85.24 23.1169 85.2517 23.0807 85.2733 23.0503L85.2994 23.0161C85.321 22.9856 85.3326 22.9492 85.3326 22.9118C85.3326 22.8744 85.321 22.838 85.2994 22.8075L85.2652 22.7554C85.2472 22.7307 85.2364 22.7018 85.2328 22.6715C85.2301 22.6412 85.2346 22.6106 85.2472 22.5828L85.2913 22.4866C85.303 22.4586 85.3075 22.4281 85.3048 22.3979C85.3012 22.3678 85.2904 22.3388 85.2733 22.3139C85.2553 22.2858 85.2445 22.2533 85.2436 22.2197C85.2418 22.1863 85.249 22.1529 85.2652 22.1233L85.3084 22.0451C85.3165 22.028 85.3255 22.019 85.3255 22.002L84.9442 22.0622C84.8957 22.0721 84.8516 22.0974 84.8193 22.1344C84.786 22.1713 84.7662 22.2179 84.7617 22.2672Z" fill="#0E2245"/>
<path opacity="0.15" d="M90.0144 24.3386L89.9974 24.1129L88.3071 23.9394C88.0706 23.9134 87.8323 23.9134 87.5968 23.9394L87.5356 23.9484" fill="#0E2245"/>
<path opacity="0.2" d="M89.4166 22.3912C89.4157 22.4083 89.422 22.4251 89.4337 22.4379C89.4445 22.4508 89.4606 22.4589 89.4777 22.4605L92.8403 22.7032L92.8574 22.5729L89.4858 22.3301C89.4687 22.3296 89.4517 22.3356 89.4391 22.3469C89.4265 22.3583 89.4184 22.3742 89.4166 22.3912Z" fill="#0E2245"/>
<path opacity="0.2" d="M90.0403 34.7937L91.3889 60.8817L90.5914 60.8907L88.3815 33.2077C88.3752 33.1112 88.332 33.0208 88.2601 32.956C88.2259 32.9217 88.1855 32.8948 88.1405 32.8769C88.0965 32.859 88.0479 32.8504 88.0002 32.8517C88.5244 32.8521 89.0279 33.054 89.4082 33.4154C89.7876 33.7768 90.0142 34.2702 90.0403 34.7937Z" fill="#0E2245"/>
<path opacity="0.2" d="M82.4478 32.4609H83.5752L84.0778 27.8324C84.1498 25.8733 84.0401 23.9116 83.7479 21.973L83.4709 20.1353C83.4664 20.0986 83.4512 20.0642 83.4269 20.0366C83.4017 20.0091 83.3693 19.9898 83.3334 19.9813C83.2974 19.9729 83.2597 19.9757 83.2255 19.9894C83.1913 20.0031 83.1617 20.0271 83.1419 20.0579L82.5665 21.3409L82.6645 21.9991C82.8443 23.8739 82.8236 25.7623 82.6042 27.6328L82.0845 32.0446C82.0791 32.0961 82.0845 32.1482 82.1007 32.1976C82.116 32.2469 82.1421 32.2925 82.1763 32.3315C82.2104 32.3705 82.2518 32.4021 82.2985 32.4244C82.3453 32.4467 82.3956 32.4591 82.4478 32.4609Z" fill="#0E2245"/>
<path d="M75.5749 18.7309L74.8467 18.5053C74.4673 18.2995 74.033 18.215 73.6041 18.2632C73.1744 18.3114 72.7707 18.49 72.4461 18.775C72.3643 18.8454 72.3032 18.9363 72.2681 19.0383C72.2321 19.1404 72.2249 19.25 72.2465 19.3558L72.5414 20.2396C72.5549 20.2749 72.5783 20.3053 72.6097 20.3269C72.6403 20.3485 72.6772 20.3604 72.7149 20.361C72.7401 20.3603 72.7653 20.3541 72.7887 20.3429C72.8111 20.3318 72.8318 20.3158 72.848 20.2962C72.8642 20.2765 72.8768 20.2536 72.8831 20.2289C72.8903 20.2043 72.8912 20.1785 72.8876 20.1533L72.741 19.1472L72.9397 20.4959C72.946 20.5486 72.9721 20.5973 73.0116 20.6324C73.0512 20.6676 73.1033 20.6868 73.1564 20.6865C73.187 20.6873 73.2175 20.6817 73.2454 20.6701C73.2742 20.6585 73.2993 20.6412 73.3209 20.6192C73.3416 20.5973 73.3587 20.5711 73.3686 20.5424C73.3794 20.5138 73.3839 20.4832 73.3821 20.4527L73.3209 19.1355C73.3209 19.1355 73.3731 20.0454 73.3911 20.4788C73.3947 20.533 73.4189 20.5839 73.4576 20.6215C73.4971 20.659 73.5493 20.6804 73.6032 20.6815C73.6581 20.6827 73.7111 20.6634 73.7516 20.6275C73.792 20.5916 73.8181 20.5418 73.8244 20.4878L73.9143 19.1616C73.9179 19.1525 73.9242 19.1446 73.9314 19.1385C73.9386 19.1324 73.9476 19.1283 73.9575 19.1265C73.9674 19.1255 73.9782 19.1286 73.9863 19.1352C73.9943 19.1417 73.9997 19.1513 74.0006 19.1616L74.0905 20.4878C74.0932 20.5412 74.1157 20.5916 74.1544 20.6286C74.193 20.6655 74.2443 20.6863 74.2982 20.6865C74.3504 20.6852 74.3998 20.6652 74.4385 20.6303C74.4763 20.5952 74.5005 20.5475 74.5068 20.4959L74.6453 19.1095H75.3034C75.3906 19.1095 75.4751 19.0747 75.5363 19.0128C75.5983 18.9509 75.6334 18.867 75.6334 18.7795C75.6271 18.757 75.6046 18.722 75.5749 18.7309Z" fill="#FC9D9D"/>
<path opacity="0.04" d="M73.2666 19.1367L73.3071 20.3586H73.4284L73.388 19.1376L73.2666 19.1367Z" fill="#0E2245"/>
<path opacity="0.04" d="M72.6897 19.2114L72.7715 20.2004L72.8929 20.1896L72.8111 19.2051L72.6897 19.2114Z" fill="#0E2245"/>
<path opacity="0.2" d="M74.665 18.8595C74.6659 18.837 74.674 18.8152 74.6875 18.7969C74.7001 18.7785 74.7189 18.7644 74.7396 18.7562C74.7603 18.7479 74.7837 18.7459 74.8061 18.7504C74.8277 18.7548 74.8484 18.7656 74.8646 18.7813L75.2107 19.1113H74.6389L74.665 18.8595Z" fill="#0E2245"/>
<path opacity="0.15" d="M92.8572 22.5738L92.2422 22.5306L92.6755 19.4279C92.6773 19.4168 92.6836 19.4068 92.6926 19.3997C92.7007 19.3925 92.7124 19.3887 92.7232 19.3887C92.7349 19.3887 92.7457 19.3925 92.7538 19.3997C92.7628 19.4068 92.7691 19.4168 92.7709 19.4279L93.0406 21.0049L92.8572 22.5738Z" fill="#0E2245"/>
</svg>
