<svg width="52" height="23" viewBox="0 0 52 23" fill="none" xmlns="http://www.w3.org/2000/svg">
<path d="M32.8089 17.4167C30.221 18.3389 26.7109 19.4841 23.1413 20.0493C21.3565 20.3319 19.5717 20.4657 17.9059 20.4509C17.6679 20.4509 17.4597 20.436 17.2366 20.436C16.8647 20.674 16.4929 20.8971 16.0913 21.1053C14.9609 21.6705 13.7562 22.0572 12.5068 22.2357C12.6853 22.2555 12.8737 22.2753 13.072 22.2952C14.5147 22.4439 16.1954 22.4736 17.9654 22.3249C19.7502 22.1911 21.6093 21.8638 23.4239 21.3879C27.0678 20.4657 30.4738 18.9784 32.9725 17.8183C34.2219 17.2382 35.263 16.7325 35.977 16.3756C36.7057 16.0186 37.1222 15.8104 37.1222 15.8104C37.1222 15.8104 36.6909 15.974 35.9323 16.2715C35.1887 16.5541 34.1029 16.9556 32.8089 17.4167Z" fill="#800000"/>
<path d="M50.0469 6.05347C48.9017 6.18733 47.2359 6.30631 45.2577 6.33606C41.2865 6.41043 35.9767 5.88986 30.9198 4.43227C28.4062 3.71835 25.9373 2.76646 23.5426 1.9633C21.1629 1.16014 18.8278 0.520586 16.7604 0.237993C15.9275 0.104133 15.1541 0.0446392 14.4253 0.0148926C15.2582 0.282613 16.0465 0.639572 16.805 1.08577C17.6379 1.59147 18.3816 2.1864 19.0509 2.87057C20.3003 3.08871 21.619 3.38618 23.0072 3.76297C25.3869 4.38765 27.9451 5.20569 30.5926 5.756C35.8726 6.91612 41.2865 7.0946 45.2726 6.76739C47.2656 6.60378 48.9165 6.38068 50.0767 6.17245C50.6419 6.08321 51.0881 5.9791 51.4004 5.91961C51.6979 5.86011 51.8615 5.83037 51.8615 5.83037C51.8615 5.83037 51.6979 5.84524 51.4004 5.88986C51.0881 5.91961 50.627 5.99397 50.0469 6.05347Z" fill="#800000"/>
<path d="M45.4511 8.38858C46.2988 8.29934 46.7897 8.23985 46.7897 8.23985C46.7897 8.23985 46.2988 8.25472 45.4362 8.26959C44.5735 8.28447 43.3391 8.29934 41.8666 8.26959C38.9217 8.2101 34.9802 7.987 31.1727 7.18384C27.3651 6.44018 23.7657 4.96771 20.8506 4.10506C20.5234 4.00591 20.2061 3.91667 19.8987 3.83734C20.3598 4.4174 20.7613 5.04208 21.1034 5.71138C21.2522 6.00885 21.386 6.32119 21.5199 6.63353C22.6354 6.88637 23.855 7.18384 25.1787 7.49618C26.9784 7.92751 28.9714 8.32909 30.9644 8.53731C34.9505 9.01326 38.9217 8.89427 41.8815 8.70092C43.3539 8.59681 44.5884 8.47782 45.4511 8.38858Z" fill="#800000"/>
<path d="M38.535 10.5749C39.1151 10.5006 39.4423 10.456 39.4423 10.456C39.4423 10.456 39.1151 10.456 38.5201 10.456C37.9401 10.4708 37.0923 10.456 36.0958 10.4113C34.0879 10.3518 31.4255 10.1139 28.793 9.68254C26.3091 9.26609 23.855 8.67115 21.9958 8.13571C22.1942 8.90912 22.3082 9.69245 22.3379 10.4857C24.1822 10.7385 26.4281 10.9616 28.6591 11.0509C31.3809 11.1401 34.0879 11.036 36.1106 10.8427C37.1072 10.7534 37.9549 10.6642 38.535 10.5749Z" fill="#800000"/>
<path d="M34.4894 12.4044C34.4894 12.4044 33.478 12.4787 31.9907 12.5085C30.4885 12.5531 28.4806 12.5085 26.5173 12.3151C25.03 12.1813 23.5575 11.973 22.3081 11.7499C22.2586 12.4539 22.1396 13.153 21.9512 13.8471C23.3046 13.862 24.911 13.8173 26.5024 13.6983C28.5401 13.5347 30.548 13.2373 32.0353 12.9398C33.5077 12.6572 34.4894 12.4044 34.4894 12.4044Z" fill="#800000"/>
<path d="M30.2206 15.0815C30.2206 15.0815 29.3877 15.2005 28.1235 15.2898C26.8592 15.3939 25.1785 15.3939 23.5276 15.2451C22.8583 15.1857 22.2039 15.0964 21.5792 15.0072C21.3313 15.6418 21.0388 16.2417 20.7017 16.8068C21.6089 16.792 22.5757 16.7325 23.5573 16.6284C25.2826 16.4201 26.9633 16.0632 28.1978 15.7211C29.4323 15.379 30.2206 15.0815 30.2206 15.0815Z" fill="#800000"/>
<path d="M24.3906 18.443C25.4317 18.086 26.1159 17.8034 26.1159 17.8034C26.1159 17.8034 25.3871 17.9224 24.3014 18.0265C23.2007 18.1306 21.758 18.1901 20.3153 18.1455C20.1368 18.1356 19.9583 18.1257 19.7799 18.1158C19.2296 18.7851 18.6197 19.3949 17.9504 19.9303C18.7387 19.8262 19.5865 19.6923 20.4343 19.5139C21.9067 19.2164 23.3346 18.8 24.3906 18.443Z" fill="#800000"/>
<path d="M9.04111 19.5435C9.18984 19.4989 9.3832 19.4543 9.59143 19.3948C9.79965 19.3254 10.0327 19.2411 10.2905 19.142C10.7813 18.9486 11.3465 18.666 11.9265 18.2942C12.0653 18.2049 12.2091 18.1108 12.3579 18.0116C12.4967 17.9124 12.6355 17.8034 12.7743 17.6844C12.923 17.5803 13.0569 17.4613 13.1908 17.3423C13.3296 17.2233 13.4634 17.0994 13.5923 16.9705C13.8601 16.7176 14.1129 16.4499 14.336 16.1822C14.3856 16.1128 14.4401 16.0434 14.4996 15.9739C14.5591 15.9045 14.6137 15.8302 14.6632 15.7508C14.7128 15.6814 14.7624 15.612 14.812 15.5426C14.8615 15.4732 14.9111 15.4038 14.9607 15.3344C15.0499 15.1857 15.1392 15.0518 15.2284 14.9031C15.3028 14.7692 15.392 14.6353 15.4515 14.4866C15.5259 14.3528 15.6003 14.2189 15.6597 14.085C15.7192 13.9462 15.7738 13.8173 15.8233 13.6983C15.9275 13.4455 16.0167 13.2075 16.0762 12.9993C16.1357 12.7911 16.1803 12.6126 16.2249 12.449C16.2547 12.3002 16.2696 12.1812 16.2844 12.092C16.3043 12.0127 16.3142 11.973 16.3142 11.973C16.3142 11.973 16.2894 12.0077 16.2398 12.0771C16.2101 12.1515 16.1357 12.2556 16.0613 12.3895C15.987 12.5233 15.8828 12.6869 15.7787 12.8654C15.7292 12.9646 15.6697 13.0637 15.6002 13.1629C15.5408 13.2521 15.4664 13.3711 15.392 13.4752C15.2582 13.6835 15.0946 13.9214 14.9309 14.1594C14.8417 14.2784 14.7475 14.4023 14.6484 14.5312C14.6087 14.5907 14.5641 14.6502 14.5145 14.7097C14.4649 14.7692 14.4153 14.8337 14.3658 14.9031C14.3162 14.9626 14.2666 15.0221 14.217 15.0815C14.1575 15.151 14.103 15.2154 14.0534 15.2749C13.9444 15.4038 13.8353 15.5277 13.7262 15.6467C13.4982 15.8946 13.2602 16.1376 13.0123 16.3755C12.8933 16.4945 12.7694 16.6135 12.6405 16.7325C12.5215 16.8366 12.4025 16.9556 12.2686 17.0597C12.0108 17.2878 11.753 17.5009 11.4952 17.6993C11.2473 17.8976 10.9994 18.081 10.7515 18.2496C10.5136 18.428 10.2756 18.5768 10.0674 18.7255C9.62117 19.0081 9.24933 19.2312 8.98161 19.3799C8.8428 19.4593 8.73869 19.5188 8.66928 19.5584C8.58995 19.5981 8.55029 19.6179 8.55029 19.6179C8.55029 19.6278 8.59491 19.6229 8.68415 19.603C8.77339 19.5882 8.89238 19.5733 9.04111 19.5435Z" fill="#800000"/>
<path d="M2.63086 15.7658C2.68044 15.8649 2.73498 15.9591 2.79447 16.0484C2.88371 15.9195 2.97295 15.7955 3.06219 15.6765C3.12168 15.6171 3.10681 15.5129 3.03244 15.4683C2.97295 15.4088 2.88371 15.4237 2.82422 15.4981C2.76473 15.5873 2.70027 15.6765 2.63086 15.7658Z" fill="#800000"/>
<path d="M3.30018 15.1411C3.32993 15.1609 3.35968 15.1708 3.38943 15.1708C3.43405 15.1708 3.47867 15.1559 3.50841 15.1113C3.64723 14.9428 3.78605 14.7742 3.92487 14.6056C3.98436 14.5461 3.96949 14.4569 3.91 14.3974C3.8505 14.3379 3.76126 14.3528 3.70177 14.4123C3.55303 14.5808 3.40926 14.7494 3.27044 14.918C3.22582 14.9923 3.22582 15.0816 3.30018 15.1411Z" fill="#800000"/>
<path d="M4.19233 14.085C4.22207 14.1148 4.25678 14.1297 4.29644 14.1297C4.34106 14.1297 4.37081 14.1148 4.40056 14.0702C4.54929 13.9115 4.70298 13.7578 4.86163 13.6091C4.92112 13.5496 4.92112 13.4455 4.86163 13.386C4.80213 13.3265 4.69802 13.3265 4.6534 13.386C4.49475 13.5446 4.34106 13.7082 4.19233 13.8768C4.13283 13.9363 4.13283 14.0255 4.19233 14.085Z" fill="#800000"/>
<path d="M5.15921 13.0885C5.18896 13.1183 5.23358 13.1332 5.2782 13.1332C5.30795 13.1332 5.34265 13.1232 5.38231 13.1034C5.53104 12.9547 5.68969 12.8059 5.85826 12.6572C5.91775 12.5977 5.93263 12.5085 5.87314 12.4341C5.81364 12.3746 5.7244 12.3746 5.66491 12.4341C5.49634 12.5828 5.33274 12.7316 5.17409 12.8803C5.11459 12.9398 5.09972 13.029 5.15921 13.0885Z" fill="#800000"/>
<path d="M6.20022 12.1664C6.22997 12.1961 6.2746 12.211 6.31922 12.211C6.34897 12.211 6.37871 12.2011 6.40846 12.1813C6.57702 12.0424 6.74559 11.9036 6.91415 11.7648C6.98852 11.7202 7.00338 11.6161 6.94389 11.5566C6.89927 11.4971 6.79516 11.4822 6.73567 11.5268C6.55719 11.6656 6.38367 11.8045 6.2151 11.9433C6.15561 12.0028 6.14073 12.092 6.20022 12.1664Z" fill="#800000"/>
<path d="M7.28596 11.3037C7.3157 11.3335 7.36032 11.3632 7.40494 11.3632C7.4446 11.3632 7.47435 11.3533 7.49418 11.3335C7.67266 11.2046 7.8561 11.0757 8.04449 10.9468C8.10399 10.9022 8.11886 10.8129 8.07424 10.7386C8.02962 10.6791 7.94038 10.6642 7.86601 10.7088C7.68753 10.8278 7.50409 10.9567 7.3157 11.0955C7.2562 11.1401 7.24134 11.2294 7.28596 11.3037Z" fill="#800000"/>
<path d="M8.43136 10.5006C8.46111 10.5601 8.52061 10.575 8.56523 10.575C8.59497 10.575 8.61976 10.57 8.63959 10.5601C8.82799 10.4411 9.01638 10.3221 9.20478 10.2031C9.27915 10.1734 9.3089 10.0693 9.26428 10.0098C9.21966 9.93541 9.13041 9.90567 9.05605 9.95029C8.86765 10.0594 8.67926 10.1783 8.49086 10.3072C8.41649 10.3519 8.38674 10.4411 8.43136 10.5006Z" fill="#800000"/>
<path d="M9.6362 9.78667C9.66595 9.84616 9.71056 9.87591 9.77005 9.87591C9.78989 9.87591 9.81467 9.86599 9.84442 9.84616C10.0328 9.747 10.2262 9.64785 10.4245 9.54869C10.4989 9.50407 10.5286 9.41483 10.484 9.34047C10.4542 9.2661 10.365 9.23635 10.2906 9.28097C10.0923 9.38013 9.894 9.48424 9.69569 9.59331C9.62132 9.62306 9.59158 9.7123 9.6362 9.78667Z" fill="#800000"/>
<path d="M10.8708 9.14709C10.9005 9.20658 10.96 9.23633 11.0195 9.23633C11.0393 9.23633 11.0592 9.23137 11.079 9.22146C11.2773 9.13222 11.4756 9.04297 11.6739 8.95373C11.7483 8.92399 11.7929 8.83475 11.7632 8.76038C11.7186 8.68602 11.6442 8.6414 11.5549 8.68602C11.3566 8.76534 11.1534 8.85458 10.9451 8.95373C10.8708 8.98348 10.841 9.07272 10.8708 9.14709Z" fill="#800000"/>
<path d="M12.1497 8.59677C12.1794 8.65627 12.2389 8.68601 12.2984 8.68601C12.3183 8.68601 12.3381 8.68601 12.3579 8.68601C12.5562 8.60669 12.7595 8.52736 12.9677 8.44804C13.0421 8.41829 13.0867 8.32905 13.057 8.25469C13.0272 8.18032 12.9529 8.1357 12.8636 8.16545C12.6554 8.24477 12.4472 8.32409 12.2389 8.40342C12.1646 8.43317 12.12 8.52241 12.1497 8.59677Z" fill="#800000"/>
<path d="M13.4737 8.12085C13.4885 8.18034 13.548 8.22496 13.6075 8.22496C13.6274 8.22496 13.6422 8.22496 13.6522 8.22496C13.8703 8.15555 14.0835 8.0911 14.2917 8.03161C14.3661 8.00186 14.4107 7.9275 14.3958 7.83826C14.3661 7.76389 14.2917 7.71927 14.2025 7.73414C13.9942 7.79364 13.7811 7.85809 13.5629 7.9275C13.4885 7.95724 13.4439 8.04648 13.4737 8.12085Z" fill="#800000"/>
<path d="M14.8119 7.73414C14.8268 7.80851 14.8863 7.85313 14.9458 7.85313C14.9656 7.85313 14.9805 7.84817 14.9904 7.83826C15.1986 7.78868 15.4118 7.7391 15.6299 7.68952C15.7043 7.67465 15.7638 7.60028 15.7489 7.51104C15.7192 7.43668 15.6448 7.37719 15.5704 7.40693C15.3523 7.44659 15.1342 7.49617 14.916 7.55567C14.8268 7.57054 14.7822 7.65978 14.8119 7.73414Z" fill="#800000"/>
<path d="M17.1027 7.27308C17.1027 7.19871 17.0134 7.13922 16.9391 7.15409C16.7209 7.18384 16.5028 7.21854 16.2847 7.2582C16.1954 7.27308 16.1508 7.34744 16.1657 7.43668C16.1805 7.51105 16.24 7.55567 16.3144 7.55567C16.3243 7.55567 16.3293 7.55567 16.3293 7.55567C16.5474 7.51601 16.7656 7.4813 16.9837 7.45156C17.0729 7.43668 17.1176 7.36232 17.1027 7.27308Z" fill="#800000"/>
<path d="M3.19596 16.4648C3.31495 16.2863 3.43889 16.1128 3.5678 15.9442C3.62729 15.8698 3.61241 15.7806 3.55292 15.736C3.47855 15.6765 3.38931 15.6913 3.32982 15.7508C3.20092 15.9293 3.07202 16.1078 2.94312 16.2863C2.94312 16.2863 2.94312 16.2912 2.94312 16.3012C2.97286 16.3507 2.99765 16.3953 3.01748 16.435C3.03731 16.4648 3.05714 16.4945 3.07697 16.5243C3.12159 16.5094 3.16622 16.4945 3.19596 16.4648Z" fill="#800000"/>
<path d="M3.80567 15.4088C3.83542 15.4286 3.86516 15.4385 3.89491 15.4385C3.93953 15.4385 3.98416 15.4236 4.0139 15.3939C4.15272 15.2253 4.29154 15.0617 4.43036 14.9031C4.48985 14.8287 4.48984 14.7395 4.41548 14.68C4.35598 14.6353 4.26675 14.6353 4.20726 14.6948C4.06844 14.8634 3.92962 15.032 3.7908 15.2005C3.73131 15.26 3.74618 15.3493 3.80567 15.4088Z" fill="#800000"/>
<path d="M4.69843 14.3825C4.72818 14.4023 4.76288 14.4123 4.80254 14.4123C4.84716 14.4123 4.89178 14.3974 4.92153 14.3676C5.06035 14.2189 5.20908 14.0652 5.36773 13.9066C5.42722 13.8471 5.42722 13.7578 5.36773 13.6983C5.30824 13.6388 5.21899 13.6388 5.1595 13.6983C5.00085 13.8471 4.84716 14.0008 4.69843 14.1594C4.63894 14.2189 4.63894 14.323 4.69843 14.3825Z" fill="#800000"/>
<path d="M5.66483 13.4009C5.69457 13.4306 5.73919 13.4455 5.78381 13.4455C5.81356 13.4455 5.84827 13.4356 5.88793 13.4157C6.04658 13.267 6.20523 13.1232 6.36388 12.9844C6.42337 12.9249 6.43824 12.8357 6.37875 12.7613C6.31925 12.7018 6.23002 12.7018 6.17052 12.7464C6.00196 12.8952 5.83835 13.0439 5.6797 13.1926C5.6202 13.2521 5.60533 13.3414 5.66483 13.4009Z" fill="#800000"/>
<path d="M6.72073 12.2854C6.66123 12.33 6.64637 12.4341 6.69099 12.4936C6.72073 12.5382 6.76535 12.5531 6.80997 12.5531C6.84963 12.5531 6.88434 12.5432 6.91409 12.5234C7.08265 12.3845 7.25121 12.2507 7.41977 12.1218C7.47927 12.0623 7.49414 11.973 7.44952 11.8987C7.4049 11.8392 7.30079 11.8243 7.24129 11.8689C7.06281 12.0077 6.88929 12.1466 6.72073 12.2854Z" fill="#800000"/>
<path d="M7.79184 11.6607C7.82158 11.6904 7.8662 11.7202 7.91082 11.7202C7.94057 11.7202 7.97032 11.7103 8.00007 11.6904C8.17855 11.5615 8.35702 11.4376 8.5355 11.3186C8.595 11.274 8.62474 11.1847 8.58012 11.1104C8.5355 11.036 8.43139 11.0211 8.3719 11.0657C8.1835 11.1947 8.00006 11.3186 7.82158 11.4376C7.74722 11.4971 7.73234 11.5863 7.79184 11.6607Z" fill="#800000"/>
<path d="M8.92232 10.8873C8.95207 10.9319 9.01156 10.9616 9.05618 10.9616C9.08593 10.9616 9.11071 10.9517 9.13055 10.9319C9.31894 10.8228 9.50733 10.7137 9.69573 10.6047C9.7701 10.56 9.79985 10.4708 9.75523 10.3964C9.71061 10.3221 9.62136 10.2923 9.547 10.3369C9.3586 10.446 9.17021 10.56 8.98181 10.679C8.90745 10.7237 8.89258 10.8129 8.92232 10.8873Z" fill="#800000"/>
<path d="M10.1269 10.1882C10.1418 10.2329 10.2013 10.2626 10.2459 10.2626C10.2757 10.2626 10.3004 10.2576 10.3203 10.2477C10.5186 10.1486 10.7119 10.0494 10.9003 9.95026C10.9747 9.92052 11.0044 9.83127 10.9747 9.75691C10.9301 9.68254 10.8408 9.65279 10.7665 9.68254C10.5781 9.7817 10.3847 9.88085 10.1864 9.98001C10.1121 10.0246 10.0823 10.1139 10.1269 10.1882Z" fill="#800000"/>
<path d="M11.3464 9.57842C11.3761 9.62304 11.4356 9.66766 11.4951 9.66766C11.5149 9.66766 11.5348 9.66271 11.5546 9.65279C11.7529 9.56355 11.9512 9.47431 12.1495 9.38507C12.2239 9.35532 12.2685 9.26608 12.2388 9.19172C12.1941 9.11735 12.1198 9.07273 12.0305 9.11735C11.8322 9.19668 11.6339 9.28096 11.4356 9.3702C11.3464 9.39994 11.3166 9.48918 11.3464 9.57842Z" fill="#800000"/>
<path d="M12.8191 9.11736C13.0174 9.04795 13.2207 8.97854 13.4289 8.90913C13.5033 8.87938 13.5479 8.79014 13.5182 8.71578C13.5033 8.64141 13.4141 8.59679 13.3397 8.62654C13.1315 8.69594 12.9232 8.77031 12.715 8.84964C12.6407 8.86451 12.596 8.95375 12.6258 9.04299C12.6406 9.10248 12.7001 9.13223 12.7596 9.13223C12.7795 9.13223 12.7993 9.12727 12.8191 9.11736Z" fill="#800000"/>
<path d="M14.0683 8.68604C14.0882 8.68604 14.103 8.68604 14.1129 8.68604C14.3212 8.62655 14.5294 8.56705 14.7376 8.50756C14.812 8.47781 14.8715 8.40345 14.8417 8.31421C14.8269 8.23984 14.7376 8.19522 14.6633 8.21009C14.4451 8.26959 14.2319 8.33404 14.0237 8.40345C13.9493 8.41832 13.9047 8.50756 13.9196 8.58193C13.9493 8.65629 14.0088 8.68604 14.0683 8.68604Z" fill="#800000"/>
<path d="M15.2435 8.22496C15.2733 8.28445 15.3327 8.32907 15.3922 8.32907C15.4022 8.32907 15.417 8.32907 15.4369 8.32907C15.6451 8.2795 15.8533 8.23488 16.0615 8.19521C16.1508 8.18034 16.1954 8.0911 16.1805 8.01673C16.1657 7.92749 16.0913 7.88287 16.002 7.89775C15.7938 7.93741 15.5806 7.98203 15.3625 8.03161C15.2881 8.06135 15.2286 8.13572 15.2435 8.22496Z" fill="#800000"/>
<path d="M2.03596 12.092C2.09545 12.0325 2.09546 11.9433 2.02109 11.8838C1.9616 11.8243 1.87235 11.8392 1.81286 11.8987C1.72362 11.9978 1.62943 12.1019 1.53027 12.211C1.5501 12.3399 1.56498 12.4638 1.57489 12.5828C1.58481 12.5928 1.58976 12.6076 1.58976 12.6275C1.73849 12.449 1.88723 12.2705 2.03596 12.092Z" fill="#800000"/>
<path d="M3.04724 10.8278C2.98775 10.7683 2.89851 10.7683 2.83901 10.8278C2.67045 10.9864 2.50188 11.15 2.33332 11.3186C2.2887 11.393 2.2887 11.4822 2.3482 11.5417C2.37794 11.5715 2.41265 11.5863 2.45231 11.5863C2.48206 11.5863 2.52667 11.5566 2.55642 11.5268C2.71507 11.3682 2.87868 11.2046 3.04724 11.036C3.10674 10.9765 3.10674 10.8873 3.04724 10.8278Z" fill="#800000"/>
<path d="M4.13301 9.81639C4.07352 9.7569 3.98428 9.7569 3.92478 9.80152C3.7463 9.96017 3.56783 10.1188 3.38935 10.2775C3.32985 10.337 3.32985 10.4262 3.38935 10.5006C3.41909 10.5303 3.46372 10.5452 3.49346 10.5452C3.53312 10.5452 3.56782 10.5303 3.59757 10.5006C3.76613 10.3419 3.93965 10.1882 4.11813 10.0395C4.17763 9.98 4.19251 9.89076 4.13301 9.81639Z" fill="#800000"/>
<path d="M5.27822 8.89425C5.2336 8.81988 5.14435 8.80501 5.06999 8.8645C4.88159 9.00332 4.69815 9.14709 4.51967 9.29583C4.44531 9.35532 4.4453 9.44456 4.48992 9.51893C4.51967 9.54867 4.5643 9.56355 4.60892 9.56355C4.64858 9.56355 4.68328 9.55363 4.71302 9.5338C4.8915 9.38507 5.07494 9.24129 5.26334 9.10247C5.32283 9.04298 5.33771 8.95374 5.27822 8.89425Z" fill="#800000"/>
<path d="M6.49801 8.0316C6.45339 7.95724 6.34928 7.94236 6.28979 7.98698C6.09147 8.11588 5.89316 8.24975 5.69485 8.38856C5.63536 8.44806 5.62048 8.5373 5.6651 8.59679C5.69485 8.64141 5.73947 8.67116 5.78409 8.67116C5.81384 8.67116 5.84359 8.66124 5.87333 8.64141C6.06173 8.50259 6.25508 8.36873 6.45339 8.23983C6.52776 8.19521 6.54263 8.0911 6.49801 8.0316Z" fill="#800000"/>
<path d="M7.70277 7.45152C7.77714 7.4069 7.79201 7.31766 7.74739 7.24329C7.71765 7.16892 7.61353 7.15405 7.55404 7.1838C7.34581 7.3127 7.14254 7.43664 6.94423 7.55563C6.86986 7.60025 6.85499 7.68949 6.89961 7.76386C6.91448 7.80848 6.97398 7.83822 7.0186 7.83822C7.04834 7.83822 7.07809 7.82831 7.10784 7.80848C7.29624 7.68949 7.49455 7.5705 7.70277 7.45152Z" fill="#800000"/>
<path d="M8.99665 6.73762C9.07102 6.70787 9.10077 6.60376 9.07102 6.52939C9.0264 6.45503 8.93716 6.44015 8.86279 6.4699C8.64465 6.57897 8.43642 6.68804 8.23811 6.79711C8.16374 6.84173 8.134 6.93097 8.16374 7.00534C8.19349 7.04996 8.25299 7.07971 8.29761 7.07971C8.32735 7.07971 8.35214 7.07475 8.37197 7.06483C8.5802 6.95576 8.78843 6.84669 8.99665 6.73762Z" fill="#800000"/>
<path d="M10.4094 5.91958C10.3796 5.83034 10.2904 5.80059 10.216 5.83034C9.99787 5.92949 9.77974 6.02865 9.5616 6.1278C9.48723 6.15755 9.45748 6.24679 9.48723 6.32116C9.51698 6.38065 9.57647 6.4104 9.63596 6.4104C9.65579 6.4104 9.67562 6.40544 9.69545 6.39552C9.91359 6.29637 10.1268 6.20217 10.335 6.11293C10.4094 6.08318 10.454 5.99394 10.4094 5.91958Z" fill="#800000"/>
<path d="M11.7928 5.36925C11.7779 5.29488 11.6887 5.25026 11.6143 5.28001C11.3862 5.35933 11.1631 5.44362 10.945 5.53286C10.8706 5.5626 10.826 5.65184 10.8558 5.72621C10.8855 5.7857 10.9301 5.83032 10.9896 5.83032C11.0094 5.83032 11.0293 5.82536 11.0491 5.81545C11.2672 5.72621 11.4854 5.64193 11.7035 5.5626C11.7928 5.53286 11.8225 5.45849 11.7928 5.36925Z" fill="#800000"/>
<path d="M13.2207 4.92306C13.191 4.8487 13.1017 4.80408 13.0274 4.81895C12.7993 4.88836 12.5712 4.95777 12.3432 5.02718C12.2688 5.05692 12.2242 5.14616 12.2539 5.22053C12.2688 5.28002 12.3283 5.32464 12.3878 5.32464C12.4076 5.32464 12.4275 5.32464 12.4473 5.32464C12.6654 5.24532 12.8885 5.17591 13.1166 5.11642C13.191 5.08667 13.2356 4.99743 13.2207 4.92306Z" fill="#800000"/>
<path d="M14.6483 4.56614C14.6334 4.4769 14.559 4.43228 14.4698 4.44715C14.2417 4.49673 14.0137 4.55127 13.7856 4.61076C13.6964 4.64051 13.6518 4.71487 13.6666 4.80411C13.6964 4.86361 13.7559 4.90823 13.8154 4.90823C13.8253 4.90823 13.8402 4.90823 13.86 4.90823C14.088 4.84873 14.3161 4.7942 14.5442 4.74462C14.6185 4.72975 14.6632 4.64051 14.6483 4.56614Z" fill="#800000"/>
<path d="M15.2282 4.29841C15.1538 4.31328 15.0944 4.38765 15.1092 4.46202C15.1241 4.53638 15.1985 4.59588 15.258 4.59588C15.2679 4.59588 15.2778 4.59092 15.2877 4.581C15.5158 4.54134 15.7438 4.50168 15.9719 4.46202C16.0611 4.46202 16.1206 4.37278 16.1057 4.29841C16.0909 4.20917 16.0165 4.16455 15.9273 4.16455C15.6992 4.20421 15.4662 4.24883 15.2282 4.29841Z" fill="#800000"/>
<path d="M1.85743 11.4376C1.91692 11.3781 1.91692 11.274 1.85743 11.2294C1.79794 11.1699 1.69382 11.1699 1.6492 11.2294C1.58971 11.2889 1.53517 11.3484 1.4856 11.4079C1.4856 11.4773 1.4856 11.5417 1.4856 11.6012V11.6904C1.4856 11.7053 1.50047 11.7351 1.4856 11.7351L1.50047 11.7648C1.50047 11.7946 1.50047 11.8193 1.50047 11.8392C1.61945 11.7103 1.73844 11.5764 1.85743 11.4376Z" fill="#800000"/>
<path d="M2.89844 10.3816C2.95793 10.3221 2.95793 10.218 2.89844 10.1585C2.83895 10.099 2.7497 10.099 2.69021 10.1585C2.52165 10.327 2.35308 10.4956 2.18451 10.6642C2.12502 10.7237 2.12502 10.8129 2.18451 10.8724C2.21426 10.9021 2.24897 10.917 2.28863 10.917C2.33325 10.917 2.363 10.9021 2.39274 10.8724C2.56131 10.7038 2.72988 10.5402 2.89844 10.3816Z" fill="#800000"/>
<path d="M3.99922 9.3702C4.05872 9.32558 4.0736 9.22146 4.0141 9.16197C3.95461 9.10248 3.86537 9.0876 3.80587 9.1471C3.61748 9.30574 3.43404 9.46439 3.25556 9.62304C3.19606 9.68254 3.19606 9.77178 3.25556 9.83127C3.2853 9.86102 3.31505 9.87589 3.35967 9.87589C3.39933 9.87589 3.43404 9.86597 3.46379 9.84614C3.64227 9.68749 3.82074 9.52884 3.99922 9.3702Z" fill="#800000"/>
<path d="M4.98061 8.21008C4.7823 8.3489 4.5939 8.49267 4.41542 8.64141C4.34105 8.7009 4.34106 8.79014 4.38568 8.84963C4.41543 8.89425 4.46004 8.90913 4.50466 8.90913C4.53441 8.90913 4.56415 8.89921 4.5939 8.87938C4.7823 8.73065 4.97069 8.58687 5.15908 8.44805C5.21858 8.38856 5.23345 8.29932 5.18883 8.23983C5.14421 8.16546 5.04011 8.15059 4.98061 8.21008Z" fill="#800000"/>
<path d="M5.70949 8.01674C5.73924 8.01674 5.76403 8.00682 5.78386 7.98699C5.98217 7.84817 6.18048 7.71431 6.37879 7.58541C6.45316 7.54079 6.46803 7.45155 6.42341 7.37718C6.37879 7.30282 6.28955 7.28794 6.21519 7.33256C6.01688 7.46147 5.81857 7.59533 5.62025 7.73414C5.54589 7.79364 5.53102 7.88288 5.57564 7.94237C5.60538 7.98699 5.65 8.01674 5.70949 8.01674Z" fill="#800000"/>
<path d="M6.95877 7.18383C6.98852 7.18383 7.01331 7.17887 7.03314 7.16896C7.24137 7.04006 7.4496 6.91611 7.65782 6.79713C7.71732 6.76738 7.74706 6.67814 7.70244 6.60377C7.67269 6.52941 7.56858 6.49966 7.49421 6.54428C7.2959 6.66327 7.09263 6.78721 6.88441 6.91611C6.81004 6.96073 6.79516 7.04997 6.82491 7.12434C6.85466 7.16896 6.91415 7.18383 6.95877 7.18383Z" fill="#800000"/>
<path d="M9.04128 5.9047C8.99666 5.83034 8.90742 5.80059 8.83305 5.83034C8.61491 5.93941 8.40172 6.04848 8.1935 6.15755C8.11913 6.20217 8.08938 6.29141 8.134 6.36578C8.16375 6.4104 8.20837 6.44015 8.26786 6.44015C8.2877 6.44015 8.31248 6.43519 8.34223 6.42527C8.55046 6.3162 8.75869 6.20713 8.96691 6.09806C9.04128 6.06831 9.07103 5.97907 9.04128 5.9047Z" fill="#800000"/>
<path d="M10.4096 5.28004C10.3799 5.20567 10.2906 5.17593 10.2162 5.20567C9.99811 5.29491 9.77501 5.38911 9.54695 5.48827C9.47258 5.53289 9.44283 5.62213 9.47258 5.69649C9.50233 5.74111 9.56182 5.78573 9.62131 5.78573C9.64115 5.78573 9.66098 5.78078 9.68081 5.77086C9.89895 5.6717 10.1171 5.57255 10.3352 5.47339C10.4096 5.44365 10.4394 5.35441 10.4096 5.28004Z" fill="#800000"/>
<path d="M11.8225 4.75947C11.7928 4.67023 11.7035 4.64048 11.6292 4.65536C11.4011 4.73468 11.173 4.81896 10.945 4.9082C10.8706 4.93795 10.826 5.02719 10.8558 5.10156C10.8855 5.16105 10.945 5.20567 11.0045 5.20567C11.0243 5.20567 11.0441 5.20071 11.064 5.1908C11.2821 5.10156 11.5003 5.01727 11.7184 4.93795C11.8076 4.92308 11.8523 4.83384 11.8225 4.75947Z" fill="#800000"/>
<path d="M13.2503 4.31326C13.2354 4.23889 13.1461 4.1794 13.0718 4.20915C12.8338 4.26864 12.6008 4.33805 12.3727 4.41737C12.2984 4.43225 12.2537 4.52149 12.2835 4.59585C12.2984 4.67022 12.3579 4.69997 12.4174 4.69997C12.4372 4.69997 12.4521 4.69997 12.462 4.69997C12.69 4.63056 12.9181 4.56115 13.1461 4.49174C13.2205 4.47687 13.28 4.38763 13.2503 4.31326Z" fill="#800000"/>
<path d="M14.589 4.13478C14.6782 4.1199 14.7228 4.04554 14.708 3.9563C14.6931 3.88193 14.6038 3.83731 14.5295 3.85218C14.2915 3.90176 14.0585 3.95134 13.8304 4.00092C13.7561 4.03066 13.6966 4.10503 13.7263 4.19427C13.7412 4.25376 13.8007 4.29838 13.8602 4.29838C13.88 4.29838 13.8949 4.29838 13.9048 4.29838C14.1329 4.23889 14.3609 4.18436 14.589 4.13478Z" fill="#800000"/>
<path fill-rule="evenodd" clip-rule="evenodd" d="M16.5225 1.5617C18.2626 2.61771 19.6905 4.13479 20.6126 5.96421C21.9364 8.55217 22.1595 11.512 21.2671 14.2784C20.3598 17.0448 18.4411 19.2907 15.8383 20.6144C14.3212 21.3879 12.6108 21.8043 10.9152 21.8043C8.92218 21.8043 6.98866 21.254 5.27822 20.2426C3.53804 19.1866 2.12508 17.6695 1.18806 15.8401C0.741857 14.9626 0.414644 14.0404 0.221291 13.0885C0.211375 13.0687 0.206412 13.0439 0.206412 13.0142C-0.150548 11.1996 -0.0464331 9.32558 0.533627 7.52591C1.4409 4.75947 3.35956 2.51359 5.96239 1.18987C7.47947 0.416453 9.18991 0 10.9003 0C12.8785 0 14.812 0.53544 16.5225 1.5617ZM16.5076 2.60283C15.6747 2.0079 14.693 1.50221 13.5924 1.18987C13.057 1.04113 12.4918 0.922146 11.9117 0.862653C11.763 0.84778 11.6143 0.818033 11.4655 0.818033C11.3267 0.808118 11.1829 0.798202 11.0342 0.788286C10.9846 0.798202 10.94 0.80316 10.9003 0.80316C10.7913 0.80316 10.6822 0.80316 10.5731 0.80316C10.4244 0.80316 10.2905 0.818033 10.1418 0.818033C8.95193 0.907273 7.76207 1.20474 6.66144 1.71043C5.56082 2.21613 4.5643 2.93005 3.71652 3.77783C2.88362 4.62561 2.22919 5.62212 1.76811 6.66325C1.53014 7.16895 1.33678 7.68951 1.2178 8.22495C1.08394 8.74552 0.994698 9.28096 0.950078 9.78665C0.900501 10.3023 0.890583 10.803 0.92033 11.2889C0.930246 11.4078 0.940163 11.5268 0.950078 11.6458L0.964957 11.7202V11.7797L0.979827 11.8243C0.979827 11.8739 0.984781 11.9284 0.994697 11.9879C1.02444 12.2259 1.06907 12.449 1.11369 12.6721C1.20293 13.1084 1.31696 13.5149 1.45578 13.8917C1.60451 14.2784 1.73837 14.6354 1.90198 14.9626C2.21432 15.6021 2.57127 16.1227 2.88361 16.5243C3.19595 16.9407 3.49342 17.2233 3.6719 17.4167C3.82063 17.5654 3.91483 17.6546 3.95449 17.6844C5.17411 18.9338 6.69119 19.8113 8.32726 20.2575C9.94845 20.0195 15.1244 18.785 16.9835 12.6275C17.519 10.8575 17.6082 9.29583 17.4595 7.94236C17.4496 7.95227 17.4347 7.96219 17.4149 7.97211C17.1967 8.00185 16.9786 8.0316 16.7604 8.06135C16.7604 8.06135 16.7555 8.06135 16.7456 8.06135C16.6712 8.06135 16.6117 8.01673 16.5968 7.94236C16.582 7.85312 16.6414 7.77875 16.7158 7.76388C16.934 7.73413 17.1521 7.70439 17.3702 7.67464C17.3901 7.66472 17.4099 7.66472 17.4297 7.67464C17.3901 7.38709 17.3405 7.1045 17.281 6.82686C11.4804 7.57053 5.91778 10.798 2.49691 15.498C2.39775 15.2898 2.2986 15.0667 2.19944 14.8287C2.06558 14.5015 1.94659 14.1445 1.84248 13.7727C1.82265 13.7132 1.80778 13.6537 1.79786 13.5942C1.87718 13.4951 1.96147 13.391 2.05071 13.2819C2.1102 13.2075 2.09532 13.1183 2.03583 13.0588C1.97634 13.0142 1.87223 13.0142 1.82761 13.0885C1.78795 13.1381 1.74829 13.1877 1.70862 13.2373C1.68879 13.1381 1.66896 13.0439 1.64913 12.9547C5.29309 8.49267 10.7665 5.44364 16.4927 4.64048C16.3539 4.37276 16.2101 4.11495 16.0614 3.86707C16.0614 3.87698 16.0564 3.88194 16.0465 3.88194C15.8185 3.91169 15.5904 3.94639 15.3623 3.98605C15.3524 3.98605 15.3425 3.98605 15.3326 3.98605C15.2582 3.98605 15.1987 3.94143 15.1839 3.86707C15.169 3.7927 15.2136 3.70346 15.3028 3.68859C15.4912 3.65884 15.6846 3.62909 15.8829 3.59935C15.5854 3.16802 15.3028 2.79619 15.0351 2.49872C15.4218 2.6772 15.8085 2.88543 16.1655 3.1234C16.5671 3.37625 16.9389 3.67371 17.2959 3.97118C17.633 4.26865 17.9453 4.58099 18.2329 4.9082C18.7832 5.54775 19.2145 6.20218 19.5417 6.82686C19.8541 7.43667 20.0772 8.01673 20.2259 8.49267C20.2557 8.61166 20.2854 8.73065 20.3152 8.84963C20.3449 8.95375 20.3747 9.05786 20.4044 9.1471C20.4341 9.34045 20.4788 9.50406 20.5085 9.63792C20.5531 9.90564 20.568 10.0544 20.568 10.0544C20.568 10.0544 20.568 9.90564 20.5531 9.63792C20.5234 9.35533 20.4936 8.95375 20.3747 8.46293C20.2854 7.95723 20.1069 7.34743 19.8243 6.693C19.5417 6.0237 19.1402 5.30978 18.5899 4.59586C18.3221 4.24882 18.0148 3.90177 17.6677 3.55473C17.3207 3.2176 16.934 2.9003 16.5076 2.60283ZM14.9608 6.15756C15.7193 5.97908 16.3737 5.84522 16.8199 5.78573C16.8695 5.77581 16.9141 5.76589 16.9538 5.75598C16.9538 5.74606 16.9538 5.73615 16.9538 5.72623C16.9042 5.72623 16.8546 5.73119 16.8051 5.74111C16.344 5.78573 15.6895 5.87497 14.9013 6.03857C14.1278 6.20218 13.2206 6.44015 12.2836 6.76737C11.8076 6.93097 11.3168 7.10945 10.8408 7.31768C10.35 7.52591 9.87408 7.76388 9.39813 8.00185C8.92218 8.2547 8.46111 8.50755 8.01491 8.79014C7.56871 9.07273 7.13739 9.35533 6.73581 9.65279C5.91778 10.2329 5.20385 10.8278 4.62379 11.3781C4.04373 11.9284 3.59753 12.4192 3.28519 12.7613C2.98773 13.1183 2.80925 13.3265 2.80925 13.3265C2.80925 13.3265 2.98773 13.1332 3.31494 12.8059C3.62728 12.4639 4.10323 12.0177 4.69816 11.4971C5.29309 10.9765 6.02189 10.3965 6.83992 9.8164C7.2415 9.53381 7.67283 9.25121 8.11903 8.98349C8.56523 8.71577 9.0263 8.44805 9.50224 8.21008C9.97819 7.95723 10.4541 7.73413 10.9301 7.52591C11.406 7.31768 11.8969 7.12433 12.3579 6.94585C13.2949 6.60376 14.1873 6.35091 14.9608 6.15756ZM14.6782 7.10945C14.7525 7.09458 14.7972 7.00534 14.7823 6.93097C14.7674 6.84173 14.6782 6.79711 14.6038 6.81199C14.3857 6.87148 14.1675 6.93097 13.9494 6.99047C13.8601 7.02021 13.8155 7.09458 13.8453 7.18382C13.8601 7.24331 13.9196 7.28793 13.9791 7.28793C13.999 7.28793 14.0138 7.28793 14.0237 7.28793C14.2419 7.21852 14.46 7.15903 14.6782 7.10945ZM13.3247 7.49616C13.3991 7.46641 13.4437 7.37717 13.4139 7.30281C13.3991 7.22844 13.3098 7.18382 13.2355 7.21357C13.0173 7.28297 12.7992 7.35238 12.581 7.42179C12.5067 7.45154 12.462 7.54078 12.4918 7.61515C12.5215 7.67464 12.581 7.71926 12.6405 7.71926C12.6504 7.71926 12.6653 7.7143 12.6851 7.70439C12.9033 7.63498 13.1165 7.56557 13.3247 7.49616ZM11.9117 7.98698C11.9861 7.97211 12.0158 7.88287 11.9861 7.82337C11.9712 7.74901 11.882 7.71926 11.8225 7.73413C11.6341 7.81346 11.4507 7.89278 11.2722 7.97211C11.1978 8.00185 11.1681 8.07622 11.1978 8.15059C11.2127 8.19521 11.2722 8.22495 11.3168 8.22495C11.3366 8.22495 11.3565 8.21999 11.3763 8.21008C11.5548 8.14067 11.7332 8.0663 11.9117 7.98698ZM10.707 8.52242C10.7814 8.49267 10.8111 8.40343 10.7665 8.32907C10.7367 8.2547 10.6475 8.21008 10.5731 8.2547C10.3649 8.35386 10.1616 8.45301 9.96332 8.55217C9.88896 8.58191 9.85921 8.67115 9.88896 8.74552C9.9187 8.80501 9.97819 8.83476 10.0228 8.83476C10.0526 8.83476 10.0773 8.8298 10.0972 8.81989C10.2955 8.72073 10.4988 8.62158 10.707 8.52242ZM9.44276 9.16197C9.51712 9.11735 9.54687 9.02811 9.50224 8.95374C9.45763 8.87938 9.36839 8.86451 9.29402 8.89425C9.09571 9.00332 8.90236 9.11735 8.71396 9.23634C8.63959 9.28096 8.60984 9.3702 8.65446 9.44457C8.68421 9.48919 8.72883 9.51893 8.78833 9.51893C8.80816 9.51893 8.83295 9.50902 8.86269 9.48919C9.05109 9.38011 9.24445 9.27104 9.44276 9.16197ZM8.23801 9.87589C8.29751 9.83127 8.32725 9.74203 8.28263 9.66767C8.23801 9.5933 8.1339 9.57843 8.07441 9.62304C7.8761 9.74203 7.68274 9.86598 7.49435 9.99488C7.43485 10.0395 7.41998 10.1287 7.4646 10.2031C7.49434 10.2477 7.53897 10.2775 7.58359 10.2775C7.61334 10.2775 7.64308 10.2676 7.67283 10.2477C7.85131 10.1188 8.0397 9.99488 8.23801 9.87589ZM7.06302 10.6642C7.13739 10.6196 7.15226 10.5303 7.09276 10.456C7.04814 10.3965 6.95891 10.3816 6.88454 10.4262C6.70606 10.5551 6.52758 10.689 6.3491 10.8278C6.27473 10.8873 6.27474 10.9765 6.31936 11.0509C6.3491 11.0806 6.39372 11.0955 6.43834 11.0955C6.46809 11.0955 6.49783 11.0856 6.52758 11.0658C6.70606 10.9369 6.88454 10.803 7.06302 10.6642ZM5.96239 11.5268C6.02189 11.4822 6.02188 11.3781 5.97726 11.3186C5.91777 11.2591 5.82854 11.2442 5.76904 11.3037C5.59056 11.4425 5.41704 11.5863 5.24848 11.7351C5.18898 11.7946 5.1741 11.8838 5.2336 11.9582C5.26334 11.9879 5.30797 12.0028 5.35259 12.0028C5.38234 12.0028 5.41208 11.9929 5.44183 11.973C5.61039 11.8243 5.78391 11.6756 5.96239 11.5268ZM4.90639 12.4639C4.96588 12.4044 4.96588 12.3151 4.90639 12.2556C4.86177 12.1813 4.75765 12.1813 4.69816 12.2408C4.5296 12.3994 4.37094 12.5581 4.22221 12.7167C4.16272 12.7762 4.16272 12.8654 4.22221 12.9249C4.25196 12.9547 4.28666 12.9695 4.32633 12.9695C4.36599 12.9695 4.4007 12.9547 4.43044 12.9249C4.58909 12.7663 4.74774 12.6126 4.90639 12.4639ZM3.92475 13.4604C3.98424 13.386 3.96937 13.2968 3.90988 13.2373C3.85038 13.1778 3.76114 13.1926 3.70165 13.2521C3.55291 13.4108 3.40418 13.5744 3.25545 13.743C3.19595 13.8173 3.19596 13.9066 3.27032 13.9661C3.30007 13.9859 3.32981 13.9958 3.35956 13.9958C3.40418 13.9958 3.4488 13.9809 3.47855 13.9512C3.62728 13.7826 3.77601 13.619 3.92475 13.4604ZM3.0026 14.5015C3.06209 14.442 3.04722 14.3528 2.98773 14.2933C2.91336 14.2487 2.82412 14.2487 2.7795 14.3081C2.63076 14.4866 2.49195 14.6651 2.36304 14.8436C2.30355 14.9031 2.31843 15.0072 2.37792 15.0518C2.40767 15.0716 2.44237 15.0816 2.48203 15.0816C2.52665 15.0816 2.57128 15.0667 2.60102 15.0221C2.72993 14.8535 2.86378 14.68 3.0026 14.5015ZM2.31843 12.5085C2.25893 12.568 2.2738 12.6572 2.3333 12.7167C2.36304 12.7464 2.39775 12.7613 2.43741 12.7613C2.46716 12.7613 2.51178 12.7316 2.54153 12.7018C2.69026 12.5333 2.84395 12.3647 3.0026 12.1961C3.06209 12.1366 3.06209 12.0474 3.0026 11.9879C2.9431 11.9284 2.839 11.9284 2.79438 11.9879C2.62581 12.1565 2.46716 12.33 2.31843 12.5085ZM3.31494 11.4376C3.25545 11.4971 3.25545 11.6012 3.31494 11.6607C3.34469 11.6904 3.38435 11.7053 3.43393 11.7053C3.47359 11.7053 3.5083 11.6904 3.53804 11.6607C3.69669 11.502 3.8603 11.3434 4.02886 11.1847C4.08835 11.1253 4.08835 11.0211 4.02886 10.9616C3.98424 10.9022 3.88012 10.9022 3.82063 10.9616C3.65207 11.1203 3.48351 11.2789 3.31494 11.4376ZM4.38582 10.4411C4.32633 10.5006 4.32633 10.5898 4.37094 10.6642C4.40069 10.6939 4.44531 10.7088 4.48993 10.7088C4.52959 10.7088 4.5643 10.6939 4.59405 10.6642C4.76261 10.5154 4.93613 10.3667 5.11461 10.218C5.17411 10.1734 5.18898 10.0841 5.12949 10.0098C5.08487 9.95026 4.99563 9.93538 4.92126 9.99488C4.74278 10.1436 4.5643 10.2923 4.38582 10.4411ZM5.53106 9.51893C5.4567 9.56355 5.44183 9.65279 5.50132 9.72716C5.53107 9.75691 5.57569 9.78665 5.62031 9.78665C5.65006 9.78665 5.6798 9.77674 5.70955 9.75691C5.88803 9.61809 6.07146 9.47927 6.25986 9.34045C6.33423 9.29583 6.3491 9.19172 6.30448 9.13223C6.24499 9.05786 6.15575 9.04299 6.08138 9.08761C5.89298 9.22642 5.70954 9.3702 5.53106 9.51893ZM6.72093 8.65628C6.64656 8.7009 6.63169 8.79014 6.67631 8.86451C6.70606 8.90913 6.75068 8.924 6.81018 8.924C6.83992 8.924 6.86471 8.91904 6.88454 8.90913C7.08285 8.77031 7.2762 8.64141 7.4646 8.52242C7.53896 8.4778 7.55384 8.38856 7.50922 8.31419C7.4646 8.23983 7.37536 8.22495 7.30099 8.26957C7.1126 8.38856 6.91924 8.51746 6.72093 8.65628ZM7.9108 8.07622C7.94054 8.12084 7.98517 8.15059 8.04466 8.15059C8.06449 8.15059 8.08928 8.14067 8.11903 8.12084C8.31734 8.01177 8.51565 7.9027 8.71396 7.79363C8.78833 7.74901 8.81808 7.65977 8.77346 7.5854C8.74371 7.51103 8.65446 7.48129 8.5801 7.52591C8.37187 7.63498 8.1686 7.74901 7.97029 7.86799C7.89593 7.91261 7.86618 8.00185 7.9108 8.07622ZM9.18991 7.3623C9.21966 7.42179 9.27914 7.45154 9.32376 7.45154C9.35351 7.45154 9.3783 7.44658 9.39813 7.43667C9.59644 7.32759 9.80467 7.22348 10.0228 7.12433C10.0972 7.09458 10.1269 7.00534 10.0972 6.93097C10.0526 6.85661 9.96332 6.82686 9.88896 6.85661C9.68073 6.95576 9.4725 7.05987 9.26428 7.16895C9.18991 7.19869 9.16016 7.28793 9.18991 7.3623ZM10.588 6.54427C10.5136 6.57401 10.4839 6.66325 10.5136 6.73762C10.5434 6.79711 10.6029 6.82686 10.6475 6.82686C10.6673 6.82686 10.6872 6.8219 10.707 6.81199C10.9251 6.72275 11.1383 6.63846 11.3465 6.55914C11.4358 6.52939 11.4655 6.44015 11.4358 6.35091C11.406 6.27655 11.3168 6.2468 11.2424 6.27655C11.0243 6.35587 10.8061 6.44511 10.588 6.54427ZM11.9712 6.00883C11.882 6.0237 11.8522 6.11294 11.8671 6.18731C11.8969 6.26167 11.9563 6.29142 12.0158 6.29142C12.0357 6.29142 12.0505 6.29142 12.0605 6.29142C12.2786 6.2121 12.4967 6.13773 12.7149 6.06832C12.8041 6.03857 12.8487 5.94933 12.819 5.87497C12.7892 5.8006 12.7149 5.75598 12.6256 5.77085C12.4075 5.85018 12.1894 5.9295 11.9712 6.00883ZM13.3693 5.54775C13.2801 5.5775 13.2354 5.65187 13.2652 5.74111C13.2801 5.8006 13.3396 5.84522 13.3991 5.84522C13.4189 5.84522 13.4338 5.84522 13.4437 5.84522C13.6618 5.77581 13.8849 5.71136 14.113 5.65187C14.2022 5.63699 14.2468 5.56263 14.2171 5.47339C14.2022 5.39902 14.1279 5.33953 14.0386 5.36927C13.8106 5.42877 13.5875 5.48826 13.3693 5.54775ZM14.7823 5.19079C14.7079 5.20567 14.6484 5.29491 14.6782 5.36927C14.693 5.44364 14.7525 5.48826 14.8269 5.48826C14.8368 5.48826 14.8467 5.48826 14.8566 5.48826C15.0847 5.43868 15.3078 5.3891 15.5259 5.33953C15.6152 5.32465 15.6598 5.25029 15.6449 5.17592C15.6301 5.08668 15.5557 5.04206 15.4665 5.05693C15.2483 5.09659 15.0203 5.14122 14.7823 5.19079ZM16.0465 6.81199C16.1209 6.79711 16.1804 6.72275 16.1655 6.63351C16.1506 6.55914 16.0763 6.49965 15.987 6.51452C15.7689 6.55418 15.5507 6.5988 15.3326 6.64838C15.2434 6.66325 15.1987 6.73762 15.2136 6.82686C15.2285 6.90123 15.288 6.94585 15.3623 6.94585C15.3723 6.94585 15.3822 6.94585 15.3921 6.94585C15.6102 6.89627 15.8284 6.85165 16.0465 6.81199ZM16.225 4.92307C16.1506 4.93795 16.0911 5.01231 16.106 5.08668C16.106 5.16105 16.1804 5.22054 16.2547 5.22054C16.2547 5.22054 16.2597 5.22054 16.2696 5.22054C16.4183 5.19079 16.572 5.166 16.7307 5.14617C16.6811 5.05693 16.6365 4.96274 16.5968 4.86358C16.4679 4.88341 16.344 4.90324 16.225 4.92307ZM17.2215 6.63351C17.2017 6.53435 17.1769 6.43519 17.1471 6.33604C17.0083 6.35587 16.8645 6.3757 16.7158 6.39553C16.6414 6.41041 16.582 6.48477 16.5968 6.55914C16.6117 6.63351 16.6712 6.693 16.7456 6.693C16.7555 6.693 16.7604 6.693 16.7604 6.693C16.9191 6.67317 17.0728 6.65334 17.2215 6.63351Z" fill="#800000"/>
<path d="M9.36817 1.35346C9.02608 1.39808 8.63937 1.47245 8.23779 1.57656C7.85108 1.68067 7.43463 1.81453 7.01817 2.00789C6.91406 2.05251 6.80995 2.09713 6.72071 2.14175L6.63147 2.17149L6.60172 2.20124L6.5571 2.21611L6.40837 2.29048C6.2993 2.34997 6.19519 2.40451 6.09603 2.45409C5.99192 2.51358 5.90268 2.58795 5.79857 2.64744C5.69941 2.70693 5.59529 2.76643 5.48622 2.82592C5.39698 2.90029 5.29287 2.97465 5.20363 3.04902C5.09952 3.10851 5.01028 3.18288 4.90617 3.25725L4.63844 3.48035C4.26661 3.79269 3.9394 4.14965 3.62706 4.49173C3.46345 4.67021 3.32959 4.86357 3.18086 5.04205C3.06187 5.2354 2.92801 5.42875 2.80902 5.62211C2.74953 5.71135 2.69003 5.80555 2.63054 5.9047C2.57105 5.99394 2.51156 6.09805 2.46694 6.18729C2.42728 6.28645 2.38265 6.38065 2.33307 6.46989C2.2835 6.56904 2.23888 6.66324 2.19922 6.75248C2.15956 6.85164 2.1199 6.94584 2.08023 7.03508C2.03561 7.12431 2.00587 7.21355 1.97612 7.31767C1.91663 7.49615 1.84226 7.67463 1.79764 7.83823C1.74806 8.01671 1.70344 8.18528 1.66377 8.34393C1.63403 8.49266 1.60428 8.64139 1.57454 8.79013C1.54479 8.92895 1.52496 9.06281 1.51504 9.19171C1.49521 9.31069 1.48034 9.42472 1.47042 9.53379C1.45555 9.74202 1.45555 9.89075 1.44067 10.0097C1.44067 10.1188 1.44067 10.1733 1.44067 10.1733C1.44067 10.1733 1.4853 9.95025 1.55967 9.54867C1.58941 9.44951 1.61916 9.33548 1.6489 9.20658C1.65882 9.14709 1.67369 9.08759 1.69352 9.0281C1.7084 8.96861 1.73815 8.89424 1.75302 8.83475C1.79764 8.70089 1.84225 8.55215 1.88687 8.40342C1.93645 8.25469 1.99099 8.09604 2.05049 7.92747C2.18435 7.61514 2.33308 7.25817 2.51156 6.91609C2.56113 6.82685 2.61071 6.73761 2.66029 6.64837C2.70987 6.55913 2.75944 6.46989 2.80902 6.38065C2.91314 6.20217 3.03212 6.02369 3.15111 5.84521C3.27009 5.66673 3.40396 5.48825 3.53782 5.30977C3.60723 5.23044 3.67663 5.14616 3.74604 5.05692C3.82041 4.96768 3.89477 4.87844 3.96914 4.80407C4.26661 4.46199 4.59383 4.13477 4.95079 3.85218L5.20363 3.62908C5.29287 3.55471 5.38211 3.48035 5.48622 3.42085C5.57546 3.34649 5.6647 3.28699 5.75394 3.21263C5.8531 3.15313 5.9473 3.09364 6.03654 3.03415C6.22989 2.90029 6.42325 2.79617 6.6166 2.69206L6.75045 2.60282L6.79507 2.58795L6.82482 2.57307L6.89919 2.52845C7.0033 2.48383 7.10742 2.42434 7.19666 2.37972C7.58336 2.20124 7.97007 2.03763 8.3419 1.91865C8.72861 1.78479 9.08557 1.69555 9.42765 1.62118C9.76974 1.54681 10.0821 1.48732 10.3647 1.45757C10.6324 1.41295 10.8852 1.39808 11.0935 1.38321C11.3017 1.36833 11.4504 1.35346 11.5694 1.35346C11.6785 1.35346 11.733 1.35346 11.733 1.35346C11.733 1.35346 11.6785 1.3485 11.5694 1.33859C11.4603 1.31876 11.3017 1.29893 11.0935 1.27909C10.8852 1.27909 10.6324 1.26422 10.3498 1.26422C10.0523 1.27909 9.72513 1.29397 9.36817 1.35346Z" fill="#800000"/>
<path d="M28.5997 2.33512C29.5218 2.67721 30.6076 3.01929 31.7974 3.36138C32.9873 3.67372 34.2813 3.94144 35.5752 4.16454C36.8841 4.34302 38.193 4.46201 39.4126 4.53637C40.6471 4.56612 41.7923 4.56612 42.7739 4.5215C43.7556 4.44713 44.5736 4.35789 45.1388 4.28353C45.704 4.19429 46.0312 4.14967 46.0312 4.14967C46.0312 4.14967 45.704 4.11992 45.1388 4.0753C44.5736 4.04555 43.7556 4.00093 42.7888 3.89682C41.822 3.8522 40.6917 3.73321 39.4869 3.58448C38.2822 3.46549 37.0031 3.30189 35.7389 3.07879C34.4597 2.91518 33.1955 2.69208 32.0056 2.43923C30.8306 2.21613 29.7152 1.99303 28.7781 1.74019C27.8262 1.54683 27.038 1.35348 26.4876 1.20475C25.9225 1.07089 25.6101 0.996521 25.6101 0.996521C25.6101 0.996521 25.8927 1.14525 26.4133 1.3981C26.9338 1.63607 27.6775 1.97816 28.5997 2.33512Z" fill="#800000"/>
<path d="M46.8491 11.1104C46.046 11.2591 45.1089 11.4525 44.0976 11.6607C43.1159 11.8987 42.0599 12.1664 41.0039 12.449C39.9628 12.7762 38.9216 13.1183 37.9549 13.4455C37.003 13.8173 36.1106 14.1594 35.352 14.4718C34.6084 14.8139 33.9986 15.0965 33.5524 15.2898C33.1359 15.5129 32.8831 15.6319 32.8831 15.6319C32.8831 15.6319 33.1508 15.5724 33.6119 15.4534C34.0729 15.3344 34.7274 15.1559 35.5156 14.9328C36.3039 14.7097 37.2112 14.442 38.1928 14.1743C39.1596 13.8768 40.2007 13.5794 41.2419 13.2968C42.283 12.9844 43.3241 12.6721 44.2909 12.3895C45.2725 12.092 46.1798 11.8243 46.9532 11.6012C47.7415 11.3484 48.3811 11.155 48.8421 11.0063C49.2883 10.8576 49.5561 10.7683 49.5561 10.7683C49.5561 10.7683 49.2735 10.7981 48.7975 10.8427C48.3364 10.9022 47.6523 11.0063 46.8491 11.1104Z" fill="#800000"/>
</svg>
