<svg width="52" height="23" viewBox="0 0 52 23" fill="none" xmlns="http://www.w3.org/2000/svg">
<path d="M32.8089 17.4166C30.221 18.3388 26.7109 19.484 23.1413 20.0492C21.3565 20.3318 19.5717 20.4657 17.9059 20.4508C17.6679 20.4508 17.4597 20.4359 17.2366 20.4359C16.8647 20.6739 16.4929 20.897 16.0913 21.1052C14.9609 21.6704 13.7562 22.0571 12.5068 22.2356C12.6853 22.2554 12.8737 22.2752 13.072 22.2951C14.5147 22.4438 16.1954 22.4736 17.9654 22.3248C19.7502 22.191 21.6093 21.8637 23.4239 21.3878C27.0678 20.4657 30.4738 18.9783 32.9725 17.8182C34.2219 17.2381 35.263 16.7324 35.977 16.3755C36.7057 16.0185 37.1222 15.8103 37.1222 15.8103C37.1222 15.8103 36.6909 15.9739 35.9323 16.2714C35.1887 16.554 34.1029 16.9555 32.8089 17.4166Z" fill="#EDDC92"/>
<path d="M50.0469 6.05347C48.9017 6.18733 47.2359 6.30631 45.2577 6.33606C41.2865 6.41043 35.9767 5.88986 30.9198 4.43227C28.4062 3.71835 25.9373 2.76646 23.5426 1.9633C21.1629 1.16014 18.8278 0.520586 16.7604 0.237993C15.9275 0.104133 15.1541 0.0446392 14.4253 0.0148926C15.2582 0.282613 16.0465 0.639572 16.805 1.08577C17.6379 1.59147 18.3816 2.1864 19.0509 2.87057C20.3003 3.08871 21.619 3.38618 23.0072 3.76297C25.3869 4.38765 27.9451 5.20569 30.5926 5.756C35.8726 6.91612 41.2865 7.0946 45.2726 6.76739C47.2656 6.60378 48.9165 6.38068 50.0767 6.17245C50.6419 6.08321 51.0881 5.9791 51.4004 5.91961C51.6979 5.86011 51.8615 5.83037 51.8615 5.83037C51.8615 5.83037 51.6979 5.84524 51.4004 5.88986C51.0881 5.91961 50.627 5.99397 50.0469 6.05347Z" fill="#EDDC92"/>
<path d="M45.4509 8.38864C46.2987 8.2994 46.7895 8.23991 46.7895 8.23991C46.7895 8.23991 46.2987 8.25478 45.4361 8.26966C44.5734 8.28453 43.3389 8.2994 41.8665 8.26966C38.9216 8.21016 34.9801 7.98706 31.1725 7.1839C27.365 6.44024 23.7656 4.96778 20.8504 4.10512C20.5232 4.00597 20.2059 3.91673 19.8986 3.8374C20.3596 4.41746 20.7612 5.04214 21.1033 5.71144C21.252 6.00891 21.3859 6.32125 21.5197 6.63359C22.6352 6.88644 23.8549 7.1839 25.1786 7.49624C26.9783 7.92757 28.9713 8.32915 30.9643 8.53738C34.9504 9.01332 38.9216 8.89434 41.8813 8.70098C43.3538 8.59687 44.5883 8.47788 45.4509 8.38864Z" fill="#EDDC92"/>
<path d="M38.535 10.575C39.1151 10.5006 39.4423 10.456 39.4423 10.456C39.4423 10.456 39.1151 10.456 38.5201 10.456C37.9401 10.4709 37.0923 10.456 36.0958 10.4114C34.0879 10.3519 31.4255 10.1139 28.793 9.68257C26.3091 9.26612 23.855 8.67118 21.9958 8.13574C22.1942 8.90916 22.3082 9.69248 22.3379 10.4857C24.1822 10.7386 26.4281 10.9617 28.6591 11.0509C31.3809 11.1402 34.0879 11.036 36.1106 10.8427C37.1072 10.7534 37.9549 10.6642 38.535 10.575Z" fill="#EDDC92"/>
<path d="M34.4894 12.4044C34.4894 12.4044 33.478 12.4788 31.9907 12.5085C30.4885 12.5532 28.4806 12.5085 26.5173 12.3152C25.03 12.1813 23.5575 11.9731 22.3081 11.75C22.2586 12.454 22.1396 13.1531 21.9512 13.8471C23.3046 13.862 24.911 13.8174 26.5024 13.6984C28.5401 13.5348 30.548 13.2373 32.0353 12.9399C33.5077 12.6573 34.4894 12.4044 34.4894 12.4044Z" fill="#EDDC92"/>
<path d="M30.2207 15.0816C30.2207 15.0816 29.3878 15.2006 28.1236 15.2898C26.8593 15.3939 25.1787 15.3939 23.5277 15.2452C22.8584 15.1857 22.204 15.0964 21.5793 15.0072C21.3314 15.6418 21.0389 16.2417 20.7018 16.8069C21.6091 16.792 22.5758 16.7325 23.5575 16.6284C25.2828 16.4202 26.9635 16.0632 28.1979 15.7211C29.4324 15.379 30.2207 15.0816 30.2207 15.0816Z" fill="#EDDC92"/>
<path d="M24.3906 18.443C25.4317 18.0861 26.1159 17.8035 26.1159 17.8035C26.1159 17.8035 25.3871 17.9225 24.3014 18.0266C23.2007 18.1307 21.758 18.1902 20.3153 18.1456C20.1368 18.1356 19.9583 18.1257 19.7799 18.1158C19.2296 18.7851 18.6197 19.3949 17.9504 19.9304C18.7387 19.8262 19.5865 19.6924 20.4343 19.5139C21.9067 19.2164 23.3346 18.8 24.3906 18.443Z" fill="#EDDC92"/>
<path d="M9.04123 19.5435C9.18997 19.4989 9.38332 19.4543 9.59155 19.3948C9.79977 19.3254 10.0328 19.2411 10.2906 19.142C10.7814 18.9486 11.3466 18.666 11.9267 18.2942C12.0655 18.2049 12.2093 18.1108 12.358 18.0116C12.4968 17.9124 12.6356 17.8034 12.7744 17.6844C12.9232 17.5803 13.057 17.4613 13.1909 17.3423C13.3297 17.2233 13.4636 17.0994 13.5925 16.9705C13.8602 16.7176 14.113 16.4499 14.3361 16.1822C14.3857 16.1128 14.4403 16.0434 14.4997 15.9739C14.5592 15.9045 14.6138 15.8302 14.6634 15.7508C14.7129 15.6814 14.7625 15.612 14.8121 15.5426C14.8617 15.4732 14.9112 15.4038 14.9608 15.3344C15.0501 15.1857 15.1393 15.0518 15.2285 14.9031C15.3029 14.7692 15.3921 14.6353 15.4516 14.4866C15.526 14.3528 15.6004 14.2189 15.6599 14.085C15.7194 13.9462 15.7739 13.8173 15.8235 13.6983C15.9276 13.4455 16.0168 13.2075 16.0763 12.9993C16.1358 12.7911 16.1804 12.6126 16.2251 12.449C16.2548 12.3002 16.2697 12.1812 16.2845 12.092C16.3044 12.0127 16.3143 11.973 16.3143 11.973C16.3143 11.973 16.2895 12.0077 16.2399 12.0771C16.2102 12.1515 16.1358 12.2556 16.0614 12.3895C15.9871 12.5233 15.883 12.6869 15.7789 12.8654C15.7293 12.9646 15.6698 13.0637 15.6004 13.1629C15.5409 13.2521 15.4665 13.3711 15.3921 13.4752C15.2583 13.6835 15.0947 13.9214 14.9311 14.1594C14.8418 14.2784 14.7476 14.4023 14.6485 14.5312C14.6088 14.5907 14.5642 14.6502 14.5146 14.7097C14.465 14.7692 14.4155 14.8337 14.3659 14.9031C14.3163 14.9626 14.2667 15.0221 14.2172 15.0815C14.1577 15.151 14.1031 15.2154 14.0535 15.2749C13.9445 15.4038 13.8354 15.5277 13.7263 15.6467C13.4983 15.8946 13.2603 16.1376 13.0124 16.3755C12.8934 16.4945 12.7695 16.6135 12.6406 16.7325C12.5216 16.8366 12.4026 16.9556 12.2687 17.0597C12.0109 17.2878 11.7531 17.5009 11.4953 17.6993C11.2474 17.8976 10.9996 18.081 10.7517 18.2496C10.5137 18.428 10.2757 18.5768 10.0675 18.7255C9.62129 19.0081 9.24946 19.2312 8.98174 19.3799C8.84292 19.4593 8.73881 19.5188 8.6694 19.5584C8.59008 19.5981 8.55042 19.6179 8.55042 19.6179C8.55042 19.6278 8.59503 19.6229 8.68427 19.603C8.77351 19.5882 8.8925 19.5733 9.04123 19.5435Z" fill="#EDDC92"/>
<path d="M2.63086 15.7658C2.68044 15.865 2.73498 15.9592 2.79447 16.0484C2.88371 15.9195 2.97295 15.7956 3.06219 15.6766C3.12168 15.6171 3.10681 15.513 3.03244 15.4684C2.97295 15.4089 2.88371 15.4237 2.82422 15.4981C2.76473 15.5873 2.70027 15.6766 2.63086 15.7658Z" fill="#EDDC92"/>
<path d="M3.30018 15.141C3.32993 15.1609 3.35968 15.1708 3.38943 15.1708C3.43405 15.1708 3.47867 15.1559 3.50841 15.1113C3.64723 14.9427 3.78605 14.7742 3.92487 14.6056C3.98436 14.5461 3.96949 14.4569 3.91 14.3974C3.8505 14.3379 3.76126 14.3528 3.70177 14.4122C3.55303 14.5808 3.40926 14.7494 3.27044 14.9179C3.22582 14.9923 3.22582 15.0815 3.30018 15.141Z" fill="#EDDC92"/>
<path d="M4.19233 14.085C4.22207 14.1147 4.25678 14.1296 4.29644 14.1296C4.34106 14.1296 4.37081 14.1147 4.40056 14.0701C4.54929 13.9115 4.70298 13.7578 4.86163 13.609C4.92112 13.5495 4.92112 13.4454 4.86163 13.3859C4.80213 13.3264 4.69802 13.3264 4.6534 13.3859C4.49475 13.5446 4.34106 13.7082 4.19233 13.8767C4.13283 13.9362 4.13283 14.0255 4.19233 14.085Z" fill="#EDDC92"/>
<path d="M5.15933 13.0886C5.18908 13.1183 5.23371 13.1332 5.27833 13.1332C5.30807 13.1332 5.34277 13.1233 5.38243 13.1034C5.53116 12.9547 5.68982 12.806 5.85838 12.6572C5.91787 12.5978 5.93275 12.5085 5.87326 12.4341C5.81376 12.3747 5.72452 12.3747 5.66503 12.4341C5.49646 12.5829 5.33286 12.7316 5.17421 12.8803C5.11472 12.9398 5.09984 13.0291 5.15933 13.0886Z" fill="#EDDC92"/>
<path d="M6.20022 12.1664C6.22997 12.1961 6.2746 12.211 6.31922 12.211C6.34897 12.211 6.37871 12.2011 6.40846 12.1812C6.57702 12.0424 6.74559 11.9036 6.91415 11.7648C6.98852 11.7202 7.00338 11.616 6.94389 11.5565C6.89927 11.4971 6.79516 11.4822 6.73567 11.5268C6.55719 11.6656 6.38367 11.8044 6.2151 11.9433C6.15561 12.0027 6.14073 12.092 6.20022 12.1664Z" fill="#EDDC92"/>
<path d="M7.28608 11.3037C7.31583 11.3335 7.36044 11.3632 7.40506 11.3632C7.44473 11.3632 7.47447 11.3533 7.4943 11.3335C7.67278 11.2046 7.85622 11.0757 8.04461 10.9468C8.10411 10.9022 8.11898 10.8129 8.07436 10.7386C8.02974 10.6791 7.9405 10.6642 7.86613 10.7088C7.68765 10.8278 7.50421 10.9567 7.31582 11.0955C7.25632 11.1401 7.24146 11.2294 7.28608 11.3037Z" fill="#EDDC92"/>
<path d="M8.43149 10.5006C8.46123 10.5601 8.52073 10.575 8.56535 10.575C8.5951 10.575 8.61989 10.57 8.63972 10.5601C8.82811 10.4411 9.01651 10.3221 9.2049 10.2031C9.27927 10.1734 9.30902 10.0693 9.2644 10.0098C9.21978 9.93541 9.13053 9.90567 9.05617 9.95029C8.86777 10.0594 8.67938 10.1783 8.49098 10.3072C8.41662 10.3519 8.38687 10.4411 8.43149 10.5006Z" fill="#EDDC92"/>
<path d="M9.6362 9.78667C9.66595 9.84616 9.71056 9.87591 9.77005 9.87591C9.78989 9.87591 9.81467 9.86599 9.84442 9.84616C10.0328 9.747 10.2262 9.64785 10.4245 9.54869C10.4989 9.50407 10.5286 9.41483 10.484 9.34047C10.4542 9.2661 10.365 9.23635 10.2906 9.28097C10.0923 9.38013 9.894 9.48424 9.69569 9.59331C9.62132 9.62306 9.59158 9.7123 9.6362 9.78667Z" fill="#EDDC92"/>
<path d="M10.8708 9.14709C10.9005 9.20658 10.96 9.23633 11.0195 9.23633C11.0393 9.23633 11.0592 9.23137 11.079 9.22146C11.2773 9.13222 11.4756 9.04297 11.6739 8.95373C11.7483 8.92399 11.7929 8.83475 11.7632 8.76038C11.7186 8.68602 11.6442 8.6414 11.5549 8.68602C11.3566 8.76534 11.1534 8.85458 10.9451 8.95373C10.8708 8.98348 10.841 9.07272 10.8708 9.14709Z" fill="#EDDC92"/>
<path d="M12.1498 8.59677C12.1796 8.65627 12.2391 8.68601 12.2986 8.68601C12.3184 8.68601 12.3382 8.68601 12.3581 8.68601C12.5564 8.60669 12.7596 8.52736 12.9679 8.44804C13.0422 8.41829 13.0868 8.32905 13.0571 8.25469C13.0274 8.18032 12.953 8.1357 12.8637 8.16545C12.6555 8.24477 12.4473 8.32409 12.2391 8.40342C12.1647 8.43317 12.1201 8.52241 12.1498 8.59677Z" fill="#EDDC92"/>
<path d="M13.4736 8.12088C13.4884 8.18037 13.5479 8.22499 13.6074 8.22499C13.6272 8.22499 13.6421 8.22499 13.652 8.22499C13.8702 8.15558 14.0834 8.09113 14.2916 8.03164C14.366 8.00189 14.4106 7.92753 14.3957 7.83829C14.366 7.76392 14.2916 7.7193 14.2023 7.73417C13.9941 7.79367 13.7809 7.85812 13.5628 7.92753C13.4884 7.95727 13.4438 8.04651 13.4736 8.12088Z" fill="#EDDC92"/>
<path d="M14.8119 7.73421C14.8268 7.80857 14.8863 7.85319 14.9458 7.85319C14.9656 7.85319 14.9805 7.84823 14.9904 7.83832C15.1986 7.78874 15.4118 7.73916 15.6299 7.68959C15.7043 7.67471 15.7638 7.60035 15.7489 7.51111C15.7192 7.43674 15.6448 7.37725 15.5704 7.40699C15.3523 7.44665 15.1342 7.49623 14.916 7.55573C14.8268 7.5706 14.7822 7.65984 14.8119 7.73421Z" fill="#EDDC92"/>
<path d="M17.1026 7.27314C17.1026 7.19877 17.0133 7.13928 16.939 7.15415C16.7208 7.1839 16.5027 7.2186 16.2845 7.25826C16.1953 7.27314 16.1507 7.3475 16.1655 7.43674C16.1804 7.51111 16.2399 7.55573 16.3143 7.55573C16.3242 7.55573 16.3292 7.55573 16.3292 7.55573C16.5473 7.51607 16.7654 7.48136 16.9836 7.45162C17.0728 7.43674 17.1174 7.36238 17.1026 7.27314Z" fill="#EDDC92"/>
<path d="M3.19584 16.4648C3.31483 16.2863 3.43877 16.1128 3.56767 15.9442C3.62717 15.8699 3.61229 15.7806 3.5528 15.736C3.47843 15.6765 3.38919 15.6914 3.3297 15.7509C3.20079 15.9293 3.0719 16.1078 2.94299 16.2863C2.94299 16.2863 2.94299 16.2913 2.94299 16.3012C2.97274 16.3508 2.99753 16.3954 3.01736 16.435C3.03719 16.4648 3.05702 16.4945 3.07685 16.5243C3.12147 16.5094 3.16609 16.4945 3.19584 16.4648Z" fill="#EDDC92"/>
<path d="M3.80567 15.4088C3.83542 15.4286 3.86516 15.4385 3.89491 15.4385C3.93953 15.4385 3.98416 15.4237 4.0139 15.3939C4.15272 15.2254 4.29154 15.0617 4.43036 14.9031C4.48985 14.8287 4.48984 14.7395 4.41548 14.68C4.35598 14.6354 4.26675 14.6354 4.20726 14.6949C4.06844 14.8634 3.92962 15.032 3.7908 15.2006C3.73131 15.2601 3.74618 15.3493 3.80567 15.4088Z" fill="#EDDC92"/>
<path d="M4.69831 14.3825C4.72805 14.4023 4.76276 14.4122 4.80242 14.4122C4.84704 14.4122 4.89166 14.3974 4.92141 14.3676C5.06022 14.2189 5.20896 14.0652 5.36761 13.9065C5.4271 13.847 5.4271 13.7578 5.36761 13.6983C5.30811 13.6388 5.21887 13.6388 5.15938 13.6983C5.00073 13.847 4.84704 14.0007 4.69831 14.1594C4.63881 14.2189 4.63881 14.323 4.69831 14.3825Z" fill="#EDDC92"/>
<path d="M5.66495 13.4008C5.6947 13.4306 5.73931 13.4455 5.78393 13.4455C5.81368 13.4455 5.84839 13.4355 5.88805 13.4157C6.0467 13.267 6.20535 13.1232 6.364 12.9844C6.42349 12.9249 6.43836 12.8356 6.37887 12.7613C6.31937 12.7018 6.23014 12.7018 6.17065 12.7464C6.00208 12.8951 5.83847 13.0439 5.67982 13.1926C5.62033 13.2521 5.60546 13.3413 5.66495 13.4008Z" fill="#EDDC92"/>
<path d="M6.72085 12.2854C6.66135 12.33 6.64649 12.4341 6.69111 12.4936C6.72085 12.5383 6.76547 12.5531 6.81009 12.5531C6.84975 12.5531 6.88446 12.5432 6.91421 12.5234C7.08277 12.3846 7.25133 12.2507 7.4199 12.1218C7.47939 12.0623 7.49426 11.9731 7.44964 11.8987C7.40502 11.8392 7.30091 11.8243 7.24141 11.869C7.06293 12.0078 6.88941 12.1466 6.72085 12.2854Z" fill="#EDDC92"/>
<path d="M7.79196 11.6607C7.82171 11.6904 7.86632 11.7202 7.91094 11.7202C7.94069 11.7202 7.97044 11.7103 8.00019 11.6904C8.17867 11.5615 8.35715 11.4376 8.53563 11.3186C8.59512 11.274 8.62486 11.1847 8.58024 11.1104C8.53562 11.036 8.43152 11.0211 8.37202 11.0657C8.18363 11.1947 8.00019 11.3186 7.82171 11.4376C7.74734 11.4971 7.73247 11.5863 7.79196 11.6607Z" fill="#EDDC92"/>
<path d="M8.9222 10.8872C8.95195 10.9318 9.01144 10.9616 9.05606 10.9616C9.0858 10.9616 9.11059 10.9516 9.13042 10.9318C9.31882 10.8227 9.50721 10.7137 9.69561 10.6046C9.76997 10.56 9.79972 10.4707 9.75511 10.3964C9.71049 10.322 9.62124 10.2923 9.54687 10.3369C9.35848 10.446 9.17009 10.56 8.98169 10.679C8.90732 10.7236 8.89246 10.8128 8.9222 10.8872Z" fill="#EDDC92"/>
<path d="M10.1268 10.1882C10.1417 10.2329 10.2012 10.2626 10.2458 10.2626C10.2755 10.2626 10.3003 10.2576 10.3202 10.2477C10.5185 10.1486 10.7118 10.0494 10.9002 9.95026C10.9746 9.92052 11.0043 9.83127 10.9746 9.75691C10.93 9.68254 10.8407 9.65279 10.7664 9.68254C10.578 9.7817 10.3846 9.88085 10.1863 9.98001C10.1119 10.0246 10.0822 10.1139 10.1268 10.1882Z" fill="#EDDC92"/>
<path d="M11.3465 9.57848C11.3762 9.6231 11.4357 9.66772 11.4952 9.66772C11.515 9.66772 11.5349 9.66277 11.5547 9.65285C11.753 9.56361 11.9513 9.47437 12.1496 9.38513C12.224 9.35538 12.2686 9.26615 12.2389 9.19178C12.1943 9.11741 12.1199 9.07279 12.0307 9.11741C11.8323 9.19674 11.634 9.28102 11.4357 9.37026C11.3465 9.4 11.3167 9.48924 11.3465 9.57848Z" fill="#EDDC92"/>
<path d="M12.8191 9.11733C13.0174 9.04792 13.2207 8.97851 13.4289 8.9091C13.5033 8.87935 13.5479 8.79011 13.5182 8.71574C13.5033 8.64138 13.4141 8.59676 13.3397 8.62651C13.1315 8.69591 12.9232 8.77028 12.715 8.84961C12.6407 8.86448 12.596 8.95372 12.6258 9.04296C12.6406 9.10245 12.7001 9.1322 12.7596 9.1322C12.7795 9.1322 12.7993 9.12724 12.8191 9.11733Z" fill="#EDDC92"/>
<path d="M14.0683 8.68607C14.0882 8.68607 14.103 8.68607 14.1129 8.68607C14.3212 8.62658 14.5294 8.56709 14.7376 8.50759C14.812 8.47785 14.8715 8.40348 14.8417 8.31424C14.8269 8.23987 14.7376 8.19525 14.6633 8.21013C14.4451 8.26962 14.2319 8.33407 14.0237 8.40348C13.9493 8.41835 13.9047 8.50759 13.9196 8.58196C13.9493 8.65633 14.0088 8.68607 14.0683 8.68607Z" fill="#EDDC92"/>
<path d="M15.2434 8.22493C15.2731 8.28442 15.3326 8.32904 15.3921 8.32904C15.402 8.32904 15.4169 8.32904 15.4367 8.32904C15.645 8.27947 15.8532 8.23484 16.0614 8.19518C16.1507 8.18031 16.1953 8.09107 16.1804 8.0167C16.1655 7.92746 16.0912 7.88284 16.0019 7.89772C15.7937 7.93738 15.5805 7.982 15.3624 8.03158C15.288 8.06132 15.2285 8.13569 15.2434 8.22493Z" fill="#EDDC92"/>
<path d="M2.03584 12.092C2.09533 12.0326 2.09534 11.9433 2.02097 11.8838C1.96148 11.8243 1.87223 11.8392 1.81274 11.8987C1.7235 11.9978 1.62931 12.102 1.53015 12.211C1.54998 12.3399 1.56485 12.4639 1.57477 12.5829C1.58469 12.5928 1.58964 12.6077 1.58964 12.6275C1.73837 12.449 1.88711 12.2705 2.03584 12.092Z" fill="#EDDC92"/>
<path d="M3.04724 10.8278C2.98775 10.7683 2.89851 10.7683 2.83901 10.8278C2.67045 10.9865 2.50188 11.1501 2.33332 11.3186C2.2887 11.393 2.2887 11.4822 2.3482 11.5417C2.37794 11.5715 2.41265 11.5864 2.45231 11.5864C2.48206 11.5864 2.52667 11.5566 2.55642 11.5269C2.71507 11.3682 2.87868 11.2046 3.04724 11.036C3.10674 10.9766 3.10674 10.8873 3.04724 10.8278Z" fill="#EDDC92"/>
<path d="M4.13289 9.81645C4.0734 9.75696 3.98415 9.75696 3.92466 9.80158C3.74618 9.96023 3.5677 10.1189 3.38922 10.2775C3.32973 10.337 3.32973 10.4263 3.38922 10.5006C3.41897 10.5304 3.46359 10.5452 3.49334 10.5452C3.533 10.5452 3.5677 10.5304 3.59745 10.5006C3.76601 10.342 3.93953 10.1883 4.11801 10.0396C4.17751 9.98006 4.19238 9.89082 4.13289 9.81645Z" fill="#EDDC92"/>
<path d="M5.27809 8.89422C5.23347 8.81985 5.14423 8.80498 5.06986 8.86447C4.88147 9.00329 4.69803 9.14706 4.51955 9.2958C4.44518 9.35529 4.44518 9.44453 4.4898 9.5189C4.51955 9.54864 4.56418 9.56352 4.6088 9.56352C4.64846 9.56352 4.68315 9.5536 4.7129 9.53377C4.89138 9.38504 5.07482 9.24126 5.26322 9.10244C5.32271 9.04295 5.33759 8.95371 5.27809 8.89422Z" fill="#EDDC92"/>
<path d="M6.49801 8.03163C6.45339 7.95727 6.34928 7.94239 6.28979 7.98701C6.09147 8.11591 5.89316 8.24978 5.69485 8.38859C5.63536 8.44809 5.62048 8.53733 5.6651 8.59682C5.69485 8.64144 5.73947 8.67119 5.78409 8.67119C5.81384 8.67119 5.84359 8.66127 5.87333 8.64144C6.06173 8.50262 6.25508 8.36876 6.45339 8.23986C6.52776 8.19524 6.54263 8.09113 6.49801 8.03163Z" fill="#EDDC92"/>
<path d="M7.70265 7.45152C7.77702 7.4069 7.79189 7.31766 7.74727 7.24329C7.71752 7.16892 7.61341 7.15405 7.55392 7.1838C7.34569 7.3127 7.14242 7.43664 6.94411 7.55563C6.86974 7.60025 6.85487 7.68949 6.89949 7.76386C6.91436 7.80848 6.97385 7.83822 7.01847 7.83822C7.04822 7.83822 7.07797 7.82831 7.10772 7.80848C7.29611 7.68949 7.49443 7.5705 7.70265 7.45152Z" fill="#EDDC92"/>
<path d="M8.99665 6.73765C9.07102 6.7079 9.10077 6.60379 9.07102 6.52942C9.0264 6.45506 8.93716 6.44018 8.86279 6.46993C8.64465 6.579 8.43642 6.68807 8.23811 6.79714C8.16374 6.84176 8.134 6.931 8.16374 7.00537C8.19349 7.04999 8.25299 7.07974 8.29761 7.07974C8.32735 7.07974 8.35214 7.07478 8.37197 7.06486C8.5802 6.95579 8.78843 6.84672 8.99665 6.73765Z" fill="#EDDC92"/>
<path d="M10.4094 5.91961C10.3796 5.83037 10.2904 5.80062 10.216 5.83037C9.99787 5.92952 9.77974 6.02868 9.5616 6.12783C9.48723 6.15758 9.45748 6.24682 9.48723 6.32119C9.51698 6.38068 9.57647 6.41043 9.63596 6.41043C9.65579 6.41043 9.67562 6.40547 9.69545 6.39556C9.91359 6.2964 10.1268 6.2022 10.335 6.11296C10.4094 6.08322 10.454 5.99398 10.4094 5.91961Z" fill="#EDDC92"/>
<path d="M11.7928 5.36931C11.7779 5.29494 11.6887 5.25032 11.6143 5.28007C11.3862 5.35939 11.1631 5.44368 10.945 5.53292C10.8706 5.56266 10.826 5.6519 10.8558 5.72627C10.8855 5.78576 10.9301 5.83038 10.9896 5.83038C11.0094 5.83038 11.0293 5.82542 11.0491 5.81551C11.2672 5.72627 11.4854 5.64199 11.7035 5.56266C11.7928 5.53292 11.8225 5.45855 11.7928 5.36931Z" fill="#EDDC92"/>
<path d="M13.2206 4.92312C13.1908 4.84876 13.1016 4.80414 13.0272 4.81901C12.7992 4.88842 12.5711 4.95783 12.3431 5.02724C12.2687 5.05698 12.2241 5.14622 12.2538 5.22059C12.2687 5.28008 12.3282 5.3247 12.3877 5.3247C12.4075 5.3247 12.4273 5.3247 12.4472 5.3247C12.6653 5.24538 12.8884 5.17597 13.1165 5.11648C13.1908 5.08673 13.2355 4.99749 13.2206 4.92312Z" fill="#EDDC92"/>
<path d="M14.6484 4.56614C14.6335 4.4769 14.5592 4.43228 14.4699 4.44715C14.2419 4.49673 14.0138 4.55127 13.7857 4.61076C13.6965 4.64051 13.6519 4.71487 13.6668 4.80411C13.6965 4.86361 13.756 4.90823 13.8155 4.90823C13.8254 4.90823 13.8403 4.90823 13.8601 4.90823C14.0882 4.84873 14.3162 4.7942 14.5443 4.74462C14.6187 4.72975 14.6633 4.64051 14.6484 4.56614Z" fill="#EDDC92"/>
<path d="M15.2283 4.29841C15.154 4.31328 15.0945 4.38765 15.1094 4.46202C15.1242 4.53638 15.1986 4.59588 15.2581 4.59588C15.268 4.59588 15.2779 4.59092 15.2878 4.581C15.5159 4.54134 15.7439 4.50168 15.972 4.46202C16.0612 4.46202 16.1207 4.37278 16.1059 4.29841C16.091 4.20917 16.0166 4.16455 15.9274 4.16455C15.6993 4.20421 15.4663 4.24883 15.2283 4.29841Z" fill="#EDDC92"/>
<path d="M1.85731 11.4377C1.9168 11.3782 1.9168 11.2741 1.85731 11.2294C1.79781 11.1699 1.6937 11.1699 1.64908 11.2294C1.58958 11.2889 1.53505 11.3484 1.48547 11.4079C1.48547 11.4773 1.48547 11.5418 1.48547 11.6013V11.6905C1.48547 11.7054 1.50035 11.7351 1.48547 11.7351L1.50034 11.7649C1.50034 11.7946 1.50034 11.8194 1.50034 11.8392C1.61933 11.7103 1.73832 11.5765 1.85731 11.4377Z" fill="#EDDC92"/>
<path d="M2.89844 10.3816C2.95793 10.3221 2.95793 10.218 2.89844 10.1585C2.83895 10.099 2.7497 10.099 2.69021 10.1585C2.52165 10.3271 2.35308 10.4956 2.18451 10.6642C2.12502 10.7237 2.12502 10.8129 2.18451 10.8724C2.21426 10.9022 2.24897 10.9171 2.28863 10.9171C2.33325 10.9171 2.363 10.9022 2.39274 10.8724C2.56131 10.7039 2.72988 10.5403 2.89844 10.3816Z" fill="#EDDC92"/>
<path d="M3.9991 9.37023C4.0586 9.32561 4.07347 9.22149 4.01398 9.162C3.95449 9.10251 3.86524 9.08763 3.80575 9.14713C3.61736 9.30578 3.43392 9.46442 3.25544 9.62307C3.19594 9.68257 3.19594 9.77181 3.25544 9.8313C3.28518 9.86105 3.31493 9.87592 3.35955 9.87592C3.39921 9.87592 3.43392 9.866 3.46367 9.84617C3.64215 9.68752 3.82062 9.52888 3.9991 9.37023Z" fill="#EDDC92"/>
<path d="M4.98073 8.21005C4.78242 8.34887 4.59402 8.49264 4.41554 8.64138C4.34117 8.70087 4.34118 8.79011 4.3858 8.8496C4.41555 8.89422 4.46017 8.9091 4.50479 8.9091C4.53453 8.9091 4.56428 8.89918 4.59402 8.87935C4.78242 8.73062 4.97081 8.58684 5.15921 8.44802C5.2187 8.38853 5.23358 8.29929 5.18896 8.2398C5.14434 8.16543 5.04023 8.15056 4.98073 8.21005Z" fill="#EDDC92"/>
<path d="M5.70961 8.01677C5.73936 8.01677 5.76415 8.00685 5.78398 7.98702C5.98229 7.8482 6.1806 7.71434 6.37891 7.58544C6.45328 7.54082 6.46815 7.45158 6.42353 7.37721C6.37891 7.30285 6.28968 7.28797 6.21531 7.33259C6.017 7.4615 5.81869 7.59536 5.62038 7.73417C5.54601 7.79367 5.53114 7.88291 5.57576 7.9424C5.60551 7.98702 5.65012 8.01677 5.70961 8.01677Z" fill="#EDDC92"/>
<path d="M6.9589 7.18383C6.98864 7.18383 7.01343 7.17887 7.03326 7.16896C7.24149 7.04006 7.44972 6.91611 7.65794 6.79713C7.71744 6.76738 7.74718 6.67814 7.70256 6.60377C7.67282 6.52941 7.5687 6.49966 7.49433 6.54428C7.29602 6.66327 7.09276 6.78721 6.88453 6.91611C6.81016 6.96073 6.79529 7.04997 6.82503 7.12434C6.85478 7.16896 6.91428 7.18383 6.9589 7.18383Z" fill="#EDDC92"/>
<path d="M9.04116 5.90474C8.99654 5.83037 8.90729 5.80062 8.83293 5.83037C8.61479 5.93944 8.4016 6.04851 8.19338 6.15758C8.11901 6.2022 8.08926 6.29144 8.13388 6.36581C8.16363 6.41043 8.20825 6.44018 8.26774 6.44018C8.28757 6.44018 8.31236 6.43522 8.34211 6.4253C8.55034 6.31623 8.75856 6.20716 8.96679 6.09809C9.04116 6.06834 9.0709 5.9791 9.04116 5.90474Z" fill="#EDDC92"/>
<path d="M10.4096 5.2801C10.3799 5.20573 10.2906 5.17599 10.2162 5.20573C9.99811 5.29497 9.77501 5.38917 9.54695 5.48833C9.47258 5.53295 9.44283 5.62219 9.47258 5.69655C9.50233 5.74117 9.56182 5.7858 9.62131 5.7858C9.64115 5.7858 9.66098 5.78084 9.68081 5.77092C9.89895 5.67177 10.1171 5.57261 10.3352 5.47345C10.4096 5.44371 10.4394 5.35447 10.4096 5.2801Z" fill="#EDDC92"/>
<path d="M11.8225 4.7595C11.7928 4.67026 11.7035 4.64051 11.6292 4.65539C11.4011 4.73471 11.173 4.81899 10.945 4.90823C10.8706 4.93798 10.826 5.02722 10.8558 5.10159C10.8855 5.16108 10.945 5.2057 11.0045 5.2057C11.0243 5.2057 11.0441 5.20074 11.064 5.19083C11.2821 5.10159 11.5003 5.0173 11.7184 4.93798C11.8076 4.92311 11.8523 4.83387 11.8225 4.7595Z" fill="#EDDC92"/>
<path d="M13.2504 4.31323C13.2355 4.23886 13.1463 4.17937 13.0719 4.20912C12.8339 4.26861 12.6009 4.33802 12.3728 4.41734C12.2985 4.43222 12.2539 4.52146 12.2836 4.59582C12.2985 4.67019 12.358 4.69994 12.4175 4.69994C12.4373 4.69994 12.4522 4.69994 12.4621 4.69994C12.6901 4.63053 12.9182 4.56112 13.1463 4.49171C13.2206 4.47684 13.2801 4.3876 13.2504 4.31323Z" fill="#EDDC92"/>
<path d="M14.5891 4.13481C14.6783 4.11993 14.723 4.04557 14.7081 3.95633C14.6932 3.88196 14.604 3.83734 14.5296 3.85222C14.2916 3.90179 14.0586 3.95137 13.8306 4.00095C13.7562 4.0307 13.6967 4.10506 13.7265 4.1943C13.7413 4.25379 13.8008 4.29842 13.8603 4.29842C13.8801 4.29842 13.895 4.29842 13.9049 4.29842C14.133 4.23892 14.361 4.18439 14.5891 4.13481Z" fill="#EDDC92"/>
<path fill-rule="evenodd" clip-rule="evenodd" d="M16.5225 1.5617C18.2626 2.61771 19.6905 4.13479 20.6126 5.96421C21.9364 8.55217 22.1595 11.512 21.2671 14.2784C20.3598 17.0448 18.4411 19.2907 15.8383 20.6144C14.3212 21.3879 12.6108 21.8043 10.9152 21.8043C8.92218 21.8043 6.98866 21.254 5.27822 20.2426C3.53804 19.1866 2.12508 17.6695 1.18806 15.8401C0.741857 14.9626 0.414644 14.0404 0.221291 13.0885C0.211375 13.0687 0.206412 13.0439 0.206412 13.0142C-0.150548 11.1996 -0.0464331 9.32558 0.533627 7.52591C1.4409 4.75947 3.35956 2.51359 5.96239 1.18987C7.47947 0.416453 9.18991 0 10.9003 0C12.8785 0 14.812 0.53544 16.5225 1.5617ZM16.5076 2.60283C15.6747 2.0079 14.693 1.50221 13.5924 1.18987C13.057 1.04113 12.4918 0.922146 11.9117 0.862653C11.763 0.84778 11.6143 0.818033 11.4655 0.818033C11.3267 0.808118 11.1829 0.798202 11.0342 0.788286C10.9846 0.798202 10.94 0.80316 10.9003 0.80316C10.7913 0.80316 10.6822 0.80316 10.5731 0.80316C10.4244 0.80316 10.2905 0.818033 10.1418 0.818033C8.95193 0.907273 7.76207 1.20474 6.66144 1.71043C5.56082 2.21613 4.5643 2.93005 3.71652 3.77783C2.88362 4.62561 2.22919 5.62212 1.76811 6.66325C1.53014 7.16895 1.33678 7.68951 1.2178 8.22495C1.08394 8.74552 0.994698 9.28096 0.950078 9.78665C0.900501 10.3023 0.890583 10.803 0.92033 11.2889C0.930246 11.4078 0.940163 11.5268 0.950078 11.6458L0.964957 11.7202V11.7797L0.979827 11.8243C0.979827 11.8739 0.984781 11.9284 0.994697 11.9879C1.02444 12.2259 1.06907 12.449 1.11369 12.6721C1.20293 13.1084 1.31696 13.5149 1.45578 13.8917C1.60451 14.2784 1.73837 14.6354 1.90198 14.9626C2.21432 15.6021 2.57127 16.1227 2.88361 16.5243C3.19595 16.9407 3.49342 17.2233 3.6719 17.4167C3.82063 17.5654 3.91483 17.6546 3.95449 17.6844C5.17411 18.9338 6.69119 19.8113 8.32726 20.2575C9.94845 20.0195 15.1244 18.785 16.9835 12.6275C17.519 10.8575 17.6082 9.29583 17.4595 7.94236C17.4496 7.95227 17.4347 7.96219 17.4149 7.97211C17.1967 8.00185 16.9786 8.0316 16.7604 8.06135C16.7604 8.06135 16.7555 8.06135 16.7456 8.06135C16.6712 8.06135 16.6117 8.01673 16.5968 7.94236C16.582 7.85312 16.6414 7.77875 16.7158 7.76388C16.934 7.73413 17.1521 7.70439 17.3702 7.67464C17.3901 7.66472 17.4099 7.66472 17.4297 7.67464C17.3901 7.38709 17.3405 7.1045 17.281 6.82686C11.4804 7.57053 5.91778 10.798 2.49691 15.498C2.39775 15.2898 2.2986 15.0667 2.19944 14.8287C2.06558 14.5015 1.94659 14.1445 1.84248 13.7727C1.82265 13.7132 1.80778 13.6537 1.79786 13.5942C1.87718 13.4951 1.96147 13.391 2.05071 13.2819C2.1102 13.2075 2.09532 13.1183 2.03583 13.0588C1.97634 13.0142 1.87223 13.0142 1.82761 13.0885C1.78795 13.1381 1.74829 13.1877 1.70862 13.2373C1.68879 13.1381 1.66896 13.0439 1.64913 12.9547C5.29309 8.49267 10.7665 5.44364 16.4927 4.64048C16.3539 4.37276 16.2101 4.11495 16.0614 3.86707C16.0614 3.87698 16.0564 3.88194 16.0465 3.88194C15.8185 3.91169 15.5904 3.94639 15.3623 3.98605C15.3524 3.98605 15.3425 3.98605 15.3326 3.98605C15.2582 3.98605 15.1987 3.94143 15.1839 3.86707C15.169 3.7927 15.2136 3.70346 15.3028 3.68859C15.4912 3.65884 15.6846 3.62909 15.8829 3.59935C15.5854 3.16802 15.3028 2.79619 15.0351 2.49872C15.4218 2.6772 15.8085 2.88543 16.1655 3.1234C16.5671 3.37625 16.9389 3.67371 17.2959 3.97118C17.633 4.26865 17.9453 4.58099 18.2329 4.9082C18.7832 5.54775 19.2145 6.20218 19.5417 6.82686C19.8541 7.43667 20.0772 8.01673 20.2259 8.49267C20.2557 8.61166 20.2854 8.73065 20.3152 8.84963C20.3449 8.95375 20.3747 9.05786 20.4044 9.1471C20.4341 9.34045 20.4788 9.50406 20.5085 9.63792C20.5531 9.90564 20.568 10.0544 20.568 10.0544C20.568 10.0544 20.568 9.90564 20.5531 9.63792C20.5234 9.35533 20.4936 8.95375 20.3747 8.46293C20.2854 7.95723 20.1069 7.34743 19.8243 6.693C19.5417 6.0237 19.1402 5.30978 18.5899 4.59586C18.3221 4.24882 18.0148 3.90177 17.6677 3.55473C17.3207 3.2176 16.934 2.9003 16.5076 2.60283ZM14.9608 6.15756C15.7193 5.97908 16.3737 5.84522 16.8199 5.78573C16.8695 5.77581 16.9141 5.76589 16.9538 5.75598C16.9538 5.74606 16.9538 5.73615 16.9538 5.72623C16.9042 5.72623 16.8546 5.73119 16.8051 5.74111C16.344 5.78573 15.6895 5.87497 14.9013 6.03857C14.1278 6.20218 13.2206 6.44015 12.2836 6.76737C11.8076 6.93097 11.3168 7.10945 10.8408 7.31768C10.35 7.52591 9.87408 7.76388 9.39813 8.00185C8.92218 8.2547 8.46111 8.50755 8.01491 8.79014C7.56871 9.07273 7.13739 9.35533 6.73581 9.65279C5.91778 10.2329 5.20385 10.8278 4.62379 11.3781C4.04373 11.9284 3.59753 12.4192 3.28519 12.7613C2.98773 13.1183 2.80925 13.3265 2.80925 13.3265C2.80925 13.3265 2.98773 13.1332 3.31494 12.8059C3.62728 12.4639 4.10323 12.0177 4.69816 11.4971C5.29309 10.9765 6.02189 10.3965 6.83992 9.8164C7.2415 9.53381 7.67283 9.25121 8.11903 8.98349C8.56523 8.71577 9.0263 8.44805 9.50224 8.21008C9.97819 7.95723 10.4541 7.73413 10.9301 7.52591C11.406 7.31768 11.8969 7.12433 12.3579 6.94585C13.2949 6.60376 14.1873 6.35091 14.9608 6.15756ZM14.6782 7.10945C14.7525 7.09458 14.7972 7.00534 14.7823 6.93097C14.7674 6.84173 14.6782 6.79711 14.6038 6.81199C14.3857 6.87148 14.1675 6.93097 13.9494 6.99047C13.8601 7.02021 13.8155 7.09458 13.8453 7.18382C13.8601 7.24331 13.9196 7.28793 13.9791 7.28793C13.999 7.28793 14.0138 7.28793 14.0237 7.28793C14.2419 7.21852 14.46 7.15903 14.6782 7.10945ZM13.3247 7.49616C13.3991 7.46641 13.4437 7.37717 13.4139 7.30281C13.3991 7.22844 13.3098 7.18382 13.2355 7.21357C13.0173 7.28297 12.7992 7.35238 12.581 7.42179C12.5067 7.45154 12.462 7.54078 12.4918 7.61515C12.5215 7.67464 12.581 7.71926 12.6405 7.71926C12.6504 7.71926 12.6653 7.7143 12.6851 7.70439C12.9033 7.63498 13.1165 7.56557 13.3247 7.49616ZM11.9117 7.98698C11.9861 7.97211 12.0158 7.88287 11.9861 7.82337C11.9712 7.74901 11.882 7.71926 11.8225 7.73413C11.6341 7.81346 11.4507 7.89278 11.2722 7.97211C11.1978 8.00185 11.1681 8.07622 11.1978 8.15059C11.2127 8.19521 11.2722 8.22495 11.3168 8.22495C11.3366 8.22495 11.3565 8.21999 11.3763 8.21008C11.5548 8.14067 11.7332 8.0663 11.9117 7.98698ZM10.707 8.52242C10.7814 8.49267 10.8111 8.40343 10.7665 8.32907C10.7367 8.2547 10.6475 8.21008 10.5731 8.2547C10.3649 8.35386 10.1616 8.45301 9.96332 8.55217C9.88896 8.58191 9.85921 8.67115 9.88896 8.74552C9.9187 8.80501 9.97819 8.83476 10.0228 8.83476C10.0526 8.83476 10.0773 8.8298 10.0972 8.81989C10.2955 8.72073 10.4988 8.62158 10.707 8.52242ZM9.44276 9.16197C9.51712 9.11735 9.54687 9.02811 9.50224 8.95374C9.45763 8.87938 9.36839 8.86451 9.29402 8.89425C9.09571 9.00332 8.90236 9.11735 8.71396 9.23634C8.63959 9.28096 8.60984 9.3702 8.65446 9.44457C8.68421 9.48919 8.72883 9.51893 8.78833 9.51893C8.80816 9.51893 8.83295 9.50902 8.86269 9.48919C9.05109 9.38011 9.24445 9.27104 9.44276 9.16197ZM8.23801 9.87589C8.29751 9.83127 8.32725 9.74203 8.28263 9.66767C8.23801 9.5933 8.1339 9.57843 8.07441 9.62304C7.8761 9.74203 7.68274 9.86598 7.49435 9.99488C7.43485 10.0395 7.41998 10.1287 7.4646 10.2031C7.49434 10.2477 7.53897 10.2775 7.58359 10.2775C7.61334 10.2775 7.64308 10.2676 7.67283 10.2477C7.85131 10.1188 8.0397 9.99488 8.23801 9.87589ZM7.06302 10.6642C7.13739 10.6196 7.15226 10.5303 7.09276 10.456C7.04814 10.3965 6.95891 10.3816 6.88454 10.4262C6.70606 10.5551 6.52758 10.689 6.3491 10.8278C6.27473 10.8873 6.27474 10.9765 6.31936 11.0509C6.3491 11.0806 6.39372 11.0955 6.43834 11.0955C6.46809 11.0955 6.49783 11.0856 6.52758 11.0658C6.70606 10.9369 6.88454 10.803 7.06302 10.6642ZM5.96239 11.5268C6.02189 11.4822 6.02188 11.3781 5.97726 11.3186C5.91777 11.2591 5.82854 11.2442 5.76904 11.3037C5.59056 11.4425 5.41704 11.5863 5.24848 11.7351C5.18898 11.7946 5.1741 11.8838 5.2336 11.9582C5.26334 11.9879 5.30797 12.0028 5.35259 12.0028C5.38234 12.0028 5.41208 11.9929 5.44183 11.973C5.61039 11.8243 5.78391 11.6756 5.96239 11.5268ZM4.90639 12.4639C4.96588 12.4044 4.96588 12.3151 4.90639 12.2556C4.86177 12.1813 4.75765 12.1813 4.69816 12.2408C4.5296 12.3994 4.37094 12.5581 4.22221 12.7167C4.16272 12.7762 4.16272 12.8654 4.22221 12.9249C4.25196 12.9547 4.28666 12.9695 4.32633 12.9695C4.36599 12.9695 4.4007 12.9547 4.43044 12.9249C4.58909 12.7663 4.74774 12.6126 4.90639 12.4639ZM3.92475 13.4604C3.98424 13.386 3.96937 13.2968 3.90988 13.2373C3.85038 13.1778 3.76114 13.1926 3.70165 13.2521C3.55291 13.4108 3.40418 13.5744 3.25545 13.743C3.19595 13.8173 3.19596 13.9066 3.27032 13.9661C3.30007 13.9859 3.32981 13.9958 3.35956 13.9958C3.40418 13.9958 3.4488 13.9809 3.47855 13.9512C3.62728 13.7826 3.77601 13.619 3.92475 13.4604ZM3.0026 14.5015C3.06209 14.442 3.04722 14.3528 2.98773 14.2933C2.91336 14.2487 2.82412 14.2487 2.7795 14.3081C2.63076 14.4866 2.49195 14.6651 2.36304 14.8436C2.30355 14.9031 2.31843 15.0072 2.37792 15.0518C2.40767 15.0716 2.44237 15.0816 2.48203 15.0816C2.52665 15.0816 2.57128 15.0667 2.60102 15.0221C2.72993 14.8535 2.86378 14.68 3.0026 14.5015ZM2.31843 12.5085C2.25893 12.568 2.2738 12.6572 2.3333 12.7167C2.36304 12.7464 2.39775 12.7613 2.43741 12.7613C2.46716 12.7613 2.51178 12.7316 2.54153 12.7018C2.69026 12.5333 2.84395 12.3647 3.0026 12.1961C3.06209 12.1366 3.06209 12.0474 3.0026 11.9879C2.9431 11.9284 2.839 11.9284 2.79438 11.9879C2.62581 12.1565 2.46716 12.33 2.31843 12.5085ZM3.31494 11.4376C3.25545 11.4971 3.25545 11.6012 3.31494 11.6607C3.34469 11.6904 3.38435 11.7053 3.43393 11.7053C3.47359 11.7053 3.5083 11.6904 3.53804 11.6607C3.69669 11.502 3.8603 11.3434 4.02886 11.1847C4.08835 11.1253 4.08835 11.0211 4.02886 10.9616C3.98424 10.9022 3.88012 10.9022 3.82063 10.9616C3.65207 11.1203 3.48351 11.2789 3.31494 11.4376ZM4.38582 10.4411C4.32633 10.5006 4.32633 10.5898 4.37094 10.6642C4.40069 10.6939 4.44531 10.7088 4.48993 10.7088C4.52959 10.7088 4.5643 10.6939 4.59405 10.6642C4.76261 10.5154 4.93613 10.3667 5.11461 10.218C5.17411 10.1734 5.18898 10.0841 5.12949 10.0098C5.08487 9.95026 4.99563 9.93538 4.92126 9.99488C4.74278 10.1436 4.5643 10.2923 4.38582 10.4411ZM5.53106 9.51893C5.4567 9.56355 5.44183 9.65279 5.50132 9.72716C5.53107 9.75691 5.57569 9.78665 5.62031 9.78665C5.65006 9.78665 5.6798 9.77674 5.70955 9.75691C5.88803 9.61809 6.07146 9.47927 6.25986 9.34045C6.33423 9.29583 6.3491 9.19172 6.30448 9.13223C6.24499 9.05786 6.15575 9.04299 6.08138 9.08761C5.89298 9.22642 5.70954 9.3702 5.53106 9.51893ZM6.72093 8.65628C6.64656 8.7009 6.63169 8.79014 6.67631 8.86451C6.70606 8.90913 6.75068 8.924 6.81018 8.924C6.83992 8.924 6.86471 8.91904 6.88454 8.90913C7.08285 8.77031 7.2762 8.64141 7.4646 8.52242C7.53896 8.4778 7.55384 8.38856 7.50922 8.31419C7.4646 8.23983 7.37536 8.22495 7.30099 8.26957C7.1126 8.38856 6.91924 8.51746 6.72093 8.65628ZM7.9108 8.07622C7.94054 8.12084 7.98517 8.15059 8.04466 8.15059C8.06449 8.15059 8.08928 8.14067 8.11903 8.12084C8.31734 8.01177 8.51565 7.9027 8.71396 7.79363C8.78833 7.74901 8.81808 7.65977 8.77346 7.5854C8.74371 7.51103 8.65446 7.48129 8.5801 7.52591C8.37187 7.63498 8.1686 7.74901 7.97029 7.86799C7.89593 7.91261 7.86618 8.00185 7.9108 8.07622ZM9.18991 7.3623C9.21966 7.42179 9.27914 7.45154 9.32376 7.45154C9.35351 7.45154 9.3783 7.44658 9.39813 7.43667C9.59644 7.32759 9.80467 7.22348 10.0228 7.12433C10.0972 7.09458 10.1269 7.00534 10.0972 6.93097C10.0526 6.85661 9.96332 6.82686 9.88896 6.85661C9.68073 6.95576 9.4725 7.05987 9.26428 7.16895C9.18991 7.19869 9.16016 7.28793 9.18991 7.3623ZM10.588 6.54427C10.5136 6.57401 10.4839 6.66325 10.5136 6.73762C10.5434 6.79711 10.6029 6.82686 10.6475 6.82686C10.6673 6.82686 10.6872 6.8219 10.707 6.81199C10.9251 6.72275 11.1383 6.63846 11.3465 6.55914C11.4358 6.52939 11.4655 6.44015 11.4358 6.35091C11.406 6.27655 11.3168 6.2468 11.2424 6.27655C11.0243 6.35587 10.8061 6.44511 10.588 6.54427ZM11.9712 6.00883C11.882 6.0237 11.8522 6.11294 11.8671 6.18731C11.8969 6.26167 11.9563 6.29142 12.0158 6.29142C12.0357 6.29142 12.0505 6.29142 12.0605 6.29142C12.2786 6.2121 12.4967 6.13773 12.7149 6.06832C12.8041 6.03857 12.8487 5.94933 12.819 5.87497C12.7892 5.8006 12.7149 5.75598 12.6256 5.77085C12.4075 5.85018 12.1894 5.9295 11.9712 6.00883ZM13.3693 5.54775C13.2801 5.5775 13.2354 5.65187 13.2652 5.74111C13.2801 5.8006 13.3396 5.84522 13.3991 5.84522C13.4189 5.84522 13.4338 5.84522 13.4437 5.84522C13.6618 5.77581 13.8849 5.71136 14.113 5.65187C14.2022 5.63699 14.2468 5.56263 14.2171 5.47339C14.2022 5.39902 14.1279 5.33953 14.0386 5.36927C13.8106 5.42877 13.5875 5.48826 13.3693 5.54775ZM14.7823 5.19079C14.7079 5.20567 14.6484 5.29491 14.6782 5.36927C14.693 5.44364 14.7525 5.48826 14.8269 5.48826C14.8368 5.48826 14.8467 5.48826 14.8566 5.48826C15.0847 5.43868 15.3078 5.3891 15.5259 5.33953C15.6152 5.32465 15.6598 5.25029 15.6449 5.17592C15.6301 5.08668 15.5557 5.04206 15.4665 5.05693C15.2483 5.09659 15.0203 5.14122 14.7823 5.19079ZM16.0465 6.81199C16.1209 6.79711 16.1804 6.72275 16.1655 6.63351C16.1506 6.55914 16.0763 6.49965 15.987 6.51452C15.7689 6.55418 15.5507 6.5988 15.3326 6.64838C15.2434 6.66325 15.1987 6.73762 15.2136 6.82686C15.2285 6.90123 15.288 6.94585 15.3623 6.94585C15.3723 6.94585 15.3822 6.94585 15.3921 6.94585C15.6102 6.89627 15.8284 6.85165 16.0465 6.81199ZM16.225 4.92307C16.1506 4.93795 16.0911 5.01231 16.106 5.08668C16.106 5.16105 16.1804 5.22054 16.2547 5.22054C16.2547 5.22054 16.2597 5.22054 16.2696 5.22054C16.4183 5.19079 16.572 5.166 16.7307 5.14617C16.6811 5.05693 16.6365 4.96274 16.5968 4.86358C16.4679 4.88341 16.344 4.90324 16.225 4.92307ZM17.2215 6.63351C17.2017 6.53435 17.1769 6.43519 17.1471 6.33604C17.0083 6.35587 16.8645 6.3757 16.7158 6.39553C16.6414 6.41041 16.582 6.48477 16.5968 6.55914C16.6117 6.63351 16.6712 6.693 16.7456 6.693C16.7555 6.693 16.7604 6.693 16.7604 6.693C16.9191 6.67317 17.0728 6.65334 17.2215 6.63351Z" fill="#EDDC92"/>
<path d="M9.36829 1.3534C9.0262 1.39802 8.63949 1.47239 8.23791 1.5765C7.8512 1.68061 7.43475 1.81447 7.0183 2.00783C6.91418 2.05245 6.81007 2.09707 6.72083 2.14169L6.63159 2.17143L6.60184 2.20118L6.55723 2.21605L6.40849 2.29042C6.29942 2.34991 6.19531 2.40445 6.09616 2.45403C5.99204 2.51352 5.9028 2.58789 5.79869 2.64738C5.69953 2.70687 5.59542 2.76637 5.48634 2.82586C5.3971 2.90023 5.293 2.97459 5.20376 3.04896C5.09964 3.10845 5.0104 3.18282 4.90629 3.25719L4.63856 3.48029C4.26673 3.79263 3.93952 4.14959 3.62718 4.49167C3.46357 4.67015 3.32971 4.86351 3.18098 5.04199C3.06199 5.23534 2.92813 5.42869 2.80914 5.62205C2.74965 5.71129 2.69016 5.80548 2.63066 5.90464C2.57117 5.99388 2.51168 6.09799 2.46706 6.18723C2.4274 6.28639 2.38277 6.38059 2.3332 6.46983C2.28362 6.56898 2.239 6.66318 2.19934 6.75242C2.15968 6.85158 2.12002 6.94577 2.08036 7.03501C2.03574 7.12425 2.00599 7.21349 1.97624 7.31761C1.91675 7.49609 1.84238 7.67457 1.79776 7.83817C1.74818 8.01665 1.70356 8.18522 1.6639 8.34387C1.63415 8.4926 1.60441 8.64133 1.57466 8.79007C1.54491 8.92888 1.52508 9.06275 1.51516 9.19165C1.49533 9.31063 1.48046 9.42466 1.47054 9.53373C1.45567 9.74196 1.45567 9.89069 1.4408 10.0097C1.4408 10.1188 1.4408 10.1733 1.4408 10.1733C1.4408 10.1733 1.48542 9.95019 1.55979 9.54861C1.58954 9.44945 1.61928 9.33542 1.64903 9.20652C1.65894 9.14703 1.67381 9.08753 1.69364 9.02804C1.70852 8.96855 1.73827 8.89418 1.75314 8.83469C1.79776 8.70083 1.84238 8.55209 1.887 8.40336C1.93657 8.25463 1.99111 8.09598 2.05061 7.92741C2.18447 7.61507 2.3332 7.25811 2.51168 6.91603C2.56126 6.82679 2.61083 6.73755 2.66041 6.64831C2.70999 6.55907 2.75957 6.46983 2.80914 6.38059C2.91326 6.20211 3.03224 6.02363 3.15123 5.84515C3.27022 5.66667 3.40408 5.48819 3.53794 5.30971C3.60735 5.23038 3.67675 5.1461 3.74616 5.05686C3.82053 4.96762 3.8949 4.87838 3.96926 4.80401C4.26673 4.46193 4.59395 4.13471 4.95091 3.85212L5.20376 3.62902C5.293 3.55465 5.38223 3.48029 5.48634 3.42079C5.57558 3.34643 5.66482 3.28693 5.75406 3.21257C5.85322 3.15307 5.94742 3.09358 6.03666 3.03409C6.23001 2.90023 6.42337 2.79611 6.61672 2.692L6.75058 2.60276L6.7952 2.58789L6.82494 2.57301L6.89931 2.52839C7.00342 2.48377 7.10754 2.42428 7.19678 2.37966C7.58348 2.20118 7.97019 2.03757 8.34203 1.91859C8.72873 1.78473 9.08569 1.69549 9.42778 1.62112C9.76986 1.54675 10.0822 1.48726 10.3648 1.45751C10.6325 1.41289 10.8854 1.39802 11.0936 1.38315C11.3018 1.36827 11.4506 1.3534 11.5695 1.3534C11.6786 1.3534 11.7331 1.3534 11.7331 1.3534C11.7331 1.3534 11.6786 1.34844 11.5695 1.33853C11.4605 1.3187 11.3018 1.29886 11.0936 1.27903C10.8854 1.27903 10.6325 1.26416 10.3499 1.26416C10.0525 1.27903 9.72525 1.29391 9.36829 1.3534Z" fill="#EDDC92"/>
<path d="M28.5997 2.33518C29.5218 2.67727 30.6076 3.01935 31.7974 3.36144C32.9873 3.67378 34.2813 3.9415 35.5752 4.1646C36.8841 4.34308 38.193 4.46207 39.4126 4.53643C40.6471 4.56618 41.7923 4.56618 42.7739 4.52156C43.7556 4.4472 44.5736 4.35795 45.1388 4.28359C45.704 4.19435 46.0312 4.14973 46.0312 4.14973C46.0312 4.14973 45.704 4.11998 45.1388 4.07536C44.5736 4.04562 43.7556 4.001 42.7888 3.89688C41.822 3.85226 40.6917 3.73327 39.4869 3.58454C38.2822 3.46555 37.0031 3.30195 35.7389 3.07885C34.4597 2.91524 33.1955 2.69214 32.0056 2.4393C30.8306 2.2162 29.7152 1.9931 28.7781 1.74025C27.8262 1.5469 27.038 1.35354 26.4876 1.20481C25.9225 1.07095 25.6101 0.996582 25.6101 0.996582C25.6101 0.996582 25.8927 1.14532 26.4133 1.39816C26.9338 1.63614 27.6775 1.97822 28.5997 2.33518Z" fill="#EDDC92"/>
<path d="M46.8492 11.1104C46.0461 11.2591 45.1091 11.4525 44.0977 11.6607C43.116 11.8987 42.06 12.1664 41.004 12.449C39.9629 12.7762 38.9217 13.1183 37.955 13.4455C37.0031 13.8173 36.1107 14.1594 35.3521 14.4718C34.6085 14.8139 33.9987 15.0965 33.5525 15.2898C33.136 15.5129 32.8832 15.6319 32.8832 15.6319C32.8832 15.6319 33.1509 15.5724 33.612 15.4534C34.073 15.3344 34.7275 15.1559 35.5158 14.9328C36.304 14.7097 37.2113 14.442 38.193 14.1743C39.1597 13.8768 40.2009 13.5794 41.242 13.2968C42.2831 12.9844 43.3243 12.6721 44.291 12.3895C45.2727 12.092 46.1799 11.8243 46.9533 11.6012C47.7416 11.3484 48.3812 11.155 48.8423 11.0063C49.2885 10.8576 49.5562 10.7683 49.5562 10.7683C49.5562 10.7683 49.2736 10.7981 48.7976 10.8427C48.3366 10.9022 47.6524 11.0063 46.8492 11.1104Z" fill="#EDDC92"/>
</svg>
