<svg width="45" height="45" viewBox="0 0 45 45" fill="none" xmlns="http://www.w3.org/2000/svg">
<path d="M31.9324 29.891C30.0165 29.8926 28.1007 29.8947 26.1853 29.8964C25.7378 29.8968 25.2903 29.8956 24.8428 29.8956C23.2661 29.8956 21.6894 29.8956 20.1128 29.8956C17.3782 29.896 14.644 29.8968 11.9094 29.896C11.1615 29.8956 10.6369 29.4951 10.4215 28.7693C10.4153 28.7489 10.3949 28.7322 10.3811 28.7139C10.3811 27.6431 10.3811 26.5718 10.3811 25.501C10.4753 25.5047 10.5694 25.5114 10.664 25.5114C18.0665 25.5118 25.4686 25.5118 32.8711 25.5114C32.9499 25.5114 33.0286 25.5076 33.1069 25.5056L33.1015 25.5222C33.1044 26.541 33.1094 27.5597 33.1074 28.5789C33.1069 28.7185 33.0569 28.8531 33.0015 28.9839C32.7974 29.4681 32.4107 29.7331 31.9324 29.891ZM23.1899 27.7168C23.2365 27.2531 22.7957 26.9772 22.4807 26.9706C22.0794 26.9622 21.764 27.2922 21.7644 27.7097C21.7649 28.1285 22.0549 28.4289 22.4619 28.4318C22.8903 28.4351 23.1886 28.1422 23.1899 27.7168Z" fill="#EEDC92"/>
<path d="M33.1062 25.5062C33.0275 25.5082 32.9487 25.512 32.8704 25.512C25.4679 25.5124 18.0658 25.5124 10.6633 25.512C10.5691 25.512 10.475 25.5053 10.3804 25.5016C10.3804 21.0128 10.3804 16.5241 10.3804 12.0353C10.44 12.0224 10.437 11.9653 10.4533 11.9249C10.7262 11.2412 11.2133 10.9128 11.9683 10.9128C18.442 10.9124 24.9154 10.9124 31.3891 10.9132C31.617 10.9132 31.8449 10.8837 32.0725 10.922C32.0945 11.0232 32.1954 11.0066 32.2591 11.0412C32.79 11.3287 33.1066 11.7487 33.105 12.3728C32.6166 12.3745 32.1287 12.3762 31.6404 12.3774C31.5854 12.3749 31.5304 12.3703 31.4754 12.3703C25.01 12.3699 18.5441 12.3712 12.0787 12.3649C11.8658 12.3649 11.842 12.4428 11.8425 12.6241C11.8466 16.3174 11.8441 20.0107 11.8445 23.7041C11.8445 24.0932 11.7958 24.0478 12.1779 24.0478C18.557 24.0487 24.9358 24.0487 31.315 24.0482C31.425 24.0482 31.5354 24.0453 31.6454 24.0441C32.1291 24.1099 32.615 24.062 33.0995 24.0687C33.1016 24.5482 33.1037 25.0274 33.1062 25.5062Z" fill="black"/>
<path d="M20.1123 29.8955C21.689 29.8955 23.2656 29.8955 24.8423 29.8955C25.0315 30.5605 25.2119 31.228 25.4119 31.8897C25.661 32.7143 26.4419 33.2934 27.3052 33.3001C28.1556 33.3063 29.006 33.3013 29.8565 33.3022C29.9348 33.3022 30.0169 33.2963 30.091 33.3159C30.2677 33.3626 30.3773 33.4722 30.3781 33.6688C30.379 33.8634 30.2773 33.9776 30.099 34.028C30.0398 34.0447 29.9744 34.0447 29.9119 34.0447C24.9585 34.0455 20.0056 34.0451 15.0523 34.0463C14.8394 34.0463 14.6523 34.0047 14.5873 33.7726C14.5123 33.503 14.6952 33.3043 15.0169 33.303C15.8044 33.3001 16.5919 33.3022 17.3794 33.3022C17.6465 33.3022 17.9144 33.3088 18.1781 33.2551C18.2581 33.3318 18.3577 33.2963 18.4481 33.2968C20.6894 33.2988 22.9306 33.2984 25.1719 33.2984C25.249 33.2984 25.3256 33.2984 25.436 33.2984C25.2427 33.1938 25.0581 33.1593 24.9006 33.0572C24.3806 32.7201 23.986 32.2943 23.8769 31.6588C23.8381 31.4322 23.7281 31.3505 23.4806 31.3538C22.3169 31.3701 21.1531 31.3618 19.989 31.3597C19.899 31.3597 19.7973 31.393 19.7244 31.3038C19.8544 30.8338 19.9836 30.3647 20.1123 29.8955Z" fill="#800000"/>
<path d="M33.1045 12.3725C33.1062 11.7483 32.7895 11.3283 32.2587 11.0408C32.1949 11.0062 32.0941 11.0229 32.072 10.9217C32.4887 10.9133 32.9066 10.8812 33.3208 10.9392C34.0454 11.0408 34.5712 11.635 34.5716 12.37C34.5745 16.7458 34.5716 21.1221 34.5708 25.4979C34.0808 25.5062 33.5908 25.5141 33.1008 25.5225L33.1062 25.5058C33.1041 25.0267 33.1016 24.5479 33.0995 24.0687C33.1037 23.9671 33.1112 23.865 33.1112 23.7629C33.1116 20.1937 33.1116 16.625 33.1116 13.0558C33.1108 12.8283 33.107 12.6004 33.1045 12.3725Z" fill="black"/>
<path d="M19.7252 31.3037C19.7981 31.3933 19.8998 31.3595 19.9898 31.3595C21.1535 31.3616 22.3177 31.37 23.4815 31.3537C23.729 31.3504 23.839 31.4316 23.8777 31.6587C23.9869 32.2941 24.3815 32.72 24.9015 33.057C25.059 33.1591 25.2435 33.1941 25.4369 33.2983C25.3265 33.2983 25.2498 33.2983 25.1727 33.2983C22.9315 33.2983 20.6902 33.2987 18.449 33.2966C18.3585 33.2966 18.259 33.3316 18.179 33.255C18.4498 33.1058 18.7365 32.9891 18.9744 32.7766C19.3352 32.4541 19.5235 32.0466 19.6369 31.5912C19.6606 31.4941 19.6956 31.3991 19.7252 31.3037Z" fill="#800000"/>
<path d="M33.1007 25.5226C33.5907 25.5143 34.0807 25.5064 34.5707 25.498C34.5715 26.4893 34.5778 27.4805 34.5711 28.4718C34.5657 29.243 33.9261 29.883 33.1595 29.8939C32.7503 29.8997 32.3411 29.8922 31.9324 29.891C32.4107 29.7326 32.7974 29.468 33.0011 28.9839C33.0561 28.853 33.1065 28.7185 33.107 28.5789C33.1086 27.5601 33.1036 26.5414 33.1007 25.5226Z" fill="#EEDC92"/>
<path d="M23.1898 27.7177C23.1886 28.1431 22.8898 28.4364 22.4619 28.4331C22.0548 28.4298 21.7644 28.1293 21.7644 27.711C21.764 27.2935 22.0794 26.9635 22.4807 26.9718C22.7957 26.9781 23.2365 27.2539 23.1898 27.7177Z" fill="#FDFDFD"/>
<path d="M31.6447 24.0454C31.5347 24.0466 31.4243 24.0495 31.3143 24.0495C24.9351 24.0495 18.5564 24.05 12.1772 24.0491C11.7951 24.0491 11.8439 24.0945 11.8439 23.7054C11.8435 20.012 11.8455 16.3187 11.8418 12.6254C11.8418 12.4441 11.8651 12.3662 12.078 12.3662C18.5435 12.3725 25.0093 12.3712 31.4747 12.3716C31.5297 12.3716 31.5847 12.3762 31.6397 12.3787C31.6414 12.4495 31.6447 12.5204 31.6447 12.5912C31.6447 16.4087 31.6447 20.227 31.6447 24.0454Z" fill="white"/>
<path d="M31.6451 24.0447C31.6451 20.2264 31.6456 16.4085 31.6451 12.5901C31.6451 12.5193 31.6418 12.4485 31.6401 12.3776C32.1285 12.376 32.6164 12.3743 33.1047 12.373C33.1068 12.601 33.111 12.8289 33.111 13.0568C33.1114 16.626 33.1114 20.1947 33.1106 23.7639C33.1106 23.866 33.1031 23.9676 33.0989 24.0697C32.6147 24.0626 32.1289 24.1105 31.6451 24.0447Z" fill="white"/>
<path d="M11.1667 22.5C15.1708 22.5 18.4167 19.2541 18.4167 15.25C18.4167 11.2459 15.1708 8 11.1667 8C7.16268 8 3.91675 11.2459 3.91675 15.25C3.91675 19.2541 7.16268 22.5 11.1667 22.5Z" fill="white" stroke="black" stroke-width="0.407407" stroke-miterlimit="10"/>
<path d="M11.2717 8.66699C11.423 8.66699 11.5463 8.78533 11.5463 8.93033V8.94908C12.0251 9.01324 12.4584 9.22408 12.7872 9.53283C13.1747 9.89658 13.4167 10.3957 13.4167 10.9507L13.3984 11.6362L13.5401 12.6187C13.5455 12.6503 13.5426 12.6832 13.5309 12.7132C13.5192 12.7437 13.4997 12.7703 13.4738 12.7907L13.4913 12.8107L13.5238 12.8478L13.3809 13.0291L13.378 13.0353L13.3772 13.0374C13.3334 13.1441 13.2747 13.2412 13.2072 13.3128C13.1501 13.3712 13.0863 13.4128 13.0172 13.4291C13.0038 13.4699 12.9888 13.5128 12.978 13.5545C12.9009 13.8037 12.8401 13.9999 12.6792 14.1949C12.6442 14.2374 12.6067 14.2787 12.5672 14.317C12.5401 14.3441 12.5122 14.3703 12.4826 14.3953C12.4872 14.4428 12.4867 14.857 12.4859 14.9757L12.4384 14.9866C12.3351 15.3378 12.0242 15.5653 11.6588 15.6728C11.4505 15.7337 11.2242 15.7562 11.0084 15.7399C10.7909 15.7241 10.583 15.6687 10.4134 15.5753C10.1759 15.4445 10.013 15.2395 10.0013 14.962V14.9428L9.94966 14.9295V14.397L9.95091 14.3412C9.80299 14.2124 9.68174 14.042 9.60008 13.8691C9.54299 13.7482 9.49799 13.6174 9.44549 13.4699L9.41841 13.3932C9.35924 13.3857 9.30383 13.3595 9.25383 13.3207C9.19133 13.2716 9.13758 13.1999 9.09383 13.1174C9.06424 13.062 9.00633 12.9787 8.98508 12.8057C8.92174 12.7687 8.88383 12.6982 8.89466 12.6232L9.03716 11.6399L8.99716 11.0378C8.99424 10.9941 8.99258 10.9541 8.99258 10.9182C8.99258 10.382 9.23341 9.90074 9.61466 9.54491C9.97633 9.20741 10.4659 8.98366 10.9951 8.93658V8.92949C10.9972 8.78533 11.1205 8.66699 11.2717 8.66699Z" fill="black"/>
<path d="M11.4715 15.574C11.7919 15.5057 12.0832 15.3344 12.2248 15.0711C12.2707 14.9682 12.3853 14.9053 12.5048 14.9249C12.6936 14.9565 12.8086 14.9744 12.9244 14.9919C14.3032 15.2049 15.6115 15.4069 15.9732 17.0849L16.3632 19.1053C16.369 19.1261 16.3723 19.1478 16.3723 19.1703C16.3723 19.3061 16.2573 19.4161 16.1161 19.4161H6.32068C6.30735 19.4153 6.2936 19.4144 6.27985 19.4124C6.14068 19.3907 6.04568 19.2649 6.0686 19.1311L6.35985 17.4286C6.77151 15.4232 7.86276 15.2157 9.44443 14.9153C9.61068 14.884 9.78193 14.8511 9.91526 14.8244C10.0519 14.7974 10.1865 14.8807 10.2165 15.0115C10.2703 15.2419 10.4248 15.4028 10.6253 15.4978C10.7457 15.5549 10.8819 15.5894 11.024 15.6019C11.1715 15.6149 11.3244 15.6053 11.4715 15.574Z" fill="black"/>
<path d="M12.2897 14.4385C11.5731 14.9726 10.8643 14.9218 10.1622 14.4431L10.1589 14.9756C10.2331 15.801 12.0793 15.8476 12.2893 14.9997V14.4385H12.2897ZM13.3068 12.8689C13.2889 12.8485 13.271 12.8285 13.2531 12.8085L13.2406 12.801C12.7585 12.4756 11.9889 12.3135 11.2156 12.3135C10.4647 12.3135 9.72056 12.4664 9.2439 12.7701L9.31056 13.0526L9.53015 13.2731L9.6664 13.4135C10.0485 14.946 12.3872 15.0418 12.7964 13.4135L13.0368 13.2131L13.3068 12.8689Z" fill="#F6F2E0"/>
<path d="M13.3496 12.6488L13.2213 11.7601C13.2071 11.7592 13.1925 11.7559 13.1792 11.7505C12.4788 11.458 11.8038 11.338 11.15 11.3517C10.4959 11.3655 9.86128 11.5138 9.24337 11.7572C9.23378 11.7613 9.22378 11.7634 9.21378 11.7647L9.08545 12.6488C10.0992 11.9559 12.3171 11.9517 13.3496 12.6488ZM13.2088 11.513L13.2225 10.9967C13.2513 9.95091 12.3292 9.11133 11.2371 9.11133H11.2059C10.0967 9.11133 9.11837 9.96591 9.1892 11.0263L9.2217 11.5172C9.84378 11.2797 10.4834 11.1363 11.1446 11.1222C11.8113 11.108 12.4988 11.2259 13.2088 11.513Z" fill="#800000"/>
<path d="M11.5128 10.0244H11.4174C11.412 9.99689 11.402 9.97314 11.3878 9.9523C11.3741 9.93147 11.357 9.91397 11.337 9.90022C11.317 9.88605 11.2953 9.87522 11.2712 9.86814C11.247 9.86105 11.222 9.8573 11.1953 9.8573C11.1474 9.8573 11.1045 9.86939 11.0653 9.89355C11.0266 9.9173 10.9962 9.95272 10.9732 9.9998C10.9503 10.0469 10.9395 10.104 10.9395 10.1723C10.9395 10.2402 10.9507 10.2977 10.9732 10.3448C10.9957 10.3919 11.0266 10.4273 11.0653 10.4511C11.1041 10.4748 11.1474 10.4873 11.1953 10.4873C11.2216 10.4873 11.2466 10.4836 11.2712 10.4765C11.2953 10.4694 11.3174 10.4586 11.337 10.4448C11.357 10.4306 11.3741 10.4131 11.3878 10.3923C11.4016 10.3711 11.4116 10.3473 11.4174 10.3202H11.5128C11.5057 10.3606 11.4924 10.3965 11.4732 10.4281C11.4541 10.4598 11.4307 10.4869 11.4024 10.509C11.3741 10.5311 11.3428 10.5477 11.3074 10.559C11.2724 10.5706 11.2353 10.5761 11.1953 10.5761C11.1282 10.5761 11.0682 10.5598 11.0157 10.5269C10.9632 10.4944 10.922 10.4477 10.8924 10.3873C10.8624 10.3269 10.8474 10.2552 10.8474 10.1723C10.8474 10.0894 10.8624 10.0177 10.8924 9.9573C10.9224 9.89689 10.9637 9.85022 11.0157 9.81772C11.0678 9.78522 11.1278 9.76855 11.1953 9.76855C11.2353 9.76855 11.2724 9.77397 11.3074 9.78564C11.3424 9.7973 11.3745 9.81397 11.4024 9.83605C11.4307 9.85814 11.4541 9.88522 11.4732 9.91689C11.4928 9.94814 11.5053 9.98439 11.5128 10.0244Z" fill="white"/>
<path d="M12.4596 15.1679C12.2787 15.5192 11.9017 15.7408 11.4937 15.8204V16.9608H10.9412L10.9408 15.8404C10.48 15.7821 10.0742 15.5313 9.96625 15.0654C8.22916 15.4167 7.0275 15.4429 6.61041 17.4771L6.51083 18.0563H8.62916V17.0254C8.62916 16.9625 8.6825 16.9113 8.74875 16.9113C8.815 16.9113 8.86833 16.9625 8.86833 17.0254V19.1713H13.5558V17.0254C13.5558 16.9625 13.6092 16.9113 13.6754 16.9113C13.7417 16.9113 13.7946 16.9625 13.7946 17.0254V18.0563H15.9008L15.7258 17.1479C15.3671 15.4583 13.8979 15.4092 12.4596 15.1679ZM6.41625 18.6063L6.31958 19.1721H8.62875V18.6063H6.41625ZM13.7933 19.1717H16.1146L16.0054 18.6058H13.7933V19.1717Z" fill="#6ECAD9"/>
<path d="M10.0274 17.9998H9.93447C9.92905 17.9739 9.91947 17.9514 9.90572 17.9323C9.89238 17.9127 9.87572 17.8964 9.85655 17.8831C9.83738 17.8698 9.81613 17.8598 9.79238 17.8527C9.76905 17.846 9.74447 17.8427 9.71905 17.8427C9.67238 17.8427 9.63072 17.8539 9.5928 17.8764C9.5553 17.8989 9.52572 17.9323 9.50322 17.976C9.48113 18.0198 9.4703 18.0739 9.4703 18.1377C9.4703 18.2014 9.48155 18.2556 9.50322 18.2993C9.52572 18.3431 9.5553 18.3764 9.5928 18.3989C9.63072 18.4214 9.67238 18.4327 9.71905 18.4327C9.74447 18.4327 9.76863 18.4293 9.79238 18.4227C9.81572 18.416 9.83738 18.406 9.85655 18.3927C9.87613 18.3793 9.89238 18.3627 9.90572 18.3435C9.91947 18.3239 9.92905 18.3014 9.93447 18.276H10.0274C10.0203 18.3139 10.0074 18.3473 9.98905 18.3773C9.97072 18.4073 9.9478 18.4323 9.9203 18.4535C9.8928 18.4743 9.86197 18.4898 9.8278 18.501C9.79405 18.5118 9.75738 18.5173 9.71863 18.5173C9.65322 18.5173 9.5953 18.5018 9.54405 18.471C9.49322 18.4402 9.4528 18.3964 9.42363 18.3402C9.39447 18.2835 9.37988 18.2164 9.37988 18.1385C9.37988 18.0606 9.39447 17.9935 9.42363 17.9368C9.4528 17.8802 9.4928 17.8364 9.54405 17.806C9.59488 17.7752 9.65322 17.7598 9.71863 17.7598C9.75738 17.7598 9.79363 17.7652 9.8278 17.776C9.86197 17.7868 9.8928 17.8027 9.9203 17.8235C9.9478 17.8443 9.97072 17.8693 9.98905 17.8993C10.0078 17.9281 10.0203 17.9618 10.0274 17.9998Z" fill="black"/>
<path d="M10.8247 18.1385C10.8247 18.216 10.8101 18.2835 10.781 18.3402C10.7518 18.3968 10.7118 18.4406 10.6605 18.471C10.6097 18.5018 10.5514 18.5173 10.486 18.5173C10.4205 18.5173 10.3626 18.5018 10.3114 18.471C10.2606 18.4402 10.2201 18.3964 10.191 18.3402C10.1618 18.2835 10.1472 18.2164 10.1472 18.1385C10.1472 18.0606 10.1618 17.9935 10.191 17.9368C10.2201 17.8802 10.2601 17.8364 10.3114 17.806C10.3622 17.7752 10.4205 17.7598 10.486 17.7598C10.5514 17.7598 10.6093 17.7752 10.6605 17.806C10.7114 17.8368 10.7518 17.8806 10.781 17.9368C10.8101 17.9931 10.8247 18.0602 10.8247 18.1385ZM10.7351 18.1385C10.7351 18.0748 10.7239 18.0206 10.7018 17.9768C10.6797 17.9331 10.6501 17.8998 10.6122 17.8773C10.5747 17.8548 10.5331 17.8435 10.4864 17.8435C10.4397 17.8435 10.3981 17.8548 10.3601 17.8773C10.3226 17.8998 10.293 17.9331 10.2705 17.9768C10.2485 18.0206 10.2376 18.0748 10.2376 18.1385C10.2376 18.2023 10.2489 18.2564 10.2705 18.3002C10.293 18.3439 10.3226 18.3773 10.3601 18.3998C10.3981 18.4223 10.4397 18.4335 10.4864 18.4335C10.5331 18.4335 10.5747 18.4223 10.6122 18.3998C10.6501 18.3773 10.6797 18.3439 10.7018 18.3002C10.7239 18.256 10.7351 18.2023 10.7351 18.1385Z" fill="black"/>
<path d="M10.9757 18.507H10.8782L11.1598 17.7695H11.2557L11.5373 18.507H11.4398L11.2107 17.8862H11.2048L10.9757 18.507ZM11.0115 18.2187H11.404V18.2979H11.0115V18.2187Z" fill="black"/>
<path d="M12.2378 17.9998H12.1449C12.1395 17.9739 12.1299 17.9514 12.1157 17.9323C12.1024 17.9127 12.0857 17.8964 12.0666 17.8831C12.0474 17.8698 12.0262 17.8598 12.0024 17.8527C11.9791 17.846 11.9545 17.8427 11.9291 17.8427C11.8824 17.8427 11.8407 17.8539 11.8028 17.8764C11.7653 17.8989 11.7357 17.9323 11.7132 17.976C11.6912 18.0198 11.6803 18.0739 11.6803 18.1377C11.6803 18.2014 11.6912 18.2556 11.7132 18.2993C11.7357 18.3431 11.7653 18.3764 11.8028 18.3989C11.8407 18.4214 11.8824 18.4327 11.9291 18.4327C11.9545 18.4327 11.9787 18.4293 12.0024 18.4227C12.0257 18.416 12.0474 18.406 12.0666 18.3927C12.0862 18.3793 12.1024 18.3627 12.1157 18.3435C12.1295 18.3239 12.1391 18.3014 12.1449 18.276H12.2378C12.2307 18.3139 12.2178 18.3473 12.1995 18.3773C12.1812 18.4073 12.1582 18.4323 12.1307 18.4535C12.1032 18.4743 12.0724 18.4898 12.0382 18.501C12.0045 18.5118 11.9682 18.5173 11.9291 18.5173C11.8637 18.5173 11.8057 18.5018 11.7545 18.471C11.7037 18.4402 11.6632 18.3964 11.6341 18.3402C11.6049 18.2835 11.5903 18.2164 11.5903 18.1385C11.5903 18.0606 11.6049 17.9935 11.6341 17.9368C11.6632 17.8802 11.7032 17.8364 11.7545 17.806C11.8057 17.7756 11.8637 17.7598 11.9291 17.7598C11.9678 17.7598 12.0041 17.7652 12.0382 17.776C12.0724 17.7868 12.1032 17.8027 12.1307 17.8235C12.1582 17.8443 12.1812 17.8693 12.1995 17.8993C12.2182 17.9281 12.2307 17.9618 12.2378 17.9998Z" fill="black"/>
<path d="M12.3884 18.507V17.7695H12.4813V18.0979H12.8905V17.7695H12.9834V18.507H12.8905V18.177H12.4818V18.507H12.3884Z" fill="black"/>
<path d="M33.5 28.041C37.5041 28.041 40.75 24.7951 40.75 20.791C40.75 16.787 37.5041 13.541 33.5 13.541C29.4959 13.541 26.25 16.787 26.25 20.791C26.25 24.7951 29.4959 28.041 33.5 28.041Z" fill="white" stroke="black" stroke-width="0.407407" stroke-miterlimit="10"/>
<path d="M33.9019 20.1807V21.0148C34.4994 20.9802 35.0219 20.6577 35.3335 20.1807H33.9019Z" fill="#EDDC92"/>
<path d="M33.6914 20.1807H32.2598C32.5714 20.6582 33.0935 20.9802 33.6914 21.0148V20.1807Z" fill="#EDDC92"/>
<path d="M31.9785 20.6923C32.4131 21.219 33.066 21.554 33.7964 21.554C35.1043 21.554 36.1643 20.4811 36.1643 19.1569H36.3093C36.3093 17.3577 35.4981 15.8936 33.7964 15.8936C32.3198 15.8936 31.5139 16.9965 31.3264 18.464L31.9785 20.6923ZM31.476 18.8765H36.116C36.116 19.0677 35.0773 19.2227 33.796 19.2227C32.5148 19.2227 31.476 19.0677 31.476 18.8765ZM33.7964 21.2344C32.6648 21.2344 31.7439 20.3023 31.7439 19.1569H31.9543C31.9543 19.4481 32.0227 19.7231 32.1406 19.969H35.4514C35.5693 19.7231 35.6377 19.4481 35.6377 19.1569H35.8481C35.8485 20.3023 34.9277 21.2344 33.7964 21.2344Z" fill="#800000"/>
<path d="M32.501 23.1547L30.7093 23.6918L28.4031 16.7268C28.4031 16.7268 28.4268 16.2155 29.1731 15.9922C29.9197 15.7685 30.1947 16.1901 30.1947 16.1901L32.501 23.1547Z" fill="black"/>
<path d="M31.0518 23.949L32.3534 23.5586L32.2063 23.9953L32.4388 24.7911H31.573L31.4101 24.234L31.0518 23.949Z" fill="black"/>
<path d="M32.4712 24.0007L32.5887 23.6524L33.5433 22.4882L33.052 21.9374L34.5429 21.9369L34.0516 22.4878L35.0779 23.7394L35.3058 21.9365H35.8308C35.8454 21.9365 35.8595 21.9378 35.8741 21.9386C35.8779 21.939 35.8812 21.939 35.8845 21.9394C36.1816 21.9469 36.757 22.0449 37.3458 22.6049C37.8624 23.0965 38.2633 23.8265 38.547 24.7915H36.7679C36.7274 24.6874 36.6862 24.5919 36.6445 24.504V24.7915H32.7024L32.4712 24.0007Z" fill="#FEC210"/>
<path d="M30.9507 24.7919V24.5052C30.9087 24.5923 30.867 24.6877 30.8262 24.7919H29.0491C29.3157 23.8869 29.6857 23.1873 30.1562 22.7002L30.5395 24.0106L30.6707 23.9714L31.1903 24.3852L31.3095 24.7919H30.9507Z" fill="#FEC210"/>
</svg>
