<?xml version="1.0" encoding="utf-8"?>
<!-- Generator: Adobe Illustrator 24.0.1, SVG Export Plug-In . SVG Version: 6.00 Build 0)  -->
<svg version="1.1" id="Layer_1" xmlns="http://www.w3.org/2000/svg" xmlns:xlink="http://www.w3.org/1999/xlink" x="0px" y="0px"
	 viewBox="0 0 1080 1080" style="enable-background:new 0 0 1080 1080;" xml:space="preserve">
<style type="text/css">
	.st0{fill:#EEDC92;}
	.st1{fill:#800000;}
	.st2{fill:#FDFDFD;}
	.st3{fill:#FFFFFF;}
	.st4{fill:#FFFFFF;stroke:#000000;stroke-width:8;stroke-miterlimit:10;}
	.st5{fill:#F6F2E0;}
	.st6{fill:#6ECAD9;}
	.st7{fill:#EDDC92;}
	.st8{fill:#FEC210;}
</style>
<g>
	<path class="st0" d="M766.36,717.39c-45.98,0.04-91.96,0.09-137.93,0.13c-10.74,0.01-21.48-0.02-32.22-0.02
		c-37.84,0-75.68,0-113.52,0c-65.63,0.01-131.25,0.03-196.88,0.01c-17.95-0.01-30.54-9.62-35.71-27.04
		c-0.15-0.49-0.64-0.89-0.97-1.33c0-25.7,0-51.41,0-77.11c2.26,0.09,4.52,0.25,6.79,0.25c177.66,0.01,355.31,0.01,532.97,0
		c1.89,0,3.78-0.09,5.66-0.14c0,0-0.13,0.4-0.13,0.4c0.07,24.45,0.19,48.9,0.14,73.36c-0.01,3.35-1.21,6.58-2.54,9.72
		C787.12,707.24,777.84,713.6,766.36,717.39z M556.54,665.21c1.12-11.13-9.46-17.75-17.02-17.91c-9.63-0.2-17.2,7.72-17.19,17.74
		c0.01,10.05,6.97,17.26,16.74,17.33C549.35,682.45,556.51,675.42,556.54,665.21z"/>
	<path d="M794.53,612.14c-1.89,0.05-3.78,0.14-5.66,0.14c-177.66,0.01-355.31,0.01-532.97,0c-2.26,0-4.52-0.16-6.79-0.25
		c0-107.73,0-215.46,0-323.19c1.43-0.31,1.36-1.68,1.75-2.65c6.55-16.41,18.24-24.29,36.36-24.29
		c155.37-0.01,310.73-0.01,466.1,0.01c5.47,0,10.94-0.71,16.4,0.21c0.53,2.43,2.95,2.03,4.48,2.86c12.74,6.9,20.34,16.98,20.3,31.96
		c-11.72,0.04-23.43,0.08-35.15,0.11c-1.32-0.06-2.64-0.17-3.96-0.17c-155.17-0.01-310.35,0.02-465.52-0.13
		c-5.11,0-5.68,1.87-5.67,6.22c0.1,88.64,0.04,177.28,0.05,265.92c0,9.34-1.17,8.25,8,8.25c153.1,0.02,306.19,0.02,459.29,0.01
		c2.64,0,5.29-0.07,7.93-0.1c11.61,1.58,23.27,0.43,34.9,0.59C794.42,589.15,794.47,600.65,794.53,612.14z"/>
	<path class="st1" d="M482.67,717.49c37.84,0,75.68,0,113.52,0c4.54,15.96,8.87,31.98,13.67,47.86
		c5.98,19.79,24.72,33.69,45.44,33.85c20.41,0.15,40.82,0.03,61.23,0.05c1.88,0,3.85-0.14,5.63,0.33c4.24,1.12,6.87,3.75,6.89,8.47
		c0.02,4.67-2.42,7.41-6.7,8.62c-1.42,0.4-2.99,0.4-4.49,0.4c-118.88,0.02-237.75,0.01-356.63,0.04c-5.11,0-9.6-1-11.16-6.57
		c-1.8-6.47,2.59-11.24,10.31-11.27c18.9-0.07,37.8-0.02,56.7-0.02c6.41,0,12.84,0.16,19.17-1.13c1.92,1.84,4.31,0.99,6.48,1
		c53.79,0.05,107.58,0.04,161.37,0.04c1.85,0,3.69,0,6.34,0c-4.64-2.51-9.07-3.34-12.85-5.79c-12.48-8.09-21.95-18.31-24.57-33.56
		c-0.93-5.44-3.57-7.4-9.51-7.32c-27.93,0.39-55.86,0.19-83.8,0.14c-2.16,0-4.6,0.8-6.35-1.34
		C476.48,740.01,479.58,728.75,482.67,717.49z"/>
	<path d="M794.49,296.94c0.04-14.98-7.56-25.06-20.3-31.96c-1.53-0.83-3.95-0.43-4.48-2.86c10-0.2,20.03-0.97,29.97,0.42
		c17.39,2.44,30.01,16.7,30.02,34.34c0.07,105.02,0,210.05-0.02,315.07c-11.76,0.2-23.52,0.39-35.28,0.59c0,0,0.13-0.4,0.13-0.4
		c-0.05-11.5-0.11-22.99-0.16-34.49c0.1-2.44,0.28-4.89,0.28-7.34c0.01-85.66,0.01-171.31,0.01-256.97
		C794.64,307.88,794.55,302.41,794.49,296.94z"/>
	<path class="st1" d="M473.38,751.28c1.75,2.15,4.19,1.34,6.35,1.34c27.93,0.05,55.87,0.25,83.8-0.14c5.94-0.08,8.58,1.87,9.51,7.32
		c2.62,15.25,12.09,25.47,24.57,33.56c3.78,2.45,8.21,3.29,12.85,5.79c-2.65,0-4.49,0-6.34,0c-53.79,0-107.58,0.01-161.37-0.04
		c-2.17,0-4.56,0.84-6.48-1c6.5-3.58,13.38-6.38,19.09-11.48c8.66-7.74,13.18-17.52,15.9-28.45
		C471.83,755.85,472.67,753.57,473.38,751.28z"/>
	<path class="st0" d="M794.4,612.55c11.76-0.2,23.52-0.39,35.28-0.59c0.02,23.79,0.17,47.58,0.01,71.37
		c-0.13,18.51-15.48,33.87-33.88,34.13c-9.82,0.14-19.64-0.04-29.45-0.07c11.48-3.8,20.76-10.15,25.65-21.77
		c1.32-3.14,2.53-6.37,2.54-9.72C794.59,661.45,794.47,637,794.4,612.55z"/>
	<path class="st2" d="M556.54,665.21c-0.03,10.21-7.2,17.25-17.47,17.17c-9.77-0.08-16.74-7.29-16.74-17.33
		c-0.01-10.02,7.56-17.94,17.19-17.74C547.08,647.46,557.66,654.08,556.54,665.21z"/>
	<path class="st3" d="M759.46,577.07c-2.64,0.03-5.29,0.1-7.93,0.1c-153.1,0-306.19,0.01-459.29-0.01c-9.17,0-8,1.09-8-8.25
		c-0.01-88.64,0.04-177.28-0.05-265.92c0-4.35,0.56-6.22,5.67-6.22c155.17,0.15,310.35,0.12,465.52,0.13c1.32,0,2.64,0.11,3.96,0.17
		c0.04,1.7,0.12,3.4,0.12,5.1C759.46,393.79,759.46,485.43,759.46,577.07z"/>
	<path class="st3" d="M759.46,577.07c0-91.64,0.01-183.27,0-274.91c0-1.7-0.08-3.4-0.12-5.1c11.72-0.04,23.43-0.08,35.15-0.11
		c0.05,5.47,0.15,10.94,0.15,16.41c0.01,85.66,0.01,171.31-0.01,256.97c0,2.45-0.18,4.89-0.28,7.34
		C782.73,577.5,771.07,578.65,759.46,577.07z"/>
</g>
<circle class="st4" cx="268" cy="366" r="174"/>
<g>
	<path d="M270.52,208c3.63,0,6.59,2.84,6.59,6.32v0.45c11.49,1.54,21.89,6.6,29.78,14.01c9.3,8.73,15.11,20.71,15.11,34.03
		l-0.44,16.45l3.4,23.58c0.13,0.76,0.06,1.55-0.22,2.27c-0.28,0.73-0.75,1.37-1.37,1.86l0.42,0.48l0.78,0.89l-3.43,4.35l-0.07,0.15
		l-0.02,0.05c-1.05,2.56-2.46,4.89-4.08,6.61c-1.37,1.4-2.9,2.4-4.56,2.79c-0.32,0.98-0.68,2.01-0.94,3.01
		c-1.85,5.98-3.31,10.69-7.17,15.37c-0.84,1.02-1.74,2.01-2.69,2.93c-0.65,0.65-1.32,1.28-2.03,1.88c0.11,1.14,0.1,11.08,0.08,13.93
		l-1.14,0.26c-2.48,8.43-9.94,13.89-18.71,16.47c-5,1.46-10.43,2-15.61,1.61c-5.22-0.38-10.21-1.71-14.28-3.95
		c-5.7-3.14-9.61-8.06-9.89-14.72v-0.46l-1.24-0.32v-12.78l0.03-1.34c-3.55-3.09-6.46-7.18-8.42-11.33
		c-1.37-2.9-2.45-6.04-3.71-9.58l-0.65-1.84c-1.42-0.18-2.75-0.81-3.95-1.74c-1.5-1.18-2.79-2.9-3.84-4.88
		c-0.71-1.33-2.1-3.33-2.61-7.48c-1.52-0.89-2.43-2.58-2.17-4.38l3.42-23.6l-0.96-14.45c-0.07-1.05-0.11-2.01-0.11-2.87
		c0-12.87,5.78-24.42,14.93-32.96c8.68-8.1,20.43-13.47,33.13-14.6v-0.17C263.93,210.84,266.89,208,270.52,208z"/>
	<path d="M275.31,373.78c7.69-1.64,14.68-5.75,18.08-12.07c1.1-2.47,3.85-3.98,6.72-3.51c4.53,0.76,7.29,1.19,10.07,1.61
		c33.09,5.11,64.49,9.96,73.17,50.23l9.36,48.49c0.14,0.5,0.22,1.02,0.22,1.56c0,3.26-2.76,5.9-6.15,5.9H151.69
		c-0.32-0.02-0.65-0.04-0.98-0.09c-3.34-0.52-5.62-3.54-5.07-6.75l6.99-40.86c9.88-48.13,36.07-53.11,74.03-60.32
		c3.99-0.75,8.1-1.54,11.3-2.18c3.28-0.65,6.51,1.35,7.23,4.49c1.29,5.53,5,9.39,9.81,11.67c2.89,1.37,6.16,2.2,9.57,2.5
		C268.11,374.76,271.78,374.53,275.31,373.78z"/>
	<path class="st5" d="M294.95,346.52c-17.2,12.82-34.21,11.6-51.06,0.11l-0.08,12.78c1.78,19.81,46.09,20.93,51.13,0.58V346.52z
		 M319.36,308.85c-0.43-0.49-0.86-0.97-1.29-1.45l-0.3-0.18c-11.57-7.81-30.04-11.7-48.6-11.7c-18.02,0-35.88,3.67-47.32,10.96
		l1.6,6.78l5.27,5.29l3.27,3.37c9.17,36.78,65.3,39.08,75.12,0l5.77-4.81L319.36,308.85z"/>
	<path class="st1" d="M320.39,303.57l-3.08-21.33c-0.34-0.02-0.69-0.1-1.01-0.23c-16.81-7.02-33.01-9.9-48.7-9.57
		c-15.7,0.33-30.93,3.89-45.76,9.73c-0.23,0.1-0.47,0.15-0.71,0.18l-3.08,21.22C242.38,286.94,295.61,286.84,320.39,303.57z
		 M317.01,276.31l0.33-12.39c0.69-25.1-21.44-45.25-47.65-45.25h-0.75c-26.62,0-50.1,20.51-48.4,45.96l0.78,11.78
		c14.93-5.7,30.28-9.14,46.15-9.48C283.47,266.59,299.97,269.42,317.01,276.31z"/>
	<path class="st3" d="M276.31,240.58h-2.29c-0.13-0.66-0.37-1.23-0.71-1.73c-0.33-0.5-0.74-0.92-1.22-1.25
		c-0.48-0.34-1-0.6-1.58-0.77c-0.58-0.17-1.18-0.26-1.82-0.26c-1.15,0-2.18,0.29-3.12,0.87c-0.93,0.57-1.66,1.42-2.21,2.55
		s-0.81,2.5-0.81,4.14c0,1.63,0.27,3.01,0.81,4.14c0.54,1.13,1.28,1.98,2.21,2.55c0.93,0.57,1.97,0.87,3.12,0.87
		c0.63,0,1.23-0.09,1.82-0.26c0.58-0.17,1.11-0.43,1.58-0.76c0.48-0.34,0.89-0.76,1.22-1.26c0.33-0.51,0.57-1.08,0.71-1.73h2.29
		c-0.17,0.97-0.49,1.83-0.95,2.59s-1.02,1.41-1.7,1.94c-0.68,0.53-1.43,0.93-2.28,1.2c-0.84,0.28-1.73,0.41-2.69,0.41
		c-1.61,0-3.05-0.39-4.31-1.18c-1.26-0.78-2.25-1.9-2.96-3.35c-0.72-1.45-1.08-3.17-1.08-5.16s0.36-3.71,1.08-5.16
		c0.72-1.45,1.71-2.57,2.96-3.35c1.25-0.78,2.69-1.18,4.31-1.18c0.96,0,1.85,0.13,2.69,0.41c0.84,0.28,1.61,0.68,2.28,1.21
		c0.68,0.53,1.24,1.18,1.7,1.94C275.83,238.75,276.13,239.62,276.31,240.58z"/>
	<path class="st6" d="M299.03,364.02c-4.34,8.43-13.39,13.75-23.18,15.66v27.37h-13.26l-0.01-26.89c-11.06-1.4-20.8-7.42-23.39-18.6
		c-41.69,8.43-70.53,9.06-80.54,57.88l-2.39,13.9h50.84v-24.74c0-1.51,1.28-2.74,2.87-2.74s2.87,1.23,2.87,2.74v51.5h112.5v-51.5
		c0-1.51,1.28-2.74,2.87-2.74c1.59,0,2.86,1.23,2.86,2.74v24.74h50.55l-4.2-21.8C368.81,370.99,333.55,369.81,299.03,364.02z
		 M153.99,446.54l-2.32,13.58h55.42v-13.58H153.99z M331.04,460.11h55.71l-2.62-13.58h-53.09V460.11z"/>
	<path d="M240.65,431.98h-2.23c-0.13-0.62-0.36-1.16-0.69-1.62c-0.32-0.47-0.72-0.86-1.18-1.18c-0.46-0.32-0.97-0.56-1.54-0.73
		c-0.56-0.16-1.15-0.24-1.76-0.24c-1.12,0-2.12,0.27-3.03,0.81c-0.9,0.54-1.61,1.34-2.15,2.39c-0.53,1.05-0.79,2.35-0.79,3.88
		s0.27,2.83,0.79,3.88c0.54,1.05,1.25,1.85,2.15,2.39c0.91,0.54,1.91,0.81,3.03,0.81c0.61,0,1.19-0.08,1.76-0.24
		c0.56-0.16,1.08-0.4,1.54-0.72c0.47-0.32,0.86-0.72,1.18-1.18c0.33-0.47,0.56-1.01,0.69-1.62h2.23c-0.17,0.91-0.48,1.71-0.92,2.43
		s-0.99,1.32-1.65,1.83c-0.66,0.5-1.4,0.87-2.22,1.14c-0.81,0.26-1.69,0.39-2.62,0.39c-1.57,0-2.96-0.37-4.19-1.11
		c-1.22-0.74-2.19-1.79-2.89-3.14c-0.7-1.36-1.05-2.97-1.05-4.84s0.35-3.48,1.05-4.84c0.7-1.36,1.66-2.41,2.89-3.14
		c1.22-0.74,2.62-1.11,4.19-1.11c0.93,0,1.8,0.13,2.62,0.39s1.56,0.64,2.22,1.14s1.21,1.1,1.65,1.82
		C240.18,430.26,240.48,431.07,240.65,431.98z"/>
	<path d="M259.78,435.31c0,1.86-0.35,3.48-1.05,4.84c-0.7,1.36-1.66,2.41-2.89,3.14c-1.22,0.74-2.62,1.11-4.19,1.11
		s-2.96-0.37-4.19-1.11c-1.22-0.74-2.19-1.79-2.89-3.14c-0.7-1.36-1.05-2.97-1.05-4.84s0.35-3.48,1.05-4.84
		c0.7-1.36,1.66-2.41,2.89-3.14c1.22-0.74,2.62-1.11,4.19-1.11s2.96,0.37,4.19,1.11c1.22,0.74,2.19,1.79,2.89,3.14
		C259.43,431.82,259.78,433.43,259.78,435.31z M257.63,435.31c0-1.53-0.27-2.83-0.8-3.88c-0.53-1.05-1.24-1.85-2.15-2.39
		c-0.9-0.54-1.9-0.81-3.02-0.81s-2.12,0.27-3.03,0.81c-0.9,0.54-1.61,1.34-2.15,2.39c-0.53,1.05-0.79,2.35-0.79,3.88
		s0.27,2.83,0.79,3.88c0.54,1.05,1.25,1.85,2.15,2.39c0.91,0.54,1.91,0.81,3.03,0.81s2.12-0.27,3.02-0.81
		c0.91-0.54,1.62-1.34,2.15-2.39C257.36,438.13,257.63,436.84,257.63,435.31z"/>
	<path d="M263.42,444.16h-2.34l6.76-17.7h2.3l6.76,17.7h-2.34l-5.5-14.9h-0.14L263.42,444.16z M264.28,437.24h9.42v1.9h-9.42V437.24
		z"/>
	<path d="M293.71,431.98h-2.23c-0.13-0.62-0.36-1.16-0.7-1.62c-0.32-0.47-0.72-0.86-1.18-1.18c-0.46-0.32-0.97-0.56-1.54-0.73
		c-0.56-0.16-1.15-0.24-1.76-0.24c-1.12,0-2.12,0.27-3.03,0.81c-0.9,0.54-1.61,1.34-2.15,2.39c-0.53,1.05-0.79,2.35-0.79,3.88
		s0.26,2.83,0.79,3.88c0.54,1.05,1.25,1.85,2.15,2.39c0.91,0.54,1.91,0.81,3.03,0.81c0.61,0,1.19-0.08,1.76-0.24
		c0.56-0.16,1.08-0.4,1.54-0.72c0.47-0.32,0.86-0.72,1.18-1.18c0.33-0.47,0.56-1.01,0.7-1.62h2.23c-0.17,0.91-0.48,1.71-0.92,2.43
		s-0.99,1.32-1.65,1.83c-0.66,0.5-1.4,0.87-2.22,1.14c-0.81,0.26-1.68,0.39-2.62,0.39c-1.57,0-2.96-0.37-4.19-1.11
		c-1.22-0.74-2.19-1.79-2.89-3.14c-0.7-1.36-1.05-2.97-1.05-4.84s0.35-3.48,1.05-4.84c0.7-1.36,1.66-2.41,2.89-3.14
		s2.62-1.11,4.19-1.11c0.93,0,1.8,0.13,2.62,0.39s1.56,0.64,2.22,1.14s1.21,1.1,1.65,1.82
		C293.24,430.26,293.54,431.07,293.71,431.98z"/>
	<path d="M297.31,444.16v-17.7h2.23v7.88h9.82v-7.88h2.23v17.7h-2.23v-7.92h-9.81v7.92H297.31z"/>
</g>
<circle class="st4" cx="804" cy="499" r="174"/>
<g>
	<path class="st7" d="M813.65,484.34v20.02c14.34-0.83,26.88-8.57,34.36-20.02H813.65z"/>
	<path class="st7" d="M808.6,484.34h-34.36c7.48,11.46,20.01,19.19,34.36,20.02V484.34L808.6,484.34z"/>
	<path class="st1" d="M767.5,496.61c10.43,12.64,26.1,20.68,43.63,20.68c31.39,0,56.83-25.75,56.83-57.53h3.48
		c0-43.18-19.47-78.32-60.31-78.32c-35.44,0-54.78,26.47-59.28,61.69L767.5,496.61z M755.44,453.03H866.8
		c0,4.59-24.93,8.31-55.68,8.31C780.37,461.34,755.44,457.62,755.44,453.03z M811.13,509.62c-27.16,0-49.26-22.37-49.26-49.86h5.05
		c0,6.99,1.64,13.59,4.47,19.49h79.46c2.83-5.9,4.47-12.5,4.47-19.49h5.05C860.38,487.25,838.28,509.62,811.13,509.62z"/>
	<path d="M780.03,555.71l-43,12.89l-55.35-167.16c0,0,0.57-12.27,18.48-17.63c17.92-5.37,24.52,4.75,24.52,4.75L780.03,555.71z"/>
	<path d="M745.25,574.78l31.24-9.37l-3.53,10.48l5.58,19.1h-20.78l-3.91-13.37L745.25,574.78z"/>
	<path class="st8" d="M779.31,576.02l2.82-8.36l22.91-27.94l-11.79-13.22l35.78-0.01l-11.79,13.22l24.63,30.04l5.47-43.27h12.6
		c0.35,0,0.69,0.03,1.04,0.05c0.09,0.01,0.17,0.01,0.25,0.02c7.13,0.18,20.94,2.53,35.07,15.97c12.4,11.8,22.02,29.32,28.83,52.48
		h-42.7c-0.97-2.5-1.96-4.79-2.96-6.9v6.9h-94.61L779.31,576.02z"/>
	<path class="st8" d="M742.83,594.99v-6.88c-1.01,2.09-2.01,4.38-2.99,6.88h-42.65c6.4-21.72,15.28-38.51,26.57-50.2l9.2,31.45
		l3.15-0.94l12.47,9.93l2.86,9.76L742.83,594.99L742.83,594.99z"/>
</g>
</svg>
