<svg width="21" height="22" viewBox="0 0 21 22" fill="none" xmlns="http://www.w3.org/2000/svg">
<path d="M20.37 19.8175L14.0438 13.4693C16.4484 10.3936 16.242 5.91977 13.4143 3.08223C11.9385 1.60133 9.96734 0.783203 7.88268 0.783203C5.79802 0.783203 3.8269 1.60133 2.35112 3.08223C-0.703629 6.1476 -0.703629 11.1288 2.35112 14.1942C3.8269 15.6751 5.79802 16.4932 7.88268 16.4932C9.64742 16.4932 11.3296 15.9029 12.7022 14.8259L19.0181 21.1638C19.2038 21.3502 19.4515 21.4434 19.6889 21.4434C19.9262 21.4434 20.1739 21.3502 20.3597 21.1638C20.7312 20.791 20.7312 20.18 20.3597 19.8072L20.37 19.8175ZM3.69272 12.8479C1.38102 10.5282 1.38102 6.75861 3.69272 4.44922C4.80729 3.33078 6.29339 2.70942 7.88268 2.70942C9.47198 2.70942 10.9478 3.33078 12.0726 4.44922C14.3843 6.76896 14.3843 10.5385 12.0726 12.8479C10.9581 13.9664 9.47198 14.5877 7.88268 14.5877C6.29339 14.5877 4.81761 13.9664 3.69272 12.8479Z" fill="white"/>
</svg>
