<svg width="78" height="83" viewBox="0 0 78 83" fill="none" xmlns="http://www.w3.org/2000/svg">
<path d="M76.6239 26.5386L63.2167 18.4228L62.7345 18.131L62.7345 17.5673L62.7351 2.09988C62.7351 1.8725 62.5499 1.69238 62.333 1.69238H15.6622C15.4433 1.69238 15.26 1.87087 15.26 2.09991V17.5674V18.131L14.7779 18.4228L1.36909 26.5396C1.34446 26.564 1.3109 26.5954 1.26948 26.6287C1.24531 26.6485 1.22334 26.6657 1.20712 26.6783C1.20106 26.683 1.19621 26.6867 1.19212 26.6899C1.18158 26.7099 1.16742 26.7363 1.15047 26.7654C1.14974 26.7666 1.149 26.7679 1.14826 26.7691L1.13757 26.7878L1.12603 26.8079C1.12493 26.8098 1.12393 26.8116 1.12302 26.8132C1.12091 26.839 1.11753 26.8755 1.11162 26.9175C1.10458 26.9712 1.09488 27.0176 1.08594 27.0541V81.2848C1.08594 81.5139 1.26926 81.6924 1.48808 81.6924H76.5022C76.7194 81.6924 76.9043 81.512 76.9043 81.2848L76.9049 27.0379C76.9026 27.0282 76.9003 27.0178 76.898 27.0068C76.8919 26.9776 76.8857 26.9432 76.8809 26.9044L76.8695 26.813C76.8634 26.802 76.8549 26.787 76.8412 26.7636L76.8532 26.7566C76.8529 26.7559 76.8527 26.7551 76.8525 26.7544L76.8594 26.7523C76.8431 26.7344 76.8281 26.7166 76.8143 26.6992C76.8106 26.6963 76.8066 26.6931 76.8011 26.6889L76.7991 26.6874M76.6239 26.5386L76.7105 26.5911L76.7252 26.5668C76.7302 26.5755 76.7355 26.5846 76.7411 26.5939L76.7175 26.6225C76.7207 26.6252 76.724 26.6278 76.7271 26.6304M76.6239 26.5386C76.6483 26.5627 76.6832 26.5953 76.7271 26.6304M76.6239 26.5386L76.7271 26.6304M76.7991 26.6874C76.7974 26.6842 76.7959 26.6811 76.7944 26.6783L76.793 26.6756C76.7801 26.6614 76.7669 26.6462 76.7537 26.6299L76.7434 26.6432C76.7378 26.6389 76.7324 26.6346 76.7271 26.6304M76.7991 26.6874L76.786 26.6772C76.7713 26.6657 76.7503 26.6494 76.7271 26.6304M76.7991 26.6874C76.8096 26.7073 76.8247 26.7353 76.8427 26.7661L76.854 26.7595L76.7271 26.6304M76.7439 26.5905C76.738 26.5813 76.7324 26.5723 76.7272 26.5637L76.8195 26.4112L76.829 26.4876L76.7439 26.5905ZM1.01949 26.5559L0.389476 26.0852L1.01946 26.5559L1.01949 26.5559ZM1.28211 26.5923L1.28402 26.5911L1.28211 26.5923ZM76.1008 29.9482V27.8106L74.4599 29.1806L51.4611 48.3826L50.6433 49.0653L51.3764 49.8383L74.3752 74.09L76.1008 75.9096V73.4019V29.9482ZM74.7322 27.8931L75.8077 26.9952L74.609 26.2699L64.2564 20.0058L62.7388 19.0875V20.8614V35.7693V37.907L64.3797 36.5369L74.7322 27.8931ZM61.9303 3.50725V2.50725H60.9303H17.0661H16.0661V3.50725V38.1163V38.5841L16.4252 38.8839L38.3572 57.199L38.9982 57.7343L39.6392 57.199L61.5713 38.8839L61.9303 38.5841V38.1163V3.50725ZM3.53244 29.1769L1.89149 27.8067V29.9445V72.7043V75.2021L3.6152 73.3944L26.3151 49.5892L27.0522 48.8161L26.2323 48.1315L3.53244 29.1769ZM13.6197 36.5402L15.2607 37.9104V35.7726V20.8576V19.0836L13.7429 20.0021L3.38671 26.2698L2.1883 26.9951L3.26355 27.8929L13.6197 36.5402ZM1.89149 79.8764L2.8923 80.0159L2.8923 80.8735L75.0982 80.8741L76.0982 80.8741V79.8741V77.4844V77.0856L75.8238 76.7963L50.6659 50.2671L50.0199 49.5859L49.2993 50.1876L39.2513 58.5774L39.2479 58.5803C39.1746 58.642 39.0861 58.6726 38.9949 58.6726C38.9051 58.6726 38.8152 58.6419 38.7408 58.5794L38.7385 58.5775L28.393 49.9373L27.6744 49.3371L27.0282 50.0147L2.16779 76.0854L1.89149 76.3751V76.7755V79.8764Z" fill="#800000" stroke="white" stroke-width="2"/>
<path d="M56.3895 11.6105H21.5975C21.3786 11.6105 21.1953 11.432 21.1953 11.2029C21.1953 10.9739 21.3786 10.7954 21.5975 10.7954H56.3895C56.6064 10.7954 56.7916 10.9755 56.7916 11.2029C56.7916 11.432 56.6083 11.6105 56.3895 11.6105Z" fill="white" stroke="white" stroke-width="2"/>
<path d="M56.3895 19.1173H21.5975C21.3786 19.1173 21.1953 18.9388 21.1953 18.7098C21.1953 18.4807 21.3786 18.3022 21.5975 18.3022H56.3895C56.6064 18.3022 56.7916 18.4824 56.7916 18.7098C56.7916 18.9388 56.6083 19.1173 56.3895 19.1173Z" fill="white" stroke="white" stroke-width="2"/>
<path d="M22.5975 26.6252V26.6252H21.5975C21.3792 26.6252 21.1953 26.4467 21.1953 26.2171C21.1953 25.9881 21.3786 25.8096 21.5974 25.8096C21.5974 25.8096 21.5974 25.8096 21.5975 25.8096L56.3895 25.8102C56.6064 25.8102 56.7916 25.9903 56.7916 26.2177C56.7916 26.4467 56.6083 26.6252 56.3895 26.6252H22.5975Z" fill="white" stroke="white" stroke-width="2"/>
<path d="M56.3895 34.1325H21.5975C21.3792 34.1325 21.1953 33.954 21.1953 33.7244C21.1953 33.4954 21.3786 33.3169 21.5974 33.3169C21.5974 33.3169 21.5974 33.3169 21.5975 33.3169L56.3895 33.3175C56.6064 33.3175 56.7916 33.4976 56.7916 33.725C56.7916 33.9541 56.6083 34.1325 56.3895 34.1325Z" fill="white" stroke="white" stroke-width="2"/>
</svg>
