<svg width="22" height="24" viewBox="0 0 22 24" fill="none" xmlns="http://www.w3.org/2000/svg">
<path id="Vector" d="M17.7515 15.3278C16.7365 15.3275 15.7618 15.7249 15.0365 16.4348L7.96573 12.4593C8.11102 11.8597 8.11102 11.2341 7.96573 10.6345L15.0343 6.65905C15.6946 7.30139 16.562 7.68772 17.4812 7.74887C18.4004 7.81003 19.3114 7.54201 20.051 6.99282C20.7907 6.44362 21.3107 5.6491 21.518 4.75149C21.7253 3.85388 21.6063 2.9118 21.1824 2.09389C20.7585 1.27599 20.0573 0.635668 19.2044 0.287566C18.3514 -0.060536 17.4024 -0.0936905 16.5273 0.194038C15.6521 0.481766 14.908 1.07159 14.428 1.85792C13.9481 2.64424 13.7636 3.57573 13.9078 4.48562L6.67245 8.5556C6.10414 8.0821 5.41266 7.78036 4.67902 7.68573C3.94538 7.5911 3.19997 7.7075 2.53011 8.02129C1.86024 8.33507 1.29367 8.83326 0.896767 9.45748C0.499862 10.0817 0.289063 10.8061 0.289062 11.5458C0.289062 12.2855 0.499862 13.0099 0.896767 13.6341C1.29367 14.2584 1.86024 14.7565 2.53011 15.0703C3.19997 15.3841 3.94538 15.5005 4.67902 15.4059C5.41266 15.3113 6.10414 15.0095 6.67245 14.536L13.9078 18.6082C13.7827 19.3943 13.9016 20.1998 14.2486 20.9162C14.5955 21.6325 15.1537 22.2253 15.8479 22.6146C16.5422 23.0039 17.3391 23.171 18.1312 23.0933C18.9234 23.0157 19.6727 22.697 20.2781 22.1803C20.8836 21.6636 21.316 20.9737 21.5172 20.2035C21.7184 19.4334 21.6786 18.6202 21.4032 17.8734C21.1279 17.1266 20.6302 16.4821 19.9772 16.027C19.3242 15.5718 18.5474 15.3278 17.7515 15.3278Z" fill="white"/>
</svg>
