<svg width="16" height="15" viewBox="0 0 16 15" fill="none" xmlns="http://www.w3.org/2000/svg">
<g id="Group 44758">
<g id="cricket ball">
<path d="M7.49991 14.9997C11.642 14.9997 14.9998 11.6419 14.9998 7.49988C14.9998 3.35781 11.642 0 7.49991 0C3.35782 0 0 3.35781 0 7.49988C0 11.6419 3.35782 14.9997 7.49991 14.9997Z" fill="url(#paint0_radial_2_1291)"/>
<path d="M7.49991 14.9997C11.642 14.9997 14.9998 11.6419 14.9998 7.49988C14.9998 3.35781 11.642 0 7.49991 0C3.35782 0 0 3.35781 0 7.49988C0 11.6419 3.35782 14.9997 7.49991 14.9997Z" fill="black"/>
<path d="M3.04623 13.7496C3.52745 14.1546 4.06499 14.4946 4.64348 14.7696C7.57177 13.8646 12.6246 11.6446 15.2713 6.6397C15.1434 5.94471 14.9232 5.28473 14.6212 4.66974C12.1229 11.0446 5.42674 13.1846 3.04623 13.7496Z" fill="#E0E0E0"/>
<path d="M7.49991 14.9997C11.642 14.9997 14.9998 11.6419 14.9998 7.49988C14.9998 3.35781 11.642 0 7.49991 0C3.35782 0 0 3.35781 0 7.49988C0 11.6419 3.35782 14.9997 7.49991 14.9997Z" fill="black"/>
<path d="M1.63829 12.4502C4.57683 11.4702 10.8378 8.76021 13.633 2.89031C13.3207 2.47032 12.9624 2.08033 12.5733 1.73033C10.0495 7.72023 3.33793 10.3852 0.767998 11.2102C1.01885 11.6502 1.31065 12.0652 1.63829 12.4502Z" fill="white"/>
</g>
<g id="cricket ball_2">
<path id="Vector" d="M7.49991 15.0001C11.642 15.0001 14.9998 11.6423 14.9998 7.50024C14.9998 3.35817 11.642 0.000366211 7.49991 0.000366211C3.35782 0.000366211 0 3.35817 0 7.50024C0 11.6423 3.35782 15.0001 7.49991 15.0001Z" fill="url(#paint1_radial_2_1291)"/>
<g id="Clip path group">
<mask id="mask0_2_1291" style="mask-type:luminance" maskUnits="userSpaceOnUse" x="0" y="0" width="15" height="15">
<g id="b">
<path id="Vector_2" d="M7.50016 14.9997C11.6422 14.9997 15.0001 11.6419 15.0001 7.49988C15.0001 3.35781 11.6422 0 7.50016 0C3.35808 0 0.00025177 3.35781 0.00025177 7.49988C0.00025177 11.6419 3.35808 14.9997 7.50016 14.9997Z" fill="white"/>
</g>
</mask>
<g mask="url(#mask0_2_1291)">
<path id="Vector_3" d="M3.04623 13.7498C3.52745 14.1548 4.06499 14.4948 4.64348 14.7698C7.57177 13.8648 12.6246 11.6448 15.2713 6.63989C15.1434 5.9449 14.9232 5.28491 14.6212 4.66992C12.1229 11.0448 5.42675 13.1848 3.04623 13.7498Z" fill="#E0E0E0"/>
</g>
</g>
<g id="Clip path group_2">
<mask id="mask1_2_1291" style="mask-type:luminance" maskUnits="userSpaceOnUse" x="0" y="0" width="15" height="15">
<g id="b_2">
<path id="Vector_4" d="M7.50016 14.9997C11.6422 14.9997 15.0001 11.6419 15.0001 7.49988C15.0001 3.35781 11.6422 0 7.50016 0C3.35808 0 0.00025177 3.35781 0.00025177 7.49988C0.00025177 11.6419 3.35808 14.9997 7.50016 14.9997Z" fill="white"/>
</g>
</mask>
<g mask="url(#mask1_2_1291)">
<path id="Vector_5" d="M1.63829 12.4504C4.57683 11.4704 10.8378 8.76047 13.633 2.89057C13.3207 2.47058 12.9624 2.08058 12.5733 1.73059C10.0495 7.72049 3.33793 10.3854 0.767998 11.2104C1.01885 11.6504 1.31065 12.0654 1.63829 12.4504Z" fill="white"/>
</g>
</g>
</g>
</g>
<defs>
<radialGradient id="paint0_radial_2_1291" cx="0" cy="0" r="1" gradientUnits="userSpaceOnUse" gradientTransform="translate(6.07257 5.14641) scale(7.72636 7.41188)">
<stop stop-color="#E53A35"/>
<stop offset="1" stop-color="#C62828"/>
</radialGradient>
<radialGradient id="paint1_radial_2_1291" cx="0" cy="0" r="1" gradientUnits="userSpaceOnUse" gradientTransform="translate(5.9646 5.14678) scale(7.58899 7.41188)">
<stop stop-color="#E53A35"/>
<stop offset="1" stop-color="#C62828"/>
</radialGradient>
</defs>
</svg>
