<?xml version="1.0" encoding="utf-8"?>
<!-- Generator: Adobe Illustrator 24.0.1, SVG Export Plug-In . SVG Version: 6.00 Build 0)  -->
<svg version="1.1" id="Layer_1" xmlns="http://www.w3.org/2000/svg" xmlns:xlink="http://www.w3.org/1999/xlink" x="0px" y="0px"
	 viewBox="0 0 1080 1080" style="enable-background:new 0 0 1080 1080;" xml:space="preserve">
<style type="text/css">
	.st0{fill:#EDDC92;}
	.st1{fill:#800000;}
	.st2{fill:#FDFDFD;}
	.st3{fill:#FAFDFE;}
	.st4{fill:#AEE59C;}
</style>
<g>
	<path d="M787.71,910.49v-53.75H292.26v53.75c0,30.38,25.17,54.9,55.44,54.9h384.57C762.57,965.38,787.71,940.87,787.71,910.49z
		 M545.48,953.52c-11.08,0-21.7-4.41-29.53-12.27c-7.84-7.86-12.23-18.53-12.23-29.64s4.4-21.78,12.23-29.64
		s18.46-12.27,29.55-12.27c11.08,0,21.7,4.41,29.53,12.27c7.83,7.86,12.23,18.53,12.23,29.64c-0.02,11.11-4.41,21.77-12.24,29.63
		C567.17,949.08,556.57,953.5,545.48,953.52z"/>
	<path class="st0" d="M291.32,240.13h497.37v599.71H291.32V240.13z"/>
	<path d="M787.71,169.51c0-30.38-25.17-54.9-55.44-54.9H347.7c-30.28,0-55.44,24.52-55.44,54.9v55.59H787.7L787.71,169.51z
		 M576.27,180.91h-72.52c-6.08,0-11-4.94-11-11.05s4.93-11.05,11-11.05h72.52c6.08,0,11,4.94,11,11.05
		C587.27,175.95,582.34,180.91,576.27,180.91z"/>
</g>
<g>
	<path class="st1" d="M903.63,669.72c-5.21-34.16-21.82-61.53-49.35-82.21c-25.46-19.12-54.49-26.29-85.96-24.79
		c-2.7,2.19-6.41,0.16-9.14,2.19c3.17,0.73,6.3,1.54,9.38,2.44c-3.08-0.9-6.21-1.7-9.38-2.43c-12.23,1.18-23.34,6.15-34.69,10.28
		c-16.09,9.24-30.59,20.21-42.73,34.59c-36.39,43.07-36.17,114.74,0.45,157.64c12.06,14.13,26.49,24.81,42.29,34.04
		c11.42,3.97,22.48,9.1,34.73,10.28c2.71,2.08,6.41,0.01,9.11,2.15c8.25-0.01,16.47,0.23,24.75-0.86
		c47.44-6.25,80.96-31.22,101.5-74.22c4.99-10.46,6.46-21.94,10.36-32.69V672C904.49,671.24,903.76,670.52,903.63,669.72z
		 M784.8,573.12c1.76,0.74,3.5,1.52,5.22,2.34c2.3,1.09,4.56,2.25,6.8,3.48c-2.24-1.22-4.5-2.38-6.8-3.48
		C788.3,574.64,786.56,573.87,784.8,573.12c-2.34-0.99-4.71-1.92-7.11-2.79C780.08,571.19,782.45,572.12,784.8,573.12z M757.7,735.9
		c-6.19,3.55-9.03,1.74-9.07-5.67c-0.09-13.73-0.03-27.47-0.03-41.2c0-13.25-0.06-26.51,0.03-39.77c0.04-7.55,3.09-9.29,9.77-5.46
		c23.58,13.55,47.12,27.19,70.62,40.89c6.1,3.56,6.1,6.59,0,10.13C805.28,708.58,781.52,722.28,757.7,735.9z"/>
	<path class="st1" d="M903.63,374.39c-5.01-34.75-22.06-62.31-50.02-83.16c-25.29-18.86-54.16-25.73-85.29-24.44
		c-2.61,2.36-6.37,0.15-9.05,2.26c-12.26,1.15-23.32,6.4-34.81,10.23c-8.97,6.04-18.47,11.2-26.71,18.46
		c-32.75,28.86-47.16,65.45-42.67,108.19c4.54,43.14,27.1,75.72,65.32,96.99c1.43,0.79,2.71,1.84,4.06,2.76
		c11.43,3.91,22.5,9.1,34.76,10.24c2.7,2.06,6.46-0.09,9.09,2.27c8.72-0.24,17.4,0.19,26.16-1.09
		c47.33-6.89,80.63-32.15,100.68-75.41c4.67-10.08,6-21.12,9.79-31.44v-32.72C904.49,376.49,903.79,375.47,903.63,374.39z
		 M758.63,466.14c-0.12-9.95-0.03-19.9-0.03-29.85c0-9.71-0.36-19.45,0.13-29.13c0.29-5.89-1.93-7.58-7.34-7
		c-3.04,0.33-6.16,0.21-9.23,0.01c-6.25-0.4-11.43-4.91-11.49-10.51c-0.06-6.26,3.42-10.32,9.57-11.33
		c4.17-0.68,8.49-0.72,12.73-0.53c4.38,0.2,5.63-1.5,5.73-5.77c0.24-10.85-1.39-21.8,1.13-32.55c3.52-15.03,16.89-25.69,32.39-25.84
		c7.82-0.08,15.64-0.1,23.46,0.01c7.83,0.11,12.38,4.03,12.51,10.52c0.16,7.1-4.06,11.52-12.09,11.85c-7.81,0.33-15.64,0-23.46,0.12
		c-7.41,0.12-11.39,4.01-11.51,11.34c-0.12,8.29,0.11,16.58-0.09,24.87c-0.1,3.91,1.18,5.67,5.27,5.42
		c3.78-0.24,7.59-0.24,11.37,0.02c6.32,0.45,11.79,5.83,11.75,11.24c-0.04,5.77-5.06,10.56-11.74,11.16
		c-0.7,0.06-1.42,0.01-2.13,0.03c-14.47,0.3-14.47,0.3-14.47,14.56c0,17.06,0.03,34.11-0.01,51.17c-0.03,9.13-4.13,14.1-11.39,13.99
		C762.97,479.84,758.73,474.7,758.63,466.14z"/>
	<path class="st1" d="M385.99,595.03c-6.6-5.99-14.16-10.92-21.28-16.34c-13.81-6.62-28.14-11.73-43.15-14.86
		c-12.73-1.17-25.44-2.24-38.13,0.32c-3.44,0.78-6.88,1.52-10.3,2.35c-67.47,16.42-109.64,83.24-92.96,150.18
		c13.38,53.67,49.24,85.02,103.26,95.85c12.69,2.51,25.41,1.44,38.12,0.31c15.02-3.17,29.37-8.25,43.19-14.91
		c5.28-3.94,10.7-7.7,15.81-11.86C440.96,736.81,443.58,647.22,385.99,595.03z M255,744.5c-4.68-0.93-9.17-2.41-13.08-5.2
		c-2.42-1.73-3.93-4.27-3.8-7.26c0.17-3.63,3.64-3.31,5.9-4.01c8.08-2.53,16.17-4.95,23.84-10.57
		c-12.12-6.22-22.8-13.44-29.06-25.23c-8.07-15.19-8.42-31.22-3.73-47.46c1.8-6.24,5.12-4.05,8.16-0.86
		c10.85,11.36,24.16,17.92,39.56,20.57c9.04,1.55,9.73,0.96,10.58-8.03c0.95-10.12,5.86-17.91,15.04-22.58
		c9.42-4.79,19.03-4.7,27.37,1.84c6.94,5.45,13.92,6.18,21.76,3.57c3.65-1.21,7.36-1.6,11.17-1.49c1.89,2.54,3.52,5.18,3.1,8.56
		c-3.17,9.92-7.24,19.38-14.21,27.32c-2.18,2.48-2.17,5.72-2.89,8.62c-8.83,35.68-33.25,57.52-69.41,62.45
		C275.11,746.11,265.09,746.49,255,744.5z"/>
	<path class="st1" d="M370.85,282.67c-2.07-1.13-4.13-2.29-6.18-3.43c-13.73-6.42-28.31-9.87-43.17-12.33
		c-9.43-0.25-18.86-0.64-28.18,1.32c-2.48-0.65-4.62,0.72-6.91,1.18c-68.17,13.55-111.62,76.78-99.88,145.31
		c9.11,53.1,54.86,96.82,106.79,102.04c9.31,2.11,18.77,1.43,28.19,1.39c14.82-2.61,29.46-5.86,43.15-12.39
		c26.14-13.71,46.13-33.37,58.95-60.17C451.66,386.93,428,313.75,370.85,282.67z M263.72,457.2c-9.62-0.29-18.69-9.25-18.76-18.9
		c-0.2-30.55-0.21-61.1,0.01-91.65c0.07-9.99,9.35-18.63,19.48-18.93c5.68-0.18,11.36-0.02,17.05-0.06
		c12.03-0.09,24.07,0.45,36.07-0.78c12.73-0.28,25.51-1.46,38.17,0.62c12.58,2.07,19.67,9.92,19.81,22.77
		c0.32,28.13,0.37,56.29-0.01,84.43c-0.2,14.85-9.38,22.97-26.08,23.65c-10.61,0.44-21.27-0.08-31.9-0.17
		C299.64,456.61,281.66,457.75,263.72,457.2z"/>
	<path class="st2" d="M368.71,637.78c1.88,2.54,3.52,5.17,3.1,8.55c-3.18,9.92-7.24,19.39-14.22,27.33
		c-2.18,2.48-2.17,5.72-2.89,8.62c-8.83,35.68-33.24,57.51-69.41,62.45c-10.19,1.39-20.2,1.77-30.29-0.22
		c-4.68-0.93-9.18-2.4-13.08-5.2c-2.42-1.73-3.93-4.27-3.8-7.26c0.16-3.62,3.63-3.3,5.9-4.01c8.08-2.53,16.18-4.94,23.84-10.56
		c-12.12-6.22-22.8-13.44-29.06-25.24c-8.07-15.19-8.42-31.21-3.73-47.46c1.8-6.25,5.12-4.05,8.16-0.87
		c10.85,11.36,24.16,17.92,39.56,20.57c9.04,1.55,9.73,0.96,10.58-8.03c0.96-10.12,5.87-17.9,15.04-22.57
		c9.42-4.79,19.03-4.7,27.37,1.83c6.94,5.44,13.93,6.18,21.77,3.58C361.2,638.05,364.9,637.67,368.71,637.78z"/>
	<path class="st2" d="M375.56,350.27c-0.15-12.85-7.24-20.7-19.81-22.77c-12.66-2.09-25.44-0.9-38.18-0.63
		c-12,1.24-24.04,0.69-36.07,0.79c-5.68,0.04-11.37-0.11-17.05,0.06c-10.13,0.3-19.41,8.94-19.49,18.93
		c-0.22,30.55-0.21,61.11,0,91.65c0.07,9.65,9.13,18.62,18.76,18.91c17.94,0.54,35.91-0.6,53.83,0.97v0.01
		c10.64,0.09,21.29,0.61,31.91,0.17c16.71-0.68,25.88-8.8,26.08-23.66C375.93,406.56,375.88,378.41,375.56,350.27z M316.93,413.07
		c-10.38,3.57-21.02-0.66-26.45-10.72c-4.92-9.13-2.29-20.57,6.29-27.27c8.39-6.56,20.05-5.89,27.84,1.74
		c2,1.96,3.65,4.29,5.46,6.45c2.06,6.14,2.04,12.29,0.02,18.44C326.45,406.34,322.91,411.02,316.93,413.07z"/>
	<path class="st2" d="M748.6,689.04c0-13.26-0.06-26.52,0.02-39.77c0.05-7.55,3.1-9.3,9.78-5.46
		c23.58,13.55,47.11,27.19,70.61,40.89c6.11,3.56,6.11,6.59,0.01,10.13c-23.73,13.76-47.51,27.46-71.32,41.08
		c-6.19,3.54-9.03,1.74-9.07-5.67C748.55,716.5,748.6,702.77,748.6,689.04z"/>
	<path class="st3" d="M758.6,436.29c0-9.71-0.36-19.45,0.13-29.14c0.3-5.89-1.93-7.58-7.34-7c-3.05,0.32-6.16,0.21-9.23,0.01
		c-6.26-0.4-11.43-4.91-11.49-10.51c-0.06-6.26,3.42-10.32,9.57-11.33c4.16-0.68,8.49-0.73,12.72-0.53c4.38,0.2,5.64-1.5,5.73-5.77
		c0.24-10.85-1.39-21.79,1.13-32.55c3.52-15.02,16.88-25.69,32.38-25.84c7.82-0.07,15.64-0.1,23.46,0.01
		c7.83,0.11,12.38,4.03,12.52,10.52c0.15,7.1-4.07,11.52-12.1,11.85c-7.81,0.33-15.64,0-23.45,0.12
		c-7.42,0.12-11.39,4.01-11.5,11.33c-0.13,8.29,0.11,16.59-0.09,24.88c-0.09,3.91,1.18,5.67,5.27,5.42
		c3.78-0.24,7.59-0.24,11.37,0.02c6.32,0.44,11.8,5.83,11.76,11.23c-0.04,5.78-5.07,10.57-11.74,11.16
		c-0.71,0.06-1.42,0.01-2.13,0.03c-14.47,0.3-14.47,0.31-14.47,14.56c0,17.06,0.03,34.12-0.01,51.18
		c-0.02,9.12-4.13,14.1-11.39,13.99c-6.73-0.1-10.97-5.24-11.06-13.79C758.52,456.2,758.6,446.24,758.6,436.29z"/>
	<path class="st1" d="M556.45,635.13c-11.35,1.47-22.45,2-33.19-2.82c-10.53-0.83-19.49-5.75-27.58-11.87
		c-7-5.29-13.59-6.7-21.61-2.81c-4.86,2.35-10.1,4.03-15.3,5.53c-6.61,1.89-10.25-1.9-8.11-8.44c3.08-9.42,6.31-18.8,9.86-28.06
		c1.78-4.67,1.7-8.92,0.28-13.7c-13.4-45,11.46-92.86,55.62-107.44c2.26-0.75,4.47-1.52,6.9-1.35c12.65-5.68,25.82-4.97,38.74-1.93
		c37.71,8.88,61.58,32.46,68.86,70.46C640.67,583.64,603.56,629.06,556.45,635.13z"/>
	<path class="st1" d="M330.07,383.26c2.06,6.15,2.04,12.3,0.03,18.45c-3.65,4.64-7.19,9.31-13.16,11.36
		c-10.39,3.56-21.03-0.67-26.45-10.72c-4.92-9.13-2.29-20.57,6.28-27.27c8.39-6.56,20.05-5.89,27.84,1.74
		C326.62,378.78,328.26,381.1,330.07,383.26z"/>
	<path class="st2" d="M588.88,548.59c0.63,4.23,1.02,8.44-1.2,12.4c-1.07,0.64-1.48,1.64-1.51,2.84c0,0-0.03-0.08-0.03-0.08
		c-2.23,2.1-4.51,4.16-6.68,6.32c-7.97,7.93-17.9,11.79-28.53,9.11c-14.09-3.55-26.92-10.7-36.25-22.17
		c-10.75-13.22-6.83-29.64,0.54-41.84c3.3-5.45,9.21-6.63,14.23-3.86c5.23,2.89,7.01,8.63,4.51,14.72
		c-0.63,1.53-1.48,2.97-2.08,4.51c-3.24,8.21-1.6,13.39,5.78,18.02c3.61,2.26,7.25,4.47,10.98,6.53c8.11,4.5,10.78,4.05,17.39-2.68
		c0.83-0.84,1.64-1.71,2.41-2.61C576.07,540.95,580.45,540.68,588.88,548.59z"/>
	<path class="st4" d="M586.17,563.83c0.03-1.2,0.44-2.19,1.51-2.84C587.7,562.22,587.46,563.3,586.17,563.83z"/>
</g>
</svg>
