<?xml version="1.0" encoding="utf-8"?>
<!-- Generator: Adobe Illustrator 24.0.1, SVG Export Plug-In . SVG Version: 6.00 Build 0)  -->
<svg version="1.1" id="Layer_1" xmlns="http://www.w3.org/2000/svg" xmlns:xlink="http://www.w3.org/1999/xlink" x="0px" y="0px"
	 viewBox="0 0 1080 1080" style="enable-background:new 0 0 1080 1080;" xml:space="preserve">
<style type="text/css">
	.st0{fill:#800000;}
	.st1{fill:#FFFFFF;}
	.st2{fill:#FFBD11;}
	.st3{fill:#E4E6E7;}
	.st4{fill:#EEDC92;}
	.st5{fill:#F5C918;}
	.st6{fill:#FDFDFE;}
	.st7{fill:#0299DB;}
	.st8{fill:#E04091;}
	.st9{fill:#E7AD27;}
	.st10{fill:#FCF036;}
	.st11{fill:#47307F;}
	.st12{fill:#392C73;}
</style>
<g>
	<path class="st0" d="M990.83,505.73c0,23.43,0,46.87,0,70.3c-3.27,7.88-2.67,16.36-3.82,24.57
		c-12.46,88.54-47.21,167.17-106.08,234.53c-72.98,83.51-164.46,134-274.32,150.89c-10.19,1.57-20.74,0.96-30.56,4.8
		c-24.02,0-48.04,0-72.06,0c-1.35-2.88-4.07-1.66-6.18-1.9c-24.44-2.74-48.65-6.7-72.42-13.14
		c-186.5-50.54-318.67-209.4-332.92-401.94c-8.85-119.47,25.17-226.45,101.23-318.82C334.24,84.33,574.56,40.25,765.58,151.53
		c124.09,72.29,197.18,181.49,220.43,323.62C987.68,485.34,986.99,495.9,990.83,505.73z M929.32,541.16
		c1.83-214.98-172.04-379.05-366.38-388.9C327.76,140.34,153,331.34,151.69,537.52C150.32,753.2,328.36,928.85,538.64,930
		C752.62,931.16,931.92,754.41,929.32,541.16z"/>
	<path class="st1" d="M929.32,541.16c2.59,213.25-176.71,390-390.68,388.83c-210.28-1.15-388.32-176.8-386.95-392.48
		C153,331.34,327.76,140.34,562.94,152.26C757.29,162.11,931.15,326.18,929.32,541.16z M534.02,488.24
		c0.03,5.64,0.05,11.29,0.08,16.93c-0.07,5.82-0.18,11.64-0.2,17.46c-0.02,4.91,1.68,8.68,7.14,9.24c5.33,0.54,8.34-2.87,9.43-7.34
		c1.51-6.19,2.1-12.6-0.63-18.76c1.39-5.23,1.1-10.56,0.91-15.88c1.34-5.69,0.92-11.04-3.05-15.69c2.57-0.5,5.12-1.13,7.71-1.49
		c44.69-6.25,79.93-48.65,74.72-94.42c0.11-4.4,0.23-8.8,0.34-13.2c0.12-5.24,0.24-10.48,0.36-15.72c1.3-1.26,0.85-2.43-0.17-3.57
		c0.38-11.22-2.32-21.76-7-31.86c-0.4-0.8-0.81-1.61-1.21-2.41c-3.89-10.13-10.29-18.52-17.98-26.01c-0.62-0.46-1.25-0.93-1.87-1.39
		c-14.44-15.11-32.89-21.67-52.94-24.8c1.81-7.57,3.69-15.15-0.31-22.64c2.07-4.47,2.65-9.09,1.45-13.9
		c-0.13-4.37,0.18-8.8-0.5-13.08c-0.74-4.71-4.19-6.82-8.93-6.45c-4.39,0.34-7.14,2.85-7.44,7.17c-0.31,4.64,0.05,9.32,0.12,13.98
		c-0.04,3.53-0.07,7.06-0.11,10.6c0,8.08-0.01,16.16-0.01,24.25c-8.39,1.25-16.76,2.55-24.63,5.95c-0.7,0.23-1.4,0.45-2.09,0.68
		c-10.43,4.4-20.1,9.95-27.95,18.28c-0.57,0.58-1.13,1.16-1.7,1.74c-16.93,16.41-25.78,36.34-26.17,59.97
		c-0.03,1.13-0.06,2.26-0.08,3.4c0.04,4.71,0.09,9.42,0.13,14.13c0.2,4.78,0.4,9.55,0.6,14.33c-1.84,10.87-0.71,21.56,2.71,31.92
		c13.02,39.43,41.09,60.05,81.67,64.84C533.14,478.64,533.21,483.38,534.02,488.24z M674.58,347.9c-1.75-0.12-3.49-0.22-5.24-0.35
		c-5.98-0.43-10.08,2.47-10.28,8.22c-0.22,6.22,3.97,9.38,10.26,9.32c1.74-0.02,3.49-0.24,5.23-0.38c4.06,0.05,8.15,0.4,12.19,0.07
		c5.31-0.43,8.82-3.41,8.56-9c-0.23-5.06-3.5-7.88-8.54-8.09C682.71,347.52,678.64,347.81,674.58,347.9z M454.66,454.69
		c4.84-1.88,7.5-5.21,7.2-10.6c-0.23-4.1-2.81-6.33-6.27-7.6c-5.16-1.9-8.1,1.84-11.22,4.86c-0.82,0.79-1.37,1.85-2.05,2.78
		c-2.32,2.18-4.76,4.25-6.94,6.57c-7.22,7.69-5.3,13.63,5.33,16.71c-2.16,2.38-4.48,4.63-6.44,7.16c-3.24,4.18-3.67,8.9-0.01,12.77
		c3.97,4.2,8.44,3.04,12.32-0.72c3.36-3.26,6.67-6.55,9.94-9.9c8.01-8.21,7.02-13.33-3.5-18.44
		C453.57,457.08,454.11,455.89,454.66,454.69z M409.04,364.7c2.3,0.13,4.61,0.46,6.9,0.36c5.8-0.27,9.21-3.11,9-9.25
		c-0.2-5.69-3.41-8.3-8.95-8.23c-2.31,0.03-4.61,0.2-6.92,0.3c-3.74-0.08-7.48-0.32-11.21-0.21c-5.43,0.15-8.74,3-8.79,8.53
		c-0.05,5.6,3.47,8.32,8.76,8.62C401.55,365.03,405.3,364.75,409.04,364.7z M454.59,256.56c-2.62-2.68-5.21-5.41-7.88-8.04
		c-4.15-4.09-8.75-4.8-12.93-0.45c-3.83,3.99-3.15,8.36,0.5,12.37c2.32,2.55,4.58,5.16,6.87,7.75c-10.41,2.78-12.21,8.27-5.04,15.85
		c3.99,4.22,8.08,8.4,12.47,12.2c3.52,3.05,7.63,2.98,10.97-0.46c3.04-3.13,2.92-6.89,0.45-10.35c-2-2.81-5.03-4.93-5.44-8.73
		C464.98,270.43,464.99,265.27,454.59,256.56z M630.42,256.08c-11.61,9.66-11.54,14.95,0.26,20.69c-1.82,2.27-3.68,4.51-5.45,6.83
		c-2.85,3.74-4.77,7.52-0.42,11.59c4.42,4.13,8.8,4.17,13.15,0.02c3.18-3.03,6.26-6.16,9.35-9.28c8.92-9.02,8.37-12.84-2.72-19.13
		c1.89-2.17,3.71-4.39,5.67-6.5c3.73-4.02,4.4-8.27,0.4-12.32c-3.93-3.99-8.37-3.66-12.39-0.03
		C635.48,250.47,633.03,253.36,630.42,256.08z M642.42,444.32c-1.74-1.92-3.31-4.03-5.24-5.73c-4.11-3.63-8.46-3.69-12.37,0.26
		c-3.94,3.97-3.73,8.32-0.08,12.39c1.72,1.91,3.83,3.46,5.77,5.18c0.27,0.52,0.47,1.06,0.6,1.63c-4.9,2.31-10.99,5.4-8.2,11.35
		c3.79,8.1,9.84,15.25,18.26,19.48c4.53,2.28,7.88-0.2,10.51-3.73c2.55-3.42,1.61-6.55-1.11-9.44c-2.6-2.76-5.15-5.57-7.72-8.36
		c4.76-0.04,8.44-1.9,10.05-6.57c1.59-4.6-1.34-7.58-4.28-10.45C646.53,448.33,644.48,446.32,642.42,444.32z M816.69,702.09
		c3.14-9.07,1.84-18.39,1.53-27.65c0.02-60.94,0.04-121.87,0.07-182.81c0.93-16.48-4.51-22.33-21.01-22.39
		c-17.76-0.06-35.53-0.18-53.29,0.05c-12.97,0.17-18.23,5.72-18.64,18.75c0,0-0.18,0.02-0.18,0.02c-9.51,0.99-18.29,4.34-26.88,8.28
		c-9.19,2.84-18.32,5.88-27.58,8.45c-8.54,2.37-12.87,7.51-12.4,16.47c-2.37,0.58-5.03-0.32-7.19,1.4c-8.86,1.71-17.7,3.57-26.6,5.1
		c-16.04,2.76-31.5,9.88-47.83,9.32c-23.3-0.8-46.52-3.8-69.79-5.7c-26.75-2.19-53.52-4.21-80.28-6.31c-1.1-0.42-2.2-0.83-3.3-1.25
		c-0.01-13.41-1.61-15.7-14.38-19.78c-9.31-2.97-18.67-5.78-28.01-8.65c-7.72-3.63-15.69-6.42-24.24-7.29
		c-0.89-12.36-5.51-18.41-16.33-18.69c-20.46-0.51-40.95-0.52-61.41,0.07c-10.33,0.3-15.63,6.91-15.76,17.32
		c-0.09,7.02,0.14,14.04,0.15,21.06c0.1,54.98,0.18,109.97,0.27,164.95c-0.06,8.6-0.13,17.2-0.19,25.8
		c-0.06,5.25-0.37,10.52-0.14,15.76c0.52,11.78,5.15,16.23,16.94,16.31c15.18,0.1,30.36,0.05,45.54,0.02
		c9.58-0.02,19.24,0.95,28.37-3.3c8.61-4.01,15.6-1.74,22.56,4.69c4.78,4.41,10.22,8.64,16.66,10.92c0.8,1.04,1.6,2.07,2.39,3.11
		c-5.09,4.19-5.04,9.77-3.47,15.27c2.91,10.18,18.75,18.84,29.02,15.64c4.68-1.46,6.74-1.76,7.23,4.17
		c1.23,15.14,15.34,25.25,29.8,20.73c5.98-1.87,6.46-0.26,7.63,4.68c2.94,12.43,16.59,21.38,28.75,18.46
		c5.78-1.39,7.34-1.12,7.85,5.28c0.83,10.43,9.39,15.26,17.73,18.76c7.08,2.97,14.68,1.84,20.01-4.58
		c4.16-5.01,8.19-4.29,12.97-1.34c13.43,8.28,26.77,16.74,40.47,24.55c10.15,5.78,16.16,4.32,24.2-3.98
		c7.28-7.51,8.99-16.09,5.57-25.84c2.57,0.49,5.14,1.01,7.72,1.46c8.68,1.49,15.34-1.34,20.15-8.9c4.95-7.78,8.61-15.47,2.03-24.13
		c0.42-0.68,0.85-1.36,1.27-2.04c14,7.74,29.43-11.44,28.06-23.05c-0.79-6.69,0.85-6.98,6.41-6.75
		c13.41,0.54,23.38-8.86,23.83-22.28c0.14-4.29-1.11-8.63-1.72-12.95c1.7-5.06,3.45-10.12,2.31-15.6
		c10.75,2.36,20.68,8.25,31.79,8.6c17.25,0.55,34.54,0.55,51.79,0c11.56-0.37,21.37-4.03,19.75-20.53
		C816.56,708.55,816.74,705.31,816.69,702.09z M678.21,370.43c-2.91,0-5.83-0.04-8.74,0.01c-5.52,0.09-8.74,2.62-9,8.41
		c-0.25,5.5,3,8.26,7.8,8.7c6.06,0.55,12.26,0.74,18.31,0.12c5.51-0.56,9.07-4.21,8.71-10.1c-0.34-5.47-4.3-7.13-9.21-7.15
		C683.45,370.42,680.83,370.42,678.21,370.43z M407.42,370.44c0,0.04,0,0.07,0,0.11c-3.49,0-6.99-0.25-10.45,0.06
		c-4.33,0.4-6.71,3.06-7.13,7.43c-0.4,4.25,0.94,7.78,5.28,8.82c7.69,1.84,15.57,2.12,23.19-0.24c4.15-1.28,6.93-4.4,6.34-9.24
		c-0.6-4.93-3.93-6.81-8.52-6.94C413.23,370.38,410.32,370.44,407.42,370.44z"/>
	<path class="st0" d="M263.6,672.82c-0.09-54.98-0.17-109.97-0.27-164.95c-0.01-7.02-0.24-14.04-0.15-21.06
		c0.13-10.41,5.43-17.02,15.76-17.32c20.46-0.59,40.95-0.58,61.41-0.07c10.82,0.27,15.43,6.33,16.33,18.69
		c-0.11,6.12-0.31,12.24-0.32,18.36c-0.1,56.03-0.16,112.05-0.24,168.08c-4.29,6.95-10.6,9.01-18.58,8.85
		c-18.33-0.37-36.68-0.47-55.01,0.04C273.64,683.68,267.21,681.19,263.6,672.82z M325.99,653.26c0.21-0.53,0.42-1.06,0.63-1.59
		c1.45-4.02,2.58-8.07,1.28-12.38c-2.86-10.16-9.17-15.64-18.04-15.63c-8.76,0-15.01,5.38-18.15,15.61
		c-0.1,3.23-0.21,6.45-0.31,9.68c0.54,0.89,1.09,1.77,1.63,2.66l0.34,0.29l-0.19,0.4c1.28,9.19,7.45,14.73,16.77,15.05
		c8.16,0.28,14.89-5.68,16.24-14.37L325.99,653.26z"/>
	<path class="st0" d="M818.28,491.64c-0.02,60.94-0.04,121.87-0.07,182.81c-5.93,7.64-13.79,9.36-23.17,9.01
		c-16.9-0.62-33.84-0.44-50.75-0.06c-7.99,0.18-14.33-1.87-18.64-8.84c-0.07-3.21-0.21-6.41-0.21-9.62
		c-0.1-58.96-0.19-117.91-0.28-176.87c0,0,0.18-0.02,0.18-0.02c9.14-5.66,19.27-5.39,29.48-5.22c13.12,0.22,26.27,0.53,39.36-0.11
		C803.78,482.25,812.05,483.74,818.28,491.64z M755.6,653.33l-0.11-0.23c1.68,9.14,8.34,14.64,17.31,14.28
		c8.46-0.34,14.52-6.11,15.8-15.03c0,0,0.12-0.75,0.12-0.75c0.55-0.87,1.1-1.73,1.66-2.6c-0.12-3.24-0.23-6.48-0.35-9.72
		c-3.19-10.15-9.48-15.55-18.14-15.55c-8.75,0-15.18,5.55-18.02,15.56c-1.22,4.3-0.21,8.38,1.27,12.41c-0.09,0.2-0.31,0.47-0.25,0.6
		C755.06,652.67,755.35,652.99,755.6,653.33z"/>
	<path class="st2" d="M630.65,345.8c1.02,1.14,1.47,2.32,0.17,3.57c-5.89,0.72-12.47-2.44-17.59,2.23
		c-3.8,3.46-3.58,21.66-0.26,25.85c-4.29-0.49-6.81,1.46-8.98,5.19c-5.69,9.77-11.64,19.63-22.25,24.87
		c-7.81,3.86-11.28,8.9-7.43,17.41c-4.19-1.48-3.46-8.17-9.13-8.29c-18.09-0.37-22.48,3.9-22.47,22.33c-0.6,0.01-1.2,0.02-1.79,0.02
		c-0.01-3.78,0.05-7.56-0.06-11.34c-0.07-2.54,0.56-6.74-2.17-6.87c-8.85-0.4-17.5-5.83-26.59-1.51
		c-1.23-6.11-15.27-16.3-23.94-17.21c-2.68-14.74-11.68-23.75-22.85-22.85c2.11-3.25,7.98-2.68,7.95-8.21
		c-0.13-19.02-2.73-21.66-21.97-21.74c0.03-1.13,0.06-2.26,0.08-3.4c3.21-0.01,6.43-0.22,9.62,0.02c6.16,0.46,9.98-0.9,9.89-8.39
		c-0.07-5.98,0.82-14.49,3.27-17.33c6.9-7.98,11.65-17.63,20.01-24.69c7.27-6.14,22.86-7.54,16.85-23.52
		c3.85,2.33,2.55,9.59,8.92,9.45c19.67-0.43,20.97-1.81,20.97-21.82c0.61,0,1.23-0.01,1.84-0.01c0.34,5.78-1.85,12.2,1.12,17.19
		c2.75,4.62,9.42,1.09,13.82,3.47c0.75,0.41,1.71,0.43,2.49,0.79c4.14,1.9,7.84,1.92,9.88-2.19c4.64,10.6,13.49,14.97,23.59,17.74
		c3.03,13.75,11.69,22.41,21.1,21.09c-1.06,3.55-6.89,2.8-6.47,8.26c1.43,18.75,2.51,19.99,21.52,19.89
		C630.07,345.81,630.36,345.8,630.65,345.8z M555.02,335.01c-0.05,5.67,3.97,5.46,7.87,5.47c3.94,0.01,7.91,0.09,7.69-5.6
		c-0.11-1.67-0.22-3.33-0.33-5c0.04-10.95-3.27-20.58-13.45-25.71c-5.07-2.56-8.09-4.74-7.19-10.8c0.7-4.72-3.19-4.26-5.9-3.88
		c-2.97,0.42-8.7-2.33-8.21,3.14c0.71,7.95-4.28,9.69-9.54,12.19c-3.79,1.8-6.46,4.95-8.54,8.59c-8.35,14.64-2.37,30.47,14.46,38.02
		c5.84,2.62,11.94,4.72,17.65,7.59c3.89,1.95,5.98,5.55,5.46,10.17c-0.53,4.68-3.56,7.1-7.76,8.49
		c-10.43,3.43-19.18-1.54-20.12-12.53c-0.78-9.18-7.11-4.39-11-5.2c-5.5-1.15-5.12,2.98-4.97,6.62c0.49,12.02,6.07,20.5,17.4,24.88
		c3.39,1.31,6.72,2.32,5.96,7.1c-0.97,6.12,3.39,5.55,7.24,5.63c4.25,0.09,8.64,0.43,7.81-6.01c-0.45-3.5,1.27-5.38,4.41-6.5
		c11.65-4.13,17.12-12.52,16.94-24.78c-0.19-12.6-7.66-19.63-18.43-24.15c-5.65-2.37-11.39-4.56-16.93-7.18
		c-4.95-2.34-6.35-6.73-5.17-11.81c1.22-5.24,4.99-7.6,10.2-7.96c10.09-0.71,12.9,6.09,14.57,14.08
		C555.1,331.59,555.06,333.3,555.02,335.01z"/>
	<path class="st2" d="M651.11,522.66c2.15-1.72,4.81-0.81,7.18-1.4c0.77,2.21,1.57,4.4,2.29,6.62
		c15.72,48.28,31.43,96.57,47.14,144.86c1.82,9.61,5.25,18.71,8.82,27.77c-4.34,3-8.68,6-13.02,9c-6.27-0.47-10.25-5.33-15.31-8.09
		c-33.17-18.05-63.15-40.13-85.09-71.41c-8-11.4-18.32-17.69-31.58-19.94c-12.36-2.1-24.76-4.01-37.15-5.93
		c-23.27-3.61-45.58-8.96-58.5-31.68c0.62-7.26-2.4-15.42,5.17-20.97c-0.02,3.05,0.34,6.02,1.87,8.74
		c5.42,15.05,17.62,21.99,31.9,25.96c15.52,4.32,31.62,5.45,47.54,7.41c22.57,2.78,44.66,6.93,61.96,23.45
		c11,10.5,21.87,21.16,32.47,32.06c4.86,5,10.77,7.95,16.83,10.87c5.2,2.51,6.01,0.69,4.97-4.43c-4.89-24.05-9.32-48.2-14.28-72.23
		c-3.3-15.97-4.88-32.34-10.71-47.74C653.14,531.21,654.39,526.5,651.11,522.66z"/>
	<path class="st1" d="M623.48,837.91c3.42,9.75,1.71,18.33-5.57,25.84c-8.04,8.3-14.05,9.76-24.2,3.98
		c-13.7-7.81-27.04-16.26-40.47-24.55c-4.78-2.95-8.81-3.67-12.97,1.34c-5.33,6.42-12.93,7.55-20.01,4.58
		c-8.34-3.5-16.9-8.33-17.73-18.76c-0.51-6.4-2.07-6.67-7.85-5.28c-12.16,2.93-25.81-6.03-28.75-18.46
		c-1.17-4.94-1.66-6.55-7.63-4.68c-14.45,4.52-28.56-5.59-29.8-20.73c-0.48-5.93-2.54-5.63-7.23-4.17
		c-10.27,3.2-26.11-5.45-29.02-15.64c-1.57-5.5-1.62-11.08,3.47-15.27c1.41,0.83,2.82,1.65,4.23,2.48c0,0-0.05-0.28-0.05-0.28
		c0.71,0.56,1.42,1.13,2.13,1.69c0.67,1.49,2.06,1.74,3.44,1.99c7.1,6.28,14.78,2.42,22.3,1.27c-1.56,8.73,1.09,15.75,8.48,20.83
		c0.7,0.37,1.39,0.73,2.09,1.1c0.75,0.42,1.51,0.84,2.26,1.26c8.34,7.08,16.64,4.11,24.92-0.13c-0.85,8.18,1.01,15.19,8.54,19.75
		c1.2,1.97,3.09,2.83,5.25,3.26c8.07,6.28,15.94,3.93,23.78-0.51c-2.26,8.3-0.68,15.41,6.42,20.82l0.18,0.47l0.5,0.03l0.58,0.3
		c0.7,0.53,1.4,1.07,2.11,1.6c9.19,6.38,17.66,7.35,24.47,2.38c3.19-2.33,5.89-5.32,8.81-8.01c14.64,8.94,29.3,17.86,43.93,26.82
		c13.55,8.31,21.44,6.99,31.57-5.37c0.61,0.01,1.22,0.02,1.83,0.04L623.48,837.91z"/>
	<path class="st3" d="M707.73,672.74c-15.71-48.29-31.42-96.57-47.14-144.86c-0.72-2.22-1.53-4.42-2.29-6.62
		c-0.46-8.96,3.86-14.1,12.4-16.47c9.26-2.57,18.39-5.61,27.58-8.45c2.17,1.92,2.34,4.51,2.61,7.18
		c1.78,17.98,3.57,35.96,5.52,53.92c3.91,35.92,8,71.82,11.85,107.74C719.44,676.21,717.72,677.29,707.73,672.74z"/>
	<path class="st3" d="M380.92,495.39c9.34,2.88,18.7,5.68,28.01,8.65c12.77,4.08,14.37,6.37,14.38,19.78
		c-3.59,6.08-4.91,13-7.07,19.6c-14.15,43.08-28.17,86.2-42.23,129.31c-2.97,0.84-5.72,4.46-8.84,2.26
		c-3.32-2.33-1.79-6.5-1.49-9.84c0.92-10.16,2.13-20.3,3.22-30.45c2.67-24.95,5.44-49.88,7.96-74.84
		C377.02,538.39,378.91,516.88,380.92,495.39z"/>
	<path class="st1" d="M630.11,378.29c5.22,45.77-30.02,88.16-74.72,94.42c-2.59,0.36-5.14,0.99-7.71,1.49
		c-3.81-1.62-7.57-1.52-11.3,0.28c-40.58-4.79-68.65-25.4-81.67-64.84c-3.42-10.36-4.55-21.05-2.71-31.92
		c0.73,2.52,1.43,5.05,2.21,7.55c11.3,36.33,35.59,58.8,73.08,64.78c35.71,5.7,64.78-7.41,86.8-36.03
		C622.27,403.39,626.41,390.93,630.11,378.29z"/>
	<path class="st4" d="M482.93,560.23c-1.53-2.72-1.89-5.69-1.87-8.74c3.35-5.18,8.6-5.32,13.97-5.37
		c14.81-0.12,29.67,1.64,44.44-1.06c-37.67-2.85-75.24-6.82-113.02-7.72c0.06-4.09,0.11-8.19,0.17-12.28
		c26.76,2.1,53.53,4.12,80.28,6.31c23.27,1.9,46.49,4.9,69.79,5.7c16.33,0.56,31.79-6.56,47.83-9.32c8.89-1.53,17.73-3.39,26.6-5.1
		c3.29,3.84,2.04,8.55,2.5,12.94c-25.6,4.57-50.94,10.28-76.25,16.22c-20.46,4.8-41.13,9.22-62.29,8.2
		C504.3,559.51,493.63,557.23,482.93,560.23z"/>
	<path class="st4" d="M621.67,837.89c-10.13,12.35-18.03,13.67-31.57,5.37c-14.63-8.97-29.28-17.88-43.93-26.82
		c0.49-6.46,4.27-11.09,8.57-15.44c12.41,10.37,26.06,18.94,40.86,25.25c11.78,5.02,18.19-0.35,17.29-12.91
		c-0.14-1.92-1.63-3.91,0.08-5.81c15.56,3.78,23.54,0.56,29.79-11.84c2.52-5.01,2.13-10.26,1.42-15.48
		c-0.42-3.09-0.23-4.76,3.44-5.51c18.23-3.74,21.47-7.66,23.07-27.47c0.2-2.46,0.29-3.52,3.31-3.51
		c18.72,0.03,27.07-8.01,28.47-27.01c2.66,0.17,5.25,1.78,7.99,0.44l0.4,0.57c0.3,0.77,0.61,1.53,0.91,2.3
		c0.6,1.23,1.19,2.45,1.79,3.68c1.13,5.48-0.61,10.54-2.31,15.6c-6.49,10.41-15.32,15.54-27.84,12.37c-0.35-0.4-0.95-1.17-1.01-1.14
		c-0.98,0.66-0.58,1.42-0.03,2.16c2.94,17.96-5.53,27.99-26.8,31.51c2.27,6.82,2.09,13.55-0.89,20.12
		c-0.42,0.68-0.85,1.36-1.27,2.04c-9.53,11.53-14.77,13.02-29.6,8.13c2.48,7.26,2.3,14.24-0.55,21.08
		C622.72,836.33,622.19,837.11,621.67,837.89z"/>
	<path class="st3" d="M380.92,495.39c-2.01,21.49-3.89,42.99-6.06,64.47c-2.52,24.96-5.29,49.89-7.96,74.84
		c-1.09,10.15-2.3,20.29-3.22,30.45c-0.3,3.35-1.83,7.51,1.49,9.84c3.12,2.19,5.87-1.43,8.84-2.26c-1.76,9.79-5.41,18.97-9.08,28.15
		c-4.06,2.77-8.02,5.82-13.44,4.71c8.12-9.37,4.04-20.55,4.63-31.04c0.08-56.03,0.14-112.05,0.24-168.08
		c0.01-6.12,0.21-12.24,0.32-18.36C365.22,488.98,373.2,491.76,380.92,495.39z"/>
	<path class="st3" d="M707.73,672.74c9.99,4.55,11.71,3.46,10.53-7.55c-3.85-35.92-7.94-71.82-11.85-107.74
		c-1.95-17.96-3.74-35.94-5.52-53.92c-0.26-2.67-0.43-5.26-2.61-7.18c8.6-3.94,17.38-7.29,26.88-8.28
		c0.09,58.96,0.18,117.91,0.28,176.87c0.01,3.21,0.14,6.41,0.21,9.62c0.66,10.48-3.59,21.71,4.74,31.01
		c-5.68,1.23-9.75-1.96-13.85-5.06C712.98,691.46,709.55,682.36,707.73,672.74z"/>
	<path class="st4" d="M364.92,700.88c3.67-9.17,7.31-18.36,9.08-28.15c14.06-43.11,28.08-86.23,42.23-129.31
		c2.16-6.59,3.48-13.51,7.07-19.6c1.1,0.42,2.2,0.83,3.3,1.25c-0.06,4.09-0.11,8.19-0.16,12.28c-1.12,3.59-2.55,7.12-3.33,10.79
		c-9.36,44.19-18.67,88.38-27.88,132.6c-2.66,12.76-2.35,13.08,10.33,20.12c-1.39,8.49-5.96,15.17-12,21.01
		C384.02,714.87,374.47,707.87,364.92,700.88z"/>
	<path class="st1" d="M364.92,700.88c9.55,7,19.1,13.99,28.64,20.99c-2.29,7.03-3.47,14.06-0.23,21.15
		c-6.44-2.28-11.88-6.51-16.66-10.92c-6.96-6.43-13.95-8.7-22.56-4.69c-9.13,4.25-18.8,3.28-28.37,3.3
		c-15.18,0.03-30.36,0.08-45.54-0.02c-11.79-0.08-16.42-4.53-16.94-16.31c-0.23-5.24,0.08-10.5,0.14-15.76
		c4.42,8.05,11.32,11.03,20.35,10.88c17.26-0.28,34.53-0.18,51.79-0.02c5.73,0.05,11.02-1,15.94-3.9
		C356.9,706.7,360.86,703.64,364.92,700.88z"/>
	<path class="st0" d="M730.39,705.57c-8.33-9.31-4.08-20.54-4.74-31.01c4.31,6.97,10.65,9.02,18.64,8.84
		c16.91-0.38,33.85-0.56,50.75,0.06c9.38,0.34,17.24-1.37,23.17-9.01c0.32,9.26,1.61,18.58-1.53,27.65
		c-5.08,5.5-11.35,7.52-18.81,7.41c-17.2-0.25-34.41-0.18-51.62-0.02C740.55,709.54,735.27,708.56,730.39,705.57z"/>
	<path class="st0" d="M351.48,705.59c-4.93,2.89-10.22,3.95-15.94,3.9c-17.26-0.16-34.53-0.26-51.79,0.02
		c-9.03,0.15-15.93-2.84-20.35-10.88c0.06-8.6,0.13-17.2,0.19-25.8c3.61,8.37,10.04,10.87,18.93,10.62
		c18.32-0.51,36.68-0.4,55.01-0.04c7.98,0.16,14.29-1.91,18.58-8.85C355.53,685.04,359.6,696.22,351.48,705.59z"/>
	<path class="st1" d="M730.39,705.57c4.88,2.98,10.16,3.97,15.87,3.91c17.2-0.16,34.41-0.23,51.62,0.02
		c7.45,0.11,13.73-1.91,18.81-7.41c0.05,3.22-0.12,6.46,0.19,9.65c1.63,16.5-8.19,20.16-19.75,20.53c-17.25,0.55-34.54,0.55-51.79,0
		c-11.11-0.35-21.04-6.24-31.79-8.6c-0.6-1.23-1.19-2.45-1.79-3.68c-0.3-0.77-0.61-1.53-0.91-2.3c0,0-0.4-0.57-0.4-0.57
		c-2.31-2.53-4.62-5.07-6.92-7.6c4.34-3,8.68-6,13.02-9C720.64,703.62,724.71,706.81,730.39,705.57z"/>
	<path class="st2" d="M630.11,378.29c-3.7,12.64-7.84,25.11-16.01,35.73c-22.03,28.62-51.1,41.73-86.8,36.03
		c-37.5-5.98-61.78-28.45-73.08-64.78c-0.78-2.5-1.48-5.03-2.21-7.55c-0.2-4.78-0.4-9.56-0.6-14.33c1.73,5.85,3.47,11.7,5.2,17.55
		c0.54,1.16,1.07,2.33,1.61,3.49c4.22,9.95,9.35,19.28,17.66,26.51c0.58,0.57,1.16,1.14,1.74,1.71
		c17.16,18.25,38.4,26.68,63.3,26.34c0.6-0.01,1.2-0.02,1.79-0.02c11.09-0.03,22.06-0.61,31.76-6.99c1.12-0.04,2.24-0.09,3.36-0.13
		c9.81-5.07,19.61-10.14,26.51-19.22c0.55-0.57,1.1-1.14,1.65-1.71c8.47-7.12,13.89-16.27,17.67-26.52
		c0.52-1.15,1.04-2.31,1.57-3.46c1.75-5.28,3.49-10.55,5.24-15.83C630.34,369.49,630.23,373.89,630.11,378.29z"/>
	<path class="st4" d="M510.99,271.95c6.02,15.99-9.57,17.38-16.85,23.52c-8.35,7.06-13.11,16.71-20.01,24.69
		c-2.45,2.84-3.35,11.35-3.27,17.33c0.09,7.49-3.73,8.84-9.89,8.39c-3.19-0.24-6.41-0.03-9.62-0.02
		c0.39-23.63,9.24-43.56,26.17-59.97c0.81,0.11,1.63,0.23,2.44,0.34c-0.25-0.69-0.5-1.39-0.74-2.08
		c7.86-8.33,17.53-13.88,27.95-18.28c0.44,2.57,1.44,4.79,3.84,6.13L510.99,271.95z"/>
	<path class="st0" d="M818.28,491.64c-6.22-7.89-14.5-9.38-24.1-8.92c-13.09,0.64-26.24,0.32-39.36,0.11
		c-10.21-0.17-20.35-0.44-29.48,5.22c0.41-13.03,5.67-18.58,18.64-18.75c17.76-0.23,35.52-0.12,53.29-0.05
		C813.77,469.3,819.2,475.16,818.28,491.64z"/>
	<path class="st1" d="M683.39,751.64c12.52,3.17,21.36-1.96,27.84-12.37c0.61,4.32,1.86,8.66,1.72,12.95
		c-0.45,13.42-10.42,22.82-23.83,22.28c-5.56-0.22-7.2,0.06-6.41,6.75c1.37,11.61-14.06,30.79-28.06,23.05
		c2.99-6.57,3.16-13.3,0.89-20.12c21.27-3.52,29.73-13.55,26.8-31.51C682.71,752.34,683.06,752,683.39,751.64z"/>
	<path class="st4" d="M593.63,296.56c-10.1-2.77-18.96-7.13-23.59-17.74c-2.04,4.1-5.73,4.09-9.88,2.19
		c-0.79-0.36-1.74-0.38-2.49-0.79c-4.41-2.38-11.07,1.15-13.82-3.47c-2.96-4.98-0.78-11.41-1.12-17.19c2.3-0.08,4.61-0.17,6.91-0.25
		c20.05,3.13,38.5,9.69,52.94,24.8c-0.07,1.23-0.13,2.47-0.2,3.7l0.04-0.05c-0.6,0.6-1.2,1.21-1.81,1.81l0.05-0.05
		c-0.6,0.6-1.21,1.21-1.81,1.81l0.05-0.05c-0.6,0.6-1.21,1.21-1.81,1.81l0.05-0.05c-0.6,0.6-1.21,1.21-1.81,1.81
		c0,0,0.05-0.05,0.05-0.05c-0.6,0.6-1.21,1.21-1.81,1.81L593.63,296.56z"/>
	<path class="st1" d="M623.24,835.55c2.85-6.85,3.04-13.83,0.55-21.08c14.83,4.89,20.06,3.4,29.6-8.13
		c6.58,8.66,2.92,16.35-2.03,24.13c-4.81,7.56-11.47,10.4-20.15,8.9c-2.58-0.44-5.15-0.97-7.72-1.46c0,0,0.01,0.01,0.01,0.01
		C623.41,837.13,623.33,836.34,623.24,835.55z"/>
	<path class="st2" d="M393.34,743.02c-3.24-7.09-2.06-14.12,0.23-21.15c6.04-5.84,10.61-12.51,12-21.01c5.4-0.84,6.1-5.82,8.22-9.47
		c6.96-11.97,17.4-15,28.67-8.2c-9.34-0.4-16.09,3.55-20.78,11.67c-4.65,8.05-9.21,16.24-14.75,23.66
		c-6.87,9.21-10.09,18.78-6.97,30.08c-1.41-0.83-2.82-1.65-4.23-2.48C394.93,745.09,394.13,744.05,393.34,743.02z"/>
	<path class="st1" d="M678.21,370.43c2.62,0,5.24-0.01,7.87,0c4.91,0.02,8.87,1.68,9.21,7.15c0.37,5.89-3.2,9.54-8.71,10.1
		c-6.04,0.61-12.24,0.43-18.31-0.12c-4.8-0.44-8.05-3.2-7.8-8.7c0.26-5.78,3.49-8.32,9-8.41
		C672.38,370.4,675.29,370.43,678.21,370.43z"/>
	<path class="st1" d="M644.59,266.81c11.1,6.29,11.65,10.11,2.72,19.13c-3.09,3.12-6.17,6.25-9.35,9.28
		c-4.35,4.15-8.73,4.11-13.15-0.02c-4.35-4.07-2.43-7.85,0.42-11.59c1.76-2.32,3.63-4.56,5.45-6.83c4.66-1.3,8.45-3.78,10.87-8.1
		C642.56,268.05,643.58,267.43,644.59,266.81z"/>
	<path class="st1" d="M407.42,370.44c2.91,0,5.81-0.06,8.72,0.01c4.59,0.12,7.91,2.01,8.52,6.94c0.59,4.84-2.19,7.96-6.34,9.24
		c-7.62,2.35-15.5,2.08-23.19,0.24c-4.34-1.04-5.68-4.57-5.28-8.82c0.41-4.38,2.79-7.03,7.13-7.43c3.46-0.32,6.96-0.06,10.45-0.06
		C407.42,370.51,407.42,370.47,407.42,370.44z"/>
	<path class="st1" d="M453.02,458.27c10.52,5.11,11.51,10.23,3.5,18.44c-3.27,3.35-6.58,6.65-9.94,9.9
		c-3.88,3.76-8.36,4.92-12.32,0.72c-3.66-3.88-3.23-8.6,0.01-12.77c1.96-2.53,4.28-4.78,6.44-7.16
		C446.2,466.22,448.42,460.64,453.02,458.27z"/>
	<path class="st1" d="M642.82,467.34c2.57,2.79,5.12,5.6,7.72,8.36c2.72,2.89,3.66,6.02,1.11,9.44c-2.64,3.53-5.98,6.01-10.51,3.73
		c-8.42-4.23-14.46-11.38-18.26-19.48c-2.79-5.96,3.3-9.04,8.2-11.35C635.49,460.52,637.95,465.46,642.82,467.34z"/>
	<path class="st4" d="M456.6,380.93c-1.73-5.85-3.47-11.7-5.2-17.55c-0.04-4.71-0.09-9.42-0.13-14.13
		c19.23,0.08,21.83,2.71,21.97,21.73c0.04,5.54-5.84,4.97-7.95,8.21c0,0,0.05-0.04,0.05-0.04
		C462.43,379.75,459.51,380.34,456.6,380.93z"/>
	<path class="st4" d="M540.88,259.58c-0.01,20.01-1.3,21.39-20.97,21.82c-6.37,0.14-5.07-7.12-8.92-9.45c0,0,0.03,0.05,0.03,0.05
		c-0.58-2.27-1.17-4.54-1.75-6.81c7.87-3.4,16.25-4.7,24.63-5.95C536.23,259.35,538.56,259.47,540.88,259.58z"/>
	<path class="st4" d="M614.73,317.66c-9.41,1.32-18.07-7.34-21.1-21.09c0,0-0.04,0.04-0.04,0.04c0.6-0.6,1.21-1.21,1.81-1.81
		c0,0-0.05,0.05-0.05,0.05c0.6-0.6,1.21-1.21,1.81-1.81c0,0-0.05,0.05-0.05,0.05c0.6-0.6,1.2-1.21,1.81-1.81
		c0,0-0.05,0.05-0.05,0.05c0.6-0.6,1.2-1.21,1.81-1.81c0,0-0.05,0.05-0.05,0.05c0.6-0.6,1.2-1.21,1.81-1.81c0,0-0.04,0.05-0.04,0.05
		c0.69-0.77,1.38-1.54,2.07-2.31c7.69,7.5,14.09,15.89,17.98,26.01c-1.42,1.47-2.83,2.94-4.25,4.41c0,0,0.07-0.04,0.07-0.04
		c-1.19,0.6-2.39,1.2-3.58,1.79L614.73,317.66z"/>
	<path class="st4" d="M630.45,365.09c-1.75,5.28-3.49,10.55-5.24,15.83c-3.88-1.93-7.73-3.98-12.29-3.5l0.04,0.03
		c-3.32-4.19-3.53-22.38,0.26-25.85c5.12-4.67,11.7-1.51,17.59-2.23C630.7,354.61,630.58,359.85,630.45,365.09z"/>
	<path class="st4" d="M630.65,345.8c-0.29,0-0.58,0.01-0.87,0.01c-19.01,0.1-20.09-1.13-21.52-19.89c-0.42-5.46,5.41-4.71,6.47-8.26
		c0,0-0.05,0.03-0.05,0.03c1.19-0.6,2.39-1.2,3.58-1.79c0,0-0.07,0.04-0.07,0.04c2.08,0.03,4.02-0.31,5.47-1.99
		C628.33,324.04,631.03,334.58,630.65,345.8z"/>
	<path class="st1" d="M454.54,276.69c0.41,3.79,3.44,5.92,5.44,8.72c2.47,3.47,2.59,7.22-0.45,10.35
		c-3.33,3.44-7.44,3.51-10.97,0.46c-4.39-3.8-8.47-7.98-12.47-12.2c-7.17-7.58-5.37-13.07,5.05-15.85c0.46,0.02,0.92,0.11,1.36,0.26
		C445.19,273.12,449.18,275.91,454.54,276.69z"/>
	<path class="st2" d="M642.82,467.34c-4.87-1.89-7.33-6.82-11.74-9.3c-0.13-0.57-0.33-1.11-0.59-1.63
		c-0.7-8.64,2.83-13.11,11.93-12.09c2.06,2,4.11,4,6.17,6c2.95,2.87,5.87,5.85,4.28,10.45
		C651.26,465.44,647.58,467.31,642.82,467.34z"/>
	<path class="st1" d="M549.83,505.76c2.73,6.16,2.14,12.57,0.63,18.76c-1.09,4.47-4.1,7.89-9.43,7.34
		c-5.46-0.56-7.16-4.33-7.14-9.24c0.03-5.82,0.13-11.64,0.2-17.46C539.15,510.51,544.38,510.88,549.83,505.76z"/>
	<path class="st2" d="M644.59,266.81c-1.01,0.62-2.03,1.24-3.04,1.86c-8-0.41-11.98-4.37-11.13-12.59c2.6-2.72,5.06-5.6,7.84-8.12
		c4.03-3.63,8.46-3.96,12.39,0.03c4,4.05,3.33,8.3-0.4,12.32C648.3,262.41,646.48,264.63,644.59,266.81z"/>
	<path class="st2" d="M442.51,268.44c-0.44-0.15-0.89-0.24-1.36-0.26c-2.29-2.58-4.55-5.19-6.87-7.75
		c-3.64-4.01-4.33-8.38-0.5-12.37c4.18-4.35,8.78-3.64,12.93,0.45c2.67,2.64,5.26,5.36,7.88,8.04
		C454.33,264.35,450.14,268.14,442.51,268.44z"/>
	<path class="st2" d="M409.04,364.7c-3.74,0.06-7.49,0.34-11.21,0.12c-5.29-0.31-8.8-3.03-8.76-8.62c0.05-5.53,3.35-8.37,8.79-8.53
		c3.73-0.1,7.47,0.13,11.21,0.21C415.49,353.5,415.51,359.1,409.04,364.7z"/>
	<path class="st2" d="M453.02,458.27c-4.61,2.36-6.82,7.95-12.31,9.13c-10.63-3.09-12.55-9.03-5.33-16.71
		c2.18-2.32,4.62-4.38,6.94-6.57c7.48-0.41,11.17,3.61,12.34,10.57C454.11,455.89,453.57,457.08,453.02,458.27z"/>
	<path class="st2" d="M674.58,347.9c4.06-0.09,8.13-0.38,12.18-0.22c5.04,0.21,8.31,3.03,8.54,8.09c0.25,5.6-3.25,8.57-8.56,9
		c-4.03,0.33-8.12-0.02-12.19-0.07C669.61,359.1,669.56,353.5,674.58,347.9z"/>
	<path class="st2" d="M534.03,224.4c-0.07-4.66-0.43-9.34-0.12-13.98c0.29-4.32,3.04-6.83,7.44-7.17c4.74-0.37,8.19,1.74,8.93,6.45
		c0.67,4.28,0.37,8.71,0.5,13.08C545.76,229.13,540.1,228.91,534.03,224.4z"/>
	<path class="st1" d="M540.88,259.58c-2.33-0.11-4.65-0.22-6.98-0.34c0-8.08,0.01-16.16,0.01-24.25c4.66,4.93,9.78,5.57,15.41,1.68
		c4,7.49,2.13,15.07,0.31,22.64c-2.31,0.08-4.61,0.17-6.91,0.25C542.11,259.57,541.5,259.58,540.88,259.58z"/>
	<path class="st2" d="M549.83,505.76c-5.45,5.12-10.68,4.75-15.73-0.59c-0.03-5.64-0.05-11.29-0.08-16.93
		c6.16-5.45,11.68-4.34,16.72,1.65C550.93,495.21,551.22,500.53,549.83,505.76z"/>
	<path class="st2" d="M642.42,444.32c-9.1-1.02-12.63,3.45-11.93,12.09c-1.94-1.71-4.05-3.27-5.77-5.18
		c-3.65-4.07-3.86-8.42,0.08-12.39c3.91-3.95,8.26-3.89,12.37-0.26C639.11,440.3,640.68,442.4,642.42,444.32z"/>
	<path class="st2" d="M550.74,489.89c-5.04-5.99-10.56-7.09-16.72-1.65c-0.8-4.86-0.88-9.6,2.37-13.77c3.72-1.8,7.49-1.89,11.3-0.28
		C551.65,478.85,552.08,484.19,550.74,489.89z"/>
	<path class="st2" d="M442.51,268.44c7.63-0.3,11.83-4.09,12.09-11.88c10.4,8.72,10.39,13.88-0.05,20.13
		C449.18,275.91,445.19,273.12,442.51,268.44z"/>
	<path class="st2" d="M409.04,364.7c6.48-5.59,6.45-11.2,0.03-16.82c2.31-0.11,4.61-0.27,6.92-0.3c5.54-0.07,8.75,2.53,8.95,8.23
		c0.21,6.14-3.19,8.98-9,9.25C413.65,365.16,411.34,364.83,409.04,364.7z"/>
	<path class="st2" d="M549.32,236.68c-5.62,3.89-10.75,3.24-15.41-1.68c0.04-3.53,0.07-7.06,0.11-10.6
		c6.07,4.51,11.73,4.73,16.75-1.62C551.98,227.58,551.4,232.21,549.32,236.68z"/>
	<path class="st2" d="M674.58,347.9c-5.02,5.59-4.97,11.2-0.03,16.81c-1.74,0.13-3.48,0.36-5.23,0.38
		c-6.29,0.07-10.48-3.1-10.26-9.32c0.2-5.74,4.3-8.65,10.28-8.22C671.09,347.68,672.84,347.79,674.58,347.9z"/>
	<path class="st2" d="M630.42,256.08c-0.85,8.23,3.13,12.18,11.13,12.59c-2.42,4.32-6.21,6.79-10.87,8.1
		C618.88,271.03,618.81,265.73,630.42,256.08z"/>
	<path class="st2" d="M454.66,454.69c-1.17-6.96-4.86-10.97-12.34-10.57c0.68-0.93,1.24-1.99,2.05-2.78
		c3.12-3.02,6.07-6.76,11.22-4.86c3.46,1.28,6.04,3.5,6.27,7.6C462.16,449.48,459.5,452.82,454.66,454.69z"/>
	<path class="st5" d="M509.27,265.19c0.58,2.27,1.17,4.54,1.75,6.81c-2.41-1.34-3.4-3.56-3.84-6.13
		C507.88,265.64,508.57,265.42,509.27,265.19z"/>
	<path class="st5" d="M623.65,313.94c-1.45,1.69-3.39,2.02-5.47,1.99c1.42-1.47,2.83-2.94,4.25-4.41
		C622.84,312.33,623.25,313.13,623.65,313.94z"/>
	<path class="st5" d="M479.22,284.15c0.25,0.69,0.5,1.39,0.74,2.08c-0.81-0.11-1.63-0.23-2.44-0.34
		C478.09,285.31,478.66,284.73,479.22,284.15z"/>
	<path class="st5" d="M604.45,285.51c-0.69,0.77-1.38,1.54-2.07,2.31c0.07-1.23,0.13-2.47,0.2-3.7
		C603.21,284.58,603.83,285.05,604.45,285.51z"/>
	<path class="st6" d="M291.71,639.27c3.14-10.24,9.39-15.61,18.15-15.61c8.86,0,15.18,5.47,18.04,15.64
		C316.44,654.28,304.62,654.27,291.71,639.27z"/>
	<path class="st1" d="M291.71,639.27c12.91,15.01,24.72,15.02,36.19,0.02c1.3,4.3,0.17,8.36-1.28,12.38
		c-0.35,0.47-0.57,1.01-0.63,1.59c0,0,0.2-0.29,0.2-0.29c-12.14,11.16-21.51,10.97-33.01-0.68l0.19-0.4c0,0-0.34-0.29-0.34-0.29
		c-0.54-0.89-1.09-1.77-1.63-2.66C291.51,645.72,291.61,642.49,291.71,639.27z"/>
	<path class="st0" d="M293.18,652.3c11.5,11.64,20.87,11.84,33.01,0.68c-1.35,8.69-8.09,14.65-16.24,14.37
		C300.63,667.03,294.46,661.48,293.18,652.3z"/>
	<path class="st7" d="M325.99,653.26c0.07-0.59,0.28-1.12,0.63-1.59C326.41,652.2,326.2,652.73,325.99,653.26z"/>
	<path class="st7" d="M291.4,648.95c0.54,0.89,1.09,1.77,1.63,2.66C292.49,650.72,291.94,649.83,291.4,648.95z"/>
	<path class="st6" d="M753.87,639.29c2.84-10.01,9.27-15.56,18.02-15.56c8.66,0,14.95,5.4,18.14,15.55
		C777.2,654.29,765.33,654.29,753.87,639.29z"/>
	<path class="st1" d="M753.87,639.29c11.46,15,23.33,15,36.16-0.01c0.12,3.24,0.23,6.48,0.34,9.73c-0.55,0.87-1.1,1.73-1.66,2.6
		c0,0-0.12,0.75-0.12,0.75c-11.64,11.61-20.47,11.8-33.11,0.75c0,0,0.11,0.23,0.11,0.23c-0.01-0.59-0.16-1.13-0.46-1.63
		C753.66,647.67,752.65,643.59,753.87,639.29z"/>
	<path class="st0" d="M755.49,653.1c12.65,11.06,21.47,10.86,33.11-0.75c-1.28,8.92-7.34,14.69-15.8,15.03
		C763.83,667.75,757.17,662.25,755.49,653.1z"/>
	<path class="st8" d="M788.72,651.6c0.55-0.86,1.1-1.73,1.66-2.6C789.83,649.87,789.28,650.74,788.72,651.6z"/>
	<path class="st8" d="M755.14,651.69c0.3,0.5,0.45,1.05,0.46,1.63c-0.24-0.34-0.53-0.66-0.71-1.03
		C754.83,652.16,755.05,651.9,755.14,651.69z"/>
	<path class="st2" d="M555.14,329.87c-1.66-7.99-4.47-14.79-14.57-14.08c-5.21,0.36-8.98,2.72-10.2,7.96
		c-1.18,5.07,0.22,9.47,5.17,11.81c5.54,2.62,11.28,4.81,16.93,7.18c10.77,4.52,18.24,11.54,18.43,24.15
		c0.19,12.26-5.29,20.65-16.94,24.78c-3.15,1.12-4.86,3-4.41,6.5c0.83,6.44-3.56,6.1-7.81,6.01c-3.85-0.08-8.21,0.49-7.24-5.63
		c0.76-4.78-2.57-5.79-5.96-7.1c-11.33-4.38-16.9-12.87-17.4-24.88c-0.15-3.64-0.53-7.77,4.97-6.62c3.89,0.82,10.22-3.98,11,5.2
		c0.94,11,9.69,15.96,20.12,12.53c4.21-1.38,7.23-3.81,7.76-8.49c0.53-4.63-1.56-8.22-5.46-10.17c-5.72-2.86-11.81-4.96-17.65-7.59
		c-16.83-7.55-22.8-23.38-14.46-38.02c2.07-3.64,4.75-6.79,8.54-8.59c5.27-2.51,10.26-4.24,9.54-12.19
		c-0.49-5.48,5.24-2.72,8.21-3.14c2.71-0.38,6.6-0.84,5.9,3.88c-0.9,6.05,2.12,8.24,7.19,10.8c10.18,5.13,13.48,14.76,13.45,25.71
		C565.21,329.88,560.17,329.88,555.14,329.87z"/>
	<path class="st4" d="M540.91,438.97c-24.9,0.34-46.14-8.09-63.3-26.34c0.6-0.61,1.19-1.22,1.79-1.83l-0.06,0.04
		c0.6-0.6,1.21-1.21,1.81-1.81c0,0-0.05,0.05-0.05,0.05c0.6-0.6,1.21-1.21,1.81-1.81c0,0-0.05,0.05-0.05,0.05
		c0.6-0.6,1.21-1.21,1.81-1.81l-0.05,0.05c0.6-0.6,1.21-1.21,1.81-1.81c0,0-0.05,0.05-0.05,0.05c0.6-0.6,1.21-1.21,1.81-1.81
		l-0.04,0.04c8.67,0.91,22.71,11.09,23.94,17.21c9.09-4.32,17.74,1.11,26.59,1.51c2.73,0.12,2.1,4.33,2.17,6.87
		C540.96,431.41,540.89,435.19,540.91,438.97z M508.45,425.81c0.18,0.47,0.35,0.92,0.53,1.37c0.45-0.18,0.9-0.36,1.35-0.54
		c-0.24-0.6-0.48-1.21-0.72-1.81C509.23,425.15,508.85,425.47,508.45,425.81z"/>
	<path class="st4" d="M604.33,412.61c-6.9,9.08-16.7,14.16-26.51,19.23c-0.51-2.67-1.47-5.12-3.55-6.99l0.04,0.07
		c-3.85-8.51-0.38-13.55,7.43-17.41c10.61-5.24,16.55-15.1,22.25-24.87c2.18-3.74,4.7-5.69,8.98-5.19c0,0-0.04-0.03-0.04-0.03
		c3.58,2.32,7.15,4.64,10.73,6.96c-3.77,10.25-9.2,19.4-17.67,26.52c-0.69-0.24-1.38-0.47-2.06-0.7
		C604.05,411,604.19,411.8,604.33,412.61z"/>
	<path class="st4" d="M475.87,410.93c-8.3-7.23-13.44-16.56-17.66-26.51c2.16-2.05,5.77-2.12,7.12-5.25c0,0-0.05,0.04-0.05,0.04
		c11.17-0.9,20.17,8.1,22.85,22.85c0,0,0.04-0.04,0.04-0.04c-0.6,0.6-1.21,1.21-1.81,1.81c0,0,0.05-0.05,0.05-0.05
		c-0.6,0.6-1.21,1.21-1.81,1.81c0,0,0.05-0.05,0.05-0.05c-0.6,0.6-1.21,1.21-1.81,1.81c0,0,0.05-0.05,0.05-0.05
		c-0.6,0.6-1.21,1.21-1.81,1.81c0,0,0.05-0.05,0.05-0.05c-0.6,0.6-1.21,1.21-1.81,1.81c0,0,0.06-0.04,0.05-0.04
		C478.22,410.85,477.05,410.89,475.87,410.93z"/>
	<path class="st4" d="M574.45,431.96c-9.69,6.38-20.67,6.96-31.76,6.99c-0.01-18.42,4.38-22.7,22.47-22.33
		c5.67,0.12,4.94,6.81,9.13,8.29c0,0-0.04-0.07-0.04-0.07C574.32,427.22,574.39,429.59,574.45,431.96z"/>
	<path class="st2" d="M570.58,334.88c0.22,5.69-3.75,5.61-7.69,5.6c-3.9-0.01-7.92,0.21-7.87-5.47
		C560.21,334.97,565.39,334.92,570.58,334.88z"/>
	<path class="st2" d="M570.58,334.88c-5.18,0.04-10.37,0.09-15.55,0.13c0.04-1.71,0.08-3.42,0.11-5.13c5.04,0,10.07,0.01,15.11,0.01
		C570.36,331.55,570.47,333.21,570.58,334.88z"/>
	<path class="st4" d="M442.45,683.19c-11.26-6.8-21.71-3.77-28.67,8.2c-2.12,3.65-2.82,8.63-8.22,9.47
		c-12.69-7.04-12.99-7.36-10.33-20.12c9.21-44.22,18.52-88.41,27.88-132.6c0.78-3.67,2.2-7.2,3.33-10.79
		c37.78,0.9,75.35,4.87,113.02,7.72c-14.77,2.7-29.63,0.94-44.44,1.06c-5.37,0.04-10.61,0.19-13.97,5.37
		c-7.57,5.55-4.55,13.71-5.17,20.97c-1.11,9.99,2.32,18.5,8.94,25.71c17.55,19.09,40.05,28.63,65.29,30.24
		c21.51,1.38,39.83,7.12,54.33,24.01c15.75,18.34,34.87,32.82,55.57,45.31c13.4,8.09,28.25,12.72,42.43,18.94
		c-1.4,19.01-9.75,27.05-28.47,27.01c-3.01,0-3.11,1.05-3.31,3.51c-1.6,19.81-4.83,23.72-23.07,27.47
		c-3.67,0.75-3.86,2.43-3.44,5.51c0.71,5.21,1.11,10.47-1.42,15.48c-6.25,12.41-14.23,15.63-29.79,11.84
		c-1.71,1.9-0.22,3.9-0.08,5.81c0.9,12.57-5.5,17.93-17.29,12.91c-14.8-6.3-28.44-14.88-40.86-25.25c1.32-2.6,2.75-5.15,3.94-7.8
		c4.75-10.52,1.3-20.3-9.03-25.8c-1.48-1.4-3.35-1.51-5.23-1.55c-4.86-6.12-11.64-2.52-17.52-3.45c1.9-3.89,4.07-7.68,5.65-11.7
		c3.74-9.48,0.31-17.35-9.21-21.83c0,0,0.03,0.08,0.03,0.08c-0.56-0.57-1.13-1.13-1.69-1.7c-1.2-0.6-2.4-1.21-3.6-1.81
		c-4.91-6.19-11.8-2.46-17.73-3.56c1.21-2.93,2.44-5.85,3.63-8.79c3.69-9.1,0.55-16.67-8.76-21.14c0,0,0.02,0.08,0.02,0.08
		c-0.57-0.57-1.13-1.14-1.7-1.7c-1.22-0.12-2.44-0.24-3.66-0.36c-0.51-2.47-1.82-4.35-4.43-4.64c-6.36-0.72-12.3-0.86-17.45,4.59
		c-3.9,4.13-5.5,10.28-11.22,12.74c-0.82-6.55-1.51-13.19-9.03-15.96l0.03,0.07c-0.61-0.6-1.21-1.19-1.82-1.79
		C444.79,684.39,443.62,683.79,442.45,683.19z"/>
	<path class="st2" d="M482.93,560.23c10.71-3,21.38-0.73,32.14-0.21c21.16,1.02,41.83-3.4,62.29-8.2
		c25.31-5.94,50.65-11.66,76.25-16.22c5.83,15.4,7.41,31.77,10.71,47.74c4.96,24.03,9.4,48.18,14.28,72.23
		c1.04,5.12,0.23,6.94-4.97,4.43c-6.05-2.92-11.97-5.87-16.83-10.87c-10.6-10.9-21.47-21.56-32.47-32.06
		c-17.3-16.52-39.39-20.67-61.96-23.45c-15.93-1.96-32.02-3.09-47.54-7.41C500.55,582.22,488.35,575.28,482.93,560.23z"/>
	<path class="st2" d="M702.46,716.68c-14.18-6.22-29.03-10.85-42.43-18.94c-20.7-12.49-39.82-26.97-55.57-45.31
		c-14.5-16.89-32.83-22.63-54.33-24.01c-25.24-1.62-47.74-11.16-65.29-30.24c-6.62-7.2-10.05-15.72-8.94-25.71
		c12.92,22.72,35.23,28.07,58.5,31.68c12.39,1.92,24.79,3.83,37.15,5.93c13.25,2.25,23.58,8.54,31.58,19.94
		c21.94,31.28,51.92,53.36,85.09,71.41c5.06,2.75,9.05,7.62,15.31,8.09c2.31,2.53,4.62,5.07,6.92,7.6
		C707.7,718.46,705.12,716.85,702.46,716.68z"/>
	<path class="st2" d="M518.09,725.44c1.2,0.6,2.4,1.21,3.59,1.81c0.56,0.57,1.13,1.13,1.69,1.7c0,0-0.03-0.08-0.03-0.08
		c5.04,12.07-0.81,21.68-7.5,30.72c-10.75,14.51-14.83,35.27-36.51,39.77c-2.16-0.43-4.05-1.29-5.25-3.26
		c-1.54-7.76-2.67-15.26,2.21-22.63c8.02-12.11,15.24-24.75,23.28-36.85C503.83,730.2,509.39,724.96,518.09,725.44z"/>
	<path class="st2" d="M442.45,683.19c1.17,0.6,2.34,1.2,3.5,1.79c0.61,0.6,1.21,1.19,1.82,1.79c0,0-0.03-0.07-0.03-0.07
		c0.72,9.21-0.51,17.9-5.96,25.76c-4.14,5.97-8.2,12.04-11.63,18.43c-5.55,10.32-12.4,18.8-24.68,21.11
		c-1.39-0.25-2.77-0.5-3.44-1.99c-0.71-0.56-1.42-1.13-2.13-1.69c0,0,0.05,0.28,0.05,0.28c-3.12-11.29,0.1-20.87,6.97-30.07
		c5.54-7.43,10.1-15.61,14.75-23.66C426.36,686.74,433.12,682.79,442.45,683.19z"/>
	<path class="st2" d="M544.43,765.84c1.88,0.04,3.75,0.16,5.23,1.56c3,9.59,1.23,18.3-4.52,26.47c-3.35,4.76-6.47,9.73-9.31,14.82
		c-5.05,9.07-12.79,13.22-22.94,13.39c-0.7-0.53-1.4-1.07-2.11-1.6c0,0,0.12-0.79,0.12-0.79l-0.7,0.48l-0.5-0.03
		c0,0-0.18-0.47-0.18-0.47c0.21-8.26-0.49-16.57,4.96-23.92c4.29-5.79,7.88-12.12,11.64-18.29
		C530.34,770.54,536.39,766.66,544.43,765.84z"/>
	<path class="st2" d="M495.22,691.96c9.31,4.47,12.46,12.04,8.77,21.14c-1.19,2.94-2.42,5.86-3.63,8.79
		c-13.54,16.92-24.09,35.74-34.82,54.46c-8.29,4.24-16.58,7.21-24.92,0.13c-0.08-0.58-0.14-1.16-0.17-1.74
		c10.32,1.03,16.73-3.68,21.81-12.65c8.49-14.99,17.95-29.45,27.3-43.93C494.81,710.02,498.85,701.89,495.22,691.96z"/>
	<path class="st2" d="M456.78,702.66c5.72-2.45,7.32-8.61,11.22-12.74c5.15-5.45,11.09-5.31,17.45-4.59c2.6,0.3,3.92,2.17,4.43,4.65
		c-9.72-0.49-15.61,4.82-20.31,12.68c-8.71,14.55-17.42,29.13-26.92,43.17c-5.79,8.55-8.84,16.98-5.45,27.06
		c-0.34,0.38-0.64,0.79-0.92,1.22c-7.39-5.08-10.04-12.1-8.48-20.83c5.65-9.5,11.31-18.99,16.95-28.5
		C449.02,717.55,454.85,711.17,456.78,702.66z"/>
	<path class="st9" d="M479.33,799.35c21.68-4.5,25.75-25.25,36.51-39.77c6.69-9.03,12.54-18.65,7.5-30.72
		c9.53,4.48,12.96,12.35,9.21,21.82c-1.59,4.02-3.75,7.8-5.65,11.7c-9.87,10.88-16.14,24.11-23.79,36.45
		C495.28,803.28,487.4,805.63,479.33,799.35z"/>
	<path class="st2" d="M512.89,822.07c10.15-0.18,17.89-4.32,22.94-13.39c2.83-5.09,5.95-10.05,9.31-14.82
		c5.75-8.17,7.51-16.87,4.52-26.47c10.33,5.5,13.78,15.28,9.03,25.8c-1.2,2.65-2.62,5.21-3.94,7.8c-4.3,4.34-8.08,8.98-8.57,15.44
		c-2.92,2.69-5.62,5.68-8.81,8.01C530.55,829.42,522.09,828.45,512.89,822.07z"/>
	<path class="st9" d="M456.78,702.66c-1.93,8.51-7.76,14.89-12.04,22.11c-5.64,9.51-11.3,19-16.95,28.5
		c-7.52,1.15-15.2,5.01-22.3-1.27c12.28-2.31,19.13-10.78,24.68-21.11c3.43-6.38,7.49-12.46,11.63-18.43
		c5.45-7.86,6.68-16.55,5.96-25.76C455.27,689.48,455.96,696.11,456.78,702.66z"/>
	<path class="st2" d="M465.54,776.34c10.73-18.71,21.28-37.54,34.82-54.46c5.93,1.09,12.82-2.63,17.73,3.56
		c-8.7-0.48-14.26,4.76-18.52,11.17c-8.04,12.1-15.26,24.74-23.28,36.85c-4.88,7.37-3.75,14.87-2.21,22.63
		C466.55,791.53,464.69,784.52,465.54,776.34z"/>
	<path class="st2" d="M503.11,798.84c7.65-12.33,13.92-25.57,23.79-36.45c5.88,0.93,12.66-2.67,17.52,3.45
		c-8.03,0.82-14.08,4.7-18.3,11.61c-3.76,6.17-7.35,12.5-11.64,18.29c-5.45,7.35-4.75,15.66-4.96,23.92
		C502.44,814.24,500.85,807.13,503.11,798.84z"/>
	<path class="st10" d="M399.91,748.32c0.71,0.56,1.42,1.13,2.13,1.69C401.33,749.45,400.62,748.88,399.91,748.32z"/>
	<path class="st10" d="M438.36,775.21c-0.7-0.37-1.39-0.73-2.09-1.1c0.27-0.43,0.58-0.84,0.92-1.22c0.59,0.58,1.18,1.15,1.77,1.73
		L438.36,775.21z"/>
	<path class="st10" d="M440.45,774.73c0.03,0.58,0.09,1.16,0.17,1.74c-0.75-0.42-1.51-0.84-2.26-1.26c0,0,0.61-0.59,0.61-0.59
		C439.46,774.69,439.95,774.73,440.45,774.73z"/>
	<polygon class="st10" points="510.21,820.16 510.91,819.68 510.79,820.46 	"/>
	<path class="st11" d="M623.24,835.55c0.09,0.79,0.17,1.58,0.26,2.37c-0.61-0.01-1.22-0.02-1.83-0.04
		C622.19,837.11,622.72,836.33,623.24,835.55z"/>
	<path class="st9" d="M710.85,717.69c0.3,0.77,0.61,1.53,0.91,2.3C711.46,719.23,711.15,718.46,710.85,717.69z"/>
	<path class="st12" d="M682.35,752.67c-0.55-0.74-0.95-1.5,0.03-2.16c0.05-0.04,0.66,0.74,1.01,1.14
		C683.06,752,682.71,752.34,682.35,752.67z"/>
	<path class="st5" d="M623.65,384.38c-3.58-2.32-7.15-4.64-10.73-6.96c4.57-0.47,8.41,1.57,12.29,3.5
		C624.69,382.07,624.17,383.22,623.65,384.38z"/>
	<path class="st5" d="M465.34,379.17c-1.36,3.13-4.97,3.2-7.12,5.25c-0.54-1.16-1.08-2.33-1.61-3.49
		C459.51,380.34,462.43,379.75,465.34,379.17z"/>
	<path class="st5" d="M574.45,431.96c-0.07-2.37-0.13-4.74-0.2-7.12c2.09,1.87,3.04,4.32,3.55,6.99
		C576.69,431.88,575.57,431.92,574.45,431.96z"/>
	<path class="st5" d="M604.33,412.61c-0.14-0.8-0.28-1.61-0.42-2.41c0.69,0.23,1.38,0.47,2.06,0.7
		C605.43,411.47,604.88,412.04,604.33,412.61z"/>
	<path class="st5" d="M475.87,410.93c1.18-0.04,2.35-0.08,3.53-0.12c-0.6,0.61-1.19,1.22-1.79,1.83
		C477.03,412.06,476.45,411.5,475.87,410.93z"/>
	<path class="st5" d="M595.4,294.8c-0.6,0.6-1.21,1.21-1.81,1.81C594.19,296,594.79,295.4,595.4,294.8z"/>
	<path class="st5" d="M598.91,291.28c-0.6,0.6-1.2,1.2-1.81,1.81C597.71,292.49,598.31,291.88,598.91,291.28z"/>
	<path class="st5" d="M600.67,289.52c-0.6,0.6-1.2,1.2-1.81,1.81C599.46,290.73,600.07,290.13,600.67,289.52z"/>
	<path class="st5" d="M597.15,293.04c-0.6,0.6-1.21,1.21-1.81,1.81C595.95,294.24,596.55,293.64,597.15,293.04z"/>
	<path class="st5" d="M602.43,287.77c-0.6,0.6-1.2,1.2-1.81,1.81C601.22,288.97,601.82,288.37,602.43,287.77z"/>
	<path class="st5" d="M618.25,315.89c-1.19,0.6-2.38,1.2-3.58,1.79C615.87,317.09,617.06,316.49,618.25,315.89z"/>
	<path class="st5" d="M508.45,425.81c0.4-0.34,0.78-0.65,1.16-0.97c0.24,0.6,0.48,1.21,0.72,1.81c-0.45,0.18-0.9,0.36-1.35,0.54
		C508.8,426.73,508.63,426.28,508.45,425.81z"/>
	<path class="st5" d="M479.34,410.85c0.6-0.6,1.21-1.21,1.81-1.81C480.55,409.64,479.95,410.25,479.34,410.85z"/>
	<path class="st5" d="M484.62,405.58c0.6-0.6,1.21-1.21,1.81-1.81C485.82,404.37,485.22,404.97,484.62,405.58z"/>
	<path class="st5" d="M482.86,407.33c0.6-0.6,1.21-1.21,1.81-1.81C484.07,406.13,483.46,406.73,482.86,407.33z"/>
	<path class="st5" d="M486.37,403.82c0.6-0.6,1.21-1.21,1.81-1.81C487.58,402.61,486.98,403.22,486.37,403.82z"/>
	<path class="st5" d="M481.1,409.09c0.6-0.6,1.21-1.21,1.81-1.81C482.31,407.89,481.7,408.49,481.1,409.09z"/>
	<path class="st2" d="M440.45,774.73c-0.5,0-0.99-0.04-1.49-0.11c-0.59-0.58-1.18-1.15-1.77-1.73c-3.39-10.08-0.34-18.51,5.45-27.06
		c9.5-14.03,18.21-28.62,26.92-43.17c4.71-7.86,10.59-13.17,20.31-12.68c1.22,0.12,2.44,0.24,3.66,0.35c0.57,0.57,1.14,1.14,1.7,1.7
		c0,0-0.02-0.08-0.02-0.08c3.63,9.93-0.41,18.07-5.66,26.2c-9.35,14.48-18.81,28.94-27.3,43.93
		C457.18,771.05,450.77,775.76,440.45,774.73z"/>
	<path class="st9" d="M447.78,686.78c-0.61-0.6-1.21-1.19-1.82-1.79C446.56,685.58,447.17,686.18,447.78,686.78z"/>
	<path class="st9" d="M495.24,692.04c-0.57-0.57-1.14-1.14-1.7-1.7C494.11,690.9,494.67,691.47,495.24,692.04z"/>
	<path class="st9" d="M523.37,728.95c-0.56-0.57-1.13-1.13-1.69-1.7C522.24,727.82,522.81,728.38,523.37,728.95z"/>
</g>
<circle class="st1" cx="537.5" cy="349.5" r="54.5"/>
<path class="st2" d="M541.07,287.69c-16.42,0-32.18,6.53-43.79,18.14s-18.14,27.37-18.14,43.79c0,16.42,6.53,32.18,18.14,43.79
	s27.37,18.14,43.79,18.14s32.18-6.53,43.79-18.14S603,366.04,603,349.62c-0.02-16.42-6.55-32.16-18.16-43.77
	C573.23,294.24,557.49,287.71,541.07,287.69L541.07,287.69z M559.53,333.04h6.91c2.5,0,4.52,2.02,4.52,4.52
	c0,2.5-2.02,4.52-4.52,4.52h-6.91c-0.98,6.13-4.12,11.71-8.86,15.72c-4.74,4.01-10.76,6.19-16.97,6.13h-5.93l24.72,21.59
	c1.89,1.68,2.08,4.56,0.44,6.48c-0.79,0.9-1.9,1.46-3.1,1.54c-1.2,0.08-2.38-0.32-3.28-1.11l-33.84-29.45
	c-1.42-1.27-1.93-3.27-1.27-5.05c0.65-1.79,2.33-2.99,4.23-3.04h18.03c3.8,0.01,7.49-1.24,10.49-3.56c3-2.32,5.14-5.57,6.09-9.25
	h-34.6c-2.49,0-4.52-2.02-4.52-4.52s2.02-4.52,4.52-4.52h34.59c-1.11-3.51-3.32-6.58-6.3-8.74c-2.98-2.17-6.57-3.33-10.26-3.31
	h-18.03c-2.49,0-4.52-2.02-4.52-4.52c0-2.5,2.02-4.52,4.52-4.52h50.76c2.49,0,4.52,2.02,4.52,4.52c0,2.5-2.03,4.52-4.52,4.52H553.5
	C556.56,324,558.7,328.52,559.53,333.04z"/>
</svg>
