<?xml version="1.0" encoding="utf-8"?>
<!-- Generator: Adobe Illustrator 24.0.1, SVG Export Plug-In . SVG Version: 6.00 Build 0)  -->
<svg version="1.1" id="Layer_1" xmlns="http://www.w3.org/2000/svg" xmlns:xlink="http://www.w3.org/1999/xlink" x="0px" y="0px"
	 viewBox="0 0 1080 1080" style="enable-background:new 0 0 1080 1080;" xml:space="preserve">
<style type="text/css">
	.st0{fill:#FFBD12;}
	.st1{fill:#FFFFFF;}
</style>
<g>
	<path class="st0" d="M283.89,604.75c0.91-57.31,47.11-102.68,103.5-101.63c56.35,1.05,100.49,47.23,99.64,104.25
		c-0.83,55.95-47.41,100.08-104.61,99.12C328.43,705.58,283.04,658.71,283.89,604.75z M428.36,570.53
		c-1.4-16.81-9.18-29.58-24.65-36.76c-5.05-2.34-7.42-4.62-7.24-10.54c0.2-6.6-3.9-11.11-10.79-11.13
		c-6.79-0.02-11.12,4.05-10.81,10.94c0.27,5.84-1.91,8.3-7.16,10.61c-16.86,7.41-26.35,24.19-24.73,42.08
		c1.68,18.63,13.94,33.44,31.93,38.02c4.98,1.27,10.34,1.06,15.34,2.28c15.22,3.7,21.17,21.39,11.23,33.23
		c-5.33,6.35-12.44,9.12-20.52,6.99c-9.45-2.49-15.04-8.84-16.03-18.87c-0.76-7.73-4.28-13.1-12.88-11.86
		c-8.79,1.27-9.81,7.86-8.92,15.23c1.96,16.23,10.56,27.75,25.3,34.39c4.38,1.97,6.61,3.72,6.43,9.08
		c-0.32,9.21,3.86,13.8,11.06,13.37c8.15-0.48,11.24-5.88,10.64-13.12c-0.48-5.79,2.33-7.52,6.95-9.63
		c20.01-9.13,29.8-31.44,22.69-52.04c-6.76-19.6-21.47-28.61-41.73-29.94c-12.33-0.81-20.35-10.25-19.51-22.01
		c0.82-11.39,10.06-19.58,21.58-19.13c10.85,0.43,17.77,7.35,19.69,20.11c1.05,6.99,4.5,11.78,11.8,11.35
		C425.25,582.74,428.6,577.86,428.36,570.53z"/>
	<path class="st0" d="M847.51,595.57c-33.03,0-66.06,0.13-99.08-0.06c-16.98-0.09-26.37-11.32-23.42-27.34
		c2.04-11.08,10.28-17.44,23.33-17.49c32.72-0.11,65.45-0.04,98.17-0.04c33.03,0,66.06-0.11,99.08,0.04
		c17.28,0.08,27.75,13.5,23.17,29.2c-3,10.31-10.91,15.61-24,15.65C912.35,595.63,879.93,595.58,847.51,595.57z"/>
	<path class="st0" d="M847.5,417.21c32.42,0,64.84-0.09,97.25,0.04c14.85,0.06,23.8,7.55,24.76,20.17
		c1.13,14.81-8.24,24.66-23.9,24.69c-49.24,0.08-98.48,0.03-147.71,0.03c-16.21,0-32.42,0.04-48.63-0.01
		c-15.41-0.05-24.57-8.23-24.82-22c-0.26-14.21,8.86-22.8,24.88-22.87C782.05,417.11,814.78,417.2,847.5,417.21z"/>
	<path class="st0" d="M846.56,750.84c32.73,0,65.45-0.07,98.18,0.03c15.05,0.05,24.23,8.06,24.81,21.18
		c0.62,14.07-8.21,23.55-22.99,23.85c-16.2,0.33-32.42,0.08-48.63,0.08c-49.55,0-99.09,0.07-148.64-0.04
		c-16.55-0.04-26.02-9.81-24.68-24.83c1.16-12.92,9.83-20.2,24.7-20.25C781.72,750.77,814.14,750.84,846.56,750.84z"/>
	<path class="st0" d="M537.3,795.99c-32.43,0-64.85,0.1-97.28-0.04c-15.83-0.07-25.53-9.86-24.58-24.21
		c0.85-12.76,9.91-20.77,24.28-20.85c27.53-0.16,55.06-0.05,82.6-0.05c37.93,0,75.87-0.11,113.8,0.05
		c18.08,0.08,28.27,13.19,23.47,29.6c-3.02,10.32-10.76,15.44-24.09,15.48C602.77,796.05,570.04,795.99,537.3,795.99z"/>
	<path class="st0" d="M233.54,750.12c33.63,0,67.26,0.02,100.89-0.01c11.08-0.01,18.68,6.08,20.64,16.69
		c2.21,12.01-3.07,22.46-13.52,25.89c-3.41,1.12-7.19,1.51-10.8,1.52c-65.12,0.09-130.24,0.11-195.35,0.03
		c-19.07-0.02-30.23-15.45-23.06-31.79c3.46-7.87,9.34-12.43,18.48-12.4c34.24,0.12,68.48,0.05,102.72,0.05
		C233.54,750.1,233.54,750.11,233.54,750.12z"/>
	<path class="st0" d="M538.23,415.84c33.33,0.01,66.66-0.2,99.99,0.09c16.82,0.15,26.56,14.67,21.07,30.41
		c-3.24,9.28-11,14.12-23.23,14.13c-40.97,0.05-81.95,0.02-122.92,0.02c-25.07,0-50.15,0.23-75.22-0.09
		c-17.72-0.23-28.03-17.55-20-33.09c4.41-8.55,11.9-11.56,21.24-11.52C472.18,415.92,505.21,415.84,538.23,415.84z"/>
	<path class="st0" d="M847.46,350.5c33.02,0,66.04-0.14,99.06,0.06c17.61,0.1,28.03,15.86,21.24,31.68
		c-3.97,9.26-11.47,12.99-21.2,12.99c-14.06-0.01-28.13,0-42.19,0c-51.67,0-103.34,0.04-155.01-0.03
		c-14.11-0.02-22.26-5.98-24.31-17.28c-2.85-15.71,6.42-27.28,22.44-27.36C780.8,350.38,814.13,350.5,847.46,350.5z"/>
	<path class="st0" d="M846.57,283.94c32.71,0,65.42-0.05,98.14,0.02c16.13,0.03,25.06,8.29,24.84,22.66
		c-0.21,13.82-9.19,21.81-24.83,21.82c-65.73,0.04-131.46,0.05-197.19-0.02c-11.12-0.01-19.24-5.59-21.98-14.55
		c-2.96-9.64,0.07-19.98,7.34-25.71c4.91-3.86,10.57-4.27,16.47-4.26C781.76,283.97,814.17,283.94,846.57,283.94z"/>
	<path class="st0" d="M847.36,662.35c-33.33,0-66.65,0.12-99.98-0.05c-14.93-0.08-24.04-10.3-22.73-24.75
		c1.01-11.12,8.17-18.45,19.31-19.67c2.42-0.26,4.88-0.3,7.32-0.3c63.9-0.01,127.8,0.02,191.7-0.05c8.9-0.01,17.24,1.02,22.64,9.16
		c5.17,7.79,5.52,16.23,1.28,24.37c-4.19,8.03-11.49,11.34-20.49,11.33C913.4,662.32,880.38,662.35,847.36,662.35z"/>
	<path class="st0" d="M846.97,728.84c-32.71,0-65.42,0.05-98.13-0.02c-15.41-0.03-24.38-8.32-24.35-22.22
		c0.02-13.8,9.16-22.18,24.47-22.19c65.42-0.04,130.85-0.04,196.27,0c15.4,0.01,24.35,8.33,24.32,22.3
		c-0.03,14-8.84,22.08-24.44,22.11C912.4,728.88,879.68,728.84,846.97,728.84z"/>
	<path class="st0" d="M846.57,484.23c33.93,0.01,67.87-0.1,101.8,0.07c11.16,0.06,19.31,7.42,20.97,17.99
		c1.78,11.37-3.68,21.56-13.84,25c-3.09,1.05-6.58,1.29-9.88,1.29c-65.73,0.07-131.45,0.09-197.18,0.03
		c-15.12-0.01-24.21-8.78-23.96-22.67c0.25-13.5,9.18-21.69,23.96-21.71C781.16,484.18,813.87,484.22,846.57,484.23z"/>
	<path class="st0" d="M423.95,722.51c22.07-7.74,39.99-19.51,54.48-36.22c2.56-2.95,5.45-3.28,8.92-3.28
		c49.18,0.05,98.36-0.09,147.54,0.11c17.46,0.07,28.03,12.09,24.8,27.31c-2.22,10.49-10.64,17.65-22.55,17.68
		c-66.28,0.17-132.57,0.1-198.85,0.01C433.47,728.11,428.76,727,423.95,722.51z"/>
	<path class="st0" d="M346.83,722.5c-4.48,4.79-8.99,4.81-13.56,4.81c-66.89-0.02-133.79,0.01-200.68-0.03
		c-11.8-0.01-20.55-7.74-21.92-19c-1.38-11.4,5.98-21.75,17.56-24.24c3.54-0.76,7.26-0.94,10.9-0.95
		c47.65-0.06,95.3,0.03,142.95-0.14c5.27-0.02,8.92,1.27,12.56,5.4C308.63,704.19,326.17,714.99,346.83,722.5z"/>
	<path class="st0" d="M424.81,487.29c4.41-3.98,9.34-4.78,14.61-4.78c65.69,0.03,131.37-0.03,197.06,0.06
		c14.05,0.02,23.89,9.46,23.88,22.31c-0.01,12.46-9.57,22.04-23.07,22.09c-50.1,0.18-100.21,0.08-150.31,0.08
		c-2.74,0-5.38,0.2-7.47-2.35c-7.21-8.8-15.8-16.1-25.17-22.52C445.24,495.95,435.18,491.61,424.81,487.29z"/>
	<path class="st0" d="M570.37,549.37c21.99,0,43.98-0.25,65.97,0.08c17.38,0.26,27.91,13.94,23.08,29.19
		c-2.91,9.18-10.86,15.49-21.45,15.54c-41.23,0.23-82.46,0.04-123.7,0.22c-4.36,0.02-5.57-1.43-6.13-5.52
		c-1.6-11.81-4.47-23.35-9.72-34.13c-2.45-5.04-0.11-5.46,4.13-5.44C525.17,549.43,547.77,549.37,570.37,549.37z"/>
	<path class="st0" d="M200.18,660.92c-21.38,0-42.76,0.07-64.13-0.02c-15.67-0.07-25.62-8.96-25.46-22.47
		c0.16-13.05,10.16-21.97,25.12-22c40.01-0.09,80.01,0.08,120.02-0.16c5.48-0.03,7.04,1.45,7.64,6.94
		c1.16,10.6,3.95,21.04,8.8,30.59c3.4,6.71,0.89,7.29-5.11,7.23C244.77,660.77,222.47,660.92,200.18,660.92z"/>
	<path class="st0" d="M495.99,660.87c6.47-13.57,10.5-26.61,12.27-40.25c0.48-3.68,2.08-4.3,5.31-4.29
		c41.83,0.11,83.67-0.08,125.5,0.27c12.22,0.1,21.21,10.12,21.27,21.97c0.07,12.22-9.19,22.14-21.95,22.21
		C591.38,661.01,544.37,660.87,495.99,660.87z"/>
	<path class="st0" d="M428.36,570.53c0.23,7.32-3.11,12.21-10.35,12.64c-7.3,0.43-10.75-4.37-11.8-11.35
		c-1.92-12.76-8.84-19.69-19.69-20.11c-11.52-0.45-20.76,7.75-21.58,19.13c-0.84,11.77,7.18,21.21,19.51,22.01
		c20.26,1.33,34.97,10.34,41.73,29.94c7.11,20.6-2.68,42.91-22.69,52.04c-4.62,2.11-7.43,3.84-6.95,9.63
		c0.6,7.24-2.49,12.64-10.64,13.12c-7.2,0.42-11.38-4.16-11.06-13.37c0.19-5.35-2.04-7.1-6.43-9.08
		c-14.74-6.64-23.34-18.16-25.3-34.39c-0.89-7.37,0.13-13.96,8.92-15.23c8.6-1.24,12.11,4.14,12.88,11.86
		c0.99,10.03,6.58,16.38,16.03,18.87c8.08,2.13,15.19-0.64,20.52-6.99c9.94-11.84,3.99-29.53-11.23-33.23
		c-5-1.22-10.36-1.01-15.34-2.28c-17.99-4.58-30.24-19.39-31.93-38.02c-1.62-17.89,7.87-34.67,24.73-42.08
		c5.25-2.31,7.42-4.76,7.16-10.61c-0.31-6.88,4.02-10.95,10.81-10.94c6.89,0.02,10.98,4.53,10.79,11.13
		c-0.18,5.92,2.2,8.2,7.24,10.54C419.18,540.95,426.96,553.73,428.36,570.53z"/>
	<path class="st0" d="M473.8,603.49c0.2,48.55-39.21,88.32-87.71,88.51c-48.41,0.18-88.26-39.38-88.51-87.86
		c-0.24-48.44,39.17-88.07,87.85-88.36C434.03,515.5,473.61,554.78,473.8,603.49z"/>
	<path class="st1" d="M385.82,513.96c-24.03,0-47.08,9.55-64.07,26.54s-26.54,40.04-26.54,64.07s9.55,47.08,26.54,64.07
		s40.04,26.54,64.07,26.54s47.08-9.55,64.07-26.54s26.54-40.04,26.54-64.07c-0.03-24.02-9.58-47.05-26.57-64.04
		C432.88,523.54,409.84,513.98,385.82,513.96L385.82,513.96z M412.84,580.31h10.11c3.66,0,6.62,2.96,6.62,6.62s-2.96,6.62-6.62,6.62
		h-10.11c-1.43,8.97-6.03,17.14-12.96,23c-6.94,5.87-15.74,9.05-24.83,8.97h-8.68l36.17,31.59c2.76,2.46,3.05,6.67,0.65,9.49
		c-1.15,1.32-2.78,2.14-4.53,2.25c-1.75,0.11-3.48-0.47-4.8-1.63l-49.5-43.08c-2.08-1.85-2.82-4.78-1.86-7.39
		c0.96-2.61,3.41-4.38,6.19-4.45h26.37c5.55,0.02,10.95-1.81,15.34-5.21c4.4-3.39,7.53-8.16,8.91-13.53h-50.62
		c-3.65,0-6.62-2.96-6.62-6.62s2.96-6.62,6.62-6.62h50.61c-1.63-5.14-4.86-9.62-9.22-12.79c-4.36-3.17-9.62-4.87-15.01-4.85h-26.37
		c-3.65,0-6.62-2.96-6.62-6.62s2.96-6.62,6.62-6.62h74.26c3.65,0,6.62,2.96,6.62,6.62c0,3.66-2.97,6.62-6.62,6.62h-18.95
		C408.49,567.08,411.61,573.69,412.84,580.31z"/>
</g>
</svg>
