<?xml version="1.0" encoding="utf-8"?>
<!-- Generator: Adobe Illustrator 24.0.1, SVG Export Plug-In . SVG Version: 6.00 Build 0)  -->
<svg version="1.1" id="Layer_1" xmlns="http://www.w3.org/2000/svg" xmlns:xlink="http://www.w3.org/1999/xlink" x="0px" y="0px"
	 viewBox="0 0 1080 1080" style="enable-background:new 0 0 1080 1080;" xml:space="preserve">
<style type="text/css">
	.st0{fill:#800000;}
	.st1{fill:#FFB620;}
	.st2{fill:#FFFFFF;}
	.st3{fill:#0B7EEB;}
</style>
<g>
	<path class="st0" d="M369.64,421.52c-1.82,2.32,0.72,3.45,1.48,4.96c3.26,6.45,2.6,11.66-3.09,16.27
		c-13,10.54-27.17,19.32-42.24,26.58c-4.87,2.34-10.04,2.88-15.46,1.53c-7.42-1.84-14.87-3.7-22.42-4.83
		c-10.72-1.62-20.3-5.55-28.98-11.96c-1.54-1.14-3.65-3.56-5.4-0.62c-1.67,2.79,1.42,3.54,3.02,4.69c3.93,2.83,9.91,4.77,11.36,8.51
		c1.49,3.84-1.35,9.4-2.38,14.18c-4.11,19.18-8.26,38.35-12.39,57.52c-0.48,2.22-1.95,4.91,0.97,6.26c2.88,1.33,4.67-1.3,6.43-2.98
		c14.34-13.59,31.49-19.61,51.06-18.65c16.66,0.81,31.23,7.06,43.85,17.94c6.35,5.47,9.74,4.42,11.77-3.5
		c5.5-21.46,19.03-36.04,38.88-45.16c1.64,1.48-0.07,2.49-0.62,3.51c-5.78,10.75-10.46,21.94-13.38,33.79
		c-10.58,42.83-4.78,83.17,18.36,120.94c5.64,9.2,13.1,16.97,19.21,25.77c-75.76,11.82-146.72-4.23-214.68-37.21
		c-32.62-15.83-63.13-35.05-91.16-58.11c-1.35-1.11-2.92-1.97-4.42-2.88c-16.68-10.09-16.74-32.32,0.15-41.83
		c3.72-2.09,5.14-4.89,6.41-8.47c18.16-51.07,45.09-96.56,85.55-133.33c10.77-9.79,22.33-18.59,35.11-25.68
		c17.41-9.65,35.98-12.11,55.35-8.44c14.06,2.66,27.92,6.48,42.04,8.79c13.95,2.29,22.76,21.45,18.39,33.8
		c-0.77,2.17-1.74,4.26-2.62,6.39c-2.4-0.14-3.97,1.59-5.74,2.71c-10.45,6.62-20.88,13.27-31.23,20.05
		c-3.56,2.33-7.29,3.06-11.21,1.66c-4.15-1.48-6.94-4.41-7.58-8.97c-0.66-4.72,0.95-8.56,4.94-11.17
		c8.87-5.81,17.83-11.47,26.71-17.25c1.53-1,3.95-1.89,2-4.45c-1.42-1.87-2.99-1.14-4.63-0.07c-9.04,5.91-18.21,11.62-27.15,17.67
		c-6.32,4.27-8.6,10.7-6.75,17.39c3.03,10.96,15.38,15.99,25.49,10.02c8.28-4.89,16.31-10.22,24.31-15.56
		c3.75-2.5,7.59-4.02,12.12-3.38c1.13,0.39,2.26,0.78,3.39,1.17c1.21,0.9,2.41,1.8,3.62,2.71c0.77,0.67,1.32,0.53,1.66-0.45
		C369.7,421.37,369.64,421.52,369.64,421.52z"/>
	<path class="st0" d="M689.33,608.92c1.37-8.72,3.71-17.27,4.27-26.12c1.06-16.68,1-33.27-4.07-49.45l0.05,0.05
		c-1.99-11.73-6.01-22.73-11.95-33.03l0.03,0.05c-0.09-1.58-0.78-2.86-1.99-3.86c0,0,0-0.06,0-0.06c0.04-1.3-1.35-2.38-0.57-3.79
		c0.64,0.9,1.55,0.6,2.41,0.55c19.36,9.96,32.26,24.95,36.94,46.61c1.14,5.29,5.73,5.99,10.41,1.82
		c10.67-9.5,22.89-15.65,37.07-17.85c21.67-3.36,40.78,2.12,57.33,16.48c0.74,0.64,1.41,1.37,2.16,2c1.75,1.5,3.54,3.75,6.04,2.26
		c2.33-1.39,1.07-3.85,0.62-5.92c-4.91-22.78-9.81-45.57-14.75-68.34c-0.5-2.3-1.29-4.57,1.44-6.06c3.99-2.44,8.01-4.83,11.97-7.33
		c1.21-0.76,2.12-1.87,1.22-3.44c-1.03-1.79-2.6-1.75-4.01-0.72c-3.46,2.53-7.63,4.02-10.66,7.18c-9.63,5.41-20.93,4.85-30.98,8.48
		c-15.57,5.62-28.98,1.58-42.08-7c-8.03-5.26-16.26-10.24-23.93-16.03c-7.99-6.02-9.7-10.13-7.27-16.7
		c2.97-8.01,8.76-11.41,18.08-10.62c9.88,6.36,19.63,12.93,29.68,19c8.2,4.95,18.71,1.97,23.6-6.13c4.53-7.51,2.21-16.7-5.78-22.02
		c-8.48-5.65-17.07-11.15-25.67-16.61c-1.68-1.06-3.76-3.08-5.56-0.33c-1.92,2.93,1.07,3.67,2.69,4.72
		c8.54,5.57,17.14,11.03,25.72,16.53c4.02,2.57,5.86,6.44,5.49,10.98c-0.37,4.7-3.47,7.91-7.76,9.53c-4.4,1.66-8.39,0.09-12.21-2.34
		c-8.58-5.47-17.24-10.8-25.87-16.19c-0.92-0.72-1.74-1.65-2.77-2.14c-9.45-4.44-12.54-12.17-10.62-21.85
		c2.09-10.54,6.85-19.37,18.55-21.91c14.77-3.2,29.54-6.47,44.4-9.25c25.64-4.8,47.88,3.16,68.51,18.13
		c31.57,22.91,56.08,51.96,75.83,85.26c12.64,21.32,23.12,43.66,30.85,67.23c0.83,2.54,2.43,3.78,4.54,4.97
		c17.71,10.03,17.84,31.39,0.9,42.62c-13.89,9.21-26.54,20.22-40.53,29.37c-41.33,27.04-85.33,48.19-133.23,60.84
		c-34.64,9.15-69.84,13.14-105.65,11.15c-9.21-0.51-18.38-1.77-27.57-2.69c-1.03-0.24-2.06-0.47-3.08-0.71
		c0.27-0.7,0.37-1.57,0.85-2.07c9.65-10.15,17.64-21.48,24.14-33.87"/>
	<circle class="st1" cx="540" cy="569" r="171"/>
	<circle class="st2" cx="540" cy="569" r="151"/>
</g>
<g>
	<path class="st1" d="M511.08,615.9c0.13-5.86,0.36-11.72-0.13-17.57c-0.32-3.77-2.15-6.69-5.33-8.68
		c-4.02-2.51-7.88-5.22-11.38-8.43c-11.74-10.79-19.06-23.97-21.55-39.75c-2.76-17.48,0.6-33.77,10.41-48.46
		c11.1-16.62,26.64-26.67,46.44-30.02c1.28-0.22,2.68,0.03,3.85-0.78c4.38,0,8.77,0,13.15,0c0.42,0.59,1.1,0.31,1.65,0.49
		c-0.24,0.12-0.48,0.3-0.73,0.35c-4.63,0.91-9.25,1.96-13.64,3.68c-14.52,5.7-25.87,15.28-34.08,28.55
		c-6.74,10.88-9.69,22.9-9.89,35.55c-0.08,5.16,0.71,10.35,1.93,15.43c4.26,17.68,14.03,31.49,29.13,41.51
		c2.86,1.9,5.54,3.84,7.36,6.79c0.02,7.03,0.03,14.05,0.05,21.08C522.57,615.72,516.83,615.81,511.08,615.9z"/>
	<path class="st1" d="M528.26,594.56c-1.82-2.96-4.5-4.9-7.36-6.79c-15.1-10.02-24.87-23.83-29.13-41.51
		c-1.23-5.08-2.01-10.27-1.93-15.43c0.2-12.65,3.15-24.67,9.89-35.55c8.21-13.26,19.56-22.85,34.08-28.55
		c4.38-1.72,9-2.77,13.64-3.68c0.26-0.05,0.49-0.23,0.73-0.35c12.55,1.5,23.88,6.03,33.81,13.85c14.24,11.23,23,25.77,25.68,43.79
		c3.03,20.35-2.29,38.46-15.26,54.29c-4.62,5.64-10.09,10.49-16.48,14.15c-4.7,2.69-6.86,6.72-6.86,12.02
		c-0.01,5.02,0.02,10.03,0.04,15.05c-5.71-0.06-11.42-0.12-17.12-0.17c0.02-9.32,0.04-18.65,0.07-27.97c0-0.91,0.08-1.81,0.25-2.72
		c0.47-2.62,2.37-4.31,3.92-6.17c3.4-4.07,5.1-8.51,4.83-13.94c-0.34-6.76-0.09-13.56-0.09-20.34c1.68-0.64,3.47-1.42,3.3-3.51
		c-0.15-1.74-1.28-3.1-3.28-3.28c0-1.98-0.96-3.19-2.93-3.4c-2.3-0.25-3.07,0.48-3.84,3.4c-9.35,0-18.7,0-28.06,0
		c-0.46-2.6-1.41-3.5-3.62-3.42c-1.91,0.07-2.93,1.19-3.15,3.42c-2.87,0.61-4.24,2.83-3.01,4.79c0.72,1.14,1.95,1.44,3.03,2
		c0,7.97,0,15.93,0,23.9c0,0.99,0.15,1.93,0.41,2.9c1.04,3.82,3.74,6.56,6.04,9.53c1.56,2.01,2.7,4.04,2.49,6.72
		C528.14,589.89,528.27,592.23,528.26,594.56z M590.8,519.51c2.56,0.04,3.96-1.88,3.28-4.38c-2.83-10.45-8.48-19.15-16.53-26.3
		c-3.38-3-7.09-5.58-11.18-7.55c-1.21-0.58-2.41-1.13-3.75-0.15c-2.45,1.8-2.18,4.59,0.72,6.02c7.59,3.74,13.56,9.3,18.26,16.27
		c2.62,3.88,4.53,8.1,5.85,12.6C587.97,517.74,588.54,519.45,590.8,519.51z"/>
	<path class="st3" d="M572.45,636.59c0.03,1.48,0.04,2.93,0.3,4.41c0.74,4.21-2.36,7.03-7.55,7.05c-16.69,0-33.38,0-50.07,0
		c-4.81-0.02-7.56-2.15-7.63-5.95c-0.03-1.83,0-3.66,0.01-5.5c0.26,0.08,0.66,0.08,0.77,0.25c1.82,2.8,4.63,3.13,7.6,3.13
		c16.36,0,32.72,0,49.08,0C567.99,639.99,570.66,639.28,572.45,636.59z"/>
	<path class="st3" d="M511.31,631.51c-3.82-1.84-4.47-4.83-3.42-10.22c3.68,3.38,8.23,2.57,12.6,2.58
		c14.9,0.02,29.81-0.04,44.71,0.05c3.09,0.02,5.5-0.86,7.22-3.45c0.68,2.14,0.57,4.37,0.31,6.51c-0.26,2.14-1.69,3.67-3.71,4.55
		c-1.09,0.31-2.19,0.44-3.33,0.44c-17.02-0.02-34.04-0.02-51.06,0C513.5,631.94,512.4,631.82,511.31,631.51z"/>
	<path class="st3" d="M511.31,631.51c1.09,0.31,2.19,0.44,3.33,0.44c17.02-0.02,34.04-0.02,51.06,0c1.14,0,2.24-0.13,3.33-0.44
		c0.77,1.33,2.49,1.76,3.05,3.28c0.21,0.58,1.07,1.03,0.37,1.8c-1.78,2.69-4.46,3.41-7.48,3.4c-16.36-0.01-32.72,0-49.08,0
		c-2.96,0-5.78-0.33-7.6-3.13c-0.12-0.18-0.51-0.17-0.77-0.25C507.84,634.2,509.95,633.13,511.31,631.51z"/>
	<path class="st3" d="M572.43,620.45c-1.72,2.59-4.13,3.47-7.22,3.45c-14.9-0.09-29.81-0.03-44.71-0.05c-4.37,0-8.92,0.81-12.6-2.58
		c-0.32-2.62,1.63-3.89,3.19-5.39c5.74-0.08,11.48-0.17,17.23-0.26c2.22,0.17,4.45,0.18,6.67-0.01c3.46,0.23,6.91,0.23,10.37,0
		c2.21,0.01,4.42,0.02,6.63,0.03c5.71,0.06,11.42,0.12,17.12,0.17C570.52,617.16,572.36,618.17,572.43,620.45z"/>
	<path class="st3" d="M526.93,664.16c-3.36-0.19-6.73,0.36-10.08-0.33c-2.62-0.54-4.18-2.04-4.75-4.68
		c-0.5-2.31-0.52-4.58,0.07-6.86c1.71,2.54,3.93,3.51,7.13,3.47c13.9-0.18,27.81-0.16,41.72-0.01c3.15,0.03,5.46-0.87,7.16-3.46
		c0.79,2.79,0.76,5.62-0.38,8.24c-1.12,2.57-3.48,3.56-6.19,3.61c-2.75,0.05-5.5,0.02-8.24,0.02c-4.82,0.01-9.64,0.01-14.46,0.02
		C534.9,664.18,530.92,664.17,526.93,664.16z"/>
	<path class="st3" d="M568.17,652.3c-1.7,2.58-4.01,3.49-7.16,3.46c-13.9-0.15-27.81-0.17-41.72,0.01
		c-3.19,0.04-5.42-0.93-7.13-3.47c0.33-1.88,1.5-3.16,2.97-4.25c16.69,0,33.38,0,50.07,0C566.67,649.13,567.84,650.42,568.17,652.3z
		"/>
	<path class="st3" d="M526.93,664.16c3.99,0.01,7.98,0.02,11.96,0.03c-0.22,3.21,0.25,6.26,1.99,9.06c1.25,2,3.2,3.27,4.8,4.91
		c-8,4.03-18.15-1.74-18.67-10.62C526.94,666.42,526.95,665.29,526.93,664.16z"/>
	<path class="st3" d="M545.68,678.16c-1.6-1.64-3.55-2.91-4.8-4.91c-1.74-2.8-2.21-5.85-1.99-9.06c4.82-0.01,9.64-0.01,14.46-0.02
		C553.76,670.46,551.51,675.29,545.68,678.16z"/>
	<path class="st1" d="M630.11,532.16c-1.84,0-3.68,0.06-5.51-0.02c-2.08-0.09-3.37-1.41-3.4-3.31c-0.03-1.89,1.25-3.29,3.35-3.33
		c3.67-0.08,7.35-0.07,11.03,0c2.06,0.04,3.42,1.44,3.43,3.29c0.01,1.85-1.33,3.26-3.38,3.35
		C633.79,532.23,631.94,532.16,630.11,532.16z"/>
	<path class="st1" d="M450.21,525.48c1.84,0,3.68-0.06,5.51,0.01c2.08,0.08,3.4,1.4,3.43,3.28c0.02,1.88-1.28,3.32-3.34,3.37
		c-3.67,0.09-7.35,0.08-11.02,0.01c-2.07-0.04-3.42-1.43-3.45-3.28c-0.03-1.93,1.38-3.3,3.57-3.37
		C446.67,525.43,448.44,525.48,450.21,525.48z"/>
	<path class="st1" d="M630.65,500.89c1.49,0.27,2.72,0.92,3.12,2.48c0.42,1.63-0.13,3.09-1.66,3.73c-3.64,1.52-7.33,2.94-11.07,4.21
		c-1.71,0.58-3.25-0.07-4-1.86c-0.7-1.67-0.28-3.27,1.35-3.96c3.82-1.64,7.75-3.03,11.63-4.51
		C630.21,500.9,630.44,500.92,630.65,500.89z"/>
	<path class="st1" d="M633.89,553.03c0.01,2.42-2.09,4.2-4.05,3.53c-3.8-1.3-7.56-2.75-11.27-4.29c-1.63-0.68-2.18-2.15-1.62-3.88
		c0.57-1.76,1.99-2.58,3.64-2.12c4.07,1.13,7.99,2.75,11.86,4.46C633.48,551.19,633.79,552.3,633.89,553.03z"/>
	<path class="st1" d="M460.2,511.46c-1.46-0.08-2.71-0.79-4.02-1.28c-2.51-0.93-5.04-1.84-7.51-2.86c-1.91-0.79-2.67-2.57-1.97-4.29
		c0.66-1.63,2.39-2.49,4.17-1.86c3.58,1.28,7.15,2.63,10.68,4.05c1.63,0.66,2.36,2,1.91,3.76
		C463.02,510.63,461.89,511.45,460.2,511.46z"/>
	<path class="st1" d="M449.79,556.75c-1.7-0.25-2.9-1.07-3.26-2.69c-0.34-1.54,0.24-2.92,1.69-3.52c3.65-1.51,7.33-2.93,11.06-4.21
		c1.87-0.64,3.47,0.29,4.08,2.04c0.61,1.75-0.01,3.22-1.59,3.89c-3.69,1.57-7.48,2.91-11.24,4.33
		C450.27,556.68,449.99,556.71,449.79,556.75z"/>
	<path class="st2" d="M534.99,615.63c-2.22,0.19-4.45,0.18-6.67,0.01c-0.02-7.03-0.03-14.05-0.05-21.08
		c0.01-2.33-0.12-4.66,0.06-6.98c0.21-2.68-0.92-4.71-2.49-6.72c-2.31-2.98-5.01-5.72-6.04-9.53c-0.26-0.97-0.41-1.91-0.41-2.9
		c0-7.97,0-15.93,0-23.9c2.24,0,4.48,0,6.73,0c0.01,7.13,0.19,14.27-0.05,21.39c-0.12,3.53,0.94,6.25,3.26,8.77
		c3.3,3.6,5.72,7.67,5.72,12.78C535.04,596.85,535.01,606.24,534.99,615.63z"/>
	<path class="st2" d="M551.99,615.66c-2.21-0.01-4.42-0.02-6.63-0.03c-0.02-9.67-0.04-19.34-0.06-29.02c0-0.42,0.11-0.83,0.15-1.25
		c0.38-4.41,3-7.68,5.72-10.82c2.13-2.46,3.21-5.04,3.11-8.41c-0.23-7.19-0.06-14.4-0.05-21.6c2.24-0.89,4.49-0.34,6.73,0.01
		c0,6.78-0.25,13.57,0.09,20.34c0.27,5.44-1.43,9.87-4.83,13.94c-1.55,1.86-3.45,3.55-3.92,6.17c-0.16,0.92-0.24,1.81-0.25,2.72
		C552.03,597.02,552.01,606.34,551.99,615.66z"/>
	<path class="st2" d="M590.8,519.51c-2.26-0.06-2.83-1.77-3.34-3.49c-1.32-4.5-3.24-8.72-5.85-12.6
		c-4.7-6.97-10.67-12.52-18.26-16.27c-2.9-1.43-3.17-4.22-0.72-6.02c1.34-0.99,2.54-0.44,3.75,0.15c4.09,1.97,7.8,4.55,11.18,7.55
		c8.05,7.15,13.7,15.84,16.53,26.3C594.76,517.63,593.37,519.55,590.8,519.51z"/>
	<path class="st2" d="M560.95,544.53c-2.24-0.34-4.48-0.9-6.73-0.01c-9.37,0-18.74,0-28.11,0c-2.24,0-4.48,0-6.73,0
		c-1.08-0.56-2.31-0.86-3.03-2c-1.23-1.97,0.15-4.18,3.01-4.79c2.26,0,4.51,0,6.77,0c9.35,0,18.7,0,28.06,0c2.26,0,4.51,0,6.77,0
		c2,0.19,3.14,1.54,3.28,3.28C564.42,543.1,562.63,543.88,560.95,544.53z"/>
	<path class="st2" d="M526.14,537.74c-2.26,0-4.51,0-6.77,0c0.21-2.23,1.24-3.35,3.15-3.42
		C524.73,534.23,525.69,535.13,526.14,537.74z"/>
	<path class="st2" d="M560.96,537.73c-2.26,0-4.51,0-6.77,0c0.77-2.92,1.54-3.65,3.84-3.4
		C560.01,534.55,560.97,535.76,560.96,537.73z"/>
	<path class="st1" d="M526.12,544.52c9.37,0,18.74,0,28.11,0c-0.01,7.2-0.18,14.41,0.05,21.6c0.11,3.37-0.97,5.95-3.11,8.41
		c-2.72,3.14-5.33,6.41-5.72,10.82c-0.04,0.42-0.15,0.84-0.15,1.25c0.01,9.67,0.03,19.34,0.06,29.02c-3.46,0.23-6.91,0.23-10.37,0
		c0.02-9.39,0.05-18.78,0.06-28.17c0-5.11-2.42-9.18-5.72-12.78c-2.32-2.52-3.38-5.25-3.26-8.77
		C526.31,558.79,526.12,551.65,526.12,544.52z"/>
</g>
</svg>
