<?xml version="1.0" encoding="utf-8"?>
<!-- Generator: Adobe Illustrator 24.0.1, SVG Export Plug-In . SVG Version: 6.00 Build 0)  -->
<svg version="1.1" id="Layer_1" xmlns="http://www.w3.org/2000/svg" xmlns:xlink="http://www.w3.org/1999/xlink" x="0px" y="0px"
	 viewBox="0 0 1080 1080" style="enable-background:new 0 0 1080 1080;" xml:space="preserve">
<style type="text/css">
	.st0{fill:#FFBD11;}
	.st1{fill:#EEDC92;}
	.st2{fill:#800000;}
	.st3{fill:#B13B31;}
	.st4{fill:#33526D;}
	.st5{fill:#FFFFFF;}
</style>
<g>
	<path class="st0" d="M906.8,734.65c-6.4-11.63-12.26-23.52-17.67-35.65c-22.87-51.29-31.2-105.47-34.09-161.14
		c-3.46-66.64-40.44-112.33-95.67-145.49c-3.45,2.8-0.67,4.77,1.06,6.6c21.79,22.99,33.79,50.39,37.69,81.72
		c4.63,37.31,7.53,74.77,6.08,112.3c-1.34,34.57-7.22,68.71-21.86,100.4c-15.65,33.88-40.75,59.36-73.89,76.67
		c-24.69,12.9-51.4,18.35-78.85,21.59c-18.96,2.23-37.87,0.76-56.79,1.45c-21.42,0.77-42.45-3.31-63.68-4.91
		c-1.21-0.09-2.66,0.01-3.15-1.24l-43.56,25.63c3.05-1.09,6.17-1.75,9.42-1.66c11.05,0.32,21.87,5.72,32.95,8.21
		c66.1,14.86,133.11,17.92,200.48,14.05c48.53-2.79,96.51-9.47,142.72-25.52c18.49-6.42,36.43-14.1,51.23-27.43
		C914.61,766.37,916.78,752.78,906.8,734.65z"/>
	<path d="M570.08,572.63c-8.21-29.05-22.53-54.85-41.89-78.29c-12.52-15.15-28.08-26.29-42.88-38.56
		c-26.44-15.97-54.62-27.28-85.36-31.64c-2.76-0.39-4.24-0.97-4.35-4.3c-0.13-3.77,1.47-4.4,4.68-4.68
		c6.2-0.55,8.84-4.31,8.69-10.51c-0.2-8.4-0.12-16.8-0.04-25.21c0.04-4.34-1.51-6.82-6.06-8.08c-10.4-2.89-20.85-1.15-31.28-1.18
		c-0.02,12.91-0.19,25.83,0.03,38.75c0.08,4.78-1.34,6.9-6.41,6.61c-5.9-0.34-11.83-0.1-17.75-0.11c1.33,5.79-0.29,8.59-6.87,9.48
		c-35.26,4.79-66.88,18.6-94.86,40.44c-4.97,3.87-8.07,4.08-11.55-0.94c-2.63,4.52-7.89,6.02-11.2,9.82
		c-2.39,2.73-4.04,0.51-5.89-1.26c-7.12-6.82-14.38-13.48-21.59-20.2c-4.86,4.68-9.74,9.35-14.59,14.05
		c-4.17,4.02-3.95,7.85,0.28,11.8c4.15,3.88,8.13,7.95,12.08,12.05c3.52,3.66,7.12,6.15,11.78,1.79c2.14-2.01,3.67-1.21,5.42,0.65
		c1.97,2.08,2.68,3.9,0.37,6.19c-1.15,1.13-2.04,2.53-3.01,3.83c-34.74,46.59-48.66,98.64-39.97,156.2
		c19.36,128.38,150.08,206.58,272.63,163.57c7.55-2.65,14.54-7.71,21.93-10.32l43.56-25.63c-0.06-0.12-0.1-0.26-0.13-0.41
		c-0.29-1.51,1.23-2.16,2.09-3.16c9.13-10.64,20.39-19.27,28.66-30.77c20.12-27.95,33.09-58.58,38.72-92.79
		C580.21,630.12,578.15,601.19,570.08,572.63z M543.65,628.29c0.37,45.2-14.98,84.64-45.78,117.3
		c-71.23,75.53-186.29,73.82-255.78-3.16c-7.46-8.26-13.99-17.22-18.72-27.38c-11.18-15.41-16.88-33.19-20.63-51.42
		c-19.75-95.99,43.69-188.71,140.22-205.25c9.3-1.59,18.75-2.84,28.28-2.01c42.58-0.86,79.58,13.71,112.01,40.71
		c10.52,8.75,20.84,17.76,26.89,30.48l-0.07,0.02c0.58,0.57,1.16,1.13,1.74,1.7c15.43,19.49,24.06,42.02,28.86,66.09
		C542.82,606.17,544.8,617.13,543.65,628.29z"/>
	<path class="st1" d="M759.37,392.37c-3.45,2.8-0.68,4.77,1.06,6.6c21.79,22.99,33.79,50.39,37.69,81.72
		c4.64,37.31,7.53,74.77,6.08,112.3c-1.34,34.57-7.22,68.71-21.86,100.4c-15.65,33.88-40.75,59.36-73.89,76.67
		c-24.69,12.9-51.4,18.35-78.85,21.59c-18.95,2.23-37.87,0.77-56.79,1.45c-21.42,0.77-42.45-3.3-63.68-4.91
		c-1.33-0.1-2.95,0.04-3.28-1.64c-0.29-1.51,1.23-2.16,2.08-3.16c9.13-10.65,20.39-19.28,28.67-30.77
		c20.12-27.95,33.09-58.58,38.72-92.79c4.88-29.7,2.83-58.63-5.25-87.19c-8.21-29.04-22.52-54.85-41.88-78.28
		c-12.52-15.16-28.08-26.29-42.89-38.56c23.91-35.53,56.29-60.4,95.88-76.19c3.32,0.18,4.6,3.24,6.88,4.88
		c-7.32,7.76-14.69,15.48-21.95,23.3c-10.66,11.5-22.82,21.54-32.69,33.8c-3.95,4.91-3.14,8.69,2.56,11.41
		c4.28,5.78,8.2,6.21,12.86,1.5c17.95-18.15,35.92-36.29,53.9-54.42c0.92-0.93,1.9-2.38,3.38-1.67c2.01,0.97,1.14,2.7,0.49,4.16
		c-3.6,8.03-7.69,15.88-10.78,24.1c-5.69,15.15-10.26,30.61-9.3,48.39c4.48-12.34,7.25-23.68,12.6-34.33
		c8.03-15.99,18.62-30.35,27.29-45.87c2.73-4.89,6.15-5.91,10.51-5.18c4.23,0.71,5.83,4.44,6.33,8.36
		c0.71,5.6,0.78,11.32,1.87,16.83c1.5,7.61,3.71,15.08,5.61,22.61c0.75-0.07,1.5-0.14,2.25-0.21c-0.5-11.88,2.21-23.37,3.21-35.02
		c1.51-17.68,1.08-17.81,18.74-17.62c3.88,0.04,8.59-1.85,11.49,2.03c11.89,15.9,23.72,31.72,32.38,49.88
		c5.06,10.61,7.48,22.27,13.97,32.25c-1.44-25.71-12.18-48.68-22.83-72.56c4.91,0.86,6.43,3.68,8.46,5.69
		c15.34,15.22,30.54,30.6,45.91,45.79c5.96,5.89,11.76,5.25,14.02-1.18c5.86-2.11,7.1-6.54,2.65-11.24
		c-6.67-7.03-13.66-13.77-20.6-20.53c-10.05-9.79-20.07-19.59-29.16-30.3c-0.12-2.75,0.38-5.18,3.29-6.37
		C741.88,384.43,751.98,386.04,759.37,392.37z M643,637.11c0,8.95-0.35,17.92,0.12,26.84c0.32,6.06-2.14,7.42-7.58,6.95
		c-15.19-1.32-30.12-3.73-44.13-10.01c-4.83-2.16-6.26-1.01-6.04,4.1c0.29,6.77,0.31,13.56,0.04,20.33
		c-0.17,4.47,1.52,6.87,5.72,8.5c11.74,4.55,23.93,6.99,36.37,8.01c15.29,1.26,15.63,1.03,15.34,16.74
		c-0.12,6.24,1.86,7.76,7.83,7.67c16.54-0.25,16.93,0,16.42-15.99c-0.23-7.2,1.77-10.01,9.08-11.81
		c25.17-6.19,44.32-20.2,49.06-47.13c6.48-36.78-5.49-58.2-37.22-69.74c-4.83-1.76-9.73-3.53-14.76-4.48
		c-4.71-0.89-6.13-3.07-6.08-7.7c0.21-17.62,0.32-35.26-0.05-52.87c-0.13-6.26,2.25-7.17,7.67-6.36
		c12.64,1.89,25.08,4.48,36.97,9.21c4.65,1.85,6.85,1.76,6.43-4.25c-0.47-6.75-0.34-13.56,0-20.33c0.23-4.53-1.35-6.68-5.74-8.17
		c-12.39-4.19-24.99-7.15-38.04-7.95c-5.25-0.32-8.03-2.16-7.2-7.89c0.35-2.39-0.32-4.94,0.11-7.3c1.43-7.9-2.21-9.48-9.39-9.25
		c-14.92,0.48-15.33,0.14-14.75,14.97c0.27,6.98-1.87,9.73-8.76,11.3c-30.22,6.9-48.52,29.68-49.31,60.36
		c-0.83,32.57,12.72,50.59,45.34,60.26c1.82,0.54,3.64,1.36,5.48,1.46c6.17,0.32,7.37,3.86,7.14,9.3
		C642.73,620.29,642.99,628.7,643,637.11z"/>
	<path class="st1" d="M760.85,246.12c7.06,4.82,7.83,9.15,2.54,17.59c-13.16,21.01-26.47,41.93-39.75,62.86
		c-3.32,5.23-6.75,10.39-10.13,15.58c-9.75,2.5-19.69,1.68-29.58,1.6c5.03-12.31,10.24-24.54,15.02-36.94
		c4.07-10.57,6.07-21.66,7.25-32.95c-8.85,13.94-13.57,29.65-20.55,44.33c-3.88,8.16-8.39,16.15-8.09,25.65
		c-6.01-0.02-12.02-0.04-18.03-0.06c0.91-26.48,6.18-53.02-1.48-80.72c-2.67,27.66-1.35,54.34-4.82,80.68
		c-5.48,0.03-10.95,0.07-16.43,0.1c0.23-3.55-0.54-6.81-1.67-10.24c-3.31-10.02-9.07-18.87-13.9-28.02
		c-4.7-8.91-10.75-17.75-19.67-24.65c-0.09,1.54-0.47,2.53-0.13,3c10.06,13.97,15.35,30.56,24.78,44.93
		c2.8,4.27,5.8,9.21,5.86,14.91c-10.27,0.63-20.47-0.16-30.63-1.55c-12.06-23.4-24.13-46.8-36.18-70.21
		c-2.47-4.8-3.25-9.6,0.18-14.33c2.41-0.1,4.4-1.85,7.05-1.34c14.7,2.8,27.41-2.82,38.82-10.9c10.87-7.69,20.65-16.84,31.75-24.38
		c3.25-2.21,9.58-1.26,10.07-7.33c6.55-5.15,12.3-3.29,18,1.73c10.22,9.01,16.84,20.99,25.91,30.94
		c10.02,13.78,19.66,15.63,35.01,9.25C741.3,251.79,750.06,245.6,760.85,246.12z"/>
	<path class="st0" d="M734.51,378.08c-2.91,1.19-3.41,3.62-3.29,6.37c-2.43,0.02-4.86-0.03-7.29,0.1c-1.79,0.09-4.06-0.68-5.07,1.46
		c-1.28,2.72,1.49,3.8,2.83,5.18c3.17,3.29,6.75,6.18,10.02,9.39c15.57,15.29,31.09,30.63,46.63,45.95
		c-2.26,6.43-8.06,7.07-14.02,1.18c-15.37-15.2-30.57-30.57-45.91-45.79c-2.03-2.02-3.55-4.84-8.46-5.69
		c10.65,23.88,21.39,46.85,22.83,72.56c-6.49-9.97-8.92-21.63-13.97-32.25c-8.66-18.16-20.49-33.98-32.38-49.88
		c-2.9-3.88-7.61-1.98-11.49-2.03c-17.66-0.19-17.22-0.06-18.74,17.62c-1,11.65-3.71,23.14-3.21,35.02
		c-0.75,0.07-1.5,0.14-2.25,0.21c-1.9-7.53-4.1-15-5.61-22.61c-1.09-5.52-1.15-11.23-1.87-16.83c-0.5-3.92-2.09-7.65-6.33-8.36
		c-4.36-0.73-7.78,0.29-10.51,5.18c-8.67,15.52-19.26,29.88-27.29,45.87c-5.34,10.65-8.12,21.99-12.6,34.33
		c-0.96-17.78,3.61-33.25,9.3-48.39c3.09-8.22,7.17-16.07,10.78-24.1c0.65-1.45,1.52-3.19-0.49-4.16c-1.48-0.71-2.46,0.74-3.38,1.67
		c-17.98,18.13-35.95,36.27-53.9,54.42c-4.66,4.71-8.57,4.28-12.86-1.5c2.17-2.38,4.13-4.98,6.53-7.1
		c20.65-18.2,39.49-38.23,58.58-58c1.18-0.27,2.79-0.33,2.38-2.06c-0.14-0.59-1.57-0.87-2.41-1.3c-4.33-0.02-8.66-0.04-12.99-0.06
		c-2.28-1.65-3.56-4.7-6.89-4.88c0.26-1.57,0.52-3.13,0.79-4.7c50.96-0.01,101.92-0.02,152.89-0.03
		C734.74,375.94,734.63,377.01,734.51,378.08z"/>
	<path class="st1" d="M734.86,374.87c-50.96,0.01-101.92,0.02-152.89,0.03c-0.53-7.03,2.96-10.56,9.77-11.11
		c1.83-0.15,3.91,0.43,4.71-2.03c4.09,1.54,8.32,1.75,12.66,1.74c37.2-0.05,74.4-0.01,111.6,0
		C732.71,364.29,734.62,365.82,734.86,374.87z"/>
	<path d="M371.59,370.18c-0.02,12.92-0.18,25.84,0.03,38.75c0.08,4.78-1.34,6.91-6.41,6.61c-5.9-0.34-11.83-0.1-17.75-0.11
		c-11.4-0.64-13.12-2.43-13.12-13.51c0-7.3,0.06-14.61-0.03-21.91c-0.08-6.64,2.99-10.18,9.72-10.14
		C353.22,369.91,362.4,370.07,371.59,370.18z"/>
	<path class="st1" d="M636.8,343.84c5.48-0.03,10.95-0.07,16.43-0.1c2.1,0.01,4.2,0.02,6.31,0.03c6.01,0.02,12.02,0.04,18.02,0.06
		c2.12-0.03,4.25-0.06,6.37-0.09c9.89,0.08,19.83,0.89,29.58-1.6c5.92,2.57,13.63,3.57,11.5,13.16c-1.07,0.13-2.14,0.37-3.21,0.37
		c-38.44-0.14-76.89-0.2-115.33-0.61c-4.41-0.05-9.15,0.99-13.41-1.38c-1.61-7.03,4.78-8.24,8.36-11.49
		c10.17,1.39,20.36,2.18,30.63,1.55C633.64,343.79,635.22,343.82,636.8,343.84z"/>
	<path class="st0" d="M653.12,213.71c-0.49,6.08-6.82,5.13-10.07,7.33c-11.1,7.54-20.88,16.69-31.75,24.38
		c-11.41,8.08-24.12,13.69-38.82,10.9c-2.65-0.51-4.65,1.24-7.05,1.34c1.01-4.21,4.82-4.78,8.01-5.93
		c4.31-1.56,8.71-2.91,13.14-4.08c12.67-3.35,20.74-11.7,26.73-23.02c8.23-15.57,14.16-17.54,29.96-10.02
		C647.34,216.55,649.9,214.42,653.12,213.71z"/>
	<path class="st0" d="M593.07,353.7c4.26,2.37,8.99,1.33,13.41,1.38c38.44,0.4,76.89,0.47,115.33,0.61c1.07,0,2.14-0.24,3.21-0.37
		c1.03,4.02-3.35,5.2-4.31,8.18c-37.2-0.01-74.4-0.06-111.6,0c-4.34,0.01-8.57-0.2-12.66-1.74
		C593.18,359.96,592.5,357.09,593.07,353.7z"/>
	<path d="M234.18,464.41c-2.63,4.52-7.89,6.03-11.21,9.82c-2.39,2.73-4.03,0.51-5.88-1.26c-7.12-6.82-14.38-13.48-21.59-20.2
		c5.01-5.21,9.93-10.51,15.05-15.6c3.69-3.66,7.55-3.6,11.26,0.2c3.57,3.65,6.88,7.65,10.87,10.78
		C239.23,453.27,239.6,458.44,234.18,464.41z"/>
	<path class="st0" d="M760.85,246.12c-10.79-0.52-19.56,5.67-28.82,9.52c-15.35,6.38-24.99,4.53-35.01-9.25
		c13.19,3.79,24.94-1.59,36.78-5.94C744.14,236.64,753.33,237.13,760.85,246.12z"/>
	<path class="st1" d="M543.65,628.29c0.37,45.2-14.98,84.65-45.78,117.31c-71.23,75.53-186.29,73.82-255.78-3.16
		c-7.45-8.26-13.99-17.22-18.71-27.38c0.23-9.66-4.45-18.17-6.42-27.31c-3.84-17.81-3.56-35.86-3.15-53.92
		c5.4-0.2,10.8-0.57,16.19-0.53c3.47,0.02,4.82-1.25,4.81-4.75c-0.01-3.52-1.39-4.77-4.86-4.63c-4.32,0.18-8.65-0.07-12.98-0.13
		c-0.57-8.57,2.51-16.43,4.85-24.42c4.18-14.3,12.08-26.96,17.91-40.53c2.43-0.09,4.42,0.32,6.32,2.37c1.51,1.63,4.1,2.9,5.56-0.88
		c0.87-2.25,2.45-3.87-1.08-5.58c-2.4-1.16-5.4-2.46-6.13-5.74c3.76,0.84,5.28-2.04,6.95-4.39c5.96-8.39,13.29-15.58,20.94-22.28
		c6.96-6.1,13.58-12.99,22.91-15.78c1.59,1.33,2.17,5.05,5.09,3.24c2.66-1.65,3.67-4.73,3.09-8.04
		c19.18-12.7,40.16-20.01,63.21-21.09c-0.51,5.7,2.41,11.04,2.27,16.52c-0.97,38.19-2.27,76.38-3.55,114.57
		c-0.22,6.64-3.79,10.29-10.61,10.62c-7.03,0.34-14.07,1.29-21.08,1.15c-6.41-0.13-5.5,3.94-5,7.55c0.57,4.13,4.26,2.1,6.6,2.62
		c9.88,2.21,21.22-2.28,29.69,6.47c0.3,1.54,0.59,3.08,0.89,4.62c-0.3,3-0.34,5.98,0.72,8.87c-0.42,0.43-0.4,0.86,0.06,1.29
		c0.01,3.71,0.01,7.42,0.03,11.12c0.02,3.26-0.11,6.63,4.57,6.77c4.76,0.14,5.94-2.54,5.32-6.67c1.21-2.63,1.23-5.38,0.78-8.17
		c0.1-1.62,0.21-3.23,0.31-4.85c0.07-2.17,0.13-4.34,0.2-6.51c0.14-8.3,4.38-11.81,12.65-12.09c18.1-0.62,36.21-1.39,54.25-2.86
		c18.29-1.49,36.75-0.41,54.89-3.79c2.76,0,5.52-0.01,8.28-0.01c0.25,3.34,1.5,5.35,5.42,5.03c3.94-0.31,8-0.57,11.88,0.02
		c4.69,0.71,6.71-1.61,8.14-5.34C536.66,628.89,540.17,628.3,543.65,628.29z M366.94,776.26c0,3.33,0.11,6.02-0.03,8.69
		c-0.18,3.49,2.02,3.83,4.66,3.89c2.75,0.06,4.76-0.52,4.62-3.91c-0.11-2.67,0.63-5.54-0.09-8c-1.15-3.91,4.01-11.03-4.16-11.38
		C362.59,765.15,369.06,773.25,366.94,776.26z M254.36,699.6c-0.85-1.43-1.68-3.48-3.08-5.01c-1.42-1.55-2.95,0.01-4.28,0.76
		c-3.98,2.24-7.87,4.63-11.89,6.79c-2.99,1.61-4.54,3.06-2.36,6.82c2.38,4.11,4.62,2.32,7.19,0.83c3.72-2.16,7.46-4.27,11.11-6.52
		C252.33,702.49,254.22,702.21,254.36,699.6z M300.81,745.99c-1.99-0.22-2.7,1-3.37,2.15c-2.59,4.44-5,8.99-7.74,13.33
		c-1.73,2.73-1.1,4.41,1.44,5.98c2.88,1.78,4.88,1.4,6.53-1.77c2.24-4.32,4.68-8.55,7.24-12.69
		C308.32,747.46,302.95,747.67,300.81,745.99z M442.22,745.89c-3.23,0.32-5.52,3.81-4.03,6.61c2.4,4.53,5.19,8.86,7.65,13.36
		c1.5,2.74,3.2,3.17,5.88,1.58c2.49-1.48,3.64-2.93,1.9-5.79c-2.67-4.38-5.09-8.91-7.69-13.33
		C445.12,746.95,444.31,745.39,442.22,745.89z M494.13,693.97c-2.9-0.33-3.35,1.78-4.27,3.3c-1.02,1.68-1.94,3.41,0.41,4.78
		c5.08,2.98,10.19,5.92,15.28,8.89c2.29,1.34,3.5-0.01,4.44-1.81c0.81-1.56,3.02-3.54,0.99-4.92
		C505.46,700.45,499.58,697.23,494.13,693.97z"/>
	<path class="st2" d="M507.84,627.87c-2.76,0-5.52,0.01-8.26,0.01c-3.16-1.72-6.58-2.03-10.14-2.15
		c-33.25-1.11-66.51-2.32-99.76-3.51c-7.45-0.27-11.63-3.95-11.65-11.41c-0.09-43.95-7.18-87.8-1.75-131.82
		c24.06-1.14,47.55,1.79,70.33,9.84c-2.85,4.89-5.59,9.85-8.6,14.65c-2.38,3.79,0.23,5.27,2.71,7.09c3.17,2.32,4.14-0.13,5.35-2.28
		c3.05-5.41,6.12-10.81,9.19-16.21c0.9,0.54,1.76,1.19,2.71,1.59c18.86,7.87,35.54,18.94,49.8,33.62c0.43,0.44,1.55,0.2,2.36,0.28
		c0,0-0.07,0.02-0.07,0.02c0.58,0.57,1.16,1.13,1.74,1.7c15.43,19.49,24.06,42.02,28.86,66.09c2.15,10.8,4.13,21.76,2.98,32.92
		c-3.48,0.01-6.99,0.6-10.36-0.71c-4.15-4.54-20.9-5.39-25.02-1.23C507.94,626.68,507.97,627.35,507.84,627.87z M494.06,563
		c5.08-3.03,10.18-6.02,15.21-9.12c1.81-1.11,4-2.22,1.65-4.95c-1.61-1.87-3.08-4.27-5.88-2.8c-4.99,2.62-9.84,5.53-14.65,8.48
		c-1.95,1.19-1.9,3.11-0.85,4.99C490.45,561.25,491.21,563.15,494.06,563z"/>
	<path class="st1" d="M295.18,506.55c-9.32,2.79-15.95,9.68-22.91,15.78c-7.65,6.71-14.98,13.89-20.94,22.28
		c-1.67,2.35-3.18,5.22-6.94,4.39c-1.7-0.62-3.44-1.16-5.11-1.87c-2.42-1.03-4.54-2.64-6.59,1c-1.96,3.47-1.05,5.31,2.1,6.94
		c1.84,0.96,3.97,1.61,4.93,3.76c-5.83,13.57-13.73,26.23-17.91,40.53c-2.34,8-5.42,15.85-4.85,24.42
		c-2.07,0.56-5.27-1.15-5.93,2.22c-0.57,2.91-1.62,6.47,2.78,7.82c-0.4,18.06-0.68,36.11,3.15,53.92
		c1.97,9.14,6.66,17.65,6.42,27.31c-11.19-15.41-16.88-33.19-20.63-51.42c-19.75-95.99,43.69-188.7,140.22-205.25
		c9.3-1.59,18.75-2.84,28.28-2.01c0.1,3.69,0.19,7.38,0.29,11.07c-9.34,1.52-2.84,8.99-4.97,13.22
		c-23.05,1.09-44.03,8.39-63.21,21.09c-1.94-3.47-3.88-6.94-5.81-10.42c-1.37-2.48-2.94-3.54-5.86-1.88
		c-2.88,1.63-3.98,3.23-2.09,6.4C291.66,499.29,293.33,502.97,295.18,506.55z"/>
	<path class="st2" d="M371.54,467.44c-0.1-3.69-0.19-7.38-0.29-11.07c42.58-0.85,79.58,13.72,112.01,40.71
		c10.52,8.75,20.83,17.76,26.89,30.49c-0.8-0.08-1.93,0.16-2.35-0.28c-14.27-14.68-30.95-25.75-49.8-33.62
		c-0.96-0.4-1.81-1.06-2.72-1.59c-2.64-1.72-5.13-3.86-8.65-3.25c-22.78-8.04-46.27-10.97-70.33-9.84
		C375.7,474.73,377.8,469.36,371.54,467.44z"/>
	<path class="st3" d="M511.81,529.28c-0.58-0.57-1.16-1.13-1.74-1.7C510.65,528.15,511.23,528.71,511.81,529.28z"/>
	<path class="st1" d="M643,637.11c-0.01-8.41-0.26-16.82,0.09-25.22c0.23-5.44-0.97-8.98-7.14-9.3c-1.85-0.1-3.67-0.92-5.48-1.46
		c-32.62-9.67-46.17-27.69-45.34-60.26c0.78-30.67,19.09-53.46,49.31-60.36c6.88-1.57,9.03-4.32,8.76-11.3
		c-0.58-14.83-0.17-14.49,14.75-14.97c7.18-0.23,10.83,1.35,9.39,9.25c-0.43,2.36,0.24,4.91-0.11,7.3c-0.83,5.73,1.95,7.56,7.2,7.89
		c13.05,0.8,25.65,3.77,38.04,7.95c4.39,1.48,5.97,3.63,5.74,8.17c-0.35,6.76-0.47,13.58,0,20.33c0.42,6.01-1.79,6.1-6.43,4.25
		c-11.89-4.73-24.33-7.32-36.97-9.21c-5.42-0.81-7.8,0.1-7.67,6.36c0.38,17.62,0.27,35.25,0.05,52.87c-0.06,4.63,1.37,6.81,6.08,7.7
		c5.02,0.95,9.93,2.72,14.76,4.48c31.72,11.54,43.69,32.96,37.22,69.74c-4.74,26.93-23.89,40.94-49.06,47.13
		c-7.31,1.8-9.31,4.6-9.08,11.81c0.52,15.99,0.12,15.75-16.42,15.99c-5.97,0.09-7.95-1.43-7.83-7.67
		c0.3-15.71-0.04-15.48-15.34-16.74c-12.44-1.02-24.63-3.47-36.37-8.01c-4.2-1.63-5.89-4.02-5.72-8.5
		c0.26-6.77,0.25-13.56-0.04-20.33c-0.22-5.11,1.21-6.27,6.04-4.1c14.01,6.28,28.94,8.69,44.13,10.01c5.45,0.47,7.9-0.89,7.58-6.95
		C642.65,655.03,643,646.06,643,637.11z M667.25,638.18c0,8.13,0.21,16.27-0.08,24.4c-0.18,5.19,1.94,5.91,6.38,4.71
		c14.68-3.97,24.69-15.82,24.7-29.52c0-14.31-9.09-24.09-25.64-28.04c-3.94-0.94-5.47-0.14-5.39,4.05
		C667.39,621.91,667.27,630.04,667.25,638.18z M643.05,540.63c0-7.3,0.03-14.59-0.01-21.89c-0.04-8.3-0.76-8.77-8.88-6
		c-14.25,4.87-21.2,16.04-20.03,32.21c0.9,12.42,10.48,22.13,24.14,24.87c3.81,0.76,4.82-0.6,4.78-4.07
		C642.97,557.38,643.03,549,643.05,540.63z"/>
	<path class="st1" d="M601.1,387.89c-19.09,19.78-37.93,39.8-58.58,58c-2.4,2.11-4.37,4.72-6.53,7.1c-5.69-2.72-6.51-6.5-2.56-11.41
		c9.87-12.26,22.03-22.3,32.69-33.8c7.25-7.82,14.63-15.54,21.95-23.3c4.33,0.02,8.66,0.04,12.99,0.06
		C601.08,385.65,601.09,386.77,601.1,387.89z"/>
	<path class="st1" d="M778.34,446.53c-15.54-15.32-31.06-30.66-46.63-45.95c-3.26-3.21-6.84-6.1-10.02-9.39
		c-1.34-1.38-4.11-2.45-2.83-5.18c1.01-2.14,3.28-1.37,5.07-1.46c2.42-0.13,4.86-0.07,7.29-0.1c9.09,10.71,19.11,20.52,29.16,30.3
		c6.95,6.77,13.93,13.5,20.6,20.53C785.44,439.99,784.19,444.41,778.34,446.53z"/>
	<path class="st0" d="M683.93,343.75c-2.12,0.03-4.25,0.06-6.37,0.09c-0.3-9.49,4.21-17.49,8.09-25.65
		c6.98-14.68,11.7-30.4,20.55-44.33c-1.18,11.29-3.18,22.38-7.25,32.95C694.17,319.21,688.96,331.45,683.93,343.75z"/>
	<path class="st0" d="M659.54,343.78c-2.1-0.01-4.2-0.02-6.31-0.03c3.47-26.35,2.15-53.02,4.82-80.68
		C665.72,290.77,660.44,317.3,659.54,343.78z"/>
	<path class="st0" d="M636.8,343.84c-1.58-0.03-3.16-0.05-4.74-0.08c-0.06-5.7-3.05-10.64-5.85-14.91
		c-9.43-14.37-14.72-30.96-24.78-44.93c-0.34-0.47,0.04-1.46,0.13-3c8.93,6.9,14.97,15.74,19.67,24.65
		c4.83,9.15,10.59,18,13.9,28.02C636.27,337.03,637.03,340.3,636.8,343.84z"/>
	<path class="st4" d="M601.1,387.89c-0.01-1.12-0.02-2.24-0.03-3.36c0.84,0.42,2.27,0.71,2.41,1.3
		C603.89,387.55,602.29,387.62,601.1,387.89z"/>
	<path class="st5" d="M371.54,467.44c6.26,1.93,4.17,7.29,4.75,11.55c-5.43,44.02,1.66,87.87,1.75,131.82
		c0.01,7.47,4.2,11.15,11.65,11.41c33.25,1.19,66.5,2.39,99.76,3.51c3.56,0.12,6.98,0.43,10.14,2.15
		c-18.17,3.38-36.63,2.3-54.91,3.79c-18.04,1.47-36.15,2.24-54.25,2.86c-8.28,0.28-12.51,3.79-12.65,12.09
		c-4.57,2.03-4.54,4.21-0.2,6.51c-0.1,1.62-0.21,3.23-0.31,4.85c-4.16,1.7-1.76,5.39-2.47,8.14c-0.9-1.14-1.79-2.28-2.99-3.8
		c0.46,2.55-2.31,5.08,0.3,6.62c1.76,1.04,2.44-1.17,2.72-2.78c0.55,0,1.11,0,1.66-0.01c0.62,4.13-0.55,6.81-5.32,6.67
		c-4.68-0.14-4.55-3.51-4.57-6.77c-0.02-3.71-0.02-7.42-0.03-11.12c0.11-0.43,0.09-0.86-0.06-1.29c-1.07-2.89-1.02-5.87-0.72-8.87
		c1.25-1.84,1.33-3.45-0.89-4.62c-8.46-8.76-19.8-4.26-29.69-6.47c-2.34-0.52-6.04,1.5-6.6-2.62c-0.5-3.61-1.41-7.68,5-7.55
		c7.02,0.14,14.05-0.81,21.08-1.15c6.82-0.33,10.39-3.98,10.61-10.62c1.28-38.19,2.58-76.37,3.55-114.57
		c0.14-5.49-2.79-10.82-2.27-16.52C368.7,476.42,362.19,468.95,371.54,467.44z M370.24,636.63c6.81,2.35,9.25-3.27,9.39-7.4
		c0.15-4.56-4.1-8.29-9.29-8.48c-5.41-0.2-6.74,4.23-6.71,8.35C363.65,632.93,362.92,638.59,370.24,636.63z"/>
	<path class="st5" d="M507.84,627.87c0.13-0.51,0.11-1.19,0.43-1.52c4.12-4.17,20.87-3.32,25.02,1.23
		c-1.45,3.73-3.47,6.05-8.16,5.34c-3.88-0.59-7.93-0.33-11.88-0.02C509.34,633.21,508.09,631.21,507.84,627.87z"/>
	<path class="st5" d="M213.8,633.82c-4.4-1.35-3.35-4.91-2.78-7.82c0.66-3.37,3.86-1.66,5.93-2.22c4.33,0.06,8.66,0.31,12.98,0.13
		c3.47-0.14,4.85,1.11,4.86,4.63c0.01,3.5-1.34,4.77-4.81,4.75C224.6,633.26,219.2,633.62,213.8,633.82z"/>
	<path class="st5" d="M366.94,776.26c2.11-3.01-4.35-11.11,5.01-10.71c8.17,0.35,3.01,7.47,4.16,11.38c0.72,2.46-0.01,5.32,0.09,8
		c0.14,3.4-1.87,3.98-4.62,3.91c-2.64-0.06-4.84-0.4-4.66-3.89C367.05,782.28,366.94,779.59,366.94,776.26z"/>
	<path class="st5" d="M254.36,699.6c-0.13,2.61-2.03,2.89-3.3,3.67c-3.66,2.25-7.4,4.37-11.11,6.52c-2.58,1.5-4.81,3.29-7.19-0.83
		c-2.18-3.76-0.63-5.21,2.36-6.82c4.02-2.16,7.91-4.55,11.89-6.79c1.33-0.75,2.86-2.31,4.28-0.76
		C252.68,696.12,253.51,698.17,254.36,699.6z"/>
	<path class="st5" d="M300.81,745.99c2.14,1.68,7.51,1.47,4.09,7c-2.56,4.14-5,8.37-7.24,12.69c-1.64,3.17-3.64,3.55-6.53,1.77
		c-2.54-1.57-3.17-3.26-1.44-5.98c2.74-4.34,5.15-8.89,7.74-13.33C298.11,746.98,298.83,745.77,300.81,745.99z"/>
	<path class="st5" d="M442.21,745.9c2.09-0.51,2.9,1.06,3.7,2.42c2.6,4.42,5.02,8.95,7.69,13.33c1.75,2.86,0.6,4.31-1.9,5.79
		c-2.69,1.59-4.39,1.16-5.88-1.58c-2.46-4.5-5.25-8.83-7.65-13.36C436.7,749.7,438.98,746.21,442.21,745.9z"/>
	<path class="st5" d="M494.13,693.97c5.45,3.26,11.33,6.48,16.84,10.24c2.03,1.38-0.18,3.36-0.99,4.92
		c-0.93,1.81-2.15,3.15-4.44,1.81c-5.09-2.97-10.19-5.91-15.28-8.89c-2.35-1.38-1.43-3.1-0.41-4.78
		C490.78,695.75,491.23,693.64,494.13,693.97z"/>
	<path class="st5" d="M239.71,558.83c-0.95-2.15-3.08-2.81-4.93-3.76c-3.14-1.63-4.05-3.48-2.1-6.94c2.05-3.64,4.17-2.03,6.59-1
		c1.67,0.71,3.4,1.25,5.11,1.87c0.73,3.29,3.73,4.58,6.13,5.74c3.53,1.71,1.95,3.34,1.08,5.58c-1.46,3.77-4.05,2.5-5.56,0.88
		C244.13,559.15,242.15,558.74,239.71,558.83z"/>
	<path class="st5" d="M295.18,506.55c-1.84-3.58-3.52-7.26-5.58-10.71c-1.89-3.17-0.79-4.76,2.09-6.4c2.92-1.65,4.49-0.59,5.86,1.88
		c1.92,3.48,3.87,6.95,5.81,10.42c0.59,3.31-0.42,6.4-3.09,8.04C297.35,511.6,296.77,507.88,295.18,506.55z"/>
	<path class="st5" d="M376.48,666.14c-0.55,0-1.11,0-1.66,0.01l-0.03-0.04c0.7-2.75-1.7-6.44,2.47-8.14
		C377.71,660.76,377.69,663.51,376.48,666.14z"/>
	<path class="st5" d="M377.56,653.12c-4.34-2.3-4.37-4.48,0.2-6.51C377.7,648.78,377.63,650.95,377.56,653.12z"/>
	<path class="st5" d="M364.88,640.15c2.22,1.17,2.14,2.78,0.89,4.62C365.48,643.23,365.18,641.69,364.88,640.15z"/>
	<path class="st5" d="M366.5,653.64c0.14,0.42,0.16,0.85,0.06,1.29C366.1,654.5,366.08,654.07,366.5,653.64z"/>
	<path class="st5" d="M494.06,563c-2.84,0.15-3.61-1.75-4.52-3.39c-1.04-1.88-1.09-3.79,0.85-4.99c4.81-2.95,9.65-5.87,14.65-8.48
		c2.81-1.47,4.27,0.93,5.88,2.8c2.35,2.73,0.16,3.83-1.65,4.95C504.24,556.99,499.13,559.97,494.06,563z"/>
	<path class="st5" d="M446.61,488.82c3.52-0.61,6,1.52,8.65,3.25c-3.06,5.4-6.14,10.79-9.18,16.21c-1.21,2.15-2.17,4.6-5.35,2.28
		c-2.48-1.81-5.1-3.3-2.71-7.09C441.03,498.68,443.76,493.71,446.61,488.82z"/>
	<path class="st1" d="M667.26,638.18c0.01-8.13,0.13-16.27-0.04-24.4c-0.09-4.19,1.44-4.99,5.39-4.05
		c16.55,3.94,25.64,13.72,25.64,28.04c0,13.7-10.02,25.55-24.7,29.52c-4.44,1.2-6.56,0.48-6.38-4.71
		C667.46,654.45,667.25,646.31,667.26,638.18z"/>
	<path class="st1" d="M643.04,540.63c-0.01,8.38-0.08,16.75,0.02,25.13c0.04,3.47-0.97,4.84-4.78,4.07
		c-13.67-2.74-23.25-12.45-24.14-24.87c-1.17-16.17,5.78-27.35,20.03-32.21c8.12-2.77,8.84-2.3,8.88,6
		C643.08,526.04,643.05,533.33,643.04,540.63z"/>
	<path class="st2" d="M370.24,636.63c-7.32,1.96-6.59-3.7-6.62-7.53c-0.03-4.12,1.3-8.55,6.71-8.35c5.2,0.19,9.44,3.93,9.29,8.48
		C379.49,633.36,377.05,638.98,370.24,636.63z"/>
	<path class="st5" d="M374.82,666.15c-0.28,1.6-0.96,3.82-2.72,2.78c-2.61-1.54,0.16-4.07-0.3-6.62c1.2,1.52,2.09,2.66,2.99,3.8
		C374.79,666.11,374.82,666.15,374.82,666.15z"/>
</g>
<path class="st2" d="M713.56,562.8h17.63c6.37,0,11.53,5.16,11.53,11.53s-5.16,11.53-11.53,11.53h-17.62
	c-2.49,15.64-10.51,29.87-22.59,40.09c-12.09,10.23-27.44,15.78-43.28,15.64h-15.13l63.04,55.06c4.82,4.28,5.31,11.62,1.13,16.53
	c-2.01,2.31-4.85,3.72-7.9,3.93c-3.05,0.19-6.06-0.81-8.36-2.84l-86.29-75.1c-3.62-3.23-4.91-8.34-3.24-12.88
	c1.67-4.56,5.94-7.63,10.79-7.75h45.97c9.68,0.03,19.09-3.16,26.74-9.08c7.66-5.91,13.12-14.22,15.53-23.59h-88.24
	c-6.36,0-11.53-5.16-11.53-11.53c0-6.37,5.16-11.53,11.53-11.53h88.22c-2.84-8.95-8.47-16.77-16.08-22.3
	c-7.6-5.53-16.76-8.5-26.17-8.45h-45.97c-6.36,0-11.53-5.16-11.53-11.53c0-6.37,5.16-11.53,11.53-11.53H731.2
	c6.36,0,11.53,5.16,11.53,11.53s-5.17,11.53-11.53,11.53h-33.03C705.98,539.74,711.42,551.27,713.56,562.8z"/>
</svg>
