<svg width="26" height="26" viewBox="0 0 26 26" fill="none" xmlns="http://www.w3.org/2000/svg">
<path d="M24.9401 11.546C24.9401 12.1705 24.9401 12.7946 24.9401 13.4191C24.8925 13.4528 24.9103 13.505 24.9067 13.5491C24.8695 14.0248 24.804 14.4963 24.7084 14.9637C24.1863 17.5183 22.9895 19.7058 21.1044 21.5054C19.1544 23.3666 16.8353 24.4759 14.162 24.8427C13.9025 24.8784 13.638 24.8748 13.3823 24.9416C12.7932 24.9416 12.2043 24.9416 11.6151 24.9416C11.5876 24.8975 11.5413 24.9124 11.503 24.9095C11.2097 24.8858 10.9177 24.8515 10.6267 24.8058C7.84487 24.3693 5.45223 23.152 3.53371 21.0997C0.663391 18.0291 -0.444295 14.3738 0.315983 10.2416C1.05033 6.25124 3.30913 3.31189 6.90052 1.4381C9.41274 0.12754 12.097 -0.211442 14.8757 0.316151C17.5058 0.815549 19.7452 2.05967 21.5778 4.01157C23.4008 5.9531 24.4864 8.25305 24.8448 10.8952C24.874 11.1124 24.8597 11.3366 24.9401 11.546ZM10.7674 15.3717C10.7842 15.3662 10.8011 15.3603 10.8179 15.3548C10.8558 15.3905 10.8947 15.4251 10.9317 15.4618C11.4512 15.9748 11.9694 16.4891 12.4895 17.0011C12.8502 17.356 13.2686 17.4396 13.7385 17.251C13.9485 17.1667 14.1332 17.0413 14.2914 16.8793C15.2124 15.9356 16.1314 14.9899 17.0554 14.0491C17.1348 13.9681 17.1257 13.9286 17.0515 13.8547C16.5599 13.364 16.0702 12.8708 15.5864 12.3724C15.4911 12.2742 15.4386 12.2709 15.3401 12.3711C14.687 13.0338 14.0253 13.6878 13.3707 14.3492C13.2887 14.4318 13.2417 14.4539 13.1526 14.356C13.01 14.1998 12.8495 14.0601 12.6972 13.913C11.9946 13.2341 11.2946 12.5525 10.5882 11.8778C10.3775 11.6766 10.14 11.5058 9.82983 11.5058C8.59932 11.5048 7.36848 11.5113 6.13797 11.5081C5.94061 11.5074 5.76723 11.5583 5.60455 11.6604C5.44446 11.7605 5.29441 11.8746 5.15992 12.0074C4.05418 13.0999 2.94811 14.192 1.84529 15.2874C1.35205 15.7771 1.35496 16.5717 1.84756 17.0682C2.76793 17.9963 3.68992 18.9232 4.61126 19.85C4.83552 20.0756 4.83617 20.0749 5.06496 19.8624C5.07177 19.8562 5.08603 19.8581 5.11228 19.8539C5.13821 20.3472 5.16381 20.8388 5.18941 21.3304C5.19557 21.4481 5.19297 21.5696 5.27043 21.6681C5.55496 22.0314 5.92052 22.2829 6.38621 22.2913C7.4576 22.3104 8.52964 22.2974 9.60135 22.2974C10.2061 22.2974 10.7265 21.7835 10.732 21.1781C10.7447 19.7476 10.757 18.3172 10.767 16.8867C10.7703 16.3818 10.7674 15.8766 10.7674 15.3717ZM8.01177 10.6431C9.33237 10.6408 10.4064 9.56749 10.4073 8.24981C10.408 6.93342 9.33043 5.85685 8.01177 5.85587C6.69603 5.8549 5.62237 6.92759 5.61557 8.25013C5.60844 9.55874 6.69668 10.6454 8.01177 10.6431ZM17.4472 10.8495C17.3153 10.856 17.1879 10.8764 17.0661 10.9244C16.6289 11.0962 16.3402 11.4332 16.0828 11.8059C16.0362 11.8736 16.0751 11.9125 16.1195 11.9553C16.5813 12.4002 17.045 12.8436 17.5026 13.2931C17.5849 13.3737 17.6306 13.3517 17.7013 13.2846C17.9019 13.0944 18.1067 12.9084 18.3138 12.7253C18.6291 12.4466 18.7266 12.0985 18.6122 11.7044C18.5646 11.5401 18.5921 11.4209 18.6696 11.2799C19.67 9.4612 20.6639 7.63861 21.6647 5.82023C21.7603 5.64685 21.7525 5.48384 21.687 5.3137C21.6245 5.15069 21.49 5.08198 21.3251 5.08101C21.1663 5.08004 21.0276 5.0956 20.9323 5.27448C19.9565 7.10648 18.97 8.93263 17.9916 10.763C17.922 10.8936 17.8688 10.9737 17.7064 10.8913C17.6322 10.8531 17.5344 10.8618 17.4472 10.8495Z" fill="#EEDC92" stroke="black" stroke-width="0.159259" stroke-miterlimit="10"/>
<path d="M10.7675 15.3718C10.7675 15.8767 10.7704 16.3819 10.7669 16.8868C10.7568 18.3173 10.7445 19.7478 10.7319 21.1782C10.7267 21.7836 10.2059 22.2976 9.60118 22.2976C8.52947 22.2976 7.45743 22.3109 6.38604 22.2914C5.92035 22.283 5.55512 22.0312 5.27026 21.6682C5.19313 21.5697 5.1954 21.4482 5.18924 21.3305C5.16364 20.8389 5.13803 20.3473 5.11211 19.8541C5.08586 19.8586 5.0716 19.8563 5.06479 19.8625C4.83567 20.0751 4.83535 20.0757 4.61109 19.8502C3.68942 18.923 2.76776 17.9965 1.84739 17.0683C1.35479 16.5718 1.35188 15.7772 1.84512 15.2875C2.94794 14.1925 4.05433 13.1004 5.15975 12.0076C5.29424 11.8747 5.44428 11.7606 5.60438 11.6605C5.76739 11.5584 5.94044 11.5075 6.1378 11.5082C7.36831 11.5114 8.59915 11.5053 9.82966 11.5059C10.1395 11.5062 10.3773 11.677 10.588 11.8779C11.2945 12.5527 11.9945 13.2342 12.6971 13.9131C12.8494 14.0603 13.0101 14.1999 13.1524 14.3561C13.2415 14.454 13.2888 14.432 13.3705 14.3493C14.0251 13.6882 14.6869 13.0339 15.3399 12.3712C15.4387 12.271 15.4909 12.2743 15.5862 12.3725C16.07 12.8709 16.5597 13.3641 17.0513 13.8548C17.1255 13.9287 17.1346 13.9682 17.0552 14.0492C16.1313 14.99 15.2122 15.9357 14.2912 16.8794C14.133 17.0414 13.9486 17.1668 13.7383 17.2511C13.2684 17.4397 12.85 17.3561 12.4893 17.0012C11.9689 16.4892 11.4507 15.9749 10.9315 15.4619C10.8946 15.4253 10.8557 15.3906 10.8178 15.3549C10.8012 15.3604 10.7844 15.3663 10.7675 15.3718ZM10.1249 18.8128C10.1249 18.036 10.122 17.2589 10.1278 16.4821C10.1288 16.3515 10.096 16.3132 9.96188 16.3142C9.09077 16.3204 8.21966 16.32 7.34855 16.3145C7.22183 16.3135 7.19364 16.3518 7.19461 16.4727C7.20012 17.2378 7.20855 18.0033 7.19105 18.7681C7.18521 19.0157 7.26202 19.1806 7.44512 19.3397C8.06767 19.8806 7.99929 20.6412 7.29767 21.0609C7.21081 21.1128 7.18327 21.1714 7.19947 21.2596C7.21827 21.361 7.30285 21.3176 7.35697 21.3176C8.22225 21.3205 9.08753 21.3166 9.95248 21.3228C10.0938 21.3237 10.1288 21.28 10.1275 21.1435C10.1216 20.3667 10.1249 19.5896 10.1249 18.8128ZM5.1147 15.3468C4.84831 15.632 4.6153 15.8854 4.37711 16.134C4.31165 16.2024 4.36123 16.2338 4.40206 16.2747C4.556 16.4286 4.70766 16.5845 4.86452 16.7352C4.94035 16.8081 4.99998 16.9037 5.11438 16.9478C5.1147 16.4218 5.1147 15.9107 5.1147 15.3468Z" fill="#FFBD11" stroke="black" stroke-width="0.159259" stroke-miterlimit="10"/>
<path d="M8.01179 10.6427C6.6967 10.645 5.60846 9.55834 5.61527 8.24973C5.62207 6.92686 6.69573 5.8545 8.01147 5.85547C9.33045 5.85644 10.4077 6.93334 10.407 8.2494C10.4067 9.56709 9.3324 10.6404 8.01179 10.6427Z" fill="#FFBD11" stroke="black" stroke-width="0.159259" stroke-miterlimit="10"/>
<path d="M17.447 10.8493C17.5342 10.8616 17.6321 10.8525 17.7063 10.8904C17.8686 10.9731 17.9218 10.8927 17.9915 10.7621C18.9698 8.93174 19.9566 7.10558 20.9321 5.27359C21.0274 5.0947 21.1661 5.07915 21.3249 5.08012C21.4898 5.08109 21.6243 5.14979 21.6869 5.3128C21.7523 5.48294 21.7598 5.64595 21.6645 5.81933C20.6638 7.63803 19.6698 9.4603 18.6694 11.279C18.592 11.42 18.5644 11.5392 18.6121 11.7035C18.7265 12.0976 18.6289 12.446 18.3136 12.7244C18.1065 12.9075 17.9017 13.0935 17.7011 13.2837C17.6301 13.3508 17.5847 13.3732 17.5024 13.2922C17.0445 12.843 16.5811 12.3993 16.1193 11.9544C16.0749 11.9116 16.036 11.8727 16.0827 11.805C16.34 11.4323 16.6287 11.0953 17.0659 10.9235C17.1878 10.8762 17.3151 10.8558 17.447 10.8493Z" fill="#FFBD11" stroke="black" stroke-width="0.159259" stroke-miterlimit="10"/>
<path d="M10.1252 18.8121C10.1252 19.5889 10.122 20.366 10.1281 21.1428C10.1291 21.2796 10.0944 21.323 9.95315 21.3221C9.08787 21.3159 8.22292 21.3198 7.35764 21.3169C7.30352 21.3166 7.21894 21.3603 7.20014 21.2589C7.18394 21.1707 7.21148 21.1121 7.29833 21.0602C7.99996 20.6405 8.06801 19.8799 7.44579 19.339C7.26269 19.1803 7.18588 19.015 7.19171 18.7674C7.20921 18.0026 7.20079 17.2371 7.19528 16.472C7.19431 16.3511 7.2225 16.3128 7.34921 16.3138C8.22033 16.3197 9.09144 16.32 9.96255 16.3135C10.0967 16.3125 10.1294 16.3508 10.1285 16.4814C10.1223 17.2582 10.1252 18.0353 10.1252 18.8121Z" fill="#800000" stroke="black" stroke-width="0.159259" stroke-miterlimit="10"/>
<path d="M5.11481 15.3467C5.11481 15.9106 5.11481 16.4216 5.11481 16.9479C5.00009 16.9039 4.94079 16.8083 4.86495 16.7353C4.7081 16.5846 4.55643 16.4284 4.4025 16.2748C4.36134 16.234 4.31208 16.2026 4.37755 16.1342C4.61542 15.8853 4.84843 15.6319 5.11481 15.3467Z" fill="#EEDC92" stroke="black" stroke-width="0.159259" stroke-miterlimit="10"/>
<path d="M20.8027 25.8834C20.5577 25.8834 20.3127 25.8834 20.0674 25.8834C20.0596 25.8571 20.0373 25.8652 20.0195 25.8636C19.8111 25.8439 19.6043 25.8131 19.3998 25.767C17.3753 25.3108 15.8318 23.6518 15.5333 21.614C15.5177 21.5084 15.5255 21.3985 15.4814 21.2977C15.4814 21.0398 15.4814 20.7818 15.4814 20.5239C15.5122 20.5132 15.4989 20.4863 15.5015 20.4665C15.5161 20.3547 15.5252 20.2422 15.5443 20.1311C15.7213 19.094 16.1636 18.1834 16.9233 17.4571C18.424 16.0218 20.1886 15.5937 22.1506 16.2895C24.5393 17.1366 25.8427 19.6472 25.24 22.1083C24.7639 24.0527 23.126 25.5454 21.1576 25.8312C21.0396 25.8484 20.9184 25.8468 20.8027 25.8834ZM21.0351 22.5691C21.0351 22.2369 21.0374 21.9047 21.0332 21.5729C21.0322 21.5035 21.052 21.4893 21.1184 21.4899C21.457 21.4935 21.7954 21.4915 22.134 21.4915C22.4403 21.4915 22.7465 21.4948 23.0528 21.4906C23.4498 21.4851 23.7256 21.1318 23.6258 20.763C23.5541 20.4983 23.3286 20.3314 23.034 20.331C22.3956 20.3297 21.7571 20.3297 21.1187 20.3323C21.0533 20.3327 21.0322 20.32 21.0332 20.2497C21.0374 19.9499 21.0351 19.6502 21.0351 19.3501C21.0351 19.0049 21.0383 18.6601 21.0341 18.315C21.0289 17.8914 20.6456 17.6192 20.2538 17.7569C20.0224 17.8383 19.8749 18.0573 19.8743 18.3292C19.873 18.9677 19.8723 19.6061 19.8759 20.2445C19.8762 20.3187 19.8561 20.3336 19.7858 20.3323C19.5181 20.3278 19.2508 20.3307 18.9831 20.3307C18.5961 20.3307 18.2092 20.3278 17.8222 20.3317C17.4204 20.3356 17.1417 20.6924 17.2454 21.0641C17.3189 21.3276 17.5445 21.4912 17.841 21.4915C18.4859 21.4925 19.1308 21.4932 19.7754 21.4899C19.8532 21.4896 19.8765 21.5042 19.8759 21.5875C19.8717 22.2324 19.8743 22.8773 19.8733 23.5219C19.873 23.752 19.9576 23.9386 20.1578 24.0576C20.548 24.2896 21.0241 24.0174 21.0328 23.5559C21.04 23.2266 21.0348 22.8977 21.0351 22.5691Z" fill="#800000"/>
<path d="M21.0352 22.5692C21.0352 22.8982 21.04 23.2271 21.0339 23.5557C21.0251 24.0172 20.5491 24.2894 20.1589 24.0574C19.9586 23.9381 19.874 23.7515 19.8743 23.5217C19.875 22.8768 19.8727 22.2319 19.8769 21.5873C19.8776 21.5043 19.8542 21.4894 19.7765 21.4898C19.1316 21.493 18.4866 21.4923 17.8421 21.4914C17.5455 21.491 17.32 21.3274 17.2464 21.0639C17.1427 20.6925 17.4211 20.3354 17.8233 20.3315C18.2102 20.3279 18.5972 20.3305 18.9841 20.3305C19.2518 20.3305 19.5195 20.3279 19.7868 20.3322C19.8572 20.3335 19.8776 20.3185 19.8769 20.2443C19.8734 19.6059 19.874 18.9675 19.8753 18.3291C19.876 18.0575 20.0234 17.8381 20.2548 17.7567C20.6463 17.619 21.03 17.8912 21.0352 18.3148C21.0394 18.6596 21.0361 19.0048 21.0361 19.3499C21.0361 19.6497 21.0387 19.9498 21.0342 20.2495C21.0332 20.3195 21.0543 20.3322 21.1197 20.3322C21.7582 20.3296 22.3966 20.3296 23.035 20.3309C23.3299 20.3315 23.5555 20.4981 23.6268 20.7629C23.7266 21.1317 23.4508 21.4849 23.0538 21.4904C22.7476 21.4946 22.4413 21.4914 22.1351 21.4914C21.7964 21.4914 21.4581 21.4933 21.1194 21.4898C21.0533 21.4891 21.0332 21.5034 21.0342 21.5727C21.0374 21.9049 21.0352 22.2371 21.0352 22.5692Z" fill="#FEFEFE"/>
</svg>
