<?xml version="1.0" encoding="utf-8"?>
<!-- Generator: Adobe Illustrator 24.0.1, SVG Export Plug-In . SVG Version: 6.00 Build 0)  -->
<svg version="1.1" id="Layer_1" xmlns="http://www.w3.org/2000/svg" xmlns:xlink="http://www.w3.org/1999/xlink" x="0px" y="0px"
	 viewBox="0 0 1080 1080" style="enable-background:new 0 0 1080 1080;" xml:space="preserve">
<style type="text/css">
	.st0{fill:#800000;}
	.st1{fill:#F6F2E0;}
	.st2{fill:#FFFFFF;}
	.st3{fill:#6ECAD9;}
	.st4{fill:#EDDC92;}
	.st5{fill:#FEC210;}
</style>
<g>
	<path class="st0" d="M740.25,231.59c1.5,5.61,2.76,11.28,4.55,16.78c2.24,6.88,0.99,9.6-7.13,9.26
		c-15.86-0.65-31.77-0.41-47.65-0.11c-12.83,0.24-18.47,10.83-11.4,21.34c6.33,9.42,13.17,18.49,19.78,27.72h-0.01
		c23.85,34.44,47.57,68.97,71.63,103.27c5.92,8.44,15.59,7.93,21.86-0.72c7.79-10.74,15.39-21.62,22.78-32.63
		c8.54-12.71,18.34-24.58,25.65-38.12c4.89-4.56,8.22-10.33,11.89-15.79c10.77-16.04,23.03-31.07,32.52-47.97h0.01
		c1.63-10.14-4.09-17-14.62-17.12c-13.73-0.15-27.47-0.21-41.19,0.05c-5.28,0.1-7.67-1.62-9.32-6.92
		c-3.77-12.1-9.84-23.21-17.54-33.35c-28.11-43.28-67.77-70.53-117.16-84.1c-6.38-1.75-11.52,1.17-14.5,7.02
		c-2.93,5.74-0.88,12.84,5.46,16.41c30.58,17.23,51.59,42.54,64.39,74.97"/>
	<path class="st0" d="M403.73,948.86h-9.57c-4.98-3.61-11.13-4.2-16.66-6.39c-23.16-9.21-45.06-20.45-63.08-38.13
		c0-0.01,0-0.01,0-0.02c-18.1-15.15-32.76-33.05-43.41-54.17c2.44-0.2,4.88-0.21,7.34-0.17c-2.45-0.05-4.9-0.04-7.34,0.16
		c-4.39-5.71-7.07-12.33-9.47-18.98c-1.88-5.19-4.53-7.35-10.34-7.11c-12.13,0.5-24.29,0.09-36.44,0.18
		c-6.77,0.05-13.65,0.05-17.3-6.9c-3.8-7.23-0.06-13.2,4.31-18.79c0.8-1.03,1.72-1.94,2.6-2.92c14.28-21.71,29.05-43.09,44.59-63.92
		h0.01c14.09-20.42,27.9-41.05,42.43-61.16c5.38-7.45,14.95-6.24,20.77,1.91c7.92,11.09,15.59,22.36,23.1,33.73
		c3.61,5.47,8.62,9.96,11.19,16.14h-0.01c12.75,17.14,25.06,34.58,36.63,52.54l0.01,0.01h0.02c6.63,9.25,13.47,18.36,19.83,27.8
		c7.1,10.55,1.51,21.22-11.3,21.45c-16.72,0.3-33.44,0.21-50.16,0c-4.81-0.06-6.97,0.77-5.16,6.16c1.43,4.25,2.04,8.77,3.01,13.16
		c-0.01,0-0.01,0-0.02,0c6.76,21.05,17.94,39.52,32.6,55.97c-16.51,3.46-33.22,0.73-49.81,1.66c-1.68,0.09-3.73-0.49-5.32,0.04
		c1.59-0.51,3.64,0.07,5.32-0.02c16.59-0.94,33.3,1.79,49.81-1.66c9.08,9.06,19.19,16.78,30.22,23.32
		C415.46,930.66,416,939.75,403.73,948.86z"/>
</g>
<g>
	<path d="M742.56,481c6.61,0,12.01,5.17,12.01,11.51v0.82c20.92,2.8,39.88,12.03,54.26,25.52c16.94,15.91,27.52,37.72,27.52,61.99
		l-0.8,29.96l6.2,42.96c0.24,1.39,0.1,2.82-0.4,4.14s-1.36,2.49-2.49,3.39l0.77,0.87l1.43,1.62l-6.25,7.92l-0.12,0.28l-0.03,0.09
		c-1.91,4.67-4.47,8.91-7.43,12.05c-2.49,2.54-5.27,4.37-8.3,5.08c-0.59,1.79-1.24,3.66-1.71,5.48
		c-3.38,10.9-6.02,19.48-13.06,28.01c-1.53,1.86-3.17,3.66-4.89,5.34c-1.18,1.18-2.4,2.33-3.69,3.43
		c0.21,2.07,0.17,20.19,0.14,25.38l-2.07,0.47c-4.53,15.35-18.1,25.31-34.08,30.01c-9.1,2.66-19.01,3.64-28.44,2.94
		c-9.5-0.7-18.61-3.12-26.01-7.19c-10.39-5.73-17.51-14.69-18.02-26.81v-0.84l-2.26-0.59v-23.27l0.05-2.44
		c-6.48-5.62-11.77-13.07-15.34-20.65c-2.49-5.27-4.46-11-6.75-17.46l-1.18-3.36c-2.59-0.33-5.01-1.48-7.19-3.17
		c-2.73-2.14-5.08-5.27-7-8.9c-1.29-2.42-3.83-6.06-4.75-13.63c-2.77-1.62-4.42-4.7-3.95-7.97l6.23-43l-1.74-26.32
		c-0.12-1.91-0.19-3.66-0.19-5.22c0-23.45,10.53-44.49,27.19-60.04c15.81-14.76,37.22-24.54,60.35-26.6v-0.31
		C730.57,486.17,735.96,481,742.56,481z"/>
	<path d="M751.3,783c14.01-2.99,26.74-10.48,32.93-21.99c2-4.49,7.02-7.26,12.24-6.39c8.25,1.39,13.28,2.18,18.35,2.94
		c60.28,9.31,117.48,18.14,133.29,91.51l17.06,88.34c0.26,0.91,0.4,1.86,0.4,2.84c0,5.94-5.03,10.74-11.21,10.74H526.1
		c-0.59-0.03-1.18-0.07-1.79-0.16c-6.09-0.94-10.24-6.44-9.24-12.29l12.72-74.43c18-87.68,65.71-96.75,134.86-109.89
		c7.28-1.38,14.76-2.8,20.59-3.97c5.97-1.18,11.85,2.45,13.18,8.18c2.35,10.08,9.1,17.11,17.88,21.25c5.26,2.49,11.23,4,17.42,4.56
		C738.18,784.79,744.86,784.38,751.3,783z"/>
	<path class="st1" d="M787.07,733.34c-31.33,23.36-62.32,21.13-93.01,0.21l-0.14,23.27c3.24,36.09,83.96,38.12,93.15,1.06V733.34z
		 M831.55,664.72c-0.78-0.89-1.57-1.78-2.35-2.65l-0.54-0.33c-21.08-14.22-54.73-21.31-88.53-21.31c-32.83,0-65.36,6.68-86.2,19.97
		l2.91,12.36l9.61,9.64l5.95,6.14c16.71,67,118.96,71.2,136.84,0l10.51-8.76L831.55,664.72z"/>
	<path class="st0" d="M833.41,655.09l-5.61-38.85c-0.63-0.03-1.25-0.17-1.85-0.42c-30.62-12.79-60.14-18.03-88.73-17.44
		c-28.6,0.61-56.35,7.08-83.36,17.72c-0.42,0.17-0.85,0.28-1.29,0.33l-5.61,38.66C691.31,624.8,788.27,624.63,833.41,655.09z
		 M827.27,605.45l0.61-22.58c1.25-45.73-39.06-82.42-86.81-82.42h-1.36c-48.5,0-91.27,37.36-88.17,83.73l1.43,21.46
		c27.19-10.37,55.16-16.66,84.08-17.27C766.17,587.74,796.21,592.89,827.27,605.45z"/>
	<path class="st2" d="M753.11,540.36h-4.18c-0.24-1.2-0.68-2.25-1.29-3.15c-0.61-0.91-1.34-1.67-2.23-2.28
		c-0.87-0.63-1.83-1.1-2.87-1.41c-1.06-0.31-2.16-0.47-3.31-0.47c-2.09,0-3.97,0.52-5.67,1.58c-1.69,1.04-3.03,2.59-4.02,4.65
		c-0.99,2.05-1.48,4.56-1.48,7.54s0.49,5.48,1.48,7.54c0.99,2.05,2.33,3.6,4.02,4.65s3.59,1.58,5.67,1.58
		c1.15,0,2.25-0.16,3.31-0.47s2.02-0.78,2.87-1.39c0.87-0.63,1.62-1.39,2.23-2.3c0.61-0.92,1.04-1.97,1.29-3.15h4.18
		c-0.31,1.76-0.89,3.32-1.72,4.72c-0.84,1.39-1.86,2.58-3.1,3.53s-2.61,1.69-4.16,2.19c-1.53,0.5-3.15,0.75-4.89,0.75
		c-2.94,0-5.55-0.71-7.85-2.14s-4.09-3.46-5.4-6.11c-1.31-2.65-1.97-5.78-1.97-9.4s0.66-6.75,1.97-9.4s3.12-4.68,5.4-6.11
		s4.91-2.14,7.85-2.14c1.74,0,3.38,0.24,4.89,0.75c1.53,0.5,2.92,1.24,4.16,2.21c1.24,0.96,2.26,2.14,3.1,3.53
		C752.24,537.02,752.8,538.6,753.11,540.36z"/>
	<path class="st3" d="M794.51,765.23c-7.9,15.35-24.39,25.05-42.23,28.53v49.85h-24.16l-0.02-48.98
		c-20.14-2.54-37.9-13.53-42.61-33.87c-75.95,15.35-128.48,16.5-146.73,105.44l-4.35,25.33h92.61v-45.07c0-2.75,2.33-5,5.22-5
		c2.89,0,5.22,2.25,5.22,5v93.83H842.4v-93.83c0-2.75,2.33-5,5.22-5s5.2,2.25,5.2,5v45.07h92.09l-7.66-39.71
		C921.63,777.92,857.4,775.78,794.51,765.23z M530.28,915.54l-4.23,24.74h100.96v-24.74H530.28z M852.82,940.28h101.49l-4.77-24.74
		h-96.72L852.82,940.28L852.82,940.28z"/>
	<path d="M688.15,889.03h-4.06c-0.24-1.13-0.66-2.11-1.25-2.96c-0.59-0.85-1.31-1.57-2.16-2.14c-0.84-0.59-1.78-1.03-2.8-1.32
		c-1.03-0.3-2.09-0.44-3.2-0.44c-2.04,0-3.86,0.49-5.52,1.48c-1.64,0.99-2.94,2.44-3.92,4.35c-0.96,1.91-1.44,4.28-1.44,7.07
		s0.49,5.15,1.44,7.07c0.97,1.91,2.28,3.38,3.92,4.35c1.65,0.99,3.48,1.48,5.52,1.48c1.11,0,2.18-0.14,3.2-0.44
		c1.03-0.3,1.97-0.73,2.8-1.31c0.85-0.59,1.57-1.31,2.16-2.16c0.61-0.85,1.03-1.85,1.25-2.96h4.06c-0.31,1.65-0.87,3.12-1.67,4.42
		s-1.81,2.4-3.01,3.32c-1.2,0.91-2.54,1.58-4.04,2.07c-1.48,0.47-3.08,0.71-4.77,0.71c-2.85,0-5.4-0.68-7.62-2.02
		s-3.99-3.26-5.26-5.73s-1.91-5.41-1.91-8.81s0.64-6.34,1.91-8.81c1.27-2.47,3.03-4.39,5.26-5.73s4.77-2.02,7.62-2.02
		c1.69,0,3.27,0.24,4.77,0.71c1.5,0.47,2.84,1.17,4.04,2.07c1.2,0.91,2.21,2,3.01,3.31C687.29,885.9,687.85,887.38,688.15,889.03z"
		/>
	<path d="M723,895.09c0,3.39-0.64,6.34-1.91,8.81c-1.27,2.47-3.03,4.39-5.26,5.73c-2.23,1.34-4.77,2.02-7.62,2.02
		s-5.4-0.68-7.62-2.02s-3.99-3.26-5.26-5.73s-1.91-5.41-1.91-8.81s0.64-6.34,1.91-8.81c1.27-2.47,3.03-4.39,5.26-5.73
		s4.77-2.02,7.62-2.02s5.4,0.68,7.62,2.02c2.23,1.34,3.99,3.26,5.26,5.73C722.37,888.73,723,891.68,723,895.09z M719.08,895.09
		c0-2.79-0.49-5.15-1.46-7.07c-0.96-1.91-2.26-3.38-3.92-4.35c-1.64-0.99-3.46-1.48-5.5-1.48s-3.86,0.49-5.52,1.48
		c-1.64,0.99-2.94,2.44-3.92,4.35c-0.96,1.91-1.44,4.28-1.44,7.07s0.49,5.15,1.44,7.07c0.97,1.91,2.28,3.38,3.92,4.35
		c1.65,0.99,3.48,1.48,5.52,1.48s3.86-0.49,5.5-1.48c1.65-0.99,2.96-2.44,3.92-4.35C718.59,900.22,719.08,897.87,719.08,895.09z"/>
	<path d="M729.63,911.21h-4.26l12.31-32.24h4.2l12.31,32.24h-4.26l-10.03-27.14h-0.26L729.63,911.21z M731.19,898.6h17.16v3.46
		h-17.16V898.6z"/>
	<path d="M784.81,889.03h-4.06c-0.24-1.13-0.66-2.11-1.27-2.96c-0.59-0.85-1.31-1.57-2.16-2.14c-0.84-0.59-1.78-1.03-2.8-1.32
		c-1.03-0.3-2.09-0.44-3.2-0.44c-2.04,0-3.86,0.49-5.52,1.48c-1.64,0.99-2.94,2.44-3.92,4.35c-0.96,1.91-1.44,4.28-1.44,7.07
		s0.47,5.15,1.44,7.07c0.97,1.91,2.28,3.38,3.92,4.35c1.65,0.99,3.48,1.48,5.52,1.48c1.11,0,2.18-0.14,3.2-0.44s1.97-0.73,2.8-1.31
		c0.85-0.59,1.57-1.31,2.16-2.16c0.61-0.85,1.03-1.85,1.27-2.96h4.06c-0.31,1.65-0.87,3.12-1.67,4.42s-1.81,2.4-3.01,3.32
		c-1.2,0.91-2.54,1.58-4.04,2.07c-1.48,0.47-3.06,0.71-4.77,0.71c-2.85,0-5.4-0.68-7.62-2.02s-3.99-3.26-5.26-5.73
		s-1.91-5.41-1.91-8.81s0.64-6.34,1.91-8.81c1.27-2.47,3.03-4.39,5.26-5.73s4.77-2.02,7.62-2.02c1.69,0,3.27,0.24,4.77,0.71
		c1.5,0.47,2.84,1.17,4.04,2.07c1.2,0.91,2.21,2,3.01,3.31C783.96,885.9,784.51,887.38,784.81,889.03z"/>
	<path d="M791.37,911.21v-32.24h4.06v14.36h17.89v-14.36h4.06v32.24h-4.06v-14.43h-17.88v14.43H791.37z"/>
</g>
<g>
	<path class="st4" d="M344.19,326.92v37.5c26.87-1.55,50.35-16.05,64.36-37.5H344.19z"/>
	<path class="st4" d="M334.73,326.92h-64.36c14.01,21.46,37.48,35.95,64.36,37.5L334.73,326.92L334.73,326.92z"/>
	<path class="st0" d="M257.74,349.89c19.53,23.67,48.89,38.73,81.73,38.73c58.8,0,106.45-48.24,106.45-107.77h6.51
		c0-80.89-36.48-146.71-112.97-146.71c-66.39,0-102.62,49.59-111.04,115.56L257.74,349.89z M235.16,268.27h208.6
		c0,8.6-46.7,15.57-104.3,15.57C281.86,283.83,235.16,276.86,235.16,268.27z M339.47,374.26c-50.87,0-92.27-41.9-92.27-93.4h9.46
		c0,13.1,3.07,25.45,8.38,36.5h148.85c5.31-11.05,8.38-23.41,8.38-36.5h9.46C431.73,332.36,390.34,374.26,339.47,374.26z"/>
	<path d="M281.22,460.6l-80.54,24.14L97,171.61c0,0,1.06-22.99,34.61-33.03c33.56-10.06,45.93,8.89,45.93,8.89L281.22,460.6z"/>
	<path d="M216.06,496.32l58.52-17.55l-6.61,19.64l10.46,35.78H239.5l-7.33-25.05L216.06,496.32z"/>
	<path class="st5" d="M279.87,498.65l5.28-15.66l42.92-52.34l-22.08-24.77l67.02-0.01l-22.08,24.77l46.13,56.28l10.25-81.05h23.6
		c0.66,0,1.3,0.05,1.94,0.09c0.16,0.01,0.32,0.02,0.47,0.03c13.36,0.34,39.22,4.73,65.69,29.91c23.23,22.1,41.24,54.93,54,98.3
		h-79.98c-1.82-4.68-3.67-8.98-5.55-12.92v12.92H290.26L279.87,498.65z"/>
	<path class="st5" d="M211.53,534.19V521.3c-1.89,3.92-3.76,8.21-5.6,12.89h-79.89c11.99-40.69,28.63-72.13,49.77-94.03l17.24,58.92
		l5.9-1.77l23.36,18.6l5.35,18.28L211.53,534.19L211.53,534.19z"/>
</g>
</svg>
