<svg width="10" height="10" viewBox="0 0 10 10" fill="none" xmlns="http://www.w3.org/2000/svg">
<path d="M6.99997 5.2L7.05476 5.01736C7.40956 3.83472 7.39042 2.57136 6.99997 1.4M5.15804 7.48715L5.06636 8.43467C5.02948 8.81552 4.67416 9.07386 4.31488 8.98103C3.77428 8.84135 3.395 8.33935 3.395 7.76343V6.5495C3.395 6.2795 3.395 6.1445 3.3364 6.04524C3.30324 5.98908 3.25756 5.94191 3.20324 5.90763C3.1072 5.84704 2.97656 5.84704 2.71532 5.84704H2.5568C1.87568 5.84704 1.53512 5.84704 1.32544 5.69084C1.16856 5.57404 1.05792 5.40252 1.01392 5.20796C0.955042 4.94784 1.08604 4.62296 1.348 3.97316L1.4786 3.64924C1.55404 3.46212 1.58492 3.25908 1.56864 3.05708C1.47596 1.90776 2.38772 0.939037 3.50196 1.003L7.67173 1.2424C8.12709 1.26856 8.35477 1.28164 8.56058 1.46368C8.76638 1.64576 8.8051 1.83324 8.88254 2.20812C8.94855 2.52772 9 2.91952 9 3.36448C9 3.858 8.93672 4.28612 8.86047 4.6228C8.74737 5.1222 8.27032 5.39072 7.77786 5.32712C6.47245 5.15848 5.28892 6.13428 5.15804 7.48715Z" stroke="white" stroke-linecap="round" stroke-linejoin="round"/>
</svg>
