<?xml version="1.0" encoding="utf-8"?>
<!-- Generator: Adobe Illustrator 24.0.1, SVG Export Plug-In . SVG Version: 6.00 Build 0)  -->
<svg version="1.1" id="Layer_1" xmlns="http://www.w3.org/2000/svg" xmlns:xlink="http://www.w3.org/1999/xlink" x="0px" y="0px"
	 viewBox="0 0 1080 1080" style="enable-background:new 0 0 1080 1080;" xml:space="preserve">
<style type="text/css">
	.st0{fill:#030303;}
	.st1{fill:#181818;}
	.st2{fill:#FFBD11;}
	.st3{fill:#800000;}
	.st4{fill:#EEDC92;}
	.st5{fill:#040404;}
	.st6{enable-background:new    ;}
</style>
<g>
	<path class="st0" d="M501.11,1002.83c-8.75-4.31-18.47-3.43-27.7-4.92c-167.52-27.1-299.34-154.46-331.01-320.15
		c-39.51-206.74,88.25-408.98,292.36-462.67c15.97-4.2,32.17-7.49,48.58-9.37c5.24-0.6,6.43-2.66,6.18-7.37
		c-0.46-8.68,2.76-20.02-1.58-25.34c-4.58-5.61-16.37-1.55-24.99-1.69c-23.08-0.36-35.06-12.04-35.21-34.95
		c-0.05-8.12-0.14-16.24,0.02-24.35c0.4-20.6,12.9-33.01,33.44-33.03c49.62-0.06,99.24-0.07,148.86,0
		c20.47,0.03,33.17,12.67,33.42,33.08c0.11,8.72,0.1,17.44,0,26.16c-0.24,20.07-12.68,32.68-32.55,32.99
		c-7.82,0.12-15.65,0.26-23.45-0.06c-4.42-0.18-5.76,1.38-5.6,5.66c0.28,7.51,0.24,15.03,0.01,22.54c-0.12,3.93,0.76,5.63,5.24,6.22
		c71.16,9.4,135.27,35.99,192.19,79.71c3.71,2.85,5.83,2.83,8.65-0.63c2.08-2.55,4.51-4.85,6.98-7.04
		c7.65-6.77,14.16-12.22,6.18-24.58c-6.61-10.24-2.16-22.25,6.34-31.33c7.19-7.67,14.61-15.17,22.31-22.33
		c12.83-11.95,30.41-12.18,43.02,0.08c22.2,21.59,44.11,43.49,65.71,65.69c12.16,12.5,11.86,30.28-0.03,43.05
		c-6.76,7.26-13.85,14.21-21.01,21.08c-12.08,11.59-26.05,13.16-40.17,4.15c-3.5-2.23-5.39-2.38-8.2,0.63
		c-6.14,6.6-16.1,12.05-17.92,19.56c-1.72,7.11,8.43,13.96,13.3,20.93c161.09,230.53,35.87,555.57-238,617.7
		c-18.48,4.19-37.07,7.44-55.98,8.81c-1.27,0.09-2.32,0.33-2.61,1.77c-5.41,0-10.83,0-16.24,0c-10.23-2.96-20.45-2.83-30.68,0
		C514.35,1002.83,507.73,1002.83,501.11,1002.83z M535.34,971.7c204.22,0.28,369.31-165.26,369.77-370.75
		c0.45-201.83-166.78-368.38-369.7-368.2c-202.76,0.17-369.3,166.03-369.22,367.7C166.26,805.87,330.88,971.42,535.34,971.7z
		 M535.38,109.71c-18.03,0-36.06-0.04-54.1,0.02c-7.2,0.02-16.75-2.51-20.98,1.1c-5,4.27-0.77,14.18-1.79,21.54
		c-0.98,7.11,2.04,8.28,8.51,8.24c40.87-0.3,81.74-0.08,122.62-0.22c7.42-0.03,17.29,3.31,21.64-1.35
		c4.67-5.01,0.69-14.89,1.52-22.57c0.63-5.83-1.76-6.94-7.1-6.88C582.27,109.87,558.82,109.71,535.38,109.71z M917.36,285.45
		c-2.22-1.49-4.21-2.42-5.68-3.87c-14.48-14.35-28.85-28.82-43.31-43.2c-5.51-5.47-10.97-14.86-16.79-15.13
		c-6.79-0.31-11.33,10.27-17.63,15.2c-5.01,3.92-2.98,6.32,0.52,9.74c14.57,14.26,28.9,28.77,43.32,43.19
		c18.47,18.46,18.48,18.46,35.61-1.51C914.32,288.8,915.27,287.78,917.36,285.45z M535.34,202.03c15.84-0.03,15.84-0.03,15.84-15.84
		c0-14.99,0-14.99-15.15-14.99c-15.73,0-15.73,0-15.73,16.15C520.3,202.05,520.3,202.05,535.34,202.03z M829.32,287.63
		c-0.58,0.29-1.21,0.42-1.59,0.81c-6.51,6.63-14.6,12.45-18.7,20.34c-1.72,3.31,7.91,8.36,11.79,13.17c0.75,0.93,1.84,1.61,2.49,2.6
		c4.14,6.27,7.9,5.19,12.1-0.12c4.56-5.76,14.61-10.07,13.93-16.15c-0.66-5.91-9.29-10.98-14.55-16.29
		C833.16,290.34,831.91,288.07,829.32,287.63z"/>
	<path class="st1" d="M520.97,1002.83c10.23-2.83,20.45-2.96,30.68,0C541.42,1002.83,531.19,1002.83,520.97,1002.83z"/>
	<path class="st2" d="M535.34,971.7c-204.46-0.28-369.08-165.83-369.16-371.26c-0.08-201.67,166.46-367.52,369.22-367.7
		c202.92-0.17,370.15,166.38,369.7,368.2C904.65,806.44,739.55,971.97,535.34,971.7z M535.68,263.51
		c-185.94-0.35-337.92,151.38-338.71,338.18c-0.79,186.17,151.73,338.98,338.54,339.19c186.16,0.2,338.3-151.61,338.86-338.14
		C874.93,416.44,722.6,263.86,535.68,263.51z"/>
	<path class="st3" d="M535.38,109.71c23.44,0,46.88,0.15,70.32-0.12c5.34-0.06,7.73,1.05,7.1,6.88c-0.83,7.68,3.15,17.56-1.52,22.57
		c-4.35,4.66-14.22,1.32-21.64,1.35c-40.87,0.14-81.75-0.08-122.62,0.22c-6.47,0.05-9.49-1.12-8.51-8.24
		c1.02-7.36-3.21-17.26,1.79-21.54c4.23-3.61,13.78-1.08,20.98-1.1C499.32,109.68,517.35,109.71,535.38,109.71z"/>
	<path class="st3" d="M917.36,285.45c-2.09,2.33-3.05,3.36-3.96,4.42c-17.14,19.96-17.14,19.97-35.61,1.51
		c-14.42-14.41-28.75-28.92-43.32-43.19c-3.5-3.43-5.54-5.82-0.52-9.74c6.3-4.93,10.84-15.51,17.63-15.2
		c5.82,0.27,11.29,9.66,16.79,15.13c14.46,14.38,28.83,28.84,43.31,43.2C913.15,283.03,915.14,283.96,917.36,285.45z"/>
	<path class="st4" d="M535.34,202.03c-15.04,0.03-15.04,0.03-15.04-14.67c0-16.15,0-16.15,15.73-16.15c15.15,0,15.15,0,15.15,14.99
		C551.17,202,551.17,202,535.34,202.03z"/>
	<path class="st4" d="M829.32,287.63c2.59,0.45,3.83,2.71,5.46,4.36c5.26,5.31,13.89,10.38,14.55,16.29
		c0.68,6.08-9.36,10.39-13.93,16.15c-4.2,5.31-7.97,6.39-12.1,0.12c-0.65-0.98-1.73-1.67-2.49-2.6
		c-3.88-4.81-13.51-9.86-11.79-13.17c4.1-7.89,12.19-13.71,18.7-20.34C828.11,288.05,828.75,287.91,829.32,287.63z"/>
	<path class="st5" d="M535.68,263.51c186.92,0.36,339.25,152.93,338.69,339.23c-0.56,186.53-152.7,338.34-338.86,338.14
		c-186.81-0.2-339.34-153.02-338.54-339.19C197.77,414.89,349.74,263.16,535.68,263.51z M763.26,808.55
		c17.51-19.29,31.78-39.64,43.58-61.73c20.21-37.84,31.69-78.2,35.43-120.9c0.61-6.93-1.31-8.72-8.09-8.35
		c-11.1,0.6-22.25,0.29-33.38,0.13c-12.22-0.18-18.92-6.01-18.68-15.89c0.22-9.51,6.71-14.86,18.61-15
		c11.73-0.14,23.47-0.26,35.19,0.08c5.01,0.14,7.1-1.09,6.36-6.42c-1.45-10.41-2.03-20.95-3.88-31.28
		c-9.99-55.92-33.63-105.39-70.66-148.54c-3.54-4.13-5.33-3.7-8.75-0.08c-8.47,8.96-17.28,17.6-26.12,26.19
		c-7.75,7.53-16.58,8-23.14,1.56c-6.62-6.5-6.28-15.37,1.21-23.08c8.17-8.41,16.23-16.99,24.98-24.77c5.55-4.93,4.7-7.52-0.57-11.97
		c-53.7-45.32-115.43-70.48-185.68-73.48c-83.78-3.58-156.81,23.56-220.61,79.43c10.58,10.39,20.96,20.37,31.07,30.61
		c7.46,7.56,7.86,16.73,1.47,23.16c-6.44,6.48-15.46,6.08-23.12-1.36c-8.41-8.17-17.02-16.2-24.77-24.98
		c-5.09-5.76-7.74-4.46-11.94,0.79c-8.46,10.56-16.82,21.16-24.18,32.53c-28.29,43.7-44.08,91.62-48.76,143.39
		c-0.63,6.96,1.2,8.72,8,8.36c11.1-0.59,22.25-0.25,33.38-0.13c12.13,0.13,19.25,6.01,19.14,15.57
		c-0.11,9.48-7.22,15.19-19.43,15.32c-11.13,0.13-22.27,0.36-33.38-0.11c-6.11-0.26-8.31,0.99-7.72,7.75
		c5.95,67.28,30.5,126.66,74.35,178.13c3.88,4.55,5.85,3.94,9.5,0.09c8.68-9.17,17.63-18.1,26.76-26.82
		c6.91-6.6,15.6-6.71,21.82-0.87c6.4,6,6.51,15.35-0.08,22.54c-4.67,5.1-9.79,9.78-14.61,14.73c-5.44,5.58-15.15,11.34-15.04,16.86
		c0.13,6.56,10.55,10.94,16.87,15.79c48.17,37.01,102.72,57.54,163.13,63.06c6.85,0.63,9.43-0.77,8.99-8.26
		c-0.69-11.69-0.34-23.45-0.12-35.17c0.2-10.23,6.1-16.66,14.89-16.86c9.13-0.21,15.48,6.42,15.85,17.02
		c0.27,7.81,0.06,15.63,0.06,23.45c0,20.21,0.04,20.58,20.56,18.22c62.66-7.21,117.59-32.09,165.51-72.94
		c4.22-3.6,3.67-5.49,0.08-8.88c-8.52-8.06-16.71-16.46-24.95-24.8c-8.39-8.5-9.26-16.75-2.67-23.73c6.78-7.17,15.8-6.56,24.4,1.99
		C743.86,788.62,753.44,798.54,763.26,808.55z"/>
</g>
<g class="st6">
	<path class="st3" d="M324.77,536.75h15.12v31.71c0,5.66,2.56,9.23,8.3,9.23s8.45-3.57,8.45-9.23v-31.71h15.2v31.71
		c0,15.58-10.85,23.49-23.96,23.49c-13.18,0-23.1-7.91-23.1-23.49V536.75z"/>
	<path class="st3" d="M402.92,572.96h-7.52v18.45h-15.2v-54.66h22.72c13.57,0,20.47,7.67,20.47,18.22
		C423.39,564.5,416.8,572.96,402.92,572.96z M401.45,560.86c4.57,0,6.44-2.33,6.44-5.89c0-3.64-1.86-5.97-6.44-5.97h-6.05v11.86
		H401.45z"/>
	<path class="st3" d="M454.87,536.21c13.72,0,23.49,7.91,26.21,20.31h-16.36c-1.94-4.11-5.58-6.36-10.08-6.36
		c-6.98,0-11.55,5.43-11.55,13.8c0,8.45,4.57,13.88,11.55,13.88c4.5,0,8.14-2.25,10.08-6.36h16.36
		c-2.71,12.4-12.48,20.31-26.21,20.31c-16.44,0-27.21-11.47-27.21-27.83C427.65,547.68,438.43,536.21,454.87,536.21z"/>
	<path class="st3" d="M514.49,591.95c-15.51,0-28.07-11.63-28.07-28.07c0-16.44,12.56-27.99,28.07-27.99
		c15.58,0,27.99,11.55,27.99,27.99C542.48,580.32,530,591.95,514.49,591.95z M514.49,577.84c7.83,0,12.56-5.5,12.56-13.96
		c0-8.61-4.73-14.03-12.56-14.03c-7.91,0-12.56,5.43-12.56,14.03C501.93,572.34,506.58,577.84,514.49,577.84z"/>
	<path class="st3" d="M549.3,536.75h18.38l13.72,35.51l13.41-35.51h18.3v54.66h-15.2v-30.16l-10.31,30.16h-12.71l-10.39-30.39v30.39
		h-15.2V536.75z"/>
	<path class="st3" d="M621.8,536.75h15.2v54.66h-15.2V536.75z"/>
	<path class="st3" d="M696.3,536.75v54.66h-15.2l-20.24-30.55v30.55h-15.2v-54.66h15.2l20.24,30.93v-30.93H696.3z"/>
	<path class="st3" d="M756.24,554.74h-16.36c-1.71-2.87-4.81-4.5-8.99-4.5c-7.68,0-12.33,5.35-12.33,13.72
		c0,9.38,4.81,14.42,13.8,14.42c5.27,0,9.15-2.48,11.4-7.21h-15.27v-10.93h28.38v14.73c-3.26,7.99-11.71,16.82-25.97,16.82
		c-16.75,0-27.76-11.47-27.76-27.83c0-16.28,10.93-27.76,27.68-27.76C744.61,536.21,754.07,543.34,756.24,554.74z"/>
</g>
<g class="st6">
	<path class="st3" d="M352.47,690.43c-16.25,0-28.88-7.76-29.7-23.39h21.63c0.41,5.49,3.62,7.35,7.35,7.35
		c3.62,0,6.42-1.86,6.42-5.28c-0.1-11.7-35.5-6.21-35.19-31.57c0-14.28,11.9-21.94,27.32-21.94c16.77,0,27.74,8.18,28.46,22.67
		h-22.05c-0.21-4.55-3-6.62-6.73-6.62c-3-0.1-5.38,1.66-5.38,5.17c0,10.87,35.09,7.35,35.09,30.74
		C379.69,680.39,369.76,690.43,352.47,690.43z"/>
	<path class="st3" d="M435.79,632.99h-26.39v11.9h23.29v15.42h-23.29v13.14h26.39v16.25h-46.68v-72.97h46.68V632.99z"/>
	<path class="st3" d="M473.35,690.43c-16.25,0-28.88-7.76-29.7-23.39h21.63c0.41,5.49,3.62,7.35,7.35,7.35
		c3.62,0,6.42-1.86,6.42-5.28c-0.1-11.7-35.5-6.21-35.19-31.57c0-14.28,11.9-21.94,27.32-21.94c16.77,0,27.74,8.18,28.46,22.67
		H477.6c-0.21-4.55-3-6.62-6.73-6.62c-3-0.1-5.38,1.66-5.38,5.17c0,10.87,35.09,7.35,35.09,30.74
		C500.57,680.39,490.64,690.43,473.35,690.43z"/>
	<path class="st3" d="M537.52,690.43c-16.25,0-28.88-7.76-29.7-23.39h21.63c0.41,5.49,3.62,7.35,7.35,7.35
		c3.62,0,6.42-1.86,6.42-5.28c-0.1-11.7-35.5-6.21-35.19-31.57c0-14.28,11.9-21.94,27.32-21.94c16.77,0,27.74,8.18,28.46,22.67
		h-22.04c-0.21-4.55-3-6.62-6.73-6.62c-3-0.1-5.38,1.66-5.38,5.17c0,10.87,35.09,7.35,35.09,30.74
		C564.74,680.39,554.8,690.43,537.52,690.43z"/>
	<path class="st3" d="M574.15,616.74h20.29v72.97h-20.29V616.74z"/>
	<path class="st3" d="M641.01,690.43c-20.7,0-37.47-15.53-37.47-37.47c0-21.94,16.77-37.36,37.47-37.36
		c20.8,0,37.36,15.42,37.36,37.36C678.38,674.91,661.71,690.43,641.01,690.43z M641.01,671.6c10.45,0,16.77-7.35,16.77-18.63
		c0-11.49-6.31-18.73-16.77-18.73c-10.56,0-16.77,7.25-16.77,18.73C624.25,664.25,630.46,671.6,641.01,671.6z"/>
	<path class="st3" d="M755.06,616.74v72.97h-20.29l-27.01-40.78v40.78h-20.29v-72.97h20.29l27.01,41.3v-41.3H755.06z"/>
</g>
<path class="st5" d="M196.95,602.58c-0.79-186.17,151.73-338.98,338.54-339.19c186.16-0.2,338.3,151.61,338.86,338.14
	c0.56,186.3-151.77,338.88-338.69,339.23C349.72,941.11,197.75,789.38,196.95,602.58z M734.07,425.37
	c-8.6,8.55-17.62,9.17-24.4,1.99c-6.59-6.98-5.72-15.23,2.67-23.73c8.24-8.35,16.43-16.75,24.95-24.8c3.59-3.39,4.14-5.29-0.08-8.88
	c-47.92-40.84-102.85-65.72-165.51-72.94c-20.51-2.36-20.55-1.98-20.56,18.22c0,7.82,0.21,15.64-0.06,23.45
	c-0.37,10.6-6.72,17.23-15.85,17.02c-8.79-0.2-14.69-6.63-14.89-16.86c-0.23-11.72-0.57-23.48,0.12-35.17
	c0.44-7.48-2.14-8.88-8.99-8.26c-60.41,5.52-114.96,26.05-163.13,63.06c-6.32,4.85-16.74,9.23-16.87,15.79
	c-0.11,5.52,9.6,11.28,15.04,16.86c4.83,4.95,9.95,9.63,14.61,14.73c6.59,7.19,6.47,16.54,0.08,22.54
	c-6.22,5.84-14.91,5.73-21.82-0.87c-9.13-8.72-18.08-17.65-26.76-26.82c-3.64-3.85-5.62-4.46-9.5,0.09
	c-43.85,51.47-68.4,110.85-74.35,178.13c-0.6,6.76,1.61,8.01,7.72,7.75c11.11-0.47,22.25-0.23,33.38-0.11
	c12.21,0.14,19.33,5.85,19.43,15.32c0.11,9.56-7.01,15.44-19.14,15.57c-11.13,0.12-22.28,0.46-33.38-0.13
	c-6.79-0.36-8.63,1.4-8,8.36c4.69,51.77,20.48,99.68,48.76,143.39c7.36,11.37,15.72,21.97,24.18,32.53
	c4.2,5.25,6.86,6.55,11.94,0.79c7.75-8.78,16.35-16.81,24.77-24.98c7.66-7.44,16.68-7.84,23.12-1.36c6.39,6.43,5.99,15.6-1.47,23.16
	c-10.11,10.24-20.49,20.22-31.07,30.61c63.8,55.88,136.83,83.02,220.61,79.43c70.24-3.01,131.98-28.17,185.68-73.48
	c5.28-4.45,6.12-7.04,0.57-11.97c-8.75-7.78-16.81-16.35-24.98-24.77c-7.49-7.71-7.83-16.58-1.21-23.08
	c6.56-6.45,15.39-5.97,23.14,1.56c8.84,8.59,17.65,17.23,26.12,26.19c3.41,3.61,5.21,4.04,8.75-0.08
	c37.02-43.14,60.67-92.61,70.66-148.54c1.84-10.33,2.43-20.87,3.88-31.28c0.74-5.33-1.35-6.56-6.36-6.42
	c-11.72,0.34-23.46,0.21-35.19,0.08c-11.9-0.14-18.39-5.48-18.61-15c-0.23-9.87,6.47-15.7,18.68-15.89
	c11.13-0.17,22.28-0.47,33.38,0.13c6.78,0.36,8.7-1.43,8.09-8.35c-3.74-42.7-15.22-83.06-35.43-120.9
	c-11.8-22.09-26.06-42.44-43.58-61.73C753.41,405.72,743.84,415.65,734.07,425.37z"/>
</svg>
