<svg width="40" height="40" viewBox="0 0 40 40" fill="none" xmlns="http://www.w3.org/2000/svg">
<g id="mdi:video">
<path id="Vector" d="M28.3333 17.4995V11.6661C28.3333 11.2241 28.1577 10.8002 27.8452 10.4876C27.5326 10.175 27.1087 9.99945 26.6667 9.99945H6.66667C6.22464 9.99945 5.80072 10.175 5.48816 10.4876C5.17559 10.8002 5 11.2241 5 11.6661V28.3328C5 28.7748 5.17559 29.1987 5.48816 29.5113C5.80072 29.8239 6.22464 29.9995 6.66667 29.9995H26.6667C27.1087 29.9995 27.5326 29.8239 27.8452 29.5113C28.1577 29.1987 28.3333 28.7748 28.3333 28.3328V22.4995L35 29.1661V10.8328L28.3333 17.4995Z" fill="#800000"/>
</g>
</svg>
