<svg width="35" height="35" viewBox="0 0 35 35" fill="none" xmlns="http://www.w3.org/2000/svg">
<path d="M18.8209 14.3991C18.7633 15.5641 18.551 16.6595 18.0432 17.6839C17.3121 19.1591 16.1068 20.0957 14.6132 20.7066C13.5398 21.1453 12.4059 21.3741 11.2927 21.6759C11.1446 21.716 10.9994 21.7659 10.8507 21.8035C10.5188 21.8868 10.2126 21.7196 10.1209 21.4104C10.0291 21.1006 10.1928 20.7957 10.5344 20.7001C11.4204 20.4518 12.3116 20.223 13.1979 19.9764C13.7349 19.827 14.2547 19.6277 14.7532 19.3753C16.3356 18.5745 17.2181 17.2655 17.5363 15.546C17.6203 15.092 17.6731 14.6337 17.6818 14.1722C17.6948 13.4907 17.2145 12.9511 16.5132 12.8478C15.8767 12.7541 15.2866 13.1553 15.1097 13.807C14.9975 14.2196 14.9447 14.647 14.8028 15.0528C14.1954 16.7859 12.9341 17.7082 11.1576 17.9827C10.8468 18.0307 10.5302 18.0504 10.2152 18.0628C9.84636 18.077 9.59002 17.8427 9.58127 17.5089C9.57285 17.191 9.80974 16.9428 10.1691 16.9301C10.6478 16.9133 11.1209 16.8692 11.5837 16.7405C12.8538 16.3879 13.5534 15.5146 13.8403 14.2659C13.9268 13.8887 13.9799 13.504 14.1319 13.143C14.524 12.2113 15.6048 11.5949 16.6137 11.7346C17.7771 11.8956 18.6728 12.7324 18.8054 13.7788C18.8329 13.9963 18.8495 14.2131 18.8209 14.3991Z" fill="#800000"/>
<path d="M22.6074 14.4967C22.5954 15.0638 22.5549 15.653 22.503 16.2418C22.4745 16.5688 22.5147 16.876 22.8718 17.0348C22.9334 17.0624 22.9836 17.1285 23.0248 17.1868C23.1693 17.392 23.1476 17.4309 22.9046 17.4983C22.6408 17.5715 22.3753 17.6464 22.1213 17.7468C21.9793 17.8029 21.9002 17.7676 21.8121 17.6652C21.4602 17.2552 21.3286 16.7769 21.3652 16.2467C21.409 15.6089 21.4666 14.9724 21.4815 14.3327C21.5308 12.1941 20.2316 10.2384 18.2239 9.44307C16.2584 8.66432 13.9368 9.22497 12.5258 10.8065C11.9139 11.4922 11.5091 12.2755 11.3183 13.1735C11.2781 13.3621 11.2256 13.5517 11.1494 13.728C11.0314 14.0002 10.7343 14.1172 10.4604 14.0239C10.1915 13.9321 10.0103 13.6625 10.0719 13.4007C10.3515 12.211 10.7356 11.0651 11.5843 10.1415C13.3142 8.25923 15.4424 7.51516 17.9235 8.16752C20.4166 8.82312 21.9307 10.506 22.5024 13.0254C22.5562 13.2623 22.5853 13.5031 22.5999 13.7458C22.6145 13.9879 22.6382 14.23 22.6074 14.4967Z" fill="#800000"/>
<path d="M20.7324 14.8561C20.7184 15.4549 20.6264 16.0493 20.6351 16.6498C20.6429 17.1806 20.7388 17.6797 21.1083 18.0887C21.1861 18.1749 21.1378 18.2011 21.0688 18.2465C20.8257 18.406 20.5784 18.5612 20.349 18.7388C20.2333 18.8285 20.1905 18.7793 20.1254 18.6947C19.717 18.1645 19.5229 17.5572 19.4818 16.8971C19.4448 16.305 19.5083 15.7165 19.5553 15.1273C19.6344 14.1415 19.5813 13.1803 18.9639 12.3451C18.19 11.2984 17.1455 10.8255 15.8573 11.0064C14.5503 11.1901 13.7382 12.0016 13.3091 13.2166C13.1753 13.5961 13.1095 13.9992 12.9805 14.3806C12.5667 15.606 11.6272 16.2065 10.3487 16.082C9.9731 16.0454 9.73296 15.7829 9.76537 15.4442C9.79486 15.1328 10.0719 14.9196 10.4229 14.9377C11.3585 14.9867 11.7698 14.6872 12.0008 13.7717C12.1194 13.3018 12.2316 12.8316 12.4357 12.3882C13.2518 10.6149 14.995 9.63587 16.9144 9.87698C18.7681 10.1097 20.3192 11.5965 20.6546 13.4525C20.7382 13.9185 20.7434 14.3861 20.7324 14.8561Z" fill="#800000"/>
<path d="M16.9141 14.3793C16.8152 16.0075 16.2387 17.3961 14.8928 18.3952C13.9793 19.0735 12.9267 19.4277 11.8355 19.6844C11.3954 19.7881 10.9508 19.8727 10.5075 19.9615C10.1626 20.0308 9.87713 19.8565 9.80065 19.5369C9.72352 19.2145 9.8956 18.9348 10.2459 18.8499C10.8659 18.6999 11.4926 18.5777 12.1094 18.416C12.855 18.2206 13.5651 17.9347 14.1906 17.469C15.1226 16.7752 15.5931 15.824 15.7383 14.692C15.7591 14.5316 15.772 14.3699 15.784 14.2088C15.8116 13.84 16.052 13.598 16.3816 13.6119C16.7209 13.6262 16.9406 13.8987 16.9222 14.2824C16.9199 14.3148 16.9167 14.3469 16.9141 14.3793Z" fill="#800000"/>
<path d="M24.6644 5.87595C25.0128 5.88989 25.4374 5.83317 25.8532 5.90706C26.9881 6.10864 27.7467 7.01313 27.7697 8.19243C27.7827 8.85581 27.7739 9.51984 27.7713 10.1835C27.7704 10.4503 27.7039 10.5173 27.444 10.5219C27.2013 10.5264 26.9582 10.5261 26.7155 10.5219C26.4494 10.5173 26.385 10.4528 26.384 10.1894C26.382 9.54188 26.3846 8.89438 26.383 8.24688C26.3814 7.63016 26.0019 7.25164 25.3839 7.2497C24.7607 7.24776 24.1375 7.24452 23.5143 7.25164C23.2855 7.25424 23.1876 7.1554 23.1902 6.9334C23.1935 6.68257 23.1925 6.43141 23.1906 6.18058C23.1889 5.97026 23.2823 5.86947 23.5001 5.87368C23.8643 5.88081 24.2286 5.87595 24.6644 5.87595Z" fill="#FEC210"/>
<path d="M4.94841 9.00304C4.97272 8.6297 4.90466 8.17535 4.99184 7.72554C5.19568 6.67489 6.08559 5.90683 7.15666 5.88156C7.85179 5.86503 8.54791 5.87832 9.24337 5.87475C9.45693 5.87346 9.55642 5.98137 9.56031 6.18424C9.56485 6.43508 9.56064 6.68591 9.56161 6.93642C9.56226 7.14771 9.46017 7.24364 9.24758 7.24267C8.60851 7.2391 7.96943 7.23975 7.33036 7.2417C6.69906 7.24396 6.32476 7.62086 6.32281 8.2554C6.32087 8.88637 6.32314 9.51734 6.32216 10.1483C6.32152 10.4623 6.28036 10.5045 5.97541 10.5064C5.74078 10.508 5.50615 10.5087 5.27152 10.5061C5.00189 10.5032 4.95036 10.4497 4.94874 10.1726C4.94712 9.80934 4.94841 9.4454 4.94841 9.00304Z" fill="#FEC210"/>
<path d="M8.02225 28.6921C7.64017 28.6701 7.17707 28.7381 6.72142 28.6351C5.71809 28.4079 4.9873 27.563 4.94744 26.5389C4.92054 25.8445 4.93804 25.148 4.93447 24.4526C4.9335 24.275 5.01841 24.1768 5.196 24.1742C5.47892 24.17 5.76216 24.1696 6.04508 24.1742C6.25183 24.1774 6.31697 24.3015 6.31568 24.4947C6.31082 25.1095 6.31244 25.7239 6.31438 26.3387C6.316 26.9599 6.68707 27.3368 7.30767 27.3414C7.93021 27.3459 8.55308 27.341 9.17595 27.343C9.48707 27.3439 9.52693 27.3851 9.5279 27.6917C9.52887 27.9182 9.52077 28.1451 9.53017 28.3709C9.53957 28.5978 9.44364 28.6973 9.21614 28.6934C8.84378 28.6872 8.47142 28.6921 8.02225 28.6921Z" fill="#FEC210"/>
<path d="M17.292 20.9348C17.6139 20.9224 17.9152 21.0093 18.2144 21.1156C18.3278 21.1561 18.3722 21.1953 18.3067 21.3188C18.1745 21.569 18.0802 21.836 17.9976 22.106C17.9671 22.2051 17.9327 22.2356 17.8287 22.188C17.4421 22.011 17.0555 22.0852 16.6688 22.1983C15.3369 22.5882 14.0218 23.0377 12.6685 23.3533C12.2517 23.4505 11.8346 23.5471 11.415 23.6311C11.065 23.7011 10.7927 23.5228 10.7205 23.1965C10.6521 22.8883 10.8271 22.5872 11.1586 22.5227C12.9537 22.1721 14.6845 21.5923 16.4326 21.0722C16.6024 21.0216 16.7781 20.9892 16.9531 20.9594C17.0645 20.9406 17.1789 20.9422 17.292 20.9348Z" fill="#800000"/>
<path d="M17.6785 24.2192C17.2358 24.0001 16.8282 24.1229 16.4208 24.2279C15.2885 24.5193 14.1782 24.8907 13.0371 25.1496C12.8404 25.1943 12.6434 25.2413 12.4441 25.2682C12.1245 25.3116 11.8565 25.1211 11.7937 24.8229C11.7292 24.5164 11.8889 24.2195 12.2039 24.156C13.661 23.862 15.0616 23.3578 16.5044 23.0123C16.8774 22.9229 17.2533 22.896 17.6325 22.9874C17.7369 23.0127 17.7842 23.0418 17.7608 23.164C17.6976 23.4975 17.6753 23.8364 17.6785 24.2192Z" fill="#800000"/>
<path d="M17.9756 26.2938C17.9049 26.3119 17.8492 26.2682 17.7935 26.2419C17.1968 25.959 16.5992 26.0647 15.9945 26.215C15.3606 26.3725 14.7232 26.518 14.0773 26.6221C13.5604 26.7054 13.1906 26.3236 13.3553 25.8767C13.4249 25.6878 13.5559 25.5504 13.7506 25.5215C14.7261 25.377 15.6653 25.062 16.6388 24.9097C16.9732 24.8572 17.2986 24.9168 17.6233 24.9865C17.6716 24.9968 17.7235 25.0079 17.7345 25.0642C17.8148 25.4761 17.8929 25.8884 17.9717 26.3003L17.9756 26.2938Z" fill="#800000"/>
<path d="M18.7008 18.9473C18.9053 18.945 19.4031 19.2837 19.4776 19.4703C19.5081 19.5465 19.4449 19.5708 19.4141 19.611C19.241 19.8346 19.0621 20.0537 18.891 20.2786C18.8356 20.3515 18.8009 20.404 18.7089 20.3142C18.553 20.1616 18.3829 20.0222 18.2552 19.8437C18.1213 19.6567 18.1087 19.4522 18.2127 19.2487C18.3129 19.0529 18.4798 18.9531 18.7008 18.9473Z" fill="#800000"/>
<path d="M17.9714 26.3004C17.9828 26.2991 17.9944 26.2978 18.0058 26.2962C18.0055 26.3037 18.0048 26.3108 18.0045 26.3183C17.9948 26.3101 17.9847 26.302 17.975 26.2939C17.9753 26.2939 17.9714 26.3004 17.9714 26.3004Z" fill="#800000"/>
<path fill-rule="evenodd" clip-rule="evenodd" d="M26.3092 26.5808C25.6069 27.1677 24.7069 27.5278 23.7208 27.5446C21.4276 27.5848 19.5334 25.7554 19.4936 23.4622C19.4534 21.1691 21.2825 19.2749 23.5756 19.235C25.8688 19.1948 27.763 21.0239 27.8032 23.3171C27.8203 24.3029 27.492 25.2152 26.9301 25.9375L29.6782 28.5914C29.8558 28.7628 29.8607 29.0457 29.6893 29.2233C29.5178 29.4009 29.2349 29.4058 29.0573 29.2343L26.3092 26.5808ZM23.584 19.7241C25.6076 19.6887 27.2788 21.3026 27.3141 23.3261C27.3494 25.3497 25.7356 27.0209 23.712 27.0562C21.6888 27.0916 20.0176 25.4777 19.9819 23.4541C19.9469 21.431 21.5608 19.7594 23.584 19.7241Z" fill="black" stroke="black" stroke-width="0.637963" stroke-miterlimit="10"/>
</svg>
