<svg xmlns="http://www.w3.org/2000/svg" viewBox="0 0 1080 1080"><defs><style>.cls-1{fill:#020202;}.cls-2{fill:#eedc92;}.cls-3{fill:maroon;}.cls-4{fill:#ffbd11;}.cls-5{fill:#040404;}.cls-6{fill:#070707;}</style></defs><title>Vision</title><g id="Vision"><path class="cls-1" d="M934.87,730.14c-3.69,4.9-3,11-4.33,16.52-18.08,77.76-86.9,131.64-168,131.21-76.1-.41-145-56.81-162-132.09-5.63-24.88-4.38-50-4.19-75,.05-7.33-2.23-8.55-8.86-8.47-31.3.34-62.61.43-93.9-.06-7.39-.12-8.45,2.3-8.47,8.87-.08,22.78,1.3,45.58-2.66,68.3C470,811,408.18,869.07,335.83,876.6c-88.22,9.19-166.24-46.55-185.41-133.09-8.18-37-4.39-73.26,12.73-107C182,599.24,198.5,561,215.85,523.11q47.58-103.92,94.39-208.18c9.55-21.23,25.33-35.65,46.14-45,3.8-1.72,5.87-3.19,6-8,.84-35.29,27.92-61.58,62.59-61.25,33,.32,60.08,28,60.33,62.31q.42,57.72-.08,115.45c0,5.78,1.39,7.12,7.11,7.07q48.87-.46,97.75,0c5.1,0,6.26-1.4,6.24-6.34-.2-39-.32-78,0-117,.25-34.78,27.89-61.73,62.47-61.48,32.18.24,59.37,26.91,60.39,59.78.17,5.41,1.93,7.64,6.8,9.85,20.49,9.32,36,23.77,45.41,44.73q67.36,149.28,135.42,298.23c9,19.51,19.92,38,24.37,59.39,1.21,5.84.76,12,3.76,17.5ZM454.79,709c.23-76.44-61.62-138.81-137.81-139A138.75,138.75,0,0,0,177.74,708.51C177.29,784.2,240,847,316.13,847.13,392.49,847.26,454.55,785.43,454.79,709Zm449.52-.37C904.1,631.51,842.42,570,765.42,570c-76,.09-138.34,62.75-138.16,138.85S689.82,847.15,766,847.13,904.51,784.81,904.31,708.63ZM847.69,560.18a30.58,30.58,0,0,0-.91-4q-33-72.74-65.95-145.48a16.22,16.22,0,0,0-5.33-6.38c-15.37-11.61-32.67-18.18-51.89-18.9a92.43,92.43,0,0,0-96.48,91.48C626.61,520,627,563.1,627,606.19c0,1.11-.58,2.62,1.34,3,25.46-33.77,58.4-56.25,99.88-65.68S809,540.29,847.69,560.18Zm-614.17-1c86.83-37.85,159.92-21.45,221,50.29V482.12a122.39,122.39,0,0,0-1.25-17.61c-9.76-67.72-87.61-101.72-143.71-62.77A29.5,29.5,0,0,0,299,414.39c-16.12,36-32.53,71.82-48.81,107.72C244.69,534.18,239.3,546.28,233.52,559.16Zm362.66-65.89c0-23.6-.13-47.2.1-70.8.05-4.86-1-6.53-6.26-6.49q-49.24.38-98.5,0c-5.19,0-6.28,1.61-6.27,6.48q.25,70.8,0,141.59c0,4.57.94,6.14,5.87,6.1q49.64-.35,99.27,0c4.91,0,5.92-1.51,5.88-6.09C596.06,540.46,596.18,516.86,596.18,493.27ZM758,360.5C752.31,348,747,336.41,741.89,324.79a43.69,43.69,0,0,0-8.11-12A61.24,61.24,0,0,0,630,336.47c-5.92,19.18-1.91,38.84-3.29,59.48C667.73,357.08,705.05,347,758,360.5ZM454.7,396.31c-.87-19.31,2.05-37.06-1.84-54.39-5.52-24.56-20.75-41.1-45.35-47.07-24.89-6.05-46.56,1.35-62.39,21.43-10,12.72-14.09,28.93-21.5,44.09C381,344.14,425.82,365.07,454.7,396.31ZM540,631.61c10.77,0,21.54.18,32.31-.06,7.84-.18,18.63,3.46,22.7-1.49,3.93-4.77.77-15.17,1.29-23,.33-5-1.25-6.35-6.27-6.3-26.67.26-53.35,0-80,.19-8.09.06-19.24-3.57-23.44,1.51-4.06,4.9-.86,15.64-1.3,23.8-.23,4.36,1.13,5.57,5.49,5.5C507.16,631.46,523.57,631.61,540,631.61ZM454.5,285.49c0-9.33.33-17-.07-24.68-.81-15.58-13.24-28.26-28.33-29.37a30.74,30.74,0,0,0-32.44,24.61c-.46,2.29-2.69,5.95,2.46,6.17C417.77,263.15,436.8,270.87,454.5,285.49Zm172.64.08c17.49-14.68,36.15-22.28,57.31-23.21,5.25-.23,4.13-3.13,3.53-6.14a30.71,30.71,0,0,0-60.71,2.91C626.52,267.41,627.14,275.82,627.14,285.57Z"/><path class="cls-2" d="M454.79,709c-.24,76.43-62.3,138.26-138.66,138.13C240,847,177.29,784.2,177.74,708.51A138.75,138.75,0,0,1,317,570.05C393.17,570.19,455,632.56,454.79,709ZM424,699.31c-.34-22-11.73-48.27-34.28-69.6-10.67-10.09-19.58-11-26.67-3.12-5.45,6-5.72,16.12,5.34,25.77,23.72,20.69,30.93,53.3,20.07,82.88a77,77,0,0,1-69.16,50.22c-11.58.49-18.84,6.9-18.34,16.16s7.95,15,19.69,14.67C377.56,814.93,424.12,766.33,424,699.31ZM331.6,616a15.16,15.16,0,0,0-15-15.2c-8.43-.11-15.79,7.19-15.66,15.55a15.78,15.78,0,0,0,15.25,15.2A15.16,15.16,0,0,0,331.6,616Z"/><path class="cls-2" d="M904.31,708.63c.2,76.18-62,138.47-138.28,138.5S627.44,785,627.26,708.89,689.42,570.13,765.42,570C842.42,570,904.1,631.51,904.31,708.63Zm-30.76-8.51c-.38-24.34-12.93-51.83-37.85-73.64-4.21-3.68-8.81-6.1-14.68-4.79-6.4,1.42-10.5,5.45-12,11.6-1.9,7.76,2.48,13,7.9,17.87,24.21,21.86,32.13,53.76,21.1,84-10.73,29.36-37.87,49-69.74,50.36-11,.48-18.11,6.85-17.8,15.88s7.67,15.08,18.64,14.94C826.19,815.59,873.44,767,873.55,700.12Zm-92.42-84a15.17,15.17,0,0,0-14.92-15.29,15.38,15.38,0,1,0-.6,30.75A15.17,15.17,0,0,0,781.13,616.13Z"/><path class="cls-3" d="M847.69,560.18c-38.71-19.89-78.09-26-119.46-16.63s-74.42,31.91-99.88,65.68c-1.92-.42-1.34-1.93-1.34-3,0-43.09-.4-86.18.12-129.26a92.43,92.43,0,0,1,96.48-91.48c19.22.72,36.52,7.29,51.89,18.9a16.22,16.22,0,0,1,5.33,6.38q32.94,72.76,65.95,145.48A30.58,30.58,0,0,1,847.69,560.18Z"/><path class="cls-3" d="M233.52,559.16c5.78-12.88,11.17-25,16.64-37,16.28-35.9,32.69-71.75,48.81-107.72a29.5,29.5,0,0,1,10.62-12.65c56.1-38.95,134-4.95,143.71,62.77a122.39,122.39,0,0,1,1.25,17.61V609.45C393.44,537.71,320.35,521.31,233.52,559.16Z"/><path class="cls-3" d="M596.18,493.27c0,23.59-.12,47.19.1,70.79,0,4.58-1,6.12-5.88,6.09q-49.64-.35-99.27,0c-4.93,0-5.89-1.53-5.87-6.1q.24-70.78,0-141.59c0-4.87,1.08-6.51,6.27-6.48q49.25.38,98.5,0c5.21,0,6.31,1.63,6.26,6.49C596.05,446.07,596.18,469.67,596.18,493.27Z"/><path class="cls-4" d="M758,360.5c-52.9-13.48-90.22-3.42-131.2,35.45,1.38-20.64-2.63-40.3,3.29-59.48a61.24,61.24,0,0,1,103.74-23.71,43.69,43.69,0,0,1,8.11,12C747,336.41,752.31,348,758,360.5Z"/><path class="cls-4" d="M454.7,396.31c-28.88-31.24-73.74-52.17-131.08-35.94,7.41-15.16,11.47-31.37,21.5-44.09,15.83-20.08,37.5-27.48,62.39-21.43,24.6,6,39.83,22.51,45.35,47.07C456.75,359.25,453.83,377,454.7,396.31Z"/><path class="cls-4" d="M540,631.61c-16.42,0-32.83-.15-49.24.1-4.36.07-5.72-1.14-5.49-5.5.44-8.16-2.76-18.9,1.3-23.8,4.2-5.08,15.35-1.45,23.44-1.51,26.67-.18,53.35.07,80-.19,5-.05,6.6,1.25,6.27,6.3-.52,7.88,2.64,18.28-1.29,23-4.07,5-14.86,1.31-22.7,1.49C561.53,631.79,550.76,631.61,540,631.61Z"/><path class="cls-3" d="M454.5,285.49c-17.7-14.62-36.73-22.34-58.38-23.27-5.15-.22-2.92-3.88-2.46-6.17a30.74,30.74,0,0,1,32.44-24.61c15.09,1.11,27.52,13.79,28.33,29.37C454.83,268.46,454.5,276.16,454.5,285.49Z"/><path class="cls-3" d="M627.14,285.57c0-9.75-.62-18.16.13-26.44A30.71,30.71,0,0,1,688,256.22c.6,3,1.72,5.91-3.53,6.14C663.29,263.29,644.63,270.89,627.14,285.57Z"/><path class="cls-5" d="M424,699.31c.13,67-46.43,115.62-103.35,117-11.74.28-19.18-5.26-19.69-14.67s6.76-15.67,18.34-16.16a77,77,0,0,0,69.16-50.22c10.86-29.58,3.65-62.19-20.07-82.88-11.06-9.65-10.79-19.75-5.34-25.77,7.09-7.83,16-7,26.67,3.12C412.26,651,423.65,677.33,424,699.31Z"/><path class="cls-6" d="M331.6,616a15.16,15.16,0,0,1-15.42,15.55,15.78,15.78,0,0,1-15.25-15.2c-.13-8.36,7.23-15.66,15.66-15.55A15.16,15.16,0,0,1,331.6,616Z"/><path class="cls-5" d="M873.55,700.12C873.44,767,826.19,815.59,769.11,816.3c-11,.14-18.33-5.76-18.64-14.94s6.83-15.4,17.8-15.88c31.87-1.4,59-21,69.74-50.36,11-30.2,3.11-62.1-21.1-84-5.42-4.89-9.8-10.11-7.9-17.87,1.51-6.15,5.61-10.18,12-11.6,5.87-1.31,10.47,1.11,14.68,4.79C860.62,648.29,873.17,675.78,873.55,700.12Z"/><path class="cls-6" d="M781.13,616.13a15.17,15.17,0,0,1-15.52,15.46,15.38,15.38,0,1,1,.6-30.75A15.17,15.17,0,0,1,781.13,616.13Z"/></g></svg>