<?xml version="1.0" encoding="utf-8"?>
<!-- Generator: Adobe Illustrator 24.0.1, SVG Export Plug-In . SVG Version: 6.00 Build 0)  -->
<svg version="1.1" id="Layer_1" xmlns="http://www.w3.org/2000/svg" xmlns:xlink="http://www.w3.org/1999/xlink" x="0px" y="0px"
	 viewBox="0 0 1080 1080" style="enable-background:new 0 0 1080 1080;" xml:space="preserve">
<style type="text/css">
	.st0{fill:#04897F;}
	.st1{fill:#030303;}
	.st2{fill:#0C0C0C;}
	.st3{fill:#FDFDFD;stroke:#FFFFFF;stroke-width:17;stroke-miterlimit:10;}
	.st4{fill:#FFBD11;stroke:#FFBD11;stroke-width:12;stroke-miterlimit:10;}
	.st5{fill:#EEDC92;stroke:#EEDC92;stroke-width:15;stroke-miterlimit:10;}
</style>
<rect x="193" y="724" class="st0" width="694" height="152"/>
<g>
	<path class="st1" d="M344.77,863.39c40.09,0,80.17-0.27,120.26,0.08c34.81,0.31,69.63-0.03,104.44,0.26
		c27.35,0.23,54.75-0.39,82.12-0.22c34.54,0.21,69.08-0.19,103.62,0.22c24.02,0.28,48.11-0.09,72.16-0.27
		c8.8-0.07,17.6,0.71,26.4,0.81c1.84,0.02,4.74,1.53,5.56-1.66c0.68-2.62-0.54-4.82-2.62-6.53c-16.82-13.82-30.85-30.46-46.33-45.58
		c-13.57-13.26-27.07-26.65-40.75-39.83c-12.4-11.95-24.45-24.27-36.51-36.56c-2.68-2.73-5.4-4.01-9.35-3.95
		c-14.12,0.23-28.27,0.37-42.38-0.11c-6.01-0.2-15.61,1.83-15.52,7.52c0.28,17.7,0.09,35.4,0.09,53.11
		c0,3.33-2.61,13.99-16.92,14.29c-6.36,0.13-12.73,0.06-19.09,0.02c-19.26-0.09-22.28-8.99-22.28-16.98c0-15.41-1.64-30.9,1.2-46.31
		c1.48-8.02-8.81-11.21-17.14-11.22c-14.21-0.02-22.69,0-23.36,14.46c-0.66,14.23,0.31,17.4,0.14,31.59
		c-0.23,18.93-0.78,28.48-19.56,28.41c-7.17-0.03-14.35-0.24-21.53-0.5c-14.6-0.52-13.2-10.93-13.91-25.2
		c-0.75-15.34-1.76-19.86,1-35.27c0.78-4.35,0.03-11.6-3.08-12.6c-6-1.92-29.1-1.13-35.62-0.38c-2.75,0.32-1.58,4.28-1.6,6.62
		c-0.08,16.13,0.16,32.25-0.08,48.38c-0.14,10-7.14,20-23.3,19.04c-7.42-0.47-14.89-0.29-22.33-0.57c-1.58-0.06-3.31-0.4-4.71-1.23
		C420,801,419,797,415.3,788.83c-0.57-13.14-1.74-26.47,1.16-39.57c1.24-5.6-2.01-10.72-1.57-16.28c0.28-3.53-9.74-2.74-11.77-2.74
		c-16.05-0.06-32.09-0.09-48.14-0.04c-1.54,0-3.21-0.34-4.53,1.15c-39.63,44.67-83.71,84.96-125.59,127.41
		c-3.45,3.5-5.09,5.8-0.57,9.75c3.7,3.24,3.75,7.96,1.55,12.24c-2.32,4.51-6.19,6.76-11.44,6.86c-16.83,0.3-34.21-14.87-34.94-32.51
		c-0.89-21.25-0.1-42.56-0.11-63.85c0-5.5-0.41-11.01-0.41-16.51c-0.03-53.63-0.02-107.26-0.02-160.88c0-30.39,0-60.79,0-91.18
		c0-32.05,0-64.1,0-96.16c0-30.94,0-61.87,0-92.81c0-31.21,0-62.43,0-93.64c0-12.41-0.16-24.82,0.04-37.22
		c0.38-23.55,14.87-38.77,38.36-38.65c39.77,0.21,79.54-0.52,119.33,0.23c20.39,0.38,40.89-0.54,61.33-0.32
		c41.71,0.46,83.43-0.18,125.14,0.28c27.6,0.3,55.27-0.45,82.9-0.26c34.53,0.25,69.05-0.11,103.58,0.25
		c26.23,0.27,52.52-0.09,78.79-0.33c24.3-0.23,48.64,0.64,72.91-0.24c24.48-0.89,42.23,17.55,41.7,41.83
		c-0.94,43.37-0.26,86.78-0.26,130.17c0,29.56,0,59.12,0,88.68c0,32.05,0,64.1,0,96.15c0,30.94,0,61.89,0,92.83
		c0,31.22,0,62.45,0,93.67c0,31.22,0,62.45,0,93.67c0,14.89,0.02,29.78-0.01,44.67c-0.05,27.7-14.2,42.49-41.65,42.18
		c-42.27-0.48-84.54,0.46-126.83-0.33c-20.95-0.39-42.01,0.56-63.01,0.31c-41.16-0.48-82.33,0.18-123.5-0.28
		c-27.88-0.32-55.84,0.43-83.76,0.27c-34.25-0.2-68.49,0.55-102.75-0.31c-15.4-0.38-30.93,0.23-46.4,0.37
		c-9.6,0.09-15.58-5.13-15.24-12.56c0.32-7.05,6.26-11.67,15.28-11.73C324.85,863.35,334.81,863.4,344.77,863.39z M540.87,344.96
		c0,0.02,0,0.04,0,0.06c-57.26,0-114.52,0.13-171.77-0.17c-7.1-0.04-9.48,1.38-9.34,8.99c0.51,27.1,0.2,54.21,0.2,81.31
		c-0.02,88.23,0,176.47-0.2,264.7c-0.01,5.51,1.5,7.2,6.99,7.01c11.05-0.39,22.15-0.59,33.18,0.05c7.02,0.41,8.11-2.18,8.09-8.52
		c-0.22-71.9-0.09-143.81-0.22-215.71c-0.01-7.6,1.17-14.57,4.74-21.41c6.92-13.26,22.45-22,36.86-20.03
		c14.92,2.03,26.8,13.61,30.47,28.53c2.5,10.15,0.72,20.3,0.95,30.39c0.71,31.18,0.26,62.38,0.26,93.58c0,32.3,0,64.59,0,96.89
		c0,16.35,0.01,16.02,16,16.28c6.26,0.1,7.29-2.16,7.2-7.73c-0.31-19.6-0.12-39.21-0.12-58.81c0-53.34,0.09-106.68-0.08-160.02
		c-0.03-9.89,2.92-18.37,9.38-25.67c9.19-10.39,20.56-16.14,34.5-12.91c14.65,3.39,24.49,12.33,28.35,27.58
		c2.23,8.81,0.84,17.59,0.94,26.29c0.3,27.36-0.34,54.76-0.08,82.1c0.36,37.84-0.29,75.68,0.31,113.52
		c0.25,15.7,0.04,15.43,15.78,15.64c5.86,0.08,7.55-1.67,7.47-7.49c-0.31-21.79-0.35-43.59-0.07-65.38
		c0.35-27.07,0.33-54.16,0.43-81.22c0.09-24.83-0.28-49.73-0.37-74.6c-0.07-17.82,12.85-33.06,29.84-36.74
		c15.27-3.31,31.7,5.29,39.71,20.33c5.13,9.63,3.38,19.96,3.41,29.98c0.23,68.86,0.25,137.72-0.07,206.59
		c-0.03,7.32,2.28,8.85,8.92,8.53c10.49-0.51,21.04-0.52,31.52,0.01c6.36,0.32,7.81-1.84,7.8-7.95
		c-0.18-115.62-0.18-231.23,0.01-346.85c0.01-6.06-1.87-7.27-7.54-7.26C656.5,345.04,598.68,344.96,540.87,344.96z M455.8,652.03
		c0.05,0,0.1,0,0.15,0c0-20.94,0-41.88,0-62.82c0-35.88-0.04-71.76,0.04-107.63c0.01-5.48-0.47-10.61-5.73-13.71
		c-8.41-4.95-17.41,1.14-17.49,12.11c-0.17,23.15-0.05,46.29-0.05,69.44c0,30.61-0.04,61.23,0.01,91.84
		c0.08,43.06,0.24,86.12,0.33,129.17c0.04,18.93,0.02,18.7,18.36,20.04c4.23,0.31,4.44-0.86,4.43-4.29
		C455.77,741.48,455.8,696.75,455.8,652.03z M625.62,752.44c0.1,0,0.21,0,0.31,0c0,10.51,0.17,21.03-0.08,31.54
		c-0.11,4.68,1.49,6.06,6.23,6.18c16.77,0.42,16.76,0.63,16.6-16.27c-0.01-1.38,0-2.77,0-4.15c0.07-32.83,0.18-65.67,0.21-98.5
		c0.03-50.54,0.01-101.09,0.01-151.63c0-12.65,0.04-25.29-0.01-37.94c-0.04-10.19-4.32-15.73-11.87-15.53
		c-7.24,0.19-11.38,5.61-11.39,15.21c-0.03,50.28-0.01,100.55-0.01,150.83C625.62,672.26,625.62,712.35,625.62,752.44z
		 M529.31,609.45c-1.24,48.27,1.16,107.89,1.34,167.53c0.01,2.21,0.28,4.47-0.06,6.63c-0.83,5.32,1.45,6.76,6.46,6.31
		c4.55-0.41,10.21,1.62,13.49-0.44c4.39-2.75,0.31-8.56,0.23-12.97c-0.5-30.93,1.58-61.8,1.58-92.7c0-67.42,0.02-134.85-0.02-202.27
		c-0.01-9.27-4.54-15.22-11.34-15.37c-6.83-0.15-11.48,5.82-11.68,15.04c-0.04,1.66-0.01,3.32-0.01,4.98
		C529.31,523.47,529.31,560.77,529.31,609.45z M728.23,248.61c23.81,0,46.71-0.03,69.62,0.04c2.75,0.01,4.71-1.14,6.53-2.97
		c17.58-17.59,35.17-35.16,52.75-52.74c1.12-1.12,2.91-2.17,1.9-4.07c-0.98-1.86-2.96-0.88-4.49-0.89
		c-7.74-0.06-15.49,0.27-23.21-0.08c-16.46-0.75-32.9,0.62-49.45-0.89c-6.71-0.61-16.9-2.63-22.11,8.13
		c-5.99,12.35-14.28,23.55-22.68,34.53C732.97,235.06,730.35,241.28,728.23,248.61z M202.42,255.26c0.01,0,0.02,0,0.03,0
		c0,8.28,0,16.57,0,24.85c0,25.42,0,25.42,23.02,36.53c0.49,0.23,1.13,0.18,1.58,0.45c9.59,5.92,19.26,11.72,28.66,17.93
		c1.95,1.29,3.12,4.44,5.93,3.08c3.04-1.47,3.56-4.99,3.07-7.82c-2.87-16.45-0.92-33-1.12-49.49c-0.11-9.37-0.81-17.29-8.81-24.19
		c-4.35-3.75-8.83-7.88-12.91-12.2c-10.77-11.41-21.78-22.59-32.72-33.84c-1.48-1.53-2.73-3.97-5.31-3.17
		c-3.11,0.96-1.34,3.74-1.36,5.64C202.37,227.09,202.42,241.18,202.42,255.26z M878.73,792.81c0-14.17-0.05-25.76,0.02-37.35
		c0.03-5.82-1.64-10.04-8.12-11.41c-2.56-0.54-4.87-2.46-7.2-3.91c-13.12-8.11-26.25-16.21-39.3-24.44
		c-4.5-2.84-6.08-2.07-6.03,3.46c0.2,20.15,0.34,40.3-0.05,60.44c-0.15,7.57,4.07,12.4,8.88,16.52
		c14.9,12.76,28.05,27.26,41.84,41.11c2.66,2.67,4.94,7.84,8.22,6.65c3.59-1.3,3.72-7.67,3.06-10.85
		C877.08,818.76,879.95,804.46,878.73,792.81z M203.45,846.19c18.8-20.47,39.05-36.23,56.76-54.69c2.06-2.15,3.42-4.71,3.41-8.02
		c-0.1-21.8-0.19-43.61,0.04-65.41c0.06-5.56-3.41-5.67-6.13-3.8c-5.98,4.11-13.02,6.23-18.68,10.95c-3.51,2.93-5.3,7.29-9.83,9.46
		c-6.92,3.31-13.18,7.96-20,11.51c-4.26,2.21-5.76,4.96-5.68,9.77c0.28,17.88,0.11,35.76,0.11,53.64
		C203.45,821.03,203.45,832.48,203.45,846.19z M272.86,188.08c-15.8,0-28.26,0.44-40.64-0.27c-3.75-0.22-5.48,1.36-6.97,3.42
		c-2.32,3.21,1.81,3.82,3.13,5.25c12.32,13.33,25.71,25.6,38,39.03c5.62,6.14,11.74,14.28,23.92,13.57
		c18.29-1.07,36.86-2.14,55.23,0.88c2.79,0.46,6.45,0.13,7.8-3.16c1.32-3.2-1.55-4.73-3.61-6.58c-1.38-1.25-2.23-3.11-3.25-4.74
		c-9.32-14.96-18.67-29.91-27.88-44.94c-1.32-2.15-1.83-4.27-5.34-3.61C298.75,189.65,284.06,187.29,272.86,188.08z M878.61,207.6
		c-3.68-0.05-4.62,2.29-6.07,3.73c-14.3,14.19-28.07,28.96-42.95,42.5c-8.68,7.9-12.17,16.16-11.7,27.97
		c0.75,19,1.32,38.09-0.98,58.58c19.46-12.11,37.52-23.61,55.88-34.61c4.42-2.65,5.99-5.46,5.94-10.5
		c-0.25-23.02-0.11-46.05-0.11-69.07C878.61,220.02,878.61,213.84,878.61,207.6z M202.46,577.93c0,10.48-0.02,20.97,0,31.45
		c0.02,8.57,1.07,9.31,9.63,6.51c15.49-5.07,30.92-10.33,46.46-15.26c3.54-1.12,4.85-3.04,4.84-6.53
		c-0.06-16.83-0.11-33.67,0.01-50.5c0.03-3.61-1.47-4.92-4.88-4.97c-16.81-0.27-33.62-0.46-50.42-1.05
		c-5.18-0.18-5.8,2.15-5.73,6.41C202.59,555.31,202.46,566.62,202.46,577.93z M202.45,474.45c0,11.04,0.22,22.09-0.1,33.12
		c-0.14,4.91,1.05,6.83,6.39,6.62c16.22-0.63,32.46-0.86,48.7-1.01c4.77-0.04,6.05-2.04,5.99-6.55c-0.21-16.01-0.17-32.03,0-48.04
		c0.05-4.7-1.76-6.44-6.37-7.77c-10.92-3.14-21.53-7.36-32.3-11.04c-5.13-1.75-10.3-3.46-15.54-4.83c-4.44-1.16-7.15-0.37-6.9,5.53
		C202.79,451.79,202.45,463.13,202.45,474.45z M818.11,398.9c0,4.97,0,9.93,0,14.9c0,4.66-1.91,11.4,0.41,13.52
		c4.05,3.7,8.07-2.92,12.55-4.17c12.98-3.59,25.66-8.26,38.7-11.59c7.19-1.84,9.43-5.09,9.23-12.49c-0.55-20.49-0.16-41-0.2-61.5
		c0-1.83,1.02-4.04-0.94-5.39c-2.17-1.49-3.53,0.74-5.02,1.66c-9.62,5.89-18.68,12.99-28.85,17.65
		C823.11,361.06,811.11,374.55,818.11,398.9z M202.45,681.54c0,10.5-0.09,20.99,0.07,31.48c0.03,2.24-1.46,5.22,1.31,6.67
		c2.56,1.34,4.82-0.74,6.8-2.01c16.14-10.36,32.16-20.91,48.32-31.25c3.1-1.98,4.59-4.21,4.55-8c-0.16-15.74-0.2-31.49,0-47.23
		c0.06-5.12-1.23-5.48-6.25-4.47c-17.14,3.47-33,11.06-49.99,14.79c-4.19,0.92-4.95,3.09-4.88,6.87
		C202.58,659.45,202.45,670.5,202.45,681.54z M852.47,513.67c7.46,0,13.56-0.24,19.63,0.08c4.57,0.24,6.38-1.12,6.33-6.01
		c-0.22-22.51-0.21-45.03-0.04-67.55c0.04-5.13-1.32-6.04-6.24-4.42c-16.18,5.36-32.46,10.44-48.83,15.19
		c-4.11,1.19-5.17,3.2-5.15,7c0.1,16.59,0.18,33.19-0.02,49.78c-0.08,6.25,4.61,8.27,8.46,7.31
		C835.74,512.76,844.8,514.42,852.47,513.67z M818.22,568.97c0,8.01,0.08,16.02-0.04,24.03c-0.06,3.89,0.42,6.47,5.15,7.83
		c16.76,4.8,33.39,10.08,49.96,15.51c4.86,1.59,5.06-0.76,5.05-4.29c-0.02-22.78-0.09-45.56,0.09-68.33
		c0.03-4.37-1.45-5.76-5.76-5.71c-16.02,0.19-32.05,0.21-48.07,0c-5.17-0.07-6.67,1.98-6.46,6.92
		C818.47,552.94,818.22,560.96,818.22,568.97z M497.16,248.58c8,0,16.02-0.26,24.01,0.09c5.16,0.23,7.55-1.13,7.46-6.79
		c-0.26-16-0.14-32.01-0.05-48.02c0.02-3.17-0.42-5.42-4.33-5.37c-7.67,0.1-15.65-1.85-22.85-1.05c-15.48,1.7-30.84,0.52-46.24,0.97
		c-5.04,0.15-6.04,1.24-4.4,6.2c5.38,16.27,10.44,32.65,15.2,49.12c1.22,4.22,3.5,4.94,7.17,4.89
		C481.15,248.5,489.16,248.58,497.16,248.58z M583.32,248.59c8.57,0,17.15-0.07,25.72,0.04c3.43,0.04,5.49-0.82,6.6-4.58
		c4.9-16.61,9.94-33.2,15.38-49.64c1.79-5.4-0.11-6.05-4.74-6.02c-22.24,0.14-44.49,0.2-66.74-0.03c-5.06-0.05-6.65,1.46-6.63,6.59
		c0.04,10.48,1.33,21.08-0.75,31.44c-1.34,6.69,1.78,12.81,1.32,19.37c-0.24,3.43,3.37,2.81,5.78,2.82
		C567.28,248.6,575.3,248.59,583.32,248.59z M203.5,330.97c0,25.67,0.01,49.82-0.01,73.98c0,1.83,0.55,3.12,2.38,3.86
		c6.96,2.8,13.68,6.57,20.9,8.31c9.27,2.24,18.24,5.3,27.29,8.16c11.4,3.62,11.3,3.81,9.57-7.71c-0.29-1.89-0.06-3.86-0.06-5.8
		c0-12.99-0.09-25.99,0.06-38.98c0.04-3.54-0.63-6.2-3.74-8.46C242.53,351.71,222.48,343.82,203.5,330.97z M378.51,188.18
		c-10.38,0-18.39,0.2-26.39-0.07c-5.51-0.18-6.29,1.09-3.25,5.86c10.38,16.28,20.53,32.71,30.53,49.22
		c2.43,4.01,5.24,5.43,9.97,5.55c16.2,0.41,32.47-1.75,48.61,1.22c3.37,0.62,6.07-1.11,4.37-4.63c-7.9-16.42-11.19-34.34-17.11-51.4
		c-1.32-3.82-2.87-5.34-7.35-5.92C403.91,186.2,390.05,189.95,378.51,188.18z M669.06,248.59c7.74,0,15.49-0.21,23.23,0.08
		c4.3,0.16,7.15-0.98,9.51-4.87c10.28-16.98,20.75-33.85,31.41-50.61c2.86-4.5,1.12-4.99-2.98-4.98
		c-22.24,0.08-44.48,0.13-66.72,0.01c-3.57-0.02-5.76,0.83-6.59,4.56c-3.8,17.17-12.56,32.78-15.65,50.24
		c-0.89,5,0.31,5.72,4.58,5.63C653.57,248.48,661.32,248.6,669.06,248.59z M878.58,682.64c0.93-9.72-1.71-22.2,1.44-34.48
		c1.07-4.17-2.34-5.05-5.25-5.95c-16.81-5.2-33.69-10.18-50.42-15.62c-4.94-1.61-6.31-0.65-6.24,4.47
		c0.21,15.73,0.22,31.47-0.02,47.2c-0.06,4.16,1.5,6.56,4.89,8.64c16.78,10.27,33.51,20.61,50.13,31.12
		c4.21,2.66,5.66,2.38,5.53-2.96C878.41,705.13,878.58,695.19,878.58,682.64z M382.59,321.09c3.86,0,6.64-0.17,9.39,0.03
		c6.96,0.52,6.76-1.96,3.53-6.97c-7.84-12.17-15.3-24.59-22.92-36.9c-1.46-2.36-2.79-4.89-6.19-4.74
		c-18.86,0.8-37.71-1.51-56.57-0.11c-2.65,0.2-3.69,1.24-2.18,3.61c1.61,2.51,3.04,5.51,5.37,7.13
		c12.81,8.94,22.29,21.34,33.52,31.9c3.99,3.75,7.94,5.45,13.52,6.44C368.21,322.91,375.84,319.66,382.59,321.09z M287.47,331.13
		c0,7.2,0.09,13.01-0.04,18.82c-0.07,3.02,0.75,5.28,3.46,6.95c13.28,8.16,26.51,16.39,39.72,24.66c4.92,3.08,5.4,0.44,5.53-3.78
		c0.25-8.24,0.07-16.47,0.88-24.75c0.49-5.01,1.29-12.19-2.73-16.46c-13.73-14.56-28.09-28.54-42.2-42.75
		c-0.98-0.99-1.96-2.2-3.47-1.51c-1.96,0.91-0.92,2.88-1.2,4.39C285.21,308.65,288.43,320.58,287.47,331.13z M794.2,713.18
		c0-3.86-0.12-7.72,0.04-11.58c0.12-3.07-0.98-5.2-3.63-6.83c-13.23-8.13-26.4-16.35-39.57-24.57c-3.65-2.28-5.13-1.75-5.57,2.94
		c-1.14,12.25,0.45,24.45,0.06,36.66c-0.11,3.47,1.63,5.66,3.81,7.84c13.13,13.13,26.25,26.27,39.38,39.4
		c1.14,1.14,2.06,3.02,3.93,2.53c2.69-0.72,1.55-3.16,1.53-4.89C794.01,740.85,795.74,727.01,794.2,713.18z M744.1,272.34
		c0,0.01,0,0.02,0,0.04c-8.83,0-17.66,0.12-26.49-0.06c-3.62-0.07-6.24,0.75-8.26,4.07c-7.85,12.96-15.87,25.82-23.94,38.65
		c-2.79,4.44-2.2,6.34,3.45,6.25c11.86-0.2,23.73-0.15,35.59-0.01c3,0.03,5.31-0.84,7.39-2.91c13.65-13.66,27.32-27.3,41.01-40.92
		c1.23-1.22,2.45-2.41,1.45-4.22c-0.83-1.5-2.44-0.86-3.72-0.86C761.76,272.31,752.93,272.34,744.1,272.34z M287.4,724.13
		c0,13-0.03,21.84,0.03,30.67c0.01,1.54-0.9,3.53,0.91,4.51c2.36,1.28,3.38-1.02,4.66-2.29c13.1-13.07,26.18-26.17,39.26-39.26
		c2.16-2.16,3.98-4.3,3.93-7.8c-0.19-12.15-0.15-24.31-0.02-36.46c0.06-5.33-1.98-5.63-5.92-3.1c-5.34,3.42-10.46,7.42-16.21,9.93
		C292.77,689.61,280.23,703.37,287.4,724.13z M793.75,323.5c0.17,0,0.34,0,0.51,0c0-8.84,0.03-17.68-0.03-26.52
		c-0.01-1.54,0.91-3.53-0.91-4.52c-2.36-1.28-3.38,1.01-4.66,2.29c-13.1,13.07-26.18,26.17-39.25,39.26
		c-2.16,2.16-3.99,4.29-3.93,7.8c0.19,12.15,0.15,24.31,0.02,36.46c-0.06,5.37,2.01,5.58,5.93,3.06
		c5.33-3.44,10.81-6.64,16.14-10.08c8.77-5.65,20.74-9.59,25.25-17.66C797.16,345.81,793.75,333.7,793.75,323.5z M529.12,298.4
		c0-7.64-0.18-13.99,0.06-20.32c0.16-4.27-1.48-5.98-5.74-5.95c-14.38,0.11-28.77,0.15-43.15,0c-5.57-0.06-5.57,2.42-4.05,6.66
		c4.08,11.42,6.69,23.28,10.8,34.74c2.22,6.2,4.69,8.72,10.94,7.94c2.17-0.27,4.42,0.07,6.62-0.06c7.66-0.45,17.27,3.21,22.49-1.4
		C532.89,314.86,527.87,304.88,529.12,298.4z M793.84,487.28c0-6.63,0.07-13.26-0.02-19.88c-0.1-7.96-1.63-9.31-8.69-5.97
		c-10.78,5.1-22.16,8.21-33.49,11.53c-3.95,1.16-5.97,3.01-5.84,7.55c0.2,7.13,0.06,14.2-1.19,21.4
		c-1.54,8.84,2.06,11.84,11.32,11.84c10.22,0,20.45-0.36,30.65,0.14c6.03,0.29,7.72-1.89,7.35-7.55
		C793.52,500,793.84,493.63,793.84,487.28z M311.41,513.81c6.06,0,12.14-0.23,18.19,0.08c4.64,0.24,6.45-1.36,6.32-6.11
		c-0.26-9.09-0.32-18.19,0-27.28c0.16-4.51-1.84-6.42-5.78-7.58c-11.9-3.51-23.89-6.82-35.56-10.98c-6.25-2.23-6.98-0.02-6.89,5.31
		c0.14,7.69,0.93,15.66-0.74,23.02c-1.56,6.85,0.08,13.37,1.37,19.17c2.13,9.61,11.52,2.26,17.35,4.28
		C307.38,514.32,309.49,513.81,311.41,513.81z M336.12,425.89c-1.36-3.75,3.82-10.96-2.96-15.01c-13.3-7.92-25.7-17.21-39.21-24.84
		c-7.56-4.27-6.35-0.22-7.02,4.73c-1.62,11.94,1.32,23.82,0.01,35.66c-0.77,6.95,2.31,9.43,8.41,11.49
		c11.83,3.99,24.56,5.43,35.34,12.53c3.38,2.22,8.61-1.8,7.14-5.8C335.71,438.92,337.08,433.27,336.12,425.89z M287.58,642.09
		c-0.01,0-0.02,0-0.03,0c0,6.9-0.04,13.8,0.02,20.7c0.02,2.45,0.02,6.21,3.77,3.92c14.26-8.7,29.88-15.23,42.57-26.46
		c2.72-2.4,4.13-6.22,3.41-8.93c-2.13-7.93-1.1-15.84-1.24-23.75c-0.07-4.1-1.22-5.53-5.44-4.15c-12.29,4.02-24.56,8.15-37.03,11.56
		c-5.23,1.43-6.32,4.17-6.1,8.9C287.79,629.93,287.58,636.02,287.58,642.09z M657.43,272.58c-6.35,0-12.71,0.24-19.04-0.08
		c-4.54-0.23-6.95,1.08-8.29,5.78c-3.54,12.44-7.56,24.74-11.6,37.03c-1.54,4.68,0.09,5.87,4.58,5.76
		c6.33-0.16,12.92-0.89,18.94,0.53c7.45,1.76,11.45-1.01,15.99-6.31c9.61-11.24,14.8-25.01,22.69-37.19
		c3.13-4.83,1.07-5.63-3.39-5.56C670.68,272.64,664.05,272.57,657.43,272.58z M416.92,270.65c-4.47,2.14-9.45,1.82-14.41,1.92
		c-3.9,0.08-3.22,2.07-2.12,4.99c3.12,8.28,10.35,13.92,13.74,21.88c7.1,16.68,18.26,25.96,37.36,21.56
		c4.21-0.97,8.46,4.22,12.47,0.04c5.14-5.36-2.31-7.96-3.2-12.09c-2.25-10.45-6.14-20.54-9.28-30.81c-0.92-3.02-1.7-5.54-5.8-5.7
		C436.17,272.05,426.48,274.2,416.92,270.65z M745.63,621.31c0,4.15,0.11,8.3-0.04,12.44c-0.12,3.31,0.77,5.75,3.8,7.6
		c13.28,8.14,26.48,16.41,39.66,24.73c4.56,2.88,5.15,0.36,5.13-3.42c-0.03-4.98-0.95-10.18,0.18-14.89
		c2.1-8.8-1.27-17.31-0.22-25.95c0.44-3.61-1.23-5.43-4.82-6.42c-8.5-2.36-16.9-5.1-25.31-7.78
		C745.64,601.78,745.65,601.76,745.63,621.31z M313.05,537.75c0,0.07,0,0.13,0,0.2c-5.8,0-11.63,0.39-17.38-0.11
		c-6.15-0.53-8.07,1.51-8.06,7.8c0.02,13.2,1.78,26.55-1,39.58c-1.38,6.49,0.75,6.71,5.64,5.21c12.88-3.95,25.77-7.88,38.65-11.83
		c3.2-0.98,5.02-2.73,5.01-6.52c-0.02-10.19-0.88-20.41,0.58-30.58c0.52-3.66-1.43-3.93-4.42-3.83
		C325.74,537.91,319.39,537.75,313.05,537.75z M794.15,409.22c0-6.36-0.14-12.71,0.04-19.06c0.15-5.4-0.72-7.33-6.35-3.72
		c-13,8.32-26.3,16.17-39.61,23.98c-2.38,1.4-2.65,2.91-2.62,5.29c0.12,9.12,0.26,18.24-0.06,27.35c-0.2,5.5,1.37,6.94,6.71,4.98
		c7.23-2.65,14.65-4.82,22.06-6.99c19.82-5.81,19.83-5.76,19.83-26.02C794.15,413.09,794.15,411.16,794.15,409.22z M746.12,557.62
		c0,4.7,0.21,9.41-0.07,14.09c-0.22,3.75,1.5,5.62,4.79,6.62c12.47,3.79,24.97,7.51,37.39,11.44c4.03,1.27,5.41,0.26,5.48-4.01
		c0.21-13.23-0.84-26.47,0.89-39.7c0.64-4.94-1.22-8.37-7.53-7.91c-7.15,0.53-14.36,0.12-21.55,0.12
		C746.15,538.28,746.15,538.28,746.12,557.62z M578.07,273.32c-6.53,0-11.83,0.46-17.02-0.12c-6.58-0.73-7.77,2.01-7.61,7.97
		c0.33,12.13-0.06,24.29-0.46,36.43c-0.1,2.9,0.26,4.42,3.38,3.7c10.12-2.32,20.35-1.18,30.53-0.99c3.45,0.07,5.13-1.41,6.03-4.35
		c3.97-12.9,7.86-25.82,11.92-38.69c1.3-4.13,0.09-6.15-4.14-5.02C592.77,274.37,584.75,272.66,578.07,273.32z"/>
	<path class="st2" d="M275.47,874.95c-0.07,6.32-6.59,12.74-12.84,12.63c-5.54-0.1-11.26-6.37-11.15-12.22
		c0.12-6.23,6.15-12.09,12.32-11.97C269.9,863.51,275.53,869.1,275.47,874.95z"/>
	<path class="st3" d="M540.87,346.96c57.81,0,115.63,0.08,173.44-0.12c5.67-0.02,7.55,1.2,7.54,7.26
		c-0.19,115.62-0.19,238.23-0.01,353.85c0.01,6.11-1.44,8.27-7.8,7.95c-10.49-0.53-21.03-0.51-31.52-0.01
		c-6.64,0.32-8.95-1.21-8.92-8.53c0.32-68.86,0.3-144.72,0.07-213.59c-0.03-10.02,1.72-20.34-3.41-29.98
		c-8.01-15.04-24.44-23.64-39.71-20.33c-16.99,3.68-29.9,18.92-29.84,36.74c0.09,24.86,0.46,49.76,0.37,74.6
		c-0.1,27.06-0.08,54.15-0.43,81.22c-0.28,21.79-0.25,50.59,0.07,72.38c0.08,5.82-1.61,7.57-7.47,7.49
		c-15.74-0.21-15.53,0.06-15.78-15.64c-0.6-37.84,0.05-82.68-0.31-120.52c-0.26-27.34,0.38-54.74,0.08-82.1
		c-0.09-8.7,1.3-17.48-0.94-26.29c-3.86-15.24-13.71-24.19-28.35-27.58c-13.94-3.23-25.31,2.52-34.5,12.91
		c-6.46,7.3-9.41,15.77-9.38,25.67c0.17,53.34,0.08,106.68,0.08,160.02c0,19.6-0.19,46.21,0.12,65.81c0.09,5.57-0.95,7.83-7.2,7.73
		c-16-0.26-16,0.07-16-16.28c0-32.3,0-71.59,0-103.89c0-31.19,0.45-62.4-0.26-93.58c-0.23-10.09,1.55-20.24-0.95-30.39
		c-3.67-14.92-15.55-26.49-30.47-28.53c-14.42-1.97-29.95,6.77-36.86,20.03c-3.57,6.85-4.75,13.81-4.74,21.41
		c0.13,71.9-0.01,150.81,0.22,222.71c0.02,6.34-1.07,8.93-8.09,8.52c-11.03-0.64-22.13-0.45-33.18-0.05c-5.49,0.19-7-1.5-6.99-7.01
		c0.2-88.23,0.17-183.47,0.2-271.7c0.01-27.11,0.31-54.22-0.2-81.31c-0.14-7.61,2.24-9.03,9.34-8.99
		c57.26,0.3,114.52,0.17,171.77,0.17C540.87,347,540.87,346.98,540.87,346.96z"/>
	<path class="st4" d="M455.8,652.03c0,44.72-0.03,89.44,0.06,134.17c0.01,3.43-0.2,4.6-4.43,4.29
		c-18.34-1.35-18.32-1.12-18.36-20.04c-0.09-43.06-0.26-86.12-0.33-129.17c-0.05-30.61-0.01-61.23-0.01-91.84
		c0-23.15-0.11-46.3,0.05-69.44c0.08-10.97,9.07-17.06,17.49-12.11c5.26,3.1,5.74,8.23,5.73,13.71
		c-0.08,35.88-0.04,71.76-0.04,107.63c0,20.94,0,41.88,0,62.82C455.9,652.03,455.85,652.03,455.8,652.03z"/>
	<path class="st4" d="M625.62,752.44c0-40.09,0-80.18,0-120.27c0-50.28-0.02-100.55,0.01-150.83c0.01-9.6,4.15-15.02,11.39-15.21
		c7.55-0.2,11.84,5.34,11.87,15.53c0.05,12.65,0.01,25.29,0.01,37.94c0,50.54,0.03,101.09-0.01,151.63
		c-0.02,32.83-0.13,65.67-0.21,98.5c0,1.38-0.01,2.77,0,4.15c0.16,16.9,0.17,16.69-16.6,16.27c-4.74-0.12-6.34-1.49-6.23-6.18
		c0.24-10.51,0.08-21.02,0.08-31.54C625.83,752.44,625.72,752.44,625.62,752.44z"/>
	<path class="st4" d="M529.31,609.45c0-48.68,0-85.98,0-123.28c0-1.66-0.03-3.32,0.01-4.98c0.2-9.22,4.85-15.2,11.68-15.04
		c6.79,0.15,11.33,6.11,11.34,15.37c0.04,67.42,0.02,134.85,0.02,202.27c0,30.91-2.08,61.78-1.58,92.7
		c0.07,4.41,4.16,10.22-0.23,12.97c-3.28,2.06-8.94,0.03-13.49,0.44c-5.01,0.46-7.29-0.99-6.46-6.31c0.34-2.16,0.06-4.41,0.06-6.63
		C530.47,717.34,528.07,657.72,529.31,609.45z"/>
	<path class="st5" d="M728.23,248.61c2.12-7.33,4.74-13.56,8.86-18.94c8.4-10.98,16.69-22.18,22.68-34.53
		c5.21-10.75,15.39-8.74,22.11-8.13c16.55,1.51,32.99,0.14,49.45,0.89c7.72,0.35,15.47,0.02,23.21,0.08
		c1.53,0.01,3.51-0.98,4.49,0.89c1.01,1.91-0.78,2.95-1.9,4.07c-17.58,17.58-35.17,35.15-52.75,52.74
		c-1.82,1.82-3.78,2.97-6.53,2.97C774.94,248.58,752.04,248.61,728.23,248.61z"/>
	<path class="st5" d="M202.42,255.26c0-14.08-0.06-28.16,0.07-42.24c0.02-1.9-1.75-4.68,1.36-5.64c2.58-0.79,3.82,1.65,5.31,3.17
		c10.94,11.25,21.96,22.43,32.72,33.84c4.08,4.32,8.56,8.45,12.91,12.2c8.01,6.9,8.7,14.82,8.81,24.19
		c0.2,16.49-1.75,33.04,1.12,49.49c0.49,2.83-0.03,6.35-3.07,7.82c-2.81,1.36-3.98-1.8-5.93-3.08c-9.4-6.21-19.07-12.01-28.66-17.93
		c-0.45-0.28-1.09-0.22-1.58-0.45c-23.02-11.11-23.02-11.11-23.02-36.53c0-8.28,0-16.57,0-24.85
		C202.44,255.26,202.43,255.26,202.42,255.26z"/>
	<path class="st5" d="M878.73,792.81c1.22,11.64-1.64,25.95,1.32,40.23c0.66,3.18,0.53,9.55-3.06,10.85
		c-3.28,1.19-5.57-3.98-8.22-6.65c-13.79-13.85-26.94-28.36-41.84-41.11c-4.81-4.12-9.03-8.95-8.88-16.52
		c0.39-20.14,0.25-40.29,0.05-60.44c-0.05-5.53,1.53-6.3,6.03-3.46c13.05,8.22,26.18,16.33,39.3,24.44c2.33,1.44,4.64,3.36,7.2,3.91
		c6.48,1.38,8.16,5.59,8.12,11.41C878.68,767.05,878.73,778.65,878.73,792.81z"/>
	<path class="st5" d="M203.45,846.19c0-13.7,0-25.15,0-36.6c0-17.88,0.17-35.76-0.11-53.64c-0.08-4.8,1.42-7.55,5.68-9.77
		c6.82-3.54,13.09-8.2,20-11.51c4.53-2.17,6.32-6.53,9.83-9.46c5.66-4.72,12.7-6.84,18.68-10.95c2.72-1.87,6.19-1.76,6.13,3.8
		c-0.23,21.8-0.15,43.61-0.04,65.41c0.02,3.31-1.35,5.87-3.41,8.02C242.5,809.96,222.25,825.71,203.45,846.19z"/>
	<path class="st5" d="M272.86,188.08c11.2-0.79,25.89,1.57,40.39-1.14c3.52-0.66,4.03,1.46,5.34,3.61
		c9.22,15.03,18.56,29.97,27.88,44.94c1.02,1.63,1.86,3.5,3.25,4.74c2.06,1.85,4.93,3.38,3.61,6.58c-1.35,3.29-5.01,3.62-7.8,3.16
		c-18.38-3.01-36.94-1.94-55.23-0.88c-12.18,0.71-18.29-7.43-23.92-13.57c-12.29-13.43-25.68-25.7-38-39.03
		c-1.32-1.43-5.45-2.04-3.13-5.25c1.49-2.06,3.22-3.64,6.97-3.42C244.6,188.52,257.05,188.08,272.86,188.08z"/>
	<path class="st5" d="M878.61,207.6c0,6.23,0,12.42,0,18.6c0,23.03-0.14,46.05,0.11,69.07c0.05,5.04-1.52,7.86-5.94,10.5
		c-18.36,11-36.43,22.5-55.88,34.61c2.3-20.49,1.73-39.58,0.98-58.58c-0.46-11.81,3.02-20.07,11.7-27.97
		c14.88-13.55,28.65-28.31,42.95-42.5C873.99,209.89,874.93,207.55,878.61,207.6z"/>
	<path class="st5" d="M202.46,577.93c0-11.31,0.13-22.63-0.07-33.94c-0.08-4.26,0.54-6.59,5.73-6.41
		c16.8,0.59,33.61,0.78,50.42,1.05c3.41,0.06,4.9,1.36,4.88,4.97c-0.12,16.83-0.07,33.66-0.01,50.5c0.01,3.5-1.3,5.41-4.84,6.53
		c-15.54,4.93-30.97,10.19-46.46,15.26c-8.56,2.8-9.62,2.06-9.63-6.51C202.45,598.9,202.46,588.42,202.46,577.93z"/>
	<path class="st5" d="M202.45,474.45c0-11.32,0.34-22.65-0.14-33.95c-0.25-5.9,2.46-6.69,6.9-5.53c5.24,1.37,10.41,3.07,15.54,4.83
		c10.77,3.68,21.38,7.9,32.3,11.04c4.61,1.33,6.42,3.07,6.37,7.77c-0.17,16.01-0.2,32.03,0,48.04c0.06,4.51-1.22,6.51-5.99,6.55
		c-16.24,0.14-32.48,0.37-48.7,1.01c-5.34,0.21-6.53-1.71-6.39-6.62C202.67,496.54,202.45,485.49,202.45,474.45z"/>
	<path class="st5" d="M818.11,398.9c-6.99-24.35,5-37.84,25.88-47.41c10.18-4.66,19.23-11.75,28.85-17.65
		c1.49-0.91,2.85-3.15,5.02-1.66c1.96,1.35,0.94,3.56,0.94,5.39c0.04,20.5-0.35,41.01,0.2,61.5c0.2,7.4-2.04,10.65-9.23,12.49
		c-13.03,3.34-25.72,8-38.7,11.59c-4.48,1.24-8.5,7.86-12.55,4.17c-2.32-2.12-0.42-8.86-0.41-13.52
		C818.11,408.83,818.11,403.87,818.11,398.9z"/>
	<path class="st5" d="M202.45,681.54c0-11.05,0.13-22.09-0.07-33.14c-0.07-3.78,0.69-5.95,4.88-6.87
		c17-3.73,32.85-11.32,49.99-14.79c5.02-1.02,6.31-0.66,6.25,4.47c-0.19,15.74-0.16,31.48,0,47.23c0.04,3.79-1.46,6.02-4.55,8
		c-16.16,10.34-32.17,20.9-48.32,31.25c-1.98,1.27-4.24,3.35-6.8,2.01c-2.77-1.45-1.27-4.43-1.31-6.67
		C202.36,702.54,202.45,692.04,202.45,681.54z"/>
	<path class="st5" d="M852.47,513.67c-7.66,0.75-16.73-0.91-25.85,1.37c-3.85,0.97-8.54-1.06-8.46-7.31
		c0.2-16.59,0.12-33.18,0.02-49.78c-0.02-3.8,1.04-5.81,5.15-7c16.37-4.75,32.65-9.83,48.83-15.19c4.92-1.63,6.27-0.71,6.24,4.42
		c-0.17,22.51-0.18,45.03,0.04,67.55c0.05,4.89-1.76,6.25-6.33,6.01C866.02,513.44,859.93,513.67,852.47,513.67z"/>
	<path class="st5" d="M818.22,568.97c0-8.01,0.26-16.03-0.09-24.03c-0.21-4.94,1.29-6.99,6.46-6.92c16.02,0.21,32.05,0.19,48.07,0
		c4.32-0.05,5.8,1.34,5.76,5.71c-0.17,22.78-0.11,45.56-0.09,68.33c0,3.52-0.19,5.88-5.05,4.29c-16.57-5.43-33.2-10.72-49.96-15.51
		c-4.73-1.35-5.2-3.94-5.15-7.83C818.3,585,818.22,576.98,818.22,568.97z"/>
	<path class="st5" d="M497.16,248.58c-8,0-16.01-0.08-24.01,0.04c-3.67,0.06-5.95-0.67-7.17-4.89c-4.76-16.46-9.83-32.84-15.2-49.12
		c-1.64-4.96-0.63-6.05,4.4-6.2c15.39-0.45,30.76,0.73,46.24-0.97c7.2-0.79,15.18,1.15,22.85,1.05c3.91-0.05,4.34,2.2,4.33,5.37
		c-0.09,16.01-0.21,32.02,0.05,48.02c0.09,5.66-2.3,7.02-7.46,6.79C513.18,248.32,505.17,248.58,497.16,248.58z"/>
	<path class="st5" d="M583.32,248.59c-8.02,0-16.04,0.01-24.06-0.01c-2.41-0.01-6.02,0.61-5.78-2.82
		c0.46-6.56-2.66-12.68-1.32-19.37c2.08-10.37,0.8-20.96,0.75-31.44c-0.02-5.13,1.57-6.64,6.63-6.59
		c22.24,0.23,44.49,0.16,66.74,0.03c4.63-0.03,6.53,0.62,4.74,6.02c-5.44,16.44-10.48,33.03-15.38,49.64
		c-1.11,3.76-3.17,4.62-6.6,4.58C600.47,248.51,591.9,248.59,583.32,248.59z"/>
	<path class="st5" d="M203.5,330.97c18.98,12.85,39.03,20.74,56.38,33.36c3.11,2.26,3.77,4.92,3.74,8.46
		c-0.14,12.99-0.06,25.99-0.06,38.98c0,1.94-0.23,3.91,0.06,5.8c1.74,11.52,1.83,11.33-9.57,7.71c-9.04-2.87-18.01-5.93-27.29-8.16
		c-7.21-1.74-13.93-5.51-20.9-8.31c-1.83-0.74-2.38-2.03-2.38-3.86C203.51,380.79,203.5,356.64,203.5,330.97z"/>
	<path class="st5" d="M378.51,188.18c11.53,1.77,25.4-1.99,39.4-0.17c4.48,0.58,6.02,2.1,7.35,5.92
		c5.91,17.06,9.21,34.98,17.11,51.4c1.7,3.53-1,5.26-4.37,4.63c-16.15-2.98-32.41-0.82-48.61-1.22c-4.73-0.12-7.55-1.54-9.97-5.55
		c-10-16.52-20.15-32.94-30.53-49.22c-3.04-4.77-2.27-6.04,3.25-5.86C360.12,188.38,368.13,188.18,378.51,188.18z"/>
	<path class="st5" d="M669.06,248.6c-7.74,0-15.49-0.12-23.23,0.05c-4.26,0.09-5.46-0.63-4.58-5.63
		c3.09-17.46,11.84-33.07,15.65-50.24c0.83-3.73,3.02-4.58,6.59-4.56c22.24,0.12,44.48,0.07,66.72-0.01
		c4.11-0.01,5.85,0.48,2.98,4.98c-10.65,16.75-21.13,33.62-31.41,50.61c-2.35,3.89-5.2,5.03-9.51,4.87
		C684.55,248.39,676.8,248.59,669.06,248.6z"/>
	<path class="st5" d="M878.58,682.64c0,12.55-0.17,22.49,0.07,32.42c0.13,5.33-1.33,5.62-5.53,2.96
		c-16.62-10.52-33.36-20.86-50.13-31.12c-3.39-2.08-4.95-4.48-4.89-8.64c0.23-15.73,0.23-31.47,0.02-47.2
		c-0.07-5.12,1.3-6.08,6.24-4.47c16.73,5.45,33.61,10.42,50.42,15.62c2.91,0.9,6.32,1.78,5.25,5.95
		C876.87,660.44,879.51,672.92,878.58,682.64z"/>
	<path class="st5" d="M382.59,321.09c-6.75-1.43-14.38,1.82-22.51,0.37c-5.58-0.99-9.53-2.69-13.52-6.44
		c-11.23-10.56-20.71-22.96-33.52-31.9c-2.32-1.62-3.76-4.62-5.37-7.13c-1.51-2.37-0.47-3.41,2.18-3.61
		c18.86-1.4,37.71,0.91,56.57,0.11c3.4-0.14,4.73,2.39,6.19,4.74c7.62,12.31,15.08,24.73,22.92,36.9c3.22,5.01,3.43,7.49-3.53,6.97
		C389.23,320.92,386.45,321.09,382.59,321.09z"/>
	<path class="st5" d="M287.47,331.13c0.96-10.55-2.25-22.48-0.04-34.43c0.28-1.52-0.76-3.48,1.2-4.39c1.51-0.7,2.49,0.51,3.47,1.51
		c14.11,14.21,28.47,28.18,42.2,42.75c4.02,4.27,3.23,11.45,2.73,16.46c-0.81,8.29-0.63,16.51-0.88,24.75
		c-0.13,4.21-0.61,6.86-5.53,3.78c-13.21-8.27-26.44-16.5-39.72-24.66c-2.72-1.67-3.53-3.93-3.46-6.95
		C287.56,344.14,287.47,338.33,287.47,331.13z"/>
	<path class="st5" d="M794.2,713.18c1.54,13.83-0.18,27.67-0.02,41.5c0.02,1.72,1.16,4.17-1.53,4.89c-1.87,0.5-2.8-1.39-3.93-2.53
		c-13.13-13.13-26.25-26.27-39.38-39.4c-2.18-2.18-3.92-4.37-3.81-7.84c0.39-12.21-1.2-24.42-0.06-36.66
		c0.44-4.68,1.91-5.22,5.57-2.94c13.17,8.22,26.35,16.44,39.57,24.57c2.65,1.63,3.75,3.76,3.63,6.83
		C794.08,705.45,794.2,709.32,794.2,713.18z"/>
	<path class="st5" d="M744.1,272.34c8.83,0,17.66-0.02,26.49,0.02c1.27,0.01,2.89-0.64,3.72,0.86c1,1.81-0.22,3-1.45,4.22
		c-13.69,13.62-27.36,27.26-41.01,40.92c-2.07,2.07-4.39,2.95-7.39,2.91c-11.86-0.14-23.73-0.19-35.59,0.01
		c-5.65,0.09-6.24-1.8-3.45-6.25c8.07-12.83,16.08-25.69,23.94-38.65c2.01-3.32,4.64-4.15,8.26-4.07
		c8.83,0.18,17.66,0.06,26.49,0.06C744.1,272.36,744.1,272.35,744.1,272.34z"/>
	<path class="st5" d="M287.4,724.13c-7.17-20.75,5.37-34.52,26.63-43.81c5.75-2.51,10.87-6.51,16.21-9.93
		c3.94-2.53,5.98-2.23,5.92,3.1c-0.13,12.15-0.17,24.31,0.02,36.46c0.05,3.51-1.77,5.64-3.93,7.8
		c-13.08,13.09-26.16,26.19-39.26,39.26c-1.28,1.28-2.3,3.57-4.66,2.29c-1.82-0.98-0.9-2.97-0.91-4.51
		C287.37,745.96,287.4,737.12,287.4,724.13z"/>
	<path class="st5" d="M793.75,323.5c0,10.2,3.4,22.31-0.94,30.09c-4.51,8.07-16.48,12-25.25,17.66
		c-5.33,3.44-10.81,6.65-16.14,10.08c-3.92,2.52-5.99,2.32-5.93-3.06c0.13-12.15,0.17-24.31-0.02-36.46
		c-0.05-3.51,1.77-5.64,3.93-7.8c13.08-13.09,26.16-26.19,39.25-39.26c1.28-1.28,2.29-3.57,4.66-2.29c1.82,0.99,0.9,2.98,0.91,4.52
		c0.06,8.84,0.03,17.68,0.03,26.52C794.09,323.5,793.92,323.5,793.75,323.5z"/>
	<path class="st5" d="M529.12,298.4c-1.25,6.48,3.77,16.46-2.03,21.6c-5.22,4.61-14.83,0.95-22.49,1.4
		c-2.2,0.13-4.44-0.21-6.62,0.06c-6.25,0.78-8.72-1.74-10.94-7.94c-4.11-11.46-6.72-23.32-10.8-34.74
		c-1.52-4.24-1.52-6.72,4.05-6.66c14.38,0.15,28.77,0.12,43.15,0c4.26-0.03,5.9,1.68,5.74,5.95
		C528.94,284.41,529.12,290.76,529.12,298.4z"/>
	<path class="st5" d="M793.84,487.28c0,6.35-0.32,12.72,0.1,19.05c0.37,5.66-1.31,7.84-7.35,7.55c-10.2-0.49-20.43-0.14-30.65-0.14
		c-9.26,0-12.86-3-11.32-11.84c1.25-7.19,1.39-14.27,1.19-21.4c-0.13-4.54,1.89-6.4,5.84-7.55c11.34-3.32,22.72-6.43,33.49-11.53
		c7.06-3.34,8.58-1.99,8.69,5.97C793.91,474.02,793.84,480.65,793.84,487.28z"/>
	<path class="st5" d="M311.41,513.81c-1.93,0-4.03,0.5-5.76-0.09c-5.84-2.02-15.22,5.33-17.35-4.28c-1.28-5.8-2.92-12.32-1.37-19.17
		c1.67-7.36,0.88-15.32,0.74-23.02c-0.1-5.33,0.64-7.54,6.89-5.31c11.67,4.17,23.66,7.47,35.56,10.98c3.94,1.16,5.94,3.07,5.78,7.58
		c-0.32,9.08-0.26,18.19,0,27.28c0.14,4.75-1.68,6.34-6.32,6.11C323.55,513.58,317.48,513.81,311.41,513.81z"/>
	<path class="st5" d="M336.12,425.89c0.96,7.38-0.41,13.02,1.71,18.76c1.48,3.99-3.76,8.02-7.14,5.8
		c-10.78-7.1-23.51-8.55-35.34-12.53c-6.1-2.06-9.18-4.54-8.41-11.49c1.31-11.84-1.63-23.72-0.01-35.66c0.67-4.95-0.54-9,7.02-4.73
		c13.51,7.63,25.91,16.92,39.21,24.84C339.94,414.93,334.76,422.14,336.12,425.89z"/>
	<path class="st5" d="M287.58,642.09c0-6.07,0.22-12.15-0.07-18.21c-0.22-4.73,0.88-7.47,6.1-8.9c12.46-3.42,24.74-7.54,37.03-11.56
		c4.22-1.38,5.37,0.05,5.44,4.15c0.14,7.91-0.89,15.82,1.24,23.75c0.73,2.71-0.69,6.53-3.41,8.93
		c-12.68,11.23-28.31,17.76-42.57,26.46c-3.75,2.29-3.75-1.48-3.77-3.92c-0.06-6.9-0.02-13.8-0.02-20.7
		C287.56,642.09,287.57,642.09,287.58,642.09z"/>
	<path class="st5" d="M657.43,272.58c6.62-0.01,13.25,0.07,19.87-0.03c4.46-0.07,6.51,0.74,3.39,5.56
		c-7.89,12.18-13.08,25.95-22.69,37.19c-4.54,5.3-8.54,8.07-15.99,6.31c-6.02-1.43-12.61-0.7-18.94-0.53
		c-4.48,0.12-6.12-1.08-4.58-5.76c4.04-12.29,8.06-24.6,11.6-37.03c1.34-4.7,3.75-6.01,8.29-5.78
		C644.72,272.82,651.08,272.58,657.43,272.58z"/>
	<path class="st5" d="M416.92,270.65c9.56,3.55,19.25,1.39,28.76,1.78c4.1,0.17,4.87,2.68,5.8,5.7c3.14,10.26,7.03,20.36,9.28,30.81
		c0.89,4.13,8.34,6.74,3.2,12.09c-4.01,4.18-8.25-1.01-12.47-0.04c-19.1,4.4-30.27-4.88-37.36-21.56
		c-3.39-7.96-10.62-13.61-13.74-21.88c-1.1-2.92-1.79-4.91,2.12-4.99C407.47,272.47,412.45,272.8,416.92,270.65z"/>
	<path class="st5" d="M745.64,621.31c0.01-19.55,0-19.52,18.36-13.68c8.41,2.68,16.81,5.42,25.31,7.78c3.59,1,5.25,2.81,4.82,6.42
		c-1.04,8.64,2.32,17.15,0.22,25.95c-1.12,4.71-0.21,9.91-0.18,14.89c0.03,3.78-0.57,6.3-5.13,3.42
		c-13.17-8.32-26.38-16.59-39.66-24.73c-3.03-1.86-3.92-4.29-3.8-7.6C745.74,629.61,745.63,625.46,745.64,621.31z"/>
	<path class="st5" d="M313.05,537.75c6.34,0,12.69,0.16,19.03-0.07c2.99-0.11,4.94,0.17,4.42,3.83
		c-1.45,10.16-0.59,20.38-0.58,30.58c0.01,3.79-1.81,5.53-5.01,6.52c-12.88,3.95-25.77,7.88-38.65,11.83
		c-4.89,1.5-7.02,1.27-5.64-5.21c2.77-13.02,1.02-26.38,1-39.58c-0.01-6.29,1.91-8.33,8.06-7.8c5.75,0.5,11.58,0.11,17.38,0.11
		C313.05,537.88,313.05,537.81,313.05,537.75z"/>
	<path class="st5" d="M794.15,409.22c0,1.93,0,3.87,0,5.8c0,20.26-0.01,20.21-19.83,26.02c-7.4,2.17-14.82,4.34-22.06,6.99
		c-5.34,1.96-6.91,0.51-6.71-4.98c0.32-9.11,0.19-18.23,0.06-27.35c-0.03-2.37,0.24-3.89,2.62-5.29
		c13.31-7.81,26.61-15.66,39.61-23.98c5.63-3.61,6.5-1.68,6.35,3.72C794.01,396.51,794.15,402.87,794.15,409.22z"/>
	<path class="st5" d="M746.12,557.62c0.03-19.35,0.03-19.35,19.4-19.35c7.19,0,14.4,0.4,21.55-0.12c6.31-0.47,8.18,2.96,7.53,7.91
		c-1.72,13.23-0.67,26.47-0.89,39.7c-0.07,4.27-1.45,5.29-5.48,4.01c-12.43-3.93-24.92-7.65-37.39-11.44c-3.3-1-5.02-2.87-4.79-6.62
		C746.34,567.03,746.12,562.32,746.12,557.62z"/>
	<path class="st5" d="M578.07,273.32c6.68-0.67,14.7,1.05,22.64-1.06c4.23-1.13,5.45,0.89,4.14,5.02
		c-4.06,12.87-7.95,25.8-11.92,38.69c-0.91,2.94-2.58,4.41-6.03,4.35c-10.18-0.19-20.41-1.33-30.53,0.99
		c-3.12,0.72-3.48-0.8-3.38-3.7c0.4-12.14,0.79-24.29,0.46-36.43c-0.16-5.97,1.03-8.71,7.61-7.97
		C566.24,273.79,571.54,273.32,578.07,273.32z"/>
</g>
</svg>
