<svg width="32" height="32" viewBox="0 0 32 32" fill="none" xmlns="http://www.w3.org/2000/svg">
<g clip-path="url(#clip0_241_7557)">
<path d="M0.677557 15.809C0.676812 18.4977 1.37932 21.1229 2.71514 23.4368L0.549805 31.3428L8.6406 29.2214C10.8784 30.4396 13.3857 31.078 15.9336 31.0781H15.9403C24.3515 31.0781 31.1984 24.2337 31.202 15.8211C31.2036 11.7445 29.6175 7.91125 26.7357 5.02728C23.8545 2.14356 20.0225 0.554595 15.9397 0.552734C7.52754 0.552734 0.681154 7.39677 0.677681 15.809" fill="white"/>
<path d="M11.991 9.19759C11.6951 8.53986 11.3837 8.52658 11.1022 8.51505C10.8718 8.50513 10.6083 8.50587 10.3451 8.50587C10.0817 8.50587 9.65368 8.60497 9.29188 9.00001C8.92971 9.39542 7.90918 10.351 7.90918 12.2944C7.90918 14.238 9.32475 16.1162 9.52208 16.38C9.71966 16.6433 12.2549 20.7591 16.27 22.3425C19.6069 23.6584 20.286 23.3967 21.0102 23.3307C21.7345 23.2649 23.3474 22.3754 23.6765 21.453C24.0058 20.5307 24.0058 19.7401 23.9071 19.5749C23.8083 19.4103 23.5449 19.3115 23.1499 19.114C22.7547 18.9164 20.8126 17.9608 20.4506 17.8289C20.0884 17.6972 19.8251 17.6315 19.5616 18.027C19.2982 18.4219 18.5417 19.3115 18.3112 19.5749C18.0808 19.839 17.8503 19.8718 17.4553 19.6742C17.0601 19.476 15.7879 19.0594 14.2785 17.7138C13.1042 16.6667 12.3114 15.3737 12.081 14.9782C11.8505 14.5833 12.0563 14.3692 12.2544 14.1724C12.4318 13.9954 12.6495 13.7111 12.8472 13.4805C13.0442 13.2498 13.1099 13.0852 13.2416 12.8218C13.3735 12.5581 13.3075 12.3274 13.2089 12.1298C13.1099 11.9322 12.3423 9.97862 11.991 9.19759Z" fill="black"/>
</g>
<defs>
<clipPath id="clip0_241_7557">
<rect width="31.7519" height="32" fill="white"/>
</clipPath>
</defs>
</svg>
