<svg width="44" height="44" viewBox="0 0 44 44" fill="none" xmlns="http://www.w3.org/2000/svg">
<path d="M25.5279 21.6315L20.5867 19.3259C20.1555 19.1257 19.8013 19.3501 19.8013 19.8275V24.1703C19.8013 24.6477 20.1555 24.8721 20.5867 24.6719L25.5257 22.3663C25.9591 22.1639 25.9591 21.8339 25.5279 21.6315ZM22.0013 0.878906C10.3369 0.878906 0.881348 10.3345 0.881348 21.9989C0.881348 33.6633 10.3369 43.1189 22.0013 43.1189C33.6657 43.1189 43.1213 33.6633 43.1213 21.9989C43.1213 10.3345 33.6657 0.878906 22.0013 0.878906ZM22.0013 30.5789C11.1905 30.5789 11.0013 29.6043 11.0013 21.9989C11.0013 14.3935 11.1905 13.4189 22.0013 13.4189C32.8121 13.4189 33.0013 14.3935 33.0013 21.9989C33.0013 29.6043 32.8121 30.5789 22.0013 30.5789Z" fill="white"/>
</svg>
