<?xml version="1.0" encoding="utf-8"?>
<!-- Generator: Adobe Illustrator 24.0.1, SVG Export Plug-In . SVG Version: 6.00 Build 0)  -->
<svg version="1.1" id="Layer_1" xmlns="http://www.w3.org/2000/svg" xmlns:xlink="http://www.w3.org/1999/xlink" x="0px" y="0px"
	 viewBox="0 0 1080 1080" style="enable-background:new 0 0 1080 1080;" xml:space="preserve">
<style type="text/css">
	.st0{fill:#800000;}
	.st1{fill:#EDDC92;}
	.st2{fill:#FEC210;}
</style>
<g>
	<path class="st0" d="M504.04,1011.96c-9.28-4.26-19.47-3.44-29.21-5.12c-130.58-22.51-230.76-89.87-300.24-202.77
		c-1.43-2.32-2.81-4.66-5.15-8.52c-4.27,15.57-7.79,29.81-12.13,43.8c-4.73,15.25-18.22,24.99-33.7,25.34
		c-15.92,0.35-29.67-8.53-35.41-23.03c-3.02-7.63-3.46-15.36-1.28-23.42c12.19-45.24,24.21-90.53,36.29-135.8
		c0.63-2.37,1.29-4.73,1.87-7.11c6.78-28.16,24.85-38.98,52.54-31.54c47.61,12.79,95.26,25.47,142.85,38.34
		c19.2,5.19,30.13,20.49,28.74,39.51c-1.25,17.08-14.77,30.76-32.79,33.28c-5.95,0.83-11.57-0.66-17.21-2.14
		c-25.47-6.69-50.93-13.38-76.4-20.06c-0.75-0.67-1.5-0.94-2.17,0.05c-0.02,0.03,0.77,0.61,1.18,0.93
		c11.33,28.81,28.32,54.27,48.13,77.69c63.22,74.76,143.88,116.4,241.4,125.35c53.48,4.91,105.01-3.45,155.21-22.1
		c26.62-9.89,52.79,8.57,51.2,35.7c-0.93,15.84-9.31,26.91-24.16,32.78c-36.71,14.51-74.79,23.24-114.05,27.03
		c-1.87,0.18-4.45-1.22-5.44,1.81C550.74,1011.96,527.39,1011.96,504.04,1011.96z"/>
	<path class="st0" d="M908.13,802.03c14.41-1.28,27.71-7.22,41.78-9.98c15.43-3.03,30.74,3.31,38.92,16.45
		c8.24,13.23,7.33,29.91-2.3,42.25c-5.3,6.8-12.33,10.99-20.53,13.22c-49.65,13.53-99.3,27.09-148.99,40.45
		c-20.01,5.38-39.69-6.98-45.54-28.51c-9.39-34.59-18.56-69.25-27.81-103.88c-3.88-14.5-7.87-28.98-11.57-43.53
		c-5.32-20.97,5.92-40.72,25.95-46c19.62-5.17,39.04,6.05,44.86,26.56c6.95,24.46,13.34,49.08,20,73.62
		c0.69,2.55,1.52,5.07,2.6,8.64c24.22-34.12,42.82-70.03,52.51-109.61c35.55-145.32-3.36-267.66-115.68-366.48
		c-17.3-15.22-21.7-34.49-10.65-51.31c12.43-18.91,36.93-22.36,55.46-7.43c37.15,29.95,69.22,64.72,93.36,105.89
		c83.18,141.9,86.86,286.06,10.45,432c-1.24,2.37-3.57,4.31-3.18,7.39c-0.45,0.29-0.9,0.58-1.36,0.88c0.25,0.16,0.65,0.52,0.72,0.46
		C907.53,802.81,907.82,802.4,908.13,802.03z"/>
	<path class="st0" d="M545.56,162.03c-10.42-10.24-18.53-19.04-27.5-26.85c-21.41-18.63-16.55-44.07-4.3-56.18
		c16.1-15.93,37.98-14.46,56.71,4.26c31.72,31.7,63.42,63.42,95.15,95.12c2.17,2.17,4.41,4.27,6.72,6.28
		c18.2,15.84,19.63,39.47,2.72,56.71c-24.73,25.22-49.89,50.02-74.87,74.99c-11.08,11.08-22.04,22.27-33.26,33.2
		c-15.75,15.33-38.02,15.69-52.75,1.11c-15.02-14.87-14.72-37.52,0.98-53.43c17.91-18.15,35.99-36.12,54.12-54.04
		c1.45-1.44,3.88-1.9,4.94-3.95c-25.96-4.87-50.74-4.19-75.33-1.13c-86.14,10.72-158.96,48.02-217.8,111.8
		c-47.87,51.88-76.5,113.3-88.33,182.81c-3.78,22.22-21.72,35.39-41.81,31.94c-21.49-3.69-34.32-21.12-30.55-43.62
		c20.84-124.42,84.15-221.64,189.34-290.97c69.09-45.54,145.69-67.58,228.47-68.02C539.69,162.02,541.18,162.03,545.56,162.03z"/>
	<path class="st0" d="M221.82,733.7c-0.41-0.32-1.2-0.9-1.18-0.93c0.67-0.99,1.43-0.72,2.17-0.05
		C222.49,733.05,222.16,733.38,221.82,733.7z"/>
	<path class="st0" d="M908.13,802.03c-0.32,0.37-0.6,0.78-0.97,1.09c-0.07,0.06-0.47-0.3-0.72-0.46c0.45-0.29,0.9-0.58,1.36-0.88
		L908.13,802.03z"/>
</g>
<g>
	<path class="st1" d="M540.95,578.22v37.04c26.54-1.53,49.73-15.85,63.57-37.04H540.95z"/>
	<path class="st1" d="M531.61,578.22h-63.57c13.84,21.2,37.02,35.51,63.57,37.04V578.22L531.61,578.22z"/>
	<path class="st0" d="M455.56,600.9c19.29,23.38,48.29,38.25,80.73,38.25c58.08,0,105.14-47.65,105.14-106.45h6.43
		c0-79.9-36.03-144.91-111.58-144.91c-65.57,0-101.36,48.98-109.68,114.14L455.56,600.9z M433.26,520.29H639.3
		c0,8.49-46.13,15.38-103.02,15.38C479.39,535.65,433.26,528.77,433.26,520.29z M536.29,624.97c-50.25,0-91.14-41.39-91.14-92.25
		h9.34c0,12.94,3.03,25.14,8.28,36.05h147.02c5.24-10.91,8.28-23.12,8.28-36.05h9.34C627.41,583.59,586.53,624.97,536.29,624.97z"/>
	<path d="M478.75,710.25L399.2,734.1L296.8,424.81c0,0,1.05-22.71,34.18-32.62c33.15-9.94,45.37,8.78,45.37,8.78L478.75,710.25z"/>
	<path d="M414.39,745.53l57.8-17.33l-6.53,19.4L476,782.94h-38.45l-7.24-24.74L414.39,745.53z"/>
	<path class="st2" d="M477.42,747.84l5.22-15.47l42.39-51.7l-21.81-24.47l66.2-0.01l-21.81,24.47l45.56,55.59l10.12-80.05h23.31
		c0.65,0,1.28,0.05,1.92,0.09c0.16,0.01,0.32,0.02,0.46,0.03c13.2,0.34,38.74,4.67,64.88,29.54c22.94,21.83,40.73,54.26,53.34,97.09
		h-79c-1.8-4.62-3.62-8.87-5.48-12.76v12.76H487.68L477.42,747.84z"/>
	<path class="st2" d="M409.92,782.94v-12.73c-1.87,3.87-3.71,8.11-5.53,12.73h-78.91c11.84-40.19,28.28-71.24,49.16-92.87
		l17.03,58.2l5.83-1.75l23.07,18.37l5.28,18.06L409.92,782.94L409.92,782.94z"/>
</g>
</svg>
