<?xml version="1.0" encoding="utf-8"?>
<!-- Generator: Adobe Illustrator 24.0.1, SVG Export Plug-In . SVG Version: 6.00 Build 0)  -->
<svg version="1.1" id="Layer_1" xmlns="http://www.w3.org/2000/svg" xmlns:xlink="http://www.w3.org/1999/xlink" x="0px" y="0px"
	 viewBox="0 0 1080 1080" style="enable-background:new 0 0 1080 1080;" xml:space="preserve">
<style type="text/css">
	.st0{fill:#FFBA19;}
	.st1{fill:#800000;}
	.st2{fill:#2DB630;}
	.st3{fill:#FC4A21;}
	.st4{fill:#FEDC48;}
	.st5{fill:#FFFFFF;}
	.st6{fill:#0B7EEB;}
	.st7{fill:#FDFDFD;}
</style>
<g>
	<path class="st0" d="M407.83,439.75c-1.27,0.56-2.55,0.68-3.85,0.13c-2.22-2.86-5.6-1.48-8.38-2.13
		c-27.81-6.52-51.28-20.02-70.48-41.4c-21.53-23.97-32.01-52.21-32.96-83.88c-0.76-25.28,5.81-49.08,19.38-70.59
		c14.71-23.32,34.64-40.64,60.21-51.48c11.69-4.96,23.96-7.34,36.19-10.09c32.75,0.22,60.87,12.35,84.68,34.25
		c27.23,25.04,41.4,56.69,41.91,93.47c0.94,68.47-48.78,120.46-107.28,130.4c-5.92,1.01-11.77,1.85-17.76,1.32
		C408.94,439.74,408.38,439.74,407.83,439.75z M412.21,280.65c0-6.67,0.13-13.34-0.05-20.01c-0.12-4.57,1.63-5.03,5.41-3.36
		c7.72,3.41,13.63,8.16,15.66,16.95c1.2,5.17,4.99,7.92,10.39,6.35c4.97-1.44,6.49-5.49,5.72-10.36c-0.28-1.78-0.93-3.54-1.61-5.22
		c-4.25-10.56-11.35-19.35-22.28-21.97c-11.83-2.84-15.04-8.93-13.4-19.94c0.7-4.73-2.32-8.01-7.13-8.41
		c-5.08-0.42-8.3,2.48-9.13,7.45c-0.45,2.69-0.49,5.55-0.12,8.25c0.86,6.25-1.25,9.01-7.79,10.75c-23.6,6.29-34.53,32.3-23.36,53.74
		c5.59,10.73,14.97,16.49,25.83,20.32c3.42,1.21,5.42,2.53,5.34,6.65c-0.24,12.41-0.18,24.84-0.03,37.25
		c0.05,4.1-1.21,4.73-4.83,3.1c-8.28-3.7-13.76-9.53-16.09-18.49c-1.36-5.26-5.52-7.62-10.65-5.99c-5.1,1.62-6.65,5.55-5.14,10.99
		c3.46,12.47,10.36,22.73,22.5,26.98c10.98,3.84,16.34,8.78,14.5,21.18c-0.98,6.59,6.16,10.66,11.96,7.97
		c4.93-2.29,4.7-7.15,4.18-11.43c-0.96-7.92,0.56-13.31,10.01-13.62c2.59-0.09,5.17-1.79,7.68-2.92
		c18.9-8.51,26.07-33.54,14.69-50.94c-6.63-10.14-16.52-15.74-27.49-19.63c-3.74-1.33-4.99-3.25-4.86-7.02
		C412.37,293.08,412.21,286.86,412.21,280.65z"/>
	<path class="st1" d="M694.11,820.24c0.01,4.61-1.33,5.85-5.81,5.78c-16.1-0.25-32.2-0.13-48.3-0.16
		c-20.49,1.75-20.49,1.75-20.49-18.18c0-139.17,0.05-278.34-0.15-417.51c-0.02-6.68,1.77-9.15,8.41-8.25
		c4.06,0.56,8.21,0.46,12.32,0.65c16.1-0.01,32.2,0.15,48.29-0.13c4.6-0.08,5.72,1.4,5.71,5.82
		C693.98,532.27,693.98,676.25,694.11,820.24z"/>
	<path d="M467.05,865.08c-110.94,0-221.87,0-332.81,0c-11.68,0-13.53-1.86-13.53-13.6c0-222.1,0-444.2,0-666.3
		c0-1.61-0.06-3.23,0.03-4.83c0.31-5.1,2.97-8.37,8.12-8.45c5.16-0.08,7.94,3.12,8.36,8.2c0.19,2.29,0.05,4.6,0.05,6.9
		c0,217.73,0.04,435.46-0.18,653.18c-0.01,7,1.69,8.5,8.56,8.5c217.96-0.2,435.92-0.17,653.87-0.17c10.5,0,14.6,2.41,14.45,8.47
		c-0.14,5.92-3.93,8.1-14.14,8.1C688.92,865.08,577.98,865.08,467.05,865.08z"/>
	<path class="st1" d="M567.89,819.6c0.07,4.53-0.86,6.57-6,6.45c-15.86-0.36-31.73-0.23-47.59-0.29
		c-6.45,0.91-12.91,0.52-19.37,0.23c-0.35-0.29-0.7-0.59-1.05-0.88c-0.13-1.83-0.36-3.65-0.36-5.48
		c-0.02-111.49-0.02-222.99,0-334.48c0-1.83,0.23-3.66,0.34-5.48c0.36-0.3,0.72-0.62,1.08-0.93c6.46-0.28,12.91-0.62,19.35,0.21
		c15.64-0.06,31.28,0.16,46.9-0.33c5.82-0.18,6.71,1.97,6.71,7.1c-0.14,96.81-0.1,193.62-0.1,290.43
		C567.8,790.62,567.67,805.11,567.89,819.6z"/>
	<path class="st1" d="M441.3,820.24c0.07,4.58-1.32,5.89-5.81,5.81c-16.08-0.26-32.17-0.16-48.26-0.19
		c-20.52,1.72-20.52,1.72-20.52-18.11c0-75.09,0.08-150.19-0.16-225.29c-0.02-6.17,1.59-8.21,7.63-7.46
		c4.31,0.54,8.71,0.27,13.06,0.36c15.63-0.05,31.27,0.17,46.89-0.28c5.76-0.16,7.23,1.51,7.2,7.21
		c-0.2,62.07-0.12,124.14-0.12,186.22C441.2,785.75,441.04,803.01,441.3,820.24z"/>
	<path class="st1" d="M315.15,820.96c0.01,3.94-1.56,5.22-5.34,5.16c-16.11-0.23-32.21-0.27-48.32-0.37
		c-6.43,0.94-12.88,0.49-19.31,0.25c-0.37-0.29-0.75-0.59-1.13-0.88c-0.12-14.25-0.33-28.5-0.35-42.75
		c-0.05-34.75,0.09-69.48-0.13-104.22c-0.03-5.13,1.24-7.05,6.49-6.51c4.78,0.49,9.64,0.25,14.47,0.34
		c16.11-0.08,32.22-0.07,48.32-0.29c3.72-0.05,5.32,0.86,5.3,4.96C315.06,724.74,315.07,772.85,315.15,820.96z"/>
	<path class="st0" d="M407.94,180.3c-12.23,2.75-24.5,5.14-36.19,10.09c-25.57,10.84-45.49,28.16-60.21,51.48
		c-13.57,21.51-20.15,45.31-19.38,70.59c0.96,31.68,11.43,59.91,32.96,83.88c19.2,21.38,42.67,34.88,70.48,41.4
		c2.78,0.65,6.17-0.73,8.38,2.13c-39.4,0.36-72.28-14.73-97.69-44.23c-32.62-37.87-41.24-81.84-24.6-128.83
		c16.75-47.28,51.61-75.27,100.86-84.96C390.87,180.22,399.39,179.43,407.94,180.3z"/>
	<path class="st2" d="M407.83,439.75c0.55,0,1.1-0.01,1.65-0.01C408.94,439.74,408.38,439.74,407.83,439.75z"/>
	<path class="st3" d="M494.95,478.74c-0.36,0.31-0.72,0.62-1.08,0.92C493.73,478.77,494.08,478.45,494.95,478.74z"/>
	<path class="st4" d="M241.05,825.12c0.38,0.29,0.75,0.59,1.13,0.88C241.41,826.21,241.04,825.91,241.05,825.12z"/>
	<path class="st3" d="M493.89,825.1c0.35,0.29,0.7,0.59,1.05,0.88C494.09,826.29,493.76,825.97,493.89,825.1z"/>
	<path class="st5" d="M412.21,280.65c0,6.21,0.16,12.42-0.06,18.63c-0.14,3.77,1.11,5.69,4.86,7.02
		c10.97,3.89,20.86,9.49,27.49,19.63c11.37,17.4,4.21,42.43-14.69,50.94c-2.51,1.13-5.09,2.84-7.68,2.92
		c-9.45,0.31-10.98,5.7-10.01,13.62c0.52,4.29,0.75,9.14-4.18,11.43c-5.8,2.69-12.93-1.37-11.96-7.97
		c1.84-12.4-3.52-17.34-14.5-21.18c-12.14-4.25-19.04-14.51-22.5-26.98c-1.51-5.45,0.04-9.37,5.14-10.99
		c5.12-1.63,9.28,0.73,10.65,5.99c2.32,8.97,7.8,14.79,16.09,18.49c3.62,1.62,4.88,0.99,4.83-3.1c-0.15-12.42-0.21-24.84,0.03-37.25
		c0.08-4.12-1.92-5.44-5.34-6.65c-10.86-3.83-20.24-9.59-25.83-20.32c-11.17-21.44-0.24-47.45,23.36-53.74
		c6.54-1.74,8.65-4.5,7.79-10.75c-0.37-2.7-0.34-5.56,0.12-8.25c0.84-4.97,4.05-7.87,9.13-7.45c4.8,0.4,7.83,3.68,7.13,8.41
		c-1.64,11.01,1.57,17.1,13.4,19.94c10.93,2.62,18.03,11.41,22.28,21.97c0.68,1.69,1.33,3.44,1.61,5.22
		c0.77,4.87-0.76,8.92-5.72,10.36c-5.4,1.56-9.19-1.18-10.39-6.35c-2.04-8.79-7.94-13.54-15.66-16.95
		c-3.78-1.67-5.54-1.21-5.41,3.36C412.34,267.31,412.21,273.98,412.21,280.65z M412.2,343.2c0,5.97-0.02,11.93,0.01,17.9
		c0.01,1.83-0.18,3.47,2.87,3.29c9.21-0.53,17.41-8.53,17.85-17.87c0.48-10.14-7.77-20.82-17.63-23.28
		c-2.99-0.75-3.09,0.72-3.09,2.75C412.2,331.73,412.21,337.46,412.2,343.2z M395.62,278.03c0-5.5-0.25-11.02,0.07-16.5
		c0.32-5.56-1.68-5.35-5.93-3.5c-8.59,3.74-13.07,10.64-13.16,19.28c-0.1,9.39,5.47,16.17,14.04,20.32c3.56,1.73,5.09,0.94,5.01-3.1
		C395.54,289.03,395.62,283.53,395.62,278.03z"/>
	<path class="st0" d="M412.2,343.2c0-5.74-0.01-11.47,0.01-17.21c0-2.03,0.1-3.5,3.09-2.75c9.86,2.46,18.11,13.14,17.63,23.28
		c-0.44,9.35-8.65,17.34-17.85,17.87c-3.05,0.18-2.86-1.46-2.87-3.29C412.18,355.13,412.2,349.17,412.2,343.2z"/>
	<path class="st0" d="M395.62,278.03c0,5.5-0.08,11,0.02,16.5c0.08,4.04-1.44,4.83-5.01,3.1c-8.57-4.15-14.14-10.93-14.04-20.32
		c0.09-8.65,4.58-15.54,13.16-19.28c4.25-1.85,6.25-2.06,5.93,3.5C395.38,267.01,395.62,272.53,395.62,278.03z"/>
</g>
<g>
	<path class="st6" d="M741.9,582c-5.2-0.07-10.41-0.16-15.61-0.22c-6.33-0.06-8.08-1.75-8.1-7.94c-0.02-6.76-0.02-13.52,0-20.28
		c0.01-6.48,1.82-8.31,8.23-8.31c28.45-0.01,56.9,0,85.35,0c55.49,0,110.98,0,166.48,0c7.2,0,8.72,1.5,8.73,8.55
		c0.01,6.76,0.02,13.52,0,20.28c-0.02,6.04-1.68,7.63-7.84,7.7c-5.35,0.06-10.69,0.15-16.03,0.22c-3.9-0.4-7.8-0.39-11.71,0
		c-1.12-0.08-2.24-0.22-3.35-0.22c-63.68-0.01-127.37-0.01-191.05,0c-1.12,0-2.24,0.14-3.35,0.22
		C749.71,581.62,745.81,581.61,741.9,582z"/>
	<path class="st6" d="M963.07,896.75c5.63,0.06,11.26,0.08,16.88,0.18c4.89,0.09,6.97,2.11,7.01,6.93
		c0.06,7.46,0.05,14.92,0.01,22.39c-0.03,5.24-1.85,7.09-7.14,7.09c-22.81,0.03-45.62,0.02-68.43,0.02c-61.25,0-122.5,0-183.75,0
		c-8.23,0-9.46-1.25-9.46-9.53c0-6.62-0.06-13.24,0.02-19.85c0.05-4.84,2.16-6.94,6.97-7.04c5.63-0.11,11.26-0.12,16.88-0.18
		c3.86,0,7.71,0,11.57,0c0.98,0.06,1.96,0.16,2.94,0.16c63.96,0.01,127.92,0.01,191.89,0c0.98,0,1.96-0.11,2.94-0.16
		C955.28,896.75,959.17,896.75,963.07,896.75z"/>
	<path d="M963.07,896.75c-3.89,0-7.79,0-11.68,0c-0.29-12.23,0.36-24.47-0.62-36.71c-1.97-24.6-10.88-45.71-29.61-62.34
		c-12.63-11.21-25.1-22.6-37.47-34.11c-13.54-12.61-14-31.14-0.9-43.65c12.11-11.57,24.36-23.01,37.01-33.98
		c19.03-16.51,28.59-37.43,30.85-62.18c1.27-13.92,0.44-27.85,0.73-41.78c3.9-0.39,7.81-0.4,11.71,0
		c-0.22,16.17,0.76,32.36-1.52,48.47c-3.38,23.91-12.77,44.73-30.91,61.18c-13.03,11.82-26.02,23.69-39.01,35.55
		c-8.7,7.94-9,19.25-0.36,27.38c12.21,11.47,24.51,22.85,37.08,33.91c19.31,16.97,29.76,38.37,33.22,63.58
		C963.63,866.93,962.97,881.85,963.07,896.75z"/>
	<path d="M753.62,896.75c-3.86,0-7.72,0-11.57,0c-0.15-18.71-0.67-37.43,3.45-55.89c5.37-24.01,19.11-42.47,37.57-58.08
		c10.53-8.9,20.59-18.36,30.65-27.8c8.99-8.44,8.1-20.03-1.02-28.31c-15.52-14.09-31.81-27.41-46.01-42.88
		c-13.67-14.89-20.36-33.1-23.24-52.88c-2.37-16.25-1.32-32.6-1.55-48.91c3.91-0.39,7.81-0.39,11.72,0
		c0.28,14.07-0.6,28.15,0.75,42.21c2.13,22.18,9.73,41.88,26.22,57.4c13.43,12.63,27.25,24.86,40.79,37.38
		c13.65,12.63,13.96,31.15,0.51,43.94c-11.02,10.48-22.1,20.93-33.74,30.69c-20.8,17.43-31.99,39.39-33.95,66.4
		C753.33,872.27,753.91,884.51,753.62,896.75z"/>
	<path class="st7" d="M753.62,896.75c0.29-12.24-0.29-24.47,0.59-36.72c1.95-27.01,13.14-48.97,33.95-66.4
		c11.65-9.76,22.73-20.21,33.74-30.69c13.45-12.79,13.14-31.32-0.51-43.94c-13.54-12.52-27.36-24.75-40.79-37.38
		c-16.49-15.51-24.09-35.22-26.22-57.4c-1.35-14.06-0.47-28.14-0.75-42.21c1.12-0.07,2.24-0.22,3.35-0.22
		c63.68-0.01,127.37-0.01,191.05,0c1.12,0,2.24,0.14,3.35,0.22c-0.28,13.92,0.54,27.85-0.73,41.78
		c-2.26,24.75-11.82,45.67-30.85,62.18c-12.65,10.97-24.9,22.42-37.01,33.98c-13.1,12.51-12.65,31.04,0.9,43.65
		c12.36,11.51,24.84,22.9,37.47,34.11c18.72,16.63,27.64,37.74,29.61,62.34c0.98,12.24,0.33,24.48,0.62,36.71
		c-0.98,0.06-1.96,0.16-2.94,0.16c-63.96,0.01-127.92,0.01-191.89,0C755.58,896.91,754.6,896.8,753.62,896.75z M852.39,884.2
		c22.38,0,44.76-0.23,67.14,0.08c13.88,0.19,13.86-2.07,12.07-14.3c-6.79-46.36-48.09-75.93-94.01-67.83
		c-34.94,6.17-63.23,38.28-64.5,73.23c-0.26,7.11,1.35,8.82,8.36,8.82C805.09,884.2,828.74,884.2,852.39,884.2z M821.69,649.78
		c-12.28,0.47-23.81,3.28-34.75,8.46c-5.5,2.61-6.22,6.65-1.82,10.9c16.1,15.55,32.19,31.13,48.49,46.47
		c5.16,4.86,8.41,10.43,9.54,17.36c0.94,5.81,4.39,8.86,9.92,8.94c4.72,0.07,7.95-2.76,8.99-8.25c1.38-7.31,4.76-13.38,10.21-18.49
		c14.18-13.28,28.23-26.71,42.34-40.06c5.24-4.96,9.84-10.44,13.56-16.64c1.59-2.65,2.13-5.3-0.18-7.75
		c-2.3-2.45-5.02-2.04-7.75-0.69c-3.78,1.87-7.53,3.81-11.38,5.55c-4.88,2.21-9.91,3.91-15.26,4.69
		c-11.94,1.75-23.23-1.29-34.38-4.75C846.9,651.7,834.5,648.99,821.69,649.78z M858.37,784.18c0.11-3.1-2.27-5.65-5.4-5.81
		c-3.38-0.17-6.12,2.22-6.23,5.45c-0.11,3.05,2.3,5.61,5.45,5.81C855.59,789.83,858.26,787.49,858.37,784.18z M852.52,766.78
		c3.36,0.02,5.95-2.55,5.85-5.8c-0.1-3.13-2.54-5.45-5.75-5.46c-3.36-0.01-5.99,2.57-5.89,5.79
		C846.83,764.37,849.36,766.76,852.52,766.78z"/>
	<path class="st0" d="M852.39,884.2c-23.65,0-47.29,0-70.94,0c-7.02,0-8.62-1.71-8.36-8.82c1.27-34.94,29.55-67.06,64.5-73.23
		c45.92-8.1,87.22,21.47,94.01,67.83c1.79,12.24,1.81,14.5-12.07,14.3C897.15,883.97,874.77,884.2,852.39,884.2z"/>
	<path class="st0" d="M821.69,649.78c12.81-0.79,25.21,1.92,37.53,5.74c11.15,3.46,22.44,6.51,34.38,4.75
		c5.35-0.79,10.38-2.48,15.26-4.69c3.84-1.74,7.59-3.69,11.38-5.55c2.73-1.35,5.45-1.75,7.75,0.69c2.3,2.45,1.77,5.1,0.18,7.75
		c-3.73,6.2-8.32,11.67-13.56,16.64c-14.11,13.35-28.16,26.78-42.34,40.06c-5.45,5.11-8.82,11.18-10.21,18.49
		c-1.04,5.49-4.26,8.32-8.99,8.25c-5.54-0.08-8.98-3.13-9.92-8.94c-1.12-6.93-4.38-12.5-9.54-17.36
		c-16.3-15.35-32.38-30.92-48.49-46.47c-4.4-4.25-3.68-8.29,1.82-10.9C797.87,653.06,809.41,650.25,821.69,649.78z"/>
	<path class="st0" d="M858.37,784.18c-0.11,3.31-2.78,5.66-6.18,5.45c-3.15-0.19-5.56-2.76-5.45-5.81c0.11-3.23,2.85-5.62,6.23-5.45
		C856.1,778.53,858.47,781.08,858.37,784.18z"/>
	<path class="st0" d="M852.52,766.78c-3.16-0.02-5.68-2.41-5.78-5.48c-0.1-3.21,2.52-5.79,5.89-5.79c3.2,0.01,5.65,2.33,5.75,5.46
		C858.47,764.23,855.88,766.8,852.52,766.78z"/>
</g>
</svg>
